<?xml version="1.0" encoding="iso-8859-1"?>
<!-- Generator: Adobe Illustrator 19.0.0, SVG Export Plug-In . SVG Version: 6.00 Build 0)  -->
<svg version="1.1" id="Layer_1" xmlns="http://www.w3.org/2000/svg" xmlns:xlink="http://www.w3.org/1999/xlink" x="0px" y="0px"
	 viewBox="0 0 512 512" style="enable-background:new 0 0 512 512;" xml:space="preserve">
<polygon style="fill:#CCCBCA;" points="413.051,326.825 255.99,169.741 98.939,326.825 16.184,244.045 20.652,239.575 
	98.939,317.891 255.99,160.804 413.051,317.891 491.343,239.583 495.811,244.05 "/>
<g>
	<path style="fill:#353F49;" d="M36.797,241.818c0,10.148-8.248,18.376-18.371,18.376C8.233,260.196,0,251.965,0,241.818
		c0-10.132,8.233-18.396,18.424-18.396C28.547,223.421,36.797,231.685,36.797,241.818z"/>
	<path style="fill:#353F49;" d="M117.317,322.358c0,10.13-8.248,18.406-18.373,18.406c-10.179,0-18.422-8.276-18.422-18.406
		c0-10.194,8.246-18.414,18.422-18.414C109.069,303.941,117.317,312.161,117.317,322.358z"/>
	<path style="fill:#353F49;" d="M431.473,322.358c0,10.138-8.289,18.411-18.422,18.411c-10.127,0-18.414-8.274-18.414-18.412
		c0-10.176,8.287-18.414,18.414-18.414C423.183,303.941,431.473,312.182,431.473,322.358z"/>
	<polygon style="fill:#353F49;" points="475.149,223.421 512,260.211 512,223.421 	"/>
</g>
<rect x="244.019" y="287.301" style="fill:#474F59;" width="24.015" height="28.652"/>
<path style="fill:#353F49;" d="M380.849,165.235c0,68.943-55.895,124.815-124.828,124.815c-68.938,0-124.808-55.872-124.808-124.815
	c0-68.933,55.869-124.805,124.808-124.805C324.954,40.43,380.849,96.302,380.849,165.235z"/>
<path style="fill:#FFFFFF;" d="M355.912,165.235c0,55.16-44.741,99.837-99.894,99.837c-55.132,0-99.853-44.677-99.853-99.837
	c0-55.168,44.721-99.845,99.853-99.845C311.173,65.39,355.912,110.067,355.912,165.235z"/>
<g>
	<path style="fill:#474F59;" d="M255.99,160.282l-73.011,72.991c1.597,1.777,3.269,3.412,5,4.989l68.012-68.006l68.063,68.045
		c1.764-1.559,3.407-3.223,4.997-4.974L255.99,160.282z"/>
	<rect x="232.422" y="340.959" style="fill:#474F59;" width="47.206" height="130.611"/>
</g>
<rect x="228.454" y="315.973" style="fill:#353F49;" width="55.124" height="24.98"/>
<path style="fill:#E6E5E5;" d="M255.99,96.328v68.946h68.948C324.938,127.173,294.077,96.328,255.99,96.328z"/>
<path style="fill:#F77B55;" d="M255.99,165.274V96.328c-38.026,0-68.941,30.845-68.941,68.946c0,38.07,30.912,68.867,68.941,68.867
	c19.077,0,36.303-7.718,48.678-20.186L255.99,165.274z"/>
<path style="fill:#353F49;" d="M255.99,165.274l48.678,48.681c12.39-12.434,20.27-29.66,20.27-48.681H255.99z"/>
<g>
</g>
<g>
</g>
<g>
</g>
<g>
</g>
<g>
</g>
<g>
</g>
<g>
</g>
<g>
</g>
<g>
</g>
<g>
</g>
<g>
</g>
<g>
</g>
<g>
</g>
<g>
</g>
<g>
</g>
</svg>
