<?xml version="1.0" encoding="iso-8859-1"?>
<!-- Generator: Adobe Illustrator 19.0.0, SVG Export Plug-In . SVG Version: 6.00 Build 0)  -->
<svg version="1.1" id="Layer_1" xmlns="http://www.w3.org/2000/svg" xmlns:xlink="http://www.w3.org/1999/xlink" x="0px" y="0px"
	 viewBox="0 0 512 512" style="enable-background:new 0 0 512 512;" xml:space="preserve">
<circle style="fill:#ADECF7;" cx="256" cy="256" r="256"/>
<g>
	<path style="fill:#232E38;" d="M109.36,431.768c0,5.942-4.786,10.722-10.719,10.722c-5.936,0-10.749-4.78-10.749-10.722
		c0-5.939,4.813-10.719,10.749-10.719C104.574,421.049,109.36,425.829,109.36,431.768z"/>
	<path style="fill:#232E38;" d="M424.091,431.768c0,5.942-4.786,10.722-10.726,10.722c-5.933,0-10.719-4.78-10.719-10.722
		c0-5.939,4.786-10.719,10.719-10.719C419.305,421.049,424.091,425.829,424.091,431.768z"/>
	<rect x="19.819" y="413.861" style="fill:#232E38;" width="472.361" height="17.92"/>
</g>
<polygon style="fill:#474F59;" points="441.37,349.468 70.626,349.468 19.819,413.848 492.181,413.848 "/>
<rect x="98.624" y="165.326" style="fill:#FFFFFF;" width="314.731" height="216.328"/>
<g>
	<rect x="98.624" y="137.335" style="fill:#353F49;" width="314.731" height="27.982"/>
	<path style="fill:#353F49;" d="M169.7,269.913h-7.839c-3.273,0-6.362-1.275-8.674-3.614c-2.302-2.249-3.584-5.345-3.584-8.641
		c0-3.287,1.275-6.355,3.597-8.668c2.259-2.279,5.341-3.538,8.661-3.538h16.975v6.154h-16.975c-1.662,0-3.191,0.621-4.294,1.754
		c-1.156,1.133-1.794,2.669-1.794,4.298c0,1.638,0.631,3.158,1.774,4.301c1.156,1.146,2.686,1.794,4.314,1.794h7.839L169.7,269.913
		L169.7,269.913z"/>
	<path style="fill:#353F49;" d="M169.7,288.243h-17.005v-6.161H169.7c1.615,0,3.141-0.654,4.314-1.817
		c1.123-1.093,1.747-2.623,1.747-4.261s-0.621-3.161-1.741-4.298c-1.176-1.143-2.702-1.794-4.321-1.794h-7.839v-6.161h7.839
		c3.26,0,6.349,1.272,8.641,3.601c2.322,2.249,3.607,5.355,3.607,8.651c0,3.287-1.285,6.355-3.62,8.664
		C176.026,286.984,172.944,288.243,169.7,288.243z"/>
	<rect x="162.684" y="243.283" style="fill:#353F49;" width="6.157" height="47.097"/>
</g>
<path style="fill:#D9D8D7;" d="M202.811,266.848c0,10.2-4.142,19.482-10.851,26.175l10.907,10.917
	c9.493-9.5,15.367-22.614,15.367-37.092H202.811z"/>
<path style="fill:#353F49;" d="M165.772,229.782c20.447,0,37.042,16.585,37.042,37.062c0,0.007,0,0.007,0,0.007h15.423
	c0-28.976-23.493-52.472-52.468-52.472L165.772,229.782L165.772,229.782z"/>
<path style="fill:#FFDB79;" d="M165.762,229.782v-15.406c-7.099,0-13.883,1.414-20.051,4.013l5.89,14.22
	C155.968,230.8,160.735,229.786,165.762,229.782z"/>
<g>
	<path style="fill:#F77B55;" d="M191.941,293.052c-6.696,6.696-15.941,10.838-26.171,10.838c-20.454,0-37.049-16.602-37.049-37.049
		c0-15.443,9.451-28.669,22.878-34.235l-5.89-14.22c-19.02,7.845-32.388,26.594-32.388,48.468c0,28.936,23.483,52.442,52.439,52.442
		c14.485,0,27.608-5.873,37.105-15.347L191.941,293.052z"/>
	<rect x="256.694" y="306.044" style="fill:#F77B55;" width="13.246" height="13.246"/>
</g>
<rect x="285.201" y="306.044" style="fill:#353F49;" width="13.279" height="13.246"/>
<rect x="313.707" y="306.044" style="fill:#D9D8D7;" width="13.246" height="13.246"/>
<rect x="342.181" y="306.044" style="fill:#FFDB79;" width="13.246" height="13.246"/>
<g>
	<rect x="256.694" y="253.942" style="fill:#D9D8D7;" width="141.992" height="6.597"/>
	<rect x="256.694" y="240.756" style="fill:#D9D8D7;" width="141.992" height="6.593"/>
	<rect x="256.694" y="227.563" style="fill:#D9D8D7;" width="141.992" height="6.6"/>
	<rect x="256.694" y="214.376" style="fill:#D9D8D7;" width="92.689" height="6.59"/>
	<rect x="256.694" y="267.099" style="fill:#D9D8D7;" width="71.006" height="6.6"/>
	<rect x="113.334" y="333.956" style="fill:#D9D8D7;" width="285.366" height="6.587"/>
	<rect x="113.334" y="347.169" style="fill:#D9D8D7;" width="285.366" height="6.597"/>
	<rect x="113.334" y="360.349" style="fill:#D9D8D7;" width="142.666" height="6.603"/>
</g>
<rect x="207.737" y="179.993" style="fill:#474F59;" width="96.52" height="6.593"/>
<rect x="162.618" y="193.173" style="fill:#D9D8D7;" width="186.764" height="6.597"/>
<g>
	<path style="fill:#FFFFFF;" d="M490.466,213.491c-1.097,0-2.15,0.178-3.135,0.522c0.284-1.467,0.443-2.98,0.443-4.535
		c0-12.922-10.471-23.374-23.39-23.374c-12.929,0-23.403,10.458-23.403,23.374c0,0.185,0.02,0.344,0.02,0.519
		c-1.483-0.647-3.115-1.021-4.843-1.021c-6.616,0-11.964,5.345-11.964,11.951c0,6.6,5.351,11.954,11.964,11.954h54.308
		c5.358,0,9.702-4.347,9.702-9.705S495.827,213.491,490.466,213.491z"/>
	<path style="fill:#FFFFFF;" d="M37.155,311.864c0.793,0,1.559,0.126,2.273,0.38c-0.208-1.067-0.324-2.16-0.324-3.28
		c0-9.355,7.574-16.919,16.922-16.919c9.361,0,16.939,7.571,16.939,16.919c0,0.129-0.01,0.248-0.01,0.373
		c1.07-0.469,2.253-0.743,3.505-0.743c4.783,0,8.651,3.871,8.651,8.648c0,4.78-3.871,8.651-8.651,8.651H37.155
		c-3.871,0-7.019-3.148-7.019-7.019C30.135,315.002,33.283,311.864,37.155,311.864z"/>
	<path style="fill:#FFFFFF;" d="M182.226,103.285c-0.02,0-0.033,0-0.033,0c0-0.393,0.033-0.78,0.033-1.173
		c0-22.756-18.458-41.208-41.214-41.208c-18.6,0-34.324,12.341-39.434,29.27c-3.108-1.46-6.573-2.283-10.227-2.283
		c-13.266,0-24.018,10.749-24.018,24.018c0,3.055,0.575,5.972,1.612,8.661c-0.271-0.02-0.522-0.04-0.793-0.04
		c-8.502,0-15.393,6.891-15.393,15.393c0,8.503,6.891,15.403,15.393,15.403h114.07c13.259,0,24.008-10.755,24.008-24.021
		S195.485,103.285,182.226,103.285z"/>
</g>
<g>
</g>
<g>
</g>
<g>
</g>
<g>
</g>
<g>
</g>
<g>
</g>
<g>
</g>
<g>
</g>
<g>
</g>
<g>
</g>
<g>
</g>
<g>
</g>
<g>
</g>
<g>
</g>
<g>
</g>
</svg>
