<?xml version="1.0" encoding="iso-8859-1"?>
<!-- Generator: Adobe Illustrator 19.0.0, SVG Export Plug-In . SVG Version: 6.00 Build 0)  -->
<svg version="1.1" id="Layer_1" xmlns="http://www.w3.org/2000/svg" xmlns:xlink="http://www.w3.org/1999/xlink" x="0px" y="0px"
	 viewBox="0 0 512 512" style="enable-background:new 0 0 512 512;" xml:space="preserve">
<path style="fill:#E6E5E5;" d="M50.785,110.998h0.003c0-0.502-0.003-0.988-0.003-1.498c0-28.667,23.224-51.978,51.971-51.978
	c23.462,0,43.282,15.603,49.715,36.948c3.919-1.815,8.297-2.865,12.918-2.865c16.758,0,30.287,13.54,30.287,30.28
	c0,3.837-0.694,7.56-1.999,10.949c0.333-0.028,0.63-0.072,0.98-0.072c10.762,0,19.441,8.686,19.441,19.41
	c0,10.783-8.678,19.466-19.441,19.466H50.785c-16.74,0-30.356-13.594-30.356-30.287C20.429,124.612,34.045,110.998,50.785,110.998z"
	/>
<polygon style="fill:#CCCBCA;" points="295.409,465.435 197.586,465.435 202.911,418.513 290.097,418.513 "/>
<g>
	<path style="fill:#E6E5E5;" d="M314.921,470.926H178.068v-2.335c0-0.786,0.261-1.582,0.896-2.184
		c0.607-0.614,1.382-0.975,2.225-0.975h130.629c0.814,0,1.59,0.361,2.207,0.975c0.632,0.599,0.896,1.398,0.896,2.184V470.926z"/>
	<path style="fill:#E6E5E5;" d="M422.531,410.717c0,1.976-0.801,3.996-2.327,5.553c-1.495,1.528-3.494,2.245-5.548,2.245H78.292
		c-2.015,0-3.991-0.717-5.509-2.245c-1.518-1.556-2.322-3.574-2.322-5.553v-23.47h352.069V410.717z"/>
</g>
<path style="fill:#353F49;" d="M422.531,161.832c0-1.994-0.801-3.968-2.327-5.499c-1.495-1.577-3.494-2.291-5.548-2.291H78.292
	c-2.015,0-3.991,0.712-5.509,2.291c-1.518,1.533-2.322,3.507-2.322,5.499v225.416h352.069V161.832z"/>
<rect x="88.074" y="171.649" style="fill:#FFFFFF;" width="316.851" height="197.99"/>
<g>
	<path style="fill:#E6E5E5;" d="M493.361,329.366c0,11.955-9.672,21.624-21.624,21.624c-11.871,0-21.532-9.669-21.532-21.624
		c0-11.873,9.661-21.542,21.532-21.542C483.686,307.823,493.361,317.495,493.361,329.366z"/>
	<path style="fill:#E6E5E5;" d="M39.124,259.726c0,4.854-3.981,8.835-8.852,8.835c-4.815,0-8.783-3.983-8.783-8.835
		c0-4.831,3.968-8.801,8.783-8.801C35.144,250.925,39.124,254.895,39.124,259.726z"/>
	<path style="fill:#E6E5E5;" d="M311.665,103.497c0,6.794-5.568,12.362-12.39,12.362c-6.738,0-12.296-5.568-12.296-12.362
		c0-6.761,5.558-12.321,12.296-12.321C306.097,91.176,311.665,96.739,311.665,103.497z"/>
</g>
<g>
	<path style="fill:#353F49;" d="M242.552,26.687c0,4.849-3.937,8.788-8.786,8.788c-4.861,0-8.847-3.94-8.847-8.788
		c0-4.846,3.986-8.783,8.847-8.783C238.615,17.906,242.552,21.841,242.552,26.687z"/>
	<path style="fill:#353F49;" d="M442.207,481.755c0,6.833-5.512,12.342-12.36,12.342c-6.753,0-12.324-5.509-12.324-12.342
		c0-6.7,5.573-12.234,12.324-12.234C436.695,469.518,442.207,475.053,442.207,481.755z"/>
	<path style="fill:#353F49;" d="M42.348,409.228c0,11.686-9.528,21.146-21.217,21.146C9.452,430.373,0,420.916,0,409.228
		c0-11.722,9.454-21.207,21.13-21.207C32.819,388.018,42.348,397.503,42.348,409.228z"/>
</g>
<rect x="445.542" y="149.838" style="fill:#474F59;" width="12.974" height="15.462"/>
<path style="fill:#353F49;" d="M452.022,31.251c-33.121,0-59.896,26.857-59.896,59.953c0,33.116,26.775,59.909,59.896,59.909
	c33.114,0,59.978-26.793,59.978-59.909C512,58.108,485.135,31.251,452.022,31.251z"/>
<path style="fill:#FFFFFF;" d="M452.012,136.895c-25.178,0-45.67-20.477-45.67-45.693c0-25.257,20.493-45.747,45.67-45.747
	c25.277,0,45.783,20.49,45.783,45.747C497.795,116.417,477.289,136.895,452.012,136.895z"/>
<g>
	<path style="fill:#353F49;" d="M464.765,165.306v73.242c0,6.963-5.678,12.721-12.739,12.721c-7.009,0-12.746-5.76-12.746-12.721
		v-73.242H464.765z"/>
	<polygon style="fill:#353F49;" points="454.502,59.158 449.638,59.158 448.223,66.162 455.908,66.162 	"/>
	<polygon style="fill:#353F49;" points="438.103,62.217 433.882,64.611 436.232,71.456 442.89,67.636 	"/>
	<polygon style="fill:#353F49;" points="425.495,73.074 423.104,77.28 428.467,82.052 432.317,75.334 	"/>
	<polygon style="fill:#353F49;" points="419.958,88.741 419.958,93.615 427.059,95 427.059,87.354 	"/>
	<polygon style="fill:#353F49;" points="423.104,105.11 425.495,109.359 432.317,107.027 428.467,100.302 	"/>
	<polygon style="fill:#353F49;" points="433.882,117.748 438.103,120.147 442.89,114.723 436.239,110.934 	"/>
	<polygon style="fill:#353F49;" points="449.643,123.258 454.502,123.258 455.908,116.184 448.223,116.184 	"/>
	<polygon style="fill:#353F49;" points="465.958,120.147 470.164,117.748 467.909,110.934 461.199,114.723 	"/>
	<polygon style="fill:#353F49;" points="478.628,109.359 481.039,105.11 475.594,100.302 471.734,107.027 	"/>
	<polygon style="fill:#353F49;" points="484.096,93.615 484.096,88.741 477.046,87.354 477.046,95 	"/>
	<polygon style="fill:#353F49;" points="481.039,77.28 478.628,73.074 471.734,75.334 475.594,82.052 	"/>
	<polygon style="fill:#353F49;" points="470.164,64.611 465.958,62.217 461.199,67.636 467.909,71.456 	"/>
	<path style="fill:#353F49;" d="M452.027,65.919c-13.965,0-25.229,11.32-25.229,25.298c0,13.901,11.264,25.216,25.229,25.216
		c13.99,0,25.311-11.315,25.311-25.216C477.338,77.239,466.017,65.919,452.027,65.919z M452.027,101.58
		c-5.727,0-10.353-4.641-10.353-10.363c0-5.806,4.626-10.445,10.353-10.445c5.796,0,10.458,4.639,10.458,10.445
		C462.484,96.936,457.823,101.58,452.027,101.58z"/>
</g>
<g>
	<rect x="264.115" y="336.104" style="fill:#CCCBCA;" width="17.592" height="15.872"/>
	<rect x="290.534" y="313.268" style="fill:#CCCBCA;" width="17.6" height="38.707"/>
	<rect x="316.902" y="326.068" style="fill:#CCCBCA;" width="17.595" height="25.907"/>
	<rect x="343.296" y="278.248" style="fill:#CCCBCA;" width="17.587" height="73.731"/>
	<rect x="369.715" y="305.128" style="fill:#CCCBCA;" width="17.585" height="46.851"/>
</g>
<rect x="105.702" y="189.283" style="fill:#E6E5E5;" width="140.749" height="77.082"/>
<g>
	<rect x="113.562" y="212.712" style="fill:#656A73;" width="4.897" height="47.124"/>
	<rect x="120.909" y="195.841" style="fill:#656A73;" width="4.879" height="63.992"/>
	<rect x="128.154" y="218.446" style="fill:#656A73;" width="4.908" height="41.395"/>
	<rect x="135.434" y="205.953" style="fill:#656A73;" width="4.882" height="53.888"/>
	<rect x="146.355" y="243.969" style="fill:#656A73;" width="4.895" height="15.872"/>
	<rect x="153.626" y="228.174" style="fill:#656A73;" width="4.884" height="31.68"/>
	<rect x="160.955" y="233.396" style="fill:#656A73;" width="4.874" height="26.452"/>
	<rect x="168.218" y="214.708" style="fill:#656A73;" width="4.897" height="45.135"/>
	<rect x="179.154" y="241.588" style="fill:#656A73;" width="4.826" height="18.266"/>
	<rect x="186.414" y="244.225" style="fill:#656A73;" width="4.895" height="15.611"/>
	<rect x="193.664" y="221.723" style="fill:#656A73;" width="4.908" height="38.121"/>
	<rect x="201.037" y="232.296" style="fill:#656A73;" width="4.859" height="27.551"/>
	<rect x="211.866" y="200.731" style="fill:#656A73;" width="4.905" height="59.11"/>
	<rect x="219.213" y="218.267" style="fill:#656A73;" width="4.833" height="41.587"/>
	<rect x="226.483" y="235.137" style="fill:#656A73;" width="4.895" height="24.712"/>
	<rect x="233.728" y="209.358" style="fill:#656A73;" width="4.882" height="50.478"/>
</g>
<g>
	<rect x="105.702" y="322.331" style="fill:#CCCBCA;" width="140.749" height="5.903"/>
	<rect x="105.702" y="334.158" style="fill:#CCCBCA;" width="140.749" height="5.944"/>
	<rect x="105.702" y="346.036" style="fill:#CCCBCA;" width="84.531" height="5.944"/>
	<rect x="105.702" y="278.248" style="fill:#CCCBCA;" width="84.531" height="38.18"/>
	<rect x="196.25" y="278.248" style="fill:#CCCBCA;" width="50.209" height="38.18"/>
</g>
<rect x="264.115" y="189.283" style="fill:#353F49;" width="123.187" height="5.926"/>
<g>
	<rect x="264.115" y="201.14" style="fill:#CCCBCA;" width="123.187" height="5.893"/>
	<rect x="264.115" y="212.968" style="fill:#CCCBCA;" width="123.187" height="5.944"/>
	<rect x="264.115" y="224.846" style="fill:#CCCBCA;" width="123.187" height="5.944"/>
	<rect x="264.115" y="236.724" style="fill:#CCCBCA;" width="123.187" height="5.944"/>
	<rect x="264.115" y="248.628" style="fill:#CCCBCA;" width="61.594" height="5.934"/>
</g>
<g>
</g>
<g>
</g>
<g>
</g>
<g>
</g>
<g>
</g>
<g>
</g>
<g>
</g>
<g>
</g>
<g>
</g>
<g>
</g>
<g>
</g>
<g>
</g>
<g>
</g>
<g>
</g>
<g>
</g>
</svg>
