<?xml version="1.0" encoding="iso-8859-1"?>
<!-- Generator: Adobe Illustrator 19.0.0, SVG Export Plug-In . SVG Version: 6.00 Build 0)  -->
<svg version="1.1" id="Layer_1" xmlns="http://www.w3.org/2000/svg" xmlns:xlink="http://www.w3.org/1999/xlink" x="0px" y="0px"
	 viewBox="0 0 512 512" style="enable-background:new 0 0 512 512;" xml:space="preserve">
<circle style="fill:#FF916E;" cx="256" cy="256" r="256"/>
<path style="fill:#FFFFFF;" d="M72.678,127.478L72.678,127.478c0.003-0.472,0-0.925,0-1.404c0-26.852,21.755-48.686,48.68-48.686
	c21.976,0,40.54,14.617,46.569,34.611c3.67-1.701,7.773-2.686,12.1-2.686c15.697,0,28.371,12.684,28.371,28.365
	c0,3.594-0.651,7.082-1.873,10.253c0.314-0.026,0.591-0.069,0.918-0.069c10.081,0,18.211,8.136,18.211,18.181
	c0,10.101-8.129,18.237-18.211,18.237H72.678c-15.68,0-28.434-12.731-28.434-28.371C44.243,140.229,56.997,127.478,72.678,127.478z"
	/>
<polygon style="fill:#CCCBCA;" points="301.816,459.482 210.188,459.482 215.175,415.529 296.841,415.529 "/>
<g>
	<path style="fill:#FFFFFF;" d="M320.092,464.625H191.904v-2.187c0-0.737,0.244-1.483,0.839-2.045
		c0.568-0.578,1.295-0.912,2.084-0.912h122.361c0.763,0,1.49,0.337,2.068,0.912c0.595,0.562,0.839,1.308,0.839,2.045v2.187H320.092z
		"/>
	<path style="fill:#FFFFFF;" d="M420.894,408.226c0,1.853-0.753,3.743-2.18,5.199c-1.401,1.434-3.273,2.104-5.196,2.104H98.443
		c-1.886,0-3.739-0.671-5.163-2.104c-1.424-1.457-2.174-3.349-2.174-5.199v-21.983h329.787V408.226z"/>
</g>
<path style="fill:#353F49;" d="M420.894,175.094c0-1.866-0.753-3.716-2.18-5.153c-1.401-1.477-3.273-2.144-5.196-2.144H98.443
	c-1.886,0-3.739,0.667-5.163,2.144c-1.424,1.437-2.174,3.283-2.174,5.153v211.149h329.787V175.094z"/>
<g>
	<rect x="107.606" y="184.28" style="fill:#FFFFFF;" width="296.795" height="185.443"/>
	<path style="fill:#FFFFFF;" d="M487.239,332.027c0,11.198-9.057,20.255-20.255,20.255c-11.119,0-20.169-9.057-20.169-20.255
		c0-11.122,9.051-20.179,20.169-20.179C478.182,311.844,487.239,320.902,487.239,332.027z"/>
	<path style="fill:#FFFFFF;" d="M61.754,266.795c0,4.545-3.729,8.275-8.294,8.275c-4.509,0-8.225-3.729-8.225-8.275
		c0-4.525,3.716-8.245,8.225-8.245C58.024,258.547,61.754,262.266,61.754,266.795z"/>
	<path style="fill:#FFFFFF;" d="M317.044,120.452c0,6.365-5.216,11.581-11.608,11.581c-6.309,0-11.515-5.216-11.515-11.581
		c0-6.332,5.206-11.541,11.515-11.541C311.828,108.911,317.044,114.12,317.044,120.452z"/>
</g>
<g>
	<path style="fill:#353F49;" d="M252.307,48.505c0,4.542-3.686,8.232-8.228,8.232c-4.555,0-8.288-3.69-8.288-8.232
		c0-4.539,3.733-8.225,8.288-8.225C248.621,40.276,252.307,43.966,252.307,48.505z"/>
	<path style="fill:#353F49;" d="M439.326,474.769c0,6.402-5.163,11.561-11.578,11.561c-6.326,0-11.545-5.163-11.545-11.561
		c0-6.276,5.219-11.462,11.545-11.462C434.163,463.307,439.326,468.49,439.326,474.769z"/>
	<path style="fill:#353F49;" d="M64.773,406.829c0,10.947-8.925,19.806-19.876,19.806c-10.94,0-19.793-8.859-19.793-19.806
		c0-10.98,8.856-19.866,19.793-19.866C55.848,386.963,64.773,395.849,64.773,406.829z"/>
</g>
<rect x="442.434" y="163.866" style="fill:#474F59;" width="12.156" height="14.481"/>
<path style="fill:#353F49;" d="M448.519,52.779c-31.027,0-56.105,25.157-56.105,56.158c0,31.021,25.081,56.115,56.105,56.115
	c31.017,0,56.181-25.098,56.181-56.115C504.7,77.936,479.536,52.779,448.519,52.779z"/>
<path style="fill:#FFFFFF;" d="M448.509,151.737c-23.585,0-42.78-19.182-42.78-42.8c0-23.658,19.198-42.853,42.78-42.853
	c23.677,0,42.882,19.195,42.882,42.853C491.394,132.555,472.186,151.737,448.509,151.737z"/>
<g>
	<path style="fill:#353F49;" d="M460.456,178.348v68.608c0,6.524-5.318,11.915-11.931,11.915c-6.564,0-11.938-5.394-11.938-11.915
		v-68.608H460.456z"/>
	<polygon style="fill:#353F49;" points="450.841,78.921 446.282,78.921 444.958,85.481 452.159,85.481 	"/>
	<polygon style="fill:#353F49;" points="435.481,81.785 431.527,84.027 433.73,90.439 439.963,86.862 	"/>
	<polygon style="fill:#353F49;" points="423.672,91.955 421.432,95.893 426.456,100.365 430.06,94.073 	"/>
	<polygon style="fill:#353F49;" points="418.482,106.628 418.482,111.196 425.135,112.495 425.135,105.33 	"/>
	<polygon style="fill:#353F49;" points="421.432,121.962 423.672,125.942 430.06,123.759 426.456,117.459 	"/>
	<polygon style="fill:#353F49;" points="431.527,133.8 435.481,136.05 439.963,130.966 433.737,127.415 	"/>
	<polygon style="fill:#353F49;" points="446.289,138.96 450.841,138.96 452.159,132.337 444.958,132.337 	"/>
	<polygon style="fill:#353F49;" points="461.57,136.05 465.514,133.8 463.4,127.415 457.117,130.966 	"/>
	<polygon style="fill:#353F49;" points="473.438,125.942 475.701,121.962 470.601,117.459 466.984,123.759 	"/>
	<polygon style="fill:#353F49;" points="478.561,111.196 478.561,106.628 471.958,105.33 471.958,112.495 	"/>
	<polygon style="fill:#353F49;" points="475.701,95.893 473.438,91.955 466.984,94.073 470.601,100.365 	"/>
	<polygon style="fill:#353F49;" points="465.514,84.027 461.57,81.785 457.117,86.862 463.4,90.439 	"/>
	<path style="fill:#353F49;" d="M448.522,85.253c-13.081,0-23.631,10.603-23.631,23.697c0,13.018,10.551,23.618,23.631,23.618
		c13.107,0,23.711-10.6,23.711-23.618C472.232,95.856,461.629,85.253,448.522,85.253z M448.522,118.655
		c-5.364,0-9.698-4.347-9.698-9.705c0-5.437,4.334-9.784,9.698-9.784c5.431,0,9.797,4.344,9.797,9.784
		C458.319,114.305,453.952,118.655,448.522,118.655z"/>
</g>
<g>
	<rect x="272.483" y="338.349" style="fill:#CCCBCA;" width="16.476" height="14.868"/>
	<rect x="297.241" y="316.944" style="fill:#CCCBCA;" width="16.486" height="36.256"/>
	<rect x="321.965" y="328.935" style="fill:#CCCBCA;" width="16.48" height="24.269"/>
	<rect x="346.674" y="284.143" style="fill:#CCCBCA;" width="16.473" height="69.061"/>
	<rect x="371.415" y="309.314" style="fill:#CCCBCA;" width="16.47" height="43.883"/>
</g>
<rect x="124.129" y="200.806" style="fill:#E6E5E5;" width="131.842" height="72.212"/>
<g>
	<rect x="131.482" y="222.77" style="fill:#656A73;" width="4.588" height="44.141"/>
	<rect x="138.362" y="206.947" style="fill:#656A73;" width="4.572" height="59.954"/>
	<rect x="145.157" y="228.121" style="fill:#656A73;" width="4.598" height="38.773"/>
	<rect x="151.981" y="216.427" style="fill:#656A73;" width="4.575" height="50.467"/>
	<rect x="162.188" y="252.036" style="fill:#656A73;" width="4.585" height="14.868"/>
	<rect x="169.026" y="237.228" style="fill:#656A73;" width="4.575" height="29.673"/>
	<rect x="175.864" y="242.126" style="fill:#656A73;" width="4.565" height="24.777"/>
	<rect x="182.668" y="224.619" style="fill:#656A73;" width="4.588" height="42.281"/>
	<rect x="192.908" y="249.79" style="fill:#656A73;" width="4.519" height="17.111"/>
	<rect x="199.713" y="252.267" style="fill:#656A73;" width="4.585" height="14.623"/>
	<rect x="206.518" y="231.193" style="fill:#656A73;" width="4.598" height="35.711"/>
	<rect x="213.421" y="241.096" style="fill:#656A73;" width="4.552" height="25.808"/>
	<rect x="223.562" y="211.506" style="fill:#656A73;" width="4.595" height="55.382"/>
	<rect x="230.44" y="227.956" style="fill:#656A73;" width="4.525" height="38.955"/>
	<rect x="237.244" y="243.745" style="fill:#656A73;" width="4.585" height="23.156"/>
	<rect x="244.049" y="219.631" style="fill:#656A73;" width="4.575" height="47.282"/>
</g>
<g>
	<rect x="124.129" y="325.434" style="fill:#CCCBCA;" width="131.842" height="5.53"/>
	<rect x="124.129" y="336.5" style="fill:#CCCBCA;" width="131.842" height="5.569"/>
	<rect x="124.129" y="347.631" style="fill:#CCCBCA;" width="79.168" height="5.569"/>
	<rect x="124.129" y="284.143" style="fill:#CCCBCA;" width="79.168" height="35.761"/>
	<rect x="208.929" y="284.143" style="fill:#CCCBCA;" width="47.031" height="35.761"/>
</g>
<rect x="272.483" y="200.806" style="fill:#353F49;" width="115.395" height="5.553"/>
<g>
	<rect x="272.483" y="211.935" style="fill:#CCCBCA;" width="115.395" height="5.52"/>
	<rect x="272.483" y="222.968" style="fill:#CCCBCA;" width="115.395" height="5.569"/>
	<rect x="272.483" y="234.116" style="fill:#CCCBCA;" width="115.395" height="5.569"/>
	<rect x="272.483" y="245.265" style="fill:#CCCBCA;" width="115.395" height="5.569"/>
	<rect x="272.483" y="256.396" style="fill:#CCCBCA;" width="57.697" height="5.559"/>
</g>
<g>
</g>
<g>
</g>
<g>
</g>
<g>
</g>
<g>
</g>
<g>
</g>
<g>
</g>
<g>
</g>
<g>
</g>
<g>
</g>
<g>
</g>
<g>
</g>
<g>
</g>
<g>
</g>
<g>
</g>
</svg>
