<?xml version="1.0" encoding="iso-8859-1"?>
<!-- Generator: Adobe Illustrator 19.0.0, SVG Export Plug-In . SVG Version: 6.00 Build 0)  -->
<svg version="1.1" id="Layer_1" xmlns="http://www.w3.org/2000/svg" xmlns:xlink="http://www.w3.org/1999/xlink" x="0px" y="0px"
	 viewBox="0 0 512 512" style="enable-background:new 0 0 512 512;" xml:space="preserve">
<circle style="fill:#FF916E;" cx="256" cy="256" r="256"/>
<rect x="84.576" y="413.894" style="fill:#92DEEB;" width="342.842" height="60.122"/>
<g>
	<rect x="255.967" y="432.524" style="fill:#FFFFFF;" width="141.167" height="7.621"/>
	<rect x="255.967" y="447.785" style="fill:#FFFFFF;" width="70.593" height="7.614"/>
	<rect x="84.576" y="72.935" style="fill:#FFFFFF;" width="342.842" height="340.959"/>
</g>
<rect x="84.576" y="37.987" style="fill:#353F49;" width="342.842" height="34.961"/>
<g>
	<rect x="114.876" y="346.674" style="fill:#D9D8D7;" width="282.228" height="7.614"/>
	<rect x="114.876" y="361.901" style="fill:#D9D8D7;" width="282.228" height="7.64"/>
	<rect x="114.876" y="377.195" style="fill:#D9D8D7;" width="141.167" height="7.611"/>
	<rect x="314.17" y="117.265" style="fill:#D9D8D7;" width="82.944" height="7.614"/>
</g>
<rect x="314.17" y="102.04" style="fill:#353F49;" width="82.944" height="7.617"/>
<g>
	<rect x="314.17" y="132.492" style="fill:#D9D8D7;" width="82.944" height="7.64"/>
	<rect x="314.17" y="147.77" style="fill:#D9D8D7;" width="41.492" height="7.611"/>
</g>
<g>
	<rect x="114.876" y="247.081" style="fill:#92DEEB;" width="83.01" height="83.01"/>
	<rect x="214.505" y="247.081" style="fill:#92DEEB;" width="82.977" height="83.01"/>
	<rect x="314.104" y="247.081" style="fill:#92DEEB;" width="83.01" height="83.01"/>
</g>
<g>
	<rect x="114.876" y="178.738" style="fill:#F77B55;" width="26.109" height="24.602"/>
	<rect x="154.013" y="143.393" style="fill:#F77B55;" width="26.115" height="59.954"/>
	<rect x="193.173" y="163.179" style="fill:#F77B55;" width="26.069" height="40.154"/>
	<rect x="232.283" y="122.124" style="fill:#F77B55;" width="26.082" height="81.216"/>
	<rect x="271.426" y="102.04" style="fill:#F77B55;" width="26.076" height="101.3"/>
</g>
<g>
	<rect x="114.876" y="210.382" style="fill:#353F49;" width="182.635" height="7.611"/>
	<path style="fill:#353F49;" d="M84.576,306.691c-12.146,0-22.029-9.89-22.029-22.036c0-12.162,9.883-22.049,22.029-22.049
		c12.169,0,22.056,9.887,22.056,22.049C106.628,296.801,96.742,306.691,84.576,306.691z M84.576,266.157
		c-10.187,0-18.491,8.314-18.491,18.498c0,10.194,8.304,18.501,18.491,18.501c10.207,0,18.511-8.308,18.511-18.501
		C103.084,274.472,94.779,266.157,84.576,266.157z"/>
	<path style="fill:#353F49;" d="M167.279,391.33c0,45.654-37.039,82.683-82.703,82.683c-45.66,0-82.673-37.029-82.673-82.683
		c0-45.677,37.013-82.696,82.673-82.696C130.24,308.634,167.279,345.653,167.279,391.33z"/>
</g>
<path style="fill:#FFFFFF;" d="M157.62,391.33c0,40.322-32.702,73.041-73.044,73.041c-40.309,0-73.024-32.718-73.024-73.041
	c0-40.339,32.715-73.057,73.024-73.057C124.915,318.272,157.62,350.991,157.62,391.33z"/>
<path style="fill:#F77B55;" d="M84.576,318.272v73.057l51.672,51.629c13.206-13.229,21.375-31.473,21.375-51.629
	C157.62,350.991,124.921,318.272,84.576,318.272z"/>
<g>
	<rect x="83.902" y="323.055" style="fill:#353F49;" width="1.364" height="6.098"/>
	<polygon style="fill:#353F49;" points="78.769,329.388 77.398,329.55 76.774,323.518 78.128,323.363 	"/>
	
		<rect x="70.349" y="324.51" transform="matrix(-0.9791 0.2034 -0.2034 -0.9791 207.1991 633.7827)" style="fill:#353F49;" width="1.364" height="6.058"/>
	<polygon style="fill:#353F49;" points="66.031,331.958 64.71,332.387 62.854,326.606 64.155,326.177 	"/>
	<polygon style="fill:#353F49;" points="59.911,334.23 58.652,334.779 56.194,329.236 57.46,328.691 	"/>
	<polygon style="fill:#353F49;" points="54.1,337.114 52.871,337.821 49.865,332.542 51.058,331.872 	"/>
	
		<rect x="45.562" y="335.515" transform="matrix(-0.8128 0.5826 -0.5826 -0.8128 281.0703 586.7668)" style="fill:#353F49;" width="1.374" height="6.065"/>
	<polygon style="fill:#353F49;" points="43.484,344.645 42.46,345.547 38.4,341.065 39.421,340.13 	"/>
	<polygon style="fill:#353F49;" points="38.826,349.194 37.911,350.225 33.392,346.165 34.334,345.118 	"/>
	<polygon style="fill:#353F49;" points="34.684,354.202 33.858,355.328 28.949,351.764 29.772,350.651 	"/>
	<polygon style="fill:#353F49;" points="31.057,359.629 30.383,360.825 25.114,357.786 25.808,356.6 	"/>
	<polygon style="fill:#353F49;" points="28.058,365.386 27.47,366.645 21.937,364.177 22.508,362.919 	"/>
	
		<rect x="21.871" y="368.147" transform="matrix(-0.3043 0.9526 -0.9526 -0.3043 383.0022 462.6366)" style="fill:#353F49;" width="1.377" height="6.065"/>
	<polygon style="fill:#353F49;" points="23.886,377.704 23.621,379.072 17.685,377.783 17.953,376.459 	"/>
	<polygon style="fill:#353F49;" points="22.809,384.109 22.65,385.523 16.619,384.869 16.761,383.498 	"/>
	<rect x="16.315" y="390.639" style="fill:#353F49;" width="6.085" height="1.361"/>
	
		<rect x="19.019" y="395.11" transform="matrix(0.1124 0.9937 -0.9937 0.1124 413.1335 333.8031)" style="fill:#353F49;" width="1.407" height="6.081"/>
	<polygon style="fill:#353F49;" points="23.621,403.555 23.886,404.939 17.953,406.188 17.685,404.85 	"/>
	<polygon style="fill:#353F49;" points="25.233,409.884 25.653,411.192 19.866,413.049 19.446,411.76 	"/>
	<polygon style="fill:#353F49;" points="27.47,415.988 28.058,417.244 22.508,419.714 21.937,418.453 	"/>
	<polygon style="fill:#353F49;" points="30.383,421.815 31.057,423.004 25.808,426.04 25.114,424.844 	"/>
	<polygon style="fill:#353F49;" points="33.858,427.312 34.684,428.428 29.772,431.999 28.949,430.876 	"/>
	<polygon style="fill:#353F49;" points="37.911,432.419 38.826,433.446 34.334,437.512 33.386,436.472 	"/>
	<polygon style="fill:#353F49;" points="42.443,437.083 43.484,437.988 39.421,442.523 38.4,441.572 	"/>
	
		<rect x="45.559" y="441.055" transform="matrix(0.8106 0.5857 -0.5857 0.8106 268.8513 57.0464)" style="fill:#353F49;" width="1.378" height="6.075"/>
	<polygon style="fill:#353F49;" points="52.871,444.819 54.1,445.523 51.058,450.771 49.856,450.091 	"/>
	<polygon style="fill:#353F49;" points="58.652,447.858 59.911,448.406 57.453,453.942 56.194,453.394 	"/>
	
		<rect x="63.724" y="450.331" transform="matrix(0.9532 0.3022 -0.3022 0.9532 140.0252 1.7313)" style="fill:#353F49;" width="1.387" height="6.071"/>
	<polygon style="fill:#353F49;" points="70.986,452.027 72.311,452.288 71.059,458.22 69.721,457.966 	"/>
	<polygon style="fill:#353F49;" points="77.398,453.09 78.769,453.259 78.128,459.271 76.774,459.122 	"/>
	<rect x="83.902" y="453.5" style="fill:#353F49;" width="1.364" height="6.098"/>
	<polygon style="fill:#353F49;" points="90.393,453.259 91.767,453.09 92.395,459.122 91.047,459.271 	"/>
	<polygon style="fill:#353F49;" points="96.827,452.288 98.202,452.027 99.447,457.966 98.096,458.22 	"/>
	
		<rect x="104.013" y="450.289" transform="matrix(0.9517 -0.3071 0.3071 0.9517 -134.1537 54.058)" style="fill:#353F49;" width="1.377" height="6.071"/>
	<polygon style="fill:#353F49;" points="109.257,448.406 110.516,447.858 112.974,453.394 111.712,453.942 	"/>
	<polygon style="fill:#353F49;" points="115.084,445.523 116.264,444.812 119.322,450.101 118.113,450.781 	"/>
	
		<rect x="122.249" y="441.056" transform="matrix(0.8129 -0.5823 0.5823 0.8129 -235.6134 154.6608)" style="fill:#353F49;" width="1.384" height="6.071"/>
	<polygon style="fill:#353F49;" points="125.704,437.988 126.728,437.083 130.781,441.572 129.747,442.523 	"/>
	<polygon style="fill:#353F49;" points="130.342,433.446 131.267,432.419 135.763,436.475 134.851,437.512 	"/>
	
		<rect x="136.683" y="426.604" transform="matrix(0.5887 -0.8083 0.8083 0.5887 -290.7939 287.7438)" style="fill:#353F49;" width="1.381" height="6.071"/>
	
		<rect x="140.348" y="420.92" transform="matrix(0.5027 -0.8645 0.8645 0.5027 -296.3499 332.7566)" style="fill:#353F49;" width="1.374" height="6.052"/>
	<polygon style="fill:#353F49;" points="141.124,417.244 141.679,415.988 147.202,418.456 146.673,419.714 	"/>
	<polygon style="fill:#353F49;" points="143.522,411.192 143.945,409.884 149.735,411.76 149.273,413.049 	"/>
	<polygon style="fill:#353F49;" points="145.269,404.949 145.56,403.555 151.493,404.85 151.205,406.194 	"/>
	<polygon style="fill:#353F49;" points="146.373,398.521 146.505,397.12 152.553,397.771 152.388,399.145 	"/>
	<rect x="146.762" y="390.639" style="fill:#353F49;" width="6.061" height="1.361"/>
	<polygon style="fill:#353F49;" points="146.505,385.523 146.373,384.109 152.388,383.498 152.553,384.875 	"/>
	<polygon style="fill:#353F49;" points="145.56,379.078 145.269,377.704 151.199,376.459 151.502,377.783 	"/>
	<polygon style="fill:#353F49;" points="143.945,372.749 143.522,371.441 149.273,369.581 149.735,370.889 	"/>
	<polygon style="fill:#353F49;" points="141.679,366.645 141.124,365.386 146.673,362.925 147.212,364.184 	"/>
	
		<rect x="140.374" y="355.674" transform="matrix(-0.5031 -0.8642 0.8642 -0.5031 -97.9617 661.0866)" style="fill:#353F49;" width="1.384" height="6.061"/>
	
		<rect x="136.687" y="349.94" transform="matrix(-0.5843 -0.8115 0.8115 -0.5843 -68.7888 670.7084)" style="fill:#353F49;" width="1.391" height="6.065"/>
	<polygon style="fill:#353F49;" points="131.267,350.225 130.342,349.194 134.851,345.118 135.763,346.165 	"/>
	<polygon style="fill:#353F49;" points="126.728,345.547 125.704,344.645 129.747,340.13 130.781,341.065 	"/>
	<polygon style="fill:#353F49;" points="121.701,341.402 120.574,340.599 124.148,335.684 125.265,336.49 	"/>
	<polygon style="fill:#353F49;" points="116.264,337.821 115.094,337.114 118.113,331.872 119.322,332.542 	"/>
	<polygon style="fill:#353F49;" points="110.516,334.779 109.257,334.23 111.718,328.691 112.984,329.236 	"/>
	
		<rect x="104.055" y="326.26" transform="matrix(-0.951 -0.3092 0.3092 -0.951 102.5446 674.8538)" style="fill:#353F49;" width="1.387" height="6.081"/>
	<polygon style="fill:#353F49;" points="98.202,330.633 96.827,330.356 98.096,324.423 99.457,324.707 	"/>
	<polygon style="fill:#353F49;" points="91.767,329.55 90.393,329.388 91.047,323.363 92.404,323.515 	"/>
	
		<rect x="102.289" y="368.881" transform="matrix(0.7053 -0.7089 0.7089 0.7053 -260.3971 194.4391)" style="fill:#353F49;" width="2.758" height="83.076"/>
</g>
<path style="fill:#474F59;" d="M90.839,391.33c0,3.442-2.795,6.233-6.263,6.233c-3.439,0-6.23-2.791-6.23-6.233
	c0-3.462,2.791-6.246,6.23-6.246C88.044,385.083,90.839,387.868,90.839,391.33z"/>
<path style="fill:#FFFFFF;" d="M87.096,391.33c0,1.381-1.123,2.491-2.524,2.491c-1.368,0-2.501-1.11-2.501-2.491
	c0-1.397,1.133-2.514,2.501-2.514C85.973,388.816,87.096,389.933,87.096,391.33z"/>
<rect x="77.698" y="295.143" style="fill:#474F59;" width="13.784" height="13.807"/>
<rect x="73.573" y="284.11" style="fill:#353F49;" width="22.019" height="11.01"/>
<rect x="138.682" y="328.381" transform="matrix(0.7068 0.7074 -0.7074 0.7068 276.7171 -5.368)" style="fill:#474F59;" width="12.304" height="5.523"/>
<rect x="143.189" y="317.09" transform="matrix(0.7065 0.7077 -0.7077 0.7065 273.9623 -12.2971)" style="fill:#353F49;" width="17.236" height="14.134"/>
<polygon style="fill:#474F59;" points="30.637,328.717 21.93,337.418 18.049,333.517 26.75,324.806 "/>
<polygon style="fill:#353F49;" points="28.49,323.039 16.292,335.234 6.296,325.259 18.482,313.067 "/>
<g>
</g>
<g>
</g>
<g>
</g>
<g>
</g>
<g>
</g>
<g>
</g>
<g>
</g>
<g>
</g>
<g>
</g>
<g>
</g>
<g>
</g>
<g>
</g>
<g>
</g>
<g>
</g>
<g>
</g>
</svg>
