<?xml version="1.0" encoding="iso-8859-1"?>
<!-- Generator: Adobe Illustrator 19.0.0, SVG Export Plug-In . SVG Version: 6.00 Build 0)  -->
<svg version="1.1" id="Layer_1" xmlns="http://www.w3.org/2000/svg" xmlns:xlink="http://www.w3.org/1999/xlink" x="0px" y="0px"
	 viewBox="0 0 512 512" style="enable-background:new 0 0 512 512;" xml:space="preserve">
<g>
	<path style="fill:#232E38;" d="M95.442,447.937c0,6.333-5.102,11.428-11.425,11.428c-6.326,0-11.456-5.094-11.456-11.428
		c0-6.331,5.13-11.428,11.456-11.428C90.34,436.509,95.442,441.606,95.442,447.937z"/>
	<path style="fill:#232E38;" d="M430.909,447.937c0,6.333-5.102,11.428-11.433,11.428c-6.323,0-11.425-5.094-11.425-11.428
		c0-6.331,5.102-11.428,11.425-11.428C425.807,436.509,430.909,441.606,430.909,447.937z"/>
	<rect y="428.824" style="fill:#232E38;" width="503.501" height="19.1"/>
</g>
<polygon style="fill:#474F59;" points="449.331,360.211 54.154,360.211 0,428.837 503.488,428.837 "/>
<rect x="83.999" y="163.916" style="fill:#F2F2F2;" width="335.488" height="230.605"/>
<g>
	<rect x="83.999" y="134.092" style="fill:#353F49;" width="335.488" height="29.824"/>
	<path style="fill:#353F49;" d="M159.757,275.416h-8.356c-3.489,0-6.779-1.359-9.244-3.853c-2.455-2.401-3.82-5.699-3.82-9.211
		c0-3.505,1.357-6.774,3.835-9.239c2.406-2.432,5.693-3.771,9.231-3.771h18.092v6.561h-18.092c-1.769,0-3.4,0.663-4.577,1.869
		c-1.231,1.206-1.912,2.844-1.912,4.582c0,1.746,0.673,3.364,1.892,4.582c1.229,1.221,2.86,1.912,4.595,1.912h8.356
		C159.757,268.85,159.757,275.416,159.757,275.416z"/>
	<path style="fill:#353F49;" d="M159.757,294.952h-18.127v-6.566h18.127c1.723,0,3.351-0.696,4.598-1.935
		c1.196-1.165,1.864-2.796,1.864-4.541s-0.66-3.369-1.856-4.58c-1.254-1.219-2.88-1.91-4.605-1.91h-8.356v-6.566h8.356
		c3.476,0,6.769,1.354,9.211,3.837c2.476,2.396,3.845,5.706,3.845,9.221c0,3.505-1.37,6.774-3.858,9.234
		C166.5,293.61,163.215,294.952,159.757,294.952z"/>
	<rect x="152.294" y="247.039" style="fill:#353F49;" width="6.564" height="50.202"/>
</g>
<path style="fill:#CCCBCA;" d="M195.052,272.15c0,10.872-4.416,20.767-11.566,27.899l11.625,11.635
	c10.12-10.127,16.379-24.102,16.379-39.534H195.052z"/>
<path style="fill:#353F49;" d="M155.569,232.639c21.796,0,39.483,17.679,39.483,39.503c0,0.008,0,0.008,0,0.008h16.438
	c0-30.886-25.042-55.928-55.926-55.928v16.42h0.005V232.639z"/>
<path style="fill:#FFDB79;" d="M155.558,232.639v-16.422c-7.567,0-14.799,1.505-21.373,4.275l6.277,15.153
	C145.121,233.722,150.2,232.644,155.558,232.639z"/>
<g>
	<path style="fill:#F77B55;" d="M183.465,300.079c-7.137,7.137-16.991,11.553-27.894,11.553c-21.804,0-39.491-17.697-39.491-39.491
		c0-16.458,10.076-30.556,24.384-36.493l-6.277-15.153c-20.273,8.364-34.522,28.347-34.522,51.663
		c0,30.843,25.032,55.898,55.892,55.898c15.437,0,29.43-6.262,39.552-16.358L183.465,300.079z"/>
	<rect x="252.467" y="313.932" style="fill:#F77B55;" width="14.129" height="14.131"/>
</g>
<rect x="282.854" y="313.932" style="fill:#353F49;" width="14.139" height="14.131"/>
<rect x="313.242" y="313.932" style="fill:#CCCBCA;" width="14.118" height="14.131"/>
<rect x="343.603" y="313.932" style="fill:#FFDB79;" width="14.129" height="14.131"/>
<g>
	<rect x="252.467" y="258.405" style="fill:#CCCBCA;" width="151.347" height="7.032"/>
	<rect x="252.467" y="244.325" style="fill:#CCCBCA;" width="151.347" height="7.027"/>
	<rect x="252.467" y="230.271" style="fill:#CCCBCA;" width="151.347" height="7.035"/>
	<rect x="252.467" y="216.216" style="fill:#CCCBCA;" width="98.798" height="7.025"/>
	<rect x="252.467" y="272.434" style="fill:#CCCBCA;" width="75.686" height="7.035"/>
	<rect x="99.666" y="343.679" style="fill:#CCCBCA;" width="304.154" height="7.02"/>
	<rect x="99.666" y="357.759" style="fill:#CCCBCA;" width="304.154" height="7.03"/>
	<rect x="99.666" y="371.839" style="fill:#CCCBCA;" width="152.09" height="7.04"/>
</g>
<rect x="200.294" y="179.583" style="fill:#474F59;" width="102.886" height="7.027"/>
<rect x="152.218" y="193.637" style="fill:#CCCBCA;" width="199.066" height="7.027"/>
<g>
	<path style="fill:#E6E5E5;" d="M501.66,215.272c-1.167,0-2.294,0.192-3.341,0.561c0.302-1.564,0.471-3.177,0.471-4.833
		c0-13.773-11.159-24.916-24.932-24.916c-13.78,0-24.945,11.149-24.945,24.916c0,0.197,0.02,0.369,0.02,0.553
		c-1.58-0.691-3.32-1.085-5.161-1.085c-7.053,0-12.751,5.696-12.751,12.736s5.706,12.746,12.751,12.746l57.887-0.003
		c5.711,0,10.34-4.631,10.34-10.34C512,219.898,507.372,215.272,501.66,215.272z"/>
	<path style="fill:#E6E5E5;" d="M18.478,320.132c0.847,0,1.661,0.136,2.422,0.404c-0.22-1.137-0.343-2.301-0.343-3.494
		c0-9.974,8.072-18.035,18.038-18.035c9.976,0,18.056,8.069,18.056,18.035c0,0.138-0.01,0.264-0.01,0.397
		c1.142-0.497,2.401-0.791,3.735-0.791c5.1,0,9.221,4.124,9.221,9.219s-4.127,9.224-9.221,9.224H18.478
		c-4.127,0-7.48-3.359-7.48-7.483C10.995,323.475,14.351,320.132,18.478,320.132z"/>
	<path style="fill:#E6E5E5;" d="M173.107,97.806c-0.02,0-0.033,0-0.033,0c0-0.42,0.033-0.832,0.033-1.254
		c0-24.251-19.674-43.917-43.927-43.917c-19.827,0-36.585,13.156-42.03,31.199c-3.315-1.556-7.007-2.437-10.9-2.437
		c-14.136,0-25.6,11.461-25.6,25.603c0,3.256,0.612,6.364,1.718,9.231c-0.289-0.02-0.558-0.044-0.847-0.044
		c-9.062,0-16.407,7.347-16.407,16.412c0,9.06,7.345,16.417,16.407,16.417h121.587c14.134,0,25.59-11.464,25.59-25.605
		C198.697,109.267,187.241,97.806,173.107,97.806z"/>
</g>
<g>
</g>
<g>
</g>
<g>
</g>
<g>
</g>
<g>
</g>
<g>
</g>
<g>
</g>
<g>
</g>
<g>
</g>
<g>
</g>
<g>
</g>
<g>
</g>
<g>
</g>
<g>
</g>
<g>
</g>
</svg>
