<?xml version="1.0" encoding="iso-8859-1"?>
<!-- Generator: Adobe Illustrator 19.0.0, SVG Export Plug-In . SVG Version: 6.00 Build 0)  -->
<svg version="1.1" id="Layer_1" xmlns="http://www.w3.org/2000/svg" xmlns:xlink="http://www.w3.org/1999/xlink" x="0px" y="0px"
	 viewBox="0 0 512 512" style="enable-background:new 0 0 512 512;" xml:space="preserve">
<rect x="103.247" y="441.395" style="fill:#92DEEB;" width="402.586" height="70.597"/>
<g>
	<rect x="304.489" y="463.283" style="fill:#FFFFFF;" width="165.765" height="8.947"/>
	<rect x="304.489" y="481.178" style="fill:#FFFFFF;" width="82.895" height="8.94"/>
</g>
<rect x="103.247" y="41.062" style="fill:#F2F2F2;" width="402.586" height="400.358"/>
<rect x="103.247" style="fill:#353F49;" width="402.586" height="41.062"/>
<g>
	<rect x="138.831" y="362.47" style="fill:#CCCBCA;" width="331.418" height="8.94"/>
	<rect x="138.831" y="380.365" style="fill:#CCCBCA;" width="331.418" height="8.97"/>
	<rect x="138.831" y="398.31" style="fill:#CCCBCA;" width="165.765" height="8.934"/>
	<rect x="372.867" y="93.082" style="fill:#CCCBCA;" width="97.382" height="8.94"/>
</g>
<rect x="372.867" y="75.213" style="fill:#353F49;" width="97.382" height="8.942"/>
<g>
	<rect x="372.867" y="110.976" style="fill:#CCCBCA;" width="97.382" height="8.973"/>
	<rect x="372.867" y="128.922" style="fill:#CCCBCA;" width="48.717" height="8.937"/>
</g>
<g>
	<rect x="138.831" y="245.53" style="fill:#92DEEB;" width="97.459" height="97.459"/>
	<rect x="255.823" y="245.53" style="fill:#92DEEB;" width="97.459" height="97.459"/>
	<rect x="372.79" y="245.53" style="fill:#92DEEB;" width="97.459" height="97.459"/>
</g>
<g>
	<rect x="138.831" y="165.274" style="fill:#F77B55;" width="30.659" height="28.89"/>
	<rect x="184.783" y="123.75" style="fill:#F77B55;" width="30.666" height="70.405"/>
	<rect x="230.761" y="147.021" style="fill:#F77B55;" width="30.61" height="47.15"/>
	<rect x="276.713" y="98.796" style="fill:#F77B55;" width="30.625" height="95.36"/>
	<rect x="322.665" y="75.213" style="fill:#F77B55;" width="30.618" height="118.963"/>
</g>
<g>
	<rect x="138.831" y="202.419" style="fill:#353F49;" width="214.451" height="8.937"/>
	<path style="fill:#353F49;" d="M103.245,315.523c-14.262,0-25.866-11.612-25.866-25.874c0-14.28,11.604-25.889,25.866-25.889
		c14.29,0,25.9,11.61,25.9,25.889C129.144,303.91,117.535,315.523,103.245,315.523z M103.245,267.927
		c-11.96,0-21.711,9.761-21.711,21.719c0,11.971,9.751,21.722,21.711,21.722c11.986,0,21.734-9.754,21.734-21.722
		C124.979,277.691,115.231,267.927,103.245,267.927z"/>
	<path style="fill:#353F49;" d="M200.358,414.909c0,53.609-43.492,97.091-97.114,97.091c-53.617,0-97.078-43.479-97.078-97.091
		c0-53.637,43.464-97.108,97.078-97.108C156.867,317.803,200.358,361.272,200.358,414.909z"/>
</g>
<path style="fill:#FFFFFF;" d="M189.018,414.909c0,47.347-38.403,85.768-85.773,85.768c-47.332,0-85.75-38.42-85.75-85.768
	c0-47.368,38.418-85.791,85.75-85.791C150.615,329.121,189.018,367.542,189.018,414.909z"/>
<path style="fill:#F77B55;" d="M103.245,329.121v85.791l60.675,60.626c15.508-15.534,25.098-36.961,25.098-60.626
	C189.018,367.542,150.625,329.121,103.245,329.121z"/>
<g>
	<rect x="102.454" y="334.72" style="fill:#353F49;" width="1.603" height="7.16"/>
	<polygon style="fill:#353F49;" points="96.428,342.175 94.817,342.362 94.085,335.286 95.677,335.096 	"/>
	
		<rect x="86.53" y="336.449" transform="matrix(-0.9789 0.2045 -0.2045 -0.9789 242.3466 654.9711)" style="fill:#353F49;" width="1.603" height="7.117"/>
	<polygon style="fill:#353F49;" points="81.472,345.193 79.921,345.697 77.742,338.911 79.268,338.404 	"/>
	<polygon style="fill:#353F49;" points="74.284,347.86 72.806,348.506 69.921,341.996 71.406,341.355 	"/>
	<polygon style="fill:#353F49;" points="67.461,351.245 66.02,352.074 62.487,345.879 63.89,345.091 	"/>
	
		<rect x="57.436" y="349.379" transform="matrix(-0.8125 0.583 -0.583 -0.8125 311.3217 605.7424)" style="fill:#353F49;" width="1.613" height="7.122"/>
	<polygon style="fill:#353F49;" points="54.994,360.09 53.791,361.152 49.027,355.889 50.222,354.788 	"/>
	<polygon style="fill:#353F49;" points="49.526,365.432 48.451,366.646 43.149,361.874 44.25,360.648 	"/>
	<polygon style="fill:#353F49;" points="44.662,371.315 43.692,372.639 37.926,368.451 38.894,367.145 	"/>
	<polygon style="fill:#353F49;" points="40.404,377.684 39.613,379.09 33.423,375.521 34.237,374.131 	"/>
	<polygon style="fill:#353F49;" points="36.882,384.448 36.193,385.925 29.693,383.027 30.367,381.55 	"/>
	<polygon style="fill:#353F49;" points="34.056,391.549 33.564,393.091 26.783,390.909 27.261,389.371 	"/>
	<polygon style="fill:#353F49;" points="31.985,398.909 31.675,400.515 24.699,399.004 25.016,397.448 	"/>
	<polygon style="fill:#353F49;" points="30.72,406.433 30.533,408.09 23.45,407.322 23.616,405.711 	"/>
	<rect x="23.094" y="414.106" style="fill:#353F49;" width="7.145" height="1.6"/>
	<polygon style="fill:#353F49;" points="30.533,421.706 30.72,423.347 23.616,424.087 23.45,422.464 	"/>
	<polygon style="fill:#353F49;" points="31.675,429.266 31.985,430.889 25.016,432.356 24.699,430.784 	"/>
	<polygon style="fill:#353F49;" points="33.564,436.698 34.056,438.236 27.261,440.412 26.77,438.902 	"/>
	<polygon style="fill:#353F49;" points="36.193,443.863 36.882,445.34 30.367,448.238 29.693,446.758 	"/>
	<polygon style="fill:#353F49;" points="39.613,450.708 40.404,452.104 34.237,455.667 33.423,454.264 	"/>
	<polygon style="fill:#353F49;" points="43.692,457.162 44.662,458.473 38.894,462.666 37.926,461.348 	"/>
	<polygon style="fill:#353F49;" points="48.451,463.16 49.526,464.363 44.25,469.14 43.141,467.917 	"/>
	<polygon style="fill:#353F49;" points="53.773,468.639 54.994,469.699 50.222,475.023 49.027,473.905 	"/>
	
		<rect x="57.418" y="473.316" transform="matrix(0.811 0.585 -0.585 0.811 289.9877 56.0574)" style="fill:#353F49;" width="1.615" height="7.135"/>
	<polygon style="fill:#353F49;" points="66.02,477.719 67.461,478.546 63.89,484.708 62.477,483.909 	"/>
	<polygon style="fill:#353F49;" points="72.806,481.288 74.284,481.933 71.398,488.433 69.921,487.788 	"/>
	<polygon style="fill:#353F49;" points="79.921,484.104 81.472,484.595 79.268,491.374 77.729,490.883 	"/>
	<polygon style="fill:#353F49;" points="87.291,486.182 88.845,486.487 87.375,493.455 85.806,493.156 	"/>
	<polygon style="fill:#353F49;" points="94.817,487.432 96.428,487.629 95.677,494.689 94.085,494.515 	"/>
	<rect x="102.454" y="487.91" style="fill:#353F49;" width="1.603" height="7.16"/>
	<polygon style="fill:#353F49;" points="110.08,487.629 111.693,487.432 112.428,494.515 110.843,494.689 	"/>
	<polygon style="fill:#353F49;" points="117.637,486.487 119.245,486.182 120.712,493.156 119.124,493.455 	"/>
	
		<rect x="126.079" y="484.183" transform="matrix(0.9519 -0.3065 0.3065 0.9519 -143.3839 62.3632)" style="fill:#353F49;" width="1.615" height="7.13"/>
	<polygon style="fill:#353F49;" points="132.229,481.933 133.709,481.288 136.594,487.788 135.112,488.433 	"/>
	<polygon style="fill:#353F49;" points="139.072,478.546 140.457,477.711 144.049,483.919 142.628,484.721 	"/>
	
		<rect x="147.479" y="473.28" transform="matrix(0.8134 -0.5817 0.5817 0.8134 -249.7097 175.2395)" style="fill:#353F49;" width="1.626" height="7.127"/>
	<polygon style="fill:#353F49;" points="151.542,469.699 152.745,468.639 157.504,473.905 156.291,475.023 	"/>
	<polygon style="fill:#353F49;" points="156.987,464.363 158.075,463.16 163.351,467.919 162.284,469.14 	"/>
	
		<rect x="164.4" y="456.336" transform="matrix(0.5891 -0.8081 0.8081 0.5891 -303.7455 322.4842)" style="fill:#353F49;" width="1.621" height="7.13"/>
	<polygon style="fill:#353F49;" points="166.093,452.104 166.904,450.708 173.056,454.264 172.262,455.667 	"/>
	<polygon style="fill:#353F49;" points="169.649,445.34 170.299,443.863 176.788,446.764 176.166,448.238 	"/>
	<polygon style="fill:#353F49;" points="172.465,438.236 172.961,436.698 179.761,438.902 179.218,440.412 	"/>
	<polygon style="fill:#353F49;" points="174.515,430.902 174.858,429.266 181.824,430.784 181.489,432.363 	"/>
	<polygon style="fill:#353F49;" points="175.811,423.355 175.964,421.706 183.068,422.472 182.876,424.087 	"/>
	<rect x="176.279" y="414.106" style="fill:#353F49;" width="7.117" height="1.6"/>
	<polygon style="fill:#353F49;" points="175.964,408.09 175.811,406.433 182.876,405.711 183.068,407.329 	"/>
	<polygon style="fill:#353F49;" points="174.858,400.522 174.515,398.909 181.481,397.448 181.837,399.004 	"/>
	<polygon style="fill:#353F49;" points="172.961,393.091 172.465,391.557 179.218,389.371 179.761,390.909 	"/>
	<polygon style="fill:#353F49;" points="170.299,385.925 169.649,384.448 176.166,381.558 176.799,383.035 	"/>
	
		<rect x="168.79" y="373.051" transform="matrix(-0.5035 -0.864 0.864 -0.5035 -70.3927 712.7695)" style="fill:#353F49;" width="1.626" height="7.119"/>
	<polygon style="fill:#353F49;" points="162.813,372.641 161.859,371.315 167.631,367.145 168.586,368.451 	"/>
	<polygon style="fill:#353F49;" points="158.075,366.646 156.987,365.432 162.284,360.648 163.351,361.874 	"/>
	<polygon style="fill:#353F49;" points="152.745,361.152 151.542,360.09 156.291,354.788 157.504,355.889 	"/>
	<polygon style="fill:#353F49;" points="146.839,356.28 145.518,355.341 149.714,349.568 151.027,350.515 	"/>
	<polygon style="fill:#353F49;" points="140.457,352.074 139.082,351.245 142.628,345.091 144.049,345.879 	"/>
	<polygon style="fill:#353F49;" points="133.709,348.506 132.229,347.86 135.119,341.355 136.604,341.996 	"/>
	<polygon style="fill:#353F49;" points="126.589,345.697 125.041,345.193 127.255,338.404 128.783,338.911 	"/>
	<polygon style="fill:#353F49;" points="119.245,343.636 117.637,343.309 119.124,336.346 120.722,336.678 	"/>
	<polygon style="fill:#353F49;" points="111.693,342.362 110.08,342.175 110.843,335.096 112.438,335.281 	"/>
	<polygon style="fill:#353F49;" points="90.068,404.001 92.352,401.705 161.336,470.661 159.037,472.942 	"/>
</g>
<path style="fill:#474F59;" d="M110.602,414.909c0,4.04-3.279,7.316-7.357,7.316c-4.037,0-7.314-3.277-7.314-7.316
	c0-4.065,3.277-7.334,7.314-7.334C107.32,407.575,110.602,410.844,110.602,414.909z"/>
<path style="fill:#FFFFFF;" d="M106.207,414.909c0,1.62-1.318,2.923-2.962,2.923c-1.605,0-2.934-1.303-2.934-2.923
	c0-1.641,1.331-2.952,2.934-2.952C104.891,411.958,106.207,413.271,106.207,414.909z"/>
<rect x="95.183" y="301.952" style="fill:#474F59;" width="16.184" height="16.212"/>
<rect x="90.319" y="289.024" style="fill:#353F49;" width="25.856" height="12.928"/>
<rect x="166.797" y="340.982" transform="matrix(0.7069 0.7073 -0.7073 0.7069 294.4772 -22.1951)" style="fill:#474F59;" width="14.446" height="6.487"/>
<polygon style="fill:#353F49;" points="169.144,334.72 183.442,349.043 195.197,337.326 180.89,323 "/>
<polygon style="fill:#474F59;" points="39.913,341.386 29.686,351.606 25.129,347.023 35.343,336.796 "/>
<polygon style="fill:#353F49;" points="37.389,334.72 23.063,349.043 11.328,337.326 25.636,323.013 "/>
<g>
</g>
<g>
</g>
<g>
</g>
<g>
</g>
<g>
</g>
<g>
</g>
<g>
</g>
<g>
</g>
<g>
</g>
<g>
</g>
<g>
</g>
<g>
</g>
<g>
</g>
<g>
</g>
<g>
</g>
</svg>
