<?xml version="1.0" encoding="iso-8859-1"?>
<!-- Generator: Adobe Illustrator 19.0.0, SVG Export Plug-In . SVG Version: 6.00 Build 0)  -->
<svg version="1.1" id="Layer_1" xmlns="http://www.w3.org/2000/svg" xmlns:xlink="http://www.w3.org/1999/xlink" x="0px" y="0px"
	 viewBox="0 0 512 512" style="enable-background:new 0 0 512 512;" xml:space="preserve">
<rect x="87.002" y="53.102" style="fill:#F77B55;" width="337.997" height="401.126"/>
<g>
	<rect x="123.571" y="87.194" style="fill:#FFFFFF;" width="19.448" height="7.352"/>
	<rect x="148.052" y="87.194" style="fill:#FFFFFF;" width="70.313" height="7.352"/>
	<rect x="143.02" y="145.155" style="fill:#FFFFFF;" width="31.002" height="7.35"/>
	<rect x="123.571" y="259.635" style="fill:#FFFFFF;" width="50.437" height="7.365"/>
	<rect x="143.02" y="164.506" style="fill:#FFFFFF;" width="12.764" height="7.352"/>
	<rect x="181.304" y="145.155" style="fill:#FFFFFF;" width="80.914" height="7.35"/>
	<rect x="176.128" y="203.11" style="fill:#FFFFFF;" width="78.459" height="7.36"/>
	<rect x="159.462" y="412.774" style="fill:#FFFFFF;" width="28.16" height="7.347"/>
	<rect x="264.09" y="278.963" style="fill:#FFFFFF;" width="29.036" height="7.365"/>
	<rect x="182.144" y="374.144" style="fill:#FFFFFF;" width="54.705" height="7.378"/>
	<rect x="199.885" y="412.774" style="fill:#FFFFFF;" width="64.23" height="7.347"/>
	<rect x="315.366" y="317.594" style="fill:#FFFFFF;" width="23.352" height="7.365"/>
	<rect x="268.8" y="203.11" style="fill:#FFFFFF;" width="58.232" height="7.36"/>
	<rect x="271.386" y="145.155" style="fill:#FFFFFF;" width="58.248" height="7.35"/>
	<rect x="341.478" y="145.155" style="fill:#FFFFFF;" width="35.64" height="7.35"/>
	<rect x="143.02" y="106.519" style="fill:#FFFFFF;" width="46.234" height="7.357"/>
	<rect x="143.02" y="125.85" style="fill:#FFFFFF;" width="65.533" height="7.365"/>
	<rect x="160.515" y="164.506" style="fill:#FFFFFF;" width="75.121" height="7.352"/>
	<rect x="143.02" y="298.291" style="fill:#FFFFFF;" width="75.092" height="7.329"/>
	<rect x="143.02" y="317.594" style="fill:#FFFFFF;" width="82.509" height="7.365"/>
	<rect x="213.274" y="393.472" style="fill:#FFFFFF;" width="145.997" height="7.373"/>
	<rect x="283.674" y="412.774" style="fill:#FFFFFF;" width="31.969" height="7.347"/>
	<rect x="234.342" y="317.594" style="fill:#FFFFFF;" width="71.555" height="7.365"/>
	<rect x="257.638" y="374.144" style="fill:#FFFFFF;" width="71.534" height="7.378"/>
	<rect x="160.515" y="183.831" style="fill:#FFFFFF;" width="24.422" height="7.347"/>
	<rect x="160.515" y="222.438" style="fill:#FFFFFF;" width="26.563" height="7.357"/>
	<rect x="143.02" y="278.963" style="fill:#FFFFFF;" width="111.567" height="7.365"/>
	<rect x="123.571" y="374.144" style="fill:#FFFFFF;" width="50.007" height="7.378"/>
	<rect x="143.02" y="393.446" style="fill:#FFFFFF;" width="56.978" height="7.38"/>
	<rect x="192.614" y="183.831" style="fill:#FFFFFF;" width="146.637" height="7.347"/>
	<rect x="158.612" y="336.87" style="fill:#FFFFFF;" width="46.912" height="7.414"/>
	<rect x="221.594" y="336.87" style="fill:#FFFFFF;" width="129.636" height="7.414"/>
	<rect x="251.11" y="164.506" style="fill:#FFFFFF;" width="49.403" height="7.352"/>
	<rect x="215.552" y="125.85" style="fill:#FFFFFF;" width="65.518" height="7.365"/>
	<rect x="285.594" y="125.85" style="fill:#FFFFFF;" width="53.862" height="7.365"/>
	<rect x="359.27" y="125.85" style="fill:#FFFFFF;" width="29.181" height="7.365"/>
	<rect x="204.339" y="106.519" style="fill:#FFFFFF;" width="70.971" height="7.357"/>
</g>
<g>
	<rect x="87.002" y="15.009" style="fill:#353F49;" width="337.997" height="38.09"/>
	<path style="fill:#353F49;" d="M360.289,496.991c-12.255,0-22.29-10.015-22.29-22.269V199.503c0-12.247,10.035-22.305,22.29-22.305
		H489.72c12.28,0,22.28,10.058,22.28,22.305v275.215c0,12.255-9.999,22.269-22.28,22.269H360.289V496.991z"/>
</g>
<g>
	<path style="fill:#474F59;" d="M444.311,473.956c0,2.941-2.381,5.327-5.309,5.327h-27.965c-2.916,0-5.322-2.386-5.322-5.327v-2.232
		c0-2.923,2.406-5.345,5.322-5.345h27.965c2.931,0,5.309,2.422,5.309,5.345V473.956z"/>
	<path style="fill:#474F59;" d="M448.333,201.846c0,1.203-0.96,2.161-2.163,2.161h-42.296c-1.219,0-2.184-0.957-2.184-2.161v-0.911
		c0-1.183,0.965-2.168,2.184-2.168h42.296c1.203,0,2.163,0.986,2.163,2.168V201.846z"/>
</g>
<rect x="350.643" y="225.562" style="fill:#FFFFFF;" width="148.762" height="223.13"/>
<rect x="381.645" y="256.589" style="fill:#D9D8D7;" width="86.712" height="86.697"/>
<g>
	<path style="fill:#FFFFFF;" d="M441.585,289.656c0,10.793-7.437,19.525-16.571,19.525c-9.155,0-16.571-8.732-16.571-19.525
		c0-10.788,7.414-19.535,16.571-19.535C434.148,270.124,441.585,278.871,441.585,289.656z"/>
	<path style="fill:#FFFFFF;" d="M433.838,313.761c-2.719,1.283-5.704,1.997-8.822,1.997c-3.113,0-6.129-0.714-8.852-1.997
		c-11.95,2.109-20.867,8.397-21.896,15.974h61.466C454.74,322.158,445.796,315.871,433.838,313.761z"/>
</g>
<rect x="381.645" y="363.52" style="fill:#D9D8D7;" width="66.473" height="20.239"/>
<g>
	<rect x="448.128" y="363.52" style="fill:#353F49;" width="20.239" height="20.239"/>
	<rect x="448.128" y="398.31" style="fill:#353F49;" width="20.239" height="20.234"/>
</g>
<rect x="381.645" y="398.31" style="fill:#D9D8D7;" width="66.473" height="20.221"/>
<g>
	<polygon style="fill:#474F59;" points="93.635,322.936 80.42,322.936 76.567,342.147 97.487,342.147 	"/>
	<polygon style="fill:#474F59;" points="49.226,331.3 37.791,337.907 44.058,356.465 62.162,346.017 	"/>
	<polygon style="fill:#474F59;" points="14.966,360.732 8.346,372.17 23.078,385.114 33.549,367.014 	"/>
	<polygon style="fill:#474F59;" points="0,403.366 0,416.576 19.218,420.431 19.218,399.516 	"/>
	<polygon style="fill:#474F59;" points="8.346,447.772 14.966,459.205 33.549,452.931 23.078,434.811 	"/>
	<polygon style="fill:#474F59;" points="37.791,482.025 49.226,488.63 62.162,473.912 44.058,463.473 	"/>
	<polygon style="fill:#474F59;" points="80.438,496.991 93.635,496.991 97.487,477.804 76.585,477.804 	"/>
	<polygon style="fill:#474F59;" points="124.82,488.63 136.269,482.025 129.987,463.473 111.877,473.912 	"/>
	<polygon style="fill:#474F59;" points="159.109,459.205 165.691,447.772 150.981,434.811 140.516,452.931 	"/>
	<polygon style="fill:#474F59;" points="174.047,416.576 174.047,403.366 154.865,399.516 154.865,420.431 	"/>
	<polygon style="fill:#474F59;" points="165.691,372.17 159.109,360.732 140.516,367.014 150.981,385.101 	"/>
	<polygon style="fill:#474F59;" points="136.269,337.907 124.82,331.31 111.877,346.017 129.987,356.465 	"/>
</g>
<path style="fill:#353F49;" d="M87.05,341.368c-37.937,0-68.641,30.71-68.641,68.603c0,37.883,30.705,68.59,68.641,68.59
	c37.883,0,68.593-30.707,68.593-68.59C155.643,372.078,124.933,341.368,87.05,341.368z M87.05,428.959
	c-10.506,0-19.011-8.509-19.011-18.988c0-10.483,8.504-18.998,19.011-18.998c10.445,0,18.964,8.515,18.964,18.998
	C106.015,420.447,97.492,428.959,87.05,428.959z"/>
<path style="fill:#E6E5E5;" d="M87.05,377.032c-18.225,0-32.95,14.717-32.95,32.937c0,18.202,14.725,32.916,32.95,32.916
	c18.173,0,32.901-14.715,32.901-32.916C119.951,391.749,105.224,377.032,87.05,377.032z M87.05,426.44
	c-9.098,0-16.481-7.37-16.481-16.471c0-9.091,7.383-16.448,16.481-16.448c9.05,0,16.438,7.357,16.438,16.448
	C103.488,419.069,96.1,426.44,87.05,426.44z"/>
<g>
</g>
<g>
</g>
<g>
</g>
<g>
</g>
<g>
</g>
<g>
</g>
<g>
</g>
<g>
</g>
<g>
</g>
<g>
</g>
<g>
</g>
<g>
</g>
<g>
</g>
<g>
</g>
<g>
</g>
</svg>
