<?xml version="1.0" encoding="iso-8859-1"?>
<!-- Generator: Adobe Illustrator 19.0.0, SVG Export Plug-In . SVG Version: 6.00 Build 0)  -->
<svg version="1.1" id="Layer_1" xmlns="http://www.w3.org/2000/svg" xmlns:xlink="http://www.w3.org/1999/xlink" x="0px" y="0px"
	 viewBox="0 0 512 512" style="enable-background:new 0 0 512 512;" xml:space="preserve">
<g>
	<rect x="490.624" y="85.024" style="fill:#353F49;" width="3.564" height="7.13"/>
	<path style="fill:#353F49;" d="M483.75,92.154h-6.879v-7.13h6.879V92.154z M469.995,92.154h-6.879v-7.13h6.879V92.154z
		 M456.241,92.154h-6.879v-7.13h6.879V92.154z M442.486,92.154h-6.879v-7.13h6.879V92.154z M428.731,92.154h-6.876v-7.13h6.876
		V92.154z M414.979,92.154H408.1v-7.13h6.879V92.154z M401.224,92.154h-6.879v-7.13h6.879V92.154z M387.466,92.154h-6.879v-7.13
		h6.879V92.154z M373.711,92.154h-6.879v-7.13h6.879V92.154z M359.956,92.154h-6.879v-7.13h6.879V92.154z M346.202,92.154h-6.879
		v-7.13h6.879V92.154z M332.447,92.154h-6.879v-7.13h6.879V92.154z M318.689,92.154h-6.879v-7.13h6.879V92.154z"/>
	<rect x="301.363" y="85.024" style="fill:#353F49;" width="3.566" height="7.13"/>
	<rect x="490.624" y="369.043" style="fill:#353F49;" width="3.564" height="7.127"/>
	<path style="fill:#353F49;" d="M483.75,376.173h-6.879v-7.127h6.879V376.173z M469.995,376.173h-6.879v-7.127h6.879V376.173z
		 M456.241,376.173h-6.879v-7.127h6.879V376.173z M442.486,376.173h-6.879v-7.127h6.879V376.173z M428.731,376.173h-6.876v-7.127
		h6.876V376.173z M414.979,376.173H408.1v-7.127h6.879V376.173z M401.224,376.173h-6.879v-7.127h6.879V376.173z M387.466,376.173
		h-6.879v-7.127h6.879V376.173z M373.711,376.173h-6.879v-7.127h6.879V376.173z M359.956,376.173h-6.879v-7.127h6.879V376.173z
		 M346.202,376.173h-6.879v-7.127h6.879V376.173z M332.447,376.173h-6.879v-7.127h6.879V376.173z M318.689,376.173h-6.879v-7.127
		h6.879V376.173z"/>
	<rect x="301.363" y="369.043" style="fill:#353F49;" width="3.566" height="7.127"/>
	<rect x="290.688" y="361.926" style="fill:#353F49;" width="7.13" height="3.566"/>
	<path style="fill:#353F49;" d="M297.812,354.82h-7.13v-7.096h7.13V354.82z M297.812,340.625h-7.13v-7.096h7.13V340.625z
		 M297.812,326.427h-7.13v-7.096h7.13V326.427z M297.812,312.229h-7.13v-7.096h7.13V312.229z M297.812,298.036h-7.13v-7.101h7.13
		V298.036z M297.812,283.839h-7.13v-7.099h7.13V283.839z M297.812,269.641h-7.13v-7.096h7.13V269.641z M297.812,255.443h-7.13
		v-7.099h7.13V255.443z M297.812,241.248h-7.13v-7.099h7.13V241.248z M297.812,227.05h-7.13v-7.099h7.13V227.05z M297.812,212.852
		h-7.13v-7.099h7.13V212.852z M297.812,198.66h-7.13v-7.099h7.13V198.66z M297.812,184.462h-7.13v-7.099h7.13V184.462z
		 M297.812,170.264h-7.13v-7.099h7.13V170.264z M297.812,156.069h-7.13v-7.099h7.13V156.069z M297.812,141.871h-7.13v-7.099h7.13
		V141.871z M297.812,127.674h-7.13v-7.099h7.13V127.674z M297.812,113.478h-7.13v-7.096h7.13V113.478z"/>
	<rect x="290.688" y="95.717" style="fill:#353F49;" width="7.13" height="3.564"/>
	<rect x="497.766" y="361.926" style="fill:#353F49;" width="7.127" height="3.566"/>
	<path style="fill:#353F49;" d="M504.883,354.82h-7.127v-7.096h7.127V354.82z M504.883,340.625h-7.127v-7.096h7.127V340.625z
		 M504.883,326.427h-7.127v-7.096h7.127V326.427z M504.883,312.229h-7.127v-7.096h7.127V312.229z M504.883,298.036h-7.127v-7.101
		h7.127V298.036z M504.883,283.839h-7.127v-7.099h7.127V283.839z M504.883,269.641h-7.127v-7.096h7.127V269.641z M504.883,255.443
		h-7.127v-7.099h7.127V255.443z M504.883,241.248h-7.127v-7.099h7.127V241.248z M504.883,227.05h-7.127v-7.099h7.127V227.05z
		 M504.883,212.852h-7.127v-7.099h7.127V212.852z M504.883,198.66h-7.127v-7.099h7.127V198.66z M504.883,184.462h-7.127v-7.099
		h7.127V184.462z M504.883,170.264h-7.127v-7.099h7.127V170.264z M504.883,156.069h-7.127v-7.099h7.127V156.069z M504.883,141.871
		h-7.127v-7.099h7.127V141.871z M504.883,127.674h-7.127v-7.099h7.127V127.674z M504.883,113.478h-7.127v-7.096h7.127V113.478z"/>
	<rect x="497.766" y="95.717" style="fill:#353F49;" width="7.127" height="3.564"/>
	<path style="fill:#353F49;" d="M304.94,99.293h-21.386V77.907h21.386V99.293L304.94,99.293z M290.683,92.164h7.13v-7.127h-7.13
		V92.164z"/>
	<path style="fill:#353F49;" d="M512,99.293h-21.384V77.907H512V99.293z M497.746,92.164h7.127v-7.127h-7.127V92.164z"/>
	<path style="fill:#353F49;" d="M304.94,383.3h-21.386v-21.386h21.386V383.3L304.94,383.3z M290.683,376.17h7.13v-7.13h-7.13V376.17
		z"/>
	<path style="fill:#353F49;" d="M512,383.3h-21.384v-21.386H512V383.3z M497.746,376.17h7.127v-7.13h-7.127V376.17z"/>
	<rect y="107.997" style="fill:#353F49;" width="214.195" height="268.16"/>
</g>
<g>
	<rect x="23.171" y="130.787" style="fill:#656A73;" width="12.332" height="4.915"/>
	<rect x="38.697" y="130.787" style="fill:#656A73;" width="44.544" height="4.915"/>
	<rect x="35.502" y="169.54" style="fill:#656A73;" width="19.638" height="4.915"/>
	<rect x="23.171" y="246.086" style="fill:#656A73;" width="31.969" height="4.915"/>
	<rect x="35.502" y="182.473" style="fill:#656A73;" width="8.092" height="4.908"/>
	<rect x="59.766" y="169.54" style="fill:#656A73;" width="51.277" height="4.915"/>
	<rect x="56.484" y="208.301" style="fill:#656A73;" width="49.723" height="4.92"/>
	<rect x="45.937" y="348.461" style="fill:#656A73;" width="17.841" height="4.892"/>
	<rect x="112.23" y="258.989" style="fill:#656A73;" width="18.396" height="4.928"/>
	<rect x="60.288" y="322.63" style="fill:#656A73;" width="34.657" height="4.936"/>
	<rect x="71.529" y="348.461" style="fill:#656A73;" width="40.704" height="4.892"/>
	<rect x="144.717" y="284.819" style="fill:#656A73;" width="14.807" height="4.923"/>
	<rect x="115.2" y="208.301" style="fill:#656A73;" width="36.908" height="4.92"/>
	<rect x="116.864" y="169.54" style="fill:#656A73;" width="36.895" height="4.915"/>
	<rect x="161.254" y="169.54" style="fill:#656A73;" width="22.574" height="4.915"/>
	<rect x="35.502" y="143.722" style="fill:#656A73;" width="29.286" height="4.915"/>
	<rect x="35.502" y="156.627" style="fill:#656A73;" width="41.539" height="4.931"/>
	<rect x="46.592" y="182.473" style="fill:#656A73;" width="47.606" height="4.908"/>
	<rect x="35.502" y="271.917" style="fill:#656A73;" width="47.593" height="4.892"/>
	<rect x="35.502" y="284.819" style="fill:#656A73;" width="52.265" height="4.923"/>
	<rect x="80.033" y="335.533" style="fill:#656A73;" width="92.493" height="4.92"/>
	<rect x="124.646" y="348.461" style="fill:#656A73;" width="20.257" height="4.892"/>
	<rect x="93.386" y="284.819" style="fill:#656A73;" width="45.33" height="4.923"/>
	<rect x="108.134" y="322.63" style="fill:#656A73;" width="45.325" height="4.936"/>
	<rect x="46.592" y="195.391" style="fill:#656A73;" width="15.462" height="4.91"/>
	<rect x="46.592" y="221.203" style="fill:#656A73;" width="16.84" height="4.92"/>
	<rect x="35.502" y="258.989" style="fill:#656A73;" width="70.705" height="4.928"/>
	<rect x="23.171" y="322.63" style="fill:#656A73;" width="31.693" height="4.936"/>
	<rect x="35.502" y="335.533" style="fill:#656A73;" width="36.122" height="4.928"/>
	<rect x="66.929" y="195.391" style="fill:#656A73;" width="92.928" height="4.91"/>
	<rect x="45.386" y="297.722" style="fill:#656A73;" width="29.716" height="4.948"/>
	<rect x="85.289" y="297.722" style="fill:#656A73;" width="82.15" height="4.948"/>
	<rect x="103.987" y="182.473" style="fill:#656A73;" width="31.316" height="4.908"/>
	<rect x="81.459" y="156.627" style="fill:#656A73;" width="41.523" height="4.931"/>
	<rect x="125.844" y="156.627" style="fill:#656A73;" width="34.132" height="4.931"/>
	<rect x="172.547" y="156.627" style="fill:#656A73;" width="18.488" height="4.931"/>
	<rect x="74.363" y="143.722" style="fill:#656A73;" width="44.961" height="4.915"/>
</g>
<rect y="85.037" style="fill:#232E38;" width="214.195" height="22.961"/>
<rect x="107.11" y="230.829" style="fill:#F2F2F2;" width="290.688" height="203.264"/>
<rect x="107.11" y="207.866" style="fill:#232E38;" width="290.688" height="22.958"/>
<rect x="122.394" y="246.112" style="fill:#F77B55;" width="76.493" height="76.488"/>
<g>
	<polygon style="fill:#FFFFFF;" points="162.616,258.298 158.664,258.298 157.504,264.042 163.776,264.042 	"/>
	<polygon style="fill:#FFFFFF;" points="149.317,260.788 145.892,262.772 147.758,268.343 153.193,265.217 	"/>
	<polygon style="fill:#FFFFFF;" points="139.049,269.608 137.06,273.048 141.468,276.934 144.62,271.505 	"/>
	<polygon style="fill:#FFFFFF;" points="134.561,282.403 134.561,286.337 140.324,287.52 140.324,281.228 	"/>
	<polygon style="fill:#FFFFFF;" points="137.06,295.694 139.049,299.119 144.62,297.258 141.468,291.793 	"/>
	<polygon style="fill:#FFFFFF;" points="145.892,305.955 149.317,307.951 153.193,303.53 147.766,300.392 	"/>
	<polygon style="fill:#FFFFFF;" points="158.666,310.45 162.616,310.45 163.776,304.692 157.504,304.692 	"/>
	<polygon style="fill:#FFFFFF;" points="171.968,307.951 175.401,305.955 173.507,300.392 168.097,303.53 	"/>
	<polygon style="fill:#FFFFFF;" points="182.236,299.119 184.212,295.694 179.807,291.793 176.673,297.258 	"/>
	<polygon style="fill:#FFFFFF;" points="186.714,286.337 186.714,282.403 180.961,281.228 180.961,287.52 	"/>
	<polygon style="fill:#FFFFFF;" points="184.212,273.048 182.236,269.608 176.673,271.505 179.807,276.927 	"/>
	<polygon style="fill:#FFFFFF;" points="175.401,262.772 171.968,260.796 168.097,265.217 173.507,268.343 	"/>
	<path style="fill:#FFFFFF;" d="M160.643,263.819c-11.361,0-20.562,9.203-20.562,20.562c0,11.348,9.203,20.549,20.562,20.549
		c11.346,0,20.557-9.203,20.557-20.549C181.199,273.02,171.988,263.819,160.643,263.819z M160.643,291.793
		c-4.096,0-7.424-3.328-7.424-7.414c0-4.106,3.328-7.419,7.424-7.419c4.093,0,7.421,3.313,7.421,7.419
		C168.064,288.467,164.736,291.793,160.643,291.793z"/>
</g>
<g>
	<rect x="122.394" y="337.914" style="fill:#FDCA5C;" width="76.493" height="38.259"/>
	<rect x="214.195" y="337.914" style="fill:#FDCA5C;" width="76.49" height="38.259"/>
	<rect x="305.971" y="337.914" style="fill:#FDCA5C;" width="76.508" height="38.259"/>
</g>
<rect x="214.195" y="257.043" style="fill:#CCCBCA;" width="168.289" height="5.445"/>
<rect x="214.195" y="246.112" style="fill:#353F49;" width="168.289" height="5.466"/>
<g>
	<rect x="214.195" y="268" style="fill:#CCCBCA;" width="168.289" height="5.458"/>
	<rect x="214.195" y="278.906" style="fill:#CCCBCA;" width="84.142" height="5.473"/>
	<rect x="122.394" y="391.469" style="fill:#CCCBCA;" width="76.493" height="5.45"/>
	<rect x="122.394" y="402.374" style="fill:#CCCBCA;" width="76.493" height="5.473"/>
	<rect x="122.394" y="413.331" style="fill:#CCCBCA;" width="38.252" height="5.458"/>
	<rect x="214.195" y="391.469" style="fill:#CCCBCA;" width="76.49" height="5.45"/>
	<rect x="214.195" y="402.374" style="fill:#CCCBCA;" width="76.49" height="5.473"/>
	<rect x="214.195" y="413.331" style="fill:#CCCBCA;" width="38.241" height="5.458"/>
	<rect x="305.971" y="391.469" style="fill:#CCCBCA;" width="76.508" height="5.45"/>
	<rect x="305.971" y="402.374" style="fill:#CCCBCA;" width="76.508" height="5.473"/>
	<rect x="305.971" y="413.331" style="fill:#CCCBCA;" width="38.259" height="5.458"/>
</g>
<g>
</g>
<g>
</g>
<g>
</g>
<g>
</g>
<g>
</g>
<g>
</g>
<g>
</g>
<g>
</g>
<g>
</g>
<g>
</g>
<g>
</g>
<g>
</g>
<g>
</g>
<g>
</g>
<g>
</g>
</svg>
