<?xml version="1.0" encoding="iso-8859-1"?>
<!-- Generator: Adobe Illustrator 19.0.0, SVG Export Plug-In . SVG Version: 6.00 Build 0)  -->
<svg version="1.1" id="Layer_1" xmlns="http://www.w3.org/2000/svg" xmlns:xlink="http://www.w3.org/1999/xlink" x="0px" y="0px"
	 viewBox="0 0 512 512" style="enable-background:new 0 0 512 512;" xml:space="preserve">
<path style="fill:#FFD430;" d="M108.55,395.58c-3.529,1.841-6.89-2.717-4.091-5.545l60.42-61.025
	c3.396-3.027,6.173-9.224,6.173-13.773l0.069-264.035c-0.003-4.55-3.563-9.367-7.912-10.702L65.364,10.543
	c-4.351-1.328-7.91,1.309-7.91,5.858v400.561c0,4.55,3.048,10.407,6.774,13.018l99.431,69.682c3.726,2.611,9.97,2.843,13.88,0.514
	l269.902-160.792c3.907-2.329,7.107-7.955,7.107-12.505l-0.011-105.447c0-4.55-3.558-9.364-7.907-10.699l-233.8-71.608
	c-4.351-1.332-6.349,0.96-4.44,5.088l43.502,94.458c1.904,4.129,6.856,9.044,10.999,10.918l59.645,27.018
	c4.146,1.871,4.245,5.136,0.22,7.257L108.55,395.58z"/>
<g>
	<path style="fill:#E68C22;" d="M171.085,512c-4.743,0-9.502-1.34-13.28-3.987l-99.431-69.682
		c-6.443-4.515-11.12-13.501-11.12-21.37V16.401c0-5.435,2.353-10.294,6.455-13.33c4.101-3.037,9.432-3.87,14.632-2.282
		l97.854,29.962c8.619,2.647,15.118,11.435,15.126,20.445l-0.069,264.046c0,7.315-3.899,16.135-9.313,21.135l-29.975,30.275
		l164.84-85.971l-48.124-21.799c-6.37-2.881-13.123-9.585-16.053-15.938l-43.503-94.463c-2.628-5.683-2.089-11.505,1.45-15.562
		c3.539-4.056,9.232-5.383,15.237-3.545l233.802,71.609c8.622,2.649,15.119,11.439,15.119,20.451l0.012,105.446
		c0,8.148-5.081,17.091-12.084,21.266L182.757,508.939C179.318,510.987,175.206,512,171.085,512z M67.652,21.91v395.051
		c0.001,1.218,1.43,3.965,2.428,4.664l99.431,69.683c0.568,0.322,2.216,0.383,2.852,0.081L442.22,330.622
		c0.858-0.548,2.096-2.724,2.129-3.751l-0.012-105.33c-0.093-0.342-0.507-0.901-0.806-1.089l-219.808-67.322l37.431,81.277
		c0.871,1.89,4.037,5.031,5.939,5.891l59.649,27.02c5.568,2.512,8.997,7.192,9.16,12.513c0.162,5.322-2.975,10.203-8.394,13.059
		L113.266,404.623c-6.018,3.141-13.314,1.452-17.342-4.01c-4.03-5.462-3.488-12.93,1.288-17.753l60.42-61.024
		c0.149-0.15,0.303-0.296,0.461-0.438c1.213-1.082,2.762-4.535,2.762-6.16l0.069-263.918c-0.093-0.345-0.51-0.91-0.812-1.099
		L67.652,21.91z"/>
	<path style="fill:#E68C22;" d="M91.8,236.613c-5.632,0-10.199-4.567-10.199-10.199v-6.12c0-5.632,4.567-10.199,10.199-10.199
		c5.632,0,10.199,4.567,10.199,10.199v6.12C101.998,232.046,97.432,236.613,91.8,236.613z"/>
	<path style="fill:#E68C22;" d="M91.8,195.817c-5.632,0-10.199-4.567-10.199-10.199V58.134c0-5.632,4.567-10.199,10.199-10.199
		c5.632,0,10.199,4.567,10.199,10.199v127.485C101.998,191.25,97.432,195.817,91.8,195.817z"/>
</g>
<g>
</g>
<g>
</g>
<g>
</g>
<g>
</g>
<g>
</g>
<g>
</g>
<g>
</g>
<g>
</g>
<g>
</g>
<g>
</g>
<g>
</g>
<g>
</g>
<g>
</g>
<g>
</g>
<g>
</g>
</svg>
