<?xml version="1.0" encoding="iso-8859-1"?>
<!-- Generator: Adobe Illustrator 19.0.0, SVG Export Plug-In . SVG Version: 6.00 Build 0)  -->
<svg version="1.1" id="Layer_1" xmlns="http://www.w3.org/2000/svg" xmlns:xlink="http://www.w3.org/1999/xlink" x="0px" y="0px"
	 viewBox="0 0 512 512" style="enable-background:new 0 0 512 512;" xml:space="preserve">
<circle style="fill:#474F59;" cx="256" cy="256" r="256"/>
<path style="fill:#92DEEB;" d="M443.696,101.703v308.594H88.86c-21.881,0-39.635-17.752-39.635-39.625V101.703H443.696z"/>
<g>
	<path style="fill:#FFFFFF;" d="M404.675,371.259H85.739V140.734h318.936V371.259z M86.928,370.077h316.548V141.923H86.928
		C86.928,141.923,86.928,370.077,86.928,370.077z"/>
	<rect x="86.346" y="352.421" style="fill:#FFFFFF;" width="317.737" height="1.192"/>
	<rect x="86.346" y="334.815" style="fill:#FFFFFF;" width="317.737" height="1.192"/>
	<rect x="86.346" y="317.143" style="fill:#FFFFFF;" width="317.737" height="1.192"/>
	<rect x="86.346" y="299.536" style="fill:#FFFFFF;" width="317.737" height="1.179"/>
	<rect x="86.346" y="281.864" style="fill:#FFFFFF;" width="317.737" height="1.179"/>
	<rect x="86.346" y="264.258" style="fill:#FFFFFF;" width="317.737" height="1.179"/>
	<rect x="86.346" y="246.586" style="fill:#FFFFFF;" width="317.737" height="1.183"/>
	<rect x="86.346" y="228.914" style="fill:#FFFFFF;" width="317.737" height="1.186"/>
	<rect x="86.346" y="211.301" style="fill:#FFFFFF;" width="317.737" height="1.186"/>
	<rect x="86.346" y="193.635" style="fill:#FFFFFF;" width="317.737" height="1.183"/>
	<rect x="86.346" y="176.029" style="fill:#FFFFFF;" width="317.737" height="1.186"/>
	<rect x="86.346" y="158.35" style="fill:#FFFFFF;" width="317.737" height="1.186"/>
	<rect x="385.817" y="141.322" style="fill:#FFFFFF;" width="1.189" height="229.343"/>
	<rect x="368.178" y="141.322" style="fill:#FFFFFF;" width="1.183" height="229.343"/>
	<rect x="350.538" y="141.322" style="fill:#FFFFFF;" width="1.179" height="229.343"/>
	<rect x="332.866" y="141.322" style="fill:#FFFFFF;" width="1.183" height="229.343"/>
	<rect x="315.227" y="141.322" style="fill:#FFFFFF;" width="1.192" height="229.343"/>
	<rect x="297.588" y="141.322" style="fill:#FFFFFF;" width="1.192" height="229.343"/>
	<rect x="279.948" y="141.322" style="fill:#FFFFFF;" width="1.179" height="229.343"/>
	<rect x="262.309" y="141.322" style="fill:#FFFFFF;" width="1.183" height="229.343"/>
	<rect x="244.571" y="141.322" style="fill:#FFFFFF;" width="1.189" height="229.343"/>
	<rect x="226.899" y="141.322" style="fill:#FFFFFF;" width="1.189" height="229.343"/>
	<rect x="209.259" y="141.322" style="fill:#FFFFFF;" width="1.183" height="229.343"/>
	<rect x="191.62" y="141.322" style="fill:#FFFFFF;" width="1.179" height="229.343"/>
	<rect x="173.974" y="141.322" style="fill:#FFFFFF;" width="1.189" height="229.343"/>
	<rect x="156.342" y="141.322" style="fill:#FFFFFF;" width="1.186" height="229.343"/>
	<rect x="138.683" y="141.322" style="fill:#FFFFFF;" width="1.183" height="229.343"/>
	<rect x="121.037" y="141.322" style="fill:#FFFFFF;" width="1.183" height="229.343"/>
	<rect x="103.391" y="141.322" style="fill:#FFFFFF;" width="1.179" height="229.343"/>
	<path style="fill:#FFFFFF;" d="M406.62,373.212H83.78v-234.43h322.837v234.43H406.62z M88.877,368.128h312.647V143.879H88.877
		V368.128z"/>
	<polygon style="fill:#FFFFFF;" points="412.9,143.879 401.527,143.879 401.527,132.502 406.62,132.502 406.62,138.782 
		412.9,138.782 	"/>
	<polygon style="fill:#FFFFFF;" points="406.62,379.504 401.527,379.504 401.527,368.128 412.9,368.128 412.9,373.212 
		406.62,373.212 	"/>
	<polygon style="fill:#FFFFFF;" points="88.877,379.504 83.78,379.504 83.78,373.212 77.497,373.212 77.497,368.128 88.877,368.128 
			"/>
	<polygon style="fill:#FFFFFF;" points="88.877,143.879 77.497,143.879 77.497,138.782 83.78,138.782 83.78,132.502 88.877,132.502 
			"/>
	<path style="fill:#FFFFFF;" d="M253.324,337.943h-16.216l-3.412-16.975c-3.779-0.664-7.469-1.645-11.02-2.93l-11.426,12.978
		l-14.059-8.106l5.54-16.381c-2.9-2.444-5.606-5.146-8.06-8.053l-16.374,5.536l-8.119-14.065l12.985-11.406
		c-1.288-3.534-2.266-7.227-2.927-11.02l-16.965-3.406V247.9l16.965-3.409c0.661-3.769,1.635-7.459,2.93-11.026l-12.988-11.413
		l8.119-14.039l16.371,5.53c2.441-2.91,5.156-5.615,8.063-8.063l-5.54-16.371l14.059-8.129l11.423,12.992
		c3.534-1.278,7.227-2.259,11.013-2.923l3.399-16.988h16.239l3.409,16.982c3.779,0.664,7.469,1.645,11.006,2.92l11.419-12.965
		l14.055,8.109l-5.53,16.364c2.927,2.468,5.622,5.173,8.053,8.073l16.384-5.53l8.113,14.042l-12.985,11.39
		c1.285,3.561,2.269,7.257,2.937,11.039l16.949,3.416v16.216l-16.949,3.406c-0.671,3.799-1.648,7.492-2.92,11.02l12.965,11.406
		l-8.109,14.065l-16.384-5.536c-2.421,2.877-5.123,5.579-8.057,8.063l5.533,16.367l-14.059,8.106l-11.416-12.972
		c-3.528,1.278-7.224,2.259-11.006,2.923L253.324,337.943z M241.281,332.853h7.875l3.29-16.374l1.764-0.264
		c4.641-0.684,9.137-1.876,13.352-3.541l1.665-0.657l11.003,12.509l6.821-3.934l-5.325-15.766l1.391-1.116
		c3.65-2.93,6.947-6.223,9.778-9.791l1.116-1.401l15.789,5.331l3.931-6.824l-12.493-11.006l0.651-1.665
		c1.665-4.198,2.851-8.691,3.548-13.348l0.261-1.771l16.341-3.283v-7.875l-16.341-3.29l-0.261-1.767
		c-0.69-4.628-1.883-9.13-3.561-13.385l-0.647-1.668l12.499-10.98l-3.924-6.808l-15.796,5.331l-1.113-1.404
		c-2.847-3.587-6.134-6.884-9.774-9.801l-1.394-1.11l5.325-15.76l-6.824-3.934l-11,12.493l-1.661-0.654
		c-4.235-1.665-8.737-2.857-13.355-3.541l-1.764-0.264l-3.29-16.374h-7.895l-3.28,16.381l-1.764,0.264
		c-4.638,0.687-9.133,1.88-13.355,3.544l-1.662,0.657l-11.01-12.519l-6.831,3.941l5.345,15.786l-1.401,1.117
		c-3.63,2.877-6.92,6.167-9.784,9.774l-1.11,1.407l-15.789-5.335l-3.944,6.811l12.519,10.993l-0.661,1.665
		c-1.671,4.274-2.87,8.77-3.544,13.378l-0.268,1.767l-16.358,3.283v7.875l16.358,3.283l0.268,1.771
		c0.68,4.644,1.886,9.137,3.544,13.348l0.664,1.665l-12.523,11.006l3.944,6.824l15.786-5.328l1.11,1.394
		c2.887,3.617,6.174,6.904,9.787,9.768l1.401,1.116l-5.345,15.793l6.831,3.934l11.01-12.516l1.658,0.657
		c4.251,1.671,8.754,2.864,13.365,3.548l1.774,0.264L241.281,332.853z"/>
	<path style="fill:#FFFFFF;" d="M245.278,302.612c-25.729,0-46.661-20.916-46.661-46.625c0-25.669,20.933-46.556,46.661-46.556
		c25.663,0,46.533,20.883,46.533,46.556C291.81,281.696,270.937,302.612,245.278,302.612z M245.278,214.525
		c-22.918,0-41.568,18.597-41.568,41.462c0,22.898,18.65,41.528,41.568,41.528c22.845,0,41.436-18.634,41.436-41.528
		C286.713,233.122,268.123,214.525,245.278,214.525z"/>
	<path style="fill:#FFFFFF;" d="M245.218,267.399c-6.283,0-11.386-5.11-11.386-11.386c0-6.27,5.103-11.366,11.386-11.366
		c6.273,0,11.376,5.097,11.376,11.366C256.598,262.289,251.494,267.399,245.218,267.399z M245.218,249.737
		c-3.472,0-6.296,2.811-6.296,6.273c0,3.462,2.824,6.289,6.296,6.289c3.465,0,6.283-2.824,6.283-6.289
		C251.501,252.545,248.683,249.737,245.218,249.737z"/>
</g>
<path style="fill:#76D0DE;" d="M88.877,62.078v268.935c-21.907,0-39.652,17.761-39.652,39.659V101.703
	C49.225,79.822,66.97,62.078,88.877,62.078z"/>
<path style="fill:#F77B55;" d="M267.221,461.471h227.635V233.825L267.221,461.471z M349.379,427.437L460.84,315.96v111.477H349.379z
	"/>
<g>
	<rect x="488.778" y="448.611" style="fill:#FFFFFF;" width="6.091" height="2.963"/>
	<rect x="488.778" y="437.215" style="fill:#FFFFFF;" width="6.091" height="2.966"/>
	<rect x="488.778" y="425.819" style="fill:#FFFFFF;" width="6.091" height="2.97"/>
	<rect x="488.778" y="414.456" style="fill:#FFFFFF;" width="6.091" height="2.956"/>
	<rect x="488.778" y="403.093" style="fill:#FFFFFF;" width="6.091" height="2.966"/>
	<rect x="488.778" y="391.697" style="fill:#FFFFFF;" width="6.091" height="2.963"/>
	<rect x="488.778" y="380.3" style="fill:#FFFFFF;" width="6.091" height="2.963"/>
	<rect x="488.778" y="368.937" style="fill:#FFFFFF;" width="6.091" height="2.96"/>
	<rect x="488.778" y="357.541" style="fill:#FFFFFF;" width="6.091" height="2.973"/>
	<rect x="488.778" y="346.178" style="fill:#FFFFFF;" width="6.091" height="2.963"/>
	<rect x="488.778" y="334.782" style="fill:#FFFFFF;" width="6.091" height="2.96"/>
	<rect x="488.778" y="323.386" style="fill:#FFFFFF;" width="6.091" height="2.963"/>
	<rect x="488.778" y="312.023" style="fill:#FFFFFF;" width="6.091" height="2.963"/>
	<rect x="488.778" y="300.627" style="fill:#FFFFFF;" width="6.091" height="2.96"/>
	<rect x="488.778" y="289.263" style="fill:#FFFFFF;" width="6.091" height="2.963"/>
	<rect x="488.778" y="277.867" style="fill:#FFFFFF;" width="6.091" height="2.97"/>
	<rect x="488.778" y="266.471" style="fill:#FFFFFF;" width="6.091" height="2.966"/>
	<rect x="488.778" y="255.108" style="fill:#FFFFFF;" width="6.091" height="2.956"/>
	<rect x="488.778" y="243.712" style="fill:#FFFFFF;" width="6.091" height="2.963"/>
	<polygon style="fill:#FFFFFF;" points="20.668,196.373 14.531,216.523 34.694,216.523 28.56,196.373 	"/>
</g>
<polygon style="fill:#CCCBCA;" points="26.079,196.373 28.358,216.523 34.694,216.523 28.56,196.373 "/>
<rect x="14.531" y="216.526" style="fill:#FFDB79;" width="20.163" height="221.154"/>
<rect x="28.358" y="216.526" style="fill:#FAB83E;" width="6.336" height="221.154"/>
<polygon style="fill:#656A73;" points="28.55,196.373 24.612,183.412 20.645,196.373 "/>
<polygon style="fill:#232E38;" points="28.55,196.373 24.612,183.412 26.079,196.373 "/>
<rect x="14.531" y="437.677" style="fill:#F2F2F2;" width="20.163" height="7.373"/>
<rect x="28.358" y="437.677" style="fill:#CCCBCA;" width="6.336" height="7.373"/>
<path style="fill:#F77B55;" d="M34.694,451.389c0,2.59-0.998,5.16-2.943,7.151c-1.979,1.936-4.562,2.93-7.138,2.93l0,0
	c-2.586,0-5.156-0.994-7.125-2.93c-1.959-1.995-2.956-4.562-2.956-7.151v-6.339h20.163V451.389z"/>
<path style="fill:#EE643C;" d="M28.358,445.05c0,2.58-1.007,5.173-2.963,7.135c-1.969,1.949-4.539,2.937-7.122,2.937
	c-1.074,0-2.137-0.188-3.178-0.548c0.482,1.447,1.249,2.795,2.395,3.967c1.972,1.936,4.539,2.93,7.125,2.93
	c2.577,0,5.163-0.994,7.138-2.93c1.946-1.995,2.943-4.562,2.943-7.151v-6.339L28.358,445.05L28.358,445.05z"/>
<g>
</g>
<g>
</g>
<g>
</g>
<g>
</g>
<g>
</g>
<g>
</g>
<g>
</g>
<g>
</g>
<g>
</g>
<g>
</g>
<g>
</g>
<g>
</g>
<g>
</g>
<g>
</g>
<g>
</g>
</svg>
