<?xml version="1.0" encoding="iso-8859-1"?>
<!-- Generator: Adobe Illustrator 19.0.0, SVG Export Plug-In . SVG Version: 6.00 Build 0)  -->
<svg version="1.1" id="Layer_1" xmlns="http://www.w3.org/2000/svg" xmlns:xlink="http://www.w3.org/1999/xlink" x="0px" y="0px"
	 viewBox="0 0 512 512" style="enable-background:new 0 0 512 512;" xml:space="preserve">
<path style="fill:#92DEEB;" d="M457.464,85.372v328.945H79.232c-23.327,0-42.253-18.924-42.253-42.24V85.372H457.464z"/>
<g>
	<path style="fill:#FFFFFF;" d="M415.872,372.707H75.901V126.977h339.971V372.707z M77.169,371.45h337.423V128.242H77.169V371.45z"
		/>
	<rect x="76.541" y="352.639" style="fill:#FFFFFF;" width="338.688" height="1.272"/>
	<rect x="76.541" y="333.848" style="fill:#FFFFFF;" width="338.688" height="1.27"/>
	<rect x="76.541" y="315.007" style="fill:#FFFFFF;" width="338.688" height="1.272"/>
	<rect x="76.541" y="296.242" style="fill:#FFFFFF;" width="338.688" height="1.26"/>
	<rect x="76.541" y="277.4" style="fill:#FFFFFF;" width="338.688" height="1.254"/>
	<rect x="76.541" y="258.636" style="fill:#FFFFFF;" width="338.688" height="1.254"/>
	<rect x="76.541" y="239.794" style="fill:#FFFFFF;" width="338.688" height="1.262"/>
	<rect x="76.541" y="220.952" style="fill:#FFFFFF;" width="338.688" height="1.27"/>
	<rect x="76.541" y="202.195" style="fill:#FFFFFF;" width="338.688" height="1.265"/>
	<rect x="76.541" y="183.346" style="fill:#FFFFFF;" width="338.688" height="1.265"/>
	<rect x="76.541" y="164.581" style="fill:#FFFFFF;" width="338.688" height="1.267"/>
	<rect x="76.541" y="145.755" style="fill:#FFFFFF;" width="338.688" height="1.267"/>
	<rect x="395.776" y="127.604" style="fill:#FFFFFF;" width="1.272" height="244.48"/>
	<rect x="376.96" y="127.604" style="fill:#FFFFFF;" width="1.265" height="244.48"/>
	<rect x="358.17" y="127.604" style="fill:#FFFFFF;" width="1.26" height="244.48"/>
	<rect x="339.328" y="127.604" style="fill:#FFFFFF;" width="1.265" height="244.48"/>
	<rect x="320.538" y="127.604" style="fill:#FFFFFF;" width="1.272" height="244.48"/>
	<rect x="301.722" y="127.604" style="fill:#FFFFFF;" width="1.272" height="244.48"/>
	<rect x="282.931" y="127.604" style="fill:#FFFFFF;" width="1.257" height="244.48"/>
	<rect x="264.115" y="127.604" style="fill:#FFFFFF;" width="1.257" height="244.48"/>
	<rect x="245.197" y="127.604" style="fill:#FFFFFF;" width="1.265" height="244.48"/>
	<rect x="226.381" y="127.604" style="fill:#FFFFFF;" width="1.272" height="244.48"/>
	<rect x="207.565" y="127.604" style="fill:#FFFFFF;" width="1.257" height="244.48"/>
	<rect x="188.774" y="127.604" style="fill:#FFFFFF;" width="1.26" height="244.48"/>
	<rect x="169.958" y="127.604" style="fill:#FFFFFF;" width="1.272" height="244.48"/>
	<rect x="151.142" y="127.604" style="fill:#FFFFFF;" width="1.265" height="244.48"/>
	<rect x="132.337" y="127.604" style="fill:#FFFFFF;" width="1.265" height="244.48"/>
	<rect x="113.536" y="127.604" style="fill:#FFFFFF;" width="1.26" height="244.48"/>
	<rect x="94.712" y="127.604" style="fill:#FFFFFF;" width="1.26" height="244.48"/>
	<path style="fill:#FFFFFF;" d="M417.943,374.785H73.812V124.893h344.131V374.785z M79.245,369.368h333.271V130.326H79.245V369.368z
		"/>
	<polygon style="fill:#FFFFFF;" points="424.64,130.326 412.516,130.326 412.516,118.202 417.943,118.202 417.943,124.893 
		424.64,124.893 	"/>
	<polygon style="fill:#FFFFFF;" points="417.943,381.492 412.516,381.492 412.516,369.368 424.64,369.368 424.64,374.785 
		417.943,374.785 	"/>
	<polygon style="fill:#FFFFFF;" points="79.245,381.492 73.812,381.492 73.812,374.785 67.113,374.785 67.113,369.368 
		79.245,369.368 	"/>
	<polygon style="fill:#FFFFFF;" points="79.245,130.326 67.113,130.326 67.113,124.893 73.812,124.893 73.812,118.202 
		79.245,118.202 	"/>
	<path style="fill:#FFFFFF;" d="M254.543,337.194h-17.29l-3.638-18.097c-4.022-0.707-7.956-1.751-11.745-3.123l-12.178,13.832
		l-14.986-8.64l5.906-17.459c-3.092-2.609-5.975-5.486-8.596-8.584l-17.454,5.901l-8.65-14.989l13.837-12.163
		c-1.367-3.766-2.414-7.703-3.116-11.745l-18.086-3.628v-17.288l18.086-3.635c0.701-4.012,1.741-7.949,3.123-11.753l-13.844-12.163
		l8.65-14.968l17.454,5.898c2.601-3.105,5.494-5.99,8.596-8.599l-5.906-17.449l14.986-8.666l12.178,13.847
		c3.768-1.357,7.703-2.406,11.74-3.11l3.625-18.112h17.311l3.63,18.104c4.029,0.704,7.964,1.751,11.732,3.108l12.173-13.816
		l14.986,8.645l-5.893,17.441c3.116,2.629,5.99,5.514,8.584,8.607l17.467-5.893l8.645,14.968l-13.837,12.145
		c1.367,3.791,2.414,7.734,3.131,11.766l18.066,3.638v17.288l-18.066,3.628c-0.714,4.055-1.761,7.987-3.116,11.745l13.821,12.163
		l-8.645,14.989l-17.467-5.901c-2.581,3.064-5.461,5.949-8.589,8.596l5.901,17.444l-14.986,8.64l-12.173-13.824
		c-3.763,1.364-7.695,2.406-11.732,3.116L254.543,337.194z M241.702,331.767h8.389l3.507-17.452l1.884-0.282
		c4.946-0.732,9.738-2.004,14.228-3.776l1.774-0.701l11.732,13.335l7.268-4.198l-5.673-16.804l1.477-1.19
		c3.894-3.123,7.409-6.636,10.427-10.44l1.19-1.492l16.827,5.688l4.196-7.276l-13.32-11.735l0.694-1.772
		c1.774-4.477,3.041-9.265,3.784-14.228l0.282-1.892l17.421-3.502v-8.394l-17.421-3.507l-0.282-1.884
		c-0.735-4.933-2.007-9.731-3.794-14.267l-0.689-1.777l13.32-11.702l-4.18-7.258l-16.842,5.683l-1.183-1.495
		c-3.041-3.825-6.541-7.334-10.419-10.442l-1.485-1.185l5.673-16.801l-7.276-4.196l-11.725,13.317l-1.766-0.696
		c-4.518-1.774-9.313-3.046-14.236-3.776l-1.884-0.282l-3.507-17.454h-8.41l-3.502,17.459l-1.876,0.279
		c-4.946,0.732-9.738,2.004-14.236,3.779l-1.774,0.701l-11.732-13.345l-7.283,4.204l5.696,16.827l-1.492,1.19
		c-3.866,3.067-7.373,6.574-10.427,10.422l-1.183,1.495l-16.835-5.686l-4.204,7.258l13.34,11.717l-0.701,1.774
		c-1.782,4.557-3.059,9.352-3.784,14.259l-0.282,1.884l-17.441,3.5v8.394l17.441,3.502l0.282,1.892
		c0.73,4.948,2.015,9.736,3.784,14.226l0.709,1.774l-13.348,11.735l4.204,7.276l16.827-5.683l1.183,1.487
		c3.08,3.853,6.582,7.355,10.432,10.412l1.492,1.188l-5.696,16.835l7.283,4.198l11.732-13.343l1.766,0.699
		c4.534,1.779,9.334,3.054,14.249,3.786l1.892,0.282L241.702,331.767z"/>
	<path style="fill:#FFFFFF;" d="M245.96,299.532c-27.425,0-49.736-22.295-49.736-49.702c0-27.364,22.31-49.626,49.736-49.626
		c27.359,0,49.605,22.262,49.605,49.626C295.565,277.236,273.318,299.532,245.96,299.532z M245.96,205.633
		c-24.428,0-44.311,19.825-44.311,44.196c0,24.407,19.884,44.27,44.311,44.27c24.351,0,44.17-19.866,44.17-44.27
		C290.13,225.458,270.31,205.633,245.96,205.633z"/>
	<path style="fill:#FFFFFF;" d="M245.898,261.997c-6.7,0-12.137-5.448-12.137-12.139c0-6.684,5.44-12.116,12.137-12.116
		c6.692,0,12.132,5.432,12.132,12.116C258.028,256.549,252.588,261.997,245.898,261.997z M245.898,243.171
		c-3.699,0-6.712,2.998-6.712,6.687c0,3.697,3.013,6.71,6.712,6.71c3.692,0,6.7-3.013,6.7-6.71
		C252.595,246.168,249.59,243.171,245.898,243.171z"/>
</g>
<path style="fill:#353F49;" d="M79.245,43.132v286.671c-23.347,0-42.266,18.934-42.266,42.273V85.372
	C36.979,62.048,55.898,43.132,79.245,43.132z"/>
<path style="fill:#F77B55;" d="M269.356,468.865H512V226.211L269.356,468.865z M356.928,432.587l118.81-118.825v118.825H356.928z"/>
<g>
	<rect x="505.498" y="455.167" style="fill:#FFFFFF;" width="6.492" height="3.159"/>
	<rect x="505.498" y="443.032" style="fill:#FFFFFF;" width="6.492" height="3.162"/>
	<rect x="505.498" y="430.872" style="fill:#FFFFFF;" width="6.492" height="3.172"/>
	<rect x="505.498" y="418.764" style="fill:#FFFFFF;" width="6.492" height="3.149"/>
	<rect x="505.498" y="406.629" style="fill:#FFFFFF;" width="6.492" height="3.162"/>
	<rect x="505.498" y="394.495" style="fill:#FFFFFF;" width="6.492" height="3.159"/>
	<rect x="505.498" y="382.36" style="fill:#FFFFFF;" width="6.492" height="3.159"/>
	<rect x="505.498" y="370.226" style="fill:#FFFFFF;" width="6.492" height="3.154"/>
	<rect x="505.498" y="358.092" style="fill:#FFFFFF;" width="6.492" height="3.167"/>
	<rect x="505.498" y="345.957" style="fill:#FFFFFF;" width="6.492" height="3.159"/>
	<rect x="505.498" y="333.823" style="fill:#FFFFFF;" width="6.492" height="3.156"/>
	<rect x="505.498" y="321.688" style="fill:#FFFFFF;" width="6.492" height="3.159"/>
	<rect x="505.498" y="309.554" style="fill:#FFFFFF;" width="6.492" height="3.159"/>
	<rect x="505.498" y="297.42" style="fill:#FFFFFF;" width="6.492" height="3.154"/>
	<rect x="505.498" y="285.285" style="fill:#FFFFFF;" width="6.492" height="3.159"/>
	<rect x="505.498" y="273.151" style="fill:#FFFFFF;" width="6.492" height="3.167"/>
	<rect x="505.498" y="261.016" style="fill:#FFFFFF;" width="6.492" height="3.162"/>
	<rect x="505.498" y="248.882" style="fill:#FFFFFF;" width="6.492" height="3.154"/>
	<rect x="505.498" y="236.748" style="fill:#FFFFFF;" width="6.492" height="3.156"/>
</g>
<polygon style="fill:#F2F2F2;" points="6.541,186.29 0,207.766 21.491,207.766 14.95,186.29 "/>
<polygon style="fill:#CCCBCA;" points="12.303,186.29 14.738,207.766 21.491,207.766 14.95,186.29 "/>
<rect y="207.768" style="fill:#FFDB79;" width="21.491" height="235.75"/>
<rect x="14.738" y="207.768" style="fill:#FAB83E;" width="6.753" height="235.75"/>
<polygon style="fill:#656A73;" points="14.938,186.29 10.742,172.471 6.513,186.29 "/>
<polygon style="fill:#232E38;" points="14.938,186.29 10.742,172.471 12.303,186.29 "/>
<rect y="443.519" style="fill:#F2F2F2;" width="21.491" height="7.857"/>
<rect x="14.738" y="443.519" style="fill:#CCCBCA;" width="6.753" height="7.857"/>
<path style="fill:#F77B55;" d="M21.491,458.121c0,2.76-1.068,5.499-3.136,7.624c-2.112,2.066-4.861,3.123-7.613,3.123l0,0
	c-2.76,0-5.494-1.057-7.593-3.123C1.06,463.622,0,460.881,0,458.121v-6.758h21.491V458.121z"/>
<path style="fill:#EE643C;" d="M14.738,451.363c0,2.755-1.073,5.514-3.164,7.606c-2.097,2.079-4.833,3.133-7.593,3.133
	c-1.142,0-2.276-0.197-3.382-0.586c0.509,1.541,1.326,2.982,2.552,4.229c2.097,2.066,4.833,3.123,7.593,3.123
	c2.749,0,5.501-1.057,7.613-3.123c2.071-2.122,3.136-4.861,3.136-7.624v-6.758L14.738,451.363L14.738,451.363z"/>
<g>
</g>
<g>
</g>
<g>
</g>
<g>
</g>
<g>
</g>
<g>
</g>
<g>
</g>
<g>
</g>
<g>
</g>
<g>
</g>
<g>
</g>
<g>
</g>
<g>
</g>
<g>
</g>
<g>
</g>
</svg>
