<?xml version="1.0" encoding="iso-8859-1"?>
<!-- Generator: Adobe Illustrator 19.0.0, SVG Export Plug-In . SVG Version: 6.00 Build 0)  -->
<svg version="1.1" id="Layer_1" xmlns="http://www.w3.org/2000/svg" xmlns:xlink="http://www.w3.org/1999/xlink" x="0px" y="0px"
	 viewBox="0 0 512 512" style="enable-background:new 0 0 512 512;" xml:space="preserve">
<circle style="fill:#FFDB79;" cx="256" cy="256" r="256"/>
<g>
	<polygon style="fill:#474F59;" points="489.958,108.191 482.938,108.191 482.938,104.646 479.43,104.646 479.43,97.554 
		489.958,97.554 	"/>
	<path style="fill:#474F59;" d="M465.781,104.646h-13.652v-7.089h13.652V104.646z M438.477,104.646h-13.649v-7.089h13.649V104.646z
		 M411.179,104.646h-13.656v-7.089h13.656V104.646z M383.878,104.646h-13.652v-7.089h13.652V104.646z M356.577,104.646h-13.656
		v-7.089h13.656V104.646z M329.275,104.646h-13.649v-7.089h13.649V104.646z"/>
	<polygon style="fill:#474F59;" points="298.463,108.191 291.444,108.191 291.444,97.554 301.974,97.554 301.974,104.646 
		298.463,104.646 	"/>
	<path style="fill:#474F59;" d="M298.463,342.135h-7.019v-14.633h7.019V342.135z M298.463,312.898h-7.019v-14.627h7.019V312.898z
		 M298.463,283.645h-7.019v-14.627h7.019V283.645z M298.463,254.408h-7.019v-14.627h7.019V254.408z M298.463,225.154h-7.019v-14.617
		h7.019V225.154z M298.463,195.921h-7.019v-14.623h7.019V195.921z M298.463,166.677h-7.019v-14.627h7.019V166.677z M298.463,137.431
		h-7.019v-14.627h7.019V137.431z"/>
	<polygon style="fill:#474F59;" points="301.974,367.381 291.444,367.381 291.444,356.755 298.463,356.755 298.463,360.296 
		301.974,360.296 	"/>
	<path style="fill:#474F59;" d="M465.781,367.381h-13.652v-7.085h13.652V367.381z M438.477,367.381h-13.646v-7.085h13.646V367.381z
		 M411.179,367.381h-13.656v-7.085h13.656V367.381z M383.878,367.381h-13.652v-7.085h13.652V367.381z M356.58,367.381h-13.656
		v-7.085h13.656V367.381z M329.275,367.381h-13.649v-7.085h13.649V367.381z"/>
	<polygon style="fill:#474F59;" points="489.958,367.381 479.43,367.381 479.43,360.296 482.938,360.296 482.938,356.755 
		489.958,356.755 	"/>
	<path style="fill:#474F59;" d="M489.958,342.135h-7.019v-14.627h7.019V342.135z M489.958,312.898h-7.019v-14.627h7.019V312.898z
		 M489.958,283.645h-7.019v-14.627h7.019V283.645z M489.958,254.414h-7.019v-14.633h7.019V254.414z M489.958,225.154h-7.019v-14.617
		h7.019V225.154z M489.958,195.921h-7.019v-14.623h7.019V195.921z M489.958,166.677h-7.019v-14.627h7.019V166.677z M489.958,137.431
		h-7.019v-14.627h7.019V137.431z"/>
	<polygon style="fill:#474F59;" points="501.007,104.735 482.813,104.735 482.813,86.545 490.093,86.545 490.093,97.458 
		501.007,97.458 	"/>
	<polygon style="fill:#474F59;" points="298.595,104.735 280.401,104.735 280.401,97.458 291.318,97.458 291.318,86.545 
		298.595,86.545 	"/>
	<polygon style="fill:#474F59;" points="490.093,378.401 482.813,378.401 482.813,360.2 501.007,360.2 501.007,367.484 
		490.093,367.484 	"/>
	<polygon style="fill:#474F59;" points="298.595,378.401 291.318,378.401 291.318,367.484 280.401,367.484 280.401,360.2 
		298.595,360.2 	"/>
</g>
<rect x="22.039" y="118.834" style="fill:#353F49;" width="198.524" height="248.535"/>
<g>
	<rect x="43.513" y="139.958" style="fill:#656A73;" width="11.429" height="4.549"/>
	<rect x="57.902" y="139.958" style="fill:#656A73;" width="41.284" height="4.549"/>
	<rect x="54.943" y="175.864" style="fill:#656A73;" width="18.201" height="4.555"/>
	<rect x="43.513" y="246.817" style="fill:#656A73;" width="29.63" height="4.555"/>
	<rect x="54.943" y="187.858" style="fill:#656A73;" width="7.502" height="4.555"/>
	<rect x="77.428" y="175.864" style="fill:#656A73;" width="47.533" height="4.555"/>
	<rect x="74.389" y="211.803" style="fill:#656A73;" width="46.083" height="4.558"/>
	<rect x="64.614" y="341.686" style="fill:#656A73;" width="16.549" height="4.535"/>
	<rect x="126.051" y="258.775" style="fill:#656A73;" width="17.048" height="4.568"/>
	<rect x="77.926" y="317.737" style="fill:#656A73;" width="32.121" height="4.575"/>
	<rect x="88.332" y="341.686" style="fill:#656A73;" width="37.726" height="4.535"/>
	<rect x="156.143" y="282.723" style="fill:#656A73;" width="13.722" height="4.562"/>
	<rect x="128.806" y="211.803" style="fill:#656A73;" width="34.205" height="4.558"/>
	<rect x="130.342" y="175.864" style="fill:#656A73;" width="34.195" height="4.555"/>
	<rect x="171.5" y="175.864" style="fill:#656A73;" width="20.923" height="4.555"/>
	<rect x="54.943" y="151.948" style="fill:#656A73;" width="27.143" height="4.549"/>
	<rect x="54.943" y="163.909" style="fill:#656A73;" width="38.496" height="4.568"/>
	<rect x="65.219" y="187.858" style="fill:#656A73;" width="44.121" height="4.555"/>
	<rect x="54.943" y="270.769" style="fill:#656A73;" width="44.111" height="4.535"/>
	<rect x="54.943" y="282.723" style="fill:#656A73;" width="48.438" height="4.562"/>
	<rect x="96.223" y="329.728" style="fill:#656A73;" width="85.735" height="4.562"/>
	<rect x="137.556" y="341.686" style="fill:#656A73;" width="18.776" height="4.535"/>
	<rect x="108.587" y="282.723" style="fill:#656A73;" width="42.014" height="4.562"/>
	<rect x="122.252" y="317.737" style="fill:#656A73;" width="42.007" height="4.575"/>
	<rect x="65.219" y="199.845" style="fill:#656A73;" width="14.339" height="4.552"/>
	<rect x="65.219" y="223.76" style="fill:#656A73;" width="15.608" height="4.562"/>
	<rect x="54.943" y="258.775" style="fill:#656A73;" width="65.529" height="4.568"/>
	<rect x="43.513" y="317.737" style="fill:#656A73;" width="29.376" height="4.575"/>
	<rect x="54.943" y="329.728" style="fill:#656A73;" width="33.472" height="4.568"/>
	<rect x="84.067" y="199.845" style="fill:#656A73;" width="86.115" height="4.552"/>
	<rect x="64.102" y="294.681" style="fill:#656A73;" width="27.542" height="4.588"/>
	<rect x="101.085" y="294.681" style="fill:#656A73;" width="76.139" height="4.588"/>
	<rect x="118.414" y="187.858" style="fill:#656A73;" width="29.025" height="4.555"/>
	<rect x="97.534" y="163.909" style="fill:#656A73;" width="38.483" height="4.568"/>
	<rect x="138.669" y="163.909" style="fill:#656A73;" width="31.632" height="4.568"/>
	<rect x="181.942" y="163.909" style="fill:#656A73;" width="17.137" height="4.568"/>
	<rect x="90.958" y="151.948" style="fill:#656A73;" width="41.67" height="4.549"/>
</g>
<rect x="22.039" y="97.554" style="fill:#232E38;" width="198.524" height="21.276"/>
<rect x="121.298" y="232.679" style="fill:#FFFFFF;" width="269.411" height="188.383"/>
<rect x="121.298" y="211.393" style="fill:#232E38;" width="269.411" height="21.276"/>
<rect x="135.465" y="246.85" style="fill:#F77B55;" width="70.894" height="70.891"/>
<g>
	<polygon style="fill:#FFFFFF;" points="172.752,258.134 169.086,258.134 168.012,263.459 173.826,263.459 	"/>
	<polygon style="fill:#FFFFFF;" points="160.424,260.446 157.25,262.283 158.981,267.446 164.018,264.549 	"/>
	<polygon style="fill:#FFFFFF;" points="150.911,268.618 149.065,271.806 153.151,275.406 156.071,270.376 	"/>
	<polygon style="fill:#FFFFFF;" points="146.749,280.477 146.749,284.124 152.09,285.22 152.09,279.387 	"/>
	<polygon style="fill:#FFFFFF;" points="149.065,292.795 150.911,295.969 156.071,294.245 153.151,289.181 	"/>
	<polygon style="fill:#FFFFFF;" points="157.25,302.305 160.424,304.154 164.018,300.058 158.988,297.148 	"/>
	<polygon style="fill:#FFFFFF;" points="169.089,306.47 172.752,306.47 173.826,301.135 168.012,301.135 	"/>
	<polygon style="fill:#FFFFFF;" points="181.42,304.154 184.601,302.305 182.847,297.148 177.832,300.058 	"/>
	<polygon style="fill:#FFFFFF;" points="190.936,295.969 192.766,292.795 188.684,289.181 185.78,294.245 	"/>
	<polygon style="fill:#FFFFFF;" points="195.085,284.124 195.085,280.477 189.754,279.387 189.754,285.22 	"/>
	<polygon style="fill:#FFFFFF;" points="192.766,271.806 190.936,268.618 185.78,270.376 188.684,275.4 	"/>
	<polygon style="fill:#FFFFFF;" points="184.601,262.283 181.42,260.453 177.832,264.549 182.847,267.446 	"/>
	<path style="fill:#FFFFFF;" d="M170.922,263.251c-10.531,0-19.06,8.529-19.06,19.06c0,10.517,8.529,19.046,19.06,19.046
		c10.517,0,19.053-8.529,19.053-19.046C189.975,271.78,181.44,263.251,170.922,263.251z M170.922,289.181
		c-3.795,0-6.881-3.085-6.881-6.871c0-3.805,3.085-6.877,6.881-6.877c3.792,0,6.877,3.072,6.877,6.877
		C177.799,286.096,174.718,289.181,170.922,289.181z"/>
</g>
<g>
	<rect x="135.465" y="331.908" style="fill:#FDCA5C;" width="70.894" height="35.457"/>
	<rect x="220.553" y="331.908" style="fill:#FDCA5C;" width="70.894" height="35.457"/>
	<rect x="305.614" y="331.908" style="fill:#FDCA5C;" width="70.907" height="35.457"/>
</g>
<rect x="220.553" y="256.991" style="fill:#E6E5E5;" width="155.978" height="5.044"/>
<rect x="220.553" y="246.85" style="fill:#353F49;" width="155.978" height="5.064"/>
<g>
	<rect x="220.553" y="267.099" style="fill:#E6E5E5;" width="155.978" height="5.057"/>
	<rect x="220.553" y="277.24" style="fill:#E6E5E5;" width="77.983" height="5.07"/>
	<rect x="135.465" y="381.556" style="fill:#E6E5E5;" width="70.894" height="5.051"/>
	<rect x="135.465" y="391.663" style="fill:#E6E5E5;" width="70.894" height="5.07"/>
	<rect x="135.465" y="401.837" style="fill:#E6E5E5;" width="35.45" height="5.057"/>
	<rect x="220.553" y="381.556" style="fill:#E6E5E5;" width="70.894" height="5.051"/>
	<rect x="220.553" y="391.663" style="fill:#E6E5E5;" width="70.894" height="5.07"/>
	<rect x="220.553" y="401.837" style="fill:#E6E5E5;" width="35.44" height="5.057"/>
	<rect x="305.614" y="381.556" style="fill:#E6E5E5;" width="70.907" height="5.051"/>
	<rect x="305.614" y="391.663" style="fill:#E6E5E5;" width="70.907" height="5.07"/>
	<rect x="305.614" y="401.837" style="fill:#E6E5E5;" width="35.457" height="5.057"/>
</g>
<g>
</g>
<g>
</g>
<g>
</g>
<g>
</g>
<g>
</g>
<g>
</g>
<g>
</g>
<g>
</g>
<g>
</g>
<g>
</g>
<g>
</g>
<g>
</g>
<g>
</g>
<g>
</g>
<g>
</g>
</svg>
