<?xml version="1.0" encoding="iso-8859-1"?>
<!-- Generator: Adobe Illustrator 19.0.0, SVG Export Plug-In . SVG Version: 6.00 Build 0)  -->
<svg version="1.1" id="Layer_1" xmlns="http://www.w3.org/2000/svg" xmlns:xlink="http://www.w3.org/1999/xlink" x="0px" y="0px"
	 viewBox="0 0 512.008 512.008" style="enable-background:new 0 0 512.008 512.008;" xml:space="preserve">
<rect x="125.596" y="141.184" style="fill:#474F59;" width="286.234" height="286.234"/>
<rect x="155.011" y="169.626" style="fill:#232E38;" width="99.994" height="35.292"/>
<rect x="160.284" y="174.925" style="fill:#656A73;" width="89.434" height="24.701"/>
<g>
	<rect x="217.27" y="174.925" style="fill:#474F59;" width="5.297" height="24.701"/>
	<rect x="187.471" y="174.925" style="fill:#474F59;" width="5.284" height="24.701"/>
</g>
<g>
	<rect x="284.419" y="169.626" style="fill:#232E38;" width="35.277" height="35.292"/>
	<rect x="349.11" y="169.626" style="fill:#232E38;" width="35.267" height="35.292"/>
	<rect x="155.011" y="234.317" style="fill:#232E38;" width="35.287" height="35.287"/>
	<rect x="219.702" y="234.317" style="fill:#232E38;" width="35.308" height="35.287"/>
	<rect x="284.419" y="234.317" style="fill:#232E38;" width="35.277" height="35.287"/>
	<rect x="349.11" y="234.317" style="fill:#232E38;" width="35.267" height="35.287"/>
	<rect x="155.011" y="299.008" style="fill:#232E38;" width="35.287" height="35.313"/>
	<rect x="219.702" y="299.008" style="fill:#232E38;" width="35.308" height="35.313"/>
	<rect x="284.419" y="299.008" style="fill:#232E38;" width="35.277" height="35.313"/>
	<rect x="155.011" y="363.725" style="fill:#232E38;" width="35.287" height="35.279"/>
	<rect x="219.702" y="363.725" style="fill:#232E38;" width="35.308" height="35.279"/>
	<rect x="284.419" y="363.725" style="fill:#232E38;" width="35.277" height="35.279"/>
</g>
<rect x="349.11" y="299.008" style="fill:#656A73;" width="35.267" height="99.994"/>
<rect x="125.596" style="fill:#353F49;" width="286.234" height="141.184"/>
<rect x="145.948" y="20.362" style="fill:#FFFFFF;" width="245.53" height="100.48"/>
<rect x="125.596" y="137.623" style="fill:#D9D8D7;" width="286.234" height="7.112"/>
<rect x="166.323" y="90.163" style="fill:#353F49;" width="29.261" height="19.21"/>
<g>
	<rect x="210.204" y="62.556" style="fill:#D9D8D7;" width="29.268" height="46.81"/>
	<rect x="254.108" y="78.026" style="fill:#D9D8D7;" width="29.238" height="31.34"/>
</g>
<rect x="298.012" y="31.821" style="fill:#76D0DE;" width="29.228" height="77.542"/>
<rect x="341.865" y="52.718" style="fill:#D9D8D7;" width="29.245" height="56.653"/>
<polygon style="fill:#F2F2F2;" points="501.015,207.672 489.441,169.618 477.855,207.672 "/>
<polygon style="fill:#CCCBCA;" points="489.441,169.618 501.015,207.672 493.734,207.672 "/>
<rect x="477.852" y="207.667" style="fill:#F77B55;" width="23.168" height="272.026"/>
<rect x="493.724" y="207.667" style="fill:#EE643C;" width="7.281" height="272.026"/>
<polygon style="fill:#474F59;" points="493.96,184.502 489.441,169.618 484.867,184.502 "/>
<polygon style="fill:#232E38;" points="493.96,184.502 489.441,169.618 491.123,184.502 "/>
<rect x="477.852" y="479.693" style="fill:#F2F2F2;" width="23.168" height="13.435"/>
<rect x="493.724" y="479.693" style="fill:#CCCBCA;" width="7.281" height="13.435"/>
<path style="fill:#474F59;" d="M501.015,500.426c0,2.949-1.137,5.914-3.397,8.169c-2.258,2.268-5.217,3.402-8.177,3.402l0,0
	c-2.962,0-5.926-1.134-8.187-3.402c-2.26-2.258-3.397-5.22-3.397-8.169v-7.296h23.16v7.296H501.015z"/>
<path style="fill:#232E38;" d="M493.734,493.133c0,2.957-1.129,5.929-3.395,8.192c-2.25,2.255-5.23,3.379-8.197,3.379
	c-1.226,0-2.473-0.248-3.653-0.627c0.553,1.646,1.449,3.213,2.762,4.521c2.26,2.268,5.225,3.402,8.187,3.402
	c2.959,0,5.921-1.134,8.177-3.402c2.26-2.258,3.397-5.22,3.397-8.169v-7.296L493.734,493.133L493.734,493.133z"/>
<path style="fill:#FFDB79;" d="M97.503,274.202c0,25.341-20.541,45.883-45.898,45.883c-25.347,0-45.888-20.539-45.888-45.883
	c0-25.334,20.541-45.908,45.888-45.908C76.961,228.296,97.503,248.87,97.503,274.202z"/>
<path style="fill:#FDCA5C;" d="M88.302,274.202c0,20.283-16.415,36.69-36.695,36.69s-36.698-16.407-36.698-36.69
	c0-20.278,16.417-36.705,36.698-36.705S88.302,253.924,88.302,274.202z"/>
<g>
	<path style="fill:#FFDB79;" d="M55.462,277.238h-7.706c-3.218,0-6.246-1.26-8.494-3.551c-2.263-2.227-3.533-5.243-3.533-8.492
		c0-3.226,1.27-6.234,3.533-8.52c2.222-2.237,5.253-3.492,8.494-3.492h16.681v6.07H47.757c-1.608,0-3.128,0.604-4.198,1.715
		c-1.162,1.126-1.769,2.627-1.769,4.224c0,1.603,0.609,3.095,1.743,4.206c1.152,1.157,2.616,1.777,4.224,1.777h7.706V277.238z"/>
	<path style="fill:#FFDB79;" d="M55.462,295.209H38.774v-6.047h16.689c1.595,0,3.075-0.63,4.221-1.756
		c1.093-1.085,1.754-2.598,1.754-4.206c0-1.605-0.617-3.095-1.733-4.193c-1.165-1.149-2.647-1.772-4.239-1.772h-7.706v-6.06h7.706
		c3.21,0,6.241,1.254,8.509,3.538c2.248,2.202,3.505,5.248,3.505,8.486c0,3.226-1.249,6.244-3.505,8.507
		C61.663,293.967,58.634,295.209,55.462,295.209z"/>
	<rect x="48.591" y="251.085" style="fill:#FFDB79;" width="6.052" height="46.208"/>
	<path style="fill:#FFDB79;" d="M506.291,66.547c0,18.079-14.661,32.735-32.742,32.735c-18.089,0-32.742-14.656-32.742-32.735
		c0-18.068,14.653-32.75,32.742-32.75C491.63,33.797,506.291,48.481,506.291,66.547z"/>
</g>
<path style="fill:#FDCA5C;" d="M499.727,66.547c0,14.467-11.712,26.184-26.181,26.184c-14.474,0-26.186-11.715-26.186-26.184
	s11.712-26.189,26.186-26.189C488.015,40.358,499.727,52.081,499.727,66.547z"/>
<g>
	<path style="fill:#FFDB79;" d="M476.301,68.708h-5.504c-2.294,0-4.452-0.899-6.057-2.529c-1.613-1.587-2.516-3.743-2.516-6.06
		c0-2.294,0.906-4.454,2.516-6.075c1.585-1.597,3.748-2.493,6.057-2.493h11.904v4.326h-11.904c-1.144,0-2.227,0.433-2.995,1.229
		c-0.827,0.796-1.262,1.871-1.262,3.011c0,1.149,0.435,2.207,1.247,2.995c0.814,0.829,1.866,1.27,3.011,1.27h5.504V68.708z"/>
	<path style="fill:#FFDB79;" d="M476.301,81.546h-11.914v-4.321h11.912c1.134,0,2.194-0.448,3.011-1.257
		c0.778-0.778,1.247-1.846,1.247-3.003c0-1.147-0.44-2.202-1.236-2.985c-0.824-0.822-1.884-1.27-3.021-1.27h-5.504v-4.321h5.504
		c2.286,0,4.449,0.899,6.062,2.529c1.608,1.567,2.504,3.735,2.504,6.047c0,2.314-0.888,4.465-2.504,6.07
		C480.719,80.653,478.559,81.546,476.301,81.546z"/>
	<rect x="471.401" y="50.056" style="fill:#FFDB79;" width="4.316" height="32.986"/>
	<path style="fill:#FFDB79;" d="M62.144,472.02c0,11.395-9.239,20.636-20.639,20.636c-11.407,0-20.662-9.239-20.662-20.636
		c0-11.407,9.254-20.669,20.662-20.669C52.908,451.351,62.144,460.613,62.144,472.02z"/>
</g>
<path style="fill:#FDCA5C;" d="M58.017,472.02c0,9.132-7.388,16.502-16.512,16.502c-9.137,0-16.52-7.37-16.52-16.502
	c0-9.134,7.383-16.52,16.52-16.52C50.629,455.501,58.017,462.884,58.017,472.02z"/>
<g>
	<path style="fill:#FFDB79;" d="M43.238,473.372h-3.474c-1.446,0-2.803-0.566-3.82-1.603c-1.021-0.986-1.59-2.348-1.59-3.802
		c0-1.452,0.568-2.808,1.59-3.837c1.001-1.006,2.358-1.567,3.82-1.567h7.511v2.721h-7.511c-0.722,0-1.398,0.279-1.879,0.768
		c-0.527,0.507-0.812,1.193-0.812,1.917c0,0.709,0.284,1.388,0.788,1.889c0.512,0.515,1.18,0.786,1.902,0.786h3.474
		C43.238,470.646,43.238,473.372,43.238,473.372z"/>
	<path style="fill:#FFDB79;" d="M43.238,481.472h-7.511v-2.732h7.511c0.709,0,1.38-0.274,1.894-0.786
		c0.497-0.497,0.786-1.17,0.786-1.884c0-0.727-0.274-1.405-0.776-1.892c-0.527-0.512-1.196-0.804-1.905-0.804h-3.474v-2.729h3.474
		c1.436,0,2.796,0.566,3.827,1.597c1.014,0.998,1.572,2.353,1.572,3.83c0,1.452-0.556,2.806-1.572,3.82
		C46.034,480.906,44.659,481.472,43.238,481.472z"/>
	<rect x="40.141" y="461.594" style="fill:#FFDB79;" width="2.721" height="20.805"/>
	<circle style="fill:#FFDB79;" cx="208.182" cy="485.709" r="26.299"/>
</g>
<path style="fill:#FDCA5C;" d="M229.199,485.706c0,11.63-9.4,21.043-21.025,21.043c-11.63,0-21.03-9.413-21.03-21.043
	c0-11.625,9.4-21.038,21.03-21.038C219.799,464.671,229.199,474.081,229.199,485.706z"/>
<g>
	<path style="fill:#FFDB79;" d="M210.383,487.452h-4.424c-1.836,0-3.574-0.722-4.859-2.038c-1.298-1.267-2.022-3.003-2.022-4.867
		c0-1.851,0.724-3.571,2.022-4.874c1.275-1.285,3.011-2.002,4.859-2.002h9.569v3.471h-9.569c-0.916,0-1.782,0.361-2.401,0.98
		c-0.666,0.65-1.011,1.513-1.011,2.424c0,0.919,0.346,1.777,0.993,2.412c0.66,0.663,1.503,1.019,2.422,1.019h4.424v3.474H210.383z"
		/>
	<path style="fill:#FFDB79;" d="M210.383,497.751h-9.567v-3.466h9.567c0.906,0,1.761-0.369,2.419-1.009
		c0.627-0.62,0.996-1.485,0.996-2.409c0-0.927-0.346-1.777-0.986-2.406c-0.668-0.655-1.526-1.009-2.432-1.009h-4.424v-3.471h4.424
		c1.838,0,3.576,0.719,4.874,2.017c1.285,1.275,2.007,3.011,2.007,4.869c0,1.848-0.722,3.581-2.007,4.867
		C213.934,497.037,212.198,497.751,210.383,497.751z"/>
	<rect x="206.441" y="472.474" style="fill:#FFDB79;" width="3.466" height="26.481"/>
</g>
<g>
</g>
<g>
</g>
<g>
</g>
<g>
</g>
<g>
</g>
<g>
</g>
<g>
</g>
<g>
</g>
<g>
</g>
<g>
</g>
<g>
</g>
<g>
</g>
<g>
</g>
<g>
</g>
<g>
</g>
</svg>
