<?xml version="1.0" encoding="iso-8859-1"?>
<!-- Generator: Adobe Illustrator 19.0.0, SVG Export Plug-In . SVG Version: 6.00 Build 0)  -->
<svg version="1.1" id="Layer_1" xmlns="http://www.w3.org/2000/svg" xmlns:xlink="http://www.w3.org/1999/xlink" x="0px" y="0px"
	 viewBox="0 0 512.01 512.01" style="enable-background:new 0 0 512.01 512.01;" xml:space="preserve">
<circle style="fill:#F2F2F2;" cx="256.005" cy="256" r="256"/>
<rect x="133.158" y="193.751" style="fill:#474F59;" width="245.661" height="245.661"/>
<rect x="158.405" y="218.145" style="fill:#232E38;" width="85.821" height="30.287"/>
<rect x="162.953" y="222.703" style="fill:#656A73;" width="76.767" height="21.2"/>
<g>
	<rect x="211.841" y="222.703" style="fill:#474F59;" width="4.545" height="21.2"/>
	<rect x="186.274" y="222.703" style="fill:#474F59;" width="4.535" height="21.2"/>
</g>
<g>
	<rect x="269.482" y="218.145" style="fill:#232E38;" width="30.277" height="30.287"/>
	<rect x="324.976" y="218.145" style="fill:#232E38;" width="30.267" height="30.287"/>
	<rect x="158.405" y="273.672" style="fill:#232E38;" width="30.284" height="30.284"/>
	<rect x="213.925" y="273.672" style="fill:#232E38;" width="30.304" height="30.284"/>
	<rect x="269.482" y="273.672" style="fill:#232E38;" width="30.277" height="30.284"/>
	<rect x="324.976" y="273.672" style="fill:#232E38;" width="30.267" height="30.284"/>
	<rect x="158.405" y="329.199" style="fill:#232E38;" width="30.284" height="30.307"/>
	<rect x="213.925" y="329.199" style="fill:#232E38;" width="30.304" height="30.307"/>
	<rect x="269.482" y="329.199" style="fill:#232E38;" width="30.277" height="30.307"/>
	<rect x="158.405" y="384.727" style="fill:#232E38;" width="30.284" height="30.277"/>
	<rect x="213.925" y="384.727" style="fill:#232E38;" width="30.304" height="30.277"/>
	<rect x="269.482" y="384.727" style="fill:#232E38;" width="30.277" height="30.277"/>
</g>
<rect x="324.976" y="329.199" style="fill:#656A73;" width="30.267" height="85.821"/>
<rect x="133.158" y="72.588" style="fill:#353F49;" width="245.661" height="121.166"/>
<rect x="150.639" y="90.079" style="fill:#FFFFFF;" width="210.723" height="86.214"/>
<rect x="133.158" y="190.699" style="fill:#D9D8D7;" width="245.661" height="6.104"/>
<rect x="168.119" y="149.966" style="fill:#353F49;" width="25.114" height="16.486"/>
<g>
	<rect x="205.796" y="126.282" style="fill:#D9D8D7;" width="25.118" height="40.174"/>
	<rect x="243.453" y="139.561" style="fill:#D9D8D7;" width="25.095" height="26.898"/>
</g>
<rect x="281.142" y="99.89" style="fill:#76D0DE;" width="25.085" height="66.56"/>
<rect x="318.766" y="117.833" style="fill:#D9D8D7;" width="25.101" height="48.617"/>
<polygon style="fill:#FFFFFF;" points="455.361,250.817 445.425,218.158 435.482,250.817 "/>
<polygon style="fill:#CCCBCA;" points="445.425,218.158 455.361,250.817 449.112,250.817 "/>
<rect x="435.469" y="250.817" style="fill:#F77B55;" width="19.885" height="233.472"/>
<rect x="449.112" y="250.817" style="fill:#EE643C;" width="6.25" height="233.472"/>
<polygon style="fill:#474F59;" points="449.306,230.932 445.425,218.158 441.501,230.932 "/>
<polygon style="fill:#232E38;" points="449.306,230.932 445.425,218.158 446.869,230.932 "/>
<rect x="435.469" y="484.286" style="fill:#F2F2F2;" width="19.885" height="11.528"/>
<rect x="449.112" y="484.286" style="fill:#CCCBCA;" width="6.25" height="11.528"/>
<path style="fill:#474F59;" d="M455.361,502.067c0,2.534-0.978,5.074-2.917,7.013c-1.939,1.946-4.476,2.92-7.019,2.92l0,0
	c-2.543,0-5.087-0.974-7.026-2.92c-1.939-1.939-2.917-4.479-2.917-7.013v-6.263h19.879L455.361,502.067L455.361,502.067z"/>
<path style="fill:#232E38;" d="M449.112,495.808c0,2.54-0.971,5.09-2.913,7.033c-1.932,1.936-4.489,2.9-7.036,2.9
	c-1.05,0-2.124-0.211-3.135-0.538c0.476,1.414,1.245,2.758,2.372,3.881c1.939,1.946,4.482,2.92,7.026,2.92
	c2.544,0,5.08-0.974,7.019-2.92c1.939-1.939,2.917-4.479,2.917-7.013v-6.263L449.112,495.808L449.112,495.808z"/>
<circle style="fill:#FFDB79;" cx="69.67" cy="307.927" r="39.388"/>
<path style="fill:#FDCA5C;" d="M101.156,307.917c0,17.408-14.088,31.486-31.493,31.486s-31.496-14.082-31.496-31.486
	s14.092-31.503,31.496-31.503S101.156,290.512,101.156,307.917z"/>
<g>
	<path style="fill:#FFDB79;" d="M72.973,310.52H66.36c-2.762,0-5.361-1.08-7.29-3.046c-1.942-1.913-3.032-4.499-3.032-7.29
		c0-2.768,1.09-5.348,3.032-7.31c1.906-1.919,4.509-2.996,7.29-2.996h14.316v5.209H66.36c-1.381,0-2.686,0.519-3.604,1.47
		c-0.998,0.968-1.519,2.256-1.519,3.627c0,1.377,0.522,2.659,1.496,3.61c0.988,0.994,2.246,1.526,3.627,1.526h6.613V310.52z"/>
	<path style="fill:#FFDB79;" d="M72.973,325.946H58.65v-5.189h14.323c1.368,0,2.639-0.542,3.624-1.506
		c0.938-0.932,1.503-2.23,1.503-3.61c0-1.377-0.529-2.656-1.486-3.597c-1.001-0.988-2.273-1.523-3.64-1.523H66.36v-5.199h6.613
		c2.755,0,5.355,1.077,7.303,3.036c1.929,1.889,3.006,4.502,3.006,7.284c0,2.768-1.07,5.361-3.006,7.303
		C78.295,324.879,75.695,325.946,72.973,325.946z"/>
	<rect x="67.077" y="288.074" style="fill:#FFDB79;" width="5.193" height="39.672"/>
	<path style="fill:#FFDB79;" d="M459.887,129.701c0,15.515-12.582,28.094-28.101,28.094c-15.525,0-28.101-12.579-28.101-28.094
		c0-15.505,12.575-28.107,28.101-28.107C447.305,101.594,459.887,114.193,459.887,129.701z"/>
</g>
<path style="fill:#FDCA5C;" d="M454.255,129.701c0,12.417-10.052,22.472-22.469,22.472c-12.423,0-22.475-10.055-22.475-22.472
	s10.052-22.478,22.475-22.478C444.203,107.223,454.255,117.284,454.255,129.701z"/>
<g>
	<path style="fill:#FFDB79;" d="M434.148,131.554h-4.724c-1.972,0-3.822-0.77-5.199-2.17c-1.384-1.361-2.16-3.214-2.16-5.199
		c0-1.969,0.776-3.822,2.16-5.212c1.361-1.371,3.217-2.137,5.199-2.137h10.217v3.713h-10.217c-0.984,0-1.913,0.37-2.57,1.054
		c-0.71,0.684-1.083,1.605-1.083,2.583c0,0.988,0.373,1.893,1.07,2.57c0.7,0.713,1.599,1.09,2.583,1.09h4.724V131.554z"/>
	<path style="fill:#FFDB79;" d="M434.148,142.571h-10.224v-3.71h10.224c0.974,0,1.883-0.383,2.583-1.077
		c0.667-0.667,1.07-1.582,1.07-2.577c0-0.984-0.377-1.889-1.06-2.56c-0.71-0.707-1.619-1.09-2.593-1.09h-4.724v-3.71h4.724
		c1.962,0,3.819,0.77,5.203,2.17c1.381,1.344,2.147,3.207,2.147,5.189c0,1.989-0.76,3.832-2.147,5.209
		C437.94,141.807,436.087,142.571,434.148,142.571z"/>
	<rect x="429.953" y="115.544" style="fill:#FFDB79;" width="3.703" height="28.309"/>
	<path style="fill:#FFDB79;" d="M78.708,477.686c0,9.781-7.928,17.709-17.712,17.709c-9.791,0-17.732-7.928-17.732-17.709
		c0-9.791,7.941-17.738,17.732-17.738C70.78,459.948,78.708,467.895,78.708,477.686z"/>
</g>
<path style="fill:#FDCA5C;" d="M75.167,477.686c0,7.839-6.342,14.164-14.171,14.164c-7.842,0-14.177-6.326-14.177-14.164
	c0-7.839,6.336-14.177,14.177-14.177C68.824,463.509,75.167,469.848,75.167,477.686z"/>
<g>
	<path style="fill:#FFDB79;" d="M62.482,478.849h-2.98c-1.242,0-2.408-0.482-3.277-1.374c-0.879-0.846-1.364-2.015-1.364-3.264
		c0-1.245,0.486-2.408,1.364-3.293c0.859-0.862,2.022-1.344,3.277-1.344h6.445v2.335h-6.445c-0.621,0-1.199,0.238-1.612,0.657
		c-0.453,0.436-0.697,1.024-0.697,1.645c0,0.611,0.244,1.189,0.677,1.622c0.439,0.443,1.014,0.674,1.632,0.674h2.98
		C62.482,476.507,62.482,478.849,62.482,478.849z"/>
	<path style="fill:#FFDB79;" d="M62.482,485.799h-6.445v-2.345h6.445c0.611,0,1.183-0.235,1.625-0.674
		c0.426-0.426,0.674-1.004,0.674-1.615c0-0.624-0.235-1.206-0.664-1.625c-0.453-0.439-1.027-0.69-1.635-0.69h-2.98v-2.342h2.98
		c1.232,0,2.401,0.482,3.283,1.371c0.872,0.856,1.348,2.018,1.348,3.287c0,1.245-0.479,2.408-1.348,3.277
		C64.884,485.317,63.701,485.799,62.482,485.799z"/>
	<rect x="59.826" y="468.761" style="fill:#FFDB79;" width="2.335" height="17.854"/>
	<circle style="fill:#FFDB79;" cx="204.035" cy="489.439" r="22.571"/>
</g>
<path style="fill:#FDCA5C;" d="M222.077,489.436c0,9.979-8.066,18.059-18.046,18.059s-18.049-8.076-18.049-18.059
	c0-9.979,8.066-18.055,18.049-18.055C214.011,471.38,222.077,479.457,222.077,489.436z"/>
<g>
	<path style="fill:#FFDB79;" d="M205.931,490.932h-3.795c-1.576,0-3.069-0.621-4.172-1.747c-1.113-1.087-1.734-2.577-1.734-4.179
		c0-1.586,0.621-3.065,1.734-4.185c1.093-1.103,2.583-1.721,4.172-1.721h8.212v2.979h-8.212c-0.786,0-1.529,0.31-2.061,0.842
		c-0.571,0.558-0.869,1.298-0.869,2.081c0,0.789,0.297,1.526,0.852,2.071c0.568,0.568,1.292,0.875,2.078,0.875h3.795V490.932z"/>
	<path style="fill:#FFDB79;" d="M205.931,499.771h-8.209v-2.973h8.209c0.776,0,1.513-0.317,2.078-0.865
		c0.538-0.532,0.856-1.275,0.856-2.068c0-0.796-0.297-1.526-0.846-2.068c-0.575-0.562-1.308-0.865-2.088-0.865h-3.795v-2.979h3.795
		c1.579,0,3.072,0.621,4.185,1.731c1.103,1.093,1.721,2.583,1.721,4.182c0,1.582-0.621,3.075-1.721,4.179
		C208.98,499.157,207.49,499.771,205.931,499.771z"/>
	<rect x="202.559" y="478.076" style="fill:#FFDB79;" width="2.973" height="22.726"/>
</g>
<g>
</g>
<g>
</g>
<g>
</g>
<g>
</g>
<g>
</g>
<g>
</g>
<g>
</g>
<g>
</g>
<g>
</g>
<g>
</g>
<g>
</g>
<g>
</g>
<g>
</g>
<g>
</g>
<g>
</g>
</svg>
