<?xml version="1.0" encoding="iso-8859-1"?>
<!-- Generator: Adobe Illustrator 19.0.0, SVG Export Plug-In . SVG Version: 6.00 Build 0)  -->
<svg version="1.1" id="Layer_1" xmlns="http://www.w3.org/2000/svg" xmlns:xlink="http://www.w3.org/1999/xlink" x="0px" y="0px"
	 viewBox="0 0 512 512" style="enable-background:new 0 0 512 512;" xml:space="preserve">
<circle style="fill:#ADECF7;" cx="256" cy="256" r="256"/>
<path style="fill:#FFFFFF;" d="M123.263,157.917c0.026,0,0.053,0,0.063,0c-0.01-0.988-0.063-1.956-0.063-2.983
	c0-57.288,46.447-103.731,103.728-103.731c46.84,0,86.436,31.044,99.305,73.695c7.829-3.66,16.543-5.734,25.735-5.734
	c33.425,0,60.512,27.063,60.512,60.469c0,7.7-1.47,15.036-4.076,21.814c0.674-0.043,1.331-0.116,1.979-0.116
	c21.418,0,38.777,17.362,38.777,38.773c0,21.421-17.358,38.783-38.777,38.783H123.263c-33.402,0-60.492-27.09-60.492-60.469
	C62.775,185,89.861,157.917,123.263,157.917z"/>
<g>
	<polygon style="fill:#353F49;" points="148.83,380.284 144.519,375.95 170.955,349.511 170.955,238.004 177.063,238.004 
		177.063,352.041 	"/>
	<polygon style="fill:#353F49;" points="196.866,456.443 190.761,456.443 190.761,376.588 217.825,349.511 217.825,207.462 
		223.906,207.462 223.906,352.041 196.866,379.124 	"/>
	<polygon style="fill:#353F49;" points="222.4,397.573 218.089,393.242 229.726,381.595 229.726,361.072 241.244,349.518 
		241.244,238.004 247.329,238.004 247.329,352.041 235.811,363.599 235.811,384.135 	"/>
	<polygon style="fill:#353F49;" points="161.088,424.108 156.778,419.797 176.957,399.604 176.957,366.929 194.401,349.511 
		194.401,238.004 200.486,238.004 200.486,352.041 183.038,369.462 183.038,402.141 	"/>
	<path style="fill:#353F49;" d="M141.527,393.573c-5.685,0-10.299-4.618-10.299-10.306c0-5.688,4.615-10.349,10.299-10.349
		c5.705,0,10.319,4.661,10.319,10.349C151.846,388.955,147.228,393.573,141.527,393.573z M141.527,379.006
		c-2.319,0-4.212,1.936-4.212,4.261c0,2.326,1.893,4.222,4.212,4.222c2.345,0,4.238-1.896,4.238-4.222
		C145.765,380.941,143.872,379.006,141.527,379.006z"/>
	<path style="fill:#353F49;" d="M153.792,437.393c-5.685,0-10.303-4.618-10.303-10.313c0-5.685,4.618-10.339,10.303-10.339
		c5.708,0,10.319,4.654,10.319,10.339C164.111,432.775,159.496,437.393,153.792,437.393z M153.792,422.866
		c-2.322,0-4.215,1.893-4.215,4.215c0,2.329,1.893,4.225,4.215,4.225c2.342,0,4.238-1.896,4.238-4.225
		C158.03,424.759,156.134,422.866,153.792,422.866z"/>
	<path style="fill:#353F49;" d="M193.8,474.013c-5.682,0-10.296-4.611-10.296-10.299c0-5.688,4.615-10.306,10.296-10.306
		c5.708,0,10.319,4.618,10.319,10.306C204.12,469.402,199.505,474.013,193.8,474.013z M193.8,459.489
		c-2.316,0-4.212,1.896-4.212,4.225c0,2.316,1.896,4.215,4.212,4.215c2.345,0,4.238-1.899,4.238-4.215
		C198.038,461.385,196.146,459.489,193.8,459.489z"/>
	<path style="fill:#353F49;" d="M174.011,241.04c-5.701,0-10.323-4.621-10.323-10.309s4.621-10.332,10.323-10.332
		c5.695,0,10.306,4.644,10.306,10.332S179.702,241.04,174.011,241.04z M174.011,226.502c-2.342,0-4.235,1.899-4.235,4.225
		c0,2.319,1.893,4.208,4.235,4.208c2.332,0,4.225-1.889,4.225-4.208C178.235,228.405,176.343,226.502,174.011,226.502z"/>
	<path style="fill:#353F49;" d="M197.444,241.04c-5.698,0-10.326-4.621-10.326-10.309s4.628-10.332,10.326-10.332
		c5.685,0,10.299,4.644,10.299,10.332S203.129,241.04,197.444,241.04z M197.444,226.502c-2.345,0-4.245,1.899-4.245,4.225
		c0,2.319,1.899,4.208,4.245,4.208c2.322,0,4.212-1.889,4.212-4.208C201.659,228.405,199.769,226.502,197.444,226.502z"/>
	<path style="fill:#353F49;" d="M244.29,241.04c-5.688,0-10.319-4.621-10.319-10.309s4.631-10.332,10.319-10.332
		c5.685,0,10.326,4.644,10.326,10.332S249.975,241.04,244.29,241.04z M244.29,226.502c-2.319,0-4.215,1.899-4.215,4.225
		c0,2.319,1.896,4.208,4.215,4.208c2.322,0,4.215-1.889,4.215-4.208C248.505,228.405,246.612,226.502,244.29,226.502z"/>
	<path style="fill:#353F49;" d="M220.864,210.501c-5.685,0-10.326-4.631-10.326-10.323c0-5.685,4.641-10.306,10.326-10.306
		c5.685,0,10.296,4.621,10.296,10.306C231.16,205.867,226.548,210.501,220.864,210.501z M220.864,195.964
		c-2.345,0-4.241,1.896-4.241,4.212c0,2.345,1.896,4.241,4.241,4.241c2.322,0,4.215-1.896,4.215-4.241
		C225.082,197.86,223.186,195.964,220.864,195.964z"/>
	<path style="fill:#353F49;" d="M267.726,241.04c-5.695,0-10.323-4.621-10.323-10.309s4.628-10.332,10.323-10.332
		c5.682,0,10.299,4.644,10.299,10.332S273.408,241.04,267.726,241.04z M267.726,226.502c-2.329,0-4.218,1.899-4.218,4.225
		c0,2.319,1.889,4.208,4.218,4.208c2.316,0,4.208-1.889,4.208-4.208C271.935,228.405,270.042,226.502,267.726,226.502z"/>
	<path style="fill:#353F49;" d="M291.14,210.501c-5.682,0-10.296-4.631-10.296-10.323c0-5.685,4.615-10.306,10.296-10.306
		c5.688,0,10.316,4.621,10.316,10.306C301.456,205.867,296.825,210.501,291.14,210.501z M291.14,195.964
		c-2.319,0-4.218,1.896-4.218,4.212c0,2.345,1.899,4.241,4.218,4.241c2.322,0,4.225-1.896,4.225-4.241
		C295.365,197.86,293.462,195.964,291.14,195.964z"/>
	<path style="fill:#353F49;" d="M314.566,241.04c-5.685,0-10.299-4.621-10.299-10.309s4.615-10.332,10.299-10.332
		c5.682,0,10.336,4.644,10.336,10.332S320.248,241.04,314.566,241.04z M314.566,226.502c-2.319,0-4.218,1.899-4.218,4.225
		c0,2.319,1.899,4.208,4.218,4.208c2.322,0,4.212-1.889,4.212-4.208C318.781,228.405,316.892,226.502,314.566,226.502z"/>
	<path style="fill:#353F49;" d="M337.993,241.04c-5.685,0-10.299-4.621-10.299-10.309s4.615-10.332,10.299-10.332
		c5.688,0,10.349,4.644,10.349,10.332S343.681,241.04,337.993,241.04z M337.993,226.502c-2.316,0-4.215,1.899-4.215,4.225
		c0,2.319,1.899,4.208,4.215,4.208c2.375,0,4.228-1.889,4.228-4.208C342.224,228.405,340.368,226.502,337.993,226.502z"/>
	<path style="fill:#353F49;" d="M215.099,410.859c-5.682,0-10.296-4.618-10.296-10.299c0-5.724,4.615-10.342,10.296-10.342
		c5.688,0,10.326,4.615,10.326,10.342C225.425,406.237,220.788,410.859,215.099,410.859z M215.099,396.298
		c-2.322,0-4.212,1.893-4.212,4.261c0,2.319,1.889,4.215,4.212,4.215c2.349,0,4.245-1.896,4.245-4.215
		C219.344,398.191,217.448,396.298,215.099,396.298z"/>
	<polygon style="fill:#353F49;" points="363.183,380.284 334.957,352.041 334.957,238.004 341.035,238.004 341.035,349.511 
		367.477,375.95 	"/>
	<polygon style="fill:#353F49;" points="321.252,456.443 315.171,456.443 315.171,379.124 288.094,352.041 288.094,207.462 
		294.185,207.462 294.185,349.511 321.252,376.588 	"/>
	<polygon style="fill:#353F49;" points="289.62,397.573 276.229,384.135 276.229,363.606 264.678,352.041 264.678,238.004 
		270.759,238.004 270.759,349.511 282.307,361.072 282.307,381.595 293.918,393.242 	"/>
	<polygon style="fill:#353F49;" points="350.945,424.108 328.945,402.141 328.945,369.462 311.527,352.041 311.527,238.004 
		317.608,238.004 317.608,349.511 335.066,366.929 335.066,399.604 355.236,419.797 	"/>
	<path style="fill:#353F49;" d="M370.45,393.566c-5.682,0-10.299-4.618-10.299-10.306c0-5.685,4.618-10.342,10.299-10.342
		c5.688,0,10.349,4.658,10.349,10.342C380.799,388.948,376.138,393.566,370.45,393.566z M370.45,379.006
		c-2.325,0-4.218,1.929-4.218,4.255s1.893,4.222,4.218,4.222c2.362,0,4.231-1.896,4.231-4.222S372.812,379.006,370.45,379.006z"/>
	<path style="fill:#353F49;" d="M358.215,437.387c-5.685,0-10.309-4.618-10.309-10.309c0-5.688,4.625-10.336,10.309-10.336
		c5.691,0,10.303,4.648,10.303,10.336C368.518,432.769,363.906,437.387,358.215,437.387z M358.215,422.866
		c-2.319,0-4.218,1.886-4.218,4.212s1.899,4.222,4.218,4.222c2.329,0,4.215-1.896,4.215-4.222S360.544,422.866,358.215,422.866z"/>
	<path style="fill:#353F49;" d="M318.206,474.013c-5.685,0-10.299-4.618-10.299-10.299c0-5.688,4.615-10.306,10.299-10.306
		c5.688,0,10.296,4.618,10.296,10.306C328.503,469.395,323.895,474.013,318.206,474.013z M318.206,459.489
		c-2.316,0-4.208,1.903-4.208,4.225c0,2.316,1.893,4.215,4.208,4.215c2.329,0,4.215-1.899,4.215-4.215
		C322.421,461.391,320.535,459.489,318.206,459.489z"/>
	<path style="fill:#353F49;" d="M296.877,410.845c-5.682,0-10.293-4.634-10.293-10.346c0-5.675,4.611-10.29,10.293-10.29
		c5.695,0,10.349,4.615,10.349,10.29C307.226,406.211,302.572,410.845,296.877,410.845z M296.877,396.291
		c-2.316,0-4.215,1.896-4.215,4.208c0,2.365,1.899,4.264,4.215,4.264c2.372,0,4.268-1.899,4.268-4.264
		C301.145,398.187,299.249,396.291,296.877,396.291z"/>
</g>
<g>
</g>
<g>
</g>
<g>
</g>
<g>
</g>
<g>
</g>
<g>
</g>
<g>
</g>
<g>
</g>
<g>
</g>
<g>
</g>
<g>
</g>
<g>
</g>
<g>
</g>
<g>
</g>
<g>
</g>
</svg>
