<?xml version="1.0" encoding="iso-8859-1"?>
<!-- Generator: Adobe Illustrator 19.0.0, SVG Export Plug-In . SVG Version: 6.00 Build 0)  -->
<svg version="1.1" id="Layer_1" xmlns="http://www.w3.org/2000/svg" xmlns:xlink="http://www.w3.org/1999/xlink" x="0px" y="0px"
	 viewBox="0 0 512 512" style="enable-background:new 0 0 512 512;" xml:space="preserve">
<path style="fill:#F2F2F2;" d="M95.264,129.226c0.033,0,0.061,0,0.074,0c-0.013-1.196-0.074-2.365-0.074-3.612
	C95.264,56.243,151.507,0,220.873,0c56.719,0,104.668,37.594,120.256,89.239c9.48-4.434,20.029-6.945,31.163-6.945
	c40.479,0,73.277,32.773,73.277,73.224c0,9.326-1.779,18.207-4.938,26.414c0.817-0.051,1.613-0.141,2.396-0.141
	c25.938,0,46.958,21.023,46.958,46.953c0,25.94-21.02,46.966-46.958,46.966H95.264c-40.448,0-73.249-32.804-73.249-73.224
	C22.015,162.025,54.816,129.226,95.264,129.226z"/>
<g>
	<polygon style="fill:#353F49;" points="126.222,398.5 121.002,393.249 153.012,361.234 153.012,226.207 160.408,226.207 
		160.408,364.301 	"/>
	<polygon style="fill:#353F49;" points="184.388,490.721 177,490.721 177,394.022 209.773,361.234 209.773,189.222 217.135,189.222 
		217.135,364.301 184.388,397.097 	"/>
	<polygon style="fill:#353F49;" points="215.31,419.438 210.093,414.193 224.183,400.09 224.183,375.235 238.132,361.242 
		238.132,226.207 245.498,226.207 245.498,364.301 231.551,378.296 231.551,403.164 	"/>
	<polygon style="fill:#353F49;" points="141.065,451.569 135.845,446.346 160.283,421.896 160.283,382.328 181.405,361.234 
		181.405,226.207 188.776,226.207 188.776,364.301 167.648,385.395 167.648,424.97 	"/>
	<path style="fill:#353F49;" d="M117.377,414.595c-6.881,0-12.472-5.596-12.472-12.483c0-6.884,5.591-12.531,12.472-12.531
		c6.907,0,12.495,5.645,12.495,12.531C129.873,409.001,124.284,414.595,117.377,414.595z M117.377,396.954
		c-2.808,0-5.102,2.345-5.102,5.161c0,2.819,2.294,5.115,5.102,5.115c2.839,0,5.133-2.296,5.133-5.115
		C122.51,399.299,120.216,396.954,117.377,396.954z"/>
	<path style="fill:#353F49;" d="M132.228,467.656c-6.881,0-12.477-5.594-12.477-12.488c0-6.881,5.594-12.521,12.477-12.521
		c6.909,0,12.495,5.637,12.495,12.521C144.726,462.062,139.14,467.656,132.228,467.656z M132.228,450.063
		c-2.813,0-5.105,2.294-5.105,5.105c0,2.821,2.294,5.117,5.105,5.117c2.836,0,5.133-2.296,5.133-5.117
		C137.363,452.355,135.064,450.063,132.228,450.063z"/>
	<path style="fill:#353F49;" d="M180.678,512c-6.879,0-12.47-5.586-12.47-12.472c0-6.886,5.591-12.48,12.47-12.48
		c6.909,0,12.495,5.594,12.495,12.48S187.588,512,180.678,512z M180.678,494.41c-2.806,0-5.102,2.296-5.102,5.117
		c0,2.806,2.296,5.105,5.102,5.105c2.839,0,5.133-2.299,5.133-5.105C185.811,496.707,183.52,494.41,180.678,494.41z"/>
	<path style="fill:#353F49;" d="M156.714,229.883c-6.902,0-12.5-5.599-12.5-12.483c0-6.886,5.599-12.513,12.5-12.513
		c6.894,0,12.48,5.624,12.48,12.513C169.194,224.284,163.608,229.883,156.714,229.883z M156.714,212.28
		c-2.836,0-5.128,2.301-5.128,5.117c0,2.808,2.294,5.097,5.128,5.097c2.824,0,5.117-2.289,5.117-5.097
		C161.832,214.582,159.538,212.28,156.714,212.28z"/>
	<path style="fill:#353F49;" d="M185.092,229.883c-6.899,0-12.503-5.599-12.503-12.483c0-6.886,5.604-12.513,12.503-12.513
		c6.881,0,12.472,5.624,12.472,12.513C197.564,224.284,191.976,229.883,185.092,229.883z M185.092,212.28
		c-2.839,0-5.14,2.301-5.14,5.117c0,2.808,2.301,5.097,5.14,5.097c2.813,0,5.102-2.289,5.102-5.097
		C190.194,214.582,187.905,212.28,185.092,212.28z"/>
	<path style="fill:#353F49;" d="M241.819,229.883c-6.886,0-12.495-5.599-12.495-12.483c0-6.886,5.609-12.513,12.495-12.513
		c6.881,0,12.503,5.624,12.503,12.513C254.322,224.284,248.7,229.883,241.819,229.883z M241.819,212.28
		c-2.808,0-5.105,2.301-5.105,5.117c0,2.808,2.296,5.097,5.105,5.097c2.813,0,5.107-2.289,5.107-5.097
		C246.926,214.582,244.632,212.28,241.819,212.28z"/>
	<path style="fill:#353F49;" d="M213.452,192.904c-6.881,0-12.503-5.609-12.503-12.5c0-6.881,5.622-12.48,12.503-12.48
		c6.884,0,12.47,5.599,12.47,12.48C225.921,187.292,220.335,192.904,213.452,192.904z M213.452,175.301
		c-2.839,0-5.135,2.296-5.135,5.102c0,2.839,2.296,5.135,5.135,5.135c2.813,0,5.107-2.296,5.107-5.135
		C218.559,177.597,216.265,175.301,213.452,175.301z"/>
	<path style="fill:#353F49;" d="M270.199,229.883c-6.894,0-12.5-5.599-12.5-12.483c0-6.886,5.606-12.513,12.5-12.513
		c6.879,0,12.472,5.624,12.472,12.513C282.671,224.284,277.075,229.883,270.199,229.883z M270.199,212.28
		c-2.821,0-5.11,2.301-5.11,5.117c0,2.808,2.291,5.097,5.11,5.097c2.806,0,5.097-2.289,5.097-5.097
		C275.296,214.582,273.005,212.28,270.199,212.28z"/>
	<path style="fill:#353F49;" d="M298.548,192.904c-6.879,0-12.467-5.609-12.467-12.5c0-6.881,5.591-12.48,12.467-12.48
		c6.886,0,12.493,5.599,12.493,12.48C311.041,187.292,305.437,192.904,298.548,192.904z M298.548,175.301
		c-2.808,0-5.107,2.296-5.107,5.102c0,2.839,2.299,5.135,5.107,5.135c2.813,0,5.117-2.296,5.117-5.135
		C303.666,177.597,301.362,175.301,298.548,175.301z"/>
	<path style="fill:#353F49;" d="M326.921,229.883c-6.881,0-12.472-5.599-12.472-12.483c0-6.886,5.591-12.513,12.472-12.513
		c6.879,0,12.516,5.624,12.516,12.513C339.437,224.284,333.8,229.883,326.921,229.883z M326.921,212.28
		c-2.811,0-5.11,2.301-5.11,5.117c0,2.808,2.299,5.097,5.11,5.097c2.813,0,5.1-2.289,5.1-5.097
		C332.02,214.582,329.734,212.28,326.921,212.28z"/>
	<path style="fill:#353F49;" d="M355.288,229.883c-6.884,0-12.472-5.599-12.472-12.483c0-6.886,5.588-12.513,12.472-12.513
		c6.884,0,12.531,5.624,12.531,12.513C367.819,224.284,362.175,229.883,355.288,229.883z M355.288,212.28
		c-2.806,0-5.107,2.301-5.107,5.117c0,2.808,2.301,5.097,5.107,5.097c2.875,0,5.12-2.289,5.12-5.097
		C360.408,214.582,358.163,212.28,355.288,212.28z"/>
	<path style="fill:#353F49;" d="M206.47,435.523c-6.879,0-12.47-5.594-12.47-12.472c0-6.932,5.591-12.524,12.47-12.524
		c6.886,0,12.503,5.591,12.503,12.524C218.976,429.929,213.359,435.523,206.47,435.523z M206.47,417.889
		c-2.813,0-5.102,2.294-5.102,5.161c0,2.811,2.289,5.105,5.102,5.105c2.844,0,5.14-2.294,5.14-5.105
		C211.613,420.183,209.315,417.889,206.47,417.889z"/>
	<polygon style="fill:#353F49;" points="385.791,398.5 351.612,364.301 351.612,226.207 358.972,226.207 358.972,361.234 
		390.99,393.249 	"/>
	<polygon style="fill:#353F49;" points="335.013,490.721 327.651,490.721 327.651,397.097 294.862,364.301 294.862,189.222 
		302.237,189.222 302.237,361.234 335.013,394.022 	"/>
	<polygon style="fill:#353F49;" points="296.708,419.438 280.493,403.164 280.493,378.304 266.505,364.301 266.505,226.207 
		273.868,226.207 273.868,361.234 287.853,375.235 287.853,400.09 301.915,414.193 	"/>
	<polygon style="fill:#353F49;" points="370.971,451.569 344.332,424.97 344.332,385.395 323.237,364.301 323.237,226.207 
		330.605,226.207 330.605,361.234 351.74,382.328 351.74,421.896 376.165,446.346 	"/>
	<path style="fill:#353F49;" d="M394.595,414.584c-6.881,0-12.475-5.594-12.475-12.48c0-6.881,5.596-12.524,12.475-12.524
		c6.884,0,12.531,5.64,12.531,12.524C407.123,408.993,401.478,414.584,394.595,414.584z M394.595,396.954
		c-2.819,0-5.11,2.337-5.11,5.153c0,2.819,2.294,5.115,5.11,5.115c2.857,0,5.125-2.296,5.125-5.115
		C399.72,399.291,397.452,396.954,394.595,396.954z"/>
	<path style="fill:#353F49;" d="M379.777,467.648c-6.881,0-12.485-5.594-12.485-12.483c0-6.886,5.601-12.518,12.485-12.518
		c6.889,0,12.477,5.629,12.477,12.518C392.255,462.054,386.666,467.648,379.777,467.648z M379.777,450.063
		c-2.808,0-5.11,2.286-5.11,5.102c0,2.816,2.301,5.112,5.11,5.112c2.821,0,5.105-2.296,5.105-5.112
		C384.882,452.347,382.596,450.063,379.777,450.063z"/>
	<path style="fill:#353F49;" d="M331.327,512c-6.881,0-12.472-5.596-12.472-12.472c0-6.886,5.591-12.48,12.472-12.48
		c6.886,0,12.47,5.594,12.47,12.48C343.796,506.404,338.213,512,331.327,512z M331.327,494.41c-2.806,0-5.097,2.304-5.097,5.117
		c0,2.806,2.294,5.105,5.097,5.105c2.821,0,5.105-2.299,5.105-5.105C336.431,496.714,334.145,494.41,331.327,494.41z"/>
	<path style="fill:#353F49;" d="M305.499,435.507c-6.881,0-12.465-5.612-12.465-12.529c0-6.871,5.586-12.46,12.465-12.46
		c6.894,0,12.531,5.591,12.531,12.46C318.028,429.896,312.393,435.507,305.499,435.507z M305.499,417.882
		c-2.806,0-5.105,2.296-5.105,5.097c0,2.865,2.299,5.166,5.105,5.166c2.87,0,5.169-2.299,5.169-5.166
		C310.665,420.18,308.369,417.882,305.499,417.882z"/>
</g>
<g>
</g>
<g>
</g>
<g>
</g>
<g>
</g>
<g>
</g>
<g>
</g>
<g>
</g>
<g>
</g>
<g>
</g>
<g>
</g>
<g>
</g>
<g>
</g>
<g>
</g>
<g>
</g>
<g>
</g>
</svg>
