<?xml version="1.0" encoding="iso-8859-1"?>
<!-- Generator: Adobe Illustrator 19.0.0, SVG Export Plug-In . SVG Version: 6.00 Build 0)  -->
<svg version="1.1" id="Layer_1" xmlns="http://www.w3.org/2000/svg" xmlns:xlink="http://www.w3.org/1999/xlink" x="0px" y="0px"
	 viewBox="0 0 512 512" style="enable-background:new 0 0 512 512;" xml:space="preserve">
<path style="fill:#E6E5E5;" d="M407.811,171.003c-0.054,0-0.074,0-0.074,0c0-1.139,0.074-2.258,0.074-3.384
	c0-65.516-53.14-118.666-118.653-118.666c-53.542,0-98.836,35.558-113.531,84.303c-8.957-4.221-18.936-6.615-29.455-6.615
	c-38.205,0-69.156,30.986-69.156,69.192c0,8.796,1.641,17.185,4.634,24.934c-0.776-0.079-1.5-0.131-2.276-0.131
	c-24.499,0-44.321,19.855-44.321,44.324c0,24.492,19.822,44.347,44.321,44.347h328.435c38.208,0,69.14-30.979,69.14-69.174
	C476.951,201.933,446.019,171.003,407.811,171.003z"/>
<g>
	<polygon style="fill:#474F59;" points="448.85,386.209 440.64,386.209 440.64,351.826 286.95,351.826 286.95,309.307 
		295.137,309.307 295.137,343.652 448.85,343.652 	"/>
	<polygon style="fill:#474F59;" points="71.357,386.209 63.153,386.209 63.153,343.652 216.863,343.652 216.863,309.307 
		225.05,309.307 225.05,351.826 71.357,351.826 	"/>
	<rect x="251.904" y="309.32" style="fill:#474F59;" width="8.202" height="76.902"/>
</g>
<g>
	<path style="fill:#353F49;" d="M77.494,347.73c0,5.66-4.59,10.248-10.237,10.248c-5.65,0-10.24-4.588-10.24-10.248
		c0-5.642,4.59-10.232,10.24-10.232S77.494,342.088,77.494,347.73z"/>
	<path style="fill:#353F49;" d="M231.188,347.73c0,5.66-4.572,10.248-10.237,10.248c-5.652,0-10.24-4.588-10.24-10.248
		c0-5.642,4.59-10.232,10.24-10.232C226.614,337.498,231.188,342.088,231.188,347.73z"/>
	<path style="fill:#353F49;" d="M301.292,347.73c0,5.66-4.59,10.248-10.243,10.248c-5.665,0-10.237-4.588-10.237-10.248
		c0-5.642,4.572-10.232,10.237-10.232C296.701,337.498,301.292,342.088,301.292,347.73z"/>
	<path style="fill:#353F49;" d="M454.986,347.73c0,5.66-4.593,10.248-10.245,10.248c-5.647,0-10.237-4.588-10.237-10.248
		c0-5.642,4.59-10.232,10.237-10.232C450.394,337.498,454.986,342.088,454.986,347.73z"/>
</g>
<g>
	<rect y="386.222" style="fill:#D9D8D7;" width="134.502" height="76.826"/>
	<rect x="188.749" y="386.222" style="fill:#D9D8D7;" width="134.528" height="76.826"/>
	<rect x="377.498" y="386.222" style="fill:#D9D8D7;" width="134.502" height="76.826"/>
</g>
<g>
	<polygon style="fill:#353F49;" points="40.346,411.182 67.256,438.062 94.149,411.182 	"/>
	<polygon style="fill:#353F49;" points="418.683,411.182 445.588,438.062 472.471,411.182 	"/>
	<polygon style="fill:#353F49;" points="282.885,284.332 256,257.449 229.115,284.332 	"/>
</g>
<g>
</g>
<g>
</g>
<g>
</g>
<g>
</g>
<g>
</g>
<g>
</g>
<g>
</g>
<g>
</g>
<g>
</g>
<g>
</g>
<g>
</g>
<g>
</g>
<g>
</g>
<g>
</g>
<g>
</g>
</svg>
