<?xml version="1.0" encoding="iso-8859-1"?>
<!-- Generator: Adobe Illustrator 19.0.0, SVG Export Plug-In . SVG Version: 6.00 Build 0)  -->
<svg version="1.1" id="Layer_1" xmlns="http://www.w3.org/2000/svg" xmlns:xlink="http://www.w3.org/1999/xlink" x="0px" y="0px"
	 viewBox="0 0 512 512" style="enable-background:new 0 0 512 512;" xml:space="preserve">
<g>
	<polygon style="fill:#474F59;" points="450.172,0 440.047,0 437.083,14.761 453.142,14.761 	"/>
	<polygon style="fill:#474F59;" points="416.078,6.418 407.282,11.482 412.102,25.772 426.008,17.72 	"/>
	<polygon style="fill:#474F59;" points="389.728,29.051 384.667,37.824 395.962,47.782 404.003,33.871 	"/>
	<polygon style="fill:#474F59;" points="378.231,61.824 378.244,71.951 393.012,74.916 393.012,58.86 	"/>
	<polygon style="fill:#474F59;" points="384.667,95.939 389.728,104.719 404.003,99.904 395.962,85.993 	"/>
	<polygon style="fill:#474F59;" points="407.282,122.278 416.078,127.337 426.008,116.042 412.102,108.001 	"/>
	<polygon style="fill:#474F59;" points="440.047,133.775 450.172,133.775 453.142,118.994 437.083,118.994 	"/>
	<polygon style="fill:#474F59;" points="474.175,127.337 482.953,122.278 478.13,108.001 464.219,116.042 	"/>
	<polygon style="fill:#474F59;" points="500.507,104.719 505.563,95.939 494.263,85.993 486.23,99.904 	"/>
	<polygon style="fill:#474F59;" points="511.996,71.951 511.996,61.824 497.24,58.86 497.24,74.916 	"/>
	<polygon style="fill:#474F59;" points="505.563,37.824 500.507,29.059 486.23,33.871 494.263,47.782 	"/>
	<polygon style="fill:#474F59;" points="482.953,11.482 474.147,6.438 464.219,17.72 478.13,25.772 	"/>
</g>
<path style="fill:#353F49;" d="M445.106,14.157c-29.102,0-52.726,23.598-52.726,52.726c0,29.13,23.624,52.726,52.726,52.726
	c29.138,0,52.746-23.596,52.746-52.726C497.855,37.755,474.244,14.157,445.106,14.157z M445.106,81.485
	c-8.038,0-14.587-6.546-14.587-14.602c0-8.041,6.551-14.595,14.587-14.595c8.072,0,14.605,6.554,14.605,14.595
	C459.711,74.939,453.178,81.485,445.106,81.485z"/>
<path style="fill:#F77B55;" d="M445.106,41.577c-13.967,0-25.303,11.328-25.303,25.306c0,13.993,11.336,25.316,25.303,25.316
	c14.001,0,25.321-11.323,25.321-25.316C470.427,52.908,459.107,41.577,445.106,41.577z M445.106,79.532
	c-6.984,0-12.631-5.658-12.631-12.649c0-6.976,5.647-12.644,12.631-12.644c6.991,0,12.654,5.668,12.654,12.644
	C457.763,73.874,452.1,79.532,445.106,79.532z"/>
<g>
	<polygon style="fill:#474F59;" points="228.241,87.629 196.095,87.629 186.702,134.454 237.656,134.454 	"/>
	<polygon style="fill:#474F59;" points="120.045,107.978 92.172,124.052 107.452,169.395 151.581,143.823 	"/>
	<polygon style="fill:#474F59;" points="36.481,179.791 20.41,207.621 56.255,239.188 81.768,195.062 	"/>
	<polygon style="fill:#474F59;" points="0.004,283.73 0.027,315.901 46.87,325.289 46.87,274.353 	"/>
	<polygon style="fill:#474F59;" points="20.41,391.99 36.481,419.809 81.768,404.554 56.255,360.453 	"/>
	<polygon style="fill:#474F59;" points="92.172,475.543 120.045,491.584 151.581,455.77 107.452,430.216 	"/>
	<polygon style="fill:#474F59;" points="196.095,512 228.241,512 237.656,465.144 186.715,465.144 	"/>
	<polygon style="fill:#474F59;" points="304.367,491.584 332.21,475.543 316.922,430.216 272.803,455.77 	"/>
	<polygon style="fill:#474F59;" points="387.903,419.809 403.977,391.99 368.116,360.453 342.642,404.554 	"/>
	<polygon style="fill:#474F59;" points="424.357,315.901 424.357,283.73 377.542,274.353 377.542,325.289 	"/>
	<polygon style="fill:#474F59;" points="403.977,207.621 387.903,179.822 342.642,195.062 368.116,239.188 	"/>
	<polygon style="fill:#474F59;" points="332.21,124.052 304.308,108.029 272.803,143.823 316.922,169.395 	"/>
</g>
<path style="fill:#76D0DE;" d="M316.837,299.802c0,57.769-46.838,104.648-104.655,104.648c-57.787,0-104.63-46.879-104.63-104.648
	c0-57.797,46.843-104.645,104.63-104.645C269.999,195.156,316.837,242.007,316.837,299.802z"/>
<path style="fill:#FFFFFF;" d="M187.703,387.267c0.412,0.097,1.546-0.287,1.874-0.392c-0.778-0.614-2.465-0.676-3.441-1.293
	c0.082,0.038-3.162-1.917-2.463-0.302c0.166,0.381,0.778,0.023,1.047,0.236c-0.381,0.576-0.54,0.399-0.113,0.666
	c0-0.013-3.592-1.961,0.01-2.079c-2.491-2.245,0.161-1.544-0.635-2.962c-0.525-0.955,2.109-1.889,0.681-2.724
	c-0.676-0.384-1.421-0.32-2.12-0.801c-0.978-0.712-0.056-1.969,0.873-1.856c0.09,0,0.566-2.253,0.748-2.616
	c-0.279-0.09-2.112-2.378-1.677-2.867c0.548-0.589,2.959,1.492,3.543-0.036c0.236-0.563-0.835-2.04-0.755-2.639
	c1.091-0.125,8.238,0.164,7.02-3.128c-0.42-1.134-3.438-2.824-3.1-3.779c1.039,0.172,2.765,1.687,3.873,1.073
	c0.937-0.466,1.667,0.543,2.624-0.525c0.159-0.207,1.754-1.889,1.303-2.225c-0.492-0.013-0.768,0.276-0.791,0.829
	c-0.571-0.768,0.41-1.288,0.906-1.866c0.128,0.187,0.248,0.348,0.366,0.504c0.591-0.914,3.901-5.204,4.012-5.297
	c1.682-1.971,0.294-4.613,1.974-6.188c1.516-1.413,3.185-2.365,5.1-3.128c0.576-0.22,2.675-1.334,3.103-1.219
	c3.52,1.08,3.098-3.1,5.315-4.989c2.268-1.9,0.594-11.602,2.445-12.321c0.998-0.392,3.978-4.05,5.519-5.737
	c1.508-1.603,1.69-3.691,1.116-5.732c-0.891-3.136-1.777-1.336-4.04-2.706c-1.812-1.093-3.208-3.261-5.458-3.548
	c-1.316-0.2-2.691,0.2-4.001-0.184c-0.563-0.159-2.063-1.096-2.637-0.317c0.108-0.12-1.19,0.502-1.116,0.538
	c-0.136-0.108-0.018-1.731-0.443-2.132c-0.689-0.655-3.031-1.298-3.876-1.518c-1.953-0.489-2.429,1.805-2.924-0.945
	c-1.6-0.453-3.215-2.319-2.924-2.788c0.133-0.182-2.506-5.78-2.88-5.268c-0.026-1.884-5.837-4.209-7.329-3.3
	c-1.326,0.95-3.773-0.886-4.593-1.748c-0.904-1.014-0.888-2.063-2.44-2.706c-0.658-0.284-1.795-0.131-1.539-1.259
	c0.264-1.221-2.865-1.444-3.151-2.621c0.43,0.082,0.817-0.143,1.239-0.251c-1.231,0.415-2.714-0.461-3.914,0.507
	c-1.746,1.457-2.783-0.663-4.7-0.287c-2.437,0.453-0.794-0.43-2.319-1.367c0.622,0.384-2.836-1.58-2.025-1.521
	c-0.735-0.069,0.105,1.203-0.691,1.482c-1.267,0.461-2.368,0.763-1.541,2.278c1.393,2.77-2.913,1.464-0.893-0.42
	c0.371-0.325,0.461-3.955,0.86-3.804c-0.489-0.192-4.421,2.363-4.869,2.895c-1.262-2.012-3.397,5.012-4.104,5.066
	c-0.364-1.733-1.994-2.442-3.433-2.944c-1.208-0.466-2.44,2.429-4.017,0.835c-2.836-2.847-1.597-7.465-0.161-10.739
	c0.612-1.503-5.225-1.969-5.926-1.364c-1.441,1.157,0.215-2.396,0.207-2.294c0.161-1.416,0.476-2.386,1.116-2.358
	c0.384-0.855,2.542-4.723,2.332-5.222c-0.888-2.025-4.559,1.608-4.908,2.504c-0.366,0.883-1.085,1.39-1.413,2.186
	c-0.348,0.804-1.032-0.189-1.615,0.133c-1.574,0.891-3.858,0.43-3.51-1.866c0.371-2.772-0.691-8.264,2.414-10.171
	c0.952-0.568,1.103-3.325,2.202-4.316c0.151-0.113,3.284-1.94,2.985-2.307c0.461,0.481,2.931-0.494,3.246,0.131
	c0.246,0.54,1.692,1.088,2.207,0.791c-0.023,0.049,0.253-1.221,0.253-1.234c-0.033-0.008-1.009-0.128-0.957-0.445
	c0.092-0.422,3.059-0.156,3.151-0.141c1.408,0.11,2.432,1.267,3.482,0.563c1.618-1.101,0.62,6.098,1.26,6.756
	c0.358,0.392,0.102,1.247,0.783,1.19c0.914-0.092,1.216-9.352,3.584-11.261c1.733-1.382,3.612-2.668,5.573-3.699
	c0.591-0.3,2.181-1.068,2.519-1.684c-0.069-0.307-0.369-0.66-0.699-0.335c-0.095-0.558,0.863-0.205,1.052-0.817
	c0.166-0.596-0.502-0.786-0.42-1.006c-0.031,0.077,0.586-1.201,0.389-1.024c0.031,0.044,0.031,0.1,0.044,0.128
	c0.94,0.141-0.22-0.888-0.276-1.062c1.26,0.658,0.732-1.364,1.976-1.482c-0.881,0.371-0.717,1.352-0.609,1.951
	c0.253,1.324,1.421-1.812,1.28-1.692c1.175-0.474,3.016-1.467,4.268-2.35c-0.31-0.136-0.609,0.105-0.968-0.156
	c1.295-0.461,2.732-0.299,3.96-0.942c-0.051-1.313,0.737-2.66,2.184-2.916c2.248-0.358,4.856-1.71,7.107-2.476
	c-0.34,0.776,0.182,0.169,0.781,0.461c-0.73-1.889-4.692,3.494-2.806,2.399c1.59-0.906,6.963-1.738,7.677-3.295
	c-0.015-0.108-0.343-1.103-0.333-1.103c-1.331,0-1.428,1.626-3.057,1.618c-2.962-0.033-1.19-1.859-1.795-2.675
	c-0.535,0.113-0.978-0.018-1.334-0.422c0.289-0.061,3.948-0.922,2.02-1.359c-3.136-0.666-5.217,2.839-7.79,2.726
	c1.917-1.165,4.541-3.658,6.874-3.976c2.476-0.348,5.939,0.86,8.138-0.673c1.943-1.336,3.279-0.356,4.375-2.56
	c0.335-0.581-1.423-1.341-1.869-1.431c0.189-0.236,0.581,0,0.724-0.369c-2.934-1.329-3.54-2.621-3.907-6.006
	c-1.495,1.088-6.49,3.415-3.807-0.371c-0.97-0.417-4.017-2.962-5.184-1.198c-0.54,0.781-1.382,2.097-2.273,2.496
	c-1.999,0.919-0.223,0.735-0.886,2.079c-1.139,2.191-3.845,1.897-5.141,3.807c-0.804,1.208-1.039,2.056-2.319,2.629
	c-1.106,0.476-1.526-0.842-0.978-1.851c0.379,0.43,0.745,0.499,1.068,0.166c0.079-0.466-0.589-0.228-0.801-0.428
	c0.384-0.684,0.868-1.288,1.423-1.876c-0.192-0.09-2.998-0.535-2.906-1.277c0.189-1.526-1.746-0.696-2.084-1.149
	c1.5-1.9,1.5-2.785,4.447-4.255c1.014-0.515,6.666-3.384,7.711-2.668c-0.125,0.627-0.824,0.515-1.198,0.842
	c0.806,0.192,3.172,0.458,3.971-0.095c-0.177-0.159-1.114-1.731-0.627-2.092c-0.074,0.059,1.618,0.031,1.743-0.015
	c0.909-0.236,1.915-0.333,2.429-1.239c0.43-0.837,3.425-1.876,4.137-1.472c3.907,2.207-5.294,4.557-5.384,4.291
	c0.184,0.65,2.652-0.43,3.29,1.252c0.151,0.433,2.975,1.339,3.264,0.947c0.146-0.212-0.817-1.224-0.855-1.482
	c2.97,1.441,2.793,0.691,2.294-1.283c-0.453-1.892,1.738,0.125,1.874,0.166c0.507,0.266,2.486-0.873,2.785-1.285
	c-0.712-0.573-1.969-0.566-2.596-1.247c-0.589-0.568,1.541-0.724,0.791-1.331c-0.888-0.732-2.312-0.573-1.8-1.987
	c-0.532-0.159-1.027-0.105-1.477,0.174c0.143,0.279,0.422,0.069,0.54,0.223c-0.494,0.282-1.047,0.351-1.603,0.335
	c0.156-0.253,0.689-0.253,0.694-0.737c-1.539-0.2-2.348,0.737-3.676,1.137c0.374-0.558,1.024-0.717,1.464-1.126
	c-1.436,0.169-2.857,0.735-3.986,1.669c0.161,0.159,0.325,0.335,0.448,0.556c-1.121,0.97-2.616,1.28-3.932,1.869
	c0.236-0.868,1.19-0.648,1.492-1.313c-0.484,0.008-0.952,0.102-1.372,0.325c0.558-0.072,2.194-1.731,2.575-2.145
	c-2.376-0.271-3.389,2.819-5.624,2.365c0.461-0.535,1.416-0.251,1.725-1.101c-0.832,0.087-3.973,2.217-4.495,1.101
	c-0.026-0.067,5.765-2.365,6.39-3.2c-0.392-0.038-0.84,0.358-1.193-0.095c0.284-0.32,0.742-0.343,1.078-0.694
	c-1.894-0.023-7.557,2.276-7.122,3.594c-0.724,0.604-1.518,0.75-2.409,0.381c0.348-0.535,1.574-0.55,0.589-1.336
	c-1.841,0.681-3.604,1.421-5.361,2.199c-4.099,1.782-8.1,3.922-11.881,6.272c-6.264,3.86-11.428,8.435-16.596,13.627
	c-2.742,2.783-13.207,15.002-13.166,17.541c0.031,1.876-1.078,3.558-1.779,5.235c-0.563,1.395-0.632,3.325-1.326,4.593
	c-1.526,2.706-0.817,5.857-1.516,8.965c0.868-0.66,2.652-14.889,4.178-14.367c0.302,0.1-0.95,5.932-1.272,6.628
	c-1.303,2.99,0.399,6.659-0.443,9.769c-0.092,0.31-0.515,1.892-0.522,2.204c-1.441,1.114,0.371,2.749,0.358,3.96
	c0,0.724,3.668,3.953,4.378,4.367c1.541,0.922,1.856-0.709,3.254-0.415c1.267,0.276,1.633,2.568,2.304,3.528
	c0.899,1.359,4.332,1.203,4.931,1.841c0.381,0.474,0.059,3.105,1.623,3.471c-0.008-0.166-0.046-1.108,0.177-1.231
	c0.461-0.297,1.482,1.457,1.149,1.779c-0.502,0.11-0.947-0.082-1.313-0.548c0,0.251-0.266,3.674,0.74,3
	c0.018-0.207,0.072-0.433,0.09-0.643c1.324,0.581,1.221,2.501,2.153,2.78c1.27,0.317,2.222,1.958,3.192,2.396
	c0.86,0.438,0.627-3.011,2.258-3.156c1.318-0.154,2.068,3.292,2.516,4.147c0.694,1.206-0.914,4.101-0.023,5.051
	c0.904,0.95-2.258,3.249-2.424,4.227c-0.108,0.75-1.718,1.444-1.667,1.736c0.128,0.799-0.358,1.884-0.632,2.662
	c-0.812,2.132-0.407,2.335,0.978,3.31c0.033,0.031-2.58,5.245-1.08,6.592c2.383,1.953,5.522,6.761,6.287,9.8
	c1.556,4.191,3.937,6.738,7.918,8.814c3.233,1.692,5.512,4.593,5.512,8.484c0.125,2.284-0.225,5.161,0.755,7.299
	c0.676,1.505-0.609,3.968,0.366,5.32c0.612,0.863-0.205,1.324,0.166,2.12c0.381,0.842,1.247,2.253,1.242,3.215
	c-0.026,1.654-0.008,3.599,0.11,5.225c0.023,0.563-0.502,1.492-0.197,1.848c0.371,0.445,2.565,5.893,2.565,7.48
	c-0.01,0.376,1.69-0.128,0.151-1.669c1.841-1.006,1.469,3.279,1.597,3.318c-1.651-0.548-0.573-0.105-0.461,1.994
	c0.092,1.26-0.32,0.643,0.704,0.899c1.608,0.363,0,1.423,0.607,2.309c1.213,1.741,3.075,3.372,4.36,4.718
	C181.661,387.11,185.222,386.755,187.703,387.267C188.049,387.359,187.235,387.177,187.703,387.267z M194.523,216.709
	c-0.581,0.509-1.198,0.622-1.859,0.801C193.128,216.814,193.816,216.945,194.523,216.709z M189.078,216.253
	c0.42-0.056,0.753,0.049,0.97,0.351c0.003,0.159-2.214,0.279-2.555,0.842C187.777,216.461,188.599,216.635,189.078,216.253
	C189.29,216.543,188.599,216.635,189.078,216.253z M183.589,220.124C184.073,220.229,182.918,220.019,183.589,220.124
	C183.61,220.132,183.466,220.104,183.589,220.124z M180.579,214.387c0.2-0.238,0.364-0.205,0.481,0.108
	C180.847,214.738,180.678,214.705,180.579,214.387C180.604,214.269,180.561,214.523,180.579,214.387z M177.599,223.314
	C176.741,223.26,178.469,223.373,177.599,223.314C177.473,223.314,177.709,223.34,177.599,223.314z M178.469,219.848
	c-2.908,2.749-0.635,0.033-1.495,0.904c0.026,0.031,0,0.074-0.036,0.079C176.713,220.559,178.418,219.876,178.469,219.848
	C178.103,220.214,177.983,219.958,178.469,219.848z M177.417,216.64c-0.535,0.596-0.535,0.596-1.265,0.461
	C176.534,216.837,177.053,216.96,177.417,216.64z M190.417,206.364c-0.184,0.013-0.389,0.013-0.676,0.013
	C190.673,205.596,190.511,206.364,190.417,206.364C190.232,206.377,190.545,206.364,190.417,206.364z M192.513,204.966
	c-0.31,0.364-0.778,0.136-1.178,0.32C191.753,204.488,191.843,204.477,192.513,204.966z M180.722,205.942
	c0.241-0.241,0.548-0.348,0.868-0.317C181.864,206.036,179.811,206.267,180.722,205.942
	C180.847,205.709,180.612,205.975,180.722,205.942z M180.189,205.33c0.34,0.166,0.315,0.31-0.092,0.461
	C179.811,205.64,179.864,205.496,180.189,205.33C180.323,205.33,180.046,205.345,180.189,205.33z M164.942,231.368
	c0.036-0.015-4.567,1.818-4.214,0.701c-0.12,0.333,1.564-1.313,1.213-1.167c0.376-0.148,3.448-0.328,4.365-0.315
	C165.83,231.045,165.38,231.194,164.942,231.368C163.921,231.754,165.38,231.194,164.942,231.368z M168.605,229.102
	c3.794,0.371-2.25,1.518-2.898,0.84C166.57,229.194,167.574,228.964,168.605,229.102
	C168.908,229.13,167.574,228.964,168.605,229.102z M167.999,205.55c0.993-0.658,2.084-1.129,3.405-1.436
	c-0.963,0.801-2.26,1.134-3.443,1.454L167.999,205.55z M168.188,226.02c-0.166,0.159-0.333,0.151-0.481-0.008
	C167.953,225.912,168.15,225.846,168.188,226.02C168.285,226.171,168.15,225.846,168.188,226.02z M167.085,228.288
	C167.005,228.288,166.698,228.196,167.085,228.288C167.105,228.288,166.967,228.232,167.085,228.288z M165.964,226.337
	c1.375,0.648,0.591,2.796-0.596,1.111c-0.038,0.998-1.764,2.67-2.685,2.883c0.358-0.389,0.476-0.819,0.358-1.283
	c-0.307-0.246-0.873,0.428-1.19,0.42c0.133,0.581,2.478-4.032,0.502-2.683c-0.709,0.535-5.448,5.568-5.724,5.312
	c-0.445-0.476,2.102-4.157,2.286-4.316C160.544,226.455,163.921,225.388,165.964,226.337z M163.332,208.737
	c0.189-0.102,1.718-1.042,1.907-0.814c0.486,0.612-2.452,1.352-2.588,1.38C162.82,208.927,163.091,208.863,163.332,208.737
	C163.864,208.433,163.091,208.863,163.332,208.737z M163.642,221.1c-0.01,0.079-0.596,1.224-0.963,0.778
	C162.385,221.553,163.547,220.559,163.642,221.1C163.601,221.386,163.616,220.948,163.642,221.1z M160.329,211.574
	c0.182,0,2.642-1.567,2.708-0.924C163.063,210.842,160.047,211.612,160.329,211.574z M159.648,214.083
	c-0.156,0.284-0.287,0.428-0.64,0.42C159.128,214.2,159.361,214.18,159.648,214.083z M157.938,220.019
	c0.348-0.264,1.137-1.541,0.748-2.063c0.22,0.287-1.472-0.174-0.701-0.474c0.32-0.087,2.24-1.152,2.56-0.827
	c0.545,0.563-2.409,3.681-3.003,3.914C157.597,220.262,157.766,220.14,157.938,220.019
	C158.424,219.661,157.766,220.14,157.938,220.019z M159.615,223.921c2.127-0.684,2.89-1.876,4.17-0.264
	c0.476,0.607,0.381,2.173-0.748,1.802c0.31,0.092-3.441-0.264-2.749-0.673c-0.745,0.492-2.207,0.799-3.09,0.41
	C158.01,224.737,158.734,224.22,159.615,223.921C160.147,223.767,158.734,224.22,159.615,223.921z M156.655,219.996
	c0.195,0.492,0.061,0.755-0.522,0.835C156.366,220.488,156.522,220.221,156.655,219.996z M126.621,265.656
	C125.654,265.626,127.369,265.626,126.621,265.656C126.501,265.654,126.716,265.654,126.621,265.656z M138.743,274.368
	C138.484,274.447,139.493,274.181,138.743,274.368C138.697,274.381,138.884,274.35,138.743,274.368z M168.339,284.145
	C167.822,284.04,168.92,284.191,168.339,284.145C168.293,284.145,168.406,284.157,168.339,284.145z M173.175,370.857
	C172.343,370.721,173.628,370.191,173.175,370.857C172.986,370.834,173.193,370.834,173.175,370.857z M175.331,327.483
	C175.028,327.168,175.523,327.644,175.331,327.483C175.305,327.455,175.392,327.524,175.331,327.483z M175.663,354.499
	C175.123,354.698,176.257,354.309,175.663,354.499C175.528,354.542,175.745,354.468,175.663,354.499z M178.523,383.639
	c-0.381-0.23-0.381-0.363-0.026-0.425C178.925,383.37,178.935,383.534,178.523,383.639
	C178.364,383.619,178.646,383.665,178.523,383.639z M182.284,385.28c-0.389-0.074-0.351-0.218,0.125-0.458
	C182.737,384.955,182.711,385.121,182.284,385.28C182.127,385.28,182.394,385.249,182.284,385.28z M174.286,374.52
	c-0.023,0.033-0.072,0.041-0.118,0.051C174.281,374.487,174.312,374.467,174.286,374.52z M183.674,200.364h-0.008v-0.01
	L183.674,200.364z M148.118,217.208c0,0.01-0.008,0.01-0.008,0.01L148.118,217.208z M149.116,216.384L149.116,216.384
	L149.116,216.384z M315.122,281.062h0.02c-2.045-7.539-3.576-15.002-6.71-22.305c-3.697-8.673-8.573-16.863-14.454-24.223
	c-5.558-6.943-11.988-13.207-19.123-18.527c-3.479-2.604-7.086-4.964-10.865-7.122c-1.779-1.016-3.617-2.004-5.483-2.921
	c-0.817-0.384-3.666-1.134-4.099-1.828c0.033,0.32,1.661,1.142,1.897,1.367c-1.116-0.287-4.05-1.526-4.088-1.723
	c0.067-0.12,0.312,0,0.274-0.233c-1.638-1.034-7.823-3.31-9.055-1.636c0.264-0.34,4.25,4.273,4.355,5.112
	c0.266,1.784,3.08,3.692,4.859,4.285c2.491,0.835,0.632-0.292,1.669-0.852c0.701-0.348,1.311,1.132,1.961,0.794
	c-0.023-0.01,0-0.023,0.023-0.046c-0.189-0.348-0.394-0.681-0.602-1.027c-0.161,0,4.541,4.851,5.123,3.789
	c-0.561-1.326-1.39-2.813-2.732-4.037c-1.175-1.119-3.026-1.211-4.298-2.327c-0.666-0.535-3.041-2.309-3.3-3.098
	c3.144,0.092,6.794,6.774,9.956,4.186c-0.438-0.302-0.865-0.635-1.27-0.983c0.581,0.182,3.213,1.019,2.335,2.132
	c-2.527-0.43,2.117,2.143,2.199,2.399c-0.466-0.033-0.771-0.397-1.203-0.43c0.182,0.881,2.668,1.789,2.844,3.282
	c-1.5,0.218-0.835-0.922-1.836,0.317c-0.3,0.392-1.641,0.256-2.371,0.302c-1.738,0.151-3.663-2.788-4.923-3.684
	c0.522,1.628,1.434,2.414,3.256,3.571c0.883,0.494-1.239,0.724-1.206,1.467c0.056,0,0.563,0.266,0.556,0.399
	c0,0.092-0.486-0.333-0.556-0.399c0.161-0.1-0.31,2.893-0.356,2.826c1.416,1.669-1.9,1.193-1.969,1.252
	c0.271,0.374,0.794,0.556,0.888,1.114c-0.952,0.051-1.741-0.105-2.67,0.238c1.364,0.404,8.863,3.873,7.214,6.479
	c-0.497,0.868-5.583-0.197-6.531-0.23c-1.971-0.156-0.141,1.876-0.095,2.097c0.317,1.49,1.48,2.153,1.382,3.922
	c-0.108,1.219,1.167,1.254,1.546,2.296c0.348,0.899,0.161,0.97,1.101,1.121c1.677,0.2,1.702-0.051,3.121,1.032
	c1.009,0.778,1.395-0.727,2.593-0.771c2.975-0.11,0.438-0.732,1.848-1.134c1.766-0.481-0.484-3.241-0.387-3.781
	c0.138-0.73-0.1-1.539,0.863-1.8c1.516-0.397-0.384-1.981-0.502-2.399c-0.287-1.224,4.152,1.068,3.622-2.071
	c2.565,0.799,5.21,3.121,7.565,4.457c1.393,0.832,2.78,1.633,3.802,2.939c1.213,1.572-1.746,0.952-1.93,1.39
	c-0.177,0.484,2.611,1.766,3.044,1.738c0.064-0.279-0.34-1.882-0.376-2.153c-0.118-1.121-1.736-2.22-1.621-3.105
	c0.497,0.054,0.963,0.246,1.367,0.558c-1.49-1.848-3.924-2.017-5.632-3.392c-1.019-0.835-2.319-1.518-3.318-2.373
	c-0.008-0.015-1.83-2.319-0.561-1.882c1.987,0.701,4.168,2.716,6.2,3.779c1.626,0.847,2.02,1.382,3.21,2.749
	c0.479,0.558,2.97,3.438,3.523,3.548c-0.015-0.051,2.035,1.795,2.847,2.081c-0.358-0.84-0.684-1.905-1.103-2.565
	c-0.568-0.896-2.893-1.408-2.893-2.775c0.525,0.046,0.594-0.499,1.718-0.461c-0.586-0.031,0.74-0.906,0.658-0.763
	c-2.176-1.234-5.092-4.861-5.891-7.306c0.604,0.023,0.924,0.817,1.587,0.42c-0.212-0.42-0.266-0.878-0.212-1.326
	c0.156,0.212,2.217,1.948,1.81,2.307c-0.579-0.018-1.065-0.274-1.48-0.714c0.302,1.034,1.326,1.057,1.741,1.769
	c0.056-0.292-0.143-0.507,0.102-0.832c1.779,0.748,5.455,3.592,5.932,5.617c-0.781,0.072-2.289-1.613-2.816-1.213
	c-0.174,0.415-0.156,0.832,0.09,1.224c-0.253,0.008-0.466,0.059-0.668,0.166c0.302,0.233,0.44,0.53,0.494,0.876
	c-0.302,0.118-0.576,0.197-0.899,0.279c0.264,1.014,5.573,6.067,5.947,5.56c0.097-0.197-0.223-0.701-0.148-0.771
	c0.282-0.333,1.124,1.134,1.564,0.85c0.34-0.233-0.361-0.694,0.018-0.876c0.812-0.412,3.988,5.814,4.383,6.548
	c1.531,2.893,0.53,1.129-0.643,1.526c-0.164,0.31-0.305,0.612-0.325,0.945c-1.848-0.43-3.873-1.5-5.384-2.555
	c-2.417-1.746,0.763,4.695-0.627,3.899c-0.806-0.468-1.293-1.16-2.312-1.231c-1.449-0.161-1.869-1.723-3.21-2.168
	c-1.078-0.364-5.409-0.763-4.859-2.739c0.463-1.708-1.71-3.098-2.435-3.748c-0.363-0.335-5.194,0.3-5.962,0.509
	c-1.311,0.422-3.42,0.883-4.155,2.107c-1.272,2.296-4.214-0.732-5.386-0.264c-0.609,0.264-0.018,2.153-0.356,2.742
	c-0.461,0.922-1.633,0.975-1.93,2.051c-0.525,1.953,0.963,3.564,0.297,5.368c-0.558,1.436-3.32,2.048-3.359,3.215
	c-0.023,0.645-0.151,1.349-0.73,1.682c-1.26,0.732,0.031,2.381-0.753,3.203c-4.262,4.344,1.357,8.584,0.417,13.325
	c-0.563,2.698-0.868,3.254,0.287,5.581c0.256,0.589,0.064,4.774,2.186,3.067c0.264,2.458,3.392,2.952,3.958,5.261
	c0.671,2.747,3.366,3.953,5.468,5.622c0.85,0.625,1.549,1.503,2.527,1.984c1.738,0.87,2.888-0.468,4.526-0.924
	c1.485-0.443,3.041-0.279,4.447,0.397c0.786,0.374,6.804-3.899,8.43-3.095c1.19,0.607,1.26,2.061,1.805,3.11
	c0.783,1.441,2.429-0.479,3.54,0.041c1.969,0.868,2.56,8.067,0.891,9.408c-1.257,0.904,1.6,4.826,1.979,5.624
	c1.121,2.225,2.166,6.106,1.81,8.581c-0.287,1.992,0.243,5.174-0.883,6.917c-1.144,1.777-1.795,3.643-2.719,5.64
	c-2.365,5.148-0.095,10.944-2.135,16.276c-1.242,2.721-1.019,5.64-1.684,8.481c-0.435,1.846-2.668,4.495-1.795,6.408
	c1.336-1.201,3.323-1.05,4.826-1.81c3.113-1.531,4.58-5.079,6.843-7.465c1.193-1.272,1.938-2.86,2.647-4.416
	c0.673-1.477,2.048-2.419,2.696-3.873c1.562-3.651,3.003-7.286,4.582-10.944c3.328-7.898,3.868-15.468,5.033-23.916
	C316.781,298.458,316.799,289.971,315.122,281.062z M307.24,260.262c-0.443-1.062-6.008-9.219-5.348-9.684
	c0.755-0.466,12.644,20.639,11.361,23.895C311.425,269.676,309.267,264.986,307.24,260.262
	C307.212,260.224,307.647,261.212,307.24,260.262z M312.342,297.587c-0.236-0.576,0.074-1.101,0.253-1.774
	C312.828,296.53,312.436,297.034,312.342,297.587z M311.712,300.905c-0.028-0.364-0.036-0.648,0.179-0.914
	C312.073,300.342,311.912,300.595,311.712,300.905z M309.738,327.977c-0.207,0.074-0.428,0.164-0.637,0.243
	c-0.387,0,0.694-0.538,0.75-0.576C309.792,327.846,309.792,327.91,309.738,327.977C309.58,328.228,309.792,327.91,309.738,327.977z
	 M310.035,316.974c-0.031-0.975,0.046-1.05,1.034-1.677C310.87,316.012,310.168,316.332,310.035,316.974z M311.164,311.867
	c-0.028-1.836-0.064-4.012,0.325-5.775c0.074,3.116,0.223,6.252,0.131,9.375C311.126,314.829,311.164,312.663,311.164,311.867
	C311.151,311.201,311.164,312.486,311.164,311.867z M312.8,317.719c-0.036,1.692-0.266,6.257-1.372,7.544
	c0.095-2.816,1.157-5.394,1.211-8.22C312.851,317.315,312.8,317.535,312.8,317.719C312.8,317.926,312.8,317.535,312.8,317.719z
	 M314.116,300.626c-0.494,1.987-0.018,2.621-1.201,3.74c-0.013-1.495-0.568-4.329,0.978-5.228
	C314.085,299.64,314.262,300.035,314.116,300.626C313.914,301.44,314.262,300.035,314.116,300.626z M248.434,397.809
	c0.156,0.302-13.158,4.055-14.525,4.36c-5.542,1.157-11.149,1.889-16.814,2.15c-10.752,0.54-21.996-0.453-32.33-3.584
	c1.331,0.128,2.941,0.827,4.291,0.622c-1.295-0.814-2.872-0.527-4.017-1.526c4.308,0.684,8.407,0.358,12.37,0.881
	c-0.412-0.568-4.027-1.426-4.006-1.802c0.53-0.046,3.29-0.118,3.407-0.2c1.308-1.019-2.074-0.901-1.779-1.641
	c0.095-0.177,1.024,0.154,1.359-0.302c0.507-0.673,0-1.021,0.195-1.377c0.136-0.307,5.356-1.198,5.901-0.975
	c-0.599,0.366-1.311-0.059-1.055,0.968c-0.54-0.064-2.145-0.023-2.24,0.684c0.041-0.187,1.772,2.222,1.828,2.342
	c0.599,0.932,2.691,1.521,2.867,2.645c0.351,1.897,10.245,1.695,11.738,1.541c3.709-0.422,7.163-1.754,10.821-2.388
	c2.153-0.366,4.319-0.98,6.52-1.216c1.024-0.095,4.431-1.277,5.215-0.998C238.675,399.741,246.583,397.445,248.434,397.809
	C248.436,397.837,248.109,397.755,248.434,397.809z M308.684,340.045c0.44-1.078,0.776-2.186,1.298-3.213
	C309.659,337.928,309.178,338.977,308.684,340.045z M310.437,335.724c0.049-0.146,0.1-0.279,0.146-0.384
	C310.588,335.48,310.491,335.585,310.437,335.724z M195.99,198.725c-0.558-0.105-1.167-0.018-1.761-0.128
	c0.32-0.259,2.066-0.34,1.295-0.827c2.419-1.477,7.47-1.784,10.253-1.452c3.105,0.389,6.218-0.566,9.283-0.087
	c1.247,0.215,2.319,0.241,3.564,0.31c1.083,0.113-0.148,1.229,1.083,1.436c0.719,0.072,2.173,1.715,2.829,1.352
	c-0.046,1.142-0.548,0.356-0.184,1.421c0.079,0.259,1.367,0.983,1.308,1.068c-0.113,0.159-3.594-0.077-3.43-0.036
	c-0.274-0.041,0.054,0.53,0.284,0.451c0.689,0.159,2.194-0.046,2.954,0.01c-1.761,1.574-4.383,1.4-6.336,2.67
	c-1.183,0.783-2.988,0.709-4.291,1.172c0,1.359-1.006,2.972-1.9,4.367c-0.627,0.932-5.041-1.27-5.509-1.825
	c-0.957-1.152-3.154-4.198-0.771-5.158c2.906-1.147,0.018-0.2-0.835-0.827c0.694-0.993,1.467-0.653,2.565-0.479
	c-0.579-0.778-1.267-0.978-2.12-0.584c-0.261-0.832,1.224-1.574-0.082-2.463c-0.553-0.387-3.625,0.067-3.717-0.476
	c-0.182-1.331,3.73-0.62,4.431-1.708C201.97,196.301,198.829,199.16,195.99,198.725C195.429,198.62,196.502,198.802,195.99,198.725z
	 M251.071,218.673c0.468-0.054-0.594-1.549-0.876-1.859c0.328,0.023,0.604,0.079,0.932-0.128c-0.23-0.681-3.302-2.427-3.507-2.319
	c-1.152,0.737-2.588-2.509-2.749-2.934c1.969-0.271,3.192,1.841,4.972,2.706c1.518,0.735,6.986,3.341,7.148,4.977
	c0.125,0.842-4.15,0.502-4.774,1.446c-0.474-1.185,1.075-1.178,1.039-1.549C253.19,218.711,251.293,218.647,251.071,218.673
	C250.95,218.688,251.729,218.58,251.071,218.673z M195.324,220.214c-0.3,0.215-4.009,3.715-3.917,4.05
	c0.092,0.32,3.858,0.084,4.493,0.453c-0.046,0.43-0.545,0.218-0.625,0.596c0.484,0,1.999-0.968,2.255-0.668
	c0.026,0.246,0,0.468-0.125,0.691c1.674,1.638,1.495-1.92,1.587-2.125c-1.167-0.159,0.256-1.812-1.718-1.111
	c0.131-0.054-2.143-0.658-2.01-0.53c-0.189-0.189,1.582-1.754,1.741-1.925C195.944,219.377,195.823,219.822,195.324,220.214
	C194.684,220.687,195.452,220.104,195.324,220.214z M198.97,224.084C199.118,224.236,198.714,224.236,198.97,224.084
	C198.993,224.133,198.916,224.12,198.97,224.084z M198.143,224c0.097-0.12,0.724-0.387,0.333-0.031
	C198.34,224.22,197.795,224.379,198.143,224C198.176,223.944,198.058,224.084,198.143,224z M195.506,219.732h0.018
	c0,0,0,0.015,0.01,0.031C195.524,219.748,195.524,219.748,195.506,219.732z M192.163,223.094c0.113,0,0.182,0,0.276,0.077
	C192.332,223.171,191.924,223.148,192.163,223.094C192.275,223.094,192.091,223.109,192.163,223.094z M155.859,266.744
	c-1.024,0.102,0.668-0.804,0.525-1.126c-0.707-1.585-5.437-1.938-5.87-3.223c0.197-0.082,0.348-0.215,0.417-0.433
	c-1.618-0.635-2.463,1.336-3.945,1.208c3.059-5.169,10.619,0.724,13.658,3.146C159.057,266.501,157.464,266.516,155.859,266.744
	C155.724,266.76,156.745,266.627,155.859,266.744z M159.804,269.494c-0.755-0.34,2.511-0.305,2.97-0.476
	c-0.666-1.006-0.079-1.544-1.331-1.925c1.165-1.398,4.946,0.228,6.154,0.76c-0.102,0.169-0.335,0.023-0.433,0.22
	c0.082,0.105,2.58,2.166,0.891,1.462c-1.828-0.783-2.872,0.32-4.175,1.044C162.856,269.117,161.171,270.144,159.804,269.494
	C159.661,269.435,160.129,269.629,159.804,269.494z M248.419,216.566c1.761,1.851-0.97,3.246-2.237,2.071
	c-0.604-0.643-0.241-2.107-1.661-2.56c0.366-0.113,0.755-0.223,1.129-0.371C244.686,213.43,247.953,216.074,248.419,216.566
	C248.815,216.988,248.278,216.415,248.419,216.566z M225.233,205.368c-0.1-0.364,2.56-0.177,3.016-0.287
	c0.701-0.113,6.011,0.422,4.137,1.283c-1.436,0.643-3.535,1.364-4.933,0.113C227.119,206.185,225.253,205.44,225.233,205.368
	C225.171,205.133,225.335,205.74,225.233,205.368z M273.696,231.662c0.602,0,2.104,2.396,1.869,2.785
	c-0.709,1.121-1.9-1.731-2.639-2.173C273.194,232.113,273.45,231.895,273.696,231.662z M190.893,199.46
	c1.792-1.375,2.214-0.604,4.472-0.361C194.651,199.739,192.908,199.887,190.893,199.46
	C191.379,199.081,192.908,199.887,190.893,199.46z M230.829,197.898c-1.341-0.384-2.734-0.44-4.027-0.947
	c1.549-0.166,3.423,0.415,4.511,0.732C231.681,197.791,230.734,197.85,230.829,197.898
	C229.487,197.514,230.957,197.934,230.829,197.898z M226.802,196.951c-0.148,0.015-0.305,0.026-0.433,0.046
	C226.497,196.859,226.646,196.846,226.802,196.951C226.653,196.966,226.74,196.936,226.802,196.951z M156.269,269.571
	c0.307,0.023,0.461,0.197,0.517,0.481c-0.184,0.753-2.532-0.328-2.811-0.653C154.81,268.928,155.57,269.189,156.269,269.571z
	 M173.124,269.517C171.89,272.563,168.754,267.397,173.124,269.517C172.94,269.947,172.389,269.156,173.124,269.517z
	 M177.988,284.321L177.988,284.321c0.033-0.084,0.105-0.123,0.23-0.131C178.141,284.234,178.077,284.26,177.988,284.321z
	 M178.418,284.234c-0.054-0.018,0.34-1.236,1.137-1.306C180.486,283.51,178.871,284.291,178.418,284.234
	C178.362,284.216,179.442,284.357,178.418,284.234z M188.328,198.802c-0.832,0.543-1.828,0.182-2.706,0.499
	C186.82,198.484,187.37,198.541,188.328,198.802C187.496,199.347,188.172,198.766,188.328,198.802z M156.868,260.16
	c-0.32-1.265-0.799-1.277,0.038-2.376C157.234,258.947,157.234,259.653,156.868,260.16
	C156.745,259.643,157.234,259.653,156.868,260.16z M134.186,303.442c-0.015,0.435-0.22,0.612-0.668,0.451
	c-0.136-0.136-0.236-1.656,0.054-1.953C133.774,302.431,133.999,302.909,134.186,303.442
	C134.268,303.631,133.999,302.909,134.186,303.442z M186.63,221.583c0.963-0.023,1.772,0.279,2.616,0.904
	C188.1,222.717,187.37,222.282,186.63,221.583z M273.302,231.245l0.008,0.01c-0.292-0.092-1.984-1.126-1.298-1.677
	C272.513,229.228,273.238,231.073,273.302,231.245z M290.838,239.974c-0.307-0.32-0.991-0.102-1.167-0.794
	c0.579,0.312,1.249,0.174,1.805,0.612C291.268,239.951,291.063,240.169,290.838,239.974
	C290.531,239.652,291.063,240.169,290.838,239.974z M189.805,199.368c-0.182-0.233-0.461-0.074-0.632-0.287
	c0.456-0.543,1.132-0.356,1.723-0.522C190.867,198.62,190.179,199.923,189.805,199.368
	C189.623,199.135,189.894,199.542,189.805,199.368z M186.868,200.026c-0.778,0.589-1.58,1.16-2.639,1.057
	C184.943,200.335,185.924,200.23,186.868,200.026z M186.597,225.917c0.2,0.056,0.433-0.003,0.773-0.038
	c-1.042,1.277-2.24-0.492-1.969-0.556C185.215,225.37,186.533,225.912,186.597,225.917
	C186.797,225.974,186.2,225.866,186.597,225.917z M187.032,200.522c0.717-0.571,1.567-0.668,2.45-0.596
	C188.727,200.364,187.939,200.614,187.032,200.522z M268.906,234.184c-0.806-0.118,1.546-0.865,0.694,0.233
	C269.349,234.394,269.119,234.299,268.906,234.184C268.786,234.163,269.165,234.202,268.906,234.184z M295.049,240.161
	c-0.502-0.248-0.684-0.589-0.543-1.155C294.911,239.316,295.082,239.619,295.049,240.161z M188.819,204.311
	c0.297-0.515,0.635-0.637,1.654-0.627C189.979,204.242,189.426,204.337,188.819,204.311z M181.27,207.839
	c-0.602,0.325-1.034,0.55-1.682,0.507C180.046,207.839,180.561,207.862,181.27,207.839z M244.074,212.155
	c-0.131,0.233-0.008,0.376,0.159,0.532c-0.177-0.079-0.904-0.986-0.348-1.111C244.136,211.679,244.218,211.858,244.074,212.155
	C243.944,212.388,244.159,212.022,244.074,212.155z M149.423,263.401c-0.023,0.369-0.197,0.55-0.53,0.53
	C148.732,263.631,149.28,262.748,149.423,263.401C149.495,263.626,149.4,263.278,149.423,263.401z M184.662,372.065
	c0.279,0.115,0.425,0.317,0.461,0.62C185.123,373.588,183.487,372.196,184.662,372.065
	C184.844,372.042,184.413,372.081,184.662,372.065z M182.284,208.369c-0.197,0.31-0.466,0.445-0.906,0.612
	C181.603,208.481,181.917,208.397,182.284,208.369z M134.952,303.255C134.885,304.312,134.642,302.236,134.952,303.255
	C134.949,303.383,134.924,303.153,134.952,303.255z M189.272,210.13c0.028-0.023,0.1,0.015,0.143,0.023
	C189.272,210.22,189.052,210.22,189.272,210.13z M184.605,200.125c-0.118,0.023-0.261,0.059-0.366,0.079
	C184.337,200.095,184.477,200.087,184.605,200.125z M184.191,200.225c-0.09,0,0.038-0.023,0.051-0.023
	C184.229,200.207,184.201,200.207,184.191,200.225z M183.692,200.351l-0.018,0.01C183.666,200.351,183.674,200.351,183.692,200.351z
	 M183.692,200.351c0.102-0.148,0.292-0.12,0.474-0.125C184.04,200.384,183.876,200.407,183.692,200.351z M187.012,200.522h0.018
	C187.025,200.532,187.012,200.54,187.012,200.522z M187.012,200.532c-0.038,0.197-0.192,0.177-0.317,0.177
	C186.743,200.532,186.868,200.509,187.012,200.532z M148.507,307.743C148.266,307.553,148.648,307.855,148.507,307.743
	C148.422,307.681,148.622,307.83,148.507,307.743z M260.427,208.737C261.075,208.927,260.471,208.873,260.427,208.737
	C260.427,208.737,260.451,208.84,260.427,208.737z M244.248,212.716c-0.005,0-0.005-0.031-0.015-0.031
	c0.064,0.031,0.077,0.079,0.064,0.156C244.294,212.803,244.279,212.764,244.248,212.716
	C244.243,212.716,244.279,212.764,244.248,212.716z M186.676,200.709c0.018,0,0.018,0,0.018,0c0,0.01,0,0.01-0.038,0.003
	C186.659,200.714,186.676,200.714,186.676,200.709z M186.469,200.75c0.064-0.031,0.128-0.031,0.189-0.038
	C186.577,200.84,186.51,200.858,186.469,200.75C186.533,200.722,186.484,200.758,186.469,200.75z M281.801,233.075v-0.003
	l0.018,0.02L281.801,233.075z M198.739,300.564C198.409,300.285,198.985,300.367,198.739,300.564
	C198.714,300.541,198.829,300.483,198.739,300.564z M248.488,397.783c-0.028,0.023-0.046,0.023-0.054,0.023
	c0.003-0.051,0.008-0.087,0.054-0.064C248.488,397.74,248.488,397.775,248.488,397.783z M248.434,397.809
	C248.434,397.809,248.419,397.806,248.434,397.809L248.434,397.809z M164.822,226.486c0.064-0.023,1.034-0.151,0.694,0.251
	C165.139,226.921,164.919,226.829,164.822,226.486C164.942,226.463,164.824,226.675,164.822,226.486z M158.726,217.956
	c-0.279-0.174-0.22-0.374,0.177-0.558C159.241,217.503,159.177,217.715,158.726,217.956
	C158.588,217.94,158.931,217.897,158.726,217.956z"/>
<path style="fill:#353F49;" d="M212.161,132.549c-92.365,0-167.268,74.839-167.268,167.26c0,92.408,74.903,167.255,167.268,167.255
	c92.447,0,167.329-74.847,167.329-167.255C379.491,207.391,304.608,132.549,212.161,132.549z M212.174,431.406
	c-72.653,0-131.576-58.918-131.576-131.587c0-72.681,58.924-131.604,131.576-131.604c72.694,0,131.604,58.924,131.604,131.604
	C343.779,372.488,284.868,431.406,212.174,431.406z"/>
<g>
</g>
<g>
</g>
<g>
</g>
<g>
</g>
<g>
</g>
<g>
</g>
<g>
</g>
<g>
</g>
<g>
</g>
<g>
</g>
<g>
</g>
<g>
</g>
<g>
</g>
<g>
</g>
<g>
</g>
</svg>
