<?xml version="1.0" encoding="iso-8859-1"?>
<!-- Generator: Adobe Illustrator 19.0.0, SVG Export Plug-In . SVG Version: 6.00 Build 0)  -->
<svg version="1.1" id="Layer_1" xmlns="http://www.w3.org/2000/svg" xmlns:xlink="http://www.w3.org/1999/xlink" x="0px" y="0px"
	 viewBox="0 0 512 512" style="enable-background:new 0 0 512 512;" xml:space="preserve">
<g>
	<path style="fill:#474F59;" d="M34.338,384.003c-1.572-2.696-2.332-5.87-2.33-9.37h5.087c-0.003,2.614,0.563,4.915,1.638,6.83
		L34.338,384.003z"/>
	<path style="fill:#474F59;" d="M41.378,359.68l-4.547-2.258c2.296-4.534,5.373-9.459,9.139-14.656l4.116,2.993
		C46.421,350.723,43.521,355.405,41.378,359.68z M60.54,332.844l-3.804-3.366c3.52-3.973,7.427-8.141,11.615-12.403l3.61,3.556
		C67.777,324.836,63.955,328.911,60.54,332.844z M84.051,309.03l-3.423-3.722c3.953-3.681,8.166-7.439,12.631-11.277l3.336,3.837
		C92.207,301.642,87.947,305.388,84.051,309.03z M109.461,287.117l-3.203-3.973c4.303-3.461,8.712-6.966,13.309-10.501l3.105,4.019
		C118.132,280.166,113.736,283.643,109.461,287.117z M136.093,266.563l-3.003-4.101c4.449-3.287,9.037-6.589,13.668-9.882
		l2.977,4.122C145.076,260.009,140.509,263.301,136.093,266.563z M163.562,247.127l-2.831-4.196
		c4.544-3.105,9.267-6.252,14.016-9.359l2.819,4.244C172.765,240.899,168.149,244.032,163.562,247.127z M191.729,228.705L189,224.41
		c4.739-2.972,9.516-5.934,14.359-8.891l2.657,4.349C201.196,222.802,196.378,225.751,191.729,228.705z M220.445,211.205
		l-2.58-4.347c2.417-1.457,4.872-2.865,7.375-4.262c2.435-1.441,4.877-2.819,7.304-4.219l2.496,4.434
		c-2.409,1.354-4.833,2.767-7.304,4.155C225.265,208.374,222.846,209.802,220.445,211.205z M249.736,194.627l-2.465-4.48
		c4.997-2.721,9.989-5.376,14.963-7.987l2.345,4.48C259.674,189.233,254.736,191.877,249.736,194.627z M279.519,178.929
		l-2.263-4.526c5.046-2.547,10.109-5.051,15.117-7.503l2.245,4.577C289.636,173.873,284.611,176.366,279.519,178.929z
		 M309.768,164.303l-2.056-4.623c5.156-2.386,10.33-4.716,15.424-6.927l2.03,4.628C320.118,159.621,314.978,161.887,309.768,164.303
		z M340.642,150.84l-1.923-4.713c5.322-2.196,10.547-4.26,15.688-6.252l1.848,4.751C351.153,146.591,345.905,148.631,340.642,150.84
		z M372.002,138.854l-1.702-4.785c5.486-1.94,10.954-3.712,16.107-5.353l1.513,4.861
		C382.769,135.153,377.421,136.932,372.002,138.854z M404.04,128.899l-1.303-4.887c5.78-1.533,11.366-2.844,16.533-3.884
		l1.004,4.982C415.215,126.129,409.739,127.393,404.04,128.899z M436.739,122.496l-0.515-5.048
		c6.41-0.686,12.157-0.881,17.216-0.581l-0.269,5.059C448.321,121.631,442.842,121.843,436.739,122.496z"/>
	<path style="fill:#474F59;" d="M473.35,130.547c-1.091-1.928-2.793-3.579-5.079-4.877l2.522-4.375
		c3.046,1.741,5.432,4.004,6.945,6.712L473.35,130.547z"/>
	<path style="fill:#474F59;" d="M470.774,390.715l-2.506-4.372c2.276-1.298,3.988-2.954,5.066-4.867l4.406,2.54
		C476.214,386.714,473.826,388.977,470.774,390.715z"/>
	<path style="fill:#474F59;" d="M448.602,395.261c-3.843,0-7.951-0.246-12.355-0.714l0.489-5.051
		c6.09,0.64,11.612,0.876,16.461,0.573l0.271,5.059C451.892,395.205,450.269,395.261,448.602,395.261z M419.303,391.867
		c-5.128-1.027-10.706-2.342-16.558-3.886l1.329-4.887c5.681,1.51,11.187,2.772,16.236,3.781L419.303,391.867z M386.445,383.281
		c-5.176-1.623-10.598-3.412-16.105-5.35l1.702-4.792c5.443,1.943,10.778,3.725,15.91,5.289L386.445,383.281z M354.451,372.127
		c-5.171-1.992-10.365-4.055-15.713-6.259l1.938-4.708c5.268,2.212,10.516,4.262,15.585,6.213L354.451,372.127z M323.167,359.252
		c-5.079-2.207-10.263-4.534-15.429-6.925l2.074-4.621c5.212,2.417,10.342,4.68,15.396,6.917L323.167,359.252z M292.406,345.111
		c-5.007-2.45-10.063-4.954-15.145-7.498l2.296-4.534c5.077,2.547,10.115,5.048,15.094,7.457L292.406,345.111z M262.255,329.856
		c-4.987-2.614-9.961-5.268-14.945-7.992l2.435-4.483c4.992,2.747,9.969,5.389,14.879,7.992L262.255,329.856z M232.577,313.628
		c-2.44-1.395-4.887-2.788-7.337-4.224c-2.496-1.403-4.925-2.806-7.329-4.244l2.573-4.347c2.383,1.388,4.792,2.819,7.252,4.219
		c2.483,1.385,4.913,2.811,7.347,4.178L232.577,313.628z M203.39,296.489c-4.828-2.941-9.654-5.914-14.346-8.886l2.693-4.291
		c4.69,2.954,9.503,5.906,14.326,8.837L203.39,296.489z M174.78,278.444c-4.741-3.108-9.464-6.252-14.044-9.354l2.872-4.219
		c4.577,3.126,9.198,6.244,13.993,9.334L174.78,278.444z M146.809,259.43c-4.641-3.302-9.224-6.589-13.673-9.874l3-4.096
		c4.421,3.261,8.983,6.556,13.599,9.853L146.809,259.43z M119.617,239.365c-4.595-3.523-9.004-7.03-13.335-10.496l3.231-3.955
		c4.227,3.453,8.666,6.94,13.212,10.45L119.617,239.365z M93.272,217.997c-4.406-3.809-8.625-7.608-12.613-11.277l3.433-3.72
		c3.935,3.628,8.161,7.38,12.541,11.144L93.272,217.997z M68.381,194.949c-4.157-4.242-8.123-8.402-11.645-12.393l3.84-3.364
		c3.438,3.937,7.258,8.015,11.423,12.183L68.381,194.949z M45.999,169.27c-3.773-5.197-6.853-10.143-9.149-14.651l4.539-2.263
		c2.15,4.27,5.059,8.95,8.727,13.921L45.999,169.27z"/>
	<path style="fill:#474F59;" d="M32.001,137.364c-0.013-3.497,0.748-6.643,2.317-9.349l4.416,2.54
		c-1.088,1.912-1.659,4.214-1.646,6.81H32.001z"/>
	<path style="fill:#474F59;" d="M256.044,512v-5.079c27.315,0,56.632-100.808,56.637-250.924
		c0-150.116-29.315-250.916-56.637-250.916V0c34.609,0,61.696,112.438,61.696,255.997C317.738,399.557,290.65,512,256.044,512z"/>
</g>
<path style="fill:#FFDB79;" d="M364.708,256.044c0,59.963-48.635,108.587-108.646,108.587c-60.014,0-108.657-48.625-108.657-108.588
	c0-59.955,48.64-108.68,108.657-108.68C316.074,147.364,364.708,196.088,364.708,256.044z"/>
<path style="fill:#FAB83E;" d="M342.882,256.044c0,48.02-38.81,86.827-86.82,86.827c-48.015,0-86.853-38.807-86.853-86.828
	c0-48.015,38.838-86.917,86.853-86.917C304.07,169.126,342.882,208.028,342.882,256.044z"/>
<g>
	<path style="fill:#FFDB79;" d="M265.194,263.199h-18.276c-7.621,0-14.758-2.985-20.116-8.387
		c-5.35-5.243-8.353-12.424-8.353-20.088c0-7.621,3.003-14.781,8.353-20.16c5.307-5.292,12.457-8.269,20.116-8.269h39.48v14.339
		h-39.48c-3.771,0-7.373,1.485-9.917,4.047c-2.744,2.693-4.237,6.234-4.237,10.043c0,3.796,1.492,7.322,4.152,9.92
		c2.76,2.744,6.231,4.227,9.999,4.227h18.276v14.328H265.194z"/>
	<path style="fill:#FFDB79;" d="M265.194,305.766h-39.509v-14.323h39.508c3.735,0,7.235-1.492,9.997-4.142
		c2.547-2.591,4.096-6.175,4.096-9.969c0-3.812-1.459-7.324-4.052-9.92c-2.806-2.747-6.305-4.216-10.04-4.216h-18.276v-14.328
		h18.276c7.544,0,14.738,2.993,20.081,8.358c5.386,5.24,8.361,12.439,8.361,20.109c0,7.619-2.952,14.797-8.361,20.134
		C279.834,302.82,272.712,305.766,265.194,305.766z"/>
	<rect x="248.884" y="201.344" style="fill:#FFDB79;" width="14.382" height="109.417"/>
</g>
<g>
	<path style="fill:#474F59;" d="M256.044,512c-3.156,0-6.292-0.873-9.308-2.634l2.529-4.411c2.289,1.316,4.513,1.966,6.776,1.966
		V512H256.044z"/>
	<path style="fill:#474F59;" d="M234.266,496.54c-2.785-4.219-5.53-9.364-8.092-15.237l4.585-2.056
		c2.501,5.619,5.092,10.506,7.754,14.482L234.266,496.54z M220.025,465.364c-1.725-5.023-3.325-10.504-4.908-16.302l4.872-1.347
		c1.556,5.696,3.2,11.1,4.805,16.008L220.025,465.364z M211.029,432.586c-1.226-5.299-2.324-10.906-3.412-16.622l4.974-0.924
		c1.08,5.645,2.168,11.182,3.372,16.407L211.029,432.586z M204.726,399.286c-0.927-5.43-1.72-11.031-2.47-16.745l5.005-0.673
		c0.773,5.681,1.554,11.231,2.47,16.607L204.726,399.286z M200.2,365.722c-0.635-5.499-1.219-11.095-1.748-16.842l5.059-0.453
		c0.527,5.701,1.111,11.256,1.731,16.722L200.2,365.722z M197.09,332.055c-0.389-5.555-0.809-11.187-1.106-16.896l5.079-0.287
		c0.284,5.699,0.671,11.272,1.088,16.794L197.09,332.055z M195.226,298.281c-0.253-5.596-0.461-11.21-0.53-16.906l5.041-0.118
		c0.113,5.65,0.315,11.277,0.522,16.832L195.226,298.281z M194.379,264.456c-0.015-2.821-0.028-5.619-0.02-8.471
		c0-2.821,0.005-5.619,0.026-8.417l5.087,0.049c-0.026,2.76-0.041,5.563-0.041,8.379c-0.003,2.829,0.01,5.632,0.036,8.42
		L194.379,264.456z M199.734,230.781l-5.048-0.138c0.077-5.686,0.274-11.302,0.532-16.883l5.036,0.189
		C200.039,219.505,199.844,225.126,199.734,230.781z M201.06,197.13l-5.079-0.264c0.292-5.719,0.707-11.328,1.106-16.888
		l5.061,0.384C201.736,185.869,201.342,191.468,201.06,197.13z M203.51,163.607l-5.059-0.479c0.535-5.734,1.121-11.318,1.748-16.822
		l5.041,0.563C204.624,152.343,204.04,157.898,203.51,163.607z M207.258,130.168l-5.005-0.671c0.748-5.722,1.536-11.32,2.468-16.75
		l5.007,0.809C208.81,118.927,208.029,124.488,207.258,130.168z M212.583,96.996l-4.974-0.929c1.08-5.701,2.176-11.272,3.41-16.63
		l4.931,1.132C214.744,85.862,213.653,91.364,212.583,96.996z M219.984,64.307l-4.872-1.347c1.577-5.78,3.174-11.259,4.905-16.297
		l4.767,1.644C223.179,53.228,221.533,58.627,219.984,64.307z M230.751,32.781l-4.59-2.066c2.575-5.878,5.309-11.028,8.1-15.235
		l4.234,2.811C235.841,22.259,233.258,27.123,230.751,32.781z"/>
	<path style="fill:#474F59;" d="M249.265,7.043l-2.529-4.408C249.752,0.876,252.883,0,256.044,0v5.079
		C253.776,5.079,251.549,5.722,249.265,7.043z"/>
	<path style="fill:#474F59;" d="M477.738,384.015l-4.406-2.54c13.699-23.672-59.016-99.446-188.989-174.51
		C154.348,131.914,52.386,106.87,38.736,130.557l-4.416-2.545c17.339-29.939,128.264,2.811,252.549,74.583
		C411.242,274.373,495.043,354.063,477.738,384.015z"/>
	<path style="fill:#474F59;" d="M63.425,395.336c-13.514,0-24.289-3.087-29.087-11.333l4.398-2.54
		c7.14,12.393,37.117,11.643,82.255-2.074c46.843-14.205,104.865-40.596,163.351-74.36
		c129.974-75.054,202.696-150.822,189.007-174.482l4.388-2.54c17.311,29.942-66.506,109.619-190.871,181.394
		c-58.767,33.971-117.151,60.534-164.413,74.86C103.179,390.129,81.014,395.336,63.425,395.336z"/>
</g>
<g>
</g>
<g>
</g>
<g>
</g>
<g>
</g>
<g>
</g>
<g>
</g>
<g>
</g>
<g>
</g>
<g>
</g>
<g>
</g>
<g>
</g>
<g>
</g>
<g>
</g>
<g>
</g>
<g>
</g>
</svg>
