<?xml version="1.0" encoding="iso-8859-1"?>
<!-- Generator: Adobe Illustrator 19.0.0, SVG Export Plug-In . SVG Version: 6.00 Build 0)  -->
<svg version="1.1" id="Layer_1" xmlns="http://www.w3.org/2000/svg" xmlns:xlink="http://www.w3.org/1999/xlink" x="0px" y="0px"
	 viewBox="0 0 512 512" style="enable-background:new 0 0 512 512;" xml:space="preserve">
<circle style="fill:#474F59;" cx="256" cy="256" r="256"/>
<g>
	<path style="fill:#FFFFFF;" d="M60.023,369.142c-1.391-2.388-2.061-5.189-2.058-8.285h4.496c-0.003,2.312,0.495,4.347,1.447,6.038
		L60.023,369.142z"/>
	<path style="fill:#FFFFFF;" d="M66.246,347.641l-4.02-1.995c2.028-4.004,4.75-8.357,8.076-12.952l3.64,2.643
		C70.702,339.73,68.139,343.866,66.246,347.641z M83.182,323.924l-3.363-2.979c3.108-3.508,6.564-7.194,10.263-10.954l3.191,3.138
		C89.577,316.845,86.201,320.453,83.182,323.924z M103.962,302.873l-3.026-3.287c3.495-3.254,7.221-6.58,11.165-9.969l2.95,3.392
		C111.17,296.342,107.408,299.659,103.962,302.873z M126.421,283.506l-2.831-3.508c3.802-3.062,7.7-6.161,11.766-9.285l2.745,3.554
		C134.085,277.365,130.2,280.431,126.421,283.506z M149.96,265.335l-2.656-3.62c3.931-2.907,7.987-5.827,12.08-8.737l2.633,3.643
		C157.901,259.548,153.864,262.454,149.96,265.335z M174.239,248.161l-2.504-3.71c4.017-2.745,8.189-5.526,12.387-8.271l2.491,3.752
		C182.374,242.655,178.295,245.426,174.239,248.161z M199.135,231.877l-2.411-3.792c4.188-2.629,8.41-5.249,12.691-7.862
		l2.349,3.842C207.502,226.661,203.244,229.264,199.135,231.877z M224.517,216.408l-2.279-3.838
		c2.134-1.285,4.307-2.534,6.521-3.769c2.15-1.275,4.311-2.491,6.455-3.729l2.207,3.921c-2.131,1.196-4.271,2.441-6.455,3.673
		C228.778,213.904,226.638,215.175,224.517,216.408z M250.408,201.758l-2.18-3.957c4.416-2.408,8.83-4.753,13.226-7.066l2.071,3.961
		C259.191,196.994,254.827,199.327,250.408,201.758z M276.728,187.884l-1.998-4.007c4.459-2.249,8.935-4.466,13.362-6.63
		l1.985,4.043C285.67,183.412,281.23,185.618,276.728,187.884z M303.464,174.955l-1.817-4.086c4.558-2.111,9.133-4.165,13.636-6.124
		l1.794,4.089C312.614,170.816,308.072,172.818,303.464,174.955z M330.755,163.054l-1.701-4.165
		c4.707-1.942,9.322-3.769,13.867-5.526l1.632,4.198C340.044,159.298,335.406,161.102,330.755,163.054z M358.473,152.46
		l-1.506-4.228c4.849-1.718,9.685-3.28,14.24-4.73l1.335,4.291C367.986,149.19,363.262,150.763,358.473,152.46z M386.791,143.657
		l-1.153-4.317c5.11-1.354,10.048-2.517,14.613-3.432l0.889,4.406C396.668,141.213,391.825,142.336,386.791,143.657z
		 M415.691,138.002l-0.456-4.463c5.665-0.608,10.745-0.773,15.215-0.515l-0.238,4.473
		C425.928,137.239,421.089,137.427,415.691,138.002z"/>
	<path style="fill:#FFFFFF;" d="M448.053,145.117c-0.965-1.701-2.467-3.161-4.489-4.307l2.23-3.868
		c2.692,1.543,4.803,3.538,6.137,5.933L448.053,145.117z"/>
	<path style="fill:#FFFFFF;" d="M445.774,375.075l-2.216-3.865c2.012-1.15,3.525-2.613,4.476-4.307l3.895,2.246
		C450.58,371.537,448.472,373.535,445.774,375.075z"/>
	<path style="fill:#FFFFFF;" d="M426.179,379.098c-3.396,0-7.029-0.218-10.92-0.631l0.433-4.466
		c5.384,0.568,10.263,0.766,14.547,0.502l0.241,4.473C429.082,379.042,427.649,379.098,426.179,379.098z M400.282,376.095
		c-4.532-0.912-9.46-2.078-14.637-3.439l1.173-4.317c5.021,1.331,9.887,2.451,14.349,3.34L400.282,376.095z M371.24,368.505
		c-4.578-1.437-9.368-3.013-14.237-4.73l1.506-4.235c4.81,1.718,9.527,3.29,14.062,4.674L371.24,368.505z M342.957,358.644
		c-4.568-1.761-9.16-3.587-13.887-5.53l1.714-4.162c4.654,1.949,9.295,3.762,13.774,5.483L342.957,358.644z M315.309,347.265
		c-4.489-1.949-9.071-4.007-13.639-6.118l1.833-4.086c4.608,2.134,9.143,4.139,13.606,6.114L315.309,347.265z M288.121,334.765
		c-4.426-2.164-8.892-4.377-13.388-6.63l2.031-4.004c4.486,2.253,8.939,4.463,13.338,6.59L288.121,334.765z M261.47,321.278
		c-4.406-2.306-8.803-4.651-13.21-7.059l2.15-3.964c4.413,2.428,8.81,4.763,13.147,7.062L261.47,321.278z M235.239,306.939
		c-2.154-1.232-4.321-2.461-6.484-3.739c-2.207-1.235-4.354-2.474-6.478-3.749l2.273-3.838c2.107,1.222,4.235,2.487,6.408,3.723
		c2.193,1.232,4.34,2.491,6.494,3.696L235.239,306.939z M209.441,291.794c-4.268-2.606-8.532-5.229-12.681-7.858l2.382-3.789
		c4.146,2.613,8.4,5.216,12.661,7.809L209.441,291.794z M184.155,275.839c-4.192-2.742-8.364-5.526-12.414-8.271l2.54-3.723
		c4.046,2.755,8.129,5.516,12.367,8.245L184.155,275.839z M159.433,259.032c-4.103-2.917-8.152-5.82-12.083-8.724l2.652-3.627
		c3.908,2.884,7.938,5.797,12.02,8.714L159.433,259.032z M135.396,241.304c-4.06-3.115-7.957-6.213-11.786-9.285l2.854-3.498
		c3.736,3.059,7.657,6.141,11.677,9.239L135.396,241.304z M112.111,222.413c-3.895-3.369-7.624-6.725-11.148-9.969l3.036-3.29
		c3.478,3.211,7.214,6.527,11.082,9.85L112.111,222.413z M90.112,202.038c-3.673-3.749-7.181-7.426-10.293-10.95l3.392-2.976
		c3.039,3.485,6.415,7.089,10.098,10.772L90.112,202.038z M70.329,179.342c-3.336-4.595-6.058-8.962-8.086-12.945l4.013-2.002
		c1.899,3.779,4.473,7.915,7.713,12.308L70.329,179.342z"/>
	<path style="fill:#FFFFFF;" d="M57.958,151.149c-0.013-3.092,0.661-5.873,2.048-8.265l3.904,2.243
		c-0.961,1.695-1.467,3.726-1.453,6.022L57.958,151.149L57.958,151.149z"/>
	<path style="fill:#FFFFFF;" d="M255.98,482.274v-4.486c24.143,0,50.054-89.105,50.057-221.788
		c0-132.684-25.91-221.779-50.057-221.779v-4.489c30.588,0,54.53,99.381,54.53,226.268
		C310.51,382.89,286.568,482.274,255.98,482.274z"/>
</g>
<path style="fill:#FFDB79;" d="M352.025,256.04c0,53.004-42.988,95.982-96.028,95.982c-53.046,0-96.038-42.978-96.038-95.982
	c0-52.994,42.995-96.051,96.038-96.051C309.04,159.988,352.025,203.046,352.025,256.04z"/>
<path style="fill:#FAB83E;" d="M332.731,256.04c0,42.45-34.304,76.747-76.734,76.747c-42.44,0-76.767-34.301-76.767-76.747
	c0-42.44,34.33-76.82,76.767-76.82C298.43,179.22,332.731,213.6,332.731,256.04z"/>
<g>
	<path style="fill:#FFDB79;" d="M264.066,262.362h-16.153c-6.735,0-13.044-2.639-17.781-7.409c-4.73-4.634-7.383-10.98-7.383-17.758
		c0-6.732,2.656-13.064,7.383-17.821c4.691-4.674,11.01-7.307,17.781-7.307h34.892v12.674h-34.889c-3.333,0-6.517,1.311-8.763,3.577
		c-2.425,2.382-3.746,5.506-3.746,8.876c0,3.359,1.318,6.478,3.67,8.773c2.438,2.421,5.506,3.729,8.839,3.729h16.153v12.665H264.066
		z"/>
	<path style="fill:#FFDB79;" d="M264.066,299.992h-34.918v-12.665h34.918c3.3,0,6.395-1.315,8.836-3.657
		c2.253-2.289,3.62-5.457,3.62-8.813c0-3.369-1.292-6.471-3.581-8.763c-2.481-2.428-5.576-3.733-8.876-3.733h-16.153v-12.665h16.153
		c6.669,0,13.025,2.652,17.748,7.389c4.76,4.631,7.386,10.993,7.386,17.771c0,6.735-2.61,13.081-7.386,17.801
		C277.005,297.386,270.713,299.992,264.066,299.992z"/>
	<rect x="249.658" y="207.704" style="fill:#FFDB79;" width="12.711" height="96.718"/>
</g>
<g>
	<path style="fill:#FFFFFF;" d="M255.98,482.274c-2.791,0-5.563-0.77-8.225-2.325l2.236-3.901c2.022,1.159,3.99,1.737,5.989,1.737
		L255.98,482.274L255.98,482.274z"/>
	<path style="fill:#FFFFFF;" d="M236.732,468.612c-2.461-3.733-4.885-8.281-7.151-13.471l4.053-1.813
		c2.21,4.968,4.499,9.282,6.854,12.797L236.732,468.612z M224.144,441.05c-1.526-4.433-2.94-9.285-4.337-14.405l4.307-1.186
		c1.377,5.031,2.828,9.807,4.248,14.141L224.144,441.05z M216.193,412.084c-1.083-4.687-2.055-9.642-3.016-14.696l4.397-0.819
		c0.955,4.995,1.916,9.883,2.98,14.511L216.193,412.084z M210.624,382.649c-0.819-4.796-1.519-9.751-2.183-14.798l4.423-0.598
		c0.684,5.024,1.374,9.929,2.183,14.68L210.624,382.649z M206.623,352.986c-0.562-4.866-1.077-9.811-1.546-14.891l4.473-0.4
		c0.466,5.037,0.981,9.953,1.529,14.782L206.623,352.986z M203.875,323.227c-0.344-4.909-0.717-9.883-0.978-14.934l4.489-0.251
		c0.251,5.037,0.595,9.966,0.961,14.841L203.875,323.227z M202.227,293.373c-0.221-4.945-0.406-9.91-0.469-14.947l4.456-0.102
		c0.099,4.998,0.277,9.969,0.462,14.884L202.227,293.373z M201.477,263.478c-0.013-2.494-0.026-4.968-0.02-7.485
		c0-2.497,0.007-4.968,0.023-7.439l4.496,0.04c-0.023,2.438-0.036,4.915-0.036,7.406c-0.003,2.504,0.01,4.978,0.033,7.445
		L201.477,263.478z M206.214,233.71l-4.463-0.122c0.069-5.024,0.241-9.986,0.472-14.921l4.453,0.165
		C206.481,223.747,206.31,228.715,206.214,233.71z M207.383,203.971l-4.489-0.235c0.258-5.051,0.624-10.009,0.978-14.924
		l4.473,0.344C207.981,194.012,207.631,198.963,207.383,203.971z M209.55,174.341l-4.473-0.426
		c0.476-5.064,0.991-10.002,1.546-14.865l4.456,0.489C210.531,164.385,210.016,169.297,209.55,174.341z M212.86,144.78l-4.423-0.591
		c0.661-5.057,1.358-10.009,2.18-14.802l4.426,0.71C214.231,134.851,213.54,139.766,212.86,144.78z M217.567,115.464l-4.397-0.823
		c0.955-5.034,1.922-9.963,3.013-14.696l4.357,1.001C219.476,105.624,218.512,110.49,217.567,115.464z M224.111,86.571l-4.307-1.189
		c1.394-5.11,2.808-9.956,4.337-14.399l4.212,1.447C226.932,76.78,225.478,81.55,224.111,86.571z M233.627,58.702l-4.06-1.823
		c2.276-5.196,4.694-9.748,7.158-13.464l3.743,2.487C238.126,49.406,235.84,53.71,233.627,58.702z"/>
	<path style="fill:#FFFFFF;" d="M249.991,35.962l-2.236-3.901c2.666-1.556,5.434-2.329,8.225-2.329v4.489
		C253.978,34.221,252.01,34.793,249.991,35.962z"/>
	<path style="fill:#FFFFFF;" d="M451.928,369.149l-3.895-2.246c12.106-20.919-52.161-87.892-167.041-154.238
		C166.096,146.33,75.974,124.188,63.911,145.127l-3.904-2.249c15.327-26.465,113.367,2.484,223.219,65.922
		C393.153,272.239,467.225,342.677,451.928,369.149z"/>
	<path style="fill:#FFFFFF;" d="M85.732,379.157c-11.944,0-21.468-2.725-25.709-10.015l3.888-2.246
		c6.309,10.954,32.808,10.29,72.704-1.833c41.403-12.556,92.689-35.883,144.381-65.728C395.875,233,460.149,166.033,448.053,145.114
		l3.878-2.243c15.301,26.469-58.781,96.89-168.702,160.325c-51.943,30.026-103.546,53.506-145.319,66.167
		C120.868,374.556,101.277,379.157,85.732,379.157z"/>
</g>
<g>
</g>
<g>
</g>
<g>
</g>
<g>
</g>
<g>
</g>
<g>
</g>
<g>
</g>
<g>
</g>
<g>
</g>
<g>
</g>
<g>
</g>
<g>
</g>
<g>
</g>
<g>
</g>
<g>
</g>
</svg>
