<?xml version="1.0" encoding="iso-8859-1"?>
<!-- Generator: Adobe Illustrator 19.0.0, SVG Export Plug-In . SVG Version: 6.00 Build 0)  -->
<svg version="1.1" id="Layer_1" xmlns="http://www.w3.org/2000/svg" xmlns:xlink="http://www.w3.org/1999/xlink" x="0px" y="0px"
	 viewBox="0 0 512 512" style="enable-background:new 0 0 512 512;" xml:space="preserve">
<circle style="fill:#474F59;" cx="256" cy="256" r="256"/>
<g>
	<path style="fill:#FFFFFF;" d="M392.139,176.412c-0.05,0-0.069,0-0.069,0c0-1.021,0.069-2.025,0.069-3.032
		c0-58.751-47.656-106.42-106.404-106.42c-48.016,0-88.635,31.889-101.812,75.601c-8.033-3.785-16.982-5.929-26.413-5.929
		c-34.264,0-62.018,27.787-62.018,62.044c0,7.891,1.47,15.413,4.155,22.366c-0.694-0.069-1.341-0.116-2.038-0.116
		c-21.97,0-39.748,17.808-39.748,39.748c0,21.963,17.775,39.771,39.748,39.771h294.532c34.264,0,62.005-27.78,62.005-62.031
		C454.141,204.156,426.404,176.412,392.139,176.412z"/>
	<polygon style="fill:#FFFFFF;" points="428.94,369.41 421.581,369.41 421.581,338.574 283.754,338.574 283.754,300.445 
		291.097,300.445 291.097,331.244 428.94,331.244 	"/>
	<polygon style="fill:#FFFFFF;" points="90.419,369.41 83.06,369.41 83.06,331.244 220.903,331.244 220.903,300.445 
		228.246,300.445 228.246,338.574 90.419,338.574 	"/>
	<rect x="252.333" y="300.428" style="fill:#FFFFFF;" width="7.356" height="68.965"/>
	<path style="fill:#FFFFFF;" d="M95.922,334.901c0,5.077-4.116,9.19-9.18,9.19c-5.067,0-9.186-4.113-9.186-9.19
		c0-5.057,4.119-9.173,9.186-9.173C91.807,325.724,95.922,329.84,95.922,334.901z"/>
	<path style="fill:#FFFFFF;" d="M233.749,334.901c0,5.077-4.099,9.19-9.18,9.19c-5.067,0-9.183-4.113-9.183-9.19
		c0-5.057,4.116-9.173,9.183-9.173C229.647,325.724,233.749,329.84,233.749,334.901z"/>
	<path style="fill:#FFFFFF;" d="M296.616,334.901c0,5.077-4.116,9.19-9.183,9.19c-5.08,0-9.18-4.113-9.18-9.19
		c0-5.057,4.099-9.173,9.18-9.173C292.501,325.724,296.616,329.84,296.616,334.901z"/>
	<path style="fill:#FFFFFF;" d="M434.444,334.901c0,5.077-4.119,9.19-9.186,9.19c-5.064,0-9.18-4.113-9.18-9.19
		c0-5.057,4.116-9.173,9.18-9.173C430.324,325.724,434.444,329.84,434.444,334.901z"/>
</g>
<g>
	<rect x="26.426" y="369.4" style="fill:#D9D8D7;" width="120.611" height="68.895"/>
	<rect x="195.683" y="369.4" style="fill:#D9D8D7;" width="120.634" height="68.895"/>
	<rect x="364.973" y="369.4" style="fill:#D9D8D7;" width="120.611" height="68.895"/>
</g>
<g>
	<polygon style="fill:#353F49;" points="62.606,391.802 86.743,415.909 110.86,391.802 	"/>
	<polygon style="fill:#353F49;" points="401.89,391.802 426.017,415.909 450.127,391.802 	"/>
	<polygon style="fill:#353F49;" points="280.11,278.049 256,253.939 231.89,278.049 	"/>
</g>
<g>
</g>
<g>
</g>
<g>
</g>
<g>
</g>
<g>
</g>
<g>
</g>
<g>
</g>
<g>
</g>
<g>
</g>
<g>
</g>
<g>
</g>
<g>
</g>
<g>
</g>
<g>
</g>
<g>
</g>
</svg>
