<?xml version="1.0" encoding="iso-8859-1"?>
<!-- Generator: Adobe Illustrator 19.0.0, SVG Export Plug-In . SVG Version: 6.00 Build 0)  -->
<svg version="1.1" id="Layer_1" xmlns="http://www.w3.org/2000/svg" xmlns:xlink="http://www.w3.org/1999/xlink" x="0px" y="0px"
	 viewBox="0 0 512 512" style="enable-background:new 0 0 512 512;" xml:space="preserve">
<circle style="fill:#FF916E;" cx="256" cy="256" r="256"/>
<polygon style="fill:#E6E5E5;" points="313.896,456.393 198.038,456.393 208.576,397.315 303.362,397.315 "/>
<polygon style="fill:#D9D8D7;" points="313.896,456.393 303.362,397.315 208.576,397.315 284.375,456.393 "/>
<g>
	<path style="fill:#FFFFFF;" d="M344.923,465.051H167.024v-3.234c0-1.387,0.522-2.775,1.592-3.842
		c1.057-1.067,2.441-1.582,3.838-1.582h167.021c1.417,0,2.788,0.515,3.848,1.582c1.067,1.067,1.595,2.454,1.595,3.842v3.234H344.923
		z"/>
	<path style="fill:#FFFFFF;" d="M464.592,359.117v28.058c0,5.586-4.588,10.141-10.161,10.141H57.539
		c-5.559,0-10.148-4.555-10.148-10.141v-28.058H464.592z"/>
</g>
<path style="fill:#353F49;" d="M464.592,359.117V92.748c0-5.569-4.588-10.154-10.161-10.154H57.532
	c-5.559,0-10.131,4.588-10.131,10.154v266.369H464.592L464.592,359.117z"/>
<rect x="68.469" y="103.672" style="fill:#FFFFFF;" width="375.015" height="234.387"/>
<polygon style="fill:#2D353E;" points="356.121,82.581 354.403,103.655 91.07,103.655 89.352,82.581 "/>
<polygon style="fill:#D9D8D7;" points="354.403,103.655 335.277,338.052 110.229,338.052 91.07,103.655 "/>
<rect x="110.219" y="33.894" style="fill:#FFFFFF;" width="225.049" height="304.161"/>
<rect x="110.219" y="12.509" style="fill:#353F49;" width="225.049" height="21.385"/>
<rect x="110.219" y="103.672" style="fill:#FFDB79;" width="225.049" height="115.388"/>
<g>
	<polygon style="fill:#FFFFFF;" points="140.328,161.372 153.511,174.549 153.511,148.179 	"/>
	<polygon style="fill:#FFFFFF;" points="305.162,161.372 291.956,174.549 291.956,148.179 	"/>
	<rect x="175.566" y="114.212" style="fill:#FFFFFF;" width="94.324" height="94.314"/>
</g>
<g>
	<polygon style="fill:#474F59;" points="225.079,130.524 220.404,130.524 219.027,137.335 226.443,137.335 	"/>
	<polygon style="fill:#474F59;" points="209.345,133.497 205.295,135.819 207.512,142.405 213.93,138.699 	"/>
	<polygon style="fill:#474F59;" points="197.212,143.928 194.857,147.981 200.076,152.553 203.779,146.155 	"/>
	<polygon style="fill:#474F59;" points="191.904,159.027 191.904,163.711 198.706,165.075 198.706,157.656 	"/>
	<polygon style="fill:#474F59;" points="194.857,174.747 197.212,178.794 203.779,176.574 200.076,170.176 	"/>
	<polygon style="fill:#474F59;" points="205.295,186.903 209.345,189.235 213.93,184.026 207.519,180.316 	"/>
	<polygon style="fill:#474F59;" points="220.408,192.208 225.079,192.208 226.443,185.39 219.027,185.39 	"/>
	<polygon style="fill:#474F59;" points="236.134,189.235 240.191,186.903 237.964,180.316 231.54,184.026 	"/>
	<polygon style="fill:#474F59;" points="248.27,178.794 250.596,174.747 245.393,170.176 241.677,176.574 	"/>
	<polygon style="fill:#474F59;" points="253.575,163.711 253.575,159.027 246.761,157.656 246.761,165.075 	"/>
	<polygon style="fill:#474F59;" points="250.596,147.981 248.27,143.928 241.677,146.155 245.393,152.55 	"/>
	<polygon style="fill:#474F59;" points="240.191,135.819 236.134,133.497 231.54,138.699 237.964,142.405 	"/>
</g>
<path style="fill:#353F49;" d="M222.73,137.051c-13.424,0-24.292,10.894-24.292,24.315c0,13.418,10.868,24.308,24.292,24.308
	c13.424,0,24.318-10.894,24.318-24.308C247.048,147.945,236.154,137.051,222.73,137.051z M222.73,168.098
	c-3.703,0-6.732-3.013-6.732-6.729c0-3.723,3.029-6.735,6.732-6.735c3.716,0,6.735,3.013,6.735,6.735
	C229.465,165.085,226.446,168.098,222.73,168.098z"/>
<path style="fill:#F77B55;" d="M222.73,149.686c-6.438,0-11.65,5.236-11.65,11.68c0,6.438,5.212,11.67,11.65,11.67
	c6.464,0,11.677-5.232,11.677-11.67C234.407,154.921,229.194,149.686,222.73,149.686z M222.73,167.193
	c-3.214,0-5.827-2.613-5.827-5.827c0-3.221,2.613-5.827,5.827-5.827c3.221,0,5.847,2.606,5.847,5.827
	C228.573,164.58,225.947,167.193,222.73,167.193z"/>
<g>
	<rect x="153.811" y="79.476" style="fill:#E6E5E5;" width="137.854" height="7.128"/>
	<rect x="140.328" y="65.219" style="fill:#E6E5E5;" width="164.828" height="7.128"/>
</g>
<rect x="179.2" y="50.959" style="fill:#F77B55;" width="87.076" height="7.132"/>
<g>
	<rect x="140.328" y="282.095" style="fill:#E6E5E5;" width="164.828" height="7.128"/>
	<rect x="140.328" y="267.826" style="fill:#E6E5E5;" width="164.828" height="7.128"/>
	<rect x="140.328" y="253.589" style="fill:#E6E5E5;" width="164.828" height="7.128"/>
</g>
<rect x="140.328" y="239.319" style="fill:#474F59;" width="164.828" height="7.132"/>
<g>
	<rect x="140.328" y="296.365" style="fill:#E6E5E5;" width="164.828" height="7.135"/>
	<rect x="140.328" y="310.635" style="fill:#E6E5E5;" width="82.399" height="7.128"/>
</g>
<polygon style="fill:#FFFFFF;" points="401.745,82.594 389.368,41.967 377.01,82.594 "/>
<polygon style="fill:#CCCBCA;" points="389.368,41.967 401.745,82.594 393.969,82.594 "/>
<rect x="376.997" y="82.581" style="fill:#FFDB79;" width="24.735" height="255.471"/>
<rect x="393.976" y="82.581" style="fill:#FAB83E;" width="7.776" height="255.471"/>
<polygon style="fill:#474F59;" points="394.217,57.863 389.368,41.967 384.505,57.863 "/>
<polygon style="fill:#353F49;" points="394.217,57.863 389.368,41.967 391.158,57.863 "/>
<g>
</g>
<g>
</g>
<g>
</g>
<g>
</g>
<g>
</g>
<g>
</g>
<g>
</g>
<g>
</g>
<g>
</g>
<g>
</g>
<g>
</g>
<g>
</g>
<g>
</g>
<g>
</g>
<g>
</g>
</svg>
