<?xml version="1.0" encoding="iso-8859-1"?>
<!-- Generator: Adobe Illustrator 19.0.0, SVG Export Plug-In . SVG Version: 6.00 Build 0)  -->
<svg version="1.1" id="Layer_1" xmlns="http://www.w3.org/2000/svg" xmlns:xlink="http://www.w3.org/1999/xlink" x="0px" y="0px"
	 viewBox="0 0 512 512" style="enable-background:new 0 0 512 512;" xml:space="preserve">
<path style="fill:#F2F2F2;" d="M447.841,27.895c-35.461,0-64.197,28.739-64.197,64.189v327.834
	c0,35.453-28.733,64.187-64.172,64.187H128.346V92.084c0-35.451,28.741-64.189,64.174-64.189
	C192.52,27.895,447.841,27.895,447.841,27.895z"/>
<g>
	<path style="fill:#CCCBCA;" d="M447.834,27.895c-35.453,0-64.189,28.739-64.189,64.189H512
		C512,56.636,483.264,27.895,447.834,27.895z"/>
	<path style="fill:#CCCBCA;" d="M255.329,419.918H0c0,35.453,28.723,64.187,64.161,64.187h255.306
		C284.042,484.092,255.329,455.372,255.329,419.918z"/>
	<rect x="162.125" y="320.155" style="fill:#CCCBCA;" width="187.75" height="14.249"/>
	<rect x="162.125" y="291.636" style="fill:#CCCBCA;" width="187.75" height="14.241"/>
	<rect x="162.125" y="206.107" style="fill:#CCCBCA;" width="187.75" height="14.249"/>
	<rect x="162.125" y="177.588" style="fill:#CCCBCA;" width="187.75" height="14.262"/>
	<rect x="162.125" y="149.096" style="fill:#CCCBCA;" width="187.75" height="14.257"/>
</g>
<rect x="209.075" y="120.577" style="fill:#474F59;" width="93.878" height="14.249"/>
<g>
	<rect x="162.125" y="348.673" style="fill:#CCCBCA;" width="187.75" height="14.241"/>
	<rect x="162.125" y="377.166" style="fill:#CCCBCA;" width="93.875" height="14.249"/>
</g>
<rect y="248.552" style="fill:#FFDB79;" width="426.752" height="14.879"/>
<g>
	<rect y="257.819" style="fill:#FAB83E;" width="426.752" height="5.612"/>
	<rect x="11.005" y="232.449" style="fill:#FAB83E;" width="14.876" height="16.123"/>
	<rect x="33.331" y="232.449" style="fill:#FAB83E;" width="14.853" height="16.123"/>
</g>
<rect y="217.578" style="fill:#FFDB79;" width="25.882" height="14.858"/>
<rect x="55.624" y="232.449" style="fill:#FAB83E;" width="14.881" height="16.123"/>
<g>
	<rect x="55.624" y="217.578" style="fill:#FFDB79;" width="25.882" height="14.858"/>
	<path style="fill:#FFDB79;" d="M438.444,317.966c-19.267,0-34.967-15.693-34.967-34.988c0-10.693,4.918-20.5,12.757-26.982
		c-7.841-6.492-12.757-16.282-12.757-26.993c0-19.282,15.7-34.972,34.967-34.972c18.299,0,33.372,14.113,34.877,32.051
		c2.519-0.668,5.107-0.996,7.775-0.996c17.034,0,30.904,13.847,30.904,30.909c0,17.044-13.87,30.899-30.904,30.899
		c-2.668,0-5.256-0.315-7.775-1.001C471.816,303.825,456.742,317.966,438.444,317.966z M438.444,208.897
		c-11.072,0-20.073,9.021-20.073,20.109c0,9.521,6.751,17.825,16.072,19.694v14.584c-9.324,1.894-16.072,10.176-16.072,19.694
		c0,11.11,9.001,20.127,20.073,20.127c11.116,0,20.122-9.016,20.122-20.127c0-2.875-0.614-5.709-1.823-8.341l12.332-7.995
		c3.054,3.423,7.424,5.407,12.019,5.407c8.835,0,16.036-7.204,16.036-16.054c0-8.845-7.201-16.033-16.036-16.033
		c-4.595,0-8.965,1.969-12.019,5.412l-12.332-8.01c1.208-2.644,1.823-5.455,1.823-8.364
		C458.565,217.919,449.556,208.897,438.444,208.897z"/>
</g>
<path style="fill:#FAB83E;" d="M481.096,234.349c-4.531,0-8.927,1.423-12.536,4.004l-5.105-3.31
	c0.468-1.971,0.727-3.978,0.727-6.036c0-14.159-11.546-25.702-25.738-25.702c-14.167,0-25.702,11.543-25.702,25.702
	c0,10.601,6.541,19.994,16.09,23.862v6.269c-9.549,3.868-16.09,13.243-16.09,23.841c0,14.203,11.535,25.731,25.702,25.731
	c14.193,0,25.738-11.528,25.738-25.731c0-2.051-0.261-4.058-0.727-6.011l5.105-3.307c3.61,2.58,8.008,3.994,12.536,3.994
	c11.94,0,21.647-9.71,21.647-21.655C502.743,244.061,493.035,234.349,481.096,234.349z M481.096,272.052
	c-4.595,0-8.965-1.984-12.019-5.407l-12.332,7.995c1.208,2.629,1.823,5.466,1.823,8.34c0,11.11-9.009,20.127-20.122,20.127
	c-11.072,0-20.073-9.016-20.073-20.127c0-9.521,6.751-17.8,16.072-19.694v-14.584c-9.324-1.869-16.072-10.173-16.072-19.694
	c0-11.087,9.001-20.109,20.073-20.109c11.116,0,20.122,9.021,20.122,20.109c0,2.906-0.614,5.716-1.823,8.364l12.332,8.01
	c3.054-3.446,7.424-5.412,12.019-5.412c8.835,0,16.036,7.188,16.036,16.033C497.129,264.846,489.93,272.052,481.096,272.052z"/>
<g>
</g>
<g>
</g>
<g>
</g>
<g>
</g>
<g>
</g>
<g>
</g>
<g>
</g>
<g>
</g>
<g>
</g>
<g>
</g>
<g>
</g>
<g>
</g>
<g>
</g>
<g>
</g>
<g>
</g>
</svg>
