<?xml version="1.0" encoding="iso-8859-1"?>
<!-- Generator: Adobe Illustrator 19.0.0, SVG Export Plug-In . SVG Version: 6.00 Build 0)  -->
<svg version="1.1" id="Layer_1" xmlns="http://www.w3.org/2000/svg" xmlns:xlink="http://www.w3.org/1999/xlink" x="0px" y="0px"
	 viewBox="0 0 512 512" style="enable-background:new 0 0 512 512;" xml:space="preserve">
<circle style="fill:#474F59;" cx="256" cy="256" r="256"/>
<path style="fill:#FFFFFF;" d="M426.8,52.918c-31.572,0-57.159,25.583-57.159,57.149V401.94c0,31.566-25.58,57.149-57.133,57.149
	H142.349V110.063c0-31.566,25.587-57.149,57.136-57.149H426.8V52.918z"/>
<g>
	<path style="fill:#CCCBCA;" d="M426.793,52.918c-31.566,0-57.152,25.583-57.152,57.149h114.282
		C483.923,78.501,458.339,52.918,426.793,52.918z"/>
	<path style="fill:#CCCBCA;" d="M255.402,401.94H28.077c0,31.566,25.574,57.149,57.126,57.149h227.305
		C280.969,459.076,255.402,433.502,255.402,401.94z"/>
</g>
<g>
	<rect x="172.428" y="313.113" style="fill:#D9D8D7;" width="167.156" height="12.688"/>
	<rect x="172.428" y="287.744" style="fill:#D9D8D7;" width="167.156" height="12.681"/>
	<rect x="172.428" y="211.605" style="fill:#D9D8D7;" width="167.156" height="12.688"/>
	<rect x="172.428" y="186.203" style="fill:#D9D8D7;" width="167.156" height="12.698"/>
	<rect x="172.428" y="160.821" style="fill:#D9D8D7;" width="167.156" height="12.691"/>
</g>
<rect x="214.214" y="135.432" style="fill:#474F59;" width="83.582" height="12.688"/>
<g>
	<rect x="172.428" y="338.515" style="fill:#D9D8D7;" width="167.156" height="12.681"/>
	<rect x="172.428" y="363.883" style="fill:#D9D8D7;" width="83.582" height="12.688"/>
</g>
<rect x="28.077" y="249.361" style="fill:#FFDB79;" width="379.937" height="13.246"/>
<g>
	<rect x="28.077" y="257.625" style="fill:#FAB83E;" width="379.937" height="4.994"/>
	<rect x="37.875" y="235.025" style="fill:#FAB83E;" width="13.246" height="14.356"/>
	<rect x="57.747" y="235.025" style="fill:#FAB83E;" width="13.213" height="14.356"/>
</g>
<rect x="28.077" y="221.779" style="fill:#FFDB79;" width="23.043" height="13.213"/>
<rect x="77.599" y="235.025" style="fill:#FAB83E;" width="13.246" height="14.356"/>
<g>
	<rect x="77.599" y="221.779" style="fill:#FFDB79;" width="23.047" height="13.213"/>
	<path style="fill:#FFDB79;" d="M418.433,311.167c-17.154,0-31.133-13.969-31.133-31.149c0-9.52,4.377-18.25,11.357-24.018
		c-6.98-5.781-11.357-14.498-11.357-24.031c0-17.17,13.976-31.14,31.133-31.14c16.295,0,29.713,12.565,31.05,28.537
		c2.246-0.595,4.549-0.889,6.924-0.889c15.168,0,27.516,12.328,27.516,27.522c0,15.172-12.347,27.506-27.516,27.506
		c-2.375,0-4.677-0.281-6.924-0.892C448.145,298.579,434.724,311.167,418.433,311.167z M418.433,214.062
		c-9.857,0-17.87,8.037-17.87,17.907c0,8.473,6.009,15.872,14.31,17.534v12.985c-8.301,1.688-14.31,9.057-14.31,17.537
		c0,9.89,8.014,17.92,17.87,17.92c9.896,0,17.917-8.03,17.917-17.92c0-2.56-0.548-5.084-1.622-7.426l10.98-7.118
		c2.719,3.049,6.61,4.816,10.699,4.816c7.868,0,14.277-6.415,14.277-14.29c0-7.878-6.408-14.277-14.277-14.277
		c-4.089,0-7.981,1.754-10.699,4.819l-10.98-7.132c1.074-2.352,1.622-4.859,1.622-7.442
		C436.35,222.096,428.329,214.062,418.433,214.062z"/>
</g>
<path style="fill:#FAB83E;" d="M456.407,236.722c-4.033,0-7.948,1.268-11.162,3.567l-4.545-2.953
	c0.416-1.754,0.647-3.538,0.647-5.371c0-12.605-10.28-22.888-22.918-22.888c-12.612,0-22.885,10.28-22.885,22.888
	c0,9.434,5.824,17.801,14.326,21.243v5.579c-8.503,3.445-14.326,11.789-14.326,21.23c0,12.645,10.27,22.908,22.885,22.908
	c12.635,0,22.918-10.26,22.918-22.908c0-1.827-0.231-3.614-0.647-5.351l4.545-2.946c3.214,2.296,7.128,3.554,11.162,3.554
	c10.633,0,19.274-8.645,19.274-19.278C475.681,245.374,467.04,236.722,456.407,236.722z M456.407,270.29
	c-4.089,0-7.981-1.767-10.699-4.816l-10.98,7.118c1.074,2.342,1.622,4.866,1.622,7.426c0,9.89-8.02,17.92-17.917,17.92
	c-9.857,0-17.87-8.03-17.87-17.92c0-8.476,6.009-15.849,14.31-17.537v-12.985c-8.301-1.662-14.31-9.057-14.31-17.534
	c0-9.87,8.014-17.907,17.87-17.907c9.896,0,17.917,8.037,17.917,17.907c0,2.583-0.548,5.09-1.622,7.442l10.98,7.132
	c2.719-3.065,6.61-4.819,10.699-4.819c7.868,0,14.277,6.402,14.277,14.277C470.683,263.875,464.275,270.29,456.407,270.29z"/>
<g>
</g>
<g>
</g>
<g>
</g>
<g>
</g>
<g>
</g>
<g>
</g>
<g>
</g>
<g>
</g>
<g>
</g>
<g>
</g>
<g>
</g>
<g>
</g>
<g>
</g>
<g>
</g>
<g>
</g>
</svg>
