<?xml version="1.0" encoding="iso-8859-1"?>
<!-- Generator: Adobe Illustrator 19.0.0, SVG Export Plug-In . SVG Version: 6.00 Build 0)  -->
<svg version="1.1" id="Layer_1" xmlns="http://www.w3.org/2000/svg" xmlns:xlink="http://www.w3.org/1999/xlink" x="0px" y="0px"
	 viewBox="0 0 512 512" style="enable-background:new 0 0 512 512;" xml:space="preserve">
<path style="fill:#47555F;" d="M208.097,415.536c-22.091,0-40,17.908-40,40c0,22.091,17.908,40,40,40s40-17.908,40-40
	C248.096,433.445,230.187,415.536,208.097,415.536z M208.097,471.536c-8.836,0-16-7.164-16-16c0-8.837,7.164-16,16-16
	s16,7.163,16,16C224.096,464.372,216.933,471.536,208.097,471.536z"/>
<circle style="fill:#C7B299;" cx="232.093" cy="375.532" r="16"/>
<path style="fill:#192B37;" d="M104.096,239.537c-48.601,0-87.999,39.399-87.999,87.999s39.398,87.999,87.999,87.999
	s87.999-39.398,87.999-87.999S152.697,239.537,104.096,239.537z M104.096,351.537c-13.255,0-24-10.745-24-24s10.745-24,24-24
	s24,10.745,24,24C128.096,340.791,117.352,351.537,104.096,351.537z"/>
<path style="fill:#C7B299;" d="M104.096,263.537c-35.346,0-63.999,28.654-63.999,63.999s28.654,63.999,63.999,63.999
	s63.999-28.654,63.999-63.999S139.443,263.537,104.096,263.537z M104.096,351.537c-13.255,0-24-10.745-24-24s10.745-24,24-24
	s24,10.745,24,24C128.096,340.791,117.352,351.537,104.096,351.537z"/>
<g>
	<path style="fill:#958573;" d="M56.097,327.537c0-32.63,24.438-59.502,55.999-63.447c-2.627-0.329-5.285-0.553-8-0.553
		c-35.346,0-63.999,28.654-63.999,63.999s28.654,63.999,63.999,63.999c2.715,0,5.373-0.225,8-0.553
		C80.535,387.039,56.097,360.168,56.097,327.537z"/>
	<path style="fill:#958573;" d="M112.096,350.067c2.513,0.893,5.179,1.47,8,1.47c13.255,0,24-10.745,24-24s-10.745-24-24-24
		c-2.821,0-5.487,0.576-8,1.47c9.3,3.306,16,12.096,16,22.53S121.397,346.76,112.096,350.067z"/>
</g>
<path style="fill:#C7B299;" d="M356.096,511.072c-19.595,0-35.536-15.942-35.536-35.536v-32c0-2.46-2.002-4.462-4.463-4.462
	c-2.461,0-4.463,2.002-4.463,4.462c0,10.773-8.765,19.536-19.536,19.536h-20v-15.074h20c2.461,0,4.463-2.002,4.463-4.462
	c0-10.773,8.765-19.536,19.536-19.536s19.536,8.764,19.536,19.535v32c0,11.284,9.18,20.463,20.463,20.463
	c11.283,0,20.463-9.18,20.463-20.463v-75.999h15.074v75.999C391.632,495.13,375.69,511.072,356.096,511.072z"/>
<path style="fill:#192B37;" d="M368.095,375.537v8c0,8.836,7.163,16,16,16l0,0c8.836,0,16-7.163,16-16v-8"/>
<rect x="328.091" y="303.541" style="fill:#D9392B;" width="111.996" height="24"/>
<rect x="344.099" y="327.538" style="fill:#73131A;" width="80" height="24"/>
<rect x="360.097" y="351.535" style="fill:#D9392B;" width="48" height="24"/>
<path id="SVGCleanerId_0" style="fill:#FABE78;" d="M504.095,127.538c0-68.161-56.827-123.047-125.687-119.868
	c-61.389,2.835-111.772,53.571-114.214,114.977c-1.263,31.773,9.845,60.916,28.891,83.043
	c23.279,27.046,35.012,62.161,35.012,97.845l0,0h111.999v-0.016c0-36.391,13.081-71.423,36.345-99.406
	C493.706,183.346,504.095,156.663,504.095,127.538z"/>
<g>
	<path id="SVGCleanerId_0_1_" style="fill:#FABE78;" d="M504.095,127.538c0-68.161-56.827-123.047-125.687-119.868
		c-61.389,2.835-111.772,53.571-114.214,114.977c-1.263,31.773,9.845,60.916,28.891,83.043
		c23.279,27.046,35.012,62.161,35.012,97.845l0,0h111.999v-0.016c0-36.391,13.081-71.423,36.345-99.406
		C493.706,183.346,504.095,156.663,504.095,127.538z"/>
</g>
<path style="fill:#F7931E;" d="M378.954,7.67c-6.273,0.289-12.428,1.087-18.432,2.337c54.629,11.231,95.711,59.579,95.711,117.53
	c0,29.125-10.388,55.808-27.655,76.577c-23.263,27.984-36.345,63.015-36.345,99.406v0.016h48.407v-0.016
	c0-36.391,13.082-71.423,36.345-99.406c17.266-20.768,27.655-47.452,27.655-76.577C504.641,59.377,447.815,4.491,378.954,7.67z"/>
<path d="M440.095,311.074H320.559v-7.537c0-35.062-11.786-68.064-33.187-92.93c-21.091-24.505-31.998-55.848-30.71-88.259
	C259.266,56.844,312.591,3.164,378.06,0.141c35.242-1.628,68.662,10.856,94.101,35.146c25.453,24.306,39.471,57.067,39.471,92.251
	c0,29.687-10.44,58.593-29.396,81.395c-22.315,26.841-34.604,60.433-34.604,94.588v7.537L440.095,311.074z M335.467,296.001h97.273
	c1.675-35.056,14.985-69.134,37.905-96.704c16.712-20.1,25.914-45.584,25.914-71.758c0-31.025-12.361-59.915-34.808-81.349
	c-22.432-21.42-51.921-32.428-82.996-30.99c-27.799,1.283-54.155,13.112-74.213,33.308c-20.058,20.194-31.713,46.63-32.818,74.441
	c-1.137,28.584,8.478,56.224,27.072,77.827C321,226.573,333.879,260.147,335.467,296.001z"/>
<rect x="320.032" y="320.061" width="127.623" height="15.074"/>
<rect x="336.11" y="344.179" width="96.471" height="15.074"/>
<path d="M416.503,368.299H352.19v15.074h8.369v0.165c0,12.978,10.559,23.537,23.537,23.537s23.537-10.559,23.537-23.537v-0.165
	h8.871V368.299z M392.559,383.537c0,4.667-3.797,8.463-8.463,8.463s-8.463-3.797-8.463-8.463v-0.165h16.927V383.537z"/>
<polygon points="359.224,287.906 344.15,287.906 344.15,224.366 328.331,153.361 343.044,150.084 359.224,222.708 "/>
<polygon points="423.538,287.906 408.464,287.906 408.464,222.708 424.645,150.084 439.357,153.361 423.538,224.366 "/>
<polygon style="fill:#FFFFFF;" points="384.095,167.964 352.095,151.964 323.466,166.279 316.725,152.797 352.095,135.112 
	384.095,151.112 416.095,135.112 451.466,152.797 444.724,166.279 416.095,151.964 "/>
<path d="M104.096,359.073c-17.39,0-31.537-14.147-31.537-31.537S86.706,296,104.096,296s31.537,14.147,31.537,31.537
	S121.486,359.073,104.096,359.073z M104.096,311.074c-9.077,0-16.463,7.386-16.463,16.463c0,9.077,7.386,16.463,16.463,16.463
	s16.463-7.386,16.463-16.463C120.559,318.46,113.174,311.074,104.096,311.074z"/>
<path d="M104.096,399.074c-39.445,0-71.537-32.092-71.537-71.537S64.651,256,104.096,256s71.537,32.092,71.537,71.537
	S143.542,399.074,104.096,399.074z M104.096,271.074c-31.133,0-56.463,25.33-56.463,56.463s25.33,56.463,56.463,56.463
	s56.463-25.33,56.463-56.463S135.23,271.074,104.096,271.074z"/>
<path d="M208.097,479.072c-12.978,0-23.537-10.559-23.537-23.537c0-12.978,10.559-23.537,23.537-23.537s23.537,10.559,23.537,23.537
	C231.633,468.513,221.075,479.072,208.097,479.072z M208.097,447.073c-4.667,0-8.463,3.797-8.463,8.463s3.797,8.463,8.463,8.463
	s8.463-3.797,8.463-8.463S212.762,447.073,208.097,447.073z"/>
<path d="M159.519,405.311l5.654,6.739l11.546-9.69l-5.664-6.75c4.331-4.261,8.258-8.931,11.719-13.946l7.62,4.399l7.537-13.054
	l-7.596-4.385c2.605-5.446,4.711-11.173,6.254-17.127l8.618,1.519l2.618-14.843l-8.629-1.521c0.285-3.001,0.437-6.04,0.437-9.115
	c0-3.075-0.152-6.115-0.437-9.116l8.63-1.521l-2.618-14.843l-8.618,1.519c-1.544-5.952-3.649-11.68-6.254-17.126l7.596-4.385
	l-7.537-13.054l-7.62,4.399c-3.461-5.015-7.388-9.685-11.719-13.946l5.664-6.751l-11.546-9.69l-5.655,6.739
	c-4.929-3.522-10.207-6.587-15.768-9.135l2.999-8.24l-14.165-5.156l-2.995,8.228c-5.979-1.657-12.191-2.747-18.577-3.207v-8.66
	H95.939v8.76c-5.949,0.505-11.745,1.558-17.336,3.107l-2.995-8.228l-14.165,5.156l2.999,8.24
	c-5.562,2.547-10.839,5.611-15.768,9.135l-5.655-6.739l-11.546,9.69l5.664,6.751c-4.331,4.261-8.258,8.931-11.719,13.946
	l-7.62-4.399l-7.537,13.054l7.596,4.385c-2.605,5.446-4.71,11.174-6.254,17.126l-8.619-1.519l-2.617,14.843l8.629,1.521
	c-0.285,3.002-0.437,6.041-0.437,9.116c0,3.075,0.152,6.114,0.437,9.115l-8.628,1.521l2.617,14.843l8.619-1.519
	c1.544,5.953,3.649,11.681,6.254,17.127l-7.596,4.385l7.537,13.054l7.62-4.399c3.461,5.015,7.388,9.685,11.719,13.946l-5.664,6.75
	l11.546,9.69l5.654-6.739c4.929,3.522,10.207,6.587,15.769,9.135l-2.999,8.239l14.165,5.156l2.995-8.228
	c5.591,1.55,11.387,2.602,17.336,3.107v8.885h15.074v-8.786c6.385-0.459,12.597-1.55,18.577-3.207l2.995,8.228l14.165-5.156
	l-2.999-8.239C149.312,411.899,154.59,408.834,159.519,405.311z M23.634,327.537c0-44.367,36.095-80.463,80.463-80.463
	s80.463,36.095,80.463,80.463s-36.095,80.463-80.463,80.463S23.634,371.905,23.634,327.537z"/>
<path d="M255.133,448.691c-1.124-7.76-4.132-14.914-8.54-20.993l6.43-6.43l-10.659-10.657l-6.429,6.429
	c-5.927-4.298-12.876-7.267-20.412-8.455v-9.134H200.45v9.173c-7.451,1.211-14.321,4.164-20.19,8.419l-6.432-6.432l-10.659,10.657
	l6.43,6.43c-4.408,6.078-7.415,13.234-8.54,20.993h-8.845v15.074h9.073c1.267,7.226,4.167,13.895,8.312,19.611l-6.43,6.43
	l10.659,10.657l6.429-6.429c5.87,4.256,12.74,7.205,20.192,8.416V512h15.074v-9.511c7.537-1.188,14.485-4.157,20.412-8.455
	l6.429,6.429l10.659-10.657l-6.43-6.43c4.145-5.716,7.045-12.383,8.312-19.611h8.853v-15.074H255.133z M208.097,487.999
	c-17.9,0-32.463-14.563-32.463-32.463c0-17.9,14.563-32.462,32.463-32.462s32.463,14.562,32.463,32.462
	C240.56,473.436,225.996,487.999,208.097,487.999z"/>
<path d="M254.489,368.299c-2.288-7.061-7.829-12.668-14.848-15.051v-10.071h-15.074v10.067c-7.027,2.38-12.574,7.989-14.865,15.055
	h-9.253v15.074h9.456c2.403,6.786,7.834,12.147,14.662,14.46v9.658h15.074v-9.663c6.82-2.315,12.245-7.673,14.646-14.455h9.471
	v-15.074H254.489z M232.096,384c-4.667,0-8.463-3.797-8.463-8.463s3.797-8.463,8.463-8.463c4.667,0,8.463,3.797,8.463,8.463
	S236.762,384,232.096,384z"/>
<g>
	<path style="fill:#FFFFFF;" d="M447.941,113.668c-0.454-4.223-1.124-8.409-1.991-12.443l14.738-3.165
		c0.976,4.544,1.73,9.253,2.24,13.995L447.941,113.668z"/>
	<path style="fill:#FFFFFF;" d="M440.65,83.674c-9.8-24.685-25.362-36.259-25.518-36.372l8.814-12.229
		c0.778,0.559,19.191,14.008,30.714,43.041L440.65,83.674z"/>
</g>
<g>
</g>
<g>
</g>
<g>
</g>
<g>
</g>
<g>
</g>
<g>
</g>
<g>
</g>
<g>
</g>
<g>
</g>
<g>
</g>
<g>
</g>
<g>
</g>
<g>
</g>
<g>
</g>
<g>
</g>
</svg>
