<?xml version="1.0" encoding="iso-8859-1"?>
<!-- Generator: Adobe Illustrator 19.0.0, SVG Export Plug-In . SVG Version: 6.00 Build 0)  -->
<svg version="1.1" id="Layer_1" xmlns="http://www.w3.org/2000/svg" xmlns:xlink="http://www.w3.org/1999/xlink" x="0px" y="0px"
	 viewBox="0 0 511.995 511.995" style="enable-background:new 0 0 511.995 511.995;" xml:space="preserve">
<g>
	<rect x="259.738" y="248.524" style="fill:#474F59;" width="6.193" height="7.757"/>
	<path style="fill:#474F59;" d="M265.923,233.681h-6.193v-14.858h6.193V233.681z M265.923,203.967h-6.193v-14.863h6.193V203.967z
		 M265.923,174.248h-6.193v-14.856h6.193V174.248z M265.923,144.534h-6.193V129.67h6.193V144.534z M265.923,114.822h-6.193V99.959
		h6.193V114.822z"/>
	<rect x="259.738" y="77.362" style="fill:#474F59;" width="6.193" height="7.757"/>
	<rect x="259.738" y="256.28" style="fill:#474F59;" width="6.193" height="7.757"/>
	<path style="fill:#474F59;" d="M265.923,412.609h-6.193v-14.856h6.193V412.609z M265.923,382.895h-6.193v-14.858h6.193V382.895z
		 M265.923,353.176h-6.193v-14.851h6.193V353.176z M265.923,323.465h-6.193v-14.858h6.193V323.465z M265.923,293.748h-6.193v-14.856
		h6.193V293.748z"/>
	<rect x="259.738" y="427.467" style="fill:#474F59;" width="6.193" height="7.757"/>
	
		<rect x="108.132" y="339.966" transform="matrix(-0.4989 -0.8667 0.8667 -0.4989 -131.2663 611.7642)" style="fill:#474F59;" width="6.198" height="7.731"/>
	<path style="fill:#474F59;" d="M129.001,337.128l-3.1-5.373l12.861-7.432l3.103,5.373L129.001,337.128z M154.734,322.277
		l-3.1-5.371l12.864-7.432l3.098,5.373L154.734,322.277z M180.467,307.414l-3.1-5.373l12.867-7.424l3.095,5.373L180.467,307.414z
		 M206.198,292.563l-3.1-5.379l12.864-7.424l3.098,5.366L206.198,292.563z M231.936,277.702l-3.103-5.366l12.869-7.432l3.105,5.373
		L231.936,277.702z"/>
	<polygon style="fill:#474F59;" points="257.674,262.844 254.572,257.473 256.632,256.285 254.572,255.1 257.674,249.737 
		269.028,256.285 	"/>
	<path style="fill:#474F59;" d="M241.702,247.671l-12.869-7.432l3.103-5.371l12.872,7.432L241.702,247.671z M215.969,232.82
		l-12.869-7.432l3.1-5.379l12.869,7.437L215.969,232.82z M190.234,217.949l-12.867-7.419l3.1-5.371l12.861,7.424L190.234,217.949z
		 M164.498,203.099l-12.864-7.432l3.1-5.371l12.861,7.432L164.498,203.099z M138.765,188.243l-12.864-7.432l3.1-5.371l12.867,7.432
		L138.765,188.243z"/>
	
		<rect x="107.347" y="165.666" transform="matrix(-0.8663 -0.4996 0.4996 -0.8663 123.2418 370.5204)" style="fill:#474F59;" width="7.731" height="6.198"/>
	
		<rect x="411.33" y="164.892" transform="matrix(-0.5004 -0.8658 0.8658 -0.5004 475.6938 612.0365)" style="fill:#474F59;" width="6.205" height="7.757"/>
	<path style="fill:#474F59;" d="M283.965,247.671l-3.113-5.373l12.867-7.432l3.108,5.371L283.965,247.671z M309.699,232.82
		l-3.108-5.373l12.869-7.437l3.1,5.376L309.699,232.82z M335.421,217.949l-3.092-5.366l12.861-7.424l3.1,5.371L335.421,217.949z
		 M361.149,203.099l-3.1-5.373l12.867-7.432l3.1,5.371L361.149,203.099z M386.883,188.243l-3.1-5.371l12.867-7.432l3.1,5.371
		L386.883,188.243z"/>
	<polygon style="fill:#474F59;" points="267.988,262.844 256.637,256.285 267.988,249.737 271.089,255.1 269.028,256.285 
		271.089,257.473 	"/>
	<path style="fill:#474F59;" d="M396.649,337.128l-12.867-7.432l3.1-5.373l12.867,7.432L396.649,337.128z M370.918,322.277
		l-12.867-7.429l3.1-5.373l12.867,7.432L370.918,322.277z M345.185,307.414l-12.867-7.424l3.1-5.373l12.867,7.424L345.185,307.414z
		 M319.46,292.563l-12.869-7.437l3.108-5.366l12.861,7.424L319.46,292.563z M293.719,277.705l-12.867-7.429l3.113-5.373
		l12.861,7.432L293.719,277.705z"/>
	
		<rect x="410.548" y="340.692" transform="matrix(-0.8661 -0.4998 0.4998 -0.8661 601.5406 848.696)" style="fill:#474F59;" width="7.757" height="6.198"/>
	<polygon style="fill:#474F59;" points="262.822,438.793 254.561,434.031 257.664,428.658 262.822,431.638 267.983,428.658 
		271.083,434.031 	"/>
	<path style="fill:#474F59;" d="M241.695,426.6l-12.867-7.432l3.103-5.371l12.869,7.429L241.695,426.6z M215.962,411.741
		l-12.864-7.429l3.1-5.366l12.861,7.424L215.962,411.741z M190.234,396.878l-12.867-7.424l3.1-5.373l12.861,7.424L190.234,396.878z
		 M164.498,382.022l-12.864-7.429l3.1-5.366l12.861,7.424L164.498,382.022z M138.765,367.167l-12.861-7.432l3.1-5.373l12.867,7.439
		L138.765,367.167z"/>
	<polygon style="fill:#474F59;" points="113.032,352.301 104.773,347.539 104.773,338.001 110.971,338.001 110.971,343.955 
		116.132,346.932 	"/>
	<path style="fill:#474F59;" d="M110.971,323.145h-6.198v-14.858h6.198V323.145z M110.971,293.431h-6.198v-14.863h6.198V293.431z
		 M104.773,263.712v-14.851h6.198v14.851H104.773z M110.971,233.998h-6.198v-14.863h6.198V233.998z M110.971,204.284h-6.198v-14.856
		h6.198V204.284z"/>
	<polygon style="fill:#474F59;" points="110.971,174.573 104.773,174.573 104.773,165.034 113.032,160.265 116.132,165.636 
		110.971,168.611 	"/>
	<path style="fill:#474F59;" d="M129.001,158.204l-3.1-5.371l12.861-7.424l3.103,5.366L129.001,158.204z M154.734,143.348
		l-3.1-5.373l12.864-7.432l3.098,5.371L154.734,143.348z M180.467,128.485l-3.1-5.371l12.867-7.424l3.095,5.371L180.467,128.485z
		 M206.198,113.629l-3.1-5.366l12.864-7.432l3.098,5.366L206.198,113.629z M231.931,98.771l-3.103-5.371l12.867-7.432l3.105,5.371
		L231.931,98.771z"/>
	<polygon style="fill:#474F59;" points="257.669,83.908 254.564,78.537 262.822,73.775 271.083,78.537 267.983,83.908 
		262.822,80.936 	"/>
	<path style="fill:#474F59;" d="M396.649,158.204l-12.867-7.432l3.1-5.366l12.867,7.424L396.649,158.204z M370.918,143.341
		l-12.867-7.432l3.1-5.358l12.867,7.432L370.918,143.341z M345.185,128.485l-12.867-7.424l3.1-5.371l12.867,7.424L345.185,128.485z
		 M319.452,113.629l-12.867-7.432l3.1-5.366l12.867,7.432L319.452,113.629z M293.714,98.771l-12.869-7.432l3.105-5.371l12.869,7.432
		L293.714,98.771z"/>
	<polygon style="fill:#474F59;" points="420.872,174.573 414.679,174.573 414.679,168.611 409.516,165.636 412.621,160.265 
		420.872,165.034 	"/>
	<path style="fill:#474F59;" d="M420.872,323.145h-6.193v-14.858h6.193V323.145z M420.872,293.431h-6.193v-14.863h6.193V293.431z
		 M420.872,263.712h-6.193v-14.851h6.193V263.712z M420.872,233.998h-6.193v-14.863h6.193V233.998z M420.872,204.284h-6.193v-14.856
		h6.193V204.284z"/>
	<polygon style="fill:#474F59;" points="412.621,352.301 409.516,346.932 414.679,343.955 414.679,338.001 420.872,338.001 
		420.872,347.539 	"/>
	<path style="fill:#474F59;" d="M283.95,426.6l-3.105-5.373l12.869-7.429l3.105,5.371L283.95,426.6z M309.686,411.741l-3.1-5.371
		l12.867-7.432l3.1,5.373L309.686,411.741z M335.416,396.878l-3.1-5.373l12.867-7.424l3.1,5.373L335.416,396.878z M361.149,382.022
		l-3.1-5.371l12.867-7.432l3.1,5.373L361.149,382.022z M386.883,367.167l-3.1-5.366l12.867-7.439l3.1,5.373L386.883,367.167z"/>
</g>
<g>
	<path style="fill:#353F49;" d="M282.949,244.668c6.426,11.116,2.616,25.334-8.497,31.739c-11.133,6.433-25.339,2.621-31.752-8.497
		c-6.426-11.116-2.616-25.334,8.504-31.747C262.318,229.741,276.539,233.548,282.949,244.668z"/>
	<path style="fill:#353F49;" d="M128,155.204c6.42,11.113,2.611,25.334-8.504,31.739c-11.121,6.431-25.334,2.611-31.747-8.499
		c-6.426-11.113-2.624-25.329,8.504-31.752C107.369,140.274,121.582,144.083,128,155.204z"/>
</g>
<path style="fill:#D9D8D7;" d="M282.949,65.734c6.426,11.128,2.616,25.341-8.497,31.747c-11.128,6.431-25.339,2.624-31.752-8.497
	c-6.426-11.108-2.611-25.329,8.512-31.754C262.318,50.817,276.539,54.627,282.949,65.734z"/>
<path style="fill:#353F49;" d="M437.911,155.204c6.41,11.113,2.611,25.334-8.512,31.739c-11.113,6.431-25.329,2.611-31.739-8.499
	c-6.431-11.113-2.621-25.329,8.497-31.752C417.27,140.269,431.485,144.083,437.911,155.204z"/>
<path style="fill:#D9D8D7;" d="M437.911,334.127c6.41,11.116,2.611,25.331-8.512,31.747c-11.121,6.426-25.329,2.616-31.739-8.512
	c-6.431-11.113-2.629-25.329,8.497-31.739C417.27,319.2,431.485,323.014,437.911,334.127z"/>
<path style="fill:#353F49;" d="M282.949,423.584c6.426,11.123,2.616,25.336-8.509,31.759c-11.116,6.413-25.329,2.606-31.739-8.509
	c-6.426-11.121-2.611-25.334,8.504-31.747C262.318,408.662,276.539,412.471,282.949,423.584z"/>
<path style="fill:#D9D8D7;" d="M128,334.127c6.42,11.116,2.611,25.331-8.512,31.754c-11.121,6.418-25.329,2.611-31.739-8.52
	c-6.426-11.113-2.624-25.329,8.504-31.734C107.369,319.2,121.582,323.014,128,334.127z"/>
<circle style="fill:#353F49;" cx="501.888" cy="211.557" r="10.107"/>
<g>
	<path style="fill:#D9D8D7;" d="M394.532,44.015c-8.929,0-16.174-7.247-16.174-16.169c0-8.927,7.245-16.182,16.174-16.182
		c8.934,0,16.174,7.252,16.174,16.182C410.708,36.768,403.466,44.015,394.532,44.015z"/>
	<path style="fill:#D9D8D7;" d="M9.572,269.738c-5.279,0-9.572-4.293-9.572-9.577c0-5.292,4.293-9.577,9.572-9.577
		c5.292,0,9.585,4.285,9.585,9.577C19.156,265.445,14.863,269.738,9.572,269.738z"/>
</g>
<path style="fill:#353F49;" d="M380.908,452.417c-7.519,0-13.617-6.1-13.617-13.617c0-7.529,6.1-13.624,13.617-13.624
	c7.524,0,13.624,6.095,13.624,13.624C394.532,446.317,388.431,452.417,380.908,452.417z"/>
<g>
	<path style="fill:#D9D8D7;" d="M449.528,500.33c-11.159,0-20.214-9.06-20.214-20.219c0-11.154,9.055-20.214,20.214-20.214
		s20.214,9.06,20.214,20.214C469.742,491.27,460.687,500.33,449.528,500.33z"/>
	<path style="fill:#D9D8D7;" d="M107.597,489.814c-15.921,0-28.823-12.91-28.823-28.826c0-15.931,12.902-28.828,28.823-28.828
		s28.828,12.897,28.828,28.828C136.428,476.904,123.517,489.814,107.597,489.814z"/>
</g>
<circle style="fill:#353F49;" cx="92.032" cy="64.332" r="20.342"/>
<g>
</g>
<g>
</g>
<g>
</g>
<g>
</g>
<g>
</g>
<g>
</g>
<g>
</g>
<g>
</g>
<g>
</g>
<g>
</g>
<g>
</g>
<g>
</g>
<g>
</g>
<g>
</g>
<g>
</g>
</svg>
