<?xml version="1.0" encoding="iso-8859-1"?>
<!-- Generator: Adobe Illustrator 19.0.0, SVG Export Plug-In . SVG Version: 6.00 Build 0)  -->
<svg version="1.1" id="Layer_1" xmlns="http://www.w3.org/2000/svg" xmlns:xlink="http://www.w3.org/1999/xlink" x="0px" y="0px"
	 viewBox="0 0 512 512" style="enable-background:new 0 0 512 512;" xml:space="preserve">
<polygon style="fill:#D9D8D7;" points="296.412,498.867 167.552,498.867 179.269,433.16 284.695,433.16 "/>
<polygon style="fill:#CCCBCA;" points="296.412,498.867 284.695,433.16 179.269,433.16 263.58,498.867 "/>
<g>
	<path style="fill:#E6E5E5;" d="M330.921,508.498H133.059v-3.592c0-1.546,0.586-3.082,1.772-4.273
		c1.18-1.185,2.719-1.764,4.27-1.764h185.761c1.577,0,3.105,0.581,4.283,1.764c1.19,1.19,1.774,2.724,1.774,4.273v3.592H330.921z"/>
	<path style="fill:#E6E5E5;" d="M464.028,390.674v31.201c0,6.213-5.105,11.282-11.302,11.282H11.284
		C5.1,433.157,0,428.088,0,421.875v-31.201H464.028z"/>
</g>
<path style="fill:#353F49;" d="M464.028,390.674V94.413c0-6.195-5.105-11.295-11.302-11.295H11.279
	c-6.185,0-11.272,5.1-11.272,11.295v296.264h464.02V390.674z"/>
<rect x="23.437" y="106.563" style="fill:#FFFFFF;" width="417.126" height="260.685"/>
<g>
	<rect x="357.734" y="106.563" style="fill:#474F59;" width="7.483" height="3.74"/>
	<path style="fill:#474F59;" d="M365.207,316.989h-7.483v-7.378h7.483V316.989z M365.207,302.231h-7.483v-7.386h7.483V302.231z
		 M365.207,287.467h-7.483v-7.383h7.483V287.467z M365.207,272.701h-7.483v-7.383h7.483V272.701z M365.207,257.938h-7.483v-7.38
		h7.483V257.938z M365.207,243.177h-7.483v-7.383h7.483V243.177z M365.207,228.413h-7.483v-7.383h7.483V228.413z M365.207,213.65
		h-7.483v-7.383h7.483V213.65z M365.207,198.884h-7.483v-7.383h7.483V198.884z M365.207,184.12h-7.483v-7.38h7.483V184.12z
		 M365.207,169.357h-7.483v-7.38h7.483V169.357z M365.207,154.593h-7.483v-7.38h7.483V154.593z M365.207,139.83h-7.483v-7.38h7.483
		V139.83z M365.207,125.066h-7.483v-7.38h7.483V125.066z"/>
	<rect x="357.734" y="324.378" style="fill:#474F59;" width="7.483" height="7.483"/>
	<path style="fill:#474F59;" d="M350.106,331.855h-7.621v-7.483h7.621V331.855z M334.868,331.855h-7.621v-7.483h7.621V331.855z
		 M319.626,331.855h-7.621v-7.483h7.621V331.855z M304.392,331.855h-7.621v-7.483h7.621V331.855z M289.149,331.855h-7.621v-7.483
		h7.621V331.855z M273.915,331.855h-7.621v-7.483h7.621V331.855z M258.675,331.855h-7.619v-7.483h7.619V331.855z M243.436,331.855
		h-7.619v-7.483h7.619V331.855z M228.198,331.855h-7.619v-7.483h7.619V331.855z M212.959,331.855h-7.619v-7.483h7.619V331.855z
		 M197.719,331.855H190.1v-7.483h7.619V331.855z M182.482,331.855h-7.619v-7.483h7.619V331.855z M167.242,331.855h-7.619v-7.483
		h7.619V331.855z M152.003,331.855h-7.619v-7.483h7.619V331.855z M136.765,331.855h-7.619v-7.483h7.619V331.855z M121.526,331.855
		h-7.619v-7.483h7.619V331.855z"/>
	<rect x="98.808" y="324.378" style="fill:#474F59;" width="7.48" height="7.483"/>
	<path style="fill:#474F59;" d="M106.289,316.989h-7.48v-7.383h7.48V316.989z M106.289,302.231h-7.48v-7.386h7.48V302.231z
		 M106.289,287.462h-7.48v-7.383h7.48V287.462z M106.289,272.701h-7.48v-7.383h7.48V272.701z M106.289,257.935h-7.48v-7.38h7.48
		V257.935z M106.289,243.174h-7.48v-7.383h7.48V243.174z M106.289,228.411h-7.48v-7.383h7.48V228.411z M106.289,213.647h-7.48
		v-7.383h7.48V213.647z M106.289,198.884h-7.48v-7.383h7.48V198.884z M106.289,184.12h-7.48v-7.38h7.48V184.12z M106.289,169.357
		h-7.48v-7.38h7.48V169.357z M106.289,154.593h-7.48v-7.38h7.48V154.593z M106.289,139.83h-7.48v-7.38h7.48V139.83z
		 M106.289,125.066h-7.48v-7.383h7.48V125.066z"/>
	<rect x="98.808" y="106.563" style="fill:#474F59;" width="7.48" height="3.74"/>
</g>
<path style="fill:#353F49;" d="M133.635,14.17c0-5.896,4.782-10.668,10.739-10.668h175.291c5.942,0,10.719,4.769,10.719,10.668
	v264.151c0,5.875-4.774,10.66-10.719,10.66H144.374c-5.96,0-10.739-4.785-10.739-10.66V14.17z"/>
<g>
	<path style="fill:#474F59;" d="M221.161,277.043c-2.586,0-4.741-2.086-4.741-4.774v-1.165c0-2.652,2.156-4.744,4.741-4.744h21.704
		c2.583,0,4.772,2.089,4.772,4.744v1.162c0,2.688-2.189,4.774-4.772,4.774h-21.704V277.043z"/>
	<path style="fill:#474F59;" d="M231.982,22.356c-2.719,0-4.887-2.194-4.887-4.915c0-2.729,2.171-4.936,4.887-4.936
		c2.739,0,4.954,2.207,4.954,4.936C236.936,20.16,234.721,22.356,231.982,22.356z"/>
</g>
<path style="fill:#353F49;" d="M232.01,19.466c-1.132,0-2.01-0.896-2.01-2.028c0-1.144,0.878-2.025,2.01-2.025
	c1.144,0,2.028,0.881,2.028,2.025C234.038,18.573,233.155,19.466,232.01,19.466z"/>
<rect x="144.794" y="31.393" style="fill:#FFFFFF;" width="174.438" height="223.053"/>
<g>
	<rect x="157.568" y="213.914" style="fill:#F77B55;" width="148.89" height="8.717"/>
	<rect x="157.568" y="194.867" style="fill:#F77B55;" width="148.89" height="8.701"/>
	<rect x="157.568" y="175.846" style="fill:#F77B55;" width="148.89" height="8.691"/>
	<rect x="157.568" y="232.96" style="fill:#F77B55;" width="148.89" height="8.709"/>
	<rect x="157.568" y="118.349" style="fill:#F77B55;" width="148.89" height="47.171"/>
	<rect x="157.568" y="44.168" style="fill:#F77B55;" width="68.26" height="63.852"/>
	<rect x="238.157" y="44.168" style="fill:#F77B55;" width="68.285" height="63.852"/>
</g>
<path style="fill:#353F49;" d="M496.714,288.98h-88.847c-8.412,0-15.314,6.879-15.314,15.311v188.895
	c0,8.43,6.902,15.309,15.314,15.309h88.847c8.42,0,15.286-6.881,15.286-15.309V304.292C512,295.857,505.134,288.98,496.714,288.98z"
	/>
<rect x="401.229" y="322.176" style="fill:#FFFFFF;" width="102.111" height="153.162"/>
<g>
	<rect x="409.062" y="451.2" style="fill:#F77B55;" width="86.426" height="5.11"/>
	<rect x="409.062" y="440.038" style="fill:#F77B55;" width="86.426" height="5.097"/>
	<rect x="409.062" y="428.877" style="fill:#F77B55;" width="86.426" height="5.11"/>
	<rect x="409.062" y="462.387" style="fill:#F77B55;" width="86.426" height="5.069"/>
	<rect x="409.062" y="330.01" style="fill:#F77B55;" width="86.426" height="64.461"/>
	<rect x="409.062" y="399.642" style="fill:#F77B55;" width="86.426" height="24.079"/>
</g>
<g>
	<path style="fill:#474F59;" d="M442.808,496.632c-2.235,0-4.088-1.838-4.088-4.122v-1.231c0-2.253,1.853-4.106,4.088-4.106h18.949
		c2.235,0,4.083,1.856,4.083,4.106v1.231c0,2.286-1.848,4.122-4.083,4.122H442.808z"/>
	<path style="fill:#474F59;" d="M456.146,305.574c0,2.125-1.71,3.85-3.858,3.85c-2.117,0-3.843-1.725-3.843-3.85
		c0-2.117,1.725-3.876,3.843-3.876C454.436,301.701,456.146,303.457,456.146,305.574z"/>
</g>
<path style="fill:#353F49;" d="M453.832,305.574c0,0.832-0.691,1.503-1.546,1.503c-0.84,0-1.544-0.671-1.544-1.503
	c0-0.858,0.701-1.546,1.544-1.546C453.143,304.031,453.832,304.717,453.832,305.574z"/>
<g>
</g>
<g>
</g>
<g>
</g>
<g>
</g>
<g>
</g>
<g>
</g>
<g>
</g>
<g>
</g>
<g>
</g>
<g>
</g>
<g>
</g>
<g>
</g>
<g>
</g>
<g>
</g>
<g>
</g>
</svg>
