<?xml version="1.0" encoding="iso-8859-1"?>
<!-- Generator: Adobe Illustrator 19.0.0, SVG Export Plug-In . SVG Version: 6.00 Build 0)  -->
<svg version="1.1" id="Layer_1" xmlns="http://www.w3.org/2000/svg" xmlns:xlink="http://www.w3.org/1999/xlink" x="0px" y="0px"
	 viewBox="0 0 512 512" style="enable-background:new 0 0 512 512;" xml:space="preserve">
<circle style="fill:#FFDB79;" cx="256" cy="256" r="256"/>
<polygon style="fill:#E6E5E5;" points="312.865,456.225 199.076,456.225 209.418,398.204 302.516,398.204 "/>
<polygon style="fill:#D9D8D7;" points="312.865,456.225 302.516,398.204 209.418,398.204 283.873,456.225 "/>
<g>
	<path style="fill:#FFFFFF;" d="M343.334,464.728H168.613v-3.171c0-1.368,0.515-2.722,1.566-3.776
		c1.041-1.044,2.401-1.559,3.772-1.559h164.038c1.394,0,2.742,0.512,3.782,1.559c1.05,1.05,1.569,2.408,1.569,3.776v3.171H343.334z"
		/>
	<path style="fill:#FFFFFF;" d="M460.876,360.686v27.552c0,5.487-4.509,9.966-9.979,9.966H61.08c-5.46,0-9.966-4.476-9.966-9.966
		v-27.552H460.876z"/>
</g>
<path style="fill:#353F49;" d="M460.876,360.686V99.07c0-5.47-4.509-9.976-9.979-9.976H61.077c-5.46,0-9.956,4.502-9.956,9.976
	v261.615H460.876z"/>
<rect x="71.812" y="109.799" style="fill:#FFFFFF;" width="368.343" height="230.202"/>
<g>
	<rect x="367.021" y="109.799" style="fill:#474F59;" width="6.606" height="6.606"/>
	<path style="fill:#474F59;" d="M373.611,284.804h-6.606v-14.035h6.606V284.804z M373.611,256.737h-6.606v-14.032h6.606V256.737z
		 M373.611,228.672h-6.606v-14.035h6.606V228.672z M373.611,200.602h-6.606v-14.032h6.606V200.602z M373.611,172.537h-6.606v-14.035
		h6.606V172.537z M373.611,144.47h-6.606v-14.032h6.606V144.47z"/>
	<polygon style="fill:#474F59;" points="373.611,308.746 363.702,308.746 363.702,302.139 367.005,302.139 367.005,298.836 
		373.611,298.836 	"/>
	<path style="fill:#474F59;" d="M351.034,308.746h-12.671v-6.606h12.671V308.746z M325.688,308.746h-12.671v-6.606h12.671V308.746z
		 M300.346,308.746h-12.674v-6.606h12.674V308.746z M275,308.746h-12.671v-6.606H275V308.746z M249.658,308.746h-12.674v-6.606
		h12.674V308.746z M224.312,308.746h-12.674v-6.606h12.674V308.746z M198.967,308.746h-12.671v-6.606h12.671V308.746z
		 M173.627,308.746h-12.674v-6.606h12.674L173.627,308.746L173.627,308.746z"/>
	<polygon style="fill:#474F59;" points="148.279,308.746 138.369,308.746 138.369,298.836 144.975,298.836 144.975,302.139 
		148.279,302.139 	"/>
	<path style="fill:#474F59;" d="M144.975,284.804h-6.606v-14.032h6.606V284.804z M144.975,256.74h-6.606v-14.035h6.606V256.74z
		 M144.975,228.672h-6.606V214.64h6.606V228.672z M144.975,200.605h-6.606v-14.035h6.606V200.605z M144.975,172.537h-6.606v-14.032
		h6.606V172.537z M144.975,144.473h-6.606v-14.035h6.606V144.473z"/>
	<rect x="138.369" y="109.799" style="fill:#474F59;" width="6.606" height="6.606"/>
</g>
<path style="fill:#353F49;" d="M169.122,28.213c0-5.206,4.222-9.421,9.484-9.421h154.789c5.249,0,9.464,4.212,9.464,9.421V261.47
	c0,5.186-4.215,9.414-9.464,9.414H178.605c-5.262,0-9.484-4.225-9.484-9.414V28.213z"/>
<g>
	<path style="fill:#474F59;" d="M246.414,260.34c-2.283,0-4.188-1.843-4.188-4.215v-1.027c0-2.342,1.903-4.188,4.188-4.188h19.165
		c2.279,0,4.212,1.846,4.212,4.188v1.027c0,2.375-1.932,4.215-4.212,4.215H246.414z"/>
	<path style="fill:#474F59;" d="M255.967,35.44c-2.401,0-4.317-1.939-4.317-4.34c0-2.408,1.916-4.357,4.317-4.357
		c2.418,0,4.373,1.949,4.373,4.357C260.34,33.505,258.388,35.44,255.967,35.44z"/>
</g>
<path style="fill:#353F49;" d="M255.993,32.89c-1.001,0-1.774-0.789-1.774-1.79c0-1.011,0.773-1.787,1.774-1.787
	c1.011,0,1.79,0.776,1.79,1.787C257.784,32.101,257.004,32.89,255.993,32.89z"/>
<rect x="178.969" y="43.424" style="fill:#FFFFFF;" width="154.039" height="196.971"/>
<g>
	<rect x="190.233" y="204.592" style="fill:#F77B55;" width="131.482" height="7.697"/>
	<rect x="190.233" y="187.782" style="fill:#F77B55;" width="131.482" height="7.683"/>
	<rect x="190.233" y="170.975" style="fill:#F77B55;" width="131.482" height="7.673"/>
	<rect x="190.233" y="221.415" style="fill:#F77B55;" width="131.482" height="7.69"/>
	<rect x="190.233" y="120.204" style="fill:#F77B55;" width="131.482" height="41.654"/>
	<rect x="190.233" y="54.705" style="fill:#F77B55;" width="60.277" height="56.386"/>
	<rect x="261.417" y="54.705" style="fill:#F77B55;" width="60.3" height="56.386"/>
</g>
<path style="fill:#353F49;" d="M489.743,270.884h-78.458c-7.429,0-13.523,6.075-13.523,13.523v166.803
	c0,7.445,6.094,13.52,13.523,13.52h78.458c7.436,0,13.497-6.075,13.497-13.52V284.408
	C503.24,276.959,497.178,270.884,489.743,270.884z"/>
<rect x="405.405" y="300.197" style="fill:#FFFFFF;" width="90.178" height="135.251"/>
<g>
	<rect x="412.342" y="414.125" style="fill:#F77B55;" width="76.305" height="4.512"/>
	<rect x="412.342" y="404.282" style="fill:#F77B55;" width="76.305" height="4.499"/>
	<rect x="412.342" y="394.405" style="fill:#F77B55;" width="76.305" height="4.512"/>
	<rect x="412.342" y="424.035" style="fill:#F77B55;" width="76.305" height="4.476"/>
	<rect x="412.342" y="307.134" style="fill:#F77B55;" width="76.305" height="56.915"/>
	<rect x="412.342" y="368.607" style="fill:#F77B55;" width="76.305" height="21.266"/>
</g>
<g>
	<path style="fill:#474F59;" d="M442.14,454.253c-1.975,0-3.61-1.622-3.61-3.64v-1.09c0-1.989,1.635-3.627,3.61-3.627h16.731
		c1.975,0,3.607,1.638,3.607,3.627v1.09c0,2.015-1.632,3.64-3.607,3.64H442.14z"/>
	<path style="fill:#474F59;" d="M453.916,285.537c0,1.876-1.51,3.399-3.406,3.399c-1.87,0-3.392-1.523-3.392-3.399
		c0-1.87,1.523-3.422,3.392-3.422C452.406,282.115,453.916,283.668,453.916,285.537z"/>
</g>
<path style="fill:#353F49;" d="M451.875,285.537c0,0.737-0.611,1.325-1.364,1.325c-0.743,0-1.361-0.591-1.361-1.325
	c0-0.756,0.621-1.364,1.361-1.364C451.264,284.173,451.875,284.781,451.875,285.537z"/>
<g>
</g>
<g>
</g>
<g>
</g>
<g>
</g>
<g>
</g>
<g>
</g>
<g>
</g>
<g>
</g>
<g>
</g>
<g>
</g>
<g>
</g>
<g>
</g>
<g>
</g>
<g>
</g>
<g>
</g>
</svg>
