<?xml version="1.0" encoding="iso-8859-1"?>
<!-- Generator: Adobe Illustrator 19.0.0, SVG Export Plug-In . SVG Version: 6.00 Build 0)  -->
<svg version="1.1" id="Layer_1" xmlns="http://www.w3.org/2000/svg" xmlns:xlink="http://www.w3.org/1999/xlink" x="0px" y="0px"
	 viewBox="0 0 512.01 512.01" style="enable-background:new 0 0 512.01 512.01;" xml:space="preserve">
<polygon style="fill:#F2F2F2;" points="221.443,397.898 173.773,397.906 173.788,149.606 221.443,149.622 "/>
<rect x="221.443" y="149.632" style="fill:#FFFFFF;" width="71.478" height="248.269"/>
<polygon style="fill:#D9D8D7;" points="340.598,397.898 292.92,397.898 292.92,149.622 340.582,149.622 "/>
<polygon style="fill:#F2F2F2;" points="221.443,149.622 257.175,66.191 292.92,149.622 "/>
<g>
	<polygon style="fill:#E6E5E5;" points="292.92,149.622 257.175,66.191 340.582,149.622 	"/>
	<polygon style="fill:#E6E5E5;" points="173.755,149.622 257.175,66.191 221.443,149.622 	"/>
</g>
<polygon style="fill:#F2F2F2;" points="221.443,397.898 257.175,481.316 292.92,397.898 "/>
<g>
	<polygon style="fill:#E6E5E5;" points="292.92,397.898 257.175,481.316 340.582,397.898 	"/>
	<polygon style="fill:#E6E5E5;" points="173.755,397.898 257.175,481.316 221.443,397.898 	"/>
	<path style="fill:#E6E5E5;" d="M156.879,220.915c-20.022,0-36.25,16.271-36.25,36.257c0-19.986-16.238-36.257-36.25-36.257
		c20.012,0,36.25-16.287,36.25-36.26C120.63,204.628,136.855,220.915,156.879,220.915z"/>
	<path style="fill:#E6E5E5;" d="M98.435,88.284c-16.015,0-29,13.015-29,29.007c0-15.992-12.997-29.007-29.007-29.007
		c16.01,0,29.007-13.025,29.007-29.007C69.437,75.259,82.419,88.284,98.435,88.284z"/>
	<path style="fill:#E6E5E5;" d="M446.51,124.068c-10.67,0-19.333,8.666-19.333,19.336c0-10.668-8.663-19.336-19.336-19.336
		c10.673,0,19.336-8.689,19.336-19.346C427.177,115.379,435.84,124.068,446.51,124.068z"/>
	<path style="fill:#E6E5E5;" d="M365.181,465.846c-10.668,0-19.331,8.668-19.331,19.336c0-10.668-8.663-19.336-19.336-19.336
		c10.673,0,19.336-8.686,19.336-19.343C345.853,457.16,354.514,465.846,365.181,465.846z"/>
	<path style="fill:#E6E5E5;" d="M257.193,15.48c-8.532,0-15.473,6.94-15.473,15.478c0-8.538-6.93-15.478-15.475-15.478
		c8.545,0,15.475-6.95,15.475-15.48C241.718,8.53,248.658,15.48,257.193,15.48z"/>
	<path style="fill:#E6E5E5;" d="M175.383,78.612c-5.338,0-9.672,4.337-9.672,9.672c0-5.332-4.334-9.672-9.672-9.672
		c5.338,0,9.672-4.344,9.672-9.679C165.711,74.268,170.045,78.612,175.383,78.612z"/>
	<path style="fill:#E6E5E5;" d="M408.945,420.979c-3.2,0-5.804,2.601-5.804,5.803c0-3.203-2.604-5.803-5.804-5.803
		c3.2,0,5.804-2.609,5.804-5.811C403.144,418.373,405.745,420.979,408.945,420.979z"/>
	<path style="fill:#E6E5E5;" d="M431.987,499.571c-6.851,0-12.416,5.565-12.416,12.419c0-6.853-5.56-12.419-12.413-12.419
		c6.853,0,12.413-5.576,12.413-12.426C419.574,493.995,425.137,499.571,431.987,499.571z"/>
</g>
<g>
	<polygon style="fill:#474F59;" points="121.795,504.645 91.484,487.153 121.787,469.65 125.704,476.442 107.169,487.153 
		125.711,497.853 	"/>
	<polygon style="fill:#474F59;" points="187.607,504.645 183.685,497.853 202.232,487.153 183.698,476.442 187.615,469.65 
		217.917,487.153 	"/>
	
		<rect x="150.813" y="455.919" transform="matrix(-0.7076 -0.7066 0.7066 -0.7076 -79.9923 941.1869)" style="fill:#474F59;" width="7.844" height="62.451"/>
	<rect x="413.519" y="297.805" style="fill:#474F59;" width="61.696" height="7.836"/>
	<rect x="413.519" y="314.496" style="fill:#474F59;" width="30.848" height="7.841"/>
	<rect x="413.519" y="281.088" style="fill:#474F59;" width="61.696" height="7.836"/>
	<path style="fill:#474F59;" d="M394.345,293.732h-7.841v-23.941c0-3.185,1.239-6.177,3.489-8.42
		c2.253-2.245,5.238-3.484,8.415-3.484v7.844c-1.085,0-2.099,0.417-2.872,1.185c-0.771,0.773-1.193,1.792-1.193,2.875v23.941
		H394.345z"/>
	<path style="fill:#474F59;" d="M382.446,305.633v-7.836c1.08,0,2.099-0.422,2.867-1.193c0.771-0.763,1.193-1.782,1.193-2.872h7.841
		c0,3.19-1.239,6.175-3.492,8.422S385.615,305.633,382.446,305.633z"/>
	<path style="fill:#474F59;" d="M398.41,345.544c-3.182,0-6.172-1.236-8.417-3.489c-2.248-2.232-3.487-5.22-3.487-8.412v-23.944
		h7.841v23.944c0,1.083,0.422,2.102,1.19,2.867c0.776,0.778,1.789,1.201,2.875,1.201v7.834H398.41z"/>
	<path style="fill:#474F59;" d="M394.345,309.699h-7.841c0-1.083-0.422-2.107-1.193-2.87c-0.765-0.768-1.787-1.196-2.867-1.196
		v-7.836c3.169,0,6.157,1.237,8.407,3.477C393.106,303.524,394.345,306.514,394.345,309.699z"/>
	<path style="fill:#474F59;" d="M502.223,293.732h-7.841v-23.941c0-1.088-0.422-2.107-1.19-2.867
		c-0.771-0.776-1.787-1.193-2.867-1.193v-7.844c3.172,0,6.162,1.239,8.41,3.484c2.248,2.243,3.487,5.235,3.487,8.42v23.941H502.223z
		"/>
	<path style="fill:#474F59;" d="M506.289,305.633c-3.167,0-6.152-1.229-8.41-3.474c-2.26-2.266-3.494-5.251-3.494-8.425h7.841
		c0,1.085,0.425,2.102,1.198,2.88c0.765,0.76,1.784,1.185,2.867,1.185v7.834H506.289z"/>
	<path style="fill:#474F59;" d="M490.324,345.544v-7.836c1.08,0,2.097-0.422,2.862-1.193c0.773-0.768,1.195-1.784,1.195-2.875
		v-23.944h7.841v23.944c0,3.192-1.239,6.182-3.492,8.422C496.494,344.305,493.504,345.544,490.324,345.544z"/>
	<path style="fill:#474F59;" d="M502.223,309.699h-7.841c0-3.167,1.234-6.159,3.487-8.415c2.258-2.253,5.248-3.484,8.417-3.484
		v7.836c-1.083,0-2.109,0.428-2.88,1.196C502.648,307.597,502.223,308.618,502.223,309.699z"/>
	<path style="fill:#474F59;" d="M21.151,324.567L5.719,364.191h8.489l3.267-9.004h15.839l3.461,9.004h8.704l-15.867-39.624H21.151z
		 M19.935,348.513l5.353-14.702l5.458,14.702H19.935z"/>
	<path style="fill:#474F59;" d="M65.257,334.838c-3.208,0-5.98,1.336-8.323,4.001V324.57h-7.593v39.624h7.053v-4.214
		c1.152,1.603,2.527,2.811,4.122,3.635c1.595,0.814,3.21,1.226,4.851,1.226c3.331,0,6.164-1.329,8.499-3.973
		c2.332-2.65,3.5-6.42,3.5-11.325c0-4.739-1.144-8.374-3.43-10.903C71.647,336.105,68.757,334.838,65.257,334.838z M67.812,356.687
		c-1.178,1.436-2.606,2.15-4.283,2.15c-2.181,0-3.924-1.009-5.24-3.026c-0.937-1.426-1.405-3.625-1.405-6.597
		c0-2.883,0.599-5.033,1.81-6.446c1.206-1.413,2.721-2.122,4.541-2.122c1.856,0,3.377,0.724,4.567,2.176
		c1.19,1.452,1.784,3.817,1.784,7.094C69.583,353.001,68.995,355.254,67.812,356.687z"/>
	<path style="fill:#474F59;" d="M101.42,353.19c-0.379,1.997-1.027,3.407-1.946,4.229c-0.916,0.817-2.099,1.226-3.54,1.226
		c-1.925,0-3.464-0.701-4.608-2.107c-1.144-1.405-1.715-3.812-1.715-7.214c0-3.064,0.563-5.248,1.69-6.556
		c1.126-1.308,2.637-1.958,4.526-1.958c1.423,0,2.58,0.376,3.474,1.134c0.891,0.755,1.462,1.879,1.715,3.377l7.483-1.352
		c-0.899-3.08-2.381-5.373-4.442-6.879c-2.063-1.503-4.844-2.258-8.338-2.258c-4.273,0-7.657,1.324-10.163,3.958
		c-2.506,2.642-3.758,6.333-3.758,11.069c0,4.685,1.249,8.351,3.743,11c2.499,2.645,5.844,3.973,10.04,3.973
		c3.694,0,6.638-0.873,8.837-2.621c2.199-1.748,3.686-4.332,4.462-7.754L101.42,353.19z"/>
</g>
<g>
</g>
<g>
</g>
<g>
</g>
<g>
</g>
<g>
</g>
<g>
</g>
<g>
</g>
<g>
</g>
<g>
</g>
<g>
</g>
<g>
</g>
<g>
</g>
<g>
</g>
<g>
</g>
<g>
</g>
</svg>
