<?xml version="1.0" encoding="iso-8859-1"?>
<!-- Generator: Adobe Illustrator 19.0.0, SVG Export Plug-In . SVG Version: 6.00 Build 0)  -->
<svg version="1.1" id="Layer_1" xmlns="http://www.w3.org/2000/svg" xmlns:xlink="http://www.w3.org/1999/xlink" x="0px" y="0px"
	 viewBox="0 0 512 512" style="enable-background:new 0 0 512 512;" xml:space="preserve">
<circle style="fill:#ADECF7;" cx="256" cy="256" r="256"/>
<rect x="184.789" y="149.999" style="fill:#FFFFFF;" width="40.702" height="212.001"/>
<rect x="225.478" y="149.999" style="fill:#F2F2F2;" width="61.034" height="212.001"/>
<rect x="286.522" y="149.999" style="fill:#D9D8D7;" width="40.709" height="212.001"/>
<polygon style="fill:#FFFFFF;" points="225.488,150.006 255.997,78.769 286.518,150.006 "/>
<polygon style="fill:#E6E5E5;" points="286.518,150.006 255.997,78.769 327.218,150.006 "/>
<polygon style="fill:#F2F2F2;" points="184.769,150.006 255.997,78.769 225.488,150.006 "/>
<polygon style="fill:#FFFFFF;" points="225.488,362 255.997,433.231 286.518,362 "/>
<polygon style="fill:#E6E5E5;" points="286.518,362 255.997,433.231 327.218,362 "/>
<polygon style="fill:#F2F2F2;" points="184.769,362 255.997,433.231 225.488,362 "/>
<path style="fill:#FFFFFF;" d="M170.357,210.885c-17.097,0-30.951,13.89-30.951,30.955c0-17.064-13.864-30.955-30.951-30.955
	c17.088,0,30.951-13.907,30.951-30.961C139.406,196.978,153.26,210.885,170.357,210.885z"/>
<path style="fill:#ADECF7;" d="M102.218,34.677c-13.675,0-24.761,11.112-24.761,24.768c0-13.656-11.096-24.768-24.768-24.768
	c13.672,0,24.768-11.122,24.768-24.768C77.457,23.555,88.546,34.677,102.218,34.677z"/>
<g>
	<path style="fill:#FFFFFF;" d="M417.663,128.188c-9.11,0-16.506,7.399-16.506,16.51c0-9.11-7.396-16.51-16.51-16.51
		c9.114,0,16.51-7.416,16.51-16.516C401.157,120.773,408.556,128.188,417.663,128.188z"/>
	<path style="fill:#FFFFFF;" d="M348.223,420.018c-9.11,0-16.506,7.399-16.506,16.513c0-9.114-7.396-16.513-16.51-16.513
		c9.114,0,16.51-7.412,16.51-16.516C331.717,412.606,339.112,420.018,348.223,420.018z"/>
	<path style="fill:#FFFFFF;" d="M248.611,37.67c-7.287,0-13.213,5.923-13.213,13.216c0-7.294-5.916-13.216-13.213-13.216
		c7.297,0,13.213-5.936,13.213-13.22C235.398,31.734,241.324,37.67,248.611,37.67z"/>
	<path style="fill:#FFFFFF;" d="M186.157,89.375c-4.558,0-8.258,3.703-8.258,8.261c0-4.558-3.7-8.261-8.258-8.261
		c4.558,0,8.258-3.71,8.258-8.261C177.899,85.666,181.601,89.375,186.157,89.375z"/>
	<path style="fill:#FFFFFF;" d="M385.589,381.711c-2.732,0-4.955,2.223-4.955,4.958c0-2.735-2.223-4.958-4.955-4.958
		c2.732,0,4.955-2.226,4.955-4.958C380.634,379.484,382.857,381.711,385.589,381.711z"/>
</g>
<path style="fill:#ADECF7;" d="M405.266,501.397c-5.85,0-10.6,4.75-10.6,10.603c0-5.85-4.75-10.603-10.6-10.603
	c5.85,0,10.6-4.76,10.6-10.61C394.666,496.637,399.416,501.397,405.266,501.397z"/>
<g>
	<polygon style="fill:#474F59;" points="140.4,453.15 114.52,438.216 140.394,423.272 143.74,429.073 127.914,438.216 
		143.746,447.349 	"/>
	<polygon style="fill:#474F59;" points="196.598,453.15 193.249,447.349 209.084,438.216 193.259,429.073 196.605,423.272 
		222.479,438.216 	"/>
	
		<rect x="165.174" y="411.553" transform="matrix(-0.7076 -0.7066 0.7066 -0.7076 -21.8724 867.3693)" style="fill:#474F59;" width="6.696" height="53.314"/>
	<rect x="389.516" y="276.546" style="fill:#474F59;" width="52.677" height="6.692"/>
	<rect x="389.516" y="290.783" style="fill:#474F59;" width="26.337" height="6.689"/>
	<rect x="389.516" y="262.276" style="fill:#474F59;" width="52.677" height="6.692"/>
	<path style="fill:#474F59;" d="M373.122,273.061h-6.692v-20.44c0-2.722,1.057-5.279,2.979-7.194s4.473-2.973,7.185-2.973v6.696
		c-0.925,0-1.794,0.36-2.451,1.014c-0.657,0.657-1.021,1.529-1.021,2.458L373.122,273.061L373.122,273.061z"/>
	<path style="fill:#474F59;" d="M362.962,283.222v-6.692c0.922,0,1.794-0.36,2.448-1.021c0.657-0.651,1.021-1.523,1.021-2.448h6.692
		c0,2.719-1.057,5.269-2.979,7.191C368.22,282.168,365.667,283.222,362.962,283.222z"/>
	<path style="fill:#474F59;" d="M376.594,317.301c-2.715,0-5.272-1.057-7.188-2.98c-1.919-1.906-2.976-4.463-2.976-7.185v-20.444
		h6.692v20.444c0,0.925,0.36,1.794,1.017,2.444c0.661,0.664,1.529,1.027,2.454,1.027L376.594,317.301L376.594,317.301z"/>
	<path style="fill:#474F59;" d="M373.122,286.69h-6.692c0-0.922-0.36-1.8-1.021-2.451c-0.651-0.651-1.526-1.017-2.448-1.017v-6.692
		c2.705,0,5.259,1.057,7.181,2.97C372.065,281.418,373.122,283.975,373.122,286.69z"/>
	<path style="fill:#474F59;" d="M465.236,273.061h-6.692v-20.44c0-0.928-0.36-1.8-1.017-2.451c-0.657-0.657-1.526-1.021-2.448-1.021
		v-6.696c2.709,0,5.262,1.057,7.181,2.976c1.919,1.913,2.976,4.469,2.976,7.191V273.061z"/>
	<path style="fill:#474F59;" d="M468.708,283.222c-2.702,0-5.252-1.054-7.181-2.97c-1.929-1.932-2.983-4.482-2.983-7.191h6.692
		c0,0.925,0.363,1.79,1.024,2.454c0.654,0.651,1.526,1.014,2.448,1.014V283.222z"/>
	<path style="fill:#474F59;" d="M455.079,317.301v-6.692c0.922,0,1.79-0.36,2.444-1.021c0.657-0.651,1.021-1.523,1.021-2.451
		v-20.444h6.692v20.444c0,2.725-1.057,5.282-2.979,7.194C460.344,316.241,457.794,317.301,455.079,317.301z"/>
	<path style="fill:#474F59;" d="M465.236,286.69h-6.692c0-2.702,1.054-5.259,2.976-7.188c1.929-1.922,4.479-2.973,7.188-2.973v6.692
		c-0.922,0-1.8,0.363-2.458,1.021C465.6,284.897,465.236,285.769,465.236,286.69z"/>
	<path style="fill:#474F59;" d="M54.464,299.388L41.287,333.22h7.247l2.791-7.683h13.523l2.956,7.683h7.432l-13.55-33.832H54.464z
		 M53.426,319.832l4.572-12.552l4.661,12.552H53.426z"/>
	<path style="fill:#474F59;" d="M92.127,308.158c-2.738,0-5.107,1.14-7.105,3.416v-12.186h-6.484v33.832h6.022v-3.601
		c0.984,1.368,2.157,2.405,3.518,3.102c1.361,0.697,2.742,1.05,4.142,1.05c2.844,0,5.265-1.133,7.257-3.392
		c1.992-2.263,2.986-5.483,2.986-9.672c0-4.046-0.978-7.148-2.93-9.309S95.113,308.158,92.127,308.158z M94.307,326.815
		c-1.007,1.222-2.226,1.837-3.657,1.837c-1.86,0-3.353-0.865-4.473-2.586c-0.799-1.212-1.199-3.092-1.199-5.632
		c0-2.458,0.512-4.294,1.546-5.503c1.031-1.206,2.322-1.81,3.878-1.81c1.582,0,2.884,0.621,3.901,1.86s1.523,3.254,1.523,6.055
		C95.82,323.663,95.315,325.592,94.307,326.815z"/>
	<path style="fill:#474F59;" d="M123.002,323.825c-0.324,1.711-0.879,2.913-1.662,3.614c-0.783,0.7-1.794,1.05-3.022,1.05
		c-1.645,0-2.96-0.601-3.934-1.8s-1.463-3.257-1.463-6.16c0-2.619,0.482-4.482,1.444-5.599c0.961-1.113,2.253-1.671,3.865-1.671
		c1.216,0,2.203,0.324,2.966,0.968c0.76,0.644,1.249,1.605,1.463,2.884l6.392-1.153c-0.766-2.629-2.031-4.591-3.792-5.873
		c-1.761-1.282-4.136-1.926-7.118-1.926c-3.647,0-6.537,1.126-8.678,3.379s-3.211,5.404-3.211,9.447c0,4,1.067,7.132,3.198,9.394
		c2.134,2.263,4.991,3.392,8.575,3.392c3.155,0,5.668-0.75,7.545-2.24c1.876-1.493,3.148-3.703,3.809-6.626L123.002,323.825z"/>
</g>
<g>
</g>
<g>
</g>
<g>
</g>
<g>
</g>
<g>
</g>
<g>
</g>
<g>
</g>
<g>
</g>
<g>
</g>
<g>
</g>
<g>
</g>
<g>
</g>
<g>
</g>
<g>
</g>
<g>
</g>
</svg>
