<?xml version="1.0" encoding="iso-8859-1"?>
<!-- Generator: Adobe Illustrator 19.0.0, SVG Export Plug-In . SVG Version: 6.00 Build 0)  -->
<svg version="1.1" id="Layer_1" xmlns="http://www.w3.org/2000/svg" xmlns:xlink="http://www.w3.org/1999/xlink" x="0px" y="0px"
	 viewBox="0 0 512 512" style="enable-background:new 0 0 512 512;" xml:space="preserve">
<circle style="fill:#F2F2F2;" cx="256" cy="256" r="256"/>
<polygon style="fill:#FDCA5C;" points="256.007,45.112 49.548,194.273 49.548,445.678 462.452,445.678 462.452,194.273 "/>
<rect x="91.605" y="39.903" style="fill:#353F49;" width="328.77" height="280.081"/>
<rect x="91.605" y="245.397" style="fill:#232E38;" width="328.77" height="74.593"/>
<path style="fill:#FFFFFF;" d="M299.342,142.653c0,23.935-19.39,43.342-43.345,43.342c-23.962,0-43.345-19.406-43.345-43.342
	c0-23.948,19.383-43.355,43.345-43.355C279.952,99.298,299.342,118.705,299.342,142.653z"/>
<polygon style="fill:#353F49;" points="250.5,131.518 269.758,142.653 250.5,153.772 "/>
<g>
	<rect x="105.297" y="242.919" style="fill:#FFFFFF;" width="301.386" height="4.961"/>
	<path style="fill:#FFFFFF;" d="M199.056,245.393c0,5.698-4.611,10.319-10.332,10.319c-5.698,0-10.329-4.621-10.329-10.319
		s4.631-10.323,10.329-10.323C194.441,235.071,199.056,239.695,199.056,245.393z"/>
</g>
<g>
	<polygon style="fill:#FFDB79;" points="462.452,194.273 462.452,445.678 256.007,319.987 	"/>
	<polygon style="fill:#FFDB79;" points="256.007,319.987 49.548,445.678 49.548,194.273 	"/>
</g>
<polygon style="fill:#FDCA5C;" points="462.452,445.678 49.548,445.678 256.007,319.987 "/>
<g>
</g>
<g>
</g>
<g>
</g>
<g>
</g>
<g>
</g>
<g>
</g>
<g>
</g>
<g>
</g>
<g>
</g>
<g>
</g>
<g>
</g>
<g>
</g>
<g>
</g>
<g>
</g>
<g>
</g>
</svg>
