<?xml version="1.0" encoding="iso-8859-1"?>
<!-- Generator: Adobe Illustrator 19.0.0, SVG Export Plug-In . SVG Version: 6.00 Build 0)  -->
<svg version="1.1" id="Layer_1" xmlns="http://www.w3.org/2000/svg" xmlns:xlink="http://www.w3.org/1999/xlink" x="0px" y="0px"
	 viewBox="0 0 512 512" style="enable-background:new 0 0 512 512;" xml:space="preserve">
<polygon style="fill:#FDCA5C;" points="256.008,10.883 0,195.84 0,507.584 512,507.584 512,195.84 "/>
<rect x="52.152" y="4.416" style="fill:#353F49;" width="407.68" height="347.315"/>
<rect x="52.152" y="259.226" style="fill:#232E38;" width="407.68" height="92.493"/>
<path style="fill:#FFFFFF;" d="M309.745,131.832c0,29.681-24.046,53.745-53.75,53.745c-29.711,0-53.75-24.064-53.75-53.745
	c0-29.696,24.036-53.76,53.75-53.76C285.701,78.072,309.745,102.136,309.745,131.832z"/>
<polygon style="fill:#353F49;" points="249.18,118.026 273.06,131.832 249.18,145.62 "/>
<g>
	<rect x="69.12" y="256.154" style="fill:#FFFFFF;" width="373.734" height="6.152"/>
	<path style="fill:#FFFFFF;" d="M185.388,259.233c0,7.063-5.719,12.795-12.81,12.795c-7.063,0-12.808-5.732-12.808-12.795
		c0-7.066,5.745-12.8,12.808-12.8C179.668,246.433,185.388,252.168,185.388,259.233z"/>
</g>
<g>
	<polygon style="fill:#FFDB79;" points="512,195.84 512,507.584 256.008,351.729 	"/>
	<polygon style="fill:#FFDB79;" points="256.008,351.729 0,507.584 0,195.84 	"/>
</g>
<polygon style="fill:#FDCA5C;" points="512,507.584 0,507.584 256.008,351.729 "/>
<g>
</g>
<g>
</g>
<g>
</g>
<g>
</g>
<g>
</g>
<g>
</g>
<g>
</g>
<g>
</g>
<g>
</g>
<g>
</g>
<g>
</g>
<g>
</g>
<g>
</g>
<g>
</g>
<g>
</g>
</svg>
