<?xml version="1.0" encoding="iso-8859-1"?>
<!-- Generator: Adobe Illustrator 19.0.0, SVG Export Plug-In . SVG Version: 6.00 Build 0)  -->
<svg version="1.1" id="Layer_1" xmlns="http://www.w3.org/2000/svg" xmlns:xlink="http://www.w3.org/1999/xlink" x="0px" y="0px"
	 viewBox="0 0 512 512" style="enable-background:new 0 0 512 512;" xml:space="preserve">
<circle style="fill:#474F59;" cx="256" cy="256" r="256"/>
<g>
	<path style="fill:#FFFFFF;" d="M367.154,367.821c0,61.381-49.773,111.147-111.154,111.147c-61.394,0-111.16-49.766-111.16-111.147
		c0-61.394,49.766-111.16,111.16-111.16C317.381,256.661,367.154,306.427,367.154,367.821z"/>
	<rect x="228.187" y="214.227" style="fill:#FFFFFF;" width="55.583" height="45.931"/>
</g>
<rect x="219.301" y="185.443" style="fill:#F2F2F2;" width="73.365" height="28.788"/>
<path style="fill:#FF916E;" d="M233.502,283.942c10.005,0,18.098,8.086,18.098,18.098v131.525c0,8.288-5.526,15.251-13.111,17.391
	c0,0-0.026,0.03-0.056,0c-0.535,0.142-1.097,0.254-1.721,0.393c-0.621,0.116-1.298,0.202-2.058,0.254
	c-0.363,0.059-0.76,0.059-1.156,0.059c-9.612,0-17.111-7.132-17.983-16.265v-0.03c-2.54,1.354-5.497,2.17-8.572,2.17
	c-9.979,0-18.098-8.086-18.098-18.098c0-2.137,0.426-4.281,1.103-6.17c-0.367,0-0.737,0.03-1.103,0.03
	c-9.976,0-18.065-8.09-18.065-18.098c0-4.426,1.576-8.43,4.195-11.588c-5.576-3.072-9.325-8.988-9.325-15.813
	c0-7.581,4.651-14.065,11.274-16.741c-3.072-3.24-4.958-7.614-4.958-12.433c0-9.979,8.113-18.072,18.095-18.072h0.311
	c-0.449-1.576-0.704-3.323-0.704-5.07c0-9.979,8.116-18.072,18.098-18.072c2.705,0,5.579,0.651,7.891,1.721
	C217.042,290.509,224.51,283.942,233.502,283.942z"/>
<g>
	<path style="fill:#EE643C;" d="M213.217,302.037c0,11.191,9.117,20.295,20.295,20.295c1.212,0,2.207-0.998,2.207-2.213
		c0-1.212-0.994-2.187-2.207-2.187c-8.77,0-15.885-7.128-15.885-15.895c0-8.77,7.112-15.898,15.885-15.898
		c8.76,0,15.895,7.128,15.895,15.898v131.558c0,8.767-7.132,15.898-15.895,15.898c-8.77,0-15.885-7.132-15.885-15.898
		c0-8.76,7.112-15.892,15.885-15.892c1.212,0,2.207-0.978,2.207-2.193c0-1.212-0.994-2.207-2.207-2.207
		c-11.178,0-20.295,9.1-20.295,20.292c0,11.181,9.117,20.285,20.295,20.285c11.195,0,20.295-9.104,20.295-20.285V302.037
		c0-11.181-9.1-20.288-20.295-20.288C222.334,281.749,213.217,290.856,213.217,302.037z"/>
	<path style="fill:#EE643C;" d="M206.964,439.742c-11.198,0-20.295-9.097-20.295-20.298c0-2.368,0.406-4.704,1.209-6.94
		c0.429-1.146,1.681-1.734,2.821-1.325c1.146,0.406,1.734,1.678,1.308,2.821c-0.628,1.754-0.948,3.594-0.948,5.444
		c0,8.77,7.128,15.902,15.898,15.902c2.626,0,5.216-0.644,7.505-1.883c1.077-0.588,2.398-0.178,2.986,0.892
		c0.575,1.074,0.182,2.395-0.892,2.97C213.626,438.91,210.31,439.742,206.964,439.742z"/>
	<path style="fill:#EE643C;" d="M188.865,415.48c-11.195,0-20.279-9.1-20.279-20.282c0-4.737,1.665-9.335,4.707-12.988
		c0.773-0.925,2.157-1.057,3.085-0.271c0.932,0.77,1.064,2.16,0.287,3.085c-2.395,2.864-3.693,6.464-3.693,10.174
		c0,8.76,7.135,15.895,15.895,15.895c0.317,0,0.621-0.003,0.918-0.043c8.413-0.479,14.977-7.445,14.977-15.852
		c0-1.206,0.981-2.187,2.203-2.187c1.209,0,2.183,0.981,2.183,2.187c0,10.729-8.38,19.615-19.06,20.245
		C189.717,415.463,189.285,415.48,188.865,415.48z"/>
	<path style="fill:#EE643C;" d="M233.832,397.395c-1.216,0-2.2-0.978-2.2-2.193c0-6.2-5.034-11.244-11.238-11.244
		c-6.2,0-11.244,5.044-11.244,11.244c0,1.216-0.974,2.193-2.183,2.193c-1.222,0-2.203-0.978-2.203-2.193
		c0-8.615,7.013-15.641,15.631-15.641c8.625,0,15.624,7.026,15.624,15.641C236.019,396.417,235.044,397.395,233.832,397.395z"/>
	<path style="fill:#EE643C;" d="M183.735,388.086c-11.175,0-20.279-9.1-20.279-20.275c0-11.201,9.104-20.302,20.279-20.302
		c11.201,0,20.298,9.1,20.298,20.302c0,1.192-0.988,2.187-2.21,2.187c-1.199,0-2.193-0.994-2.193-2.187
		c0-8.773-7.118-15.898-15.895-15.898c-8.754,0-15.892,7.125-15.892,15.898c0,8.757,7.135,15.879,15.892,15.879
		c1.219,0,2.2,0.991,2.2,2.207S184.954,388.086,183.735,388.086z"/>
	<path style="fill:#EE643C;" d="M176.924,353.244c-0.578,0-1.153-0.225-1.592-0.69c-3.581-3.772-5.546-8.717-5.546-13.92
		c0-11.195,9.1-20.288,20.295-20.288c0.142,0,0.311,0,0.459,0.007c9.649,0.159,17.89,6.573,19.076,14.921
		c0.813,5.748,4.618,11.538,11.267,11.538c1.216,0,2.19,0.991,2.19,2.207c0,1.202-0.974,2.193-2.19,2.193
		c-8.043,0-14.319-6.16-15.611-15.33c-0.981-6.828-8.344-11.033-14.914-11.135l-0.281-0.007c-8.763,0-15.898,7.128-15.898,15.895
		c0,4.066,1.529,7.944,4.34,10.914c0.839,0.879,0.799,2.259-0.069,3.098C178.011,353.039,177.466,353.244,176.924,353.244z"/>
	<path style="fill:#EE643C;" d="M190.395,322.748c-0.951,0-1.827-0.631-2.094-1.582c-0.545-1.837-0.822-3.746-0.822-5.672
		c0-11.181,9.1-20.282,20.278-20.282c3.115,0,6.078,0.68,8.853,2.022c1.09,0.532,1.529,1.856,1.011,2.94
		c-0.525,1.097-1.846,1.546-2.943,1.007c-2.157-1.037-4.479-1.576-6.92-1.576c-8.754,0-15.885,7.122-15.879,15.889
		c0,1.513,0.211,2.996,0.631,4.446c0.334,1.169-0.34,2.392-1.496,2.715C190.814,322.728,190.606,322.748,190.395,322.748z"/>
</g>
<path style="fill:#FF916E;" d="M278.498,283.942c-10.009,0-18.098,8.086-18.098,18.098v131.525c0,8.288,5.523,15.251,13.111,17.391
	c0,0,0.026,0.03,0.059,0c0.535,0.142,1.097,0.254,1.714,0.393c0.621,0.116,1.301,0.202,2.058,0.254
	c0.37,0.059,0.763,0.059,1.163,0.059c9.609,0,17.111-7.132,17.983-16.265v-0.03c2.53,1.354,5.49,2.17,8.565,2.17
	c9.979,0,18.098-8.086,18.098-18.098c0-2.137-0.426-4.281-1.103-6.17c0.367,0,0.74,0.03,1.103,0.03
	c9.979,0,18.072-8.09,18.072-18.098c0-4.426-1.582-8.43-4.202-11.588c5.579-3.072,9.328-8.988,9.328-15.813
	c0-7.581-4.648-14.065-11.277-16.741c3.079-3.24,4.961-7.614,4.961-12.433c0-9.979-8.119-18.072-18.095-18.072h-0.311
	c0.453-1.576,0.704-3.323,0.704-5.07c0-9.979-8.119-18.072-18.098-18.072c-2.705,0-5.579,0.651-7.891,1.721
	C294.958,290.509,287.483,283.942,278.498,283.942z"/>
<g>
	<path style="fill:#EE643C;" d="M298.777,302.037c0,11.191-9.114,20.295-20.288,20.295c-1.219,0-2.213-0.998-2.213-2.213
		c0-1.212,0.994-2.187,2.213-2.187c8.763,0,15.882-7.128,15.882-15.895c0-8.77-7.115-15.898-15.882-15.898
		c-8.76,0-15.898,7.128-15.898,15.898v131.558c0,8.767,7.135,15.898,15.898,15.898s15.882-7.132,15.882-15.898
		c0-8.76-7.115-15.892-15.882-15.892c-1.219,0-2.213-0.978-2.213-2.193c0-1.212,0.994-2.207,2.213-2.207
		c11.175,0,20.288,9.1,20.288,20.292c0,11.181-9.114,20.285-20.288,20.285c-11.198,0-20.298-9.104-20.298-20.285V302.037
		c0-11.181,9.1-20.288,20.298-20.288C289.663,281.749,298.777,290.856,298.777,302.037z"/>
	<path style="fill:#EE643C;" d="M305.033,439.742c11.198,0,20.288-9.097,20.288-20.298c0-2.368-0.396-4.704-1.206-6.94
		c-0.426-1.146-1.678-1.734-2.821-1.325c-1.143,0.406-1.731,1.678-1.308,2.821c0.624,1.754,0.945,3.594,0.945,5.444
		c0,8.77-7.122,15.902-15.898,15.902c-2.626,0-5.216-0.644-7.505-1.883c-1.077-0.588-2.405-0.178-2.983,0.892
		c-0.578,1.074-0.182,2.395,0.889,2.97C298.37,438.91,301.684,439.742,305.033,439.742z"/>
	<path style="fill:#EE643C;" d="M323.135,415.48c11.191,0,20.279-9.1,20.279-20.282c0-4.737-1.671-9.335-4.707-12.988
		c-0.773-0.925-2.164-1.057-3.089-0.271c-0.935,0.77-1.064,2.16-0.287,3.085c2.392,2.864,3.696,6.464,3.696,10.174
		c0,8.76-7.135,15.895-15.895,15.895c-0.32,0-0.624-0.003-0.925-0.043c-8.407-0.479-14.977-7.445-14.977-15.852
		c0-1.206-0.981-2.187-2.2-2.187c-1.209,0-2.183,0.981-2.183,2.187c0,10.729,8.377,19.615,19.063,20.245
		C322.283,415.463,322.715,415.48,323.135,415.48z"/>
	<path style="fill:#EE643C;" d="M278.161,397.395c1.222,0,2.197-0.978,2.197-2.193c0-6.2,5.041-11.244,11.244-11.244
		c6.2,0,11.244,5.044,11.244,11.244c0,1.216,0.974,2.193,2.183,2.193c1.219,0,2.2-0.978,2.2-2.193
		c0-8.615-7.009-15.641-15.628-15.641c-8.621,0-15.624,7.026-15.624,15.641C275.978,396.417,276.949,397.395,278.161,397.395z"/>
	<path style="fill:#EE643C;" d="M328.261,388.086c11.172,0,20.282-9.1,20.282-20.275c0-11.201-9.11-20.302-20.282-20.302
		c-11.198,0-20.302,9.1-20.302,20.302c0,1.192,0.988,2.187,2.213,2.187c1.196,0,2.19-0.994,2.19-2.187
		c0-8.773,7.122-15.898,15.898-15.898c8.757,0,15.889,7.125,15.889,15.898c0,8.757-7.128,15.879-15.889,15.879
		c-1.216,0-2.2,0.991-2.2,2.207S327.046,388.086,328.261,388.086z"/>
	<path style="fill:#EE643C;" d="M335.069,353.244c0.585,0,1.163-0.225,1.595-0.69c3.581-3.772,5.546-8.717,5.546-13.92
		c0-11.195-9.1-20.288-20.292-20.288c-0.139,0-0.31,0-0.456,0.007c-9.649,0.159-17.897,6.573-19.083,14.921
		c-0.813,5.748-4.615,11.538-11.267,11.538c-1.212,0-2.18,0.991-2.18,2.207c0,1.202,0.968,2.193,2.18,2.193
		c8.047,0,14.319-6.16,15.611-15.33c0.981-6.828,8.351-11.033,14.917-11.135l0.281-0.007c8.763,0,15.898,7.128,15.898,15.895
		c0,4.066-1.533,7.944-4.344,10.914c-0.836,0.879-0.793,2.259,0.076,3.098C333.986,353.039,334.528,353.244,335.069,353.244z"/>
	<path style="fill:#EE643C;" d="M321.609,322.748c0.941,0,1.82-0.631,2.094-1.582c0.542-1.837,0.816-3.746,0.816-5.672
		c0-11.181-9.1-20.282-20.282-20.282c-3.108,0-6.075,0.68-8.846,2.022c-1.093,0.532-1.529,1.856-1.011,2.94
		c0.522,1.097,1.84,1.546,2.937,1.007c2.16-1.037,4.482-1.576,6.92-1.576c8.754,0,15.885,7.122,15.885,15.889
		c0,1.513-0.215,2.996-0.634,4.446c-0.337,1.169,0.34,2.392,1.496,2.715C321.186,322.728,321.394,322.748,321.609,322.748z"/>
</g>
<polygon style="fill:#FFFFFF;" points="366.939,278.812 344.999,256.852 322.183,279.678 344.117,301.631 "/>
<polygon style="fill:#F2F2F2;" points="380.122,272.678 351.139,243.676 341.481,253.341 370.457,282.323 "/>
<path style="fill:#FF916E;" d="M420.071,267.568c0,2.491-2.038,4.542-4.549,4.542c-2.517,0-4.562-2.051-4.562-4.542
	c0-2.51,2.045-4.562,4.562-4.562C418.033,263.006,420.071,265.057,420.071,267.568z"/>
<g>
	<path style="fill:#FFFFFF;" d="M371.586,230.175c0,5.021-4.079,9.104-9.104,9.104c-5.028,0-9.114-4.083-9.114-9.104
		c0-5.037,4.083-9.117,9.114-9.117C367.507,221.058,371.586,225.135,371.586,230.175z"/>
	<path style="fill:#FFFFFF;" d="M421.736,214.227c0,8.783-7.128,15.945-15.941,15.945c-8.806,0-15.928-7.161-15.928-15.945
		c0-8.777,7.122-15.931,15.928-15.931C414.608,198.296,421.736,205.451,421.736,214.227z"/>
	<path style="fill:#FFFFFF;" d="M442.827,94.763h-84.196c-7.161,0-12.952-5.8-12.952-12.949c0-7.161,5.791-12.955,12.952-12.955
		c7.148,0,12.955-5.81,12.955-12.959s-5.807-12.955-12.955-12.955H143.69c-7.142,0-12.949,5.807-12.949,12.955
		c0,7.151,5.807,12.959,12.949,12.959h97.472c7.151,0,12.949,5.794,12.949,12.955c0,7.151-5.797,12.949-12.949,12.949H228.2
		c-7.155,0-12.959,5.8-12.959,12.955c0,7.161,5.804,12.965,12.959,12.965h22.303c7.161,0,12.955,5.784,12.955,12.945
		s-5.794,12.949-12.955,12.949h-36.045c-7.161,0-12.965,5.804-12.965,12.955c0,7.161,5.804,12.962,12.965,12.962h15.608
		c7.175,0,12.968,5.8,12.968,12.952h25.911c0-7.151,5.794-12.952,12.965-12.952h37.082c7.158,0,12.968-5.8,12.968-12.962
		c0-7.151-5.81-12.955-12.968-12.955h-9.906c-7.151,0-12.942-5.787-12.942-12.949c0-7.161,5.791-12.945,12.942-12.945h133.738
		c7.142,0,12.955-5.804,12.955-12.965C455.779,100.56,449.969,94.763,442.827,94.763z"/>
</g>
<g>
	<path style="fill:#FF916E;" d="M166.651,146.574c-7.148,0-12.962,5.804-12.962,12.955c0,7.168,5.814,12.962,12.962,12.962
		c7.155,0,12.955-5.794,12.955-12.962C179.606,152.378,173.806,146.574,166.651,146.574z"/>
	<path style="fill:#FF916E;" d="M400.427,68.856c7.148,0,12.949-5.81,12.949-12.959s-5.8-12.955-12.949-12.955
		s-12.962,5.807-12.962,12.955C387.465,63.045,393.279,68.856,400.427,68.856z"/>
	<circle style="fill:#FF916E;" cx="248.865" cy="231.047" r="5.794"/>
</g>
<g>
</g>
<g>
</g>
<g>
</g>
<g>
</g>
<g>
</g>
<g>
</g>
<g>
</g>
<g>
</g>
<g>
</g>
<g>
</g>
<g>
</g>
<g>
</g>
<g>
</g>
<g>
</g>
<g>
</g>
</svg>
