<?xml version="1.0" encoding="iso-8859-1"?>
<!-- Generator: Adobe Illustrator 19.0.0, SVG Export Plug-In . SVG Version: 6.00 Build 0)  -->
<svg version="1.1" id="Layer_1" xmlns="http://www.w3.org/2000/svg" xmlns:xlink="http://www.w3.org/1999/xlink" x="0px" y="0px"
	 viewBox="0 0 512 512" style="enable-background:new 0 0 512 512;" xml:space="preserve">
<rect y="95.36" style="fill:#353F49;" width="512" height="274.381"/>
<rect y="369.766" style="fill:#232E38;" width="512" height="9.841"/>
<path style="fill:#F2F2F2;" d="M256.003,357.601H36.457V83.215h195.228c6.203,0,12.454,2.386,17.193,7.13
	c4.754,4.731,7.127,10.97,7.127,17.196v250.061H256.003z"/>
<path style="fill:#D9D8D7;" d="M231.685,83.215v274.386h24.32V107.54c0-6.228-2.371-12.465-7.127-17.196
	C244.14,85.601,237.888,83.215,231.685,83.215z"/>
<path style="fill:#F2F2F2;" d="M475.535,357.601h-219.53V107.54c0-6.228,2.363-12.465,7.119-17.196
	c4.713-4.746,10.99-7.13,17.16-7.13h195.254v274.386H475.535z"/>
<g>
	<path style="fill:#CCCBCA;" d="M248.878,340.398c-4.739-4.726-10.99-7.096-17.193-7.096H36.457l-24.312,24.302h243.858
		C256.003,351.386,253.632,345.139,248.878,340.398z"/>
	<path style="fill:#CCCBCA;" d="M263.112,340.398c4.713-4.726,10.985-7.096,17.17-7.096h195.254l24.289,24.302H256.003
		C256.003,351.386,258.368,345.139,263.112,340.398z"/>
</g>
<g>
	<polygon style="fill:#D9D8D7;" points="36.462,83.215 36.462,333.299 12.147,357.601 12.147,107.525 	"/>
	<polygon style="fill:#D9D8D7;" points="475.535,83.215 475.535,333.299 499.825,357.601 499.825,107.525 	"/>
</g>
<rect x="395.059" y="261.658" style="fill:#F77B55;" width="16.125" height="16.128"/>
<rect x="371.226" y="261.658" style="fill:#353F49;" width="16.123" height="16.128"/>
<rect x="347.366" y="261.658" style="fill:#92DEEB;" width="16.125" height="16.128"/>
<polygon style="fill:#F77B55;" points="305.318,225.098 343.027,159.777 380.754,225.098 "/>
<path style="fill:#353F49;" d="M453.23,192.438c0,18.038-14.618,32.66-32.653,32.66c-18.045,0-32.676-14.623-32.676-32.66
	s14.63-32.66,32.676-32.66C438.612,159.777,453.23,174.4,453.23,192.438z"/>
<rect x="366.874" y="138.752" style="fill:#92DEEB;" width="53.701" height="53.688"/>
<path style="fill:#FFFFFF;" d="M420.577,159.777c-18.045,0-32.676,14.623-32.676,32.66h32.676V159.777z"/>
<polygon style="fill:#F2F2F2;" points="145.354,83.215 134.075,46.147 122.785,83.215 "/>
<polygon style="fill:#CCCBCA;" points="134.075,46.147 145.354,83.215 138.245,83.215 "/>
<rect x="122.785" y="83.215" style="fill:#474F59;" width="22.566" height="296.397"/>
<rect x="138.24" y="83.215" style="fill:#232E38;" width="7.109" height="296.397"/>
<polygon style="fill:#474F59;" points="138.476,60.662 134.075,46.147 129.641,60.662 "/>
<polygon style="fill:#232E38;" points="138.476,60.662 134.075,46.147 135.721,60.662 "/>
<rect x="122.785" y="379.597" style="fill:#F2F2F2;" width="22.566" height="12.116"/>
<rect x="138.24" y="379.597" style="fill:#CCCBCA;" width="7.109" height="12.116"/>
<path style="fill:#F77B55;" d="M145.354,398.822c0,2.918-1.116,5.798-3.292,8.005c-2.212,2.173-5.089,3.292-7.99,3.292l0,0
	c-2.895,0-5.773-1.121-7.98-3.292c-2.189-2.207-3.308-5.087-3.308-8.005v-7.101h22.566v7.101H145.354z"/>
<path style="fill:#EE643C;" d="M138.245,391.721c0,2.895-1.098,5.801-3.295,8.015c-2.202,2.153-5.084,3.264-7.977,3.264
	c-1.206,0-2.396-0.195-3.556-0.604c0.535,1.608,1.405,3.123,2.675,4.431c2.207,2.173,5.084,3.292,7.98,3.292
	c2.898,0,5.775-1.121,7.99-3.292c2.176-2.207,3.292-5.087,3.292-8.005v-7.101H138.245z"/>
<path style="fill:#F77B55;" d="M173.199,465.853l338.793-0.008L512,410.112l-338.811,0.008L173.199,465.853z M201.016,437.985
	c-0.003,3.899-3.164,7.058-7.055,7.058c-3.919,0.013-7.058-3.167-7.055-7.04c0-3.907,3.139-7.053,7.055-7.058
	C197.855,430.963,201.011,434.094,201.016,437.985z"/>
<g>
	<rect x="214.144" y="410.112" style="fill:#FFFFFF;" width="2.803" height="10.78"/>
	<rect x="242.381" y="410.112" style="fill:#FFFFFF;" width="2.829" height="10.76"/>
	<polygon style="fill:#FFFFFF;" points="273.434,420.879 270.62,420.892 270.633,410.112 273.423,410.12 	"/>
	<rect x="298.854" y="410.112" style="fill:#FFFFFF;" width="2.834" height="10.78"/>
	<polygon style="fill:#FFFFFF;" points="329.894,420.897 327.086,420.879 327.091,410.12 329.894,410.12 	"/>
	<polygon style="fill:#FFFFFF;" points="358.124,420.879 355.323,420.879 355.323,410.112 358.108,410.12 	"/>
	<polygon style="fill:#FFFFFF;" points="386.363,420.874 383.516,420.879 383.534,410.112 386.363,410.112 	"/>
	<rect x="411.776" y="410.112" style="fill:#FFFFFF;" width="2.788" height="10.76"/>
	<polygon style="fill:#FFFFFF;" points="442.816,420.879 440.026,420.879 440.008,410.12 442.824,410.112 	"/>
	<rect x="468.224" y="410.112" style="fill:#FFFFFF;" width="2.824" height="10.755"/>
	<rect x="496.486" y="410.112" style="fill:#FFFFFF;" width="2.79" height="10.767"/>
	<polygon style="fill:#FFFFFF;" points="485.174,420.892 482.376,420.879 482.376,410.112 485.169,410.12 	"/>
	<polygon style="fill:#FFFFFF;" points="456.932,420.879 454.149,420.879 454.149,410.112 456.947,410.12 	"/>
	<rect x="425.882" y="410.138" style="fill:#FFFFFF;" width="2.839" height="10.76"/>
	<rect x="397.67" y="410.112" style="fill:#FFFFFF;" width="2.826" height="10.767"/>
	<polygon style="fill:#FFFFFF;" points="372.252,420.879 369.431,420.879 369.431,410.112 372.237,410.12 	"/>
	<rect x="341.197" y="410.112" style="fill:#FFFFFF;" width="2.826" height="10.767"/>
	<rect x="312.986" y="410.112" style="fill:#FFFFFF;" width="2.785" height="10.762"/>
	<polygon style="fill:#FFFFFF;" points="287.542,420.879 284.741,420.892 284.746,410.112 287.542,410.112 	"/>
	<polygon style="fill:#FFFFFF;" points="259.31,420.879 256.497,420.897 256.504,410.12 259.305,410.112 	"/>
	<polygon style="fill:#FFFFFF;" points="231.094,420.897 228.262,420.879 228.268,410.112 231.089,410.112 	"/>
</g>
<g>
</g>
<g>
</g>
<g>
</g>
<g>
</g>
<g>
</g>
<g>
</g>
<g>
</g>
<g>
</g>
<g>
</g>
<g>
</g>
<g>
</g>
<g>
</g>
<g>
</g>
<g>
</g>
<g>
</g>
</svg>
