<?xml version="1.0" encoding="iso-8859-1"?>
<!-- Generator: Adobe Illustrator 19.0.0, SVG Export Plug-In . SVG Version: 6.00 Build 0)  -->
<svg version="1.1" id="Layer_1" xmlns="http://www.w3.org/2000/svg" xmlns:xlink="http://www.w3.org/1999/xlink" x="0px" y="0px"
	 viewBox="0 0 512 512" style="enable-background:new 0 0 512 512;" xml:space="preserve">
<path style="fill:#FDCA5C;" d="M346.775,216.287c0,36.559-29.66,66.23-66.227,66.23c-36.575,0-66.23-29.668-66.23-66.23
	c0-36.557,29.652-66.23,66.23-66.23C317.115,150.057,346.775,179.73,346.775,216.287z"/>
<path style="fill:#CCCBCA;" d="M171.96,258.488c0,9.748-7.908,17.661-17.661,17.661c-9.754,0-17.659-7.916-17.659-17.661
	c0-9.741,7.905-17.656,17.659-17.656C164.052,240.829,171.96,248.748,171.96,258.488z"/>
<g>
	<rect x="167.706" y="186.035" style="fill:#474F59;" width="15.462" height="15.462"/>
	<path style="fill:#474F59;" d="M153.226,201.485h-14.474v-15.452h14.472v15.452H153.226z M124.28,201.485h-14.472v-15.452h14.472
		V201.485z M95.337,201.485H80.868v-15.452h14.469V201.485z M66.396,201.485H51.924v-15.452h14.472V201.485z"/>
	<rect x="21.998" y="186.035" style="fill:#474F59;" width="15.462" height="15.462"/>
	<path style="fill:#474F59;" d="M37.45,171.561H21.998v-14.469H37.45V171.561z M37.45,142.615H21.998v-14.469H37.45V142.615z
		 M37.45,113.669H21.998V99.2H37.45V113.669z M37.45,84.726H21.998V70.257H37.45V84.726z"/>
	<rect x="21.998" y="40.328" style="fill:#474F59;" width="15.462" height="15.462"/>
	<path style="fill:#474F59;" d="M153.226,55.782h-14.474V40.33h14.472v15.452H153.226z M124.28,55.782h-14.469V40.33h14.469V55.782z
		 M95.34,55.782H80.868V40.33H95.34V55.782z M66.396,55.782H51.924V40.33h14.472V55.782z"/>
	<rect x="167.706" y="40.328" style="fill:#474F59;" width="15.462" height="15.462"/>
	<path style="fill:#474F59;" d="M183.153,171.556h-15.457v-14.469h15.457V171.556z M183.153,142.612h-15.457v-14.469h15.457V142.612
		z M183.153,113.667h-15.457V99.2h15.457V113.667z M183.153,84.723h-15.457V70.254h15.457V84.723z"/>
</g>
<rect x="65.047" y="83.377" style="fill:#CCCBCA;" width="75.059" height="75.059"/>
<rect x="449.485" y="187.955" style="fill:#474F59;" width="39.004" height="39.004"/>
<polygon style="fill:#CCCBCA;" points="490.002,153.713 364.567,153.713 364.567,28.283 "/>
<polygon style="fill:#FDCA5C;" points="208.847,53.53 239.757,0 270.661,53.53 "/>
<path style="fill:#F2F2F2;" d="M345.495,330.153l-64.947,16.374l-64.952-16.374c0.425-1.567,1.027-3.026,1.769-4.426
	c0.261-0.445,0.494-0.886,0.758-1.334l62.426-108.104l62.426,108.104c0.264,0.451,0.497,0.891,0.758,1.334
	C344.468,327.127,345.08,328.586,345.495,330.153z"/>
<polygon style="fill:#CCCBCA;" points="280.548,216.287 302.17,332.429 302.441,336.015 342.973,324.39 "/>
<polygon style="fill:#474F59;" points="280.548,216.287 258.104,255.15 302.989,255.15 "/>
<polygon style="fill:#353F49;" points="280.548,216.287 287.788,255.15 302.989,255.15 "/>
<rect x="214.81" y="336.026" style="fill:#FF916E;" width="43.802" height="175.974"/>
<rect x="258.611" y="336.026" style="fill:#F77B55;" width="43.827" height="175.974"/>
<rect x="302.438" y="336.026" style="fill:#EE643C;" width="43.853" height="175.974"/>
<circle style="fill:#FF916E;" cx="236.723" cy="336.026" r="21.916"/>
<circle style="fill:#F77B55;" cx="280.55" cy="336.026" r="21.914"/>
<circle style="fill:#EE643C;" cx="324.378" cy="336.026" r="21.911"/>
<g>
</g>
<g>
</g>
<g>
</g>
<g>
</g>
<g>
</g>
<g>
</g>
<g>
</g>
<g>
</g>
<g>
</g>
<g>
</g>
<g>
</g>
<g>
</g>
<g>
</g>
<g>
</g>
<g>
</g>
</svg>
