<?xml version="1.0" encoding="iso-8859-1"?>
<!-- Generator: Adobe Illustrator 19.0.0, SVG Export Plug-In . SVG Version: 6.00 Build 0)  -->
<svg version="1.1" id="Layer_1" xmlns="http://www.w3.org/2000/svg" xmlns:xlink="http://www.w3.org/1999/xlink" x="0px" y="0px"
	 viewBox="0 0 512 512" style="enable-background:new 0 0 512 512;" xml:space="preserve">
<circle style="fill:#ADECF7;" cx="256" cy="256" r="256"/>
<rect x="19.819" y="110.632" style="fill:#353F49;" width="472.361" height="253.159"/>
<rect x="19.819" y="363.784" style="fill:#232E38;" width="472.361" height="9.077"/>
<path style="fill:#FFFFFF;" d="M256.003,352.56H53.456V99.42h180.112c5.721,0,11.492,2.2,15.862,6.577
	c4.387,4.364,6.573,10.118,6.573,15.865V352.56z"/>
<path style="fill:#F2F2F2;" d="M233.568,99.42v253.143h22.436V121.863c0-5.744-2.187-11.499-6.573-15.865
	C245.06,101.62,239.289,99.42,233.568,99.42z"/>
<path style="fill:#FFFFFF;" d="M458.537,352.56H256.003V121.863c0-5.744,2.18-11.499,6.567-15.865
	c4.347-4.377,10.138-6.577,15.832-6.577h180.135V352.56z"/>
<g>
	<path style="fill:#CCCBCA;" d="M249.43,336.691c-4.37-4.36-10.138-6.547-15.862-6.547H53.456l-22.429,22.419h224.976
		C256.003,346.826,253.817,341.065,249.43,336.691z"/>
	<path style="fill:#CCCBCA;" d="M262.56,336.691c4.347-4.36,10.134-6.547,15.842-6.547h180.135l22.409,22.419H256.003
		C256.003,346.826,258.183,341.065,262.56,336.691z"/>
</g>
<g>
	<polygon style="fill:#E6E5E5;" points="53.459,99.42 53.459,330.141 31.027,352.56 31.027,121.846 	"/>
	<polygon style="fill:#E6E5E5;" points="458.537,99.42 458.537,330.141 480.95,352.56 480.95,121.846 	"/>
</g>
<rect x="384.297" y="264.037" style="fill:#F77B55;" width="14.878" height="14.881"/>
<rect x="362.298" y="264.037" style="fill:#353F49;" width="14.874" height="14.881"/>
<rect x="340.298" y="264.037" style="fill:#92DEEB;" width="14.878" height="14.881"/>
<polygon style="fill:#F77B55;" points="301.499,230.317 336.292,170.05 371.098,230.317 "/>
<circle style="fill:#353F49;" cx="407.816" cy="200.175" r="30.135"/>
<rect x="358.301" y="150.65" style="fill:#92DEEB;" width="49.542" height="49.532"/>
<g>
	<path style="fill:#FFFFFF;" d="M407.836,170.05c-16.648,0-30.145,13.49-30.145,30.132h30.145V170.05z"/>
	<polygon style="fill:#FFFFFF;" points="153.92,99.42 143.512,65.219 133.1,99.42 	"/>
</g>
<polygon style="fill:#CCCBCA;" points="143.512,65.219 153.92,99.42 147.36,99.42 "/>
<rect x="133.087" y="99.427" style="fill:#474F59;" width="20.82" height="273.441"/>
<rect x="147.36" y="99.427" style="fill:#232E38;" width="6.557" height="273.441"/>
<polygon style="fill:#474F59;" points="147.575,78.61 143.512,65.219 139.423,78.61 "/>
<polygon style="fill:#232E38;" points="147.575,78.61 143.512,65.219 145.031,78.61 "/>
<rect x="133.087" y="372.868" style="fill:#FFFFFF;" width="20.82" height="11.181"/>
<rect x="147.36" y="372.868" style="fill:#CCCBCA;" width="6.557" height="11.181"/>
<path style="fill:#F77B55;" d="M153.92,390.59c0,2.692-1.031,5.348-3.036,7.386c-2.041,2.002-4.697,3.036-7.369,3.036l0,0
	c-2.672,0-5.325-1.034-7.363-3.036c-2.018-2.038-3.052-4.694-3.052-7.386v-6.55h20.82L153.92,390.59L153.92,390.59z"/>
<path style="fill:#EE643C;" d="M147.36,384.04c0,2.672-1.014,5.351-3.039,7.393c-2.031,1.989-4.691,3.013-7.36,3.013
	c-1.113,0-2.21-0.182-3.28-0.558c0.492,1.483,1.298,2.88,2.468,4.089c2.035,2.002,4.691,3.036,7.363,3.036
	c2.676,0,5.328-1.034,7.369-3.036c2.005-2.038,3.036-4.694,3.036-7.386v-6.55H147.36z"/>
<path style="fill:#F77B55;" d="M179.61,452.433l312.564-0.007l0.007-51.421L179.6,401.012L179.61,452.433z M205.276,426.724
	c-0.003,3.597-2.92,6.511-6.511,6.511c-3.617,0.013-6.514-2.923-6.511-6.494c0-3.607,2.894-6.507,6.511-6.514
	C202.356,420.243,205.269,423.133,205.276,426.724z"/>
<g>
	<rect x="217.395" y="401.012" style="fill:#FFFFFF;" width="2.586" height="9.943"/>
	<rect x="243.448" y="401.012" style="fill:#FFFFFF;" width="2.61" height="9.943"/>
	<polygon style="fill:#FFFFFF;" points="272.083,410.941 269.487,410.951 269.5,401.005 272.073,401.012 	"/>
	<rect x="295.54" y="401.012" style="fill:#FFFFFF;" width="2.616" height="9.943"/>
	<rect x="321.569" y="401.012" style="fill:#FFFFFF;" width="2.593" height="9.943"/>
	<rect x="347.631" y="401.012" style="fill:#FFFFFF;" width="2.583" height="9.943"/>
	<polygon style="fill:#FFFFFF;" points="376.27,410.935 373.641,410.941 373.661,401.005 376.27,401.005 	"/>
	<rect x="399.723" y="401.012" style="fill:#FFFFFF;" width="2.57" height="9.943"/>
	<polygon style="fill:#FFFFFF;" points="428.352,410.941 425.776,410.941 425.763,401.012 428.359,401.005 	"/>
	<rect x="451.782" y="401.012" style="fill:#FFFFFF;" width="2.603" height="9.91"/>
	<rect x="477.878" y="401.012" style="fill:#FFFFFF;" width="2.573" height="9.943"/>
	<polygon style="fill:#FFFFFF;" points="467.433,410.951 464.85,410.941 464.85,401.005 467.426,401.012 	"/>
	<rect x="438.801" y="401.012" style="fill:#FFFFFF;" width="2.567" height="9.943"/>
	<rect x="412.738" y="401.012" style="fill:#FFFFFF;" width="2.619" height="9.943"/>
	<rect x="386.676" y="401.012" style="fill:#FFFFFF;" width="2.61" height="9.943"/>
	<rect x="360.646" y="401.012" style="fill:#FFFFFF;" width="2.603" height="9.943"/>
	<rect x="334.584" y="401.012" style="fill:#FFFFFF;" width="2.606" height="9.943"/>
	<rect x="308.587" y="401.012" style="fill:#FFFFFF;" width="2.567" height="9.943"/>
	<rect x="282.525" y="401.012" style="fill:#FFFFFF;" width="2.583" height="9.943"/>
	<polygon style="fill:#FFFFFF;" points="259.055,410.941 256.459,410.958 256.466,401.012 259.049,401.005 	"/>
	<rect x="230.4" y="401.012" style="fill:#FFFFFF;" width="2.613" height="9.943"/>
</g>
<g>
</g>
<g>
</g>
<g>
</g>
<g>
</g>
<g>
</g>
<g>
</g>
<g>
</g>
<g>
</g>
<g>
</g>
<g>
</g>
<g>
</g>
<g>
</g>
<g>
</g>
<g>
</g>
<g>
</g>
</svg>
