<?xml version="1.0" encoding="iso-8859-1"?>
<!-- Generator: Adobe Illustrator 19.0.0, SVG Export Plug-In . SVG Version: 6.00 Build 0)  -->
<svg version="1.1" id="Layer_1" xmlns="http://www.w3.org/2000/svg" xmlns:xlink="http://www.w3.org/1999/xlink" x="0px" y="0px"
	 viewBox="0 0 512 512" style="enable-background:new 0 0 512 512;" xml:space="preserve">
<g>
	<polygon style="fill:#474F59;" points="263.063,162.685 248.934,162.685 244.802,183.276 267.197,183.276 	"/>
	<polygon style="fill:#474F59;" points="215.496,171.635 203.218,178.698 209.943,198.648 229.345,187.4 	"/>
	<polygon style="fill:#474F59;" points="178.736,203.226 171.668,215.444 187.43,229.34 198.648,209.943 	"/>
	<polygon style="fill:#474F59;" points="162.693,248.929 162.701,263.071 183.314,267.2 183.314,244.792 	"/>
	<polygon style="fill:#474F59;" points="171.668,296.532 178.736,308.774 198.648,302.065 187.43,282.65 	"/>
	<polygon style="fill:#474F59;" points="203.218,333.279 215.496,340.332 229.345,324.577 209.943,313.352 	"/>
	<polygon style="fill:#474F59;" points="248.934,349.315 263.063,349.315 267.197,328.699 244.802,328.699 	"/>
	<polygon style="fill:#474F59;" points="296.54,340.332 308.795,333.279 302.062,313.352 282.655,324.577 	"/>
	<polygon style="fill:#474F59;" points="333.279,308.774 340.336,296.532 324.569,282.65 313.364,302.065 	"/>
	<polygon style="fill:#474F59;" points="349.307,263.071 349.307,248.929 328.724,244.792 328.724,267.2 	"/>
	<polygon style="fill:#474F59;" points="340.336,215.444 333.279,203.226 313.364,209.943 324.569,229.34 	"/>
	<polygon style="fill:#474F59;" points="308.795,178.698 296.504,171.676 282.655,187.4 302.062,198.648 	"/>
</g>
<path style="fill:#353F49;" d="M255.992,182.438c-40.609,0-73.562,32.911-73.562,73.562c0,40.635,32.952,73.546,73.562,73.546
	c40.653,0,73.59-32.911,73.59-73.546C329.582,215.35,296.645,182.438,255.992,182.438z M255.992,276.365
	c-11.213,0-20.357-9.132-20.357-20.365c0-11.226,9.144-20.365,20.357-20.365c11.259,0,20.375,9.139,20.375,20.365
	C276.367,267.233,267.254,276.365,255.992,276.365z"/>
<g>
	<path style="fill:#CCCBCA;" d="M255.992,220.69c-19.494,0-35.3,15.8-35.3,35.31c0,19.525,15.805,35.32,35.3,35.32
		c19.525,0,35.32-15.795,35.32-35.32C291.313,236.49,275.517,220.69,255.992,220.69z M255.992,273.646
		c-9.736,0-17.62-7.903-17.62-17.646c0-9.743,7.887-17.644,17.62-17.644c9.748,0,17.661,7.9,17.661,17.644
		C273.654,265.743,265.741,273.646,255.992,273.646z"/>
	<path style="fill:#CCCBCA;" d="M321.139,512c-4.122,0-8.133-0.312-11.924-0.955c-14.113-2.36-33.001-3.645-53.194-3.645
		c-20.209,0-39.101,1.285-53.243,3.645c-3.786,0.643-7.795,0.955-11.917,0.955c-29.222,0-61.844-15.99-77.573-38.026
		c-17.295-24.202-51.062-57.971-75.267-75.254C12.398,380.426-4.234,340.27,0.95,309.207c4.902-29.348,4.902-77.1,0.003-106.406
		c-5.189-31.071,11.433-71.219,37.066-89.505c24.197-17.283,57.966-51.052,75.272-75.272C129.011,15.99,161.638,0,190.871,0
		c4.111,0,8.12,0.32,11.914,0.957c14.113,2.358,32.991,3.645,53.187,3.645h0.003c20.209,0,39.107-1.285,53.24-3.645
		C313.008,0.32,317.01,0,321.121,0c29.235,0,61.865,15.99,77.594,38.031c17.295,24.189,51.062,57.966,75.267,75.279
		c25.626,18.263,42.253,58.404,37.066,89.482c-4.89,29.345-4.895,77.097,0,106.414c5.192,31.063-11.433,71.201-37.064,89.513
		c-24.21,17.285-57.976,51.052-75.272,75.264C382.989,496.01,350.364,512,321.139,512z M256.02,499.443
		c20.618,0,39.98,1.339,54.502,3.763c3.372,0.566,6.935,0.84,10.616,0.84c26.849-0.01,56.758-14.587,71.096-34.685
		c17.723-24.817,52.319-59.407,77.125-77.115c23.398-16.717,38.577-53.363,33.843-81.723c-5.02-30.042-5.02-78.971,0-109.046
		c4.736-28.36-10.455-65.004-33.853-81.7c-24.801-17.738-59.392-52.321-77.115-77.128c-14.346-20.099-44.257-34.693-71.117-34.693
		c-3.671,0-7.232,0.274-10.593,0.847c-14.548,2.414-33.928,3.756-54.546,3.756c-0.008,0-0.008,0-0.008,0
		c-20.623,0-39.972-1.341-54.497-3.756c-3.361-0.573-6.932-0.847-10.606-0.847c-26.862,0-56.765,14.587-71.101,34.683
		c-17.738,24.832-52.332,59.415-77.133,77.138c-23.386,16.696-38.574,53.34-33.836,81.7c5.015,30.044,5.015,78.963,0,109.046
		c-4.739,28.36,10.45,65.006,33.851,81.723c24.801,17.715,59.392,52.298,77.115,77.115c14.346,20.099,44.247,34.685,71.096,34.685
		c3.684,0,7.242-0.274,10.614-0.84C216.02,500.782,235.397,499.443,256.02,499.443z"/>
</g>
<g>
	<polygon style="fill:#353F49;" points="417.869,82.826 429.179,94.131 446.146,77.161 434.831,65.866 	"/>
	
		<rect x="72.008" y="67.989" transform="matrix(0.7071 -0.7071 0.7071 0.7071 -33.1236 79.9946)" style="fill:#353F49;" width="15.984" height="23.984"/>
	
		<rect x="71.964" y="419.996" transform="matrix(-0.7073 -0.7069 0.7069 -0.7073 -168.875 794.0697)" style="fill:#353F49;" width="15.979" height="24"/>
	<polygon style="fill:#353F49;" points="429.174,417.869 417.858,429.174 434.816,446.134 446.134,434.839 	"/>
</g>
<path style="fill:#F2F2F2;" d="M423.485,88.527c-92.503-92.5-242.473-92.485-334.966,0c-92.495,92.5-92.5,242.463-0.003,334.963
	c92.495,92.485,242.463,92.485,334.961-0.008C515.97,330.99,515.978,181.018,423.485,88.527z M158.292,353.705
	c-53.96-53.942-53.944-141.45,0.008-195.387c53.96-53.952,141.44-53.967,195.402,0c53.952,53.934,53.947,141.427,0,195.379
	C299.737,407.647,212.255,407.665,158.292,353.705z"/>
<g>
	<path style="fill:#F77B55;" d="M159.416,159.424c13.074-13.074,28.183-22.943,44.314-29.599L164.756,35.72
		c-28.16,11.633-54.518,28.846-77.363,51.686c-22.84,22.825-40.067,49.201-51.663,77.373l94.077,38.948
		C136.471,187.602,146.322,172.506,159.416,159.424z"/>
	<path style="fill:#F77B55;" d="M347.243,35.72l-38.976,94.116c16.125,6.656,31.227,16.517,44.314,29.599
		c13.082,13.074,22.95,28.188,29.604,44.319l94.08-38.989c-11.612-28.155-28.82-54.515-51.671-77.348
		C401.746,64.563,375.398,47.368,347.243,35.72z"/>
	<path style="fill:#F77B55;" d="M347.236,476.288c28.147-11.63,54.51-28.846,77.355-51.692
		c22.843-22.833,40.061-49.193,51.676-77.358l-94.08-38.963c-6.664,16.123-16.522,31.235-29.604,44.311
		c-13.084,13.079-28.188,22.943-44.311,29.599L347.236,476.288z"/>
	<path style="fill:#F77B55;" d="M164.749,476.28l38.989-94.108c-16.131-6.63-31.24-16.515-44.321-29.588
		c-13.087-13.082-22.945-28.181-29.599-44.321l-94.093,38.976c11.625,28.165,28.826,54.525,51.666,77.366
		C110.246,447.452,136.599,464.648,164.749,476.28z"/>
</g>
<g>
</g>
<g>
</g>
<g>
</g>
<g>
</g>
<g>
</g>
<g>
</g>
<g>
</g>
<g>
</g>
<g>
</g>
<g>
</g>
<g>
</g>
<g>
</g>
<g>
</g>
<g>
</g>
<g>
</g>
</svg>
