<?xml version="1.0" encoding="iso-8859-1"?>
<!-- Generator: Adobe Illustrator 19.0.0, SVG Export Plug-In . SVG Version: 6.00 Build 0)  -->
<svg version="1.1" id="Layer_1" xmlns="http://www.w3.org/2000/svg" xmlns:xlink="http://www.w3.org/1999/xlink" x="0px" y="0px"
	 viewBox="0 0 512 512" style="enable-background:new 0 0 512 512;" xml:space="preserve">
<rect x="93.158" y="79.287" style="fill:#F2F2F2;" width="325.683" height="204.262"/>
<rect x="121.953" y="116.044" style="fill:#F77B55;" width="78.856" height="78.812"/>
<g>
	<rect x="121.953" y="210.661" style="fill:#CCCBCA;" width="78.856" height="7.188"/>
	<rect x="121.953" y="225.125" style="fill:#CCCBCA;" width="78.856" height="7.214"/>
	<rect x="121.953" y="239.615" style="fill:#CCCBCA;" width="39.419" height="7.186"/>
</g>
<rect x="216.602" y="116.044" style="fill:#F77B55;" width="78.817" height="78.812"/>
<g>
	<rect x="216.602" y="210.661" style="fill:#CCCBCA;" width="78.817" height="7.188"/>
	<rect x="216.602" y="225.125" style="fill:#CCCBCA;" width="78.817" height="7.214"/>
	<rect x="216.602" y="239.615" style="fill:#CCCBCA;" width="39.401" height="7.186"/>
</g>
<rect x="311.194" y="116.044" style="fill:#F77B55;" width="78.856" height="78.812"/>
<g>
	<rect x="311.168" y="210.661" style="fill:#CCCBCA;" width="78.876" height="7.188"/>
	<rect x="311.168" y="225.125" style="fill:#CCCBCA;" width="78.876" height="7.214"/>
	<rect x="311.168" y="239.615" style="fill:#CCCBCA;" width="39.457" height="7.186"/>
</g>
<rect x="93.158" y="46.13" style="fill:#232E38;" width="325.683" height="33.16"/>
<rect y="369.381" style="fill:#CCCBCA;" width="146.586" height="96.489"/>
<g>
	<rect x="22.938" y="399.538" style="fill:#FFFFFF;" width="100.685" height="7.196"/>
	<rect x="22.938" y="414.002" style="fill:#FFFFFF;" width="100.685" height="7.252"/>
	<rect x="22.938" y="428.517" style="fill:#FFFFFF;" width="50.33" height="7.232"/>
</g>
<rect x="182.733" y="369.381" style="fill:#CCCBCA;" width="146.534" height="96.489"/>
<g>
	<rect x="205.67" y="399.538" style="fill:#FFFFFF;" width="100.659" height="7.196"/>
	<rect x="205.67" y="414.002" style="fill:#FFFFFF;" width="100.659" height="7.252"/>
	<rect x="205.67" y="428.517" style="fill:#FFFFFF;" width="50.332" height="7.232"/>
</g>
<rect x="365.44" y="369.381" style="fill:#CCCBCA;" width="146.56" height="96.489"/>
<g>
	<rect x="388.378" y="399.538" style="fill:#FFFFFF;" width="100.685" height="7.196"/>
	<rect x="388.378" y="414.002" style="fill:#FFFFFF;" width="100.685" height="7.252"/>
	<rect x="388.378" y="428.517" style="fill:#FFFFFF;" width="50.36" height="7.232"/>
</g>
<g>
	<polygon style="fill:#474F59;" points="444.058,369.379 433.408,369.379 433.408,331.759 78.615,331.759 78.615,369.379 
		67.965,369.379 67.965,321.187 444.058,321.187 	"/>
	<rect x="250.675" y="283.57" style="fill:#474F59;" width="10.655" height="85.816"/>
</g>
<g>
</g>
<g>
</g>
<g>
</g>
<g>
</g>
<g>
</g>
<g>
</g>
<g>
</g>
<g>
</g>
<g>
</g>
<g>
</g>
<g>
</g>
<g>
</g>
<g>
</g>
<g>
</g>
<g>
</g>
</svg>
