<?xml version="1.0" encoding="iso-8859-1"?>
<!-- Generator: Adobe Illustrator 19.0.0, SVG Export Plug-In . SVG Version: 6.00 Build 0)  -->
<svg version="1.1" id="Layer_1" xmlns="http://www.w3.org/2000/svg" xmlns:xlink="http://www.w3.org/1999/xlink" x="0px" y="0px"
	 viewBox="0 0 511.99 511.99" style="enable-background:new 0 0 511.99 511.99;" xml:space="preserve">
<g>
	<rect x="252.513" style="fill:#474F59;" width="6.973" height="26.035"/>
	<polygon style="fill:#474F59;" points="203.19,5.926 210.033,4.457 215.429,29.949 208.617,31.38 	"/>
	<polygon style="fill:#474F59;" points="156.214,21.949 162.593,19.118 173.204,42.9 166.799,45.737 	"/>
	<polygon style="fill:#474F59;" points="113.61,47.388 119.224,43.292 134.536,64.364 128.888,68.457 	"/>
	<polygon style="fill:#474F59;" points="77.187,81.162 81.846,75.971 101.202,93.391 96.525,98.583 	"/>
	<polygon style="fill:#474F59;" points="48.586,121.748 52.073,115.702 74.627,128.719 71.135,134.804 	"/>
	<polygon style="fill:#474F59;" points="29.074,167.406 31.219,160.768 55.98,168.812 53.827,175.46 	"/>
	<polygon style="fill:#474F59;" points="19.464,216.123 20.18,209.142 46.062,211.901 45.34,218.839 	"/>
	<polygon style="fill:#474F59;" points="19.464,258.806 45.34,256.1 46.062,263.037 20.18,265.787 	"/>
	<polygon style="fill:#474F59;" points="29.074,307.525 53.827,299.51 55.98,306.117 31.219,314.168 	"/>
	<polygon style="fill:#474F59;" points="48.586,353.188 71.135,340.173 74.627,346.222 52.073,359.222 	"/>
	
		<rect x="76.161" y="384.186" transform="matrix(0.743 -0.6693 0.6693 0.743 -236.5503 159.3214)" style="fill:#474F59;" width="26.035" height="6.979"/>
	
		<rect x="111.042" y="415.59" transform="matrix(0.5877 -0.8091 0.8091 0.5877 -287.9093 273.1554)" style="fill:#474F59;" width="26.025" height="6.948"/>
	<polygon style="fill:#474F59;" points="156.214,452.982 166.799,429.215 173.204,432.049 162.593,455.831 	"/>
	<polygon style="fill:#474F59;" points="338.826,432.049 345.18,429.215 355.773,452.982 349.386,455.831 	"/>
	<polygon style="fill:#474F59;" points="377.444,410.565 383.086,406.49 398.426,427.546 392.748,431.631 	"/>
	<polygon style="fill:#474F59;" points="410.783,381.55 415.452,376.366 434.793,393.777 430.136,398.966 	"/>
	
		<rect x="446.889" y="336.723" transform="matrix(0.4999 -0.8661 0.8661 0.4999 -77.6676 564.9699)" style="fill:#474F59;" width="6.971" height="26.028"/>
	<polygon style="fill:#474F59;" points="456.003,306.117 458.153,299.517 482.916,307.525 480.76,314.168 	"/>
	<polygon style="fill:#474F59;" points="465.917,263.05 466.637,256.12 492.523,258.806 491.809,265.787 	"/>
	<polygon style="fill:#474F59;" points="465.917,211.901 491.796,209.142 492.526,216.123 466.642,218.839 	"/>
	<polygon style="fill:#474F59;" points="456.003,168.822 480.76,160.768 482.916,167.406 458.173,175.46 	"/>
	<polygon style="fill:#474F59;" points="437.366,128.73 459.904,115.712 463.393,121.756 440.855,134.804 	"/>
	<polygon style="fill:#474F59;" points="410.806,93.391 430.136,75.971 434.793,81.162 415.465,98.583 	"/>
	<polygon style="fill:#474F59;" points="377.462,64.364 392.748,43.295 398.426,47.406 383.112,68.457 	"/>
	<polygon style="fill:#474F59;" points="338.826,42.9 349.386,19.128 355.773,21.949 345.206,45.727 	"/>
	<polygon style="fill:#474F59;" points="296.561,29.949 301.949,4.462 308.8,5.926 303.373,31.373 	"/>
</g>
<path style="fill:#FFDB79;" d="M255.997,110.536c-70.093,0.013-126.907,56.829-126.907,126.922c0,37.133,15.977,70.528,41.38,93.734
	c1.208,1.047,2.422,2.092,3.635,3.146c19.843,18.081,32.302,44.093,32.302,73.039v25.613H256h49.577v-25.613
	c0-28.948,12.462-54.958,32.302-73.039c1.213-1.055,2.419-2.099,3.635-3.146c25.408-23.206,41.38-56.602,41.38-93.734
	C382.892,167.365,326.08,110.551,255.997,110.536z"/>
<path style="fill:#FDCA5C;" d="M350.61,237.458c0,52.268-42.353,94.62-94.618,94.62s-94.623-42.353-94.623-94.62
	c0-52.234,42.358-94.612,94.623-94.612S350.61,185.224,350.61,237.458z"/>
<g>
	<polygon style="fill:#FFFFFF;" points="263.314,272.504 248.65,272.504 241.969,172.403 270.011,172.403 	"/>
	<path style="fill:#FFFFFF;" d="M265.997,292.529c0,5.514-4.467,9.976-10.01,9.976c-5.532,0-10.004-4.462-10.004-9.976
		c0-5.537,4.472-9.992,10.004-9.992C261.53,282.534,265.997,286.989,265.997,292.529z"/>
</g>
<rect x="200.596" y="432.973" style="fill:#353F49;" width="110.771" height="58.547"/>
<g>
	<rect x="195.528" y="441.37" style="fill:#474F59;" width="120.883" height="8.338"/>
	<rect x="195.528" y="458.112" style="fill:#474F59;" width="120.883" height="8.374"/>
	<rect x="195.528" y="474.829" style="fill:#474F59;" width="120.883" height="8.384"/>
	<rect x="220.001" y="491.52" style="fill:#474F59;" width="72.013" height="20.47"/>
</g>
<g>
</g>
<g>
</g>
<g>
</g>
<g>
</g>
<g>
</g>
<g>
</g>
<g>
</g>
<g>
</g>
<g>
</g>
<g>
</g>
<g>
</g>
<g>
</g>
<g>
</g>
<g>
</g>
<g>
</g>
</svg>
