<?xml version="1.0" encoding="iso-8859-1"?>
<!-- Generator: Adobe Illustrator 19.0.0, SVG Export Plug-In . SVG Version: 6.00 Build 0)  -->
<svg version="1.1" id="Layer_1" xmlns="http://www.w3.org/2000/svg" xmlns:xlink="http://www.w3.org/1999/xlink" x="0px" y="0px"
	 viewBox="0 0 512 512" style="enable-background:new 0 0 512 512;" xml:space="preserve">
<circle style="fill:#FF916E;" cx="256" cy="256" r="256"/>
<g>
	<rect x="252.763" y="34.581" style="fill:#FFFFFF;" width="6.504" height="24.279"/>
	<polygon style="fill:#FFFFFF;" points="206.762,40.104 213.141,38.737 218.175,62.504 211.823,63.838 	"/>
	<polygon style="fill:#FFFFFF;" points="162.958,55.045 168.907,52.402 178.8,74.58 172.828,77.226 	"/>
	<polygon style="fill:#FFFFFF;" points="123.233,78.765 128.469,74.944 142.746,94.594 137.477,98.41 	"/>
	
		<rect x="97.221" y="103.824" transform="matrix(0.6681 -0.744 0.744 0.6681 -52.9387 113.2402)" style="fill:#FFFFFF;" width="6.504" height="24.281"/>
	<polygon style="fill:#FFFFFF;" points="62.599,148.103 65.853,142.465 86.881,154.604 83.624,160.276 	"/>
	<polygon style="fill:#FFFFFF;" points="44.405,190.679 46.407,184.492 69.493,191.987 67.488,198.187 	"/>
	<polygon style="fill:#FFFFFF;" points="35.444,236.105 36.114,229.594 60.244,232.167 59.574,238.635 	"/>
	<polygon style="fill:#FFFFFF;" points="35.444,275.902 59.574,273.382 60.244,279.849 36.114,282.413 	"/>
	<polygon style="fill:#FFFFFF;" points="44.405,321.331 67.488,313.859 69.493,320.02 46.407,327.525 	"/>
	
		<rect x="62.585" y="357.406" transform="matrix(0.8661 -0.4999 0.4999 0.8661 -170.2863 85.6506)" style="fill:#FFFFFF;" width="24.276" height="6.514"/>
	
		<rect x="88.312" y="392.825" transform="matrix(0.743 -0.6693 0.6693 0.743 -239.2777 169.0254)" style="fill:#FFFFFF;" width="24.279" height="6.507"/>
	
		<rect x="120.851" y="422.121" transform="matrix(0.5877 -0.8091 0.8091 0.5877 -289.3236 282.9759)" style="fill:#FFFFFF;" width="24.266" height="6.481"/>
	<polygon style="fill:#FFFFFF;" points="162.958,456.965 172.828,434.804 178.8,437.446 168.907,459.621 	"/>
	<polygon style="fill:#FFFFFF;" points="333.239,437.446 339.162,434.804 349.039,456.965 343.083,459.621 	"/>
	<polygon style="fill:#FFFFFF;" points="369.248,417.412 374.507,413.613 388.81,433.245 383.518,437.06 	"/>
	
		<rect x="408.255" y="383.924" transform="matrix(0.6692 -0.7431 0.7431 0.6692 -158.1753 436.8071)" style="fill:#FFFFFF;" width="6.507" height="24.266"/>
	
		<rect x="434.019" y="348.541" transform="matrix(0.4998 -0.8661 0.8661 0.4998 -93.6784 559.1341)" style="fill:#FFFFFF;" width="6.497" height="24.268"/>
	<polygon style="fill:#FFFFFF;" points="442.5,320.02 444.502,313.866 467.595,321.331 465.583,327.525 	"/>
	<polygon style="fill:#FFFFFF;" points="451.746,279.862 452.416,273.401 476.553,275.902 475.886,282.413 	"/>
	<polygon style="fill:#FFFFFF;" points="451.746,232.167 475.876,229.594 476.556,236.105 452.42,238.635 	"/>
	
		<rect x="442.935" y="188.062" transform="matrix(0.951 -0.3092 0.3092 0.951 -36.8544 150.0825)" style="fill:#FFFFFF;" width="24.272" height="6.504"/>
	<polygon style="fill:#FFFFFF;" points="425.119,154.614 446.14,142.478 449.391,148.11 428.376,160.276 	"/>
	<polygon style="fill:#FFFFFF;" points="400.354,121.664 418.38,105.419 422.724,110.258 404.701,126.504 	"/>
	<polygon style="fill:#FFFFFF;" points="369.264,94.594 383.518,74.947 388.81,78.782 374.533,98.41 	"/>
	
		<rect x="328.997" y="61.542" transform="matrix(0.4059 -0.9139 0.9139 0.4059 143.4402 350.2542)" style="fill:#FFFFFF;" width="24.255" height="6.511"/>
	<polygon style="fill:#FFFFFF;" points="293.825,62.504 298.853,38.744 305.238,40.104 300.177,63.832 	"/>
</g>
<path style="fill:#FFDB79;" d="M256.003,137.649c-65.358,0.013-118.335,52.99-118.335,118.348c0,34.624,14.898,65.764,38.585,87.403
	c1.126,0.978,2.259,1.952,3.389,2.937c18.505,16.86,30.119,41.115,30.119,68.106v23.882h46.242h46.229v-23.882
	c0-26.991,11.621-51.246,30.119-68.106c1.133-0.984,2.259-1.959,3.389-2.937c23.691-21.639,38.585-52.779,38.585-87.403
	C374.325,190.639,321.351,137.662,256.003,137.649z"/>
<path style="fill:#FDCA5C;" d="M344.226,255.997c0,48.739-39.493,88.229-88.229,88.229s-88.232-39.49-88.232-88.229
	c0-48.706,39.497-88.223,88.232-88.223S344.226,207.291,344.226,255.997z"/>
<g>
	<polygon style="fill:#FFFFFF;" points="262.824,288.679 249.152,288.679 242.923,195.336 269.068,195.336 	"/>
	<path style="fill:#FFFFFF;" d="M265.325,307.349c0,5.143-4.165,9.302-9.332,9.302c-5.16,0-9.328-4.162-9.328-9.302
		c0-5.163,4.172-9.318,9.328-9.318C261.163,298.03,265.325,302.182,265.325,307.349z"/>
</g>
<rect x="204.351" y="438.305" style="fill:#353F49;" width="103.292" height="54.592"/>
<g>
	<rect x="199.614" y="446.134" style="fill:#474F59;" width="112.706" height="7.776"/>
	<rect x="199.614" y="461.725" style="fill:#474F59;" width="112.706" height="7.809"/>
	<rect x="199.614" y="477.316" style="fill:#474F59;" width="112.706" height="7.819"/>
	<rect x="222.439" y="492.907" style="fill:#474F59;" width="67.141" height="19.086"/>
</g>
<g>
</g>
<g>
</g>
<g>
</g>
<g>
</g>
<g>
</g>
<g>
</g>
<g>
</g>
<g>
</g>
<g>
</g>
<g>
</g>
<g>
</g>
<g>
</g>
<g>
</g>
<g>
</g>
<g>
</g>
</svg>
