<?xml version="1.0" encoding="iso-8859-1"?>
<!-- Generator: Adobe Illustrator 19.0.0, SVG Export Plug-In . SVG Version: 6.00 Build 0)  -->
<svg version="1.1" id="Layer_1" xmlns="http://www.w3.org/2000/svg" xmlns:xlink="http://www.w3.org/1999/xlink" x="0px" y="0px"
	 viewBox="0 0 512 512" style="enable-background:new 0 0 512 512;" xml:space="preserve">
<circle style="fill:#FF916E;" cx="256" cy="256" r="256"/>
<path style="fill:#CCCBCA;" d="M0,400.252c19.469,8.602,41,13.342,63.68,13.342h384.647c22.67,0,44.191-4.743,63.67-13.342H0z"/>
<rect y="392.324" style="fill:#E6E5E5;" width="512" height="7.921"/>
<rect x="211.572" y="392.324" style="fill:#CCCBCA;" width="88.86" height="3.954"/>
<path style="fill:#353F49;" d="M460.324,142.072c-2.643-2.709-6.184-4.027-9.741-4.027H61.42c-3.531,0-7.082,1.315-9.745,4.027
	c-2.702,2.679-4.04,6.21-4.04,9.761v240.498h416.728V151.833C464.364,148.282,463.049,144.747,460.324,142.072z"/>
<path style="fill:#474F59;" d="M261.827,148.625c0,3.257-2.573,5.85-5.833,5.85c-3.26,0-5.827-2.593-5.827-5.85
	c0-3.214,2.567-5.827,5.827-5.827C259.254,142.798,261.827,145.411,261.827,148.625z"/>
<g>
	<path style="fill:#FFFFFF;" d="M258.514,148.625c0,1.387-1.156,2.504-2.52,2.504c-1.344,0-2.514-1.117-2.514-2.504
		c0-1.354,1.169-2.464,2.514-2.464C257.358,146.161,258.514,147.271,258.514,148.625z"/>
	<rect x="69.302" y="159.249" style="fill:#FFFFFF;" width="373.397" height="233.076"/>
</g>
<path style="fill:#E6E5E5;" d="M256.017,186.272c-24.305,0-44.075,19.691-44.075,43.999v26.181h14.115v-26.181
	c0-16.48,13.428-29.891,29.957-29.891c16.51,0,29.931,13.411,29.931,29.891v26.181h14.118v-26.181
	C300.065,205.963,280.318,186.272,256.017,186.272z"/>
<rect x="195.65" y="256.462" style="fill:#F77B55;" width="120.67" height="89.65"/>
<rect x="195.65" y="346.112" style="fill:#353F49;" width="120.67" height="19.179"/>
<rect x="206.617" y="288.471" style="fill:#FFFFFF;" width="98.733" height="25.613"/>
<g>
	<path style="fill:#353F49;" d="M222.631,305.786c-2.474,0-4.492-2.018-4.492-4.502c0-2.474,2.018-4.496,4.492-4.496
		c2.487,0,4.506,2.022,4.506,4.496C227.14,303.768,225.118,305.786,222.631,305.786z"/>
	<path style="fill:#353F49;" d="M239.289,305.786c-2.484,0-4.502-2.018-4.502-4.502c0-2.474,2.018-4.496,4.502-4.496
		c2.474,0,4.509,2.022,4.509,4.496C243.801,303.768,241.763,305.786,239.289,305.786z"/>
	<path style="fill:#353F49;" d="M255.993,305.786c-2.481,0-4.506-2.018-4.506-4.502c0-2.474,2.025-4.496,4.506-4.496
		c2.487,0,4.512,2.022,4.512,4.496C260.506,303.768,258.481,305.786,255.993,305.786z"/>
	<path style="fill:#353F49;" d="M272.704,305.786c-2.484,0-4.496-2.018-4.496-4.502c0-2.474,2.012-4.496,4.496-4.496
		c2.458,0,4.499,2.022,4.499,4.496C277.203,303.768,275.162,305.786,272.704,305.786z"/>
	<path style="fill:#353F49;" d="M289.356,305.786c-2.477,0-4.492-2.018-4.492-4.502c0-2.474,2.015-4.496,4.492-4.496
		c2.484,0,4.506,2.022,4.506,4.496C293.862,303.768,291.84,305.786,289.356,305.786z"/>
	<path style="fill:#353F49;" d="M410.029,471.387c-8.261,0-14.983-6.722-14.983-14.96V271.443c0-8.235,6.722-14.99,14.983-14.99
		h86.997c8.218,0,14.974,6.755,14.974,14.99v184.984c0,8.238-6.755,14.96-14.974,14.96H410.029z"/>
</g>
<g>
	<path style="fill:#474F59;" d="M466.505,455.918c0,1.962-1.589,3.551-3.604,3.551h-18.795c-1.932,0-3.554-1.589-3.554-3.551v-1.52
		c0-1.949,1.622-3.577,3.554-3.577h18.795c2.012,0,3.604,1.628,3.604,3.577V455.918z"/>
	<path style="fill:#474F59;" d="M469.207,273.018c0,0.819-0.644,1.45-1.49,1.45h-28.421c-0.783,0-1.437-0.631-1.437-1.45v-0.611
		c0-0.789,0.651-1.473,1.437-1.473h28.421c0.846,0,1.49,0.684,1.49,1.473V273.018z"/>
</g>
<rect x="403.522" y="288.966" style="fill:#FFFFFF;" width="100.022" height="149.966"/>
<path style="fill:#92DEEB;" d="M493.489,363.953c0,22.062-17.874,39.966-39.962,39.966c-22.085,0-39.979-17.903-39.979-39.966
	c0-22.089,17.894-39.989,39.979-39.989C475.615,323.961,493.489,341.864,493.489,363.953z"/>
<polygon style="fill:#FFFFFF;" points="431.742,364.24 435.871,360.104 447.412,371.659 471.172,347.906 475.321,352.084 
	447.412,379.967 "/>
<g>
</g>
<g>
</g>
<g>
</g>
<g>
</g>
<g>
</g>
<g>
</g>
<g>
</g>
<g>
</g>
<g>
</g>
<g>
</g>
<g>
</g>
<g>
</g>
<g>
</g>
<g>
</g>
<g>
</g>
</svg>
