<?xml version="1.0" encoding="iso-8859-1"?>
<!-- Generator: Adobe Illustrator 19.0.0, SVG Export Plug-In . SVG Version: 6.00 Build 0)  -->
<svg version="1.1" id="Layer_1" xmlns="http://www.w3.org/2000/svg" xmlns:xlink="http://www.w3.org/1999/xlink" x="0px" y="0px"
	 viewBox="0 0 512 512" style="enable-background:new 0 0 512 512;" xml:space="preserve">
<path style="fill:#353F49;" d="M445,188.14c-2.588-2.624-6.008-3.894-9.439-3.894H59.379c-3.412,0-6.833,1.27-9.441,3.894
	c-2.596,2.593-3.899,6.003-3.899,9.434v232.479h402.857V197.573C448.899,194.143,447.613,190.733,445,188.14z"/>
<path style="fill:#474F59;" d="M253.12,194.473c0,3.146-2.527,5.665-5.652,5.665c-3.133,0-5.65-2.519-5.65-5.665
	c0-3.113,2.516-5.629,5.65-5.629C250.593,188.844,253.12,191.36,253.12,194.473z"/>
<g>
	<path style="fill:#FFFFFF;" d="M249.9,194.473c0,1.341-1.106,2.417-2.435,2.417c-1.321,0-2.427-1.073-2.427-2.417
		c0-1.308,1.106-2.383,2.427-2.383C248.794,192.09,249.9,193.167,249.9,194.473z"/>
	<rect x="67.021" y="204.733" style="fill:#FFFFFF;" width="360.909" height="225.331"/>
</g>
<rect x="150.367" y="259.123" style="fill:#F77B55;" width="194.202" height="116.526"/>
<polygon style="fill:#353F49;" points="150.295,259.133 247.47,330.988 344.643,259.133 "/>
<path style="fill:#F77B55;" d="M412.628,240.806c0,11.474-9.3,20.767-20.769,20.767c-11.466,0-20.774-9.293-20.774-20.767
	c0-11.466,9.311-20.762,20.774-20.762C403.328,220.045,412.628,229.34,412.628,240.806z"/>
<g>
	<path style="fill:#FFFFFF;" d="M391.857,241.559v-3.807c1.49,0,2.706-1.213,2.706-2.714c0-1.492-1.216-2.711-2.706-2.711
		c-1.498,0-2.716,1.216-2.716,2.711h-3.802c0-3.589,2.918-6.513,6.518-6.513c3.592,0,6.52,2.924,6.52,6.513
		C398.377,238.633,395.451,241.559,391.857,241.559z"/>
	<path style="fill:#FFFFFF;" d="M391.857,253.097c-4.234,0-7.677-3.443-7.677-7.67h3.809c0,2.127,1.731,3.868,3.868,3.868
		c2.13,0,3.863-1.741,3.863-3.868c0-2.132-1.733-3.866-3.863-3.866v-3.807c4.229,0,7.67,3.436,7.67,7.672
		C399.526,249.654,396.088,253.097,391.857,253.097z"/>
</g>
<path style="fill:#CCCBCA;" d="M0,437.719c18.821,8.307,39.634,12.887,61.54,12.887H433.4c21.901,0,42.701-4.58,61.532-12.887H0z"/>
<rect y="430.054" style="fill:#E6E5E5;" width="494.925" height="7.667"/>
<g>
	<rect x="204.513" y="430.054" style="fill:#CCCBCA;" width="85.906" height="3.827"/>
	<path style="fill:#CCCBCA;" d="M368.909,132.78l-0.98-5.025c2.258-0.44,4.5-0.868,6.723-1.275l0.927,5.036
		C373.371,131.919,371.146,132.344,368.909,132.78z"/>
	<path style="fill:#CCCBCA;" d="M185.59,193.126l-2.127-4.659c4.18-1.907,8.41-3.799,12.687-5.673l2.058,4.687
		C193.953,189.345,189.747,191.227,185.59,193.126z M210.911,182.029l-1.979-4.721c4.244-1.779,8.53-3.54,12.859-5.281l1.91,4.746
		C219.395,178.509,215.13,180.265,210.911,182.029z M236.562,171.72l-1.836-4.78c4.349-1.669,8.686-3.305,13.005-4.89l1.766,4.805
		C245.199,168.433,240.886,170.056,236.562,171.72z M262.5,162.189l-1.692-4.833c4.406-1.544,8.791-3.041,13.146-4.493l1.62,4.856
		C271.237,159.165,266.88,160.653,262.5,162.189z M288.709,153.464l-1.541-4.884c4.46-1.405,8.893-2.767,13.292-4.073l1.459,4.908
		C297.549,150.715,293.143,152.064,288.709,153.464z M315.197,145.59l-1.375-4.933c4.518-1.26,8.998-2.463,13.43-3.617l1.288,4.956
		C324.132,143.14,319.688,144.335,315.197,145.59z M341.942,138.655l-1.193-4.979c4.572-1.098,9.098-2.13,13.563-3.103l1.096,5.005
		C350.973,136.54,346.483,137.564,341.942,138.655z"/>
	<path style="fill:#CCCBCA;" d="M166.881,201.953l-2.24-4.608c2.04-0.993,4.093-1.981,6.159-2.967l2.199,4.626
		C170.947,199.985,168.906,200.965,166.881,201.953z"/>
	<path style="fill:#CCCBCA;" d="M149.627,204.733c-31.805,16.243-59.633,33.183-82.145,49.846
		C21.404,288.689-2.57,321.608,6.426,344.847c4.774,12.339,18.107,20.616,39.613,24.602v-5.222
		c-18.824-3.656-30.874-10.98-34.839-21.228c-7.252-18.739,12.047-47.619,52.951-79.232c1.083-0.84,2.227-1.674,3.331-2.506
		c25.669-19.407,57.641-38.664,93.652-56.527L149.627,204.733L149.627,204.733z"/>
</g>
<polygon style="fill:#E6E5E5;" points="369.91,88.965 359.578,135.88 512,100.833 "/>
<g>
	<polygon style="fill:#F2F2F2;" points="379.267,101.317 413.453,146.563 512,100.833 	"/>
	<polygon style="fill:#F2F2F2;" points="349.1,61.394 369.91,88.965 512,100.833 	"/>
</g>
<polygon style="fill:#CCCBCA;" points="359.578,135.88 379.267,101.317 398.633,126.907 "/>
<g>
</g>
<g>
</g>
<g>
</g>
<g>
</g>
<g>
</g>
<g>
</g>
<g>
</g>
<g>
</g>
<g>
</g>
<g>
</g>
<g>
</g>
<g>
</g>
<g>
</g>
<g>
</g>
<g>
</g>
</svg>
