<?xml version="1.0" encoding="iso-8859-1"?>
<!-- Generator: Adobe Illustrator 19.0.0, SVG Export Plug-In . SVG Version: 6.00 Build 0)  -->
<svg version="1.1" id="Layer_1" xmlns="http://www.w3.org/2000/svg" xmlns:xlink="http://www.w3.org/1999/xlink" x="0px" y="0px"
	 viewBox="0 0 512 512" style="enable-background:new 0 0 512 512;" xml:space="preserve">
<path style="fill:#CCCBCA;" d="M0,351.535c19.466,8.599,41.001,13.343,63.68,13.343h384.648c22.669,0,44.191-4.744,63.67-13.343H0z"
	/>
<rect y="343.604" style="fill:#E6E5E5;" width="512" height="7.923"/>
<rect x="211.558" y="343.604" style="fill:#CCCBCA;" width="88.863" height="3.955"/>
<path style="fill:#353F49;" d="M460.324,93.357c-2.639-2.711-6.182-4.027-9.741-4.027H61.42c-3.53,0-7.081,1.316-9.746,4.027
	c-2.703,2.68-4.04,6.211-4.04,9.759v240.499h416.73V103.113C464.366,99.567,463.048,96.037,460.324,93.357z"/>
<path style="fill:#474F59;" d="M261.824,99.908c0,3.264-2.573,5.86-5.832,5.86c-3.259,0-5.827-2.593-5.827-5.86
	c0-3.213,2.568-5.821,5.827-5.821C259.251,94.086,261.824,96.695,261.824,99.908z"/>
<g>
	<path style="fill:#FFFFFF;" d="M258.511,99.908c0,1.388-1.155,2.504-2.519,2.504c-1.344,0-2.514-1.116-2.514-2.504
		c0-1.354,1.17-2.458,2.514-2.458C257.357,97.45,258.511,98.554,258.511,99.908z"/>
	<rect x="69.299" y="110.516" style="fill:#FFFFFF;" width="373.402" height="233.088"/>
</g>
<path style="fill:#E6E5E5;" d="M256.015,137.553c-24.307,0-44.073,19.694-44.073,44.006v26.179h14.116v-26.179
	c0-16.484,13.43-29.896,29.96-29.896c16.509,0,29.929,13.412,29.929,29.896v26.179h14.121v-26.179
	C300.065,157.247,280.32,137.553,256.015,137.553z"/>
<rect x="195.661" y="207.745" style="fill:#F77B55;" width="120.678" height="89.651"/>
<rect x="195.661" y="297.396" style="fill:#353F49;" width="120.678" height="19.177"/>
<rect x="206.643" y="239.771" style="fill:#FFFFFF;" width="98.732" height="25.626"/>
<g>
	<path style="fill:#353F49;" d="M222.633,257.071c-2.476,0-4.493-2.02-4.493-4.503c0-2.473,2.02-4.495,4.493-4.495
		c2.486,0,4.506,2.022,4.506,4.495C227.139,255.052,225.119,257.071,222.633,257.071z"/>
	<path style="fill:#353F49;" d="M239.291,257.071c-2.483,0-4.503-2.02-4.503-4.503c0-2.473,2.02-4.495,4.503-4.495
		c2.476,0,4.511,2.022,4.511,4.495C243.799,255.052,241.764,257.071,239.291,257.071z"/>
	<path style="fill:#353F49;" d="M255.995,257.071c-2.481,0-4.506-2.02-4.506-4.503c0-2.473,2.025-4.495,4.506-4.495
		c2.486,0,4.513,2.022,4.513,4.495C260.508,255.052,258.481,257.071,255.995,257.071z"/>
	<path style="fill:#353F49;" d="M272.701,257.071c-2.483,0-4.495-2.02-4.495-4.503c0-2.473,2.012-4.495,4.495-4.495
		c2.46,0,4.5,2.022,4.5,4.495C277.202,255.052,275.162,257.071,272.701,257.071z"/>
	<path style="fill:#353F49;" d="M289.354,257.071c-2.478,0-4.493-2.02-4.493-4.503c0-2.473,2.015-4.495,4.493-4.495
		c2.483,0,4.508,2.022,4.508,4.495C293.862,255.052,291.837,257.071,289.354,257.071z"/>
	<path style="fill:#353F49;" d="M410.03,422.67c-8.264,0-14.986-6.723-14.986-14.961V222.726c0-8.236,6.723-14.991,14.986-14.991
		h86.994c8.22,0,14.976,6.756,14.976,14.991v184.983c0,8.238-6.756,14.961-14.976,14.961H410.03z"/>
</g>
<g>
	<path style="fill:#474F59;" d="M466.504,407.203c0,1.964-1.59,3.553-3.602,3.553h-18.798c-1.933,0-3.556-1.59-3.556-3.553v-1.518
		c0-1.951,1.623-3.576,3.556-3.576h18.798c2.012,0,3.602,1.628,3.602,3.576V407.203z"/>
	<path style="fill:#474F59;" d="M469.207,224.306c0,0.819-0.645,1.452-1.492,1.452h-28.424c-0.783,0-1.436-0.632-1.436-1.452v-0.612
		c0-0.791,0.653-1.475,1.436-1.475h28.424c0.847,0,1.492,0.686,1.492,1.475V224.306z"/>
</g>
<rect x="403.533" y="240.257" style="fill:#FFFFFF;" width="100.019" height="149.965"/>
<path style="fill:#92DEEB;" d="M493.491,315.237c0,22.062-17.874,39.964-39.959,39.964s-39.977-17.902-39.977-39.964
	c0-22.088,17.892-39.99,39.977-39.99S493.491,293.149,493.491,315.237z"/>
<polygon style="fill:#FFFFFF;" points="431.741,315.524 435.871,311.389 447.414,322.943 471.171,299.191 475.323,303.369 
	447.414,331.255 "/>
<g>
</g>
<g>
</g>
<g>
</g>
<g>
</g>
<g>
</g>
<g>
</g>
<g>
</g>
<g>
</g>
<g>
</g>
<g>
</g>
<g>
</g>
<g>
</g>
<g>
</g>
<g>
</g>
<g>
</g>
</svg>
