<?xml version="1.0" encoding="iso-8859-1"?>
<!-- Generator: Adobe Illustrator 19.0.0, SVG Export Plug-In . SVG Version: 6.00 Build 0)  -->
<svg version="1.1" id="Layer_1" xmlns="http://www.w3.org/2000/svg" xmlns:xlink="http://www.w3.org/1999/xlink" x="0px" y="0px"
	 viewBox="0 0 512 512" style="enable-background:new 0 0 512 512;" xml:space="preserve">
<g>
	<rect x="479.232" y="88.489" style="fill:#353F49;" width="3.302" height="6.607"/>
	<path style="fill:#353F49;" d="M472.568,95.096h-6.666v-6.607h6.666V95.096z M459.243,95.096h-6.666v-6.607h6.666V95.096z
		 M445.914,95.096h-6.666v-6.607h6.666V95.096z M432.586,95.096h-6.666v-6.607h6.666V95.096z M419.256,95.096h-6.666v-6.607h6.666
		V95.096z M405.932,95.096h-6.666v-6.607h6.666V95.096z M392.602,95.096h-6.666v-6.607h6.666V95.096z M379.277,95.096h-6.666v-6.607
		h6.666V95.096z M365.947,95.096h-6.664v-6.607h6.664V95.096z M352.622,95.096h-6.666v-6.607h6.666V95.096z M339.292,95.096h-6.661
		v-6.607h6.661V95.096z M325.967,95.096h-6.666v-6.607h6.666L325.967,95.096L325.967,95.096z M312.637,95.096h-6.661v-6.607h6.661
		V95.096z M299.313,95.096h-6.666v-6.607h6.666L299.313,95.096L299.313,95.096z M285.985,95.096h-6.664v-6.607h6.664V95.096z
		 M272.658,95.096h-6.666v-6.607h6.666V95.096z M259.331,95.096h-6.664v-6.607h6.664V95.096z M246.003,95.096h-6.666v-6.607h6.666
		V95.096z M232.676,95.096h-6.664v-6.607h6.664V95.096z M219.348,95.096h-6.664v-6.607h6.664V95.096z M206.021,95.096h-6.664v-6.607
		h6.664V95.096z M192.694,95.096h-6.664v-6.607h6.664V95.096z M179.366,95.096h-6.664v-6.607h6.664V95.096z M166.039,95.096h-6.664
		v-6.607h6.664V95.096z M152.712,95.096h-6.664v-6.607h6.664V95.096z M139.384,95.096h-6.664v-6.607h6.664V95.096z M126.057,95.096
		h-6.664v-6.607h6.664V95.096z M112.732,95.096h-6.666v-6.607h6.666V95.096z M99.405,95.096h-6.666v-6.607h6.666V95.096z
		 M86.077,95.096h-6.666v-6.607h6.666V95.096z M72.748,95.096h-6.666v-6.607h6.666V95.096z M59.42,95.096h-6.666v-6.607h6.666
		V95.096z M46.093,95.096h-6.666v-6.607h6.666V95.096z"/>
	<rect x="29.466" y="88.489" style="fill:#353F49;" width="3.302" height="6.607"/>
	<rect x="479.232" y="416.896" style="fill:#353F49;" width="3.302" height="6.605"/>
	<path style="fill:#353F49;" d="M472.568,423.503h-6.666v-6.605h6.666V423.503z M459.243,423.503h-6.666v-6.605h6.666V423.503z
		 M445.914,423.503h-6.666v-6.605h6.666V423.503z M432.586,423.503h-6.666v-6.605h6.666V423.503z M419.256,423.503h-6.666v-6.605
		h6.666V423.503z M405.932,423.503h-6.666v-6.605h6.666V423.503z M392.602,423.503h-6.666v-6.605h6.666V423.503z M379.277,423.503
		h-6.666v-6.605h6.666V423.503z M365.947,423.503h-6.664v-6.605h6.664V423.503z M352.622,423.503h-6.666v-6.605h6.666V423.503z
		 M339.292,423.503h-6.661v-6.605h6.661V423.503z M325.967,423.503h-6.666v-6.605h6.666L325.967,423.503L325.967,423.503z
		 M312.637,423.503h-6.661v-6.605h6.661V423.503z M299.313,423.503h-6.666v-6.605h6.666L299.313,423.503L299.313,423.503z
		 M285.985,423.503h-6.664v-6.605h6.664V423.503z M272.658,423.503h-6.666v-6.605h6.666V423.503z M259.331,423.503h-6.664v-6.605
		h6.664V423.503z M246.003,423.503h-6.666v-6.605h6.666V423.503z M232.676,423.503h-6.664v-6.605h6.664V423.503z M219.348,423.503
		h-6.664v-6.605h6.664V423.503z M206.021,423.503h-6.664v-6.605h6.664V423.503z M192.694,423.503h-6.664v-6.605h6.664V423.503z
		 M179.366,423.503h-6.664v-6.605h6.664V423.503z M166.039,423.503h-6.664v-6.605h6.664V423.503z M152.712,423.503h-6.664v-6.605
		h6.664V423.503z M139.384,423.503h-6.664v-6.605h6.664V423.503z M126.057,423.503h-6.664v-6.605h6.664V423.503z M112.732,423.503
		h-6.666v-6.605h6.666V423.503z M99.405,423.503h-6.666v-6.605h6.666V423.503z M86.077,423.503h-6.666v-6.605h6.666V423.503z
		 M72.748,423.503h-6.666v-6.605h6.666V423.503z M59.42,423.503h-6.666v-6.605h6.666V423.503z M46.093,423.503h-6.666v-6.605h6.666
		V423.503z"/>
	<rect x="29.466" y="416.896" style="fill:#353F49;" width="3.302" height="6.605"/>
	<rect x="17.905" y="408.627" style="fill:#353F49;" width="6.607" height="3.305"/>
	<path style="fill:#353F49;" d="M24.509,402.143h-6.605v-6.497h6.607v6.497H24.509z M24.509,389.153h-6.605v-6.497h6.607v6.497
		H24.509z M24.509,376.161h-6.605v-6.497h6.607v6.497H24.509z M24.509,363.169h-6.605v-6.495h6.607v6.495H24.509z M24.509,350.177
		h-6.605v-6.492h6.607v6.492H24.509z M24.509,337.188h-6.605v-6.495h6.607v6.495H24.509z M24.509,324.198h-6.605v-6.495h6.607v6.495
		H24.509z M24.509,311.206h-6.605v-6.497h6.607v6.497H24.509z M24.509,298.214h-6.605v-6.495h6.607v6.495H24.509z M24.509,285.225
		h-6.605v-6.495h6.607v6.495H24.509z M24.509,272.236h-6.605v-6.497h6.607v6.497H24.509z M24.509,259.243h-6.605v-6.495h6.607v6.495
		H24.509z M24.509,246.252h-6.605v-6.495h6.607v6.495H24.509z M24.509,233.262h-6.605v-6.495h6.607v6.495H24.509z M24.509,220.27
		h-6.605v-6.495h6.607v6.495H24.509z M24.509,207.281h-6.605v-6.497h6.607v6.497H24.509z M24.509,194.289h-6.605v-6.495h6.607v6.495
		H24.509z M24.509,181.299h-6.605v-6.495h6.607v6.495H24.509z M24.509,168.307h-6.605v-6.495h6.607v6.495H24.509z M24.509,155.315
		h-6.605v-6.495h6.607v6.495H24.509z M24.509,142.326h-6.605v-6.495h6.607v6.495H24.509z M24.509,129.334h-6.605v-6.495h6.607v6.495
		H24.509z M24.509,116.344h-6.605v-6.495h6.607v6.495H24.509z"/>
	<rect x="17.905" y="100.045" style="fill:#353F49;" width="6.607" height="3.305"/>
	<rect x="487.501" y="408.627" style="fill:#353F49;" width="6.607" height="3.305"/>
	<path style="fill:#353F49;" d="M494.098,402.143h-6.607v-6.497h6.607V402.143z M494.098,389.153h-6.607v-6.497h6.607V389.153z
		 M494.098,376.161h-6.607v-6.497h6.607V376.161z M494.098,363.169h-6.607v-6.495h6.607V363.169z M494.098,350.177h-6.607v-6.492
		h6.607V350.177z M494.098,337.188h-6.607v-6.495h6.607V337.188z M494.098,324.198h-6.607v-6.495h6.607V324.198z M494.098,311.206
		h-6.607v-6.497h6.607V311.206z M494.098,298.214h-6.607v-6.495h6.607V298.214z M494.098,285.225h-6.607v-6.495h6.607V285.225z
		 M494.098,272.236h-6.607v-6.497h6.607V272.236z M494.098,259.243h-6.607v-6.495h6.607V259.243z M494.098,246.252h-6.607v-6.495
		h6.607V246.252z M494.098,233.262h-6.607v-6.495h6.607V233.262z M494.098,220.27h-6.607v-6.495h6.607V220.27z M494.098,207.281
		h-6.607v-6.497h6.607V207.281z M494.098,194.289h-6.607v-6.495h6.607V194.289z M494.098,181.299h-6.607v-6.495h6.607V181.299z
		 M494.098,168.307h-6.607v-6.495h6.607V168.307z M494.098,155.315h-6.607v-6.495h6.607V155.315z M494.098,142.326h-6.607v-6.495
		h6.607V142.326z M494.098,129.334h-6.607v-6.495h6.607V129.334z M494.098,116.344h-6.607v-6.495h6.607V116.344z"/>
	<rect x="487.501" y="100.045" style="fill:#353F49;" width="6.607" height="3.305"/>
	<path style="fill:#353F49;" d="M32.76,103.365H9.638V80.243H32.76V103.365z M16.246,96.758h9.91v-9.91h-9.91V96.758z"/>
	<path style="fill:#353F49;" d="M502.362,103.365h-23.125V80.243h23.125V103.365z M485.844,96.758h9.91v-9.91h-9.91V96.758z"/>
	<path style="fill:#353F49;" d="M32.76,431.757H9.638v-23.122H32.76V431.757z M16.246,425.152h9.91v-9.91h-9.91V425.152z"/>
	<path style="fill:#353F49;" d="M502.362,431.757h-23.125v-23.122h23.125V431.757z M485.844,425.152h9.91v-9.91h-9.91V425.152z"/>
	<path style="fill:#353F49;" d="M460.337,122.25c-2.67-2.708-6.208-4.022-9.761-4.022H61.427c-3.53,0-7.076,1.313-9.764,4.022
		c-2.691,2.691-4.035,6.216-4.035,9.761v240.494h416.747V132.012C464.374,128.468,463.045,124.943,460.337,122.25z"/>
</g>
<path style="fill:#474F59;" d="M261.842,128.801c0,3.256-2.609,5.868-5.847,5.868c-3.246,0-5.839-2.611-5.839-5.868
	c0-3.215,2.593-5.816,5.839-5.816C259.236,122.985,261.842,125.583,261.842,128.801z"/>
<g>
	<path style="fill:#FFFFFF;" d="M258.511,128.801c0,1.4-1.144,2.506-2.516,2.506c-1.364,0-2.509-1.106-2.509-2.506
		c0-1.341,1.144-2.46,2.509-2.46C257.367,126.339,258.511,127.457,258.511,128.801z"/>
	<rect x="69.325" y="139.418" style="fill:#FFFFFF;" width="373.35" height="233.088"/>
</g>
<path style="fill:#CCCBCA;" d="M0,380.442c19.466,8.589,41.001,13.327,63.665,13.327h384.678c22.659,0,44.173-4.739,63.657-13.327H0
	z"/>
<rect y="372.506" style="fill:#E6E5E5;" width="512" height="7.936"/>
<rect x="211.558" y="372.506" style="fill:#CCCBCA;" width="88.87" height="3.963"/>
<rect x="90.342" y="184.448" style="fill:#D9D8D7;" width="179.018" height="167.014"/>
<polygon style="fill:#353F49;" points="207.795,239.473 151.923,239.473 148.106,320.712 211.622,320.712 "/>
<path style="fill:#FFFFFF;" d="M241.441,333.348c-0.878-2.79-2.358-5.427-4.485-7.713c-2.102-2.291-4.626-3.973-7.329-5.051
	l-28.861-11.448c-1.454-0.591-2.767-1.615-3.72-2.99c-0.96-1.426-1.4-3.003-1.4-4.549v-14.09h-31.567v14.09
	c0,1.546-0.479,3.126-1.4,4.549c-0.952,1.375-2.266,2.399-3.72,2.99l-28.851,11.448c-2.716,1.078-5.233,2.76-7.345,5.051
	c-2.12,2.286-3.599,4.923-4.488,7.713l-5.701,18.122H247.15L241.441,333.348z"/>
<path style="fill:#F77B55;" d="M140.836,331.387c0,7.16-1.121,14.413-3.057,20.083h84.173c-1.946-5.67-3.069-12.923-3.069-20.083
	c0-5.151,0.573-9.999,1.626-14.403l-7.724-3.062l-3.328,13.353c-1.574,6.38-5.222,12.337-10.798,16.701
	c-5.591,4.365-11.799,6.208-18.796,6.208c-7.022,0-13.228-1.843-18.803-6.208c-5.568-4.365-9.208-10.322-10.79-16.701l-3.323-13.353
	l-7.729,3.062C140.27,321.388,140.836,326.239,140.836,331.387z"/>
<path style="fill:#FFFFFF;" d="M179.86,216.033c-17.262,0-29.588,12.605-29.588,39.263c0,22.559,13.266,41.615,29.588,41.615
	c16.325,0,29.573-19.057,29.573-41.615C209.436,228.639,197.125,216.033,179.86,216.033z"/>
<g>
	<path style="fill:#353F49;" d="M206.403,217.462H179.86h-26.534c0,0-3.779,26.552,1.042,31.936c0.195-2.189,2.143-2.824,5.64-2.829
		c0,0,2.993-3.297,5.112-12.403c1.631,6.203,0.886,12.669,0.886,12.669c3.763,0.259,8.412,0.637,13.857,0.666
		c1.382-0.01,2.703-0.033,3.981-0.056c0,0,1.605-1.011,2.319-3.364c1.004,1.293,1.126,3.195,1.126,3.195
		c11.348-0.622,17.7-1.938,18.056,2.125C210.179,244.012,206.403,217.462,206.403,217.462z"/>
	<path style="fill:#353F49;" d="M158.958,309.138c1.454-0.591,2.77-1.615,3.72-2.99c0.922-1.426,1.4-3.003,1.4-4.549v-6.001h-8.896
		c-1.147-8.376-1.795-16.645-1.795-24.474c0-23.158,1.6-31.836,7.99-39.654c8.274-10.066,18.483-12.175,18.483-12.175
		s10.217,2.109,18.488,12.175c6.385,7.818,7.956,16.497,7.956,39.654c0,7.828-0.612,16.095-1.766,24.474h-8.891v6.001
		c0,1.546,0.438,3.126,1.4,4.549c0.952,1.375,2.263,2.399,3.72,2.99l16.507,6.556c2.056-2.527,3.075-5.601,3.075-8.671v-11.425
		c0-19.213-0.556-44.209-4.626-62.479c-3.546-15.667-16.927-30.792-35.86-26.683c-18.929-4.109-32.305,11.016-35.848,26.683
		c-4.083,18.271-4.664,43.267-4.664,62.479v11.425c0,3.069,1.052,6.141,3.108,8.671L158.958,309.138z"/>
	<rect x="90.342" y="160.461" style="fill:#353F49;" width="179.018" height="23.995"/>
</g>
<g>
	<path style="fill:#FFFFFF;" d="M106.079,172.452c0,2.081-1.684,3.753-3.748,3.753c-2.061,0-3.748-1.672-3.748-3.753
		c0-2.068,1.687-3.748,3.748-3.748C104.394,168.704,106.079,170.383,106.079,172.452z"/>
	<path style="fill:#FFFFFF;" d="M120.077,172.452c0,2.081-1.677,3.753-3.745,3.753c-2.076,0-3.748-1.672-3.748-3.753
		c0-2.068,1.674-3.748,3.748-3.748C118.4,168.704,120.077,170.383,120.077,172.452z"/>
	<path style="fill:#FFFFFF;" d="M134.083,172.452c0,2.081-1.684,3.753-3.748,3.753c-2.084,0-3.748-1.672-3.748-3.753
		c0-2.068,1.664-3.748,3.748-3.748C132.401,168.704,134.083,170.383,134.083,172.452z"/>
</g>
<rect x="290.406" y="160.461" style="fill:#F77B55;" width="131.226" height="47.987"/>
<g>
	<rect x="290.406" y="216.038" style="fill:#CCCBCA;" width="131.226" height="7.593"/>
	<rect x="290.406" y="231.219" style="fill:#CCCBCA;" width="131.226" height="7.601"/>
	<rect x="290.406" y="246.426" style="fill:#CCCBCA;" width="65.603" height="7.601"/>
</g>
<circle style="fill:#D9D8D7;" cx="347.622" cy="304.845" r="10.58"/>
<g>
	<polygon style="fill:#353F49;" points="369.08,358.021 347.63,304.863 400.786,326.31 380.088,337.311 	"/>
	
		<rect x="382.653" y="331.559" transform="matrix(-0.707 0.7073 -0.7073 -0.707 903.7471 313.693)" style="fill:#353F49;" width="8.466" height="25.031"/>
</g>
<g>
	
		<rect x="319.69" y="282.819" transform="matrix(-0.707 -0.7072 0.7072 -0.707 357.3651 716.9979)" style="fill:#CCCBCA;" width="15.035" height="3.305"/>
	<polygon style="fill:#CCCBCA;" points="327.306,298.222 313.403,292.47 314.67,289.423 328.579,295.171 	"/>
	<rect x="311.27" y="303.206" style="fill:#CCCBCA;" width="15.037" height="3.3"/>
	<polygon style="fill:#CCCBCA;" points="314.678,320.307 313.423,317.243 327.322,311.485 328.586,314.532 	"/>
	
		<rect x="325.588" y="317.737" transform="matrix(-0.7064 -0.7079 0.7079 -0.7064 328.1514 786.6489)" style="fill:#CCCBCA;" width="3.305" height="15.046"/>
	
		<rect x="334.939" y="323.934" transform="matrix(-0.924 -0.3823 0.3823 -0.924 520.894 766.4393)" style="fill:#CCCBCA;" width="3.31" height="15.068"/>
	<rect x="345.984" y="326.17" style="fill:#CCCBCA;" width="3.3" height="15.043"/>
	<rect x="368.922" y="303.206" style="fill:#CCCBCA;" width="15.063" height="3.3"/>
	
		<rect x="372.615" y="286.296" transform="matrix(-0.3822 -0.9241 0.9241 -0.3822 245.7938 751.9689)" style="fill:#CCCBCA;" width="3.302" height="15.048"/>
	
		<rect x="366.341" y="276.934" transform="matrix(-0.7082 -0.706 0.706 -0.7082 427.7823 745.7185)" style="fill:#CCCBCA;" width="3.308" height="15.048"/>
	
		<rect x="357.021" y="270.672" transform="matrix(-0.9238 -0.3828 0.3828 -0.9238 583.5295 672.5061)" style="fill:#CCCBCA;" width="3.305" height="15.05"/>
	<rect x="345.984" y="268.493" style="fill:#CCCBCA;" width="3.3" height="15.045"/>
	
		<rect x="329.078" y="276.543" transform="matrix(-0.3828 -0.9238 0.9238 -0.3828 208.4481 695.6563)" style="fill:#CCCBCA;" width="15.045" height="3.31"/>
</g>
<g>
</g>
<g>
</g>
<g>
</g>
<g>
</g>
<g>
</g>
<g>
</g>
<g>
</g>
<g>
</g>
<g>
</g>
<g>
</g>
<g>
</g>
<g>
</g>
<g>
</g>
<g>
</g>
<g>
</g>
</svg>
