<?xml version="1.0" encoding="iso-8859-1"?>
<!-- Generator: Adobe Illustrator 19.0.0, SVG Export Plug-In . SVG Version: 6.00 Build 0)  -->
<svg version="1.1" id="Layer_1" xmlns="http://www.w3.org/2000/svg" xmlns:xlink="http://www.w3.org/1999/xlink" x="0px" y="0px"
	 viewBox="0 0 512 512" style="enable-background:new 0 0 512 512;" xml:space="preserve">
<circle style="fill:#FF916E;" cx="256" cy="256" r="256"/>
<path style="fill:#353F49;" d="M447.161,171.523c-2.504-2.537-5.814-3.762-9.133-3.762H73.979c-3.303,0-6.613,1.225-9.137,3.762
	c-2.514,2.51-3.776,5.814-3.776,9.133v224.976h389.86V180.653C450.933,177.337,449.691,174.034,447.161,171.523z"/>
<path style="fill:#474F59;" d="M261.47,177.651c0,3.052-2.444,5.483-5.47,5.483c-3.032,0-5.467-2.431-5.467-5.483
	c0-3.006,2.434-5.444,5.467-5.444C259.026,172.207,261.47,174.645,261.47,177.651z"/>
<g>
	<path style="fill:#FFFFFF;" d="M258.355,177.651c0,1.305-1.07,2.342-2.355,2.342c-1.278,0-2.349-1.037-2.349-2.342
		c0-1.262,1.07-2.302,2.349-2.302C257.285,175.348,258.355,176.389,258.355,177.651z"/>
	<rect x="81.368" y="187.587" style="fill:#FFFFFF;" width="349.283" height="218.046"/>
</g>
<rect x="162.023" y="240.211" style="fill:#F77B55;" width="187.937" height="112.772"/>
<polygon style="fill:#353F49;" points="161.964,240.227 256.003,309.763 350.043,240.227 "/>
<circle style="fill:#F77B55;" cx="395.726" cy="222.505" r="20.1"/>
<g>
	<path style="fill:#FFFFFF;" d="M395.733,223.222v-3.68c1.443,0,2.619-1.179,2.619-2.626c0-1.447-1.176-2.626-2.619-2.626
		c-1.447,0-2.626,1.179-2.626,2.626h-3.68c0-3.478,2.821-6.309,6.306-6.309c3.478,0,6.309,2.831,6.309,6.309
		C402.042,220.395,399.208,223.222,395.733,223.222z"/>
	<path style="fill:#FFFFFF;" d="M395.733,234.387c-4.096,0-7.429-3.333-7.429-7.422h3.686c0,2.061,1.675,3.743,3.743,3.743
		c2.061,0,3.739-1.681,3.739-3.743c0-2.061-1.678-3.743-3.739-3.743v-3.68c4.093,0,7.422,3.323,7.422,7.422
		C403.155,231.054,399.826,234.387,395.733,234.387z"/>
</g>
<path style="fill:#CCCBCA;" d="M16.516,413.052c18.214,8.043,38.354,12.476,59.554,12.476h359.863
	c21.193,0,41.323-4.436,59.547-12.476L16.516,413.052L16.516,413.052z"/>
<rect x="16.516" y="405.636" style="fill:#E6E5E5;" width="478.968" height="7.419"/>
<rect x="214.432" y="405.636" style="fill:#CCCBCA;" width="83.142" height="3.706"/>
<g>
	<path style="fill:#FFFFFF;" d="M371.917,118.269l-0.968-4.862c2.738-0.542,5.45-1.057,8.136-1.556l0.895,4.879
		C377.318,117.212,374.625,117.73,371.917,118.269z"/>
	<path style="fill:#FFFFFF;" d="M199.237,174.932l-2.038-4.516c4.595-2.078,9.252-4.132,13.969-6.164l1.962,4.549
		C208.44,170.82,203.809,172.864,199.237,174.932z M227.123,162.912l-1.88-4.585c4.674-1.916,9.398-3.809,14.171-5.675l1.807,4.615
		C236.471,159.126,231.768,161.006,227.123,162.912z M255.405,151.872l-1.721-4.644c4.806-1.784,9.593-3.511,14.356-5.186
		l1.645,4.674C264.948,148.378,260.188,150.095,255.405,151.872z M284.044,141.807l-1.562-4.704
		c4.879-1.619,9.725-3.181,14.534-4.677l1.477,4.73C293.713,138.646,288.897,140.196,284.044,141.807z M313.027,132.773
		l-1.387-4.753c4.948-1.447,9.85-2.821,14.706-4.129l1.292,4.786C322.814,129.975,317.942,131.343,313.027,132.773z
		 M342.327,124.878l-1.189-4.813c5.021-1.239,9.979-2.408,14.871-3.505l1.083,4.836
		C352.233,122.484,347.311,123.646,342.327,124.878z"/>
	<path style="fill:#FFFFFF;" d="M178.014,184.891l-2.167-4.453c2.464-1.199,4.948-2.395,7.459-3.584l2.124,4.476
		C182.936,182.516,180.465,183.699,178.014,184.891z"/>
</g>
<path style="fill:#CCCBCA;" d="M81.821,242.285c24.844-18.779,55.782-37.412,90.634-54.698H161.32
	c-30.779,15.717-57.711,32.111-79.495,48.237v6.461H81.821z"/>
<path style="fill:#FFFFFF;" d="M22.736,323.178c4.618,11.941,17.524,19.951,38.334,23.81v-5.051
	c-18.217-3.538-29.878-10.626-33.716-20.549c-7.019-18.128,11.657-46.077,51.243-76.678c1.047-0.806,2.154-1.615,3.224-2.425v-6.461
	C37.231,268.83,14.029,300.686,22.736,323.178z"/>
<polygon style="fill:#E6E5E5;" points="374.493,75.551 364.494,120.951 512,87.033 "/>
<g>
	<polygon style="fill:#F2F2F2;" points="383.547,87.502 416.633,131.29 512,87.033 	"/>
	<polygon style="fill:#F2F2F2;" points="354.354,48.865 374.493,75.551 512,87.033 	"/>
</g>
<polygon style="fill:#CCCBCA;" points="364.494,120.951 383.547,87.502 402.29,112.263 "/>
<g>
</g>
<g>
</g>
<g>
</g>
<g>
</g>
<g>
</g>
<g>
</g>
<g>
</g>
<g>
</g>
<g>
</g>
<g>
</g>
<g>
</g>
<g>
</g>
<g>
</g>
<g>
</g>
<g>
</g>
</svg>
