<?xml version="1.0" encoding="iso-8859-1"?>
<!-- Generator: Adobe Illustrator 19.0.0, SVG Export Plug-In . SVG Version: 6.00 Build 0)  -->
<svg version="1.1" id="Layer_1" xmlns="http://www.w3.org/2000/svg" xmlns:xlink="http://www.w3.org/1999/xlink" x="0px" y="0px"
	 viewBox="0 0 512 512" style="enable-background:new 0 0 512 512;" xml:space="preserve">
<circle style="fill:#FFDB79;" cx="256" cy="256" r="256"/>
<g>
	<polygon style="fill:#474F59;" points="28.147,425.71 16.146,425.71 16.146,413.719 22.237,413.719 22.237,419.625 28.147,419.625 
			"/>
	<path style="fill:#474F59;" d="M22.237,395.162h-6.091v-18.558h6.094v18.558H22.237z M22.237,358.053h-6.091v-18.554h6.094v18.554
		H22.237z M22.237,320.941h-6.091v-18.558h6.094v18.558H22.237z M22.237,283.833h-6.091v-18.554h6.094v18.554H22.237z
		 M22.237,246.721h-6.091v-18.554h6.094v18.554H22.237z M22.237,209.613h-6.091v-18.558h6.094v18.558H22.237z M22.237,172.504
		h-6.091V153.95h6.094v18.554H22.237z M22.237,135.393h-6.091v-18.558h6.094v18.558H22.237z"/>
	<polygon style="fill:#474F59;" points="22.237,98.284 16.146,98.284 16.146,86.29 28.147,86.29 28.147,92.375 22.237,92.375 	"/>
	<path style="fill:#474F59;" d="M465.629,92.375h-18.23V86.29h18.23V92.375z M429.172,92.375h-18.227V86.29h18.227V92.375z
		 M392.714,92.375h-18.227V86.29h18.227V92.375z M356.259,92.375h-18.23V86.29h18.23V92.375z M319.799,92.375h-18.23V86.29h18.23
		V92.375z M283.341,92.375h-18.23V86.29h18.23V92.375z M246.886,92.375h-18.23V86.29h18.23V92.375z M210.425,92.375h-18.224V86.29
		h18.224L210.425,92.375L210.425,92.375z M173.971,92.375H155.74V86.29h18.231V92.375z M137.517,92.375h-18.23V86.29h18.23V92.375z
		 M101.056,92.375H82.828V86.29h18.227V92.375z M64.601,92.375h-18.23V86.29h18.23V92.375z"/>
	<polygon style="fill:#474F59;" points="495.854,98.284 489.763,98.284 489.763,92.375 483.853,92.375 483.853,86.29 495.854,86.29 
			"/>
	<path style="fill:#474F59;" d="M495.854,395.165h-6.094v-18.554h6.094V395.165z M495.854,358.053h-6.094v-18.554h6.094V358.053z
		 M495.854,320.945h-6.094v-18.558h6.094V320.945z M495.854,283.833h-6.094v-18.554h6.094V283.833z M495.854,246.725h-6.094v-18.558
		h6.094V246.725z M495.854,209.616h-6.094v-18.558h6.094V209.616z M495.854,172.504h-6.094V153.95h6.094V172.504z M495.854,135.396
		h-6.094v-18.558h6.094V135.396z"/>
	<polygon style="fill:#474F59;" points="495.854,425.71 483.853,425.71 483.853,419.625 489.763,419.625 489.763,413.719 
		495.854,413.719 	"/>
	<path style="fill:#474F59;" d="M465.629,425.71h-18.23v-6.085h18.23V425.71z M429.172,425.71h-18.227v-6.085h18.227V425.71z
		 M392.714,425.71H374.48v-6.085h18.234V425.71z M356.259,425.71h-18.23v-6.085h18.23V425.71z M319.795,425.71h-18.227v-6.085
		h18.227V425.71z M283.341,425.71h-18.23v-6.085h18.23V425.71z M246.886,425.71h-18.23v-6.085h18.23V425.71z M210.425,425.71
		h-18.227v-6.085h18.227V425.71z M173.971,425.71H155.74v-6.085h18.231V425.71z M137.513,425.71h-18.227v-6.085h18.227V425.71z
		 M101.056,425.71H82.828v-6.085h18.227V425.71z M64.601,425.71h-18.23v-6.085h18.23V425.71z"/>
	<polygon style="fill:#474F59;" points="507.405,92.375 489.763,92.375 489.763,74.735 495.854,74.735 495.854,86.29 507.405,86.29 
			"/>
	<polygon style="fill:#474F59;" points="495.854,437.264 489.763,437.264 489.763,419.625 507.405,419.625 507.405,425.71 
		495.854,425.71 	"/>
	<polygon style="fill:#474F59;" points="22.237,92.375 4.595,92.375 4.595,86.29 16.146,86.29 16.146,74.735 22.237,74.735 	"/>
	<polygon style="fill:#474F59;" points="22.237,437.264 16.146,437.264 16.146,425.71 4.595,425.71 4.595,419.625 22.237,419.625 	
		"/>
</g>
<path style="fill:#353F49;" d="M460.338,122.289c-2.672-2.709-6.21-4.023-9.761-4.023H61.427c-3.528,0-7.076,1.311-9.764,4.023
	c-2.689,2.689-4.037,6.217-4.037,9.761v240.495h416.748V132.05C464.374,128.502,463.046,124.978,460.338,122.289z"/>
<path style="fill:#474F59;" d="M261.843,128.836c0,3.257-2.606,5.867-5.847,5.867c-3.244,0-5.84-2.61-5.84-5.867
	c0-3.217,2.593-5.817,5.84-5.817C259.234,123.019,261.843,125.618,261.843,128.836z"/>
<g>
	<path style="fill:#FFFFFF;" d="M258.514,128.836c0,1.401-1.146,2.507-2.517,2.507c-1.364,0-2.51-1.107-2.51-2.507
		c0-1.341,1.146-2.461,2.51-2.461C257.368,126.375,258.514,127.495,258.514,128.836z"/>
	<rect x="69.315" y="139.462" style="fill:#FFFFFF;" width="373.364" height="233.076"/>
</g>
<path style="fill:#CCCBCA;" d="M0,380.479c19.469,8.592,41,13.328,63.663,13.328H448.34c22.657,0,44.174-4.74,63.656-13.329
	L0,380.479L0,380.479z"/>
<rect y="372.538" style="fill:#F2F2F2;" width="512" height="7.934"/>
<rect x="211.572" y="372.538" style="fill:#CCCBCA;" width="88.87" height="3.964"/>
<rect x="90.353" y="184.492" style="fill:#D9D8D7;" width="179.035" height="167.018"/>
<polygon style="fill:#353F49;" points="207.796,239.51 151.922,239.51 148.107,320.75 211.621,320.75 "/>
<path style="fill:#FFFFFF;" d="M241.443,333.385c-0.879-2.791-2.358-5.43-4.482-7.713c-2.104-2.289-4.625-3.974-7.33-5.051
	l-28.86-11.446c-1.453-0.595-2.768-1.615-3.719-2.989c-0.961-1.427-1.401-3.003-1.401-4.552v-14.092h-31.572v14.092
	c0,1.549-0.479,3.125-1.401,4.552c-0.951,1.374-2.266,2.398-3.719,2.989l-28.85,11.446c-2.715,1.077-5.232,2.762-7.346,5.051
	c-2.121,2.283-3.601,4.922-4.486,7.713l-5.701,18.121h134.577L241.443,333.385z"/>
<path style="fill:#F77B55;" d="M140.836,331.423c0,7.161-1.123,14.412-3.059,20.084h84.173c-1.946-5.672-3.072-12.922-3.072-20.084
	c0-5.15,0.575-9.999,1.625-14.402l-7.723-3.062l-3.33,13.352c-1.576,6.382-5.222,12.338-10.798,16.704
	c-5.589,4.364-11.799,6.207-18.795,6.207c-7.023,0-13.226-1.843-18.802-6.207c-5.569-4.364-9.209-10.323-10.792-16.704
	l-3.323-13.352l-7.73,3.062C140.271,321.424,140.836,326.273,140.836,331.423z"/>
<path style="fill:#FFFFFF;" d="M179.861,216.067c-17.263,0-29.587,12.605-29.587,39.265c0,22.558,13.266,41.617,29.587,41.617
	c16.325,0,29.574-19.06,29.574-41.617C209.434,228.676,197.127,216.067,179.861,216.067z"/>
<g>
	<path style="fill:#353F49;" d="M206.402,217.498h-26.541h-26.535c0,0-3.779,26.551,1.041,31.936c0.195-2.19,2.14-2.821,5.639-2.828
		c0,0,2.993-3.297,5.113-12.404c1.628,6.203,0.885,12.671,0.885,12.671c3.766,0.258,8.413,0.634,13.857,0.664
		c1.381-0.01,2.702-0.033,3.98-0.059c0,0,1.605-1.011,2.319-3.366c1.004,1.295,1.126,3.194,1.126,3.194
		c11.35-0.621,17.699-1.939,18.055,2.127C210.178,244.049,206.402,217.498,206.402,217.498z"/>
	<path style="fill:#353F49;" d="M158.958,309.175c1.453-0.595,2.768-1.615,3.719-2.989c0.922-1.427,1.401-3.003,1.401-4.552v-5.999
		h-8.896c-1.146-8.377-1.794-16.645-1.794-24.47c0-23.159,1.599-31.837,7.99-39.655c8.275-10.065,18.485-12.176,18.485-12.176
		s10.217,2.111,18.488,12.176c6.385,7.819,7.957,16.496,7.957,39.655c0,7.825-0.614,16.093-1.767,24.47h-8.889v5.999
		c0,1.549,0.439,3.125,1.401,4.552c0.951,1.374,2.266,2.398,3.719,2.989l16.506,6.554c2.055-2.53,3.075-5.599,3.075-8.671v-11.426
		c0-19.212-0.555-44.207-4.625-62.477c-3.544-15.667-16.926-30.793-35.86-26.683c-18.927-4.109-32.302,11.016-35.85,26.683
		c-4.083,18.27-4.664,43.266-4.664,62.477v11.426c0,3.072,1.05,6.141,3.108,8.671L158.958,309.175z"/>
	<rect x="90.353" y="160.497" style="fill:#353F49;" width="179.035" height="23.995"/>
</g>
<g>
	<circle style="fill:#FFFFFF;" cx="102.331" cy="172.494" r="3.749"/>
	<circle style="fill:#FFFFFF;" cx="116.34" cy="172.494" r="3.746"/>
	<path style="fill:#FFFFFF;" d="M134.085,172.488c0,2.081-1.685,3.752-3.749,3.752c-2.084,0-3.749-1.671-3.749-3.752
		c0-2.068,1.665-3.749,3.749-3.749C132.4,168.739,134.085,170.42,134.085,172.488z"/>
</g>
<rect x="290.42" y="160.497" style="fill:#F77B55;" width="131.231" height="47.986"/>
<g>
	<rect x="290.42" y="216.064" style="fill:#CCCBCA;" width="131.231" height="7.594"/>
	<rect x="290.42" y="231.259" style="fill:#CCCBCA;" width="131.231" height="7.601"/>
	<rect x="290.42" y="246.454" style="fill:#CCCBCA;" width="65.602" height="7.601"/>
</g>
<circle style="fill:#D9D8D7;" cx="347.631" cy="304.888" r="10.58"/>
<g>
	<polygon style="fill:#353F49;" points="369.079,358.056 347.628,304.898 400.784,326.345 380.086,337.345 	"/>
	
		<rect x="382.623" y="331.599" transform="matrix(-0.7071 0.7071 -0.7071 -0.7071 903.7299 313.8927)" style="fill:#353F49;" width="8.466" height="25.032"/>
</g>
<g>
	
		<rect x="319.728" y="282.849" transform="matrix(-0.707 -0.7072 0.7072 -0.707 357.4081 717.0735)" style="fill:#CCCBCA;" width="15.033" height="3.303"/>
	
		<rect x="313.492" y="292.233" transform="matrix(-0.924 -0.3823 0.3823 -0.924 505.3045 688.1617)" style="fill:#CCCBCA;" width="15.047" height="3.3"/>
	<rect x="311.263" y="303.236" style="fill:#CCCBCA;" width="15.04" height="3.3"/>
	<polygon style="fill:#CCCBCA;" points="314.678,320.344 313.423,317.278 327.323,311.521 328.585,314.566 	"/>
	
		<rect x="325.59" y="317.743" transform="matrix(-0.7066 -0.7076 0.7076 -0.7066 328.3125 786.6586)" style="fill:#CCCBCA;" width="3.303" height="15.046"/>
	
		<rect x="334.94" y="323.976" transform="matrix(-0.9241 -0.3821 0.3821 -0.9241 520.9694 766.4792)" style="fill:#CCCBCA;" width="3.303" height="15.069"/>
	<rect x="345.98" y="326.194" style="fill:#CCCBCA;" width="3.3" height="15.043"/>
	<rect x="368.904" y="303.236" style="fill:#CCCBCA;" width="15.063" height="3.3"/>
	
		<rect x="372.624" y="286.34" transform="matrix(-0.382 -0.9242 0.9242 -0.382 245.6646 752.0091)" style="fill:#CCCBCA;" width="3.303" height="15.047"/>
	
		<rect x="366.377" y="276.962" transform="matrix(-0.7081 -0.7061 0.7061 -0.7081 427.7545 745.7981)" style="fill:#CCCBCA;" width="3.303" height="15.046"/>
	
		<rect x="357.006" y="270.718" transform="matrix(-0.9238 -0.3828 0.3828 -0.9238 583.4803 672.5878)" style="fill:#CCCBCA;" width="3.303" height="15.049"/>
	<rect x="345.98" y="268.552" style="fill:#CCCBCA;" width="3.3" height="15.046"/>
	
		<rect x="329.061" y="276.607" transform="matrix(-0.3829 -0.9238 0.9238 -0.3829 208.4085 695.7363)" style="fill:#CCCBCA;" width="15.046" height="3.303"/>
</g>
<g>
</g>
<g>
</g>
<g>
</g>
<g>
</g>
<g>
</g>
<g>
</g>
<g>
</g>
<g>
</g>
<g>
</g>
<g>
</g>
<g>
</g>
<g>
</g>
<g>
</g>
<g>
</g>
<g>
</g>
</svg>
