<?xml version="1.0" encoding="iso-8859-1"?>
<!-- Generator: Adobe Illustrator 19.0.0, SVG Export Plug-In . SVG Version: 6.00 Build 0)  -->
<svg version="1.1" id="Layer_1" xmlns="http://www.w3.org/2000/svg" xmlns:xlink="http://www.w3.org/1999/xlink" x="0px" y="0px"
	 viewBox="0 0 512 512" style="enable-background:new 0 0 512 512;" xml:space="preserve">
<circle style="fill:#ADECF7;" cx="256" cy="256" r="256"/>
<g>
	<polygon style="fill:#474F59;" points="261.814,179.193 250.183,179.193 246.784,196.146 265.216,196.146 	"/>
	<polygon style="fill:#474F59;" points="222.661,186.563 212.556,192.377 218.089,208.794 234.06,199.538 	"/>
	<polygon style="fill:#474F59;" points="192.406,212.563 186.586,222.624 199.561,234.06 208.794,218.092 	"/>
	<polygon style="fill:#474F59;" points="179.2,250.183 179.207,261.824 196.175,265.223 196.175,246.777 	"/>
	<polygon style="fill:#474F59;" points="186.586,289.363 192.406,299.437 208.794,293.918 199.561,277.94 	"/>
	<polygon style="fill:#474F59;" points="212.556,319.607 222.661,325.417 234.06,312.445 218.089,303.206 	"/>
	<polygon style="fill:#474F59;" points="250.183,332.807 261.814,332.807 265.216,315.838 246.784,315.838 	"/>
	<polygon style="fill:#474F59;" points="289.369,325.417 299.454,319.607 293.914,303.206 277.94,312.445 	"/>
	<polygon style="fill:#474F59;" points="319.607,299.437 325.417,289.363 312.439,277.94 303.216,293.918 	"/>
	<polygon style="fill:#474F59;" points="332.8,261.824 332.8,250.183 315.858,246.777 315.858,265.223 	"/>
	<polygon style="fill:#474F59;" points="325.417,222.624 319.607,212.563 303.216,218.092 312.439,234.06 	"/>
	<polygon style="fill:#474F59;" points="299.454,192.377 289.339,186.593 277.94,199.538 293.914,208.794 	"/>
</g>
<path style="fill:#353F49;" d="M255.993,195.455c-33.425,0-60.548,27.09-60.548,60.545c0,33.445,27.123,60.538,60.548,60.538
	c33.462,0,60.571-27.093,60.571-60.538C316.565,222.545,289.455,195.455,255.993,195.455z M255.993,272.761
	c-9.229,0-16.754-7.515-16.754-16.761c0-9.239,7.525-16.761,16.754-16.761c9.269,0,16.77,7.521,16.77,16.761
	C272.764,265.246,265.262,272.761,255.993,272.761z"/>
<g>
	<path style="fill:#FFFFFF;" d="M255.993,226.938c-16.044,0-29.055,13.008-29.055,29.062c0,16.07,13.008,29.072,29.055,29.072
		c16.07,0,29.072-13.001,29.072-29.072C285.065,239.946,272.064,226.938,255.993,226.938z M255.993,270.521
		c-8.014,0-14.504-6.501-14.504-14.521c0-8.017,6.491-14.521,14.504-14.521c8.024,0,14.537,6.507,14.537,14.521
		C270.531,264.024,264.017,270.521,255.993,270.521z"/>
	<path style="fill:#FFFFFF;" d="M309.615,466.709c-3.392,0-6.692-0.258-9.817-0.786c-11.617-1.942-27.162-2.999-43.784-2.999
		c-16.632,0-32.183,1.057-43.824,2.999c-3.115,0.529-6.415,0.786-9.811,0.786c-24.051,0-50.903-13.16-63.848-31.298
		c-14.237-19.918-42.03-47.712-61.952-61.939c-21.091-15.063-34.78-48.108-30.512-73.682c4.037-24.156,4.037-63.458,0.003-87.582
		c-4.271-25.574,9.411-58.619,30.509-73.672c19.915-14.227,47.708-42.02,61.955-61.955c12.939-18.131,39.794-31.295,63.855-31.295
		c3.382,0,6.682,0.264,9.807,0.786c11.617,1.939,27.156,2.999,43.778,2.999h0.003c16.632,0,32.187-1.06,43.824-3.003
		c3.118-0.519,6.412-0.783,9.797-0.783c24.061,0,50.919,13.16,63.865,31.305c14.237,19.909,42.03,47.705,61.952,61.959
		c21.091,15.033,34.776,48.072,30.509,73.652c-4.027,24.157-4.03,63.458,0,87.588c4.274,25.567-9.411,58.609-30.505,73.682
		c-19.925,14.224-47.718,42.02-61.955,61.945C360.524,453.549,333.672,466.709,309.615,466.709z M256.017,456.374
		c16.972,0,32.907,1.103,44.861,3.098c2.775,0.469,5.708,0.69,8.74,0.69c22.099-0.003,46.717-12.004,58.52-28.546
		c14.587-20.43,43.061-48.898,63.481-63.475c19.258-13.761,31.751-43.923,27.856-67.264c-4.132-24.728-4.132-65.001,0-89.755
		c3.898-23.341-8.605-53.502-27.866-67.244c-20.414-14.597-48.884-43.061-63.471-63.481c-11.809-16.546-36.428-28.556-58.536-28.556
		c-3.022,0-5.956,0.225-8.721,0.697c-11.974,1.985-27.925,3.089-44.897,3.089c-0.007,0-0.007,0-0.007,0
		c-16.975,0-32.9-1.103-44.855-3.089c-2.768-0.472-5.708-0.697-8.73-0.697c-22.108,0-46.724,12.004-58.523,28.546
		c-14.6,20.44-43.074,48.908-63.488,63.491c-19.251,13.741-31.751,43.906-27.853,67.247c4.129,24.725,4.129,64.994,0,89.752
		c-3.901,23.341,8.602,53.506,27.863,67.264c20.414,14.58,48.884,43.044,63.471,63.471c11.809,16.546,36.418,28.55,58.52,28.55
		c3.032,0,5.962-0.221,8.737-0.69C223.093,457.477,239.041,456.374,256.017,456.374z"/>
</g>
<g>
	
		<rect x="394.3" y="101.269" transform="matrix(0.7075 0.7067 -0.7067 0.7075 195.8007 -250.7955)" style="fill:#353F49;" width="13.16" height="19.75"/>
	
		<rect x="104.543" y="101.277" transform="matrix(0.7072 -0.707 0.707 0.7072 -46.0476 111.1055)" style="fill:#353F49;" width="13.153" height="19.743"/>
	
		<rect x="104.54" y="390.991" transform="matrix(-0.7072 -0.707 0.707 -0.7072 -93.7175 762.923)" style="fill:#353F49;" width="13.153" height="19.753"/>
	
		<rect x="394.268" y="391.045" transform="matrix(-0.7075 0.7067 -0.7067 -0.7075 967.7839 401.2851)" style="fill:#353F49;" width="13.163" height="19.743"/>
</g>
<path style="fill:#FFFFFF;" d="M393.854,118.156c-76.139-76.133-199.578-76.123-275.707,0
	c-76.133,76.139-76.136,199.568-0.003,275.704c76.133,76.126,199.568,76.126,275.7-0.003
	C469.976,317.724,469.983,194.283,393.854,118.156z M175.576,336.42c-44.412-44.399-44.399-116.425,0.007-160.821
	c44.412-44.405,116.416-44.415,160.831,0c44.405,44.392,44.402,116.406,0,160.814C291.999,380.822,219.995,380.832,175.576,336.42z"
	/>
<g>
	<path style="fill:#F77B55;" d="M176.505,176.514c10.762-10.765,23.195-18.888,36.474-24.365l-32.078-77.454
		c-23.179,9.569-44.874,23.74-63.68,42.539c-18.799,18.789-32.976,40.494-42.522,63.68l77.431,32.058
		C157.617,199.703,165.726,187.276,176.505,176.514z"/>
	<path style="fill:#F77B55;" d="M331.099,74.693l-32.081,77.461c13.276,5.477,25.702,13.593,36.474,24.361
		c10.769,10.762,18.891,23.199,24.368,36.478l77.434-32.088c-9.56-23.179-23.724-44.874-42.529-63.666
		C375.96,98.433,354.274,84.279,331.099,74.693z"/>
	<path style="fill:#F77B55;" d="M331.092,437.321c23.169-9.576,44.868-23.744,63.67-42.552
		c18.799-18.789,32.973-40.491,42.532-63.666l-77.434-32.074c-5.483,13.276-13.599,25.709-24.368,36.471
		c-10.772,10.769-23.199,18.885-36.471,24.365L331.092,437.321z"/>
	<path style="fill:#F77B55;" d="M180.895,437.311l32.091-77.454c-13.279-5.46-25.712-13.596-36.481-24.358
		c-10.772-10.769-18.888-23.192-24.361-36.474l-77.447,32.078c9.566,23.182,23.727,44.878,42.526,63.676
		C136.033,413.58,157.722,427.738,180.895,437.311z"/>
</g>
<g>
</g>
<g>
</g>
<g>
</g>
<g>
</g>
<g>
</g>
<g>
</g>
<g>
</g>
<g>
</g>
<g>
</g>
<g>
</g>
<g>
</g>
<g>
</g>
<g>
</g>
<g>
</g>
<g>
</g>
</svg>
