<?xml version="1.0" encoding="iso-8859-1"?>
<!-- Generator: Adobe Illustrator 19.0.0, SVG Export Plug-In . SVG Version: 6.00 Build 0)  -->
<svg version="1.1" id="Layer_1" xmlns="http://www.w3.org/2000/svg" xmlns:xlink="http://www.w3.org/1999/xlink" x="0px" y="0px"
	 viewBox="0 0 511.99 511.99" style="enable-background:new 0 0 511.99 511.99;" xml:space="preserve">
<rect x="237.998" y="357.606" style="fill:#474F59;" width="35.968" height="38.656"/>
<path style="fill:#353F49;" d="M255.982,59.594c-83.799,0-151.736,67.945-151.736,151.749c0,83.825,67.937,151.762,151.736,151.762
	c83.822,0,151.759-67.937,151.759-151.762C407.741,127.539,339.804,59.594,255.982,59.594z"/>
<path style="fill:#ADECF7;" d="M255.992,334.492c-68.024,0-123.162-55.122-123.162-123.149c0-68.032,55.137-123.151,123.162-123.151
	c68.027,0,123.151,55.119,123.151,123.151C379.144,279.37,324.019,334.492,255.992,334.492z"/>
<rect x="227.656" y="426.163" style="fill:#474F59;" width="56.653" height="85.827"/>
<rect x="222.945" y="396.262" style="fill:#353F49;" width="66.058" height="29.919"/>
<path style="fill:#FFFFFF;" d="M346.284,211.343c0,49.856-40.412,90.301-90.299,90.301c-49.864,0-90.278-40.448-90.278-90.301
	c0-49.864,40.415-90.294,90.278-90.294C305.869,121.05,346.284,161.48,346.284,211.343z"/>
<path style="fill:#353F49;" d="M234.86,286.817c0.356,0.09,1.339-0.246,1.618-0.341c-0.671-0.532-2.125-0.584-2.972-1.114
	c0.069,0.033-2.716-1.656-2.125-0.264c0.148,0.328,0.681,0.026,0.906,0.205c-0.33,0.492-0.471,0.346-0.105,0.573
	c0-0.01-3.087-1.692,0.018-1.797c-2.158-1.933,0.138-1.331-0.55-2.55c-0.453-0.824,1.823-1.633,0.594-2.353
	c-0.584-0.335-1.236-0.276-1.838-0.694c-0.84-0.612-0.056-1.697,0.753-1.6c0.079,0,0.489-1.946,0.637-2.255
	c-0.233-0.082-1.823-2.058-1.446-2.476c0.481-0.512,2.555,1.283,3.072-0.028c0.195-0.489-0.727-1.766-0.655-2.284
	c0.945-0.108,7.104,0.143,6.06-2.698c-0.369-0.98-2.964-2.44-2.688-3.259c0.901,0.151,2.388,1.457,3.348,0.924
	c0.809-0.402,1.441,0.471,2.268-0.458c0.138-0.179,1.505-1.628,1.124-1.915c-0.428-0.013-0.653,0.238-0.681,0.712
	c-0.497-0.66,0.348-1.111,0.786-1.608c0.113,0.161,0.21,0.299,0.302,0.44c0.527-0.791,3.372-4.495,3.464-4.572
	c1.459-1.708,0.264-3.986,1.71-5.34c1.316-1.221,2.752-2.043,4.398-2.698c0.507-0.195,2.319-1.157,2.683-1.052
	c3.039,0.934,2.668-2.675,4.588-4.306c1.953-1.638,0.504-10.007,2.097-10.632c0.873-0.343,3.438-3.494,4.769-4.954
	c1.29-1.38,1.454-3.182,0.957-4.946c-0.771-2.701-1.536-1.157-3.479-2.332c-1.577-0.94-2.767-2.816-4.713-3.057
	c-1.132-0.174-2.324,0.169-3.453-0.166c-0.479-0.138-1.777-0.94-2.266-0.269c0.09-0.105-1.037,0.435-0.965,0.466
	c-0.123-0.095-0.018-1.492-0.381-1.841c-0.602-0.566-2.619-1.124-3.359-1.311c-1.674-0.422-2.086,1.559-2.511-0.812
	c-1.388-0.397-2.78-2.007-2.532-2.414c0.125-0.156-2.158-4.984-2.483-4.541c-0.013-1.62-5.036-3.63-6.308-2.847
	c-1.152,0.819-3.259-0.76-3.971-1.508c-0.788-0.868-0.771-1.777-2.107-2.332c-0.568-0.253-1.551-0.115-1.324-1.091
	c0.228-1.052-2.476-1.247-2.729-2.258c0.374,0.067,0.699-0.131,1.07-0.215c-1.06,0.356-2.348-0.399-3.372,0.435
	c-1.505,1.262-2.401-0.568-4.052-0.251c-2.102,0.399-0.681-0.371-2.007-1.175c0.54,0.335-2.45-1.364-1.746-1.308
	c-0.635-0.064,0.092,1.029-0.594,1.275c-1.098,0.397-2.051,0.655-1.326,1.969c1.193,2.386-2.516,1.265-0.778-0.361
	c0.328-0.284,0.404-3.415,0.753-3.287c-0.425-0.164-3.82,2.035-4.201,2.493c-1.103-1.731-2.939,4.329-3.548,4.375
	c-0.307-1.498-1.718-2.107-2.957-2.54c-1.05-0.407-2.107,2.094-3.476,0.722c-2.442-2.46-1.375-6.441-0.128-9.27
	c0.52-1.3-4.521-1.697-5.12-1.178c-1.239,0.998,0.184-2.066,0.174-1.981c0.151-1.221,0.417-2.058,0.968-2.035
	c0.33-0.735,2.196-4.073,2.007-4.498c-0.763-1.751-3.93,1.377-4.229,2.153c-0.32,0.763-0.929,1.196-1.219,1.887
	c-0.3,0.694-0.891-0.164-1.398,0.118c-1.37,0.763-3.328,0.366-3.023-1.618c0.315-2.388-0.602-7.124,2.081-8.771
	c0.822-0.494,0.952-2.872,1.9-3.722c0.125-0.1,2.834-1.674,2.573-1.992c0.392,0.415,2.524-0.428,2.806,0.11
	c0.202,0.468,1.462,0.94,1.902,0.681c-0.018,0.046,0.215-1.052,0.215-1.068c-0.036-0.01-0.868-0.108-0.837-0.381
	c0.097-0.371,2.652-0.138,2.726-0.123c1.213,0.097,2.104,1.096,3,0.486c1.395-0.947,0.54,5.263,1.098,5.832
	c0.297,0.335,0.087,1.073,0.663,1.019c0.794-0.077,1.052-8.061,3.092-9.715c1.498-1.193,3.131-2.301,4.815-3.19
	c0.507-0.259,1.879-0.924,2.176-1.452c-0.061-0.264-0.315-0.576-0.602-0.297c-0.074-0.481,0.74-0.179,0.899-0.699
	c0.148-0.52-0.435-0.684-0.356-0.868c-0.033,0.061,0.504-1.037,0.33-0.886c0.026,0.036,0.026,0.087,0.036,0.108
	c0.822,0.123-0.187-0.763-0.228-0.914c1.073,0.566,0.617-1.172,1.69-1.275c-0.76,0.32-0.617,1.167-0.515,1.682
	c0.218,1.139,1.221-1.559,1.098-1.462c1.019-0.407,2.601-1.262,3.679-2.025c-0.253-0.118-0.512,0.087-0.829-0.138
	c1.119-0.397,2.353-0.251,3.418-0.806c-0.044-1.134,0.627-2.299,1.892-2.519c1.925-0.312,4.196-1.48,6.129-2.135
	c-0.307,0.666,0.151,0.146,0.671,0.399c-0.627-1.631-4.042,3.016-2.422,2.068c1.377-0.786,6.016-1.5,6.636-2.842
	c-0.018-0.092-0.307-0.955-0.289-0.955c-1.152,0-1.249,1.405-2.652,1.398c-2.555-0.028-1.021-1.603-1.551-2.307
	c-0.453,0.095-0.824-0.02-1.139-0.371c0.248-0.049,3.405-0.794,1.741-1.165c-2.701-0.581-4.506,2.442-6.72,2.348
	c1.654-1.006,3.919-3.156,5.934-3.43c2.135-0.302,5.12,0.742,7.007-0.584c1.687-1.152,2.834-0.307,3.786-2.209
	c0.294-0.499-1.229-1.157-1.62-1.234c0.172-0.202,0.512,0,0.637-0.315c-2.54-1.152-3.069-2.258-3.372-5.184
	c-1.293,0.94-5.604,2.944-3.3-0.32c-0.824-0.356-3.448-2.55-4.465-1.029c-0.461,0.673-1.193,1.81-1.966,2.15
	c-1.718,0.794-0.184,0.63-0.76,1.789c-0.975,1.892-3.323,1.644-4.439,3.292c-0.694,1.042-0.904,1.769-1.997,2.263
	c-0.952,0.412-1.316-0.724-0.842-1.597c0.33,0.374,0.645,0.428,0.914,0.146c0.079-0.399-0.515-0.192-0.691-0.369
	c0.33-0.591,0.753-1.114,1.226-1.618c-0.161-0.084-2.586-0.466-2.501-1.103c0.159-1.324-1.516-0.602-1.802-0.991
	c1.298-1.638,1.298-2.406,3.843-3.674c0.86-0.44,5.742-2.924,6.641-2.299c-0.105,0.543-0.714,0.438-1.034,0.724
	c0.694,0.169,2.734,0.399,3.43-0.079c-0.146-0.141-0.965-1.495-0.538-1.81c-0.072,0.054,1.385,0.026,1.498-0.015
	c0.783-0.197,1.646-0.287,2.099-1.07c0.374-0.719,2.959-1.618,3.561-1.267c3.372,1.905-4.564,3.93-4.641,3.707
	c0.159,0.558,2.294-0.379,2.834,1.075c0.138,0.371,2.575,1.157,2.813,0.819c0.141-0.184-0.707-1.06-0.732-1.28
	c2.56,1.239,2.414,0.594,1.984-1.108c-0.392-1.633,1.492,0.108,1.605,0.143c0.433,0.233,2.15-0.755,2.414-1.111
	c-0.627-0.497-1.71-0.481-2.24-1.073c-0.512-0.489,1.326-0.627,0.681-1.152c-0.768-0.63-1.994-0.494-1.564-1.708
	c-0.451-0.136-0.878-0.095-1.272,0.143c0.125,0.246,0.374,0.061,0.474,0.2c-0.428,0.246-0.899,0.302-1.388,0.287
	c0.151-0.218,0.602-0.218,0.602-0.637c-1.321-0.172-2.02,0.637-3.174,0.988c0.335-0.481,0.883-0.625,1.275-0.98
	c-1.249,0.151-2.468,0.637-3.443,1.444c0.141,0.136,0.276,0.292,0.381,0.479c-0.965,0.84-2.245,1.106-3.379,1.613
	c0.192-0.753,1.009-0.561,1.28-1.132c-0.417,0-0.822,0.084-1.185,0.274c0.481-0.056,1.902-1.492,2.227-1.848
	c-2.048-0.233-2.921,2.435-4.859,2.038c0.402-0.466,1.226-0.212,1.498-0.947c-0.719,0.079-3.428,1.912-3.886,0.947
	c-0.018-0.054,4.979-2.038,5.512-2.76c-0.338-0.033-0.727,0.31-1.029-0.082c0.246-0.276,0.648-0.294,0.937-0.596
	c-1.644-0.018-6.52,1.964-6.139,3.1c-0.637,0.52-1.318,0.648-2.092,0.328c0.307-0.463,1.364-0.476,0.504-1.152
	c-1.577,0.586-3.1,1.226-4.626,1.894c-3.523,1.544-6.979,3.382-10.245,5.414c-5.396,3.328-9.866,7.281-14.313,11.756
	c-2.378,2.401-11.4,12.948-11.366,15.135c0.026,1.62-0.922,3.069-1.539,4.521c-0.481,1.198-0.535,2.867-1.134,3.963
	c-1.324,2.335-0.719,5.056-1.311,7.734c0.75-0.571,2.284-12.851,3.607-12.396c0.264,0.082-0.824,5.115-1.103,5.719
	c-1.116,2.58,0.351,5.742-0.376,8.428c-0.077,0.264-0.451,1.636-0.461,1.907c-1.229,0.96,0.323,2.373,0.317,3.415
	c0,0.627,3.164,3.412,3.784,3.773c1.334,0.794,1.592-0.62,2.803-0.361c1.091,0.238,1.416,2.214,1.989,3.041
	c0.773,1.175,3.738,1.034,4.255,1.59c0.33,0.412,0.051,2.68,1.405,2.993c-0.018-0.141-0.044-0.952,0.138-1.062
	c0.422-0.256,1.283,1.257,1.006,1.539c-0.44,0.09-0.822-0.072-1.142-0.476c0,0.215-0.218,3.174,0.645,2.591
	c0.015-0.179,0.056-0.371,0.077-0.55c1.134,0.497,1.055,2.156,1.859,2.396c1.096,0.276,1.917,1.687,2.762,2.068
	c0.732,0.379,0.532-2.598,1.946-2.726c1.137-0.125,1.779,2.847,2.179,3.576c0.591,1.042-0.801,3.538-0.026,4.365
	c0.778,0.817-1.956,2.796-2.092,3.645c-0.102,0.645-1.482,1.247-1.441,1.503c0.105,0.681-0.315,1.626-0.548,2.291
	c-0.707,1.846-0.351,2.017,0.847,2.857c0.026,0.028-2.235,4.529-0.932,5.688c2.063,1.687,4.767,5.837,5.422,8.456
	c1.352,3.617,3.397,5.811,6.833,7.608c2.793,1.457,4.759,3.963,4.759,7.322c0.115,1.971-0.192,4.452,0.65,6.298
	c0.584,1.293-0.52,3.425,0.315,4.588c0.532,0.748-0.172,1.142,0.151,1.83c0.32,0.727,1.073,1.943,1.062,2.775
	c-0.028,1.431,0,3.108,0.105,4.511c0.018,0.481-0.44,1.285-0.184,1.592c0.32,0.381,2.222,5.082,2.222,6.454
	c-0.013,0.328,1.467-0.108,0.131-1.441c1.577-0.863,1.265,2.831,1.38,2.862c-1.423-0.471-0.509-0.09-0.404,1.72
	c0.09,1.091-0.266,0.561,0.602,0.776c1.395,0.315,0,1.229,0.532,1.997c1.055,1.498,2.647,2.911,3.758,4.073
	C229.647,286.679,232.719,286.377,234.86,286.817C235.167,286.892,234.455,286.738,234.86,286.817z M240.74,139.651
	c-0.494,0.435-1.027,0.535-1.6,0.689C239.537,139.738,240.138,139.848,240.74,139.651z M236.045,139.254
	c0.358-0.051,0.653,0.044,0.847,0.302c0.005,0.141-1.92,0.246-2.209,0.727C234.921,139.43,235.635,139.587,236.045,139.254
	C236.224,139.507,235.635,139.587,236.045,139.254z M231.322,142.589C231.718,142.687,230.728,142.505,231.322,142.589
	C231.329,142.602,231.204,142.572,231.322,142.589z M228.713,137.644c0.169-0.205,0.315-0.172,0.415,0.09
	C228.941,137.946,228.8,137.917,228.713,137.644C228.739,137.544,228.703,137.761,228.713,137.644z M226.13,145.349
	C225.403,145.303,226.903,145.4,226.13,145.349C226.03,145.349,226.237,145.372,226.13,145.349z M226.903,142.359
	c-2.514,2.371-0.558,0.028-1.293,0.776c0.02,0.033,0,0.067-0.036,0.072C225.375,142.973,226.847,142.382,226.903,142.359
	C226.588,142.674,226.47,142.454,226.903,142.359z M225.987,139.589c-0.466,0.515-0.466,0.515-1.093,0.399
	C225.216,139.758,225.674,139.863,225.987,139.589z M237.199,130.724c-0.159,0.008-0.328,0.008-0.579,0.008
	C237.422,130.061,237.292,130.724,237.199,130.724C237.041,130.732,237.317,130.724,237.199,130.724z M239.017,129.516
	c-0.269,0.31-0.681,0.118-1.021,0.276C238.362,129.103,238.433,129.091,239.017,129.516z M228.833,130.355
	c0.22-0.205,0.474-0.294,0.753-0.269C229.819,130.44,228.05,130.637,228.833,130.355
	C228.941,130.153,228.746,130.388,228.833,130.355z M228.383,129.825c0.294,0.148,0.269,0.266-0.074,0.399
	C228.05,130.092,228.104,129.974,228.383,129.825C228.495,129.825,228.25,129.841,228.383,129.825z M215.219,152.3
	c0.026-0.015-3.942,1.562-3.628,0.602c-0.113,0.292,1.354-1.132,1.042-1.006c0.33-0.125,2.98-0.282,3.753-0.269
	C215.987,152.018,215.598,152.151,215.219,152.3C214.336,152.632,215.598,152.151,215.219,152.3z M218.383,150.344
	c3.269,0.32-1.953,1.308-2.501,0.724C216.632,150.423,217.493,150.226,218.383,150.344
	C218.652,150.369,217.493,150.226,218.383,150.344z M217.853,130.017c0.86-0.566,1.802-0.973,2.941-1.239
	c-0.835,0.691-1.948,0.978-2.98,1.252L217.853,130.017z M218.025,147.679c-0.148,0.141-0.294,0.136-0.417-0.003
	C217.807,147.592,217.992,147.53,218.025,147.679C218.104,147.814,217.992,147.53,218.025,147.679z M217.068,149.642
	C217.006,149.642,216.74,149.558,217.068,149.642C217.085,149.642,216.963,149.591,217.068,149.642z M216.097,147.95
	c1.185,0.563,0.515,2.417-0.512,0.965c-0.033,0.86-1.521,2.301-2.319,2.486c0.307-0.335,0.417-0.709,0.315-1.114
	c-0.261-0.21-0.76,0.374-1.032,0.364c0.115,0.504,2.14-3.476,0.44-2.317c-0.62,0.468-4.7,4.805-4.946,4.588
	c-0.381-0.41,1.815-3.587,1.974-3.722C211.42,148.058,214.336,147.139,216.097,147.95z M213.834,132.774
	c0.161-0.095,1.482-0.901,1.644-0.701c0.422,0.527-2.115,1.165-2.237,1.185C213.389,132.933,213.622,132.877,213.834,132.774
	C214.287,132.506,213.622,132.877,213.834,132.774z M214.106,143.434c-0.01,0.069-0.525,1.06-0.84,0.673
	C213.012,143.831,214.016,142.973,214.106,143.434C214.067,143.685,214.08,143.304,214.106,143.434z M211.246,135.219
	c0.148,0,2.278-1.352,2.335-0.801C213.596,134.584,210.99,135.252,211.246,135.219z M210.652,137.382
	c-0.131,0.253-0.246,0.369-0.548,0.364C210.207,137.485,210.406,137.464,210.652,137.382z M209.178,142.505
	c0.294-0.225,0.975-1.329,0.645-1.779c0.184,0.246-1.272-0.154-0.609-0.407c0.276-0.077,1.938-0.996,2.207-0.714
	c0.476,0.481-2.076,3.169-2.583,3.379C208.876,142.712,209.034,142.61,209.178,142.505
	C209.595,142.193,209.034,142.61,209.178,142.505z M210.619,145.871c1.836-0.591,2.501-1.618,3.599-0.23
	c0.415,0.525,0.338,1.876-0.637,1.559c0.264,0.079-2.972-0.23-2.378-0.584c-0.64,0.422-1.902,0.689-2.67,0.353
	C209.239,146.578,209.864,146.132,210.619,145.871C211.077,145.736,209.864,146.132,210.619,145.871z M208.072,142.482
	c0.177,0.425,0.051,0.653-0.443,0.724C207.816,142.907,207.959,142.679,208.072,142.482z M182.154,181.883
	C181.32,181.86,182.799,181.86,182.154,181.883C182.049,181.88,182.241,181.88,182.154,181.883z M192.617,189.399
	C192.389,189.471,193.27,189.233,192.617,189.399C192.581,189.409,192.727,189.386,192.617,189.399z M218.148,197.832
	C217.705,197.75,218.652,197.875,218.148,197.832C218.112,197.832,218.204,197.847,218.148,197.832z M222.323,272.655
	C221.609,272.535,222.715,272.084,222.323,272.655C222.149,272.637,222.339,272.637,222.323,272.655z M224.182,235.231
	C223.918,234.962,224.356,235.372,224.182,235.231C224.156,235.205,224.233,235.267,224.182,235.231z M224.476,258.547
	C224.005,258.719,224.981,258.381,224.476,258.547C224.364,258.583,224.545,258.519,224.476,258.547z M226.944,283.689
	c-0.33-0.202-0.33-0.315-0.028-0.369C227.292,283.456,227.292,283.599,226.944,283.689
	C226.806,283.668,227.046,283.707,226.944,283.689z M230.188,285.102c-0.338-0.069-0.307-0.192,0.102-0.392
	C230.577,284.82,230.551,284.966,230.188,285.102C230.044,285.102,230.282,285.071,230.188,285.102z M223.293,275.822
	c-0.033,0.021-0.072,0.028-0.115,0.038C223.286,275.786,223.309,275.771,223.293,275.822z M231.381,125.542c0,0,0,0-0.008,0
	c0.008,0,0.008-0.01,0.008-0.01V125.542z M200.704,140.073c0,0.013-0.01,0.013-0.01,0.013L200.704,140.073z M201.564,139.366
	L201.564,139.366L201.564,139.366z M344.796,195.174l0.023,0.008c-1.764-6.51-3.082-12.951-5.793-19.249
	c-3.185-7.485-7.393-14.556-12.465-20.902c-4.792-5.996-10.348-11.4-16.515-15.987c-2.99-2.248-6.103-4.283-9.359-6.141
	c-1.541-0.881-3.121-1.733-4.733-2.522c-0.707-0.33-3.162-0.975-3.538-1.577c0.036,0.276,1.434,0.983,1.628,1.18
	c-0.95-0.253-3.479-1.318-3.523-1.487c0.064-0.108,0.266,0,0.238-0.202c-1.421-0.896-6.761-2.86-7.818-1.411
	c0.238-0.297,3.676,3.689,3.776,4.408c0.218,1.539,2.645,3.185,4.188,3.699c2.145,0.722,0.54-0.256,1.446-0.74
	c0.589-0.3,1.121,0.973,1.677,0.686c-0.02-0.01,0-0.018,0.015-0.044c-0.151-0.294-0.33-0.584-0.504-0.886
	c-0.143,0,3.912,4.191,4.419,3.274c-0.481-1.149-1.196-2.427-2.355-3.487c-1.024-0.965-2.616-1.042-3.725-2.01
	c-0.556-0.461-2.616-1.989-2.831-2.668c2.711,0.079,5.865,5.847,8.581,3.617c-0.379-0.266-0.74-0.55-1.096-0.85
	c0.504,0.151,2.783,0.876,2.017,1.838c-2.176-0.371,1.83,1.848,1.894,2.068c-0.394-0.028-0.671-0.343-1.037-0.371
	c0.166,0.758,2.314,1.546,2.465,2.831c-1.298,0.189-0.727-0.796-1.585,0.276c-0.253,0.335-1.413,0.215-2.053,0.256
	c-1.492,0.133-3.156-2.401-4.244-3.174c0.463,1.4,1.231,2.081,2.819,3.08c0.763,0.425-1.073,0.625-1.052,1.265
	c0.044,0,0.504,0.23,0.489,0.346c0,0.072-0.425-0.287-0.489-0.346c0.154-0.087-0.266,2.496-0.302,2.44
	c1.231,1.441-1.628,1.029-1.692,1.078c0.23,0.323,0.686,0.479,0.771,0.957c-0.827,0.049-1.505-0.09-2.312,0.212
	c1.183,0.346,7.66,3.333,6.234,5.588c-0.433,0.745-4.82-0.174-5.642-0.202c-1.7-0.133-0.115,1.62-0.069,1.81
	c0.266,1.285,1.259,1.859,1.18,3.382c-0.084,1.052,1.011,1.085,1.339,1.984c0.294,0.776,0.138,0.84,0.945,0.968
	c1.446,0.174,1.477-0.038,2.696,0.891c0.87,0.673,1.196-0.627,2.232-0.663c2.565-0.097,0.381-0.635,1.608-0.98
	c1.521-0.422-0.433-2.796-0.333-3.264c0.11-0.627-0.1-1.326,0.735-1.549c1.306-0.346-0.338-1.715-0.433-2.074
	c-0.246-1.06,3.589,0.919,3.121-1.787c2.227,0.691,4.498,2.696,6.528,3.848c1.206,0.714,2.401,1.413,3.287,2.54
	c1.057,1.347-1.508,0.814-1.672,1.196c-0.151,0.422,2.248,1.523,2.629,1.503c0.056-0.243-0.279-1.626-0.333-1.866
	c-0.092-0.963-1.49-1.915-1.39-2.673c0.433,0.044,0.835,0.21,1.183,0.479c-1.29-1.592-3.395-1.736-4.864-2.921
	c-0.878-0.724-2.002-1.316-2.852-2.053c-0.015-0.01-1.585-1.999-0.481-1.62c1.708,0.607,3.587,2.342,5.34,3.261
	c1.405,0.727,1.759,1.193,2.78,2.371c0.404,0.486,2.557,2.97,3.028,3.067c-0.008-0.044,1.759,1.546,2.455,1.797
	c-0.31-0.727-0.589-1.644-0.957-2.22c-0.476-0.771-2.486-1.213-2.486-2.396c0.453,0.041,0.517-0.433,1.482-0.397
	c-0.502-0.02,0.635-0.783,0.571-0.66c-1.871-1.068-4.396-4.193-5.087-6.3c0.52,0.018,0.801,0.701,1.377,0.356
	c-0.187-0.356-0.238-0.755-0.187-1.142c0.146,0.182,1.91,1.682,1.554,1.989c-0.486-0.013-0.919-0.238-1.275-0.612
	c0.266,0.893,1.139,0.914,1.508,1.528c0.044-0.251-0.123-0.438,0.084-0.719c1.536,0.648,4.705,3.098,5.13,4.849
	c-0.684,0.061-1.979-1.39-2.435-1.047c-0.151,0.356-0.131,0.719,0.072,1.06c-0.21,0.008-0.397,0.051-0.571,0.143
	c0.253,0.202,0.374,0.448,0.417,0.753c-0.251,0.1-0.494,0.172-0.763,0.241c0.215,0.87,4.797,5.233,5.123,4.8
	c0.087-0.169-0.195-0.607-0.123-0.663c0.238-0.287,0.957,0.98,1.339,0.732c0.294-0.202-0.302-0.602,0.031-0.755
	c0.691-0.356,3.436,5.015,3.784,5.652c1.318,2.496,0.448,0.968-0.556,1.316c-0.154,0.266-0.266,0.527-0.279,0.814
	c-1.608-0.369-3.361-1.295-4.646-2.204c-2.081-1.505,0.655,4.055-0.548,3.364c-0.699-0.402-1.119-1.001-1.989-1.06
	c-1.252-0.143-1.615-1.492-2.775-1.876c-0.927-0.312-4.667-0.655-4.193-2.363c0.397-1.469-1.485-2.67-2.109-3.231
	c-0.31-0.292-4.467,0.256-5.138,0.438c-1.124,0.369-2.947,0.763-3.581,1.82c-1.096,1.981-3.63-0.632-4.641-0.228
	c-0.54,0.228-0.02,1.856-0.31,2.363c-0.394,0.794-1.418,0.847-1.669,1.772c-0.456,1.687,0.835,3.072,0.253,4.634
	c-0.479,1.242-2.854,1.764-2.89,2.772c-0.023,0.558-0.123,1.16-0.635,1.452c-1.088,0.63,0.031,2.053-0.648,2.762
	c-3.668,3.748,1.175,7.404,0.353,11.497c-0.476,2.332-0.75,2.811,0.253,4.815c0.23,0.509,0.051,4.122,1.887,2.644
	c0.23,2.125,2.939,2.547,3.423,4.539c0.579,2.373,2.906,3.41,4.713,4.849c0.742,0.54,1.347,1.306,2.176,1.718
	c1.5,0.75,2.496-0.407,3.904-0.801c1.29-0.389,2.629-0.246,3.843,0.338c0.684,0.32,5.87-3.359,7.263-2.665
	c1.037,0.525,1.103,1.774,1.569,2.68c0.686,1.249,2.097-0.412,3.054,0.041c1.7,0.745,2.204,6.961,0.771,8.113
	c-1.088,0.786,1.377,4.165,1.702,4.856c0.978,1.92,1.866,5.271,1.562,7.404c-0.246,1.715,0.215,4.462-0.758,5.965
	c-0.988,1.536-1.546,3.146-2.34,4.867c-2.048,4.442-0.087,9.446-1.846,14.047c-1.075,2.345-0.881,4.867-1.446,7.316
	c-0.389,1.592-2.314,3.878-1.556,5.527c1.144-1.029,2.86-0.906,4.173-1.556c2.673-1.324,3.948-4.388,5.893-6.441
	c1.029-1.103,1.672-2.473,2.299-3.812c0.568-1.275,1.759-2.084,2.312-3.343c1.354-3.151,2.586-6.285,3.955-9.441
	c2.867-6.812,3.343-13.348,4.344-20.634C346.225,210.179,346.255,202.865,344.796,195.174z M338.005,177.229
	c-0.381-0.916-5.181-7.954-4.621-8.358c0.655-0.399,10.918,17.812,9.807,20.626C341.619,185.354,339.756,181.299,338.005,177.229
	C337.981,177.193,338.35,178.051,338.005,177.229z M342.413,209.434c-0.2-0.492,0.064-0.947,0.202-1.528
	C342.833,208.522,342.492,208.965,342.413,209.434z M341.865,212.293c-0.02-0.302-0.028-0.55,0.154-0.786
	C342.175,211.814,342.031,212.035,341.865,212.293z M340.15,235.661c-0.172,0.061-0.361,0.143-0.54,0.205
	c-0.33,0,0.604-0.466,0.658-0.494C340.204,235.546,340.204,235.602,340.15,235.661C340.035,235.868,340.204,235.602,340.15,235.661z
	 M340.419,226.168c-0.023-0.845,0.031-0.909,0.893-1.449C341.138,225.334,340.526,225.608,340.419,226.168z M341.389,221.755
	c-0.015-1.577-0.051-3.456,0.282-4.982c0.064,2.691,0.192,5.396,0.108,8.092C341.356,224.307,341.389,222.444,341.389,221.755
	C341.381,221.181,341.389,222.292,341.389,221.755z M342.802,226.806c-0.023,1.467-0.238,5.404-1.183,6.51
	c0.079-2.429,0.996-4.652,1.032-7.094C342.845,226.455,342.802,226.65,342.802,226.806
	C342.802,226.985,342.802,226.65,342.802,226.806z M343.946,212.055c-0.433,1.715-0.02,2.266-1.05,3.228
	c-0.008-1.29-0.484-3.735,0.85-4.511C343.913,211.205,344.061,211.548,343.946,212.055
	C343.759,212.762,344.061,211.548,343.946,212.055z M287.258,295.913c0.138,0.259-11.348,3.497-12.536,3.763
	c-4.769,1.001-9.61,1.628-14.495,1.851c-9.283,0.471-18.977-0.387-27.904-3.09c1.152,0.113,2.54,0.712,3.707,0.54
	c-1.119-0.701-2.486-0.458-3.469-1.324c3.72,0.591,7.26,0.31,10.67,0.765c-0.348-0.489-3.461-1.229-3.448-1.556
	c0.445-0.036,2.834-0.1,2.934-0.172c1.132-0.881-1.787-0.776-1.528-1.416c0.079-0.154,0.87,0.131,1.172-0.261
	c0.433-0.581,0-0.883,0.151-1.19c0.136-0.259,4.634-1.032,5.105-0.837c-0.522,0.312-1.134-0.054-0.909,0.832
	c-0.461-0.054-1.859-0.023-1.933,0.589c0.044-0.161,1.523,1.912,1.574,2.025c0.515,0.801,2.332,1.308,2.47,2.281
	c0.315,1.641,8.855,1.459,10.127,1.326c3.205-0.363,6.188-1.51,9.336-2.061c1.866-0.312,3.732-0.842,5.627-1.044
	c0.886-0.087,3.832-1.106,4.503-0.865C278.843,297.579,285.658,295.601,287.258,295.913
	C287.265,295.939,286.991,295.864,287.258,295.913z M339.256,246.067c0.374-0.929,0.671-1.884,1.119-2.767
	C340.093,244.244,339.681,245.153,339.256,246.067z M340.762,242.342c0.038-0.125,0.087-0.246,0.11-0.335
	C340.892,242.132,340.808,242.22,340.762,242.342z M242.007,124.134c-0.479-0.095-1.006-0.018-1.508-0.113
	c0.274-0.225,1.779-0.294,1.114-0.712c2.094-1.28,6.446-1.544,8.842-1.252c2.683,0.333,5.379-0.492,8.01-0.079
	c1.08,0.187,2.007,0.21,3.08,0.269c0.929,0.097-0.146,1.06,0.929,1.236c0.627,0.064,1.871,1.48,2.45,1.165
	c-0.046,0.986-0.481,0.31-0.154,1.226c0.056,0.223,1.175,0.852,1.119,0.922c-0.1,0.133-3.105-0.064-2.967-0.033
	c-0.225-0.033,0.064,0.453,0.251,0.389c0.591,0.141,1.889-0.041,2.552,0.01c-1.521,1.359-3.789,1.208-5.463,2.301
	c-1.027,0.673-2.578,0.617-3.704,1.014c0,1.17-0.873,2.565-1.646,3.768c-0.543,0.804-4.349-1.096-4.746-1.574
	c-0.832-0.998-2.726-3.622-0.671-4.449c2.511-0.996,0.018-0.174-0.719-0.717c0.602-0.852,1.254-0.558,2.212-0.407
	c-0.497-0.676-1.091-0.85-1.83-0.507c-0.225-0.717,1.052-1.359-0.069-2.125c-0.489-0.333-3.131,0.061-3.21-0.407
	c-0.159-1.149,3.218-0.538,3.82-1.482C247.165,122.033,244.465,124.508,242.007,124.134
	C241.528,124.042,242.45,124.198,242.007,124.134z M289.541,141.343c0.394-0.046-0.52-1.336-0.758-1.605
	c0.287,0.028,0.512,0.072,0.801-0.108c-0.202-0.586-2.836-2.092-3.026-1.994c-0.98,0.63-2.243-2.166-2.373-2.537
	c1.708-0.236,2.752,1.59,4.303,2.33c1.298,0.635,6.024,2.885,6.144,4.303c0.123,0.724-3.574,0.428-4.111,1.249
	c-0.404-1.027,0.934-1.024,0.893-1.344C291.364,141.384,289.738,141.32,289.541,141.343
	C289.436,141.358,290.097,141.261,289.541,141.343z M241.431,142.674c-0.246,0.187-3.451,3.205-3.377,3.494
	c0.072,0.276,3.325,0.072,3.884,0.397c-0.046,0.364-0.481,0.187-0.54,0.509c0.407,0,1.71-0.832,1.94-0.573
	c0.026,0.207,0,0.399-0.11,0.594c1.444,1.413,1.298-1.661,1.377-1.83c-1.014-0.138,0.223-1.564-1.495-0.96
	c0.118-0.046-1.838-0.566-1.728-0.461c-0.159-0.159,1.372-1.508,1.505-1.659C241.974,141.952,241.856,142.336,241.431,142.674
	C240.891,143.076,241.554,142.572,241.431,142.674z M244.577,146.01C244.71,146.138,244.37,146.138,244.577,146.01
	C244.605,146.053,244.531,146.045,244.577,146.01z M243.863,145.94c0.087-0.105,0.64-0.335,0.297-0.026
	C244.047,146.132,243.569,146.266,243.863,145.94C243.889,145.889,243.802,146.01,243.863,145.94z M241.597,142.259l0.013-0.003
	c0,0.003,0,0.015,0.015,0.028C241.61,142.269,241.61,142.269,241.597,142.259z M238.712,145.16c0.097,0,0.156,0,0.233,0.061
	C238.851,145.221,238.502,145.203,238.712,145.16C238.81,145.16,238.651,145.17,238.712,145.16z M207.383,182.825
	c-0.873,0.087,0.584-0.694,0.453-0.973c-0.612-1.37-4.692-1.672-5.069-2.785c0.177-0.067,0.3-0.179,0.361-0.369
	c-1.4-0.553-2.13,1.149-3.402,1.037c2.634-4.462,9.162,0.632,11.786,2.716C210.135,182.607,208.771,182.623,207.383,182.825
	C207.27,182.835,208.151,182.723,207.383,182.825z M210.803,185.198c-0.668-0.297,2.161-0.271,2.55-0.415
	c-0.576-0.863-0.069-1.329-1.149-1.656c1.006-1.211,4.273,0.192,5.307,0.655c-0.087,0.143-0.276,0.018-0.381,0.187
	c0.087,0.09,2.237,1.866,0.786,1.262c-1.59-0.678-2.486,0.276-3.61,0.904C213.422,184.868,211.965,185.756,210.803,185.198
	C210.662,185.142,211.057,185.311,210.803,185.198z M287.242,139.525c1.536,1.6-0.827,2.798-1.923,1.787
	c-0.52-0.55-0.21-1.818-1.428-2.207c0.31-0.097,0.643-0.195,0.965-0.325C284.022,136.819,286.848,139.103,287.242,139.525
	C287.59,139.889,287.135,139.392,287.242,139.525z M267.249,129.864c-0.095-0.317,2.204-0.156,2.601-0.248
	c0.596-0.097,5.174,0.369,3.569,1.106c-1.239,0.558-3.062,1.18-4.26,0.105C268.869,130.568,267.269,129.928,267.249,129.864
	C267.185,129.664,267.328,130.181,267.249,129.864z M309.061,152.55c0.52,0,1.818,2.068,1.608,2.404
	c-0.604,0.965-1.636-1.495-2.263-1.874C308.623,152.942,308.846,152.758,309.061,152.55z M237.612,124.764
	c1.544-1.188,1.91-0.522,3.855-0.31C240.858,125.002,239.35,125.133,237.612,124.764
	C238.036,124.436,239.35,125.133,237.612,124.764z M272.069,123.42c-1.152-0.338-2.365-0.387-3.466-0.822
	c1.334-0.141,2.952,0.361,3.891,0.635C272.804,123.323,271.99,123.374,272.069,123.42
	C270.917,123.082,272.177,123.451,272.069,123.42z M268.605,122.601c-0.131,0.013-0.266,0.026-0.389,0.038
	C268.337,122.519,268.475,122.514,268.605,122.601C268.475,122.614,268.544,122.58,268.605,122.601z M207.739,185.265
	c0.264,0.018,0.381,0.164,0.435,0.407c-0.159,0.653-2.181-0.276-2.406-0.561C206.487,184.704,207.132,184.927,207.739,185.265z
	 M222.28,185.216C221.217,187.843,218.506,183.391,222.28,185.216C222.126,185.587,221.642,184.904,222.28,185.216z
	 M226.481,197.983L226.481,197.983c0.026-0.069,0.09-0.102,0.192-0.108C226.614,197.916,226.563,197.937,226.481,197.983z
	 M226.847,197.916c-0.044-0.013,0.289-1.07,0.975-1.124C228.646,197.289,227.249,197.962,226.847,197.916
	C226.793,197.901,227.738,198.016,226.847,197.916z M235.389,124.198c-0.707,0.466-1.572,0.151-2.324,0.428
	C234.099,123.922,234.583,123.973,235.389,124.198C234.683,124.664,235.267,124.165,235.389,124.198z M208.256,177.139
	c-0.269-1.088-0.689-1.098,0.033-2.048C208.568,176.095,208.568,176.699,208.256,177.139
	C208.151,176.694,208.568,176.699,208.256,177.139z M188.687,214.484c-0.01,0.381-0.195,0.53-0.584,0.397
	c-0.118-0.123-0.195-1.434,0.051-1.695C188.329,213.614,188.516,214.026,188.687,214.484
	C188.754,214.646,188.516,214.026,188.687,214.484z M233.938,143.854c0.832-0.02,1.531,0.241,2.263,0.781
	C235.21,144.835,234.583,144.456,233.938,143.854z M308.708,152.187l0.015,0.008c-0.238-0.072-1.7-0.968-1.119-1.441
	C308.052,150.449,308.657,152.044,308.708,152.187z M323.853,159.726c-0.266-0.276-0.865-0.087-1.009-0.686
	c0.489,0.269,1.073,0.148,1.554,0.527C324.227,159.703,324.047,159.89,323.853,159.726
	C323.587,159.447,324.047,159.89,323.853,159.726z M236.672,124.685c-0.151-0.197-0.397-0.064-0.548-0.248
	c0.407-0.468,0.983-0.302,1.498-0.451C237.596,124.042,236.997,125.166,236.672,124.685
	C236.521,124.488,236.751,124.838,236.672,124.685z M234.143,125.251c-0.671,0.512-1.359,1.001-2.281,0.914
	C232.471,125.517,233.336,125.432,234.143,125.251z M233.9,147.594c0.184,0.046,0.376-0.003,0.684-0.033
	c-0.901,1.098-1.938-0.425-1.71-0.484C232.712,147.118,233.856,147.592,233.9,147.594C234.081,147.64,233.559,147.548,233.9,147.594
	z M234.276,125.683c0.62-0.494,1.359-0.581,2.12-0.52C235.738,125.542,235.059,125.763,234.276,125.683z M304.924,154.724
	c-0.694-0.097,1.347-0.745,0.604,0.202C305.308,154.908,305.114,154.829,304.924,154.724
	C304.824,154.706,305.155,154.742,304.924,154.724z M327.485,159.882c-0.425-0.212-0.591-0.504-0.471-0.993
	C327.37,159.155,327.514,159.419,327.485,159.882z M235.825,128.952c0.256-0.443,0.545-0.556,1.431-0.543
	C236.821,128.893,236.342,128.973,235.825,128.952z M229.304,131.996c-0.515,0.276-0.886,0.474-1.444,0.435
	C228.25,131.996,228.703,132.017,229.304,131.996z M283.505,135.716c-0.11,0.207,0,0.328,0.136,0.458
	c-0.159-0.067-0.786-0.847-0.31-0.955C283.556,135.309,283.62,135.465,283.505,135.716
	C283.395,135.923,283.569,135.606,283.505,135.716z M201.828,179.935c-0.018,0.317-0.161,0.471-0.458,0.458
	C201.237,180.137,201.7,179.372,201.828,179.935C201.889,180.127,201.802,179.83,201.828,179.935z M232.246,273.7
	c0.225,0.097,0.364,0.271,0.389,0.533C232.635,275.016,231.222,273.815,232.246,273.7
	C232.389,273.684,232.026,273.715,232.246,273.7z M230.188,132.457c-0.177,0.264-0.399,0.379-0.786,0.527
	C229.594,132.549,229.873,132.477,230.188,132.457z M189.345,214.326C189.286,215.24,189.074,213.445,189.345,214.326
	C189.345,214.438,189.32,214.239,189.345,214.326z M236.219,133.97c0.018-0.018,0.079,0.01,0.115,0.02
	C236.219,134.052,236.027,134.052,236.219,133.97z M232.195,125.338c-0.108,0.02-0.23,0.054-0.312,0.069
	C231.957,125.312,232.074,125.304,232.195,125.338z M231.823,125.425c-0.077,0,0.038-0.018,0.056-0.018
	C231.862,125.407,231.823,125.407,231.823,125.425z M231.398,125.532l-0.018,0.01C231.381,125.532,231.381,125.532,231.398,125.532z
	 M231.398,125.532c0.095-0.125,0.253-0.102,0.399-0.108C231.693,125.56,231.565,125.583,231.398,125.532z M234.266,125.683h0.01
	C234.276,125.693,234.266,125.699,234.266,125.683z M234.266,125.693c-0.033,0.166-0.166,0.148-0.271,0.148
	C234.038,125.693,234.143,125.673,234.266,125.693z M201.039,218.194C200.837,218.035,201.167,218.299,201.039,218.194
	C200.963,218.143,201.139,218.278,201.039,218.194z M297.613,132.774C298.181,132.933,297.649,132.89,297.613,132.774
	C297.613,132.774,297.626,132.856,297.613,132.774z M283.648,136.202c-0.008,0-0.008-0.028-0.008-0.028
	c0.054,0.028,0.056,0.072,0.054,0.133C283.684,136.274,283.671,136.246,283.648,136.202
	C283.64,136.202,283.671,136.246,283.648,136.202z M233.969,125.842c0.018,0,0.018,0,0.026,0c0,0.01-0.005,0.01-0.033,0.005
	C233.964,125.85,233.969,125.85,233.969,125.842z M233.795,125.878c0.061-0.026,0.105-0.026,0.169-0.028
	C233.892,125.955,233.83,125.967,233.795,125.878C233.856,125.852,233.81,125.885,233.795,125.878z M316.058,153.769
	L316.058,153.769l0.02,0.015L316.058,153.769z M244.396,212.004C244.106,211.761,244.59,211.832,244.396,212.004
	C244.37,211.981,244.465,211.932,244.396,212.004z M287.306,295.887c-0.02,0.023-0.028,0.023-0.051,0.023
	c0.008-0.046,0.023-0.072,0.051-0.054C287.306,295.854,287.306,295.885,287.306,295.887z M287.258,295.913
	C287.258,295.91,287.242,295.91,287.258,295.913L287.258,295.913z M215.114,148.081c0.061-0.018,0.899-0.125,0.602,0.218
	C215.386,148.462,215.201,148.38,215.114,148.081C215.219,148.063,215.122,148.247,215.114,148.081z M209.859,140.723
	c-0.243-0.154-0.192-0.323,0.148-0.481C210.294,140.332,210.25,140.516,209.859,140.723
	C209.746,140.71,210.035,140.669,209.859,140.723z"/>
<path style="fill:#474F59;" d="M335.368,407.524l-3.676-9.068c6.715-2.719,13.35-5.837,19.743-9.27l4.626,8.614
	C349.368,401.4,342.408,404.672,335.368,407.524z M176,407.278c-7.03-2.875-13.975-6.164-20.641-9.782l4.654-8.599
	c6.367,3.448,12.992,6.587,19.692,9.329L176,407.278z M375.593,385.902l-5.532-8.067c5.98-4.096,11.794-8.566,17.285-13.284
	l6.377,7.419C387.958,376.916,381.855,381.604,375.593,385.902z M135.872,385.546c-6.246-4.316-12.332-9.019-18.079-13.978
	l6.392-7.409c5.481,4.731,11.284,9.221,17.244,13.34L135.872,385.546z M410.243,356.18l-7.117-6.7
	c4.959-5.276,9.69-10.883,14.049-16.666l7.811,5.893C420.411,344.773,415.445,350.651,410.243,356.18z M101.317,355.727
	c-5.184-5.553-10.127-11.446-14.684-17.521l7.826-5.873c4.349,5.798,9.062,11.418,14.008,16.717L101.317,355.727z M437.752,319.754
	l-8.394-5.018c3.725-6.226,7.142-12.71,10.153-19.277l8.893,4.073C445.24,306.424,441.656,313.226,437.752,319.754z M73.907,319.206
	c-3.884-6.551-7.447-13.366-10.593-20.265l8.899-4.055c2.998,6.579,6.403,13.082,10.104,19.328L73.907,319.206z M456.796,278.282
	l-9.272-3.092c2.296-6.889,4.237-13.962,5.757-21.02l9.559,2.061C461.243,263.636,459.21,271.06,456.796,278.282z M54.979,277.637
	c-2.378-7.196-4.388-14.623-5.975-22.083l9.572-2.035c1.508,7.112,3.425,14.195,5.688,21.056L54.979,277.637z M466.442,233.659
	l-9.718-1.019c0.732-7.037,1.101-14.205,1.101-21.307v-0.486h9.792v0.486C467.617,218.778,467.223,226.291,466.442,233.659z
	 M45.468,232.973c-0.727-7.13-1.096-14.408-1.096-21.637l0.005-1.221l9.777,0.108v1.114c0,6.899,0.346,13.844,1.044,20.641
	L45.468,232.973z M456.614,189.089c-0.786-7.227-1.979-14.464-3.538-21.512l9.546-2.109c1.636,7.393,2.883,14.979,3.717,22.551
	L456.614,189.089z M55.437,188.429l-9.715-1.096c0.852-7.562,2.127-15.148,3.789-22.546l9.544,2.143
	C57.469,173.99,56.256,181.222,55.437,188.429z M447.219,146.57c-2.327-6.874-5.059-13.683-8.113-20.239l8.87-4.129
	c3.205,6.879,6.065,14.021,8.502,21.233L447.219,146.57z M64.981,145.956l-9.252-3.162c2.455-7.191,5.338-14.323,8.566-21.197
	l8.855,4.155C70.075,132.301,67.325,139.1,64.981,145.956z M428.867,107.09c-3.745-6.195-7.875-12.262-12.278-18.03l7.775-5.934
	c4.621,6.049,8.942,12.408,12.869,18.903L428.867,107.09z M83.461,106.542l-8.358-5.082c3.945-6.484,8.292-12.828,12.918-18.857
	l7.757,5.96C91.369,94.308,87.222,100.357,83.461,106.542z M402.455,72.458c-4.995-5.266-10.317-10.309-15.831-14.989l6.333-7.455
	c5.78,4.908,11.361,10.191,16.594,15.711L402.455,72.458z M109.962,72l-7.081-6.756c5.245-5.491,10.844-10.757,16.648-15.66
	l6.313,7.468C120.305,61.734,114.962,66.765,109.962,72z M369.275,44.262c-5.988-4.07-12.262-7.857-18.662-11.256l4.598-8.637
	c6.7,3.569,13.281,7.537,19.564,11.807L369.275,44.262z M143.24,43.901l-5.473-8.108c6.292-4.247,12.887-8.2,19.612-11.748
	l4.562,8.65C155.535,36.081,149.24,39.849,143.24,43.901z M330.842,23.828c-6.723-2.683-13.668-5.028-20.657-6.976l2.621-9.423
	c7.327,2.043,14.612,4.5,21.66,7.311L330.842,23.828z M181.752,23.578l-3.599-9.093c7.061-2.796,14.359-5.23,21.691-7.245
	l2.588,9.431C195.443,18.593,188.488,20.915,181.752,23.578z M288.893,12.17c-7.132-1.172-14.423-1.969-21.665-2.363l0.532-9.766
	c7.596,0.415,15.232,1.247,22.717,2.476L288.893,12.17z M223.739,12.058l-1.556-9.659c7.475-1.203,15.127-2.01,22.728-2.399
	l0.507,9.766C238.159,10.14,230.866,10.913,223.739,12.058z"/>
<g>
</g>
<g>
</g>
<g>
</g>
<g>
</g>
<g>
</g>
<g>
</g>
<g>
</g>
<g>
</g>
<g>
</g>
<g>
</g>
<g>
</g>
<g>
</g>
<g>
</g>
<g>
</g>
<g>
</g>
</svg>
