<?xml version="1.0" encoding="iso-8859-1"?>
<!-- Generator: Adobe Illustrator 19.0.0, SVG Export Plug-In . SVG Version: 6.00 Build 0)  -->
<svg version="1.1" id="Layer_1" xmlns="http://www.w3.org/2000/svg" xmlns:xlink="http://www.w3.org/1999/xlink" x="0px" y="0px"
	 viewBox="0 0 512.013 512.013" style="enable-background:new 0 0 512.013 512.013;" xml:space="preserve">
<circle style="fill:#F2F2F2;" cx="256.007" cy="256.007" r="256"/>
<polygon style="fill:#CCCBCA;" points="413.062,367.276 255.997,210.184 98.942,367.276 16.183,284.49 20.652,280.024 
	98.942,358.337 255.997,201.249 413.062,358.337 491.355,280.028 495.824,284.497 "/>
<g>
	<path style="fill:#353F49;" d="M36.798,282.264c0,10.147-8.248,18.376-18.373,18.376C8.232,300.64,0,292.411,0,282.264
		c0-10.131,8.232-18.396,18.425-18.396C28.55,263.868,36.798,272.133,36.798,282.264z"/>
	<path style="fill:#353F49;" d="M117.321,362.806c0,10.128-8.248,18.406-18.376,18.406c-10.177,0-18.422-8.278-18.422-18.406
		c0-10.197,8.245-18.415,18.422-18.415C109.073,344.391,117.321,352.609,117.321,362.806z"/>
	<path style="fill:#353F49;" d="M431.484,362.806c0,10.134-8.291,18.412-18.422,18.412c-10.128,0-18.415-8.278-18.415-18.412
		c0-10.177,8.288-18.415,18.415-18.415C423.193,344.391,431.484,352.629,431.484,362.806z"/>
	<polygon style="fill:#353F49;" points="475.162,263.868 512.013,300.66 512.013,263.868 	"/>
</g>
<rect x="244.029" y="327.753" style="fill:#474F59;" width="24.018" height="28.655"/>
<path style="fill:#353F49;" d="M380.859,205.682c0,68.945-55.897,124.819-124.832,124.819c-68.938,0-124.809-55.874-124.809-124.819
	c0-68.935,55.871-124.809,124.809-124.809C324.961,80.87,380.859,136.747,380.859,205.682z"/>
<path style="fill:#FFFFFF;" d="M355.923,205.682c0,55.161-44.742,99.84-99.896,99.84c-55.131,0-99.853-44.676-99.853-99.84
	c0-55.17,44.722-99.85,99.853-99.85C311.18,105.832,355.923,150.511,355.923,205.682z"/>
<g>
	<path style="fill:#474F59;" d="M255.997,200.727l-73.011,72.991c1.595,1.777,3.267,3.412,5.001,4.991L256,210.7l68.063,68.046
		c1.764-1.559,3.406-3.224,4.998-4.975L255.997,200.727z"/>
	<rect x="232.422" y="381.397" style="fill:#474F59;" width="47.206" height="130.61"/>
</g>
<rect x="228.458" y="356.425" style="fill:#353F49;" width="55.124" height="24.982"/>
<path style="fill:#E6E5E5;" d="M255.997,136.77v68.948h68.948C324.945,167.616,294.083,136.77,255.997,136.77z"/>
<path style="fill:#F77B55;" d="M255.997,205.718V136.77c-38.03,0-68.942,30.846-68.942,68.948c0,38.07,30.912,68.869,68.942,68.869
	c19.076,0,36.302-7.72,48.676-20.186L255.997,205.718z"/>
<path style="fill:#353F49;" d="M255.997,205.718l48.676,48.68c12.39-12.437,20.272-29.66,20.272-48.68H255.997z"/>
<g>
</g>
<g>
</g>
<g>
</g>
<g>
</g>
<g>
</g>
<g>
</g>
<g>
</g>
<g>
</g>
<g>
</g>
<g>
</g>
<g>
</g>
<g>
</g>
<g>
</g>
<g>
</g>
<g>
</g>
</svg>
