<?xml version="1.0" encoding="iso-8859-1"?>
<!-- Generator: Adobe Illustrator 19.0.0, SVG Export Plug-In . SVG Version: 6.00 Build 0)  -->
<svg version="1.1" id="Layer_1" xmlns="http://www.w3.org/2000/svg" xmlns:xlink="http://www.w3.org/1999/xlink" x="0px" y="0px"
	 viewBox="0 0 512.013 512.013" style="enable-background:new 0 0 512.013 512.013;" xml:space="preserve">
<g>
	<path style="fill:#CCCBCA;" d="M369.852,431.713v-45.504c42.811,0,77.637-34.821,77.637-77.622
		c0-42.806-34.826-77.637-77.637-77.637v-45.507c67.899,0,123.146,55.242,123.146,123.141
		C492.996,376.476,437.751,431.713,369.852,431.713z"/>
	<rect x="347.096" y="386.202" style="fill:#CCCBCA;" width="45.484" height="80.294"/>
</g>
<g>
	<rect x="241.368" y="489.267" style="fill:#353F49;" width="256.947" height="22.746"/>
	<rect x="296.92" y="466.509" style="fill:#353F49;" width="145.876" height="22.751"/>
</g>
<g>
	<rect x="276.85" y="319.283" style="fill:#CCCBCA;" width="40.133" height="26.752"/>
	<rect x="263.436" y="118.554" style="fill:#CCCBCA;" width="66.918" height="26.762"/>
</g>
<g>
	<rect x="263.436" y="145.306" style="fill:#353F49;" width="66.918" height="173.985"/>
	<rect x="276.85" y="91.766" style="fill:#353F49;" width="40.133" height="26.778"/>
	<rect x="241.368" y="386.202" style="fill:#353F49;" width="105.728" height="22.748"/>
	<path style="fill:#353F49;" d="M330.367,145.306h39.485c10.954,0,21.916,4.168,30.277,12.539
		c8.374,8.374,12.541,19.328,12.541,30.277l0,0c0,10.959-4.17,21.926-12.541,30.277c-8.364,8.376-19.323,12.559-30.277,12.559
		h-39.485V145.306z"/>
</g>
<path style="fill:#FFFFFF;" d="M388.596,188.124c0,10.35-8.404,18.744-18.744,18.744c-10.35,0-18.739-8.394-18.739-18.744
	c0-10.35,8.389-18.729,18.739-18.729C380.192,169.393,388.596,177.774,388.596,188.124z"/>
<circle style="fill:#353F49;" cx="369.855" cy="408.96" r="9.367"/>
<g>
	<rect x="13.697" y="188.134" style="fill:#F2F2F2;" width="227.686" height="145.326"/>
	<polygon style="fill:#F2F2F2;" points="241.368,366.126 208.708,333.46 241.368,333.46 	"/>
</g>
<rect x="45.239" y="256.794" style="fill:#353F49;" width="23.521" height="13.56"/>
<g>
	<rect x="80.511" y="231.27" style="fill:#CCCBCA;" width="23.524" height="39.081"/>
	<rect x="115.775" y="246.682" style="fill:#CCCBCA;" width="23.503" height="23.649"/>
</g>
<rect x="151.052" y="207.36" style="fill:#F77B55;" width="23.503" height="62.979"/>
<rect x="186.328" y="223.053" style="fill:#CCCBCA;" width="23.511" height="47.299"/>
<rect x="45.239" y="277.658" style="fill:#353F49;" width="164.582" height="7.314"/>
<g>
	<rect x="45.239" y="292.275" style="fill:#CCCBCA;" width="164.582" height="7.316"/>
	<rect x="45.239" y="306.918" style="fill:#CCCBCA;" width="82.304" height="7.316"/>
</g>
<g>
	<circle style="fill:#474F59;" cx="429.119" cy="59.264" r="59.264"/>
	<polygon style="fill:#474F59;" points="369.852,118.543 369.852,59.269 429.129,59.269 	"/>
</g>
<g>
	
		<rect x="425.106" y="29.215" transform="matrix(-0.707 -0.7072 0.7072 -0.707 690.5756 404.6456)" style="fill:#FFFFFF;" width="8.008" height="60.113"/>
	<path style="fill:#FFFFFF;" d="M442.362,84.534c-6.628,0-12.019-5.389-12.019-12.022c0-6.628,5.391-12.022,12.019-12.022
		c6.633,0,12.029,5.394,12.029,12.022C454.391,79.142,448.995,84.534,442.362,84.534z M442.362,68.503
		c-2.207,0-4.006,1.8-4.006,4.006c0,2.212,1.8,4.006,4.006,4.006c2.212,0,4.012-1.797,4.012-4.006
		C446.373,70.303,444.573,68.503,442.362,68.503z"/>
	<path style="fill:#FFFFFF;" d="M415.886,58.058c-6.63,0-12.019-5.394-12.019-12.022c0-6.63,5.389-12.024,12.019-12.024
		s12.022,5.394,12.022,12.024C427.908,52.664,422.516,58.058,415.886,58.058z M415.886,42.028c-2.209,0-4.001,1.797-4.001,4.006
		s1.792,4.004,4.001,4.004s4.004-1.795,4.004-4.004C419.892,43.825,418.095,42.028,415.886,42.028z"/>
</g>
<g>
</g>
<g>
</g>
<g>
</g>
<g>
</g>
<g>
</g>
<g>
</g>
<g>
</g>
<g>
</g>
<g>
</g>
<g>
</g>
<g>
</g>
<g>
</g>
<g>
</g>
<g>
</g>
<g>
</g>
</svg>
