<?xml version="1.0" encoding="iso-8859-1"?>
<!-- Generator: Adobe Illustrator 19.0.0, SVG Export Plug-In . SVG Version: 6.00 Build 0)  -->
<svg version="1.1" id="Layer_1" xmlns="http://www.w3.org/2000/svg" xmlns:xlink="http://www.w3.org/1999/xlink" x="0px" y="0px"
	 viewBox="0 0 512 512" style="enable-background:new 0 0 512 512;" xml:space="preserve">
<circle style="fill:#FF916E;" cx="256" cy="256" r="256"/>
<g>
	<path style="fill:#FFFFFF;" d="M343.407,404.701v-40.22c37.838,0,68.621-30.776,68.621-68.611s-30.783-68.618-68.621-68.618v-40.22
		c60.016,0,108.845,48.825,108.845,108.838C452.251,355.876,403.423,404.701,343.407,404.701z"/>
	<rect x="323.287" y="364.478" style="fill:#FFFFFF;" width="40.2" height="70.97"/>
</g>
<g>
	<rect x="229.838" y="455.548" style="fill:#353F49;" width="227.117" height="20.103"/>
	<rect x="278.924" y="435.431" style="fill:#353F49;" width="128.925" height="20.11"/>
</g>
<g>
	<rect x="261.186" y="305.35" style="fill:#FFFFFF;" width="35.47" height="23.644"/>
	<rect x="249.361" y="127.901" style="fill:#FFFFFF;" width="59.151" height="23.654"/>
</g>
<g>
	<rect x="249.361" y="151.555" style="fill:#353F49;" width="59.151" height="153.782"/>
	<rect x="261.186" y="104.233" style="fill:#353F49;" width="35.47" height="23.668"/>
	<rect x="229.838" y="364.478" style="fill:#353F49;" width="93.448" height="20.107"/>
	<path style="fill:#353F49;" d="M308.508,151.555h34.899c9.685,0,19.37,3.683,26.763,11.082
		c7.399,7.399,11.086,17.084,11.086,26.763l0,0c0,9.688-3.686,19.38-11.086,26.763c-7.389,7.403-17.078,11.099-26.763,11.099
		h-34.899V151.555z"/>
</g>
<path style="fill:#FFFFFF;" d="M359.976,189.4c0,9.15-7.429,16.569-16.569,16.569c-9.15,0-16.566-7.419-16.566-16.569
	s7.416-16.556,16.566-16.556C352.547,172.845,359.976,180.25,359.976,189.4z"/>
<circle style="fill:#353F49;" cx="343.403" cy="384.595" r="8.278"/>
<g>
	<rect x="28.613" y="189.407" style="fill:#FFFFFF;" width="201.233" height="128.449"/>
	<polygon style="fill:#FFFFFF;" points="229.845,346.73 200.978,317.859 229.845,317.859 	"/>
</g>
<rect x="56.485" y="250.087" style="fill:#353F49;" width="20.791" height="11.987"/>
<g>
	<rect x="87.664" y="227.529" style="fill:#D9D8D7;" width="20.794" height="34.542"/>
	<rect x="118.847" y="241.169" style="fill:#D9D8D7;" width="20.774" height="20.903"/>
</g>
<rect x="150.033" y="206.419" style="fill:#F77B55;" width="20.774" height="55.666"/>
<rect x="181.189" y="220.259" style="fill:#D9D8D7;" width="20.781" height="41.806"/>
<rect x="56.485" y="268.519" style="fill:#353F49;" width="145.474" height="6.464"/>
<g>
	<rect x="56.485" y="281.468" style="fill:#CCCBCA;" width="145.474" height="6.468"/>
	<rect x="56.485" y="294.383" style="fill:#CCCBCA;" width="72.737" height="6.468"/>
</g>
<g>
	<circle style="fill:#474F59;" cx="395.793" cy="75.508" r="52.389"/>
	<polygon style="fill:#474F59;" points="343.407,127.901 343.407,75.508 395.799,75.508 	"/>
</g>
<g>
	
		<rect x="392.253" y="48.943" transform="matrix(-0.7071 -0.7071 0.7071 -0.7071 622.262 408.7828)" style="fill:#FFFFFF;" width="7.079" height="53.148"/>
	<path style="fill:#FFFFFF;" d="M407.496,97.838c-5.857,0-10.626-4.763-10.626-10.626c0-5.857,4.767-10.626,10.626-10.626
		c5.86,0,10.633,4.767,10.633,10.626C418.129,93.075,413.359,97.838,407.496,97.838z M407.496,83.671
		c-1.952,0-3.541,1.589-3.541,3.541c0,1.956,1.589,3.541,3.541,3.541c1.956,0,3.544-1.586,3.544-3.541
		C411.043,85.263,409.451,83.671,407.496,83.671z"/>
	<path style="fill:#FFFFFF;" d="M384.096,74.438c-5.86,0-10.626-4.767-10.626-10.626c0-5.86,4.763-10.63,10.626-10.63
		c5.857,0,10.626,4.767,10.626,10.63C394.722,69.672,389.956,74.438,384.096,74.438z M384.096,60.271
		c-1.956,0-3.538,1.586-3.538,3.541c0,1.952,1.582,3.538,3.538,3.538c1.952,0,3.538-1.586,3.538-3.538
		C387.637,61.86,386.048,60.271,384.096,60.271z"/>
</g>
<g>
</g>
<g>
</g>
<g>
</g>
<g>
</g>
<g>
</g>
<g>
</g>
<g>
</g>
<g>
</g>
<g>
</g>
<g>
</g>
<g>
</g>
<g>
</g>
<g>
</g>
<g>
</g>
<g>
</g>
</svg>
