<?xml version="1.0" encoding="iso-8859-1"?>
<!-- Generator: Adobe Illustrator 19.0.0, SVG Export Plug-In . SVG Version: 6.00 Build 0)  -->
<svg version="1.1" id="Layer_1" xmlns="http://www.w3.org/2000/svg" xmlns:xlink="http://www.w3.org/1999/xlink" x="0px" y="0px"
	 viewBox="0 0 512 512" style="enable-background:new 0 0 512 512;" xml:space="preserve">
<g>
	<rect x="252.083" y="246.195" style="fill:#CCCBCA;" width="7.854" height="9.81"/>
	<path style="fill:#CCCBCA;" d="M259.93,227.374h-7.854v-18.811h7.854V227.374z M259.93,189.744h-7.854v-18.813h7.854V189.744z
		 M259.93,152.12h-7.854v-18.819h7.854V152.12z M259.93,114.496h-7.854V95.672h7.854V114.496z M259.93,76.864h-7.854V58.048h7.854
		V76.864z"/>
	<rect x="252.083" y="29.427" style="fill:#CCCBCA;" width="7.854" height="9.81"/>
	<rect x="252.083" y="256" style="fill:#CCCBCA;" width="7.854" height="9.82"/>
	<path style="fill:#CCCBCA;" d="M259.924,453.941h-7.854v-18.813h7.854V453.941z M259.93,416.317h-7.854v-18.816h7.854V416.317z
		 M259.93,378.695h-7.854v-18.821h7.854V378.695z M259.93,341.063h-7.854v-18.806h7.854V341.063z M259.93,303.429h-7.854v-18.806
		h7.854V303.429z"/>
	<rect x="252.083" y="472.755" style="fill:#CCCBCA;" width="7.854" height="9.802"/>
	
		<rect x="60.105" y="361.916" transform="matrix(-0.5 -0.866 0.866 -0.5 -221.6303 605.6937)" style="fill:#CCCBCA;" width="7.851" height="9.817"/>
	<path style="fill:#CCCBCA;" d="M86.546,358.371l-3.927-6.799l16.294-9.413l3.924,6.802L86.546,358.371z M119.132,339.556
		l-3.924-6.805l16.292-9.395l3.927,6.797L119.132,339.556z M151.718,320.745l-3.924-6.802l16.289-9.411l3.93,6.802L151.718,320.745z
		 M184.307,301.929l-3.93-6.792l16.292-9.413l3.922,6.802L184.307,301.929z M216.878,283.115l-3.914-6.799l16.294-9.395l3.914,6.789
		L216.878,283.115z"/>
	<polygon style="fill:#CCCBCA;" points="249.464,264.309 245.55,257.505 248.148,255.997 245.55,254.497 249.464,247.692 
		263.857,255.997 	"/>
	<path style="fill:#CCCBCA;" d="M229.258,245.081l-16.294-9.4l3.914-6.799l16.294,9.411L229.258,245.081z M196.669,226.275
		l-16.292-9.411l3.93-6.789l16.287,9.395L196.669,226.275z M164.083,207.465l-16.289-9.411l3.924-6.802l16.294,9.411
		L164.083,207.465z M131.5,188.644l-16.292-9.395l3.924-6.804l16.294,9.408L131.5,188.644z M98.913,169.835l-16.294-9.411
		l3.927-6.799l16.292,9.408L98.913,169.835z"/>
	
		<rect x="59.149" y="141.241" transform="matrix(-0.8661 -0.4999 0.4999 -0.8661 46.9676 302.9153)" style="fill:#CCCBCA;" width="9.815" height="7.852"/>
	
		<rect x="444.008" y="140.242" transform="matrix(-0.5 -0.866 0.866 -0.5 546.2029 605.6415)" style="fill:#CCCBCA;" width="7.849" height="9.812"/>
	<path style="fill:#CCCBCA;" d="M282.755,245.081l-3.919-6.789l16.294-9.411l3.917,6.799L282.755,245.081z M315.338,226.275
		l-3.914-6.804l16.284-9.395l3.922,6.789L315.338,226.275z M347.924,207.465l-3.927-6.802l16.294-9.411l3.924,6.802L347.924,207.465
		z M380.508,188.644l-3.924-6.794l16.292-9.408l3.924,6.807L380.508,188.644z M413.094,169.835l-3.927-6.802l16.294-9.408
		l3.924,6.799L413.094,169.835z"/>
	<polygon style="fill:#CCCBCA;" points="262.543,264.309 248.154,255.997 262.543,247.692 266.46,254.497 263.857,255.997 
		266.46,257.505 	"/>
	<path style="fill:#CCCBCA;" d="M425.462,358.371l-16.294-9.411l3.927-6.802l16.292,9.413L425.462,358.371z M392.875,339.556
		l-16.292-9.403l3.924-6.797l16.292,9.395L392.875,339.556z M360.287,320.745l-16.292-9.411l3.924-6.802l16.292,9.411
		L360.287,320.745z M327.708,301.929l-16.284-9.403l3.914-6.802l16.292,9.413L327.708,301.929z M295.13,283.123l-16.294-9.413
		l3.919-6.789l16.292,9.398L295.13,283.123z"/>
	
		<rect x="443.077" y="362.915" transform="matrix(-0.8657 -0.5006 0.5006 -0.8657 652.158 908.6636)" style="fill:#CCCBCA;" width="9.813" height="7.849"/>
	<polygon style="fill:#CCCBCA;" points="256,487.101 245.54,481.062 249.457,474.268 256,478.036 262.536,474.268 266.45,481.062 	
		"/>
	<path style="fill:#CCCBCA;" d="M229.253,471.657l-16.294-9.411l3.917-6.802l16.289,9.413L229.253,471.657z M196.669,452.841
		l-16.292-9.4l3.93-6.799l16.287,9.403L196.669,452.841z M164.083,434.03l-16.289-9.411l3.924-6.802l16.294,9.411L164.083,434.03z
		 M131.5,415.214l-16.292-9.403l3.924-6.805l16.294,9.408L131.5,415.214z M98.913,396.398l-16.294-9.403l3.927-6.797l16.292,9.398
		L98.913,396.398z"/>
	<polygon style="fill:#CCCBCA;" points="66.327,377.587 55.875,371.54 55.875,359.475 63.718,359.475 63.718,367.014 
		70.252,370.785 	"/>
	<path style="fill:#CCCBCA;" d="M63.718,340.651h-7.844v-18.808h7.844V340.651z M63.718,303.032h-7.844v-18.816h7.844V303.032z
		 M55.875,265.41l-0.008-18.824h7.844l0.008,18.824H55.875z M63.711,227.781h-7.844v-18.813h7.844V227.781z M63.711,190.151h-7.844
		v-18.806h7.844V190.151z"/>
	<polygon style="fill:#CCCBCA;" points="63.711,152.524 55.867,152.524 55.867,140.459 66.327,134.41 70.252,141.212 
		63.711,144.978 	"/>
	<path style="fill:#CCCBCA;" d="M86.546,131.801l-3.927-6.797l16.294-9.405l3.924,6.804L86.546,131.801z M119.132,112.988
		l-3.924-6.802l16.292-9.408l3.927,6.799L119.132,112.988z M151.718,94.172l-3.924-6.797l16.289-9.405l3.93,6.802L151.718,94.172z
		 M184.307,75.358l-3.93-6.799l16.292-9.408l3.922,6.799L184.307,75.358z M216.878,56.548l-3.914-6.804l16.294-9.411l3.914,6.802
		L216.878,56.548z"/>
	<polygon style="fill:#CCCBCA;" points="249.464,37.726 245.55,30.927 256,24.891 266.452,30.927 262.541,37.726 256,33.956 	"/>
	<path style="fill:#CCCBCA;" d="M425.454,131.801l-16.294-9.398l3.927-6.804l16.292,9.405L425.454,131.801z M392.868,112.985
		l-16.284-9.411l3.924-6.792l16.284,9.408L392.868,112.985z M360.287,94.172l-16.292-9.405l3.924-6.802l16.292,9.411L360.287,94.172
		z M327.7,75.358l-16.287-9.408l3.919-6.799l16.294,9.408L327.7,75.358z M295.122,56.548l-16.289-9.413l3.914-6.802l16.292,9.411
		L295.122,56.548z"/>
	<polygon style="fill:#CCCBCA;" points="456.133,152.524 448.287,152.524 448.287,144.978 441.756,141.212 445.681,134.41 
		456.133,140.459 	"/>
	<path style="fill:#CCCBCA;" d="M456.133,340.651h-7.844v-18.808h7.844V340.651z M456.133,303.032h-7.844v-18.816h7.844V303.032z
		 M456.133,265.41h-7.844v-18.824h7.844V265.41z M456.133,227.781h-7.844v-18.813h7.844V227.781z M456.133,190.151h-7.844v-18.806
		h7.844V190.151z"/>
	<polygon style="fill:#CCCBCA;" points="445.681,377.587 441.756,370.785 448.287,367.014 448.287,359.475 456.133,359.475 
		456.133,371.54 	"/>
	<path style="fill:#CCCBCA;" d="M282.747,471.657l-3.914-6.799l16.289-9.413l3.917,6.802L282.747,471.657z M315.333,452.841
		l-3.919-6.797l16.287-9.411l3.927,6.799L315.333,452.841z M347.919,434.03l-3.924-6.802l16.292-9.411l3.924,6.802L347.919,434.03z
		 M380.508,415.214l-3.924-6.799l16.292-9.413l3.924,6.802L380.508,415.214z M413.094,396.398l-3.927-6.802l16.294-9.398
		l3.924,6.797L413.094,396.398z"/>
</g>
<path style="fill:#E6E5E5;" d="M85.281,128c8.125,14.077,3.302,32.09-10.778,40.202c-14.075,8.141-32.069,3.308-40.197-10.762
	c-8.128-14.077-3.308-32.079,10.775-40.218C59.156,109.094,77.146,113.92,85.281,128z"/>
<path style="fill:#353F49;" d="M281.49,14.715c8.133,14.085,3.313,32.084-10.765,40.2c-14.085,8.131-32.082,3.31-40.215-10.767
	c-8.128-14.07-3.305-32.074,10.778-40.202C255.36-4.178,273.37,0.647,281.49,14.715z"/>
<path style="fill:#E6E5E5;" d="M477.699,128c8.125,14.077,3.305,32.084-10.778,40.202c-14.067,8.133-32.069,3.308-40.187-10.762
	c-8.143-14.077-3.313-32.084,10.76-40.218C451.574,109.089,469.563,113.92,477.699,128z"/>
<path style="fill:#353F49;" d="M477.699,354.557c8.125,14.08,3.305,32.085-10.778,40.21c-14.08,8.141-32.069,3.313-40.187-10.772
	c-8.143-14.083-3.318-32.082,10.76-40.207C451.574,335.662,469.563,340.482,477.699,354.557z"/>
<path style="fill:#E6E5E5;" d="M281.49,467.842c8.133,14.08,3.313,32.077-10.772,40.212c-14.077,8.123-32.082,3.302-40.207-10.778
	c-8.128-14.075-3.305-32.079,10.772-40.197C255.36,448.952,273.37,453.775,281.49,467.842z"/>
<path style="fill:#353F49;" d="M85.281,354.557c8.125,14.08,3.302,32.085-10.785,40.218c-14.072,8.133-32.061,3.305-40.192-10.78
	c-8.128-14.075-3.31-32.082,10.775-40.2C59.156,335.662,77.146,340.49,85.281,354.557z"/>
<g>
	<circle id="SVGID_3_" style="fill:#FFDB79;" cx="256" cy="256" r="87.885"/>
</g>
<g>
	<g>
		<polygon style="fill:#474F59;" points="282.88,225.49 229.105,225.49 225.446,303.705 286.582,303.705 		"/>
		<g>
			<path style="fill:#FFFFFF;" d="M195.251,320.514l-0.131,0.415l-3.658,11.635h-0.015l-4.82,15.252h138.744l-4.813-15.253
				l-5.292-16.707c-0.842-2.691-2.255-5.233-4.296-7.429c-2.035-2.204-4.454-3.804-7.068-4.861l-27.786-11.031
				c-1.398-0.556-2.657-1.539-3.569-2.854c-0.916-1.375-1.344-2.875-1.344-4.39v-13.532h-30.39v13.532
				c0,1.516-0.445,3.016-1.344,4.39c-0.924,1.318-2.166,2.299-3.561,2.854l-27.786,11.031c-2.614,1.057-5.033,2.657-7.076,4.861
				c-2.056,2.196-3.466,4.741-4.324,7.429L195.251,320.514L195.251,320.514z"/>
			<path style="fill:#FFFFFF;" d="M256.015,202.949c-16.64,0-28.465,12.111-28.465,37.783c0,21.716,12.739,40.049,28.465,40.049
				c15.703,0,28.454-18.33,28.454-40.049C284.47,215.06,272.622,202.949,256.015,202.949z"/>
		</g>
		<g>
			<path style="fill:#474F59;" d="M281.546,204.324h-25.531h-25.559c0,0-3.628,25.531,1.014,30.73
				c0.197-2.112,2.058-2.706,5.44-2.719c0,0,2.865-3.172,4.913-11.935c1.549,5.955,0.835,12.175,0.835,12.175
				c3.64,0.251,8.11,0.627,13.358,0.65c1.331-0.008,2.616-0.031,3.822-0.059c0,0,1.554-0.955,2.227-3.244
				c0.98,1.247,1.098,3.064,1.098,3.064c10.934-0.586,17.014-1.861,17.37,2.063C285.189,229.854,281.546,204.324,281.546,204.324z"
				/>
			<path style="fill:#474F59;" d="M235.909,292.533c1.393-0.556,2.637-1.539,3.561-2.854c0.899-1.375,1.344-2.875,1.344-4.39v-5.775
				h-8.556c-1.106-8.056-1.733-16.02-1.733-23.557c0-22.285,1.546-30.638,7.703-38.157c7.959-9.684,17.787-11.702,17.787-11.702
				s9.825,2.02,17.779,11.702c6.164,7.519,7.665,15.872,7.665,38.157c0,7.537-0.589,15.501-1.71,23.557h-8.543v5.775
				c0,1.516,0.428,3.016,1.344,4.39c0.909,1.318,2.171,2.299,3.569,2.854l15.913,6.336c1.956-2.447,2.957-5.389,2.957-8.356v-11
				c0-18.458-0.563-42.54-4.462-60.124c-3.412-15.081-16.292-29.645-34.511-25.69c-18.227-3.955-31.101,10.609-34.516,25.69
				c-3.94,17.587-4.488,41.667-4.488,60.124v11c0,2.964,1.014,5.908,3,8.356L235.909,292.533z"/>
			<path style="fill:#474F59;" d="M210.708,347.817h90.56c-4.224-9.242-6.843-21.734-6.843-35.505c0-4.206,0.266-8.274,0.724-12.193
				h-0.023l-7.437-2.957l-3.205,12.854c-1.5,6.144-5.007,11.873-10.381,16.064c-5.399,4.216-11.361,5.996-18.092,5.996
				c-6.761,0-12.731-1.777-18.104-5.996c-5.361-4.193-8.878-9.92-10.378-16.064l-3.215-12.854l-7.414,2.957h-0.069
				c0.456,3.917,0.722,7.987,0.722,12.193C217.551,326.082,214.932,338.575,210.708,347.817z"/>
		</g>
	</g>
</g>
<g>
</g>
<g>
</g>
<g>
</g>
<g>
</g>
<g>
</g>
<g>
</g>
<g>
</g>
<g>
</g>
<g>
</g>
<g>
</g>
<g>
</g>
<g>
</g>
<g>
</g>
<g>
</g>
<g>
</g>
</svg>
