<?xml version="1.0" encoding="iso-8859-1"?>
<!-- Generator: Adobe Illustrator 19.0.0, SVG Export Plug-In . SVG Version: 6.00 Build 0)  -->
<svg version="1.1" id="Layer_1" xmlns="http://www.w3.org/2000/svg" xmlns:xlink="http://www.w3.org/1999/xlink" x="0px" y="0px"
	 viewBox="0 0 512 512" style="enable-background:new 0 0 512 512;" xml:space="preserve">
<circle style="fill:#FFDB79;" cx="256" cy="256" r="256"/>
<g>
	<path style="fill:#FFFFFF;" d="M335.403,256c0,43.844-35.553,79.38-79.403,79.38c-43.84,0-79.396-35.536-79.396-79.38
		S212.16,176.62,256,176.62C299.85,176.62,335.403,212.156,335.403,256z"/>
	<path style="fill:#FFFFFF;" d="M277.666,90.574c0,11.961-9.708,21.659-21.666,21.659c-11.948,0-21.659-9.698-21.659-21.659
		c0-11.954,9.708-21.653,21.659-21.653C267.954,68.922,277.666,78.62,277.666,90.574z"/>
	<path style="fill:#FFFFFF;" d="M154.33,123.716c8.46,8.463,8.46,22.168,0,30.614c-8.46,8.463-22.148,8.463-30.614,0
		c-8.469-8.446-8.469-22.151,0-30.614C132.179,115.253,145.87,115.253,154.33,123.716z"/>
	<path style="fill:#FFFFFF;" d="M90.584,234.347c11.951,0,21.649,9.685,21.649,21.653s-9.698,21.653-21.649,21.653
		c-11.968,0-21.663-9.685-21.663-21.653S78.617,234.347,90.584,234.347z"/>
	<path style="fill:#FFFFFF;" d="M123.716,357.67c8.466-8.463,22.155-8.463,30.614,0c8.46,8.443,8.46,22.151,0,30.614
		c-8.46,8.466-22.148,8.466-30.614,0C115.246,379.821,115.246,366.116,123.716,357.67z"/>
	<path style="fill:#FFFFFF;" d="M234.341,421.426c0-11.961,9.708-21.653,21.659-21.659c11.954,0,21.666,9.698,21.666,21.659
		c0,11.958-9.708,21.653-21.666,21.653C244.052,443.078,234.341,433.383,234.341,421.426z"/>
	<path style="fill:#FFFFFF;" d="M357.67,388.288c-8.46-8.466-8.46-22.175,0.007-30.618c8.453-8.463,22.145-8.463,30.614,0
		c8.466,8.443,8.466,22.151-0.007,30.618C379.821,396.747,366.136,396.747,357.67,388.288z"/>
	<path style="fill:#FFFFFF;" d="M421.419,277.653c-11.954,0-21.643-9.685-21.653-21.653c0-11.968,9.698-21.653,21.653-21.653
		c11.974,0,21.659,9.685,21.659,21.656C443.078,267.968,433.393,277.653,421.419,277.653z"/>
	<path style="fill:#FFFFFF;" d="M388.291,154.33c-8.466,8.463-22.155,8.463-30.614,0c-8.466-8.446-8.466-22.148,0-30.614
		c8.46-8.466,22.145-8.466,30.614,0C396.754,132.179,396.754,145.884,388.291,154.33z"/>
</g>
<path style="fill:#92DEEB;" d="M307.976,256c0,28.705-23.288,51.973-51.97,51.973c-28.698,0-51.983-23.268-51.983-51.973
	c0-28.698,23.288-51.97,51.983-51.97C284.692,204.03,307.976,227.305,307.976,256z"/>
<path style="fill:#353F49;" d="M280.573,256c0,13.566-11.006,24.573-24.569,24.573c-13.583,0-24.579-11.006-24.579-24.573
	c0-13.573,10.996-24.573,24.579-24.573C269.566,231.427,280.573,242.427,280.573,256z"/>
<g>
	<path style="fill:#FFFFFF;" d="M250.93,238.632c0,6.788-5.51,12.281-12.278,12.281c-6.818,0-12.318-5.493-12.318-12.281
		c0-6.795,5.497-12.295,12.318-12.295C245.42,226.34,250.93,231.84,250.93,238.632z"/>
	<rect x="249.955" y="165.69" style="fill:#FFFFFF;" width="12.103" height="6.174"/>
	<rect x="249.955" y="151.407" style="fill:#FFFFFF;" width="12.103" height="6.167"/>
	<rect x="249.955" y="137.13" style="fill:#FFFFFF;" width="12.103" height="6.151"/>
	<rect x="249.955" y="122.847" style="fill:#FFFFFF;" width="12.103" height="6.147"/>
	<polygon style="fill:#FFFFFF;" points="196.44,187.864 187.851,196.44 192.231,200.787 200.787,192.211 	"/>
	
		<rect x="178.153" y="181.141" transform="matrix(-0.7079 0.7063 -0.7063 -0.7079 444.7526 184.5155)" style="fill:#FFFFFF;" width="12.139" height="6.16"/>
	
		<rect x="168.058" y="171.049" transform="matrix(-0.7063 0.7079 -0.7079 -0.7063 420.356 173.8529)" style="fill:#FFFFFF;" width="12.113" height="6.151"/>
	<polygon style="fill:#FFFFFF;" points="166.123,157.554 157.537,166.126 161.918,170.476 170.47,161.904 	"/>
	<rect x="165.69" y="249.922" style="fill:#FFFFFF;" width="6.161" height="12.139"/>
	<rect x="151.403" y="249.922" style="fill:#FFFFFF;" width="6.157" height="12.139"/>
	<rect x="137.11" y="249.922" style="fill:#FFFFFF;" width="6.167" height="12.139"/>
	<rect x="122.814" y="249.955" style="fill:#FFFFFF;" width="6.187" height="12.136"/>
	<polygon style="fill:#FFFFFF;" points="187.851,315.567 196.44,324.149 200.787,319.795 192.231,311.22 	"/>
	
		<rect x="178.155" y="324.729" transform="matrix(0.708 0.7062 -0.7062 0.708 285.2932 -34.3851)" style="fill:#FFFFFF;" width="12.146" height="6.157"/>
	<polygon style="fill:#FFFFFF;" points="167.672,335.766 176.224,344.348 180.568,339.998 172.019,331.426 	"/>
	<polygon style="fill:#FFFFFF;" points="157.537,345.887 166.129,354.453 170.476,350.109 161.918,341.53 	"/>
	<rect x="249.955" y="340.133" style="fill:#FFFFFF;" width="12.096" height="6.174"/>
	<rect x="249.955" y="354.436" style="fill:#FFFFFF;" width="12.096" height="6.167"/>
	<rect x="249.955" y="368.739" style="fill:#FFFFFF;" width="12.096" height="6.147"/>
	<rect x="249.955" y="383.009" style="fill:#FFFFFF;" width="12.096" height="6.154"/>
	<polygon style="fill:#FFFFFF;" points="315.567,324.142 324.155,315.567 319.779,311.217 311.227,319.789 	"/>
	
		<rect x="321.735" y="324.69" transform="matrix(0.708 -0.7062 0.7062 0.708 -135.7572 327.2062)" style="fill:#FFFFFF;" width="12.143" height="6.164"/>
	<polygon style="fill:#FFFFFF;" points="335.786,344.341 344.338,335.766 339.998,331.419 331.442,339.988 	"/>
	
		<rect x="341.916" y="344.875" transform="matrix(0.7075 -0.7067 0.7067 0.7075 -144.1244 347.6939)" style="fill:#FFFFFF;" width="12.123" height="6.17"/>
	<rect x="340.166" y="249.922" style="fill:#FFFFFF;" width="6.161" height="12.143"/>
	<rect x="354.436" y="249.922" style="fill:#FFFFFF;" width="6.157" height="12.143"/>
	<rect x="368.739" y="249.922" style="fill:#FFFFFF;" width="6.167" height="12.143"/>
	<rect x="383.009" y="249.922" style="fill:#FFFFFF;" width="6.194" height="12.143"/>
	<polygon style="fill:#FFFFFF;" points="324.155,196.433 315.567,187.861 311.22,192.211 319.779,200.78 	"/>
	
		<rect x="321.689" y="181.128" transform="matrix(-0.7079 -0.7063 0.7063 -0.7079 429.6832 546.1087)" style="fill:#FFFFFF;" width="12.149" height="6.157"/>
	
		<rect x="331.864" y="171.04" transform="matrix(-0.7062 -0.708 0.708 -0.7062 453.2826 536.3286)" style="fill:#FFFFFF;" width="12.11" height="6.154"/>
	<polygon style="fill:#FFFFFF;" points="354.463,166.116 345.881,157.547 341.53,161.901 350.089,170.476 	"/>
	<circle style="fill:#FFFFFF;" cx="167.17" cy="49.165" r="8.258"/>
	<circle style="fill:#FFFFFF;" cx="47.963" cy="168.762" r="14.865"/>
</g>
<circle style="fill:#353F49;" cx="78.904" cy="331.413" r="9.328"/>
<circle style="fill:#FFFFFF;" cx="469.256" cy="171.867" r="13.279"/>
<g>
	<path style="fill:#353F49;" d="M361.825,26.297c0,10.874-8.826,19.691-19.691,19.691c-10.871,0-19.694-8.813-19.694-19.691
		c0-10.874,8.823-19.691,19.694-19.691C352.999,6.606,361.825,15.423,361.825,26.297z"/>
	<circle style="fill:#353F49;" cx="485.046" cy="407.948" r="26.954"/>
	<circle style="fill:#353F49;" cx="72.836" cy="483.757" r="12.813"/>
</g>
<g>
</g>
<g>
</g>
<g>
</g>
<g>
</g>
<g>
</g>
<g>
</g>
<g>
</g>
<g>
</g>
<g>
</g>
<g>
</g>
<g>
</g>
<g>
</g>
<g>
</g>
<g>
</g>
<g>
</g>
</svg>
