<?xml version="1.0" encoding="iso-8859-1"?>
<!-- Generator: Adobe Illustrator 19.0.0, SVG Export Plug-In . SVG Version: 6.00 Build 0)  -->
<svg version="1.1" id="Layer_1" xmlns="http://www.w3.org/2000/svg" xmlns:xlink="http://www.w3.org/1999/xlink" x="0px" y="0px"
	 viewBox="0 0 512 512" style="enable-background:new 0 0 512 512;" xml:space="preserve">
<circle style="fill:#FF916E;" cx="256" cy="256" r="256"/>
<g>
	<rect x="252.565" y="247.438" style="fill:#FFFFFF;" width="6.854" height="8.562"/>
	<path style="fill:#FFFFFF;" d="M259.429,231.021h-6.854v-16.42h6.854V231.021z M259.429,198.18h-6.854v-16.42h6.854V198.18z
		 M259.429,165.343h-6.854v-16.42h6.854V165.343z M259.429,132.509h-6.854v-16.43h6.854V132.509z M259.429,99.668h-6.854v-16.42
		h6.854V99.668z"/>
	<rect x="252.565" y="58.269" style="fill:#FFFFFF;" width="6.854" height="8.559"/>
	<rect x="252.565" y="256" style="fill:#FFFFFF;" width="6.854" height="8.569"/>
	<path style="fill:#FFFFFF;" d="M259.425,428.742h-6.854v-16.414h6.854V428.742z M259.429,395.908h-6.854v-16.42h6.854V395.908z
		 M259.429,363.077h-6.854V346.65h6.854V363.077z M259.429,330.233h-6.854V313.82h6.854V330.233z M259.429,297.393h-6.854v-16.414
		h6.854V297.393z"/>
	<rect x="252.565" y="445.176" style="fill:#FFFFFF;" width="6.854" height="8.555"/>
	
		<rect x="85.066" y="348.421" transform="matrix(-0.4999 -0.8661 0.8661 -0.4999 -172.7426 605.6625)" style="fill:#FFFFFF;" width="6.854" height="8.569"/>
	<path style="fill:#FFFFFF;" d="M108.115,345.339l-3.425-5.936l14.22-8.212l3.425,5.939L108.115,345.339z M136.555,328.915
		l-3.425-5.936l14.22-8.202l3.425,5.933L136.555,328.915z M164.993,312.502l-3.425-5.936l14.217-8.212l3.429,5.936L164.993,312.502z
		 M193.434,296.081l-3.429-5.926l14.22-8.212l3.422,5.936L193.434,296.081z M221.858,279.664l-3.416-5.936l14.22-8.199l3.416,5.923
		L221.858,279.664z"/>
	<polygon style="fill:#FFFFFF;" points="250.295,263.251 246.88,257.311 249.149,256 246.88,254.689 250.295,248.749 262.857,256 	
		"/>
	<path style="fill:#FFFFFF;" d="M232.663,246.47l-14.22-8.199l3.416-5.939l14.22,8.215L232.663,246.47z M204.222,230.056
		l-14.22-8.212l3.429-5.926l14.214,8.202L204.222,230.056z M175.784,213.643l-14.217-8.209l3.425-5.936l14.22,8.209L175.784,213.643
		z M147.347,197.219l-14.22-8.202l3.425-5.939l14.22,8.209L147.347,197.219z M118.91,180.805l-14.22-8.212l3.425-5.936l14.22,8.212
		L118.91,180.805z"/>
	
		<rect x="84.202" y="155.849" transform="matrix(-0.8662 -0.4997 0.4997 -0.8662 85.5406 341.4559)" style="fill:#FFFFFF;" width="8.565" height="6.854"/>
	
		<rect x="420.096" y="155" transform="matrix(-0.5001 -0.866 0.866 -0.5001 497.3855 605.6942)" style="fill:#FFFFFF;" width="6.851" height="8.562"/>
	<path style="fill:#FFFFFF;" d="M279.347,246.47l-3.419-5.923l14.22-8.215l3.419,5.939L279.347,246.47z M307.785,230.056
		l-3.416-5.936l14.214-8.202l3.422,5.926L307.785,230.056z M336.222,213.643l-3.425-5.936l14.22-8.209l3.425,5.936L336.222,213.643z
		 M364.66,197.219l-3.425-5.933l14.22-8.209l3.425,5.939L364.66,197.219z M393.097,180.805l-3.425-5.936l14.22-8.212l3.425,5.936
		L393.097,180.805z"/>
	<polygon style="fill:#FFFFFF;" points="261.711,263.251 249.152,256 261.711,248.749 265.13,254.689 262.857,256 265.13,257.311 	
		"/>
	<path style="fill:#FFFFFF;" d="M403.889,345.339l-14.22-8.208l3.425-5.939l14.22,8.212L403.889,345.339z M375.451,328.915
		l-14.22-8.205l3.425-5.933l14.22,8.202L375.451,328.915z M347.014,312.502l-14.22-8.212l3.425-5.936l14.22,8.212L347.014,312.502z
		 M318.58,296.081l-14.214-8.202l3.416-5.936l14.22,8.212L318.58,296.081z M290.149,279.668l-14.22-8.215l3.419-5.923l14.22,8.199
		L290.149,279.668z"/>
	
		<rect x="419.272" y="349.282" transform="matrix(-0.8657 -0.5006 0.5006 -0.8657 613.6536 870.0679)" style="fill:#FFFFFF;" width="8.562" height="6.851"/>
	<polygon style="fill:#FFFFFF;" points="256,457.685 246.87,452.413 250.289,446.48 256,449.774 261.705,446.48 265.12,452.413 	"/>
	<path style="fill:#FFFFFF;" d="M232.659,444.208l-14.22-8.212l3.419-5.936l14.217,8.212L232.659,444.208z M204.222,427.781
		l-14.22-8.202l3.429-5.936l14.214,8.205L204.222,427.781z M175.784,411.367l-14.217-8.215l3.425-5.933l14.22,8.209L175.784,411.367
		z M147.347,394.947l-14.22-8.209l3.425-5.939l14.22,8.212L147.347,394.947z M118.91,378.523l-14.22-8.205l3.425-5.933l14.22,8.202
		L118.91,378.523z"/>
	<polygon style="fill:#FFFFFF;" points="90.472,362.11 81.349,356.831 81.349,346.3 88.193,346.3 88.193,352.884 93.897,356.17 	"/>
	<path style="fill:#FFFFFF;" d="M88.193,329.877h-6.844v-16.414h6.844V329.877z M88.193,297.043h-6.844v-16.42h6.844V297.043z
		 M81.349,264.209l-0.007-16.424h6.844l0.007,16.424H81.349z M88.186,231.374h-6.844v-16.42h6.844V231.374z M88.186,198.534h-6.844
		V182.12h6.844V198.534z"/>
	<polygon style="fill:#FFFFFF;" points="88.186,165.696 81.342,165.696 81.342,155.169 90.472,149.89 93.897,155.826 88.186,159.11 
			"/>
	<path style="fill:#FFFFFF;" d="M108.115,147.615l-3.425-5.936l14.22-8.205l3.425,5.936L108.115,147.615z M136.555,131.194
		l-3.425-5.936l14.22-8.212l3.425,5.936L136.555,131.194z M164.993,114.774l-3.425-5.936l14.217-8.205l3.429,5.936L164.993,114.774z
		 M193.434,98.354l-3.429-5.936l14.22-8.209l3.422,5.933L193.434,98.354z M221.858,81.937l-3.416-5.936l14.22-8.212l3.416,5.936
		L221.858,81.937z"/>
	<polygon style="fill:#FFFFFF;" points="250.295,65.513 246.88,59.577 256,54.308 265.124,59.577 261.708,65.513 256,62.22 	"/>
	<path style="fill:#FFFFFF;" d="M403.885,147.615l-14.22-8.205l3.425-5.936l14.22,8.205L403.885,147.615z M375.445,131.191
		l-14.214-8.212l3.425-5.926l14.214,8.209L375.445,131.191z M347.014,114.774l-14.22-8.212l3.425-5.936l14.22,8.212L347.014,114.774
		z M318.573,98.354l-14.217-8.212l3.422-5.933l14.22,8.209L318.573,98.354z M290.142,81.937l-14.217-8.215l3.416-5.936l14.22,8.212
		L290.142,81.937z"/>
	<polygon style="fill:#FFFFFF;" points="430.658,165.696 423.81,165.696 423.81,159.11 418.109,155.826 421.535,149.89 
		430.658,155.169 	"/>
	<path style="fill:#FFFFFF;" d="M430.658,329.877h-6.848v-16.414h6.848V329.877z M430.658,297.043h-6.848v-16.42h6.848V297.043z
		 M430.658,264.209h-6.848v-16.424h6.848V264.209z M430.658,231.374h-6.848v-16.42h6.848V231.374z M430.658,198.534h-6.848V182.12
		h6.848V198.534z"/>
	<polygon style="fill:#FFFFFF;" points="421.535,362.11 418.109,356.17 423.81,352.884 423.81,346.3 430.658,346.3 430.658,356.831 
			"/>
	<path style="fill:#FFFFFF;" d="M279.341,444.208l-3.416-5.936l14.217-8.212l3.419,5.936L279.341,444.208z M307.781,427.781
		l-3.422-5.933l14.217-8.209l3.425,5.936L307.781,427.781z M336.219,411.367l-3.425-5.939l14.22-8.209l3.425,5.933L336.219,411.367z
		 M364.66,394.947l-3.425-5.936l14.22-8.212l3.425,5.936L364.66,394.947z M393.097,378.523l-3.425-5.936l14.22-8.202l3.425,5.933
		L393.097,378.523z"/>
	<path style="fill:#FFFFFF;" d="M107.011,144.295c7.089,12.288,2.88,28.005-9.408,35.084c-12.285,7.102-27.988,2.887-35.08-9.391
		c-7.092-12.285-2.887-27.998,9.404-35.097C84.212,127.795,99.913,132.007,107.011,144.295z"/>
</g>
<path style="fill:#353F49;" d="M278.244,45.429c7.095,12.291,2.89,28.001-9.394,35.084c-12.295,7.095-28.001,2.89-35.097-9.394
	c-7.092-12.278-2.884-27.992,9.408-35.087C255.442,28.94,271.158,33.151,278.244,45.429z"/>
<path style="fill:#FFFFFF;" d="M449.477,144.295c7.089,12.288,2.884,28.001-9.408,35.084c-12.278,7.099-27.988,2.887-35.07-9.391
	c-7.105-12.285-2.89-28.001,9.391-35.097C426.678,127.792,442.378,132.007,449.477,144.295z"/>
<path style="fill:#353F49;" d="M449.477,342.009c7.089,12.288,2.884,28.001-9.408,35.093c-12.288,7.102-27.988,2.89-35.07-9.401
	c-7.105-12.291-2.897-28.001,9.391-35.09C426.678,325.523,442.378,329.728,449.477,342.009z"/>
<circle style="fill:#FFFFFF;" cx="256" cy="453.731" r="25.686"/>
<path style="fill:#353F49;" d="M107.011,342.009c7.089,12.288,2.88,28.001-9.414,35.1c-12.281,7.095-27.982,2.884-35.074-9.408
	c-7.092-12.285-2.89-28.001,9.404-35.084C84.212,325.523,99.913,329.731,107.011,342.009z"/>
<g>
	<circle id="SVGID_3_" style="fill:#FFDB79;" cx="256" cy="256" r="76.701"/>
</g>
<g>
	<g>
		<polygon style="fill:#474F59;" points="279.46,229.373 232.531,229.373 229.336,297.631 282.69,297.631 		"/>
		<g>
			<path style="fill:#FFFFFF;" d="M202.983,312.303l-0.112,0.36l-3.194,10.154h-0.013l-4.205,13.309h121.083l-4.198-13.309
				l-4.618-14.58c-0.737-2.352-1.969-4.568-3.749-6.488c-1.774-1.926-3.888-3.32-6.167-4.241l-24.249-9.626
				c-1.219-0.482-2.319-1.344-3.112-2.494c-0.799-1.196-1.173-2.51-1.173-3.832v-11.809h-26.522v11.809
				c0,1.321-0.39,2.636-1.173,3.832c-0.806,1.15-1.889,2.008-3.105,2.494l-24.249,9.626c-2.279,0.922-4.393,2.316-6.174,4.241
				c-1.794,1.919-3.026,4.136-3.776,6.488L202.983,312.303L202.983,312.303z"/>
			<path style="fill:#FFFFFF;" d="M256.013,209.702c-14.521,0-24.844,10.567-24.844,32.973c0,18.947,11.115,34.945,24.844,34.945
				c13.702,0,24.834-15.998,24.834-34.945C280.844,220.272,270.508,209.702,256.013,209.702z"/>
		</g>
		<g>
			<path style="fill:#474F59;" d="M278.293,210.904h-22.28h-22.307c0,0-3.164,22.277,0.885,26.816
				c0.172-1.843,1.797-2.362,4.75-2.372c0,0,2.501-2.768,4.288-10.415c1.351,5.196,0.73,10.626,0.73,10.626
				c3.178,0.221,7.079,0.552,11.657,0.571c1.163-0.01,2.283-0.026,3.336-0.053c0,0,1.358-0.836,1.946-2.831
				c0.856,1.09,0.958,2.676,0.958,2.676c9.543-0.512,14.845-1.622,15.159,1.8C281.474,233.181,278.293,210.904,278.293,210.904z"/>
			<path style="fill:#474F59;" d="M238.466,287.883c1.216-0.482,2.299-1.344,3.105-2.494c0.783-1.196,1.173-2.51,1.173-3.832v-5.034
				h-7.469c-0.965-7.033-1.513-13.979-1.513-20.563c0-19.446,1.348-26.736,6.722-33.3c6.947-8.453,15.522-10.21,15.522-10.21
				s8.575,1.757,15.515,10.21c5.381,6.564,6.689,13.854,6.689,33.3c0,6.58-0.515,13.53-1.493,20.563h-7.455v5.034
				c0,1.321,0.373,2.636,1.173,3.832c0.793,1.15,1.893,2.008,3.112,2.494l13.887,5.53c1.708-2.134,2.58-4.704,2.58-7.29v-9.599
				c0-16.11-0.489-37.125-3.895-52.472c-2.976-13.163-14.22-25.871-30.119-22.419c-15.905-3.452-27.143,9.256-30.122,22.419
				c-3.439,15.347-3.918,36.362-3.918,52.472v9.599c0,2.586,0.885,5.156,2.619,7.29L238.466,287.883z"/>
			<path style="fill:#474F59;" d="M216.474,336.13h79.033c-3.686-8.066-5.972-18.967-5.972-30.988c0-3.67,0.231-7.221,0.631-10.64
				h-0.02l-6.491-2.58l-2.798,11.218c-1.308,5.361-4.37,10.362-9.057,14.019c-4.714,3.676-9.916,5.232-15.789,5.232
				c-5.9,0-11.109-1.556-15.799-5.232c-4.677-3.657-7.749-8.658-9.057-14.019l-2.808-11.218l-6.471,2.58h-0.063
				c0.396,3.419,0.628,6.966,0.628,10.64C222.446,317.163,220.16,328.06,216.474,336.13z"/>
		</g>
	</g>
</g>
<g>
</g>
<g>
</g>
<g>
</g>
<g>
</g>
<g>
</g>
<g>
</g>
<g>
</g>
<g>
</g>
<g>
</g>
<g>
</g>
<g>
</g>
<g>
</g>
<g>
</g>
<g>
</g>
<g>
</g>
</svg>
