<?xml version="1.0" encoding="iso-8859-1"?>
<!-- Generator: Adobe Illustrator 19.0.0, SVG Export Plug-In . SVG Version: 6.00 Build 0)  -->
<svg version="1.1" id="Layer_1" xmlns="http://www.w3.org/2000/svg" xmlns:xlink="http://www.w3.org/1999/xlink" x="0px" y="0px"
	 viewBox="0 0 512 512" style="enable-background:new 0 0 512 512;" xml:space="preserve">
<path style="fill:#F2F2F2;" d="M353.176,266.934c0,50.365-40.84,91.195-91.215,91.195c-50.363,0-91.208-40.829-91.208-91.195
	c0-50.368,40.845-91.19,91.208-91.19C312.337,175.744,353.176,216.566,353.176,266.934z"/>
<g>
	<path style="fill:#E6E5E5;" d="M286.849,76.9c0,13.742-11.154,24.881-24.888,24.881c-13.727,0-24.881-11.139-24.881-24.881
		c0-13.732,11.154-24.87,24.881-24.87C275.693,52.027,286.849,63.165,286.849,76.9z"/>
	<path style="fill:#E6E5E5;" d="M145.171,114.972c9.713,9.723,9.713,25.464,0,35.167c-9.72,9.723-25.446,9.723-35.172,0
		c-9.725-9.702-9.725-25.441,0-35.167C119.72,105.247,135.451,105.247,145.171,114.972z"/>
	<path style="fill:#E6E5E5;" d="M71.94,242.061c13.729,0,24.868,11.123,24.868,24.873c0,13.747-11.141,24.873-24.868,24.873
		c-13.747,0-24.883-11.126-24.883-24.873C47.057,253.184,58.193,242.061,71.94,242.061z"/>
	<path style="fill:#E6E5E5;" d="M109.999,383.726c9.723-9.723,25.452-9.723,35.172,0c9.713,9.702,9.713,25.449,0,35.167
		c-9.72,9.723-25.446,9.723-35.172,0C100.274,409.175,100.274,393.428,109.999,383.726z"/>
	<path style="fill:#E6E5E5;" d="M237.08,456.965c0-13.742,11.154-24.873,24.881-24.881c13.732,0,24.888,11.139,24.888,24.881
		c0,13.74-11.154,24.87-24.888,24.87C248.234,481.835,237.08,470.705,237.08,456.965z"/>
	<path style="fill:#E6E5E5;" d="M378.751,418.893c-9.713-9.725-9.713-25.464,0.013-35.167c9.708-9.723,25.439-9.723,35.162,0
		c9.728,9.702,9.728,25.449-0.005,35.167C404.202,428.616,388.479,428.616,378.751,418.893z"/>
	<path style="fill:#E6E5E5;" d="M451.987,291.804c-13.732,0-24.863-11.126-24.873-24.873c0-13.75,11.141-24.873,24.873-24.873
		c13.755,0,24.881,11.123,24.881,24.881C476.865,280.681,465.742,291.804,451.987,291.804z"/>
	<path style="fill:#E6E5E5;" d="M413.933,150.136c-9.733,9.723-25.454,9.723-35.169,0c-9.725-9.702-9.725-25.436,0-35.167
		c9.715-9.723,25.439-9.723,35.169,0C423.653,124.695,423.653,140.436,413.933,150.136z"/>
</g>
<path style="fill:#FFDB79;" d="M329.827,266.975c0,37.435-30.372,67.814-67.873,67.814c-37.484,0-67.858-30.38-67.858-67.814
	c0-37.486,30.374-67.901,67.858-67.901C299.455,199.073,329.827,229.491,329.827,266.975z"/>
<path style="fill:#FAB83E;" d="M316.212,266.975c0,29.988-24.274,54.259-54.257,54.259c-29.998,0-54.287-24.271-54.287-54.259
	c0-30.016,24.289-54.272,54.287-54.272C291.936,212.703,316.212,236.961,316.212,266.975z"/>
<g>
	<path style="fill:#FFDB79;" d="M267.662,271.437h-11.407c-4.759,0-9.231-1.838-12.582-5.217c-3.328-3.305-5.192-7.795-5.192-12.554
		c0-4.764,1.853-9.249,5.202-12.605c3.313-3.297,7.767-5.151,12.57-5.151h24.701v8.955h-24.699c-2.396,0-4.611,0.919-6.223,2.55
		c-1.679,1.682-2.583,3.884-2.583,6.254c0,2.358,0.896,4.575,2.55,6.198c1.695,1.718,3.899,2.614,6.257,2.614h11.407V271.437z"/>
	<path style="fill:#FFDB79;" d="M267.662,298.045h-24.709v-8.952h24.709c2.322,0,4.567-0.919,6.254-2.596
		c1.615-1.638,2.542-3.848,2.542-6.218c0-2.401-0.924-4.587-2.527-6.221c-1.702-1.702-3.948-2.621-6.269-2.621h-11.407v-8.96h11.407
		c4.721,0,9.216,1.866,12.559,5.24c3.356,3.29,5.189,7.752,5.189,12.562c0,4.764-1.825,9.247-5.202,12.562
		C276.845,296.192,272.36,298.045,267.662,298.045z"/>
	<rect x="257.458" y="232.781" style="fill:#FFDB79;" width="8.975" height="68.37"/>
</g>
<g>
	<rect x="255" y="163.197" style="fill:#474F59;" width="13.906" height="7.094"/>
	<rect x="255" y="146.79" style="fill:#474F59;" width="13.906" height="7.094"/>
	<rect x="255" y="130.378" style="fill:#474F59;" width="13.906" height="7.071"/>
	<rect x="255" y="113.956" style="fill:#474F59;" width="13.906" height="7.071"/>
	<polygon style="fill:#474F59;" points="193.54,188.662 183.676,198.51 188.709,203.507 198.532,193.664 	"/>
	
		<rect x="172.539" y="180.947" transform="matrix(-0.7079 0.7063 -0.7063 -0.7079 436.8923 188.2946)" style="fill:#474F59;" width="13.944" height="7.078"/>
	<polygon style="fill:#474F59;" points="170.313,165.455 160.485,175.306 165.482,180.301 175.308,170.452 	"/>
	<polygon style="fill:#474F59;" points="158.716,153.843 148.852,163.684 153.883,168.689 163.711,158.838 	"/>
	<rect x="158.222" y="259.968" style="fill:#474F59;" width="7.078" height="13.939"/>
	<rect x="141.797" y="259.968" style="fill:#474F59;" width="7.073" height="13.939"/>
	<rect x="125.39" y="259.968" style="fill:#474F59;" width="7.081" height="13.939"/>
	<rect x="108.965" y="259.968" style="fill:#474F59;" width="7.107" height="13.932"/>
	<polygon style="fill:#474F59;" points="183.676,335.36 193.54,345.219 198.534,340.214 188.709,330.373 	"/>
	<polygon style="fill:#474F59;" points="172.069,346.98 181.948,356.823 186.948,351.828 177.069,341.955 	"/>
	<polygon style="fill:#474F59;" points="160.493,358.564 170.318,368.422 175.308,363.428 165.49,353.577 	"/>
	<polygon style="fill:#474F59;" points="148.852,370.186 158.721,380.027 163.718,375.04 153.883,365.181 	"/>
	<rect x="255.026" y="363.597" style="fill:#474F59;" width="13.898" height="7.086"/>
	<rect x="255.026" y="380.006" style="fill:#474F59;" width="13.898" height="7.086"/>
	<rect x="255.026" y="396.416" style="fill:#474F59;" width="13.898" height="7.066"/>
	<rect x="255.026" y="412.851" style="fill:#474F59;" width="13.898" height="7.078"/>
	<polygon style="fill:#474F59;" points="330.39,345.211 340.253,335.36 335.226,330.365 325.4,340.209 	"/>
	<polygon style="fill:#474F59;" points="341.984,356.823 351.858,346.972 346.861,341.955 336.989,351.828 	"/>
	<polygon style="fill:#474F59;" points="353.617,368.415 363.439,358.564 358.452,353.569 348.625,363.412 	"/>
	<polygon style="fill:#474F59;" points="365.213,380.027 375.069,370.186 370.052,365.181 360.211,375.032 	"/>
	<rect x="358.629" y="259.968" style="fill:#474F59;" width="7.078" height="13.947"/>
	<rect x="375.039" y="259.968" style="fill:#474F59;" width="7.076" height="13.947"/>
	<rect x="391.448" y="259.968" style="fill:#474F59;" width="7.086" height="13.947"/>
	<rect x="407.858" y="259.968" style="fill:#474F59;" width="7.114" height="13.947"/>
	<polygon style="fill:#474F59;" points="340.253,198.505 330.39,188.662 325.393,193.664 335.226,203.5 	"/>
	
		<rect x="337.417" y="180.931" transform="matrix(-0.7078 -0.7064 0.7064 -0.7078 457.8489 558.3205)" style="fill:#474F59;" width="13.954" height="7.076"/>
	
		<rect x="349.083" y="169.33" transform="matrix(-0.7065 -0.7077 0.7077 -0.7065 485.2432 546.955)" style="fill:#474F59;" width="13.906" height="7.06"/>
	<polygon style="fill:#474F59;" points="375.069,163.679 365.211,153.836 360.211,158.838 370.052,168.689 	"/>
</g>
<circle style="fill:#E6E5E5;" cx="163.711" cy="40.717" r="11.313"/>
<g>
	<circle style="fill:#FFDB79;" cx="18.602" cy="100.147" r="18.099"/>
	<circle style="fill:#FFDB79;" cx="58.525" cy="353.562" r="10.716"/>
</g>
<circle style="fill:#E6E5E5;" cx="496.255" cy="170.291" r="15.242"/>
<g>
	<path style="fill:#FFDB79;" d="M398.714,22.618c0,12.488-10.138,22.62-22.62,22.62c-12.488,0-22.623-10.132-22.623-22.62
		C353.471,10.122,363.606,0,376.093,0C388.576,0,398.714,10.125,398.714,22.618z"/>
	<path style="fill:#FFDB79;" d="M482.953,475.794c0,17.106-13.87,30.966-30.966,30.966c-17.108,0-30.963-13.86-30.963-30.966
		c0-17.083,13.855-30.956,30.963-30.956C469.083,444.841,482.953,458.714,482.953,475.794z"/>
</g>
<path style="fill:#E6E5E5;" d="M155.224,493.896c0,9.997-8.105,18.104-18.094,18.104c-9.999,0-18.102-8.108-18.102-18.104
	c0-9.989,8.105-18.099,18.102-18.099C147.119,475.794,155.224,483.904,155.224,493.896z"/>
<g>
</g>
<g>
</g>
<g>
</g>
<g>
</g>
<g>
</g>
<g>
</g>
<g>
</g>
<g>
</g>
<g>
</g>
<g>
</g>
<g>
</g>
<g>
</g>
<g>
</g>
<g>
</g>
<g>
</g>
</svg>
