<?xml version="1.0" encoding="iso-8859-1"?>
<!-- Generator: Adobe Illustrator 19.0.0, SVG Export Plug-In . SVG Version: 6.00 Build 0)  -->
<svg version="1.1" id="Layer_1" xmlns="http://www.w3.org/2000/svg" xmlns:xlink="http://www.w3.org/1999/xlink" x="0px" y="0px"
	 viewBox="0 0 512 512" style="enable-background:new 0 0 512 512;" xml:space="preserve">
<circle style="fill:#474F59;" cx="256" cy="256" r="256"/>
<g>
	<path style="fill:#FFFFFF;" d="M335.403,256c0,43.847-35.553,79.386-79.403,79.386c-43.84,0-79.396-35.539-79.396-79.386
		c0-43.844,35.556-79.38,79.396-79.38C299.85,176.62,335.403,212.156,335.403,256z"/>
	<path style="fill:#FFFFFF;" d="M277.666,90.574c0,11.961-9.708,21.659-21.666,21.659c-11.948,0-21.659-9.698-21.659-21.659
		c0-11.954,9.708-21.653,21.659-21.653C267.954,68.922,277.666,78.62,277.666,90.574z"/>
	<path style="fill:#FFFFFF;" d="M154.33,123.716c8.46,8.466,8.46,22.168,0,30.618c-8.46,8.463-22.148,8.463-30.614,0
		c-8.469-8.45-8.469-22.151,0-30.618C132.179,115.256,145.87,115.256,154.33,123.716z"/>
	<path style="fill:#FFFFFF;" d="M90.584,234.351c11.951,0,21.649,9.685,21.649,21.649c0,11.968-9.698,21.653-21.649,21.653
		c-11.968,0-21.663-9.685-21.663-21.653C68.922,244.036,78.617,234.351,90.584,234.351z"/>
	<path style="fill:#FFFFFF;" d="M123.716,357.67c8.466-8.463,22.155-8.463,30.614,0c8.46,8.446,8.46,22.155,0,30.614
		c-8.46,8.466-22.148,8.466-30.614,0C115.246,379.825,115.246,366.116,123.716,357.67z"/>
	<path style="fill:#FFFFFF;" d="M234.341,421.429c0-11.961,9.708-21.656,21.659-21.659c11.954,0,21.666,9.698,21.666,21.659
		c0,11.958-9.708,21.649-21.666,21.649C244.052,443.078,234.341,433.387,234.341,421.429z"/>
	<path style="fill:#FFFFFF;" d="M357.667,388.284c-8.456-8.466-8.456-22.168,0.01-30.614c8.453-8.463,22.145-8.463,30.611,0
		c8.466,8.446,8.466,22.155-0.003,30.614C379.821,396.747,366.136,396.747,357.667,388.284z"/>
	<path style="fill:#FFFFFF;" d="M421.419,277.653c-11.954,0-21.643-9.685-21.653-21.653c0-11.964,9.698-21.649,21.653-21.649
		c11.974,0,21.659,9.685,21.659,21.656C443.078,267.968,433.393,277.653,421.419,277.653z"/>
	<path style="fill:#FFFFFF;" d="M388.294,154.333c-8.469,8.463-22.158,8.463-30.618,0c-8.466-8.45-8.466-22.145,0-30.618
		c8.46-8.463,22.145-8.463,30.618,0C396.754,132.182,396.754,145.884,388.294,154.333z"/>
</g>
<path style="fill:#FFDB79;" d="M315.078,256.04c0,32.59-26.439,59.035-59.085,59.035c-32.629,0-59.072-26.446-59.072-59.035
	c0-32.629,26.442-59.108,59.072-59.108C288.639,196.932,315.078,223.41,315.078,256.04z"/>
<path style="fill:#FAB83E;" d="M303.226,256.04c0,26.102-21.131,47.236-47.233,47.236c-26.112,0-47.259-21.131-47.259-47.236
	c0-26.129,21.144-47.246,47.259-47.246C282.092,208.794,303.226,229.911,303.226,256.04z"/>
<g>
	<path style="fill:#FFDB79;" d="M260.961,259.924h-9.929c-4.142,0-8.037-1.599-10.95-4.542c-2.897-2.877-4.519-6.788-4.519-10.927
		c0-4.152,1.612-8.053,4.529-10.977c2.884-2.867,6.762-4.482,10.944-4.482h21.504v7.792h-21.504c-2.084,0-4.013,0.799-5.417,2.223
		c-1.46,1.46-2.249,3.379-2.249,5.444c0,2.048,0.78,3.98,2.22,5.391c1.473,1.496,3.392,2.276,5.444,2.276h9.929L260.961,259.924
		L260.961,259.924z"/>
	<path style="fill:#FFDB79;" d="M260.961,283.083h-21.511v-7.789h21.511c2.022,0,3.977-0.799,5.444-2.263
		c1.407-1.424,2.213-3.349,2.213-5.414c0-2.088-0.803-3.994-2.2-5.414c-1.48-1.483-3.435-2.283-5.457-2.283h-9.929v-7.799h9.929
		c4.109,0,8.024,1.628,10.937,4.562c2.92,2.864,4.516,6.752,4.516,10.937c0,4.149-1.586,8.053-4.529,10.937
		C268.955,281.471,265.051,283.083,260.961,283.083z"/>
	<rect x="252.069" y="226.271" style="fill:#FFDB79;" width="7.812" height="59.524"/>
</g>
<g>
	<rect x="249.955" y="165.69" style="fill:#FFFFFF;" width="12.103" height="6.174"/>
	<rect x="249.955" y="151.41" style="fill:#FFFFFF;" width="12.103" height="6.17"/>
	<rect x="249.955" y="137.13" style="fill:#FFFFFF;" width="12.103" height="6.154"/>
	<rect x="249.955" y="122.847" style="fill:#FFFFFF;" width="12.103" height="6.154"/>
	<polygon style="fill:#FFFFFF;" points="196.44,187.868 187.851,196.44 192.231,200.79 200.783,192.218 	"/>
	
		<rect x="178.153" y="181.141" transform="matrix(-0.7079 0.7063 -0.7063 -0.7079 444.7526 184.5155)" style="fill:#FFFFFF;" width="12.139" height="6.16"/>
	
		<rect x="168.058" y="171.049" transform="matrix(-0.7063 0.7079 -0.7079 -0.7063 420.356 173.8529)" style="fill:#FFFFFF;" width="12.113" height="6.151"/>
	<polygon style="fill:#FFFFFF;" points="166.123,157.554 157.537,166.123 161.918,170.476 170.47,161.904 	"/>
	<rect x="165.69" y="249.955" style="fill:#FFFFFF;" width="6.161" height="12.136"/>
	<rect x="151.403" y="249.955" style="fill:#FFFFFF;" width="6.157" height="12.136"/>
	<rect x="137.11" y="249.955" style="fill:#FFFFFF;" width="6.167" height="12.136"/>
	<rect x="122.814" y="249.955" style="fill:#FFFFFF;" width="6.187" height="12.129"/>
	<polygon style="fill:#FFFFFF;" points="187.851,315.57 196.44,324.149 200.787,319.795 192.231,311.227 	"/>
	<polygon style="fill:#FFFFFF;" points="177.75,325.685 186.348,334.253 190.699,329.903 182.1,321.311 	"/>
	<polygon style="fill:#FFFFFF;" points="167.672,335.77 176.224,344.348 180.568,340.001 172.019,331.426 	"/>
	<polygon style="fill:#FFFFFF;" points="157.537,345.884 166.129,354.456 170.476,350.109 161.918,341.534 	"/>
	<rect x="249.955" y="340.133" style="fill:#FFFFFF;" width="12.096" height="6.17"/>
	<rect x="249.955" y="354.436" style="fill:#FFFFFF;" width="12.096" height="6.164"/>
	<rect x="249.955" y="368.739" style="fill:#FFFFFF;" width="12.096" height="6.147"/>
	<rect x="249.955" y="383.009" style="fill:#FFFFFF;" width="12.096" height="6.161"/>
	<polygon style="fill:#FFFFFF;" points="315.567,324.142 324.155,315.57 319.779,311.22 311.227,319.789 	"/>
	
		<rect x="321.735" y="324.69" transform="matrix(0.7079 -0.7063 0.7063 0.7079 -135.7569 327.2716)" style="fill:#FFFFFF;" width="12.143" height="6.164"/>
	<polygon style="fill:#FFFFFF;" points="335.786,344.341 344.338,335.77 339.998,331.419 331.442,339.991 	"/>
	
		<rect x="341.914" y="344.882" transform="matrix(0.7074 -0.7068 0.7068 0.7074 -144.1285 347.7652)" style="fill:#FFFFFF;" width="12.126" height="6.167"/>
	<rect x="340.166" y="249.922" style="fill:#FFFFFF;" width="6.161" height="12.139"/>
	<rect x="354.436" y="249.922" style="fill:#FFFFFF;" width="6.157" height="12.139"/>
	<rect x="368.739" y="249.922" style="fill:#FFFFFF;" width="6.167" height="12.139"/>
	<rect x="383.009" y="249.922" style="fill:#FFFFFF;" width="6.194" height="12.139"/>
	<polygon style="fill:#FFFFFF;" points="324.155,196.433 315.567,187.864 311.22,192.218 319.779,200.78 	"/>
	
		<rect x="321.689" y="181.128" transform="matrix(-0.7079 -0.7063 0.7063 -0.7079 429.6832 546.1087)" style="fill:#FFFFFF;" width="12.149" height="6.157"/>
	
		<rect x="331.869" y="171.045" transform="matrix(-0.7066 -0.7076 0.7076 -0.7066 453.4916 536.2684)" style="fill:#FFFFFF;" width="12.106" height="6.147"/>
	
		<rect x="341.929" y="160.944" transform="matrix(-0.7076 -0.7066 0.7066 -0.7076 478.3341 525.9793)" style="fill:#FFFFFF;" width="12.126" height="6.157"/>
	<circle style="fill:#FFFFFF;" cx="170.473" cy="59.078" r="9.847"/>
</g>
<g>
	<circle style="fill:#FFDB79;" cx="22.049" cy="85.104" r="15.753"/>
	<circle style="fill:#FFDB79;" cx="78.904" cy="331.413" r="9.328"/>
</g>
<circle style="fill:#FFFFFF;" cx="459.941" cy="171.867" r="13.279"/>
<g>
	<path style="fill:#FFDB79;" d="M375.045,23.631c0,10.871-8.826,19.691-19.691,19.691c-10.871,0-19.694-8.82-19.694-19.691
		c0-10.878,8.823-19.691,19.694-19.691C366.219,3.941,375.045,12.754,375.045,23.631z"/>
	<path style="fill:#FFDB79;" d="M476.774,429.945c0,14.888-12.073,26.954-26.954,26.954c-14.894,0-26.954-12.067-26.954-26.954
		c0-14.874,12.06-26.951,26.954-26.951C464.701,402.994,476.774,415.07,476.774,429.945z"/>
</g>
<circle style="fill:#FFFFFF;" cx="147.33" cy="453.566" r="15.756"/>
<g>
</g>
<g>
</g>
<g>
</g>
<g>
</g>
<g>
</g>
<g>
</g>
<g>
</g>
<g>
</g>
<g>
</g>
<g>
</g>
<g>
</g>
<g>
</g>
<g>
</g>
<g>
</g>
<g>
</g>
</svg>
