<?xml version="1.0" encoding="iso-8859-1"?>
<!-- Generator: Adobe Illustrator 19.0.0, SVG Export Plug-In . SVG Version: 6.00 Build 0)  -->
<svg version="1.1" id="Layer_1" xmlns="http://www.w3.org/2000/svg" xmlns:xlink="http://www.w3.org/1999/xlink" x="0px" y="0px"
	 viewBox="0 0 512 512" style="enable-background:new 0 0 512 512;" xml:space="preserve">
<circle style="fill:#474F59;" cx="256" cy="256" r="256"/>
<rect x="106.826" y="93.019" style="fill:#FFFFFF;" width="298.347" height="187.141"/>
<rect x="133.186" y="126.679" style="fill:#F77B55;" width="72.242" height="72.202"/>
<g>
	<rect x="133.186" y="213.388" style="fill:#CCCBCA;" width="72.242" height="6.583"/>
	<rect x="133.186" y="226.634" style="fill:#CCCBCA;" width="72.242" height="6.606"/>
	<rect x="133.186" y="239.913" style="fill:#CCCBCA;" width="36.114" height="6.583"/>
</g>
<rect x="219.896" y="126.679" style="fill:#F77B55;" width="72.205" height="72.202"/>
<g>
	<rect x="219.896" y="213.388" style="fill:#CCCBCA;" width="72.205" height="6.583"/>
	<rect x="219.896" y="226.634" style="fill:#CCCBCA;" width="72.205" height="6.606"/>
	<rect x="219.896" y="239.913" style="fill:#CCCBCA;" width="36.098" height="6.583"/>
</g>
<rect x="306.572" y="126.679" style="fill:#F77B55;" width="72.242" height="72.202"/>
<g>
	<rect x="306.539" y="213.388" style="fill:#CCCBCA;" width="72.261" height="6.583"/>
	<rect x="306.539" y="226.634" style="fill:#CCCBCA;" width="72.261" height="6.606"/>
	<rect x="306.539" y="239.913" style="fill:#CCCBCA;" width="36.147" height="6.583"/>
</g>
<rect x="106.826" y="62.642" style="fill:#232E38;" width="298.347" height="30.376"/>
<rect x="21.471" y="358.763" style="fill:#CCCBCA;" width="134.276" height="88.398"/>
<g>
	<rect x="42.486" y="386.411" style="fill:#FFFFFF;" width="92.243" height="6.59"/>
	<rect x="42.486" y="399.657" style="fill:#FFFFFF;" width="92.243" height="6.639"/>
	<rect x="42.486" y="412.936" style="fill:#FFFFFF;" width="46.106" height="6.639"/>
</g>
<rect x="188.878" y="358.763" style="fill:#CCCBCA;" width="134.24" height="88.398"/>
<g>
	<rect x="209.887" y="386.411" style="fill:#FFFFFF;" width="92.206" height="6.59"/>
	<rect x="209.887" y="399.657" style="fill:#FFFFFF;" width="92.206" height="6.639"/>
	<rect x="209.887" y="412.936" style="fill:#FFFFFF;" width="46.11" height="6.639"/>
</g>
<rect x="356.253" y="358.763" style="fill:#CCCBCA;" width="134.276" height="88.398"/>
<g>
	<rect x="377.261" y="386.411" style="fill:#FFFFFF;" width="92.246" height="6.59"/>
	<rect x="377.261" y="399.657" style="fill:#FFFFFF;" width="92.246" height="6.639"/>
	<rect x="377.261" y="412.936" style="fill:#FFFFFF;" width="46.136" height="6.639"/>
	<polygon style="fill:#FFFFFF;" points="428.283,358.78 418.529,358.78 418.529,324.317 93.495,324.317 93.495,358.78 
		83.737,358.78 83.737,314.629 428.283,314.629 	"/>
	<rect x="251.111" y="280.147" style="fill:#FFFFFF;" width="9.761" height="78.62"/>
</g>
<g>
</g>
<g>
</g>
<g>
</g>
<g>
</g>
<g>
</g>
<g>
</g>
<g>
</g>
<g>
</g>
<g>
</g>
<g>
</g>
<g>
</g>
<g>
</g>
<g>
</g>
<g>
</g>
<g>
</g>
</svg>
