<?xml version="1.0" encoding="iso-8859-1"?>
<!-- Generator: Adobe Illustrator 19.0.0, SVG Export Plug-In . SVG Version: 6.00 Build 0)  -->
<svg version="1.1" id="Layer_1" xmlns="http://www.w3.org/2000/svg" xmlns:xlink="http://www.w3.org/1999/xlink" x="0px" y="0px"
	 viewBox="0 0 512 512" style="enable-background:new 0 0 512 512;" xml:space="preserve">
<polygon style="fill:#D9D8D7;" points="121.242,262.303 241.948,342.753 241.948,181.814 "/>
<polygon style="fill:#E6E5E5;" points="362.657,262.303 241.948,342.753 241.948,181.814 "/>
<g>
	<polygon style="fill:#F2F2F2;" points="241.948,181.814 121.236,262.31 55.05,218.186 175.759,137.72 	"/>
	<polygon style="fill:#F2F2F2;" points="241.953,181.806 362.657,262.303 428.836,218.181 308.132,137.713 	"/>
</g>
<polygon style="fill:#ADECF7;" points="121.242,262.303 121.242,403.146 241.948,483.625 241.948,342.753 "/>
<polygon style="fill:#92DEEB;" points="362.657,262.303 362.657,403.146 241.948,483.625 241.948,342.753 "/>
<polygon style="fill:#76D0DE;" points="362.657,262.303 362.657,403.146 280.771,457.743 241.948,342.753 "/>
<g>
	<polygon style="fill:#F2F2F2;" points="428.836,306.396 308.132,386.898 241.948,342.753 362.657,262.303 	"/>
	<polygon style="fill:#F2F2F2;" points="55.05,306.396 175.759,386.898 241.948,342.753 121.236,262.303 	"/>
</g>
<path style="fill:#474F59;" d="M245.381,335.268l-6.671-0.182c0.164-6.016,0.509-12.058,1.042-17.969l6.648,0.596
	C245.88,323.479,245.54,329.393,245.381,335.268z M248.517,300.265l-6.597-1.014c0.906-5.919,2.017-11.873,3.295-17.705l6.515,1.436
	C250.483,288.668,249.4,294.482,248.517,300.265z M256.031,265.94l-6.41-1.853c1.661-5.765,3.515-11.53,5.514-17.121l6.28,2.245
	C259.471,254.669,257.656,260.298,256.031,265.94z M267.845,232.86l-6.131-2.639c2.378-5.496,4.951-10.985,7.647-16.3l5.955,3.026
	C272.671,222.144,270.162,227.494,267.845,232.86z M283.773,201.539l-5.745-3.397c3.046-5.161,6.292-10.278,9.638-15.199
	l5.517,3.753C289.917,191.501,286.753,196.493,283.773,201.539z M303.521,172.477l-5.279-4.091
	c3.658-4.723,7.521-9.388,11.479-13.87l5.007,4.419C310.861,163.313,307.09,167.869,303.521,172.477z M326.766,146.112l-4.718-4.716
	c4.234-4.234,8.653-8.384,13.13-12.321l4.411,5.01C335.219,137.933,330.906,141.978,326.766,146.112z M353.144,122.88l-4.091-5.279
	c4.723-3.661,9.623-7.217,14.572-10.578l3.745,5.527C362.547,115.832,357.757,119.306,353.144,122.88z M382.236,103.127
	l-3.387-5.752c5.161-3.046,10.473-5.957,15.788-8.653l3.018,5.955C392.463,97.308,387.279,100.152,382.236,103.127z M413.588,87.214
	l-2.639-6.131c5.476-2.353,11.118-4.577,16.765-6.589l2.245,6.285C424.44,82.744,418.936,84.91,413.588,87.214z"/>
<polygon style="fill:#E6E5E5;" points="373.745,60.083 378.117,107.681 512,28.375 "/>
<g>
	<polygon style="fill:#F2F2F2;" points="386.34,68.961 432.415,101.522 512,28.375 	"/>
	<polygon style="fill:#F2F2F2;" points="345.672,40.248 373.745,60.083 512,28.375 	"/>
</g>
<polygon style="fill:#CCCBCA;" points="378.117,107.681 386.34,68.961 412.421,87.365 "/>
<g>
	<path style="fill:#E6E5E5;" d="M70.385,144.776c-16.381,0-29.67,13.312-29.67,29.668c0-16.356-13.292-29.668-29.663-29.668
		c16.371,0,29.663-13.332,29.663-29.673C40.714,131.446,54.003,144.776,70.385,144.776z"/>
	<path style="fill:#E6E5E5;" d="M496.269,262.287c-14.74,0-26.703,11.983-26.703,26.708c0-14.725-11.96-26.708-26.701-26.708
		c14.74,0,26.701-11.999,26.701-26.708C469.568,250.289,481.531,262.287,496.269,262.287z"/>
	<path style="fill:#E6E5E5;" d="M261.985,120.125c-8.599,0-15.572,6.984-15.572,15.575c0-8.594-6.979-15.575-15.575-15.575
		c8.596,0,15.575-6.999,15.575-15.585C246.413,113.126,253.386,120.125,261.985,120.125z"/>
	<path style="fill:#E6E5E5;" d="M201.91,45.468c-3.681,0-6.674,2.995-6.674,6.684c0-3.689-2.988-6.684-6.676-6.684
		c3.686,0,6.676-2.995,6.676-6.676C195.236,42.47,198.228,45.468,201.91,45.468z"/>
	<path style="fill:#E6E5E5;" d="M22.246,241.272c-6.136,0-11.123,4.992-11.123,11.131c0-6.136-4.979-11.131-11.123-11.131
		c6.144,0,11.123-5.002,11.123-11.131C11.123,236.27,16.108,241.272,22.246,241.272z"/>
</g>
<g>
</g>
<g>
</g>
<g>
</g>
<g>
</g>
<g>
</g>
<g>
</g>
<g>
</g>
<g>
</g>
<g>
</g>
<g>
</g>
<g>
</g>
<g>
</g>
<g>
</g>
<g>
</g>
<g>
</g>
</svg>
