<?xml version="1.0" encoding="iso-8859-1"?>
<!-- Generator: Adobe Illustrator 19.0.0, SVG Export Plug-In . SVG Version: 6.00 Build 0)  -->
<svg version="1.1" id="Layer_1" xmlns="http://www.w3.org/2000/svg" xmlns:xlink="http://www.w3.org/1999/xlink" x="0px" y="0px"
	 viewBox="0 0 512 512" style="enable-background:new 0 0 512 512;" xml:space="preserve">
<circle style="fill:#474F59;" cx="256" cy="256" r="256"/>
<polygon style="fill:#D9D8D7;" points="149.167,244.7 256.003,315.907 256.003,173.459 "/>
<polygon style="fill:#E6E5E5;" points="362.84,244.7 256.003,315.907 256.003,173.459 "/>
<g>
	<polygon style="fill:#F2F2F2;" points="256.003,173.459 149.164,244.706 90.584,205.656 197.421,134.435 	"/>
	<polygon style="fill:#F2F2F2;" points="256.007,173.456 362.84,244.7 421.416,205.646 314.579,134.425 	"/>
</g>
<polygon style="fill:#ADECF7;" points="149.167,244.7 149.167,369.357 256.003,440.588 256.003,315.907 "/>
<polygon style="fill:#92DEEB;" points="362.84,244.7 362.84,369.357 256.003,440.588 256.003,315.907 "/>
<polygon style="fill:#76D0DE;" points="362.84,244.7 362.84,369.357 290.36,417.676 256.003,315.907 "/>
<g>
	<polygon style="fill:#FFFFFF;" points="421.416,283.724 314.579,354.975 256.003,315.907 362.84,244.7 	"/>
	<polygon style="fill:#FFFFFF;" points="90.584,283.724 197.421,354.975 256.003,315.907 149.164,244.7 	"/>
	<path style="fill:#FFFFFF;" d="M259.042,309.281l-5.906-0.162c0.145-5.322,0.453-10.673,0.922-15.905l5.883,0.529
		C259.485,298.849,259.181,304.082,259.042,309.281z M261.817,278.297l-5.84-0.895c0.803-5.239,1.784-10.511,2.917-15.671
		l5.767,1.268C263.558,268.037,262.6,273.183,261.817,278.297z M268.466,247.92l-5.675-1.638c1.47-5.107,3.108-10.207,4.882-15.155
		l5.563,1.989C271.512,237.941,269.907,242.926,268.466,247.92z M278.921,218.641l-5.424-2.339
		c2.101-4.866,4.377-9.718,6.765-14.422l5.272,2.679C283.195,209.154,280.976,213.894,278.921,218.641z M293.019,190.92
		l-5.084-3.006c2.699-4.572,5.569-9.097,8.529-13.451l4.885,3.323C298.46,182.034,295.659,186.454,293.019,190.92z M310.497,165.198
		l-4.671-3.624c3.24-4.179,6.663-8.311,10.161-12.275l4.433,3.908C316.997,157.085,313.658,161.115,310.497,165.198z
		 M331.076,141.86l-4.179-4.179c3.749-3.749,7.66-7.416,11.621-10.904l3.908,4.433C338.554,134.62,334.736,138.204,331.076,141.86z
		 M354.42,121.298l-3.617-4.671c4.179-3.237,8.516-6.388,12.896-9.358l3.316,4.885C362.74,115.058,358.502,118.137,354.42,121.298z
		 M380.168,103.814l-2.999-5.087c4.568-2.695,9.272-5.272,13.976-7.66l2.672,5.272C389.222,98.664,384.631,101.181,380.168,103.814z
		 M407.919,89.732l-2.339-5.427c4.846-2.088,9.84-4.053,14.841-5.833l1.985,5.563C417.521,85.778,412.652,87.694,407.919,89.732z"/>
</g>
<polygon style="fill:#E6E5E5;" points="372.65,65.721 376.525,107.847 495.021,37.653 "/>
<g>
	<polygon style="fill:#F2F2F2;" points="383.798,73.576 424.583,102.393 495.021,37.653 	"/>
	<polygon style="fill:#F2F2F2;" points="347.807,48.161 372.65,65.721 495.021,37.653 	"/>
</g>
<polygon style="fill:#CCCBCA;" points="376.525,107.847 383.798,73.576 406.885,89.868 "/>
<g>
	<path style="fill:#FFFFFF;" d="M104.154,140.678c-14.501,0-26.261,11.783-26.261,26.257c0-14.475-11.766-26.257-26.254-26.257
		c14.491,0,26.254-11.796,26.254-26.264C77.893,128.882,89.656,140.678,104.154,140.678z"/>
	<path style="fill:#FFFFFF;" d="M481.102,244.683c-13.044,0-23.631,10.61-23.631,23.638c0-13.028-10.587-23.638-23.631-23.638
		c13.044,0,23.631-10.617,23.631-23.638C457.467,234.067,468.054,244.683,481.102,244.683z"/>
	<path style="fill:#FFFFFF;" d="M273.738,118.86c-7.614,0-13.784,6.18-13.784,13.788c0-7.607-6.177-13.788-13.788-13.788
		c7.611,0,13.788-6.194,13.788-13.794C259.954,112.666,266.124,118.86,273.738,118.86z"/>
	<path style="fill:#FFFFFF;" d="M220.563,52.782c-3.257,0-5.906,2.652-5.906,5.913c0-3.26-2.646-5.913-5.909-5.913
		c3.264,0,5.909-2.652,5.909-5.909C214.657,50.133,217.306,52.782,220.563,52.782z"/>
	<path style="fill:#FFFFFF;" d="M61.549,226.083c-5.434,0-9.844,4.42-9.844,9.85c0-5.434-4.407-9.85-9.844-9.85
		c5.437,0,9.844-4.423,9.844-9.847C51.702,221.66,56.115,226.083,61.549,226.083z"/>
</g>
<g>
</g>
<g>
</g>
<g>
</g>
<g>
</g>
<g>
</g>
<g>
</g>
<g>
</g>
<g>
</g>
<g>
</g>
<g>
</g>
<g>
</g>
<g>
</g>
<g>
</g>
<g>
</g>
<g>
</g>
</svg>
