<?xml version="1.0" encoding="iso-8859-1"?>
<!-- Generator: Adobe Illustrator 19.0.0, SVG Export Plug-In . SVG Version: 6.00 Build 0)  -->
<svg version="1.1" id="Capa_1" xmlns="http://www.w3.org/2000/svg" xmlns:xlink="http://www.w3.org/1999/xlink" x="0px" y="0px"
	 viewBox="0 0 512 512" style="enable-background:new 0 0 512 512;" xml:space="preserve">
<path style="fill:#B4E6FF;" d="M256,296.082c-137.243,0-248.5-39.478-248.5-88.177v160.323c0,48.699,111.257,88.177,248.5,88.177
	s248.5-39.478,248.5-88.177V207.904C504.5,256.603,393.243,296.082,256,296.082z"/>
<path style="fill:#96DCFF;" d="M111.71,279.672C48.648,263.68,7.5,237.505,7.5,207.904v160.323
	c0,29.601,41.148,55.775,104.21,71.768V279.672z"/>
<path style="fill:#CDF0FF;" d="M400.29,439.995c21.509-5.455,40.472-12.085,56.113-19.644V260.028
	c-15.641,7.559-34.604,14.189-56.113,19.644V439.995z"/>
<circle style="fill:#D2F2FF;" cx="175.84" cy="348.191" r="44.09"/>
<path style="fill:#91C85F;" d="M256,456.404c34.496,0,67.345-2.498,97.204-7.006l-85.868-85.868c-6.261-6.261-16.412-6.261-22.673,0
	l-85.868,85.868C188.655,453.906,221.504,456.404,256,456.404z"/>
<circle style="fill:#FFFFFF;" cx="175.84" cy="348.191" r="20.04"/>
<path style="fill:#AFD755;" d="M445.529,369.098c-12.043,5.035-25.983,2.351-35.214-6.879l-30.753-30.753
	c-6.261-6.261-16.412-6.261-22.673,0l-124.53,124.53c7.785,0.261,15.663,0.408,23.641,0.408c137.243,0,248.5-39.478,248.5-88.177
	v-56.113C504.5,333.85,482.289,353.731,445.529,369.098z"/>
<path style="fill:#BEE86E;" d="M400.29,439.995c21.509-5.455,40.473-12.085,56.113-19.644v-56.167
	c-3.478,1.68-7.078,3.327-10.874,4.914c-12.043,5.035-25.983,2.351-35.214-6.879l-10.025-10.025L400.29,439.995L400.29,439.995z"/>
<path style="fill:#AFD755;" d="M197.398,453.915L82.965,339.482c-6.261-6.261-16.412-6.261-22.673,0l-8.438,8.438
	c-5.711,5.711-14.782,6.234-21.208,1.342C15.816,337.973,7.5,325.392,7.5,312.114v56.113C7.5,409.76,88.447,444.565,197.398,453.915
	z"/>
<path style="fill:#91C85F;" d="M111.71,368.227l-28.744-28.744c-6.261-6.261-16.412-6.261-22.673,0l-8.438,8.438
	c-5.711,5.711-14.782,6.234-21.209,1.342C15.816,337.973,7.5,325.392,7.5,312.114v56.113c0,29.602,41.139,55.777,104.21,71.763
	V368.227z"/>
<path d="M426.653,135.906c-3.936-1.286-8.172,0.861-9.459,4.799s0.861,8.172,4.799,9.459C468.96,165.517,497,187.102,497,207.904
	c0,19.736-24.484,39.806-67.175,55.063c-3.901,1.395-5.933,5.687-4.539,9.587c1.096,3.066,3.983,4.978,7.063,4.978
	c0.838,0,1.69-0.141,2.524-0.439c28.205-10.08,49.214-22.347,62.127-35.973v70.995c0,17.63-19.307,35.41-54.364,50.064
	c-9.319,3.896-19.925,1.83-27.018-5.262l-30.752-30.753c-9.175-9.175-24.105-9.174-33.28,0l-55.505,55.506l-23.441-23.441
	c-4.444-4.444-10.354-6.893-16.64-6.893s-12.195,2.448-16.64,6.893l-63.521,63.522l-87.57-87.57
	c-4.444-4.445-10.354-6.893-16.64-6.893c-6.285,0-12.195,2.447-16.64,6.893l-8.438,8.438c-3.02,3.019-7.903,3.311-11.362,0.678
	C21.793,333.097,15,322.606,15,312.114v-70.993c13.01,13.729,34.24,26.076,62.776,36.202
	c47.72,16.933,111.015,26.258,178.224,26.258c52.738,0,103.271-5.743,146.134-16.609c4.015-1.018,6.445-5.098,5.427-9.113
	s-5.099-6.445-9.113-5.427c-41.677,10.564-90.935,16.149-142.449,16.149c-65.544,0-127.057-9.019-173.208-25.395
	C39.709,247.899,15,227.75,15,207.904c0-24.393,37.762-49.118,98.55-64.528c4.015-1.018,6.445-5.098,5.427-9.113
	s-5.099-6.446-9.113-5.427C40.044,146.535,0,175.355,0,207.904v160.322c0,26.969,27.621,51.623,77.776,69.419
	c47.72,16.933,111.015,26.258,178.224,26.258s130.504-9.325,178.224-26.258C484.379,419.849,512,395.195,512,368.227V207.904
	C512,179.466,481.69,153.897,426.653,135.906z M15,368.227v-22.841c3.198,3.355,6.894,6.64,11.104,9.845
	c9.403,7.157,22.753,6.294,31.054-2.007l8.438-8.438c1.612-1.611,3.754-2.499,6.033-2.499s4.421,0.887,6.033,2.499l87.57,87.57
	l-9.081,9.081c-27.023-4.268-51.86-10.298-73.36-17.927C39.709,408.222,15,388.072,15,368.227z M497,368.227
	c0,19.846-24.709,39.995-67.792,55.283C383.057,439.886,321.544,448.904,256,448.904c-1.976,0-3.948-0.009-5.917-0.025
	l20.488-20.488c2.929-2.929,2.929-7.678,0-10.606c-2.929-2.93-7.678-2.93-10.606,0l-30.612,30.612
	c-18.772-0.712-37.066-2.174-54.601-4.347l75.215-75.215c1.612-1.611,3.754-2.499,6.033-2.499c2.279,0,4.421,0.888,6.033,2.499
	l23.441,23.441l-3.214,3.214c-2.929,2.929-2.929,7.677,0,10.606c1.464,1.464,3.384,2.196,5.303,2.196s3.839-0.732,5.303-2.196
	l69.326-69.326c3.327-3.326,8.74-3.327,12.067,0l30.752,30.753c11.413,11.413,28.452,14.748,43.41,8.495
	c23.716-9.914,38.973-20.427,48.579-30.545L497,368.227L497,368.227z"/>
<path d="M252.243,239.453c24.993,0,45.326-20.333,45.326-45.326v-4.509c0-24.993-20.333-45.326-45.326-45.326
	c-11.651,0-22.288,4.422-30.326,11.673v-14.444c0-16.722,13.604-30.326,30.326-30.326c6.848,0,13.308,2.226,18.684,6.437
	c3.261,2.555,7.975,1.981,10.529-1.279c2.555-3.261,1.982-7.975-1.279-10.529c-8.041-6.299-17.7-9.629-27.934-9.629
	c-24.993,0-45.326,20.333-45.326,45.326v52.606C206.917,219.119,227.25,239.453,252.243,239.453z M252.243,159.291
	c16.722,0,30.326,13.604,30.326,30.326v4.509c0,16.722-13.604,30.326-30.326,30.326l0,0c-16.722,0-30.326-13.604-30.326-30.326
	v-4.509C221.917,172.896,235.521,159.291,252.243,159.291z"/>
<path d="M143.774,224.453c-10.353,0-19.859-4.757-26.082-13.052c-2.486-3.313-7.186-3.985-10.5-1.499
	c-3.313,2.486-3.984,7.188-1.499,10.5c9.083,12.107,22.963,19.051,38.082,19.051c26.236,0,47.581-21.345,47.581-47.581
	c0-18.134-10.197-33.931-25.157-41.958c5.639-5.702,9.125-13.537,9.125-22.171c0-17.396-14.152-31.549-31.548-31.549
	c-7.776,0-15.247,2.854-21.036,8.037c-3.086,2.763-3.348,7.504-0.585,10.59c2.764,3.087,7.505,3.348,10.59,0.585
	c3.034-2.716,6.952-4.212,11.031-4.212c9.125,0,16.548,7.424,16.548,16.549s-7.423,16.548-16.548,16.548l0,0
	c-4.142,0-7.5,3.358-7.5,7.5c0,4.143,3.358,7.5,7.5,7.5l0,0c17.965,0,32.581,14.616,32.581,32.581S161.739,224.453,143.774,224.453z
	"/>
<path d="M356.202,239.453c24.026,0,43.573-19.546,43.573-43.573v-56.113c0-24.026-19.547-43.573-43.573-43.573
	s-43.573,19.547-43.573,43.573v56.113C312.629,219.906,332.176,239.453,356.202,239.453z M327.629,139.767
	c0-15.755,12.818-28.573,28.573-28.573s28.573,12.818,28.573,28.573v56.113c0,15.755-12.818,28.573-28.573,28.573
	s-28.573-12.818-28.573-28.573V139.767z"/>
<path d="M420.331,103.179c15.186,0,27.541-12.354,27.541-27.541s-12.354-27.541-27.541-27.541c-15.186,0-27.54,12.354-27.54,27.541
	S405.145,103.179,420.331,103.179z M420.331,63.098c6.915,0,12.541,5.626,12.541,12.541c0,6.915-5.625,12.541-12.541,12.541
	c-6.915,0-12.54-5.626-12.54-12.541C407.791,68.724,413.416,63.098,420.331,63.098z"/>
<path d="M148.298,348.187c0,15.186,12.354,27.54,27.541,27.54c15.186,0,27.54-12.354,27.54-27.54s-12.354-27.54-27.54-27.54
	C160.653,320.647,148.298,333.001,148.298,348.187z M188.379,348.187c0,6.915-5.625,12.54-12.54,12.54s-12.541-5.625-12.541-12.54
	s5.625-12.54,12.541-12.54C182.753,335.647,188.379,341.272,188.379,348.187z"/>
<g>
</g>
<g>
</g>
<g>
</g>
<g>
</g>
<g>
</g>
<g>
</g>
<g>
</g>
<g>
</g>
<g>
</g>
<g>
</g>
<g>
</g>
<g>
</g>
<g>
</g>
<g>
</g>
<g>
</g>
</svg>
