<?xml version="1.0" encoding="iso-8859-1"?>
<!-- Generator: Adobe Illustrator 19.0.0, SVG Export Plug-In . SVG Version: 6.00 Build 0)  -->
<svg version="1.1" id="Layer_1" xmlns="http://www.w3.org/2000/svg" xmlns:xlink="http://www.w3.org/1999/xlink" x="0px" y="0px"
	 viewBox="0 0 512 512" style="enable-background:new 0 0 512 512;" xml:space="preserve">
<circle style="fill:#F2F2F2;" cx="256" cy="256" r="256"/>
<path style="fill:#FFFFFF;" d="M385.15,256.007c0,35.668-14.478,67.961-37.858,91.318l38.007,38.014
	c33.115-33.105,53.562-78.828,53.562-129.328h-53.71V256.007z"/>
<path style="fill:#353F49;" d="M255.993,126.87c71.297,0,129.156,57.813,129.156,129.123c0,0.013,0,0.013,0,0.013h53.71
	c0-100.973-81.877-182.857-182.883-182.857v53.724h0.017V126.87z"/>
<path style="fill:#FFDB79;" d="M255.954,126.87V73.137c-24.754,0-48.386,4.948-69.903,13.963l20.543,49.611
	C221.818,130.398,238.44,126.884,255.954,126.87z"/>
<path style="fill:#F77B55;" d="M347.232,347.361c-23.36,23.344-55.607,37.782-91.238,37.782c-71.31,0-129.15-57.823-129.15-129.153
	c0-53.79,32.936-99.88,79.75-119.286l-20.543-49.611C119.755,114.48,73.14,179.854,73.14,256.026
	c0,100.923,81.91,182.837,182.814,182.837c50.516,0,96.259-20.421,129.341-53.463L347.232,347.361z"/>
<g>
	<path style="fill:#353F49;" d="M256,353.69c-53.872,0-97.69-43.824-97.69-97.69s43.821-97.686,97.69-97.686
		c53.866,0,97.69,43.824,97.69,97.686C353.69,309.869,309.866,353.69,256,353.69z M256,167.936
		c-48.561,0-88.071,39.503-88.071,88.064c0,48.557,39.51,88.067,88.071,88.067s88.064-39.51,88.064-88.067
		C344.064,207.439,304.561,167.936,256,167.936z"/>
	<path style="fill:#353F49;" d="M256,353.69c-28.741,0-51.253-42.912-51.253-97.69c0-54.781,22.508-97.686,51.253-97.686v9.622
		c-22.568,0-41.627,40.329-41.627,88.064s19.06,88.067,41.627,88.067V353.69z"/>
	<path style="fill:#353F49;" d="M256,353.69v-9.622c22.561,0,41.627-40.332,41.627-88.067S278.561,167.936,256,167.936v-9.622
		c28.741,0,51.253,42.906,51.253,97.686C307.253,310.777,284.741,353.69,256,353.69z"/>
	<rect x="251.177" y="163.113" style="fill:#353F49;" width="9.626" height="185.74"/>
	<rect x="163.113" y="251.177" style="fill:#353F49;" width="185.773" height="9.622"/>
	<path style="fill:#353F49;" d="M256,214.373c-25.247,0-50.143-3.97-73.986-11.799l2.993-9.147
		c45.786,15.033,96.259,15.02,141.999,0l2.999,9.147C306.163,210.402,281.256,214.373,256,214.373z"/>
	<path style="fill:#353F49;" d="M185.014,318.593l-3.006-9.15c47.715-15.69,100.329-15.677,148.001,0l-3.006,9.15
		C281.27,303.55,230.78,303.537,185.014,318.593z"/>
</g>
<circle style="fill:#CCCBCA;" cx="145.903" cy="63.594" r="7.7"/>
<g>
	<circle style="fill:#353F49;" cx="11.548" cy="122.219" r="11.548"/>
	<circle style="fill:#353F49;" cx="66.131" cy="350.869" r="5.774"/>
</g>
<circle style="fill:#CCCBCA;" cx="477.646" cy="244.67" r="12.965"/>
<g>
	<path style="fill:#353F49;" d="M234.347,17.322c0,9.566-7.772,17.325-17.325,17.325c-9.563,0-17.322-7.759-17.322-17.325
		C199.7,7.763,207.462,0,217.022,0C226.578,0,234.347,7.763,234.347,17.322z"/>
	<circle style="fill:#353F49;" cx="485.64" cy="374.255" r="26.347"/>
</g>
<circle style="fill:#CCCBCA;" cx="56.518" cy="458.19" r="23.099"/>
<g>
</g>
<g>
</g>
<g>
</g>
<g>
</g>
<g>
</g>
<g>
</g>
<g>
</g>
<g>
</g>
<g>
</g>
<g>
</g>
<g>
</g>
<g>
</g>
<g>
</g>
<g>
</g>
<g>
</g>
</svg>
