<?xml version="1.0" encoding="iso-8859-1"?>
<!-- Generator: Adobe Illustrator 19.0.0, SVG Export Plug-In . SVG Version: 6.00 Build 0)  -->
<svg version="1.1" id="Layer_1" xmlns="http://www.w3.org/2000/svg" xmlns:xlink="http://www.w3.org/1999/xlink" x="0px" y="0px"
	 viewBox="0 0 512.01 512.01" style="enable-background:new 0 0 512.01 512.01;" xml:space="preserve">
<g>
	<rect x="251.674" y="17.366" style="fill:#474F59;" width="8.673" height="57.848"/>
	<rect x="251.674" y="0.009" style="fill:#474F59;" width="8.673" height="8.676"/>
	
		<rect x="78.774" y="103.373" transform="matrix(-0.7071 -0.7071 0.7071 -0.7071 107.6937 260.0266)" style="fill:#474F59;" width="57.853" height="8.673"/>
	
		<rect x="73.711" y="73.713" transform="matrix(-0.7071 -0.7071 0.7071 -0.7071 78.0505 188.4371)" style="fill:#474F59;" width="8.681" height="8.681"/>
	<rect x="17.354" y="251.649" style="fill:#474F59;" width="57.864" height="8.681"/>
	<rect y="251.649" style="fill:#474F59;" width="8.681" height="8.681"/>
	
		<rect x="103.343" y="375.389" transform="matrix(-0.707 -0.7073 0.7073 -0.707 -102.1523 766.3116)" style="fill:#474F59;" width="8.674" height="57.86"/>
	
		<rect x="73.716" y="429.583" transform="matrix(-0.7065 -0.7077 0.7077 -0.7065 -173.8917 795.7325)" style="fill:#474F59;" width="8.676" height="8.681"/>
	<rect x="251.674" y="436.788" style="fill:#474F59;" width="8.673" height="57.861"/>
	<rect x="251.674" y="503.323" style="fill:#474F59;" width="8.673" height="8.678"/>
	
		<rect x="375.393" y="399.949" transform="matrix(-0.7071 -0.7071 0.7071 -0.7071 404.3478 976.0524)" style="fill:#474F59;" width="57.855" height="8.668"/>
	
		<rect x="429.585" y="429.654" transform="matrix(-0.707 -0.7073 0.7073 -0.707 433.746 1047.7069)" style="fill:#474F59;" width="8.682" height="8.682"/>
	<rect x="436.787" y="251.649" style="fill:#474F59;" width="57.866" height="8.681"/>
	<rect x="503.322" y="251.675" style="fill:#474F59;" width="8.689" height="8.676"/>
	
		<rect x="399.954" y="78.785" transform="matrix(-0.7062 -0.708 0.708 -0.7062 613.5441 470.0204)" style="fill:#474F59;" width="8.676" height="57.855"/>
	
		<rect x="429.596" y="73.73" transform="matrix(-0.707 -0.7072 0.7072 -0.707 685.5142 440.1465)" style="fill:#474F59;" width="8.673" height="8.681"/>
	
		<rect x="203.438" y="60.171" transform="matrix(-0.195 -0.9808 0.9808 -0.195 197.12 290.8002)" style="fill:#474F59;" width="28.92" height="8.671"/>
	
		<rect x="133.052" y="89.316" transform="matrix(-0.5555 -0.8315 0.8315 -0.5555 151.5854 268.3415)" style="fill:#474F59;" width="28.925" height="8.678"/>
	
		<rect x="79.206" y="143.178" transform="matrix(-0.8314 -0.5556 0.5556 -0.8314 89.582 322.215)" style="fill:#474F59;" width="28.924" height="8.681"/>
	
		<rect x="50.038" y="213.572" transform="matrix(-0.9807 -0.1953 0.1953 -0.9807 85.2036 444.2218)" style="fill:#474F59;" width="28.929" height="8.675"/>
	
		<rect x="60.165" y="279.62" transform="matrix(-0.1949 -0.9808 0.9808 -0.1949 -211.3686 414.6676)" style="fill:#474F59;" width="8.676" height="28.927"/>
	
		<rect x="89.312" y="350.005" transform="matrix(-0.5552 -0.8317 0.8317 -0.5552 -157.4882 644.7153)" style="fill:#474F59;" width="8.676" height="28.928"/>
	
		<rect x="143.211" y="403.88" transform="matrix(-0.832 -0.5548 0.5548 -0.832 38.2154 848.261)" style="fill:#474F59;" width="8.679" height="28.928"/>
	
		<rect x="213.543" y="433.034" transform="matrix(-0.9808 -0.1951 0.1951 -0.9808 344.2692 928.9085)" style="fill:#474F59;" width="8.676" height="28.931"/>
	
		<rect x="279.609" y="443.158" transform="matrix(-0.195 -0.9808 0.9808 -0.195 -87.4839 823.1893)" style="fill:#474F59;" width="28.936" height="8.676"/>
	
		<rect x="349.979" y="414.022" transform="matrix(-0.5556 -0.8315 0.8315 -0.5556 219.0662 953.817)" style="fill:#474F59;" width="28.929" height="8.681"/>
	
		<rect x="403.869" y="360.155" transform="matrix(-0.8315 -0.5556 0.5556 -0.8315 563.6564 899.9766)" style="fill:#474F59;" width="28.927" height="8.681"/>
	
		<rect x="433.005" y="289.753" transform="matrix(-0.9807 -0.1953 0.1953 -0.9807 828.8845 669.9103)" style="fill:#474F59;" width="28.929" height="8.673"/>
	
		<rect x="443.149" y="203.417" transform="matrix(-0.1949 -0.9808 0.9808 -0.1949 321.0043 699.2581)" style="fill:#474F59;" width="8.683" height="28.932"/>
	
		<rect x="413.992" y="133.047" transform="matrix(-0.555 -0.8318 0.8318 -0.555 527.8062 577.3672)" style="fill:#474F59;" width="8.675" height="28.932"/>
	
		<rect x="360.131" y="79.201" transform="matrix(-0.8315 -0.5555 0.5555 -0.8315 615.4951 374.0198)" style="fill:#474F59;" width="8.676" height="28.935"/>
	
		<rect x="289.762" y="50.035" transform="matrix(-0.9808 -0.1949 0.1949 -0.9808 569.9874 185.0862)" style="fill:#474F59;" width="8.676" height="28.932"/>
	
		<rect x="329.152" y="47.241" transform="matrix(-0.9237 -0.3832 0.3832 -0.9237 615.1158 260.3958)" style="fill:#474F59;" width="8.681" height="43.386"/>
	
		<rect x="156.827" y="64.606" transform="matrix(-0.3827 -0.9239 0.9239 -0.3827 183.1449 260.2637)" style="fill:#474F59;" width="43.393" height="8.679"/>
	
		<rect x="47.241" y="174.181" transform="matrix(-0.9239 -0.3826 0.3826 -0.9239 64.3263 369.831)" style="fill:#474F59;" width="43.391" height="8.676"/>
	
		<rect x="64.582" y="311.79" transform="matrix(-0.3827 -0.9239 0.9239 -0.3827 -212.8071 524.7834)" style="fill:#474F59;" width="8.676" height="43.396"/>
	
		<rect x="174.17" y="421.37" transform="matrix(-0.9241 -0.3821 0.3821 -0.9241 174.1717 920.7205)" style="fill:#474F59;" width="8.676" height="43.391"/>
	
		<rect x="311.81" y="438.733" transform="matrix(-0.3826 -0.9239 0.9239 -0.3826 51.7486 920.7227)" style="fill:#474F59;" width="43.391" height="8.676"/>
	
		<rect x="421.401" y="329.13" transform="matrix(-0.9239 -0.3826 0.3826 -0.9239 724.8966 811.0963)" style="fill:#474F59;" width="43.397" height="8.678"/>
	
		<rect x="438.744" y="156.799" transform="matrix(-0.3826 -0.9239 0.9239 -0.3826 447.6934 656.1611)" style="fill:#474F59;" width="8.678" height="43.397"/>
</g>
<path style="fill:#F2F2F2;" d="M256,164.85c-67.482,0-126.356,36.682-157.865,91.156c31.508,54.472,90.383,91.151,157.865,91.151
	c67.479,0,126.349-36.68,157.865-91.154C382.349,201.532,323.479,164.85,256,164.85z"/>
<path style="fill:#CCCBCA;" d="M306.883,256.004c0,14.057-5.706,26.778-14.909,35.976l14.966,14.971
	c13.056-13.038,21.107-31.048,21.107-50.947H306.883z"/>
<path style="fill:#353F49;" d="M255.997,205.137c28.093,0,50.885,22.771,50.885,50.865c0,0.003,0,0.003,0,0.003h21.164
	c0-39.782-32.264-72.031-72.054-72.031v21.164H255.997z"/>
<path style="fill:#ADECF7;" d="M255.987,205.137v-21.174c-9.751,0-19.067,1.943-27.546,5.494l8.095,19.548
	C242.532,206.522,249.088,205.137,255.987,205.137z"/>
<path style="fill:#76D0DE;" d="M291.953,291.992c-9.206,9.203-21.914,14.884-35.955,14.884c-28.086,0-50.877-22.776-50.877-50.875
	c0-21.192,12.972-39.347,31.416-46.994l-8.095-19.548c-26.12,10.793-44.48,36.541-44.48,66.555
	c0,39.759,32.269,72.026,72.023,72.026c19.884,0,37.916-8.041,50.952-21.059L291.953,291.992z"/>
<g>
	<path style="fill:#353F49;" d="M261.361,260.207h-10.721c-4.472,0-8.701-1.751-11.832-4.943c-3.151-3.082-4.913-7.293-4.913-11.804
		c0-4.5,1.761-8.694,4.913-11.871c3.103-3.116,7.324-4.864,11.832-4.864h23.24v8.451h-23.24c-2.237,0-4.347,0.855-5.842,2.373
		c-1.615,1.595-2.468,3.674-2.468,5.914c0,2.227,0.852,4.296,2.429,5.839c1.61,1.613,3.645,2.473,5.88,2.473h10.721V260.207z"/>
	<path style="fill:#353F49;" d="M261.361,285.254h-23.235v-8.425h23.235c2.23,0,4.283-0.878,5.901-2.45
		c1.503-1.516,2.424-3.61,2.424-5.86c0-2.24-0.845-4.306-2.404-5.829c-1.638-1.613-3.689-2.483-5.921-2.483h-10.721v-8.433h10.721
		c4.48,0,8.709,1.759,11.868,4.92c3.126,3.082,4.887,7.319,4.887,11.825c0,4.488-1.756,8.719-4.887,11.85
		C270.008,283.503,265.795,285.254,261.361,285.254z"/>
	<rect x="251.802" y="223.822" style="fill:#353F49;" width="8.435" height="64.384"/>
</g>
<g>
</g>
<g>
</g>
<g>
</g>
<g>
</g>
<g>
</g>
<g>
</g>
<g>
</g>
<g>
</g>
<g>
</g>
<g>
</g>
<g>
</g>
<g>
</g>
<g>
</g>
<g>
</g>
<g>
</g>
</svg>
