<?xml version="1.0" encoding="iso-8859-1"?>
<!-- Generator: Adobe Illustrator 19.0.0, SVG Export Plug-In . SVG Version: 6.00 Build 0)  -->
<svg version="1.1" id="Layer_1" xmlns="http://www.w3.org/2000/svg" xmlns:xlink="http://www.w3.org/1999/xlink" x="0px" y="0px"
	 viewBox="0 0 512 512" style="enable-background:new 0 0 512 512;" xml:space="preserve">
<circle style="fill:#F2F2F2;" cx="256" cy="256" r="256"/>
<g>
	<circle style="fill:#F77B55;" cx="256" cy="256" r="33.713"/>
	<path style="fill:#F77B55;" d="M256.003,462.782V408.84c84.265,0,152.83-68.545,152.83-152.824h53.935
		C462.769,370.017,370.017,462.782,256.003,462.782z"/>
</g>
<path style="fill:#ADECF7;" d="M364.058,147.902c-28.85-28.831-67.227-44.716-108.055-44.716V49.238
	c55.24,0,107.157,21.501,146.194,60.538L364.058,147.902z"/>
<path style="fill:#353F49;" d="M255.99,462.759v-53.945c-42.133,0-80.331-17.131-108.002-44.808l-38.123,38.129
	C147.311,439.577,198.993,462.759,255.99,462.759z"/>
<path style="fill:#76D0DE;" d="M109.872,402.131l38.116-38.129c-27.678-27.661-44.818-65.876-44.818-108.009
	c0-84.275,68.562-152.817,152.824-152.817V49.225c-114.004,0-206.746,92.748-206.759,206.769
	C49.238,312.994,72.433,364.683,109.872,402.131z"/>
<path style="fill:#CCCBCA;" d="M256,363.88c-59.491,0-107.877-48.399-107.877-107.88S196.509,148.127,256,148.127
	c59.484,0,107.877,48.392,107.877,107.873S315.484,363.88,256,363.88z M256,184.085c-39.652,0-71.915,32.263-71.915,71.915
	s32.263,71.921,71.915,71.921s71.915-32.266,71.915-71.921S295.652,184.085,256,184.085z"/>
<polygon style="fill:#F77B55;" points="464.354,12.959 418.846,58.454 418.846,93.154 453.563,93.161 499.061,47.669 
	464.344,47.662 "/>
<path style="fill:#353F49;" d="M478.433,27.037L252.74,252.727c-1.807,1.81-1.81,4.73,0,6.537c1.8,1.813,4.727,1.813,6.537-0.003
	L484.963,33.564L478.433,27.037z"/>
<g>
</g>
<g>
</g>
<g>
</g>
<g>
</g>
<g>
</g>
<g>
</g>
<g>
</g>
<g>
</g>
<g>
</g>
<g>
</g>
<g>
</g>
<g>
</g>
<g>
</g>
<g>
</g>
<g>
</g>
</svg>
