<?xml version="1.0" encoding="iso-8859-1"?>
<!-- Generator: Adobe Illustrator 19.0.0, SVG Export Plug-In . SVG Version: 6.00 Build 0)  -->
<svg version="1.1" id="Layer_1" xmlns="http://www.w3.org/2000/svg" xmlns:xlink="http://www.w3.org/1999/xlink" x="0px" y="0px"
	 viewBox="0 0 512 512" style="enable-background:new 0 0 512 512;" xml:space="preserve">
<path style="fill:#E6E5E5;" d="M385.147,271.361c0,35.668-14.477,67.96-37.857,91.315l38.008,38.016
	c33.116-33.108,53.56-78.83,53.56-129.331H385.147z"/>
<path style="fill:#353F49;" d="M255.995,142.225c71.296,0,129.155,57.812,129.155,129.124c0,0.013,0,0.013,0,0.013h53.709
	c0-100.974-81.876-182.858-182.884-182.858v53.722L255.995,142.225L255.995,142.225z"/>
<path style="fill:#FFDB79;" d="M255.954,142.225V88.49c-24.755,0-48.387,4.948-69.903,13.962l20.541,49.61
	C221.819,145.752,238.438,142.24,255.954,142.225z"/>
<path style="fill:#F77B55;" d="M347.233,362.717c-23.363,23.345-55.608,37.783-91.238,37.783
	c-71.309,0-129.149-57.823-129.149-129.149c0-53.791,32.937-99.881,79.749-119.288l-20.541-49.61
	c-66.296,27.387-112.909,92.762-112.909,168.932c0,100.923,81.91,182.835,182.812,182.835c50.514,0,96.259-20.421,129.341-53.46
	L347.233,362.717z"/>
<g>
	<path style="fill:#353F49;" d="M256,369.043c-53.87,0-97.69-43.822-97.69-97.69c0-53.865,43.82-97.687,97.69-97.687
		c53.865,0,97.69,43.822,97.69,97.687C353.69,325.221,309.865,369.043,256,369.043z M256,183.29
		c-48.561,0-88.072,39.503-88.072,88.064S207.439,359.42,256,359.42c48.563,0,88.064-39.508,88.064-88.067
		S304.563,183.29,256,183.29z"/>
	<path style="fill:#353F49;" d="M256,369.043c-28.744,0-51.251-42.913-51.251-97.69c0-54.779,22.508-97.687,51.251-97.687v9.623
		c-22.566,0-41.626,40.328-41.626,88.064S233.434,359.42,256,359.42V369.043z"/>
	<path style="fill:#353F49;" d="M256,369.043v-9.623c22.561,0,41.626-40.33,41.626-88.067c0-47.734-19.062-88.064-41.626-88.064
		v-9.623c28.744,0,51.254,42.906,51.254,97.687C307.254,326.132,284.744,369.043,256,369.043z"/>
	<rect x="251.187" y="178.49" style="fill:#353F49;" width="9.626" height="185.754"/>
	<rect x="163.116" y="266.528" style="fill:#353F49;" width="185.754" height="9.623"/>
	<path style="fill:#353F49;" d="M256,229.728c-25.244,0-50.143-3.971-73.987-11.799l2.993-9.144
		c45.788,15.032,96.259,15.02,142.001,0l3,9.144C306.163,225.757,281.257,229.728,256,229.728z"/>
	<path style="fill:#353F49;" d="M185.014,333.948l-3.005-9.149c47.716-15.69,100.329-15.677,148.001,0l-3.008,9.149
		C281.27,318.903,230.781,318.89,185.014,333.948z"/>
</g>
<path style="fill:#CCCBCA;" d="M153.595,78.949c0,4.247-3.448,7.695-7.698,7.695c-4.255,0-7.703-3.448-7.703-7.695
	c0-4.26,3.448-7.698,7.703-7.698C150.144,71.251,153.595,74.689,153.595,78.949z"/>
<g>
	<circle style="fill:#353F49;" cx="11.548" cy="137.573" r="11.548"/>
	<circle style="fill:#353F49;" cx="66.143" cy="366.24" r="5.775"/>
</g>
<path style="fill:#CCCBCA;" d="M490.621,260.038c0,7.16-5.803,12.969-12.961,12.969c-7.171,0-12.972-5.811-12.972-12.969
	c0-7.16,5.803-12.966,12.972-12.966C484.82,247.072,490.621,252.878,490.621,260.038z"/>
<g>
	<path style="fill:#353F49;" d="M234.348,32.677c0,9.567-7.772,17.326-17.326,17.326c-9.562,0-17.324-7.757-17.324-17.326
		c0-9.562,7.762-17.324,17.324-17.324C226.578,15.356,234.348,23.116,234.348,32.677z"/>
	<path style="fill:#353F49;" d="M512,389.608c0,14.543-11.807,26.34-26.348,26.34c-14.556,0-26.345-11.796-26.345-26.34
		c0-14.546,11.789-26.34,26.345-26.34C500.193,363.268,512,375.064,512,389.608z"/>
</g>
<circle style="fill:#CCCBCA;" cx="56.525" cy="473.555" r="23.091"/>
<g>
</g>
<g>
</g>
<g>
</g>
<g>
</g>
<g>
</g>
<g>
</g>
<g>
</g>
<g>
</g>
<g>
</g>
<g>
</g>
<g>
</g>
<g>
</g>
<g>
</g>
<g>
</g>
<g>
</g>
</svg>
