<?xml version="1.0" encoding="iso-8859-1"?>
<!-- Generator: Adobe Illustrator 19.0.0, SVG Export Plug-In . SVG Version: 6.00 Build 0)  -->
<svg version="1.1" id="Layer_1" xmlns="http://www.w3.org/2000/svg" xmlns:xlink="http://www.w3.org/1999/xlink" x="0px" y="0px"
	 viewBox="0 0 512 512" style="enable-background:new 0 0 512 512;" xml:space="preserve">
<g>
	<path style="fill:#F77B55;" d="M273.72,276.64c0,21.192-17.185,38.369-38.374,38.369c-21.197,0-38.372-17.17-38.372-38.369
		c0-21.192,17.175-38.359,38.369-38.359S273.72,255.433,273.72,276.64z"/>
	<path style="fill:#F77B55;" d="M235.351,511.999v-61.396c95.91,0,173.952-78.024,173.952-173.947h61.389
		C470.692,406.412,365.12,511.999,235.351,511.999z"/>
</g>
<path style="fill:#ADECF7;" d="M358.341,153.601c-32.84-32.817-76.518-50.895-122.99-50.895V41.302
	c62.874,0,121.969,24.468,166.4,68.902L358.341,153.601z"/>
<path style="fill:#353F49;" d="M235.336,511.971v-61.396c-47.954,0-91.436-19.497-122.931-51.008l-43.392,43.405
	C111.634,485.587,170.46,511.971,235.336,511.971z"/>
<path style="fill:#76D0DE;" d="M69.02,442.966l43.384-43.4c-31.503-31.48-51.013-74.982-51.013-122.934
	c0-95.926,78.036-173.939,173.944-173.939V41.286C105.577,41.286,0.015,146.853,0,276.632
	C0.008,341.51,26.406,400.344,69.02,442.966z"/>
<path style="fill:#CCCBCA;" d="M235.346,399.425c-67.712,0-122.788-55.091-122.788-122.788c0-67.704,55.076-122.785,122.788-122.785
	c67.707,0,122.785,55.084,122.785,122.785C358.134,344.337,303.053,399.425,235.346,399.425z M235.346,194.784
	c-45.13,0-81.856,36.716-81.856,81.856c0,45.133,36.723,81.866,81.856,81.866s81.856-36.733,81.856-81.866
	C317.202,231.5,280.479,194.784,235.346,194.784z"/>
<polygon style="fill:#F77B55;" points="472.497,0.001 420.698,51.788 420.698,91.288 460.214,91.296 512,39.51 472.486,39.502 "/>
<path style="fill:#353F49;" d="M488.52,16.027L231.634,272.908c-2.056,2.066-2.061,5.384,0,7.447
	c2.048,2.063,5.379,2.063,7.437-0.008L495.951,23.459L488.52,16.027z"/>
<g>
</g>
<g>
</g>
<g>
</g>
<g>
</g>
<g>
</g>
<g>
</g>
<g>
</g>
<g>
</g>
<g>
</g>
<g>
</g>
<g>
</g>
<g>
</g>
<g>
</g>
<g>
</g>
<g>
</g>
</svg>
