<?xml version="1.0" encoding="iso-8859-1"?>
<!-- Generator: Adobe Illustrator 19.0.0, SVG Export Plug-In . SVG Version: 6.00 Build 0)  -->
<svg version="1.1" id="Layer_1" xmlns="http://www.w3.org/2000/svg" xmlns:xlink="http://www.w3.org/1999/xlink" x="0px" y="0px"
	 viewBox="0 0 512 512" style="enable-background:new 0 0 512 512;" xml:space="preserve">
<path style="fill:#353F49;" d="M472.891,82.048c0-5.194-4.25-9.441-9.459-9.441H9.454C4.25,72.607,0,76.851,0,82.048v312.11
	c0,5.197,4.25,9.472,9.454,9.472h453.975c5.21,0,9.459-4.275,9.459-9.472V82.048H472.891z"/>
<rect x="13.235" y="85.832" style="fill:#474F59;" width="446.413" height="304.538"/>
<g>
	<rect x="58.639" y="63.127" style="fill:#353F49;" width="66.214" height="9.48"/>
	<rect x="348.032" y="63.127" style="fill:#353F49;" width="66.204" height="9.48"/>
	<polygon style="fill:#353F49;" points="312.11,72.607 293.194,72.607 293.194,44.206 179.686,44.206 179.686,72.607 
		160.778,72.607 160.778,25.293 312.11,25.293 	"/>
</g>
<circle style="fill:#FFFFFF;" cx="236.442" cy="238.1" r="90.419"/>
<g>
	<polygon style="fill:#353F49;" points="241.324,173.816 231.562,173.816 228.716,188.012 244.16,188.012 	"/>
	<polygon style="fill:#353F49;" points="208.515,179.973 200.072,184.863 204.685,198.6 218.081,190.879 	"/>
	<polygon style="fill:#353F49;" points="183.199,201.728 178.309,210.181 189.202,219.722 196.941,206.387 	"/>
	<polygon style="fill:#353F49;" points="172.15,233.234 172.15,242.995 186.34,245.832 186.34,230.367 	"/>
	<polygon style="fill:#353F49;" points="178.309,266.043 183.199,274.47 196.941,269.834 189.202,256.461 	"/>
	<polygon style="fill:#353F49;" points="200.072,291.333 208.515,296.228 218.081,285.361 204.723,277.627 	"/>
	<polygon style="fill:#353F49;" points="231.562,302.385 241.324,302.385 244.16,288.218 228.726,288.218 	"/>
	<polygon style="fill:#353F49;" points="264.369,296.228 272.799,291.333 268.16,277.627 254.789,285.361 	"/>
	<polygon style="fill:#353F49;" points="289.687,274.47 294.569,266.043 283.681,256.461 275.945,269.834 	"/>
	<polygon style="fill:#353F49;" points="300.731,242.995 300.731,233.234 286.548,230.367 286.548,245.832 	"/>
	<polygon style="fill:#353F49;" points="294.569,210.181 289.687,201.728 275.945,206.387 283.681,219.715 	"/>
	<polygon style="fill:#353F49;" points="272.799,184.863 264.369,179.996 254.789,190.879 268.16,198.6 	"/>
	<path style="fill:#353F49;" d="M236.436,187.428c-27.994,0-50.688,22.694-50.688,50.678c0,28.004,22.694,50.668,50.688,50.668
		c28.001,0,50.673-22.666,50.673-50.668C287.109,210.125,264.44,187.428,236.436,187.428z M236.436,252.142
		c-7.739,0-14.021-6.298-14.021-14.034c0-7.747,6.282-14.021,14.021-14.021c7.729,0,14.049,6.275,14.049,14.021
		C250.486,245.842,244.165,252.142,236.436,252.142z"/>
</g>
<path style="fill:#656A73;" d="M236.436,213.798c-13.437,0-24.312,10.865-24.312,24.31c0,13.437,10.875,24.32,24.312,24.32
	c13.44,0,24.34-10.88,24.34-24.32C260.777,224.66,249.879,213.798,236.436,213.798z M236.436,250.294
	c-6.71,0-12.173-5.466-12.173-12.188c0-6.712,5.466-12.163,12.173-12.163c6.715,0,12.17,5.45,12.17,12.163
	C248.607,244.828,243.151,250.294,236.436,250.294z"/>
<polygon style="fill:#F2F2F2;" points="153.513,486.697 111.368,473.866 153.513,461.043 "/>
<polygon style="fill:#CCCBCA;" points="111.368,473.866 153.513,486.697 153.513,478.628 "/>
<rect x="153.513" y="461.051" style="fill:#F77B55;" width="323.789" height="25.651"/>
<rect x="153.513" y="478.638" style="fill:#EE643C;" width="323.789" height="8.069"/>
<polygon style="fill:#474F59;" points="127.867,478.874 111.368,473.866 127.867,468.828 "/>
<polygon style="fill:#232E38;" points="127.867,478.874 111.368,473.866 127.867,475.738 "/>
<rect x="477.312" y="461.051" style="fill:#F2F2F2;" width="13.775" height="25.651"/>
<rect x="477.312" y="478.638" style="fill:#CCCBCA;" width="13.775" height="8.069"/>
<path style="fill:#474F59;" d="M499.162,486.697c3.31,0,6.587-1.275,9.103-3.745c2.47-2.516,3.735-5.788,3.735-9.085l0,0
	c0-3.292-1.265-6.559-3.735-9.07c-2.514-2.488-5.793-3.756-9.103-3.756h-8.074v25.654h8.074V486.697z"/>
<path style="fill:#232E38;" d="M491.087,478.628c3.29,0,6.592-1.267,9.101-3.755c2.465-2.506,3.722-5.788,3.722-9.073
	c0-1.375-0.223-2.721-0.681-4.045c1.818,0.614,3.54,1.595,5.035,3.041c2.47,2.511,3.735,5.778,3.735,9.07
	c0,3.297-1.265,6.566-3.735,9.085c-2.514,2.47-5.793,3.745-9.103,3.745h-8.074L491.087,478.628L491.087,478.628z"/>
<g>
</g>
<g>
</g>
<g>
</g>
<g>
</g>
<g>
</g>
<g>
</g>
<g>
</g>
<g>
</g>
<g>
</g>
<g>
</g>
<g>
</g>
<g>
</g>
<g>
</g>
<g>
</g>
<g>
</g>
</svg>
