<?xml version="1.0" encoding="iso-8859-1"?>
<!-- Generator: Adobe Illustrator 19.0.0, SVG Export Plug-In . SVG Version: 6.00 Build 0)  -->
<svg version="1.1" id="Layer_1" xmlns="http://www.w3.org/2000/svg" xmlns:xlink="http://www.w3.org/1999/xlink" x="0px" y="0px"
	 viewBox="0 0 512.003 512.003" style="enable-background:new 0 0 512.003 512.003;" xml:space="preserve">
<circle style="fill:#F2F2F2;" cx="256" cy="256.002" r="256"/>
<path style="fill:#353F49;" d="M475.665,82.731c0-4.826-3.947-8.77-8.787-8.77H45.119c-4.836,0-8.783,3.944-8.783,8.77v289.96
	c0,4.829,3.947,8.8,8.783,8.8h421.759c4.839,0,8.787-3.97,8.787-8.8V82.731z"/>
<rect x="48.633" y="86.249" style="fill:#474F59;" width="414.72" height="282.921"/>
<g>
	<rect x="90.812" y="65.154" style="fill:#353F49;" width="61.516" height="8.806"/>
	<rect x="359.688" y="65.154" style="fill:#353F49;" width="61.506" height="8.806"/>
	<polygon style="fill:#353F49;" points="326.296,73.961 308.723,73.961 308.723,47.575 203.271,47.575 203.271,73.961 
		185.704,73.961 185.704,30.005 326.296,30.005 	"/>
</g>
<circle style="fill:#FFFFFF;" cx="256" cy="227.716" r="84.004"/>
<g>
	<polygon style="fill:#353F49;" points="260.532,167.987 251.465,167.987 248.819,181.177 263.168,181.177 	"/>
	<polygon style="fill:#353F49;" points="230.053,173.708 222.211,178.25 226.492,191.011 238.939,183.839 	"/>
	<polygon style="fill:#353F49;" points="206.531,193.918 201.989,201.773 212.11,210.635 219.301,198.248 	"/>
	<polygon style="fill:#353F49;" points="196.268,223.187 196.268,232.258 209.451,234.891 209.451,220.525 	"/>
	<polygon style="fill:#353F49;" points="201.989,253.67 206.531,261.498 219.301,257.191 212.11,244.767 	"/>
	<polygon style="fill:#353F49;" points="222.211,277.162 230.053,281.711 238.939,271.616 226.529,264.431 	"/>
	<polygon style="fill:#353F49;" points="251.465,287.432 260.532,287.432 263.168,274.268 248.829,274.268 	"/>
	<polygon style="fill:#353F49;" points="281.944,281.711 289.775,277.162 285.465,264.431 273.041,271.616 	"/>
	<polygon style="fill:#353F49;" points="305.466,261.498 310.001,253.67 299.883,244.767 292.696,257.191 	"/>
	<polygon style="fill:#353F49;" points="315.722,232.258 315.722,223.187 302.549,220.525 302.549,234.891 	"/>
	<polygon style="fill:#353F49;" points="310.001,201.773 305.466,193.918 292.696,198.248 299.883,210.629 	"/>
	<polygon style="fill:#353F49;" points="289.775,178.25 281.944,173.728 273.041,183.839 285.465,191.011 	"/>
	<path style="fill:#353F49;" d="M255.993,180.635c-26.006,0-47.091,21.084-47.091,47.081c0,26.016,21.084,47.074,47.091,47.074
		c26.016,0,47.078-21.058,47.078-47.074C303.071,201.716,282.01,180.635,255.993,180.635z M255.993,240.754
		c-7.191,0-13.025-5.85-13.025-13.038c0-7.198,5.837-13.025,13.025-13.025c7.181,0,13.051,5.83,13.051,13.025
		C269.044,234.901,263.175,240.754,255.993,240.754z"/>
</g>
<path style="fill:#656A73;" d="M255.993,205.132c-12.483,0-22.587,10.095-22.587,22.584c0,12.483,10.105,22.594,22.587,22.594
	c12.486,0,22.614-10.111,22.614-22.594C278.607,215.223,268.48,205.132,255.993,205.132z M255.993,239.036
	c-6.233,0-11.31-5.077-11.31-11.323c0-6.236,5.077-11.3,11.31-11.3c6.24,0,11.307,5.064,11.307,11.3
	C267.3,233.959,262.233,239.036,255.993,239.036z"/>
<polygon style="fill:#FFFFFF;" points="178.956,458.664 139.799,446.743 178.956,434.832 "/>
<polygon style="fill:#CCCBCA;" points="139.799,446.743 178.956,458.664 178.956,451.166 "/>
<rect x="178.969" y="434.838" style="fill:#F77B55;" width="300.825" height="23.833"/>
<rect x="178.969" y="451.156" style="fill:#EE643C;" width="300.825" height="7.498"/>
<polygon style="fill:#474F59;" points="155.129,451.394 139.799,446.743 155.129,442.062 "/>
<polygon style="fill:#232E38;" points="155.129,451.394 139.799,446.743 155.129,448.484 "/>
<rect x="479.761" y="434.838" style="fill:#F2F2F2;" width="12.797" height="23.833"/>
<rect x="479.761" y="451.156" style="fill:#CCCBCA;" width="12.797" height="7.498"/>
<path style="fill:#474F59;" d="M500.075,458.664c3.075,0,6.121-1.183,8.456-3.478c2.296-2.339,3.472-5.378,3.472-8.443l0,0
	c0-3.059-1.173-6.091-3.472-8.427c-2.335-2.309-5.381-3.488-8.456-3.488h-7.502v23.833h7.502V458.664z"/>
<path style="fill:#232E38;" d="M492.57,451.166c3.059,0,6.124-1.176,8.456-3.488c2.289-2.329,3.458-5.378,3.458-8.43
	c0-1.278-0.208-2.53-0.631-3.759c1.691,0.571,3.29,1.48,4.677,2.824c2.296,2.335,3.472,5.368,3.472,8.427
	c0,3.065-1.173,6.104-3.472,8.443c-2.335,2.292-5.381,3.478-8.456,3.478h-7.502v-7.495H492.57z"/>
<g>
</g>
<g>
</g>
<g>
</g>
<g>
</g>
<g>
</g>
<g>
</g>
<g>
</g>
<g>
</g>
<g>
</g>
<g>
</g>
<g>
</g>
<g>
</g>
<g>
</g>
<g>
</g>
<g>
</g>
</svg>
