<?xml version="1.0" encoding="iso-8859-1"?>
<!-- Generator: Adobe Illustrator 19.0.0, SVG Export Plug-In . SVG Version: 6.00 Build 0)  -->
<svg version="1.1" id="Layer_1" xmlns="http://www.w3.org/2000/svg" xmlns:xlink="http://www.w3.org/1999/xlink" x="0px" y="0px"
	 viewBox="0 0 512.251 512.251" style="enable-background:new 0 0 512.251 512.251;" xml:space="preserve">
<circle style="fill:#FF916E;" cx="256" cy="256.125" r="256"/>
<rect x="90.317" y="92.649" style="fill:#FFFFFF;" width="303.533" height="307.365"/>
<rect x="90.317" y="65.516" style="fill:#353F49;" width="303.533" height="27.123"/>
<rect x="116.141" y="139.224" style="fill:#FDCA5C;" width="251.871" height="105.934"/>
<g>
	<rect x="116.141" y="111.662" style="fill:#F77B55;" width="51.534" height="8.542"/>
	<rect x="182.933" y="111.662" style="fill:#F77B55;" width="51.54" height="8.542"/>
	<rect x="249.691" y="111.662" style="fill:#F77B55;" width="51.53" height="8.542"/>
	<rect x="316.482" y="111.662" style="fill:#F77B55;" width="51.537" height="8.542"/>
</g>
<g>
	<rect x="116.141" y="264.179" style="fill:#D9D8D7;" width="64.231" height="64.231"/>
	<rect x="116.141" y="337.781" style="fill:#D9D8D7;" width="64.231" height="4.582"/>
	<rect x="116.141" y="346.931" style="fill:#D9D8D7;" width="64.231" height="4.595"/>
	<rect x="116.141" y="356.147" style="fill:#D9D8D7;" width="32.124" height="4.595"/>
	<rect x="209.953" y="264.179" style="fill:#D9D8D7;" width="64.244" height="64.231"/>
	<rect x="209.953" y="337.781" style="fill:#D9D8D7;" width="64.251" height="4.582"/>
	<rect x="209.953" y="346.931" style="fill:#D9D8D7;" width="64.251" height="4.595"/>
	<rect x="209.953" y="356.147" style="fill:#D9D8D7;" width="32.137" height="4.595"/>
</g>
<rect x="303.765" y="264.179" style="fill:#F77B55;" width="64.244" height="64.231"/>
<g>
	<rect x="303.798" y="337.781" style="fill:#D9D8D7;" width="64.241" height="4.582"/>
	<rect x="303.798" y="346.931" style="fill:#D9D8D7;" width="64.241" height="4.595"/>
	<rect x="303.798" y="356.147" style="fill:#D9D8D7;" width="32.117" height="4.595"/>
</g>
<g>
	<polygon style="fill:#353F49;" points="355.219,344.193 335.888,296.296 383.785,315.613 365.148,325.53 	"/>
	
		<rect x="367.434" y="320.328" transform="matrix(-0.7063 0.708 -0.708 -0.7063 868.202 302.9767)" style="fill:#353F49;" width="7.624" height="22.553"/>
</g>
<g>
	<polygon style="fill:#FFFFFF;" points="326.471,288.23 320.304,282.062 321.671,280.711 327.835,286.872 	"/>
	<polygon style="fill:#FFFFFF;" points="324.109,292.438 316.056,289.098 316.769,287.338 324.836,290.671 	"/>
	<rect x="314.797" y="295.335" style="fill:#FFFFFF;" width="8.73" height="1.919"/>
	<polygon style="fill:#FFFFFF;" points="316.783,305.248 316.069,303.471 324.116,300.118 324.836,301.892 	"/>
	
		<rect x="323.079" y="303.768" transform="matrix(-0.7079 -0.7063 0.7063 -0.7079 335.8054 755.1327)" style="fill:#FFFFFF;" width="1.932" height="8.724"/>
	<polygon style="fill:#FFFFFF;" points="328.707,316.119 326.937,315.395 330.27,307.329 332.047,308.056 	"/>
	<rect x="334.914" y="308.647" style="fill:#FFFFFF;" width="1.932" height="8.724"/>
	<rect x="348.226" y="295.335" style="fill:#FFFFFF;" width="8.73" height="1.919"/>
	
		<rect x="350.378" y="285.521" transform="matrix(-0.3813 -0.9245 0.9245 -0.3813 217.3047 725.2095)" style="fill:#FFFFFF;" width="1.913" height="8.731"/>
	<polygon style="fill:#FFFFFF;" points="345.296,288.23 343.935,286.872 350.116,280.711 351.467,282.052 	"/>
	
		<rect x="341.325" y="276.48" transform="matrix(-0.9217 -0.3878 0.3878 -0.9217 548.8715 672.4392)" style="fill:#FFFFFF;" width="1.922" height="8.714"/>
	<rect x="334.914" y="275.218" style="fill:#FFFFFF;" width="1.932" height="8.714"/>
	
		<rect x="325.138" y="279.905" transform="matrix(-0.382 -0.9242 0.9242 -0.382 195.8 692.6616)" style="fill:#FFFFFF;" width="8.724" height="1.916"/>
</g>
<g>
	<path style="fill:#92DEEB;" d="M171.556,319.58c2.259-0.003,4.542,0.875,6.246,2.58c1.731,1.737,2.577,3.97,2.577,6.253v102.443
		c0,2.259-0.846,4.506-2.577,6.227c-1.718,1.741-3.987,2.583-6.246,2.583H9.09c-2.266,0-4.519-0.842-6.253-2.573
		c-1.721-1.728-2.586-3.977-2.586-6.237l0.007-102.433c-0.007-2.273,0.862-4.522,2.58-6.263c1.737-1.708,3.987-2.58,6.253-2.58
		L171.556,319.58L171.556,319.58z"/>
	<g>
		<rect x="22.696" y="413.062" style="fill:#353F49;" width="28.15" height="3.835"/>
		<rect x="58.378" y="413.062" style="fill:#353F49;" width="28.183" height="3.835"/>
		<rect x="94.102" y="413.062" style="fill:#353F49;" width="28.153" height="3.835"/>
		<rect x="129.784" y="413.062" style="fill:#353F49;" width="28.157" height="3.835"/>
	</g>
	<rect x="22.696" y="379.6" style="fill:#FFFFFF;" width="135.234" height="15.439"/>
	<g>
		<rect x="89.266" y="385.876" style="fill:#353F49;" width="7.733" height="2.9"/>
		<rect x="101.35" y="385.876" style="fill:#353F49;" width="23.189" height="2.89"/>
		<rect x="128.872" y="385.876" style="fill:#353F49;" width="23.189" height="2.89"/>
		<rect x="0.251" y="341.415" style="fill:#353F49;" width="180.125" height="27.48"/>
	</g>
</g>
<path style="fill:#FFFFFF;" d="M512.251,414.499c0,13.857-11.337,25.164-25.177,25.164h-18.3c-13.864,0-25.184-11.307-25.184-25.164
	v-72.024c0-13.841,11.32-25.164,25.184-25.164h18.3c13.841,0,25.177,11.323,25.177,25.164V414.499z"/>
<path style="fill:#E6E5E5;" d="M500.647,321.341c0.248,1.424,0.406,2.874,0.406,4.364v54.625c0,10.914-4.165,21.785-12.463,30.092
	c-8.327,8.327-19.212,12.473-30.112,12.473h-0.898c-4.991,0-9.659-1.486-13.556-4.027c2.051,11.776,12.394,20.79,24.751,20.79h18.3
	c13.841,0,25.177-11.307,25.177-25.164v-72.024C512.251,333.622,507.607,325.827,500.647,321.341z"/>
<path style="fill:#353F49;" d="M483.638,343.618c0,3.171-2.544,5.725-5.721,5.725c-3.174,0-5.705-2.553-5.705-5.725
	c0-3.158,2.53-5.724,5.705-5.724C481.095,337.894,483.638,340.46,483.638,343.618z"/>
<path style="fill:#FFFFFF;" d="M448.429,189.625c-17.682,0-32.064,14.382-32.064,32.054c0,0,0.01,237.37,0.01,246.351
	c0,21.491-17.484,38.971-38.965,38.971c-21.481,0-38.958-17.481-38.962-38.971l-0.013-68.033l-5.12,0.007l0.013,68.027
	c0.003,24.312,19.776,44.095,44.082,44.095c24.305,0,44.082-19.78,44.082-44.095c0,0-0.003-107.434-0.003-246.351
	c0-14.851,12.083-26.934,26.941-26.934c14.848,0,26.928,12.09,26.928,26.948l-0.013,95.618h5.12l0.01-95.618
	C480.474,204.014,466.098,189.625,448.429,189.625z"/>
<path style="fill:#E6E5E5;" d="M416.375,455.624c0,6.9,0,11.327,0,12.41c0,21.491-17.484,38.971-38.965,38.971
	c-11.201,0-21.279-4.776-28.395-12.374c-1.701,0.664-3.373,1.374-5.09,2.002c8.09,9.464,20.087,15.492,33.485,15.492
	c24.305,0,44.082-19.78,44.082-44.095c0,0,0-5.913,0-16.642C419.804,452.823,418.099,454.233,416.375,455.624z"/>
<path style="fill:#FDCA5C;" d="M55.577,140.229c0,15.264-12.387,27.648-27.671,27.648c-15.274,0-27.655-12.384-27.655-27.648
	c0-15.274,12.38-27.681,27.655-27.681C43.19,112.547,55.577,124.954,55.577,140.229z"/>
<path style="fill:#FFDB79;" d="M50.037,140.229c0,12.219-9.9,22.118-22.132,22.118c-12.219,0-22.118-9.9-22.118-22.118
	c0-12.235,9.9-22.135,22.118-22.135C40.138,118.094,50.037,127.993,50.037,140.229z"/>
<g>
	<path style="fill:#FDCA5C;" d="M30.238,142.049H25.59c-1.936,0-3.772-0.753-5.133-2.137c-1.354-1.344-2.121-3.158-2.121-5.113
		c0-1.946,0.763-3.766,2.121-5.14c1.358-1.341,3.178-2.101,5.133-2.101h10.068v3.653H25.59c-0.971,0-1.88,0.367-2.527,1.037
		c-0.7,0.674-1.06,1.582-1.06,2.547c0,0.971,0.353,1.86,1.037,2.537c0.694,0.687,1.592,1.064,2.547,1.064h4.648v3.653H30.238z"/>
	<path style="fill:#FDCA5C;" d="M30.238,152.886H20.17v-3.647h10.068c0.951,0,1.863-0.373,2.547-1.054
		c0.661-0.667,1.044-1.579,1.044-2.547c0-0.958-0.38-1.856-1.037-2.527c-0.687-0.687-1.599-1.064-2.55-1.064H25.59v-3.65h4.648
		c1.932,0,3.762,0.747,5.117,2.127c1.358,1.338,2.121,3.171,2.121,5.117s-0.75,3.776-2.127,5.137
		C33.97,152.133,32.154,152.886,30.238,152.886z"/>
	<rect x="26.086" y="126.309" style="fill:#FDCA5C;" width="3.643" height="27.856"/>
	<path style="fill:#FDCA5C;" d="M142.197,62.243c0,19.975-16.189,36.164-36.184,36.164c-19.988,0-36.18-16.189-36.18-36.164
		c0-19.981,16.192-36.21,36.18-36.21C126.005,26.033,142.197,42.261,142.197,62.243z"/>
</g>
<path style="fill:#FFDB79;" d="M134.943,62.243c0,15.991-12.935,28.936-28.93,28.936c-15.988,0-28.936-12.945-28.936-28.936
	c0-16.001,12.949-28.946,28.936-28.946C122.008,33.296,134.943,46.242,134.943,62.243z"/>
<g>
	<path style="fill:#FDCA5C;" d="M109.066,64.628h-6.094c-2.537,0-4.915-0.988-6.696-2.804c-1.797-1.751-2.781-4.136-2.781-6.686
		c0-2.54,0.984-4.915,2.781-6.719c1.764-1.757,4.136-2.745,6.696-2.745h13.173v4.767h-13.173c-1.268,0-2.444,0.486-3.303,1.354
		c-0.902,0.895-1.381,2.074-1.381,3.343c0,1.259,0.472,2.441,1.354,3.307c0.912,0.915,2.084,1.404,3.33,1.404h6.094V64.628z"/>
	<path style="fill:#FDCA5C;" d="M109.066,78.792H95.883v-4.776h13.183c1.239,0,2.415-0.482,3.316-1.361
		c0.879-0.869,1.377-2.055,1.377-3.33c0-1.275-0.489-2.438-1.368-3.316c-0.908-0.892-2.088-1.381-3.326-1.381h-6.094v-4.78h6.094
		c2.524,0,4.895,0.988,6.692,2.791c1.784,1.734,2.778,4.132,2.778,6.686c0,2.543-0.988,4.932-2.788,6.706
		C113.941,77.821,111.566,78.792,109.066,78.792z"/>
	<rect x="103.622" y="44.002" style="fill:#FDCA5C;" width="4.763" height="36.468"/>
	<circle style="fill:#FDCA5C;" cx="86.412" cy="217.435" r="19.611"/>
</g>
<path style="fill:#FFDB79;" d="M102.089,217.435c0,8.668-7.016,15.68-15.69,15.68c-8.664,0-15.684-7.013-15.684-15.68
	c0-8.664,7.019-15.677,15.684-15.677C95.073,201.758,102.089,208.77,102.089,217.435z"/>
<g>
	<path style="fill:#FDCA5C;" d="M88.054,218.74h-3.3c-1.381,0-2.666-0.535-3.627-1.516c-0.971-0.948-1.503-2.253-1.503-3.634
		c0-1.374,0.532-2.666,1.503-3.637c0.955-0.961,2.233-1.496,3.627-1.496h7.135v2.583h-7.135c-0.684,0-1.335,0.271-1.797,0.743
		c-0.489,0.486-0.75,1.126-0.75,1.807c0,0.69,0.251,1.318,0.73,1.8c0.495,0.486,1.146,0.756,1.817,0.756h3.3V218.74z"/>
	<path style="fill:#FDCA5C;" d="M88.054,226.413h-7.148v-2.583h7.148c0.671,0,1.311-0.271,1.8-0.753
		c0.476-0.466,0.75-1.107,0.75-1.794c0-0.69-0.271-1.325-0.75-1.797c-0.486-0.489-1.13-0.75-1.8-0.75h-3.3v-2.593h3.3
		c1.364,0,2.662,0.535,3.63,1.5c0.961,0.948,1.503,2.256,1.503,3.64c0,1.368-0.538,2.669-1.51,3.634
		C90.703,225.888,89.405,226.413,88.054,226.413z"/>
	<rect x="85.114" y="207.552" style="fill:#FDCA5C;" width="2.583" height="19.763"/>
</g>
<g>
</g>
<g>
</g>
<g>
</g>
<g>
</g>
<g>
</g>
<g>
</g>
<g>
</g>
<g>
</g>
<g>
</g>
<g>
</g>
<g>
</g>
<g>
</g>
<g>
</g>
<g>
</g>
<g>
</g>
</svg>
