<?xml version="1.0" encoding="iso-8859-1"?>
<!-- Generator: Adobe Illustrator 19.0.0, SVG Export Plug-In . SVG Version: 6.00 Build 0)  -->
<svg version="1.1" id="Layer_1" xmlns="http://www.w3.org/2000/svg" xmlns:xlink="http://www.w3.org/1999/xlink" x="0px" y="0px"
	 viewBox="0 0 512.01 512.01" style="enable-background:new 0 0 512.01 512.01;" xml:space="preserve">
<rect x="143.671" y="46.833" style="fill:#F2F2F2;" width="366.157" height="465.178"/>
<rect x="143.671" style="fill:#353F49;" width="366.157" height="46.833"/>
<g>
	<rect x="186.866" y="116.326" style="fill:#CCCBCA;" width="279.757" height="10.522"/>
	<rect x="186.866" y="90.035" style="fill:#CCCBCA;" width="279.757" height="10.522"/>
	<rect x="186.866" y="142.607" style="fill:#CCCBCA;" width="279.757" height="10.519"/>
	<rect x="186.866" y="168.904" style="fill:#CCCBCA;" width="279.757" height="10.504"/>
	<rect x="186.866" y="195.2" style="fill:#CCCBCA;" width="279.757" height="10.514"/>
	<rect x="186.866" y="221.491" style="fill:#CCCBCA;" width="279.757" height="10.527"/>
	<rect x="186.866" y="247.808" style="fill:#CCCBCA;" width="279.757" height="10.527"/>
	<rect x="186.866" y="274.099" style="fill:#CCCBCA;" width="279.757" height="10.524"/>
	<rect x="186.866" y="300.416" style="fill:#CCCBCA;" width="279.757" height="10.522"/>
	<rect x="186.866" y="326.733" style="fill:#CCCBCA;" width="279.757" height="10.522"/>
	<rect x="186.866" y="353.05" style="fill:#CCCBCA;" width="279.757" height="10.522"/>
	<rect x="186.866" y="379.341" style="fill:#CCCBCA;" width="279.757" height="10.522"/>
	<rect x="186.866" y="405.658" style="fill:#CCCBCA;" width="279.757" height="10.522"/>
	<rect x="186.866" y="431.974" style="fill:#CCCBCA;" width="279.757" height="10.522"/>
	<rect x="186.866" y="458.266" style="fill:#CCCBCA;" width="279.757" height="10.524"/>
</g>
<rect x="115.13" y="333.005" style="fill:#474F59;" width="24.041" height="32.914"/>
<path style="fill:#353F49;" d="M250.758,213.629c0,68.288-55.355,123.622-123.617,123.622c-68.275,0-123.599-55.334-123.599-123.622
	c0-68.26,55.324-123.592,123.599-123.592C195.404,90.038,250.758,145.37,250.758,213.629z"/>
<path style="fill:#FFFFFF;" d="M226.067,213.629c0,54.633-44.301,98.88-98.926,98.88c-54.605,0-98.885-44.247-98.885-98.88
	c0-54.63,44.283-98.875,98.885-98.875C181.766,114.755,226.067,158.999,226.067,213.629z"/>
<g>
	<polygon style="fill:#474F59;" points="132.046,149.327 122.275,149.327 119.433,163.523 134.893,163.523 	"/>
	<polygon style="fill:#474F59;" points="99.227,155.5 90.774,160.384 95.4,174.1 108.794,166.377 	"/>
	<polygon style="fill:#474F59;" points="73.903,177.252 69.019,185.705 79.907,195.267 87.645,181.896 	"/>
	<polygon style="fill:#474F59;" points="62.852,208.755 62.852,218.519 77.052,221.363 77.052,205.911 	"/>
	<polygon style="fill:#474F59;" points="69.019,241.569 73.903,250.015 87.645,245.386 79.907,231.997 	"/>
	<polygon style="fill:#474F59;" points="90.774,266.885 99.227,271.77 108.794,260.897 95.4,253.171 	"/>
	<polygon style="fill:#474F59;" points="122.293,277.939 132.046,277.939 134.893,263.759 119.446,263.759 	"/>
	<polygon style="fill:#474F59;" points="155.089,271.77 163.549,266.885 158.908,253.171 145.53,260.897 	"/>
	<polygon style="fill:#474F59;" points="180.43,250.015 185.297,241.569 174.422,231.997 166.685,245.386 	"/>
	<polygon style="fill:#474F59;" points="191.466,218.519 191.466,208.755 177.281,205.911 177.281,221.363 	"/>
	<polygon style="fill:#474F59;" points="185.297,185.705 180.43,177.252 166.685,181.896 174.422,195.254 	"/>
	<polygon style="fill:#474F59;" points="163.549,160.384 155.089,155.505 145.53,166.377 158.908,174.1 	"/>
</g>
<path style="fill:#353F49;" d="M127.177,162.949c-28.032,0-50.716,22.689-50.716,50.688c0,27.996,22.682,50.685,50.716,50.685
	c27.996,0,50.701-22.689,50.701-50.685C177.878,185.638,155.173,162.949,127.177,162.949z M127.177,227.674
	c-7.762,0-14.044-6.292-14.044-14.036c0-7.749,6.282-14.042,14.044-14.042c7.724,0,14.016,6.292,14.016,14.042
	C141.193,221.381,134.9,227.674,127.177,227.674z"/>
<path style="fill:#F77B55;" d="M127.177,189.297c-13.463,0-24.348,10.885-24.348,24.34c0,13.45,10.885,24.325,24.348,24.325
	c13.43,0,24.32-10.875,24.32-24.325C151.497,200.182,140.607,189.297,127.177,189.297z M127.177,225.812
	c-6.723,0-12.186-5.455-12.186-12.173c0-6.715,5.463-12.157,12.186-12.157c6.684,0,12.15,5.44,12.15,12.157
	C139.327,220.355,133.864,225.812,127.177,225.812z"/>
<rect x="103.505" y="390.938" style="fill:#474F59;" width="47.273" height="121.062"/>
<rect x="99.529" y="365.926" style="fill:#353F49;" width="55.196" height="25.014"/>
<rect x="2.182" y="353.05" style="fill:#F77B55;" width="336.051" height="63.14"/>
<rect x="18.705" y="369.562" style="fill:#FFFFFF;" width="303.002" height="30.093"/>
<rect x="338.231" y="353.05" style="fill:#353F49;" width="63.132" height="63.14"/>
<g>
</g>
<g>
</g>
<g>
</g>
<g>
</g>
<g>
</g>
<g>
</g>
<g>
</g>
<g>
</g>
<g>
</g>
<g>
</g>
<g>
</g>
<g>
</g>
<g>
</g>
<g>
</g>
<g>
</g>
</svg>
