<?xml version="1.0" encoding="iso-8859-1"?>
<!-- Generator: Adobe Illustrator 19.0.0, SVG Export Plug-In . SVG Version: 6.00 Build 0)  -->
<svg version="1.1" id="Layer_1" xmlns="http://www.w3.org/2000/svg" xmlns:xlink="http://www.w3.org/1999/xlink" x="0px" y="0px"
	 viewBox="0 0 512 512" style="enable-background:new 0 0 512 512;" xml:space="preserve">
<circle style="fill:#ADECF7;" cx="256" cy="256" r="256"/>
<path style="fill:#FFFFFF;" d="M336.853,256c0,44.64-36.19,80.86-80.86,80.86c-44.65,0-80.837-36.22-80.837-80.86
	c0-44.653,36.187-80.85,80.837-80.85C300.663,175.15,336.853,211.347,336.853,256z"/>
<path style="fill:#353F49;" d="M237.079,323.581c0.32,0.076,1.199-0.218,1.447-0.304c-0.601-0.479-1.903-0.522-2.662-0.998
	c0.063,0.03-2.431-1.483-1.903-0.235c0.132,0.294,0.611,0.02,0.813,0.182c-0.297,0.446-0.423,0.311-0.092,0.515
	c0-0.01-2.765-1.516,0.016-1.609c-1.932-1.728,0.122-1.189-0.492-2.286c-0.406-0.737,1.632-1.457,0.532-2.104
	c-0.522-0.301-1.107-0.248-1.645-0.621c-0.753-0.548-0.053-1.523,0.674-1.434c0.069,0,0.439-1.741,0.571-2.018
	c-0.208-0.073-1.632-1.846-1.298-2.22c0.433-0.456,2.286,1.153,2.752-0.026c0.175-0.436-0.651-1.579-0.588-2.038
	c0.846-0.096,6.362,0.126,5.427-2.418c-0.33-0.879-2.656-2.18-2.408-2.917c0.806,0.135,2.137,1.305,2.996,0.826
	c0.727-0.357,1.292,0.423,2.031-0.406c0.122-0.162,1.348-1.457,1.007-1.718c-0.383-0.013-0.585,0.211-0.611,0.638
	c-0.446-0.591,0.314-0.994,0.704-1.44c0.099,0.145,0.188,0.264,0.271,0.393c0.472-0.71,3.019-4.027,3.098-4.096
	c1.308-1.526,0.235-3.564,1.533-4.776c1.176-1.093,2.464-1.83,3.937-2.415c0.456-0.175,2.078-1.034,2.405-0.941
	c2.719,0.832,2.388-2.398,4.106-3.855c1.747-1.467,0.456-8.965,1.88-9.52c0.78-0.31,3.079-3.128,4.271-4.436
	c1.156-1.235,1.305-2.847,0.859-4.43c-0.694-2.418-1.374-1.034-3.118-2.091c-1.41-0.839-2.477-2.524-4.215-2.735
	c-1.017-0.155-2.084,0.152-3.095-0.149c-0.429-0.122-1.589-0.846-2.028-0.244c0.079-0.089-0.928,0.393-0.865,0.419
	c-0.109-0.083-0.016-1.335-0.344-1.652c-0.538-0.502-2.345-1.004-3.006-1.173c-1.5-0.373-1.866,1.401-2.249-0.723
	c-1.242-0.353-2.491-1.8-2.269-2.16c0.112-0.139-1.932-4.466-2.223-4.066c-0.013-1.453-4.509-3.25-5.649-2.547
	c-1.034,0.733-2.92-0.68-3.554-1.351c-0.707-0.78-0.69-1.589-1.886-2.091c-0.509-0.221-1.391-0.099-1.183-0.974
	c0.205-0.941-2.216-1.116-2.444-2.022c0.337,0.063,0.624-0.116,0.958-0.198c-0.948,0.324-2.101-0.353-3.019,0.393
	c-1.348,1.13-2.15-0.509-3.63-0.225c-1.88,0.353-0.611-0.337-1.797-1.05c0.482,0.297-2.193-1.225-1.566-1.173
	c-0.568-0.059,0.083,0.922-0.532,1.146c-0.984,0.353-1.837,0.585-1.186,1.757c1.067,2.134-2.256,1.136-0.697-0.324
	c0.294-0.251,0.36-3.059,0.674-2.943c-0.38-0.145-3.419,1.827-3.762,2.233c-0.988-1.549-2.633,3.881-3.178,3.924
	c-0.274-1.341-1.539-1.889-2.649-2.273c-0.938-0.363-1.886,1.873-3.112,0.641c-2.187-2.2-1.232-5.767-0.116-8.298
	c0.466-1.166-4.05-1.523-4.585-1.057c-1.11,0.895,0.165-1.846,0.155-1.774c0.135-1.09,0.373-1.84,0.869-1.82
	c0.297-0.657,1.969-3.65,1.797-4.033c-0.684-1.566-3.518,1.235-3.785,1.929c-0.287,0.684-0.832,1.074-1.09,1.691
	c-0.268,0.621-0.796-0.149-1.252,0.109c-1.225,0.684-2.98,0.327-2.705-1.447c0.281-2.137-0.538-6.382,1.863-7.855
	c0.737-0.446,0.852-2.57,1.701-3.336c0.112-0.086,2.54-1.496,2.302-1.78c0.35,0.367,2.263-0.386,2.514,0.099
	c0.182,0.416,1.308,0.842,1.704,0.611c-0.017,0.04,0.195-0.941,0.195-0.955c-0.033-0.01-0.776-0.096-0.75-0.344
	c0.086-0.334,2.375-0.122,2.441-0.109c1.087,0.083,1.883,0.981,2.686,0.436c1.249-0.849,0.482,4.714,0.984,5.222
	c0.264,0.301,0.076,0.961,0.595,0.912c0.71-0.069,0.941-7.224,2.768-8.701c1.341-1.07,2.804-2.061,4.314-2.857
	c0.456-0.231,1.685-0.826,1.949-1.298c-0.056-0.238-0.281-0.515-0.538-0.264c-0.069-0.433,0.661-0.162,0.803-0.624
	c0.132-0.466-0.39-0.614-0.32-0.78c-0.03,0.059,0.453-0.928,0.297-0.789c0.023,0.03,0.023,0.073,0.033,0.096
	c0.737,0.109-0.168-0.684-0.205-0.819c0.961,0.505,0.552-1.05,1.513-1.146c-0.68,0.291-0.552,1.047-0.462,1.51
	c0.198,1.021,1.093-1.401,0.984-1.308c0.912-0.363,2.329-1.13,3.293-1.813c-0.225-0.109-0.459,0.076-0.743-0.122
	c1.001-0.353,2.107-0.225,3.062-0.723c-0.04-1.021,0.562-2.058,1.695-2.256c1.724-0.281,3.759-1.325,5.487-1.913
	c-0.274,0.595,0.135,0.129,0.601,0.353c-0.562-1.457-3.62,2.702-2.167,1.856c1.232-0.707,5.388-1.344,5.943-2.547
	c-0.017-0.079-0.274-0.859-0.258-0.859c-1.034,0-1.12,1.259-2.375,1.252c-2.286-0.026-0.915-1.434-1.391-2.065
	c-0.406,0.086-0.74-0.017-1.021-0.33c0.221-0.046,3.049-0.71,1.559-1.044c-2.418-0.515-4.037,2.187-6.015,2.107
	c1.48-0.898,3.511-2.828,5.312-3.072c1.913-0.271,4.585,0.664,6.273-0.525c1.51-1.031,2.54-0.271,3.389-1.975
	c0.264-0.453-1.1-1.037-1.45-1.107c0.155-0.182,0.459,0,0.571-0.281c-2.273-1.034-2.748-2.025-3.019-4.644
	c-1.159,0.846-5.021,2.639-2.956-0.284c-0.74-0.324-3.089-2.283-3.997-0.922c-0.413,0.601-1.067,1.619-1.761,1.922
	c-1.539,0.71-0.165,0.568-0.68,1.605c-0.875,1.691-2.973,1.47-3.974,2.95c-0.621,0.928-0.809,1.582-1.787,2.025
	c-0.852,0.367-1.176-0.651-0.756-1.434c0.297,0.337,0.578,0.386,0.819,0.129c0.069-0.353-0.462-0.168-0.621-0.327
	c0.297-0.529,0.674-0.998,1.1-1.447c-0.145-0.073-2.316-0.416-2.24-0.988c0.142-1.183-1.358-0.538-1.612-0.892
	c1.163-1.463,1.163-2.15,3.442-3.287c0.77-0.393,5.143-2.616,5.946-2.061c-0.092,0.489-0.638,0.396-0.925,0.651
	c0.621,0.149,2.448,0.353,3.072-0.069c-0.129-0.126-0.865-1.338-0.482-1.619c-0.066,0.05,1.239,0.023,1.341-0.013
	c0.7-0.182,1.473-0.258,1.88-0.958c0.337-0.647,2.649-1.447,3.188-1.14c3.019,1.711-4.086,3.521-4.155,3.323
	c0.142,0.499,2.055-0.344,2.54,0.965c0.122,0.334,2.306,1.034,2.52,0.733c0.126-0.168-0.631-0.948-0.654-1.15
	c2.292,1.11,2.16,0.535,1.777-0.994c-0.35-1.457,1.335,0.096,1.44,0.132c0.386,0.208,1.926-0.677,2.16-0.994
	c-0.562-0.446-1.533-0.436-2.005-0.965c-0.459-0.436,1.186-0.562,0.611-1.031c-0.687-0.565-1.787-0.443-1.401-1.533
	c-0.403-0.122-0.786-0.079-1.14,0.132c0.112,0.215,0.337,0.056,0.423,0.178c-0.383,0.218-0.803,0.271-1.242,0.258
	c0.135-0.198,0.538-0.198,0.538-0.571c-1.183-0.155-1.81,0.571-2.841,0.882c0.301-0.433,0.789-0.555,1.143-0.875
	c-1.12,0.132-2.21,0.571-3.085,1.295c0.126,0.122,0.248,0.258,0.344,0.429c-0.865,0.753-2.008,0.991-3.026,1.444
	c0.172-0.671,0.902-0.499,1.146-1.014c-0.373,0-0.737,0.076-1.06,0.244c0.429-0.053,1.704-1.331,1.995-1.652
	c-1.837-0.211-2.616,2.18-4.35,1.827c0.36-0.419,1.1-0.195,1.341-0.849c-0.644,0.069-3.072,1.714-3.482,0.849
	c-0.017-0.05,4.459-1.827,4.935-2.471c-0.304-0.033-0.651,0.277-0.922-0.073c0.218-0.248,0.581-0.268,0.839-0.538
	c-1.47-0.013-5.84,1.761-5.497,2.781c-0.571,0.466-1.179,0.581-1.873,0.291c0.274-0.413,1.222-0.423,0.453-1.034
	c-1.414,0.529-2.778,1.097-4.142,1.701c-3.155,1.381-6.25,3.029-9.173,4.849c-4.833,2.98-8.836,6.517-12.817,10.527
	c-2.131,2.15-10.207,11.591-10.177,13.553c0.023,1.45-0.826,2.748-1.377,4.046c-0.433,1.077-0.482,2.567-1.017,3.551
	c-1.183,2.091-0.644,4.525-1.173,6.927c0.671-0.509,2.045-11.505,3.231-11.099c0.235,0.073-0.74,4.578-0.988,5.12
	c-1.001,2.309,0.314,5.146-0.34,7.548c-0.069,0.235-0.403,1.463-0.413,1.704c-1.1,0.859,0.291,2.131,0.284,3.062
	c0,0.558,2.831,3.055,3.386,3.376c1.192,0.71,1.427-0.555,2.51-0.324c0.978,0.211,1.268,1.985,1.78,2.722
	c0.694,1.05,3.349,0.925,3.809,1.42c0.297,0.37,0.046,2.401,1.259,2.686c-0.017-0.129-0.04-0.852,0.122-0.955
	c0.377-0.225,1.15,1.13,0.898,1.381c-0.393,0.079-0.737-0.066-1.024-0.426c0,0.195-0.198,2.837,0.578,2.319
	c0.013-0.162,0.053-0.334,0.069-0.492c1.017,0.446,0.945,1.929,1.665,2.144c0.981,0.248,1.718,1.51,2.474,1.853
	c0.654,0.34,0.479-2.325,1.741-2.441c1.021-0.112,1.592,2.547,1.952,3.201c0.529,0.935-0.72,3.171-0.023,3.911
	c0.697,0.73-1.751,2.504-1.873,3.264c-0.089,0.578-1.325,1.116-1.292,1.341c0.092,0.614-0.281,1.457-0.489,2.055
	c-0.631,1.648-0.314,1.807,0.756,2.557c0.023,0.026-1.998,4.056-0.836,5.09c1.85,1.51,4.268,5.226,4.856,7.574
	c1.209,3.237,3.042,5.203,6.121,6.815c2.501,1.305,4.261,3.548,4.261,6.554c0.102,1.764-0.172,3.987,0.585,5.639
	c0.522,1.159-0.466,3.065,0.281,4.109c0.479,0.664-0.155,1.021,0.135,1.638c0.287,0.651,0.961,1.737,0.951,2.484
	c-0.026,1.278,0,2.781,0.092,4.04c0.017,0.429-0.393,1.15-0.165,1.427c0.287,0.344,1.992,4.552,1.992,5.777
	c-0.013,0.294,1.311-0.099,0.116-1.292c1.414-0.776,1.133,2.534,1.235,2.56c-1.275-0.419-0.456-0.079-0.36,1.539
	c0.079,0.978-0.238,0.502,0.538,0.697c1.249,0.281,0,1.1,0.479,1.787c0.945,1.341,2.372,2.606,3.366,3.647
	C232.412,323.458,235.163,323.188,237.079,323.581C237.353,323.647,236.719,323.511,237.079,323.581z M242.344,191.805
	c-0.443,0.39-0.918,0.482-1.434,0.618C241.268,191.884,241.806,191.983,242.344,191.805z M238.143,191.452
	c0.32-0.046,0.585,0.04,0.756,0.271c0.007,0.122-1.721,0.218-1.979,0.651C237.135,191.61,237.773,191.749,238.143,191.452
	C238.305,191.676,237.773,191.749,238.143,191.452z M233.911,194.438C234.268,194.527,233.38,194.362,233.911,194.438
	C233.918,194.444,233.806,194.421,233.911,194.438z M231.576,190.008c0.152-0.185,0.281-0.159,0.37,0.079
	C231.781,190.279,231.655,190.253,231.576,190.008C231.599,189.916,231.569,190.111,231.576,190.008z M229.264,196.909
	C228.613,196.866,229.954,196.955,229.264,196.909C229.174,196.909,229.363,196.928,229.264,196.909z M229.954,194.233
	c-2.253,2.124-0.499,0.026-1.159,0.694c0.02,0.03,0,0.063-0.033,0.063C228.587,194.781,229.908,194.253,229.954,194.233
	C229.673,194.514,229.568,194.316,229.954,194.233z M229.135,191.752c-0.416,0.462-0.416,0.462-0.978,0.357
	C228.444,191.904,228.854,191.997,229.135,191.752z M239.173,183.811c-0.142,0.007-0.294,0.007-0.515,0.007
	C239.375,183.22,239.259,183.811,239.173,183.811C239.031,183.818,239.279,183.811,239.173,183.811z M240.802,182.731
	c-0.241,0.277-0.611,0.106-0.915,0.248C240.217,182.361,240.28,182.351,240.802,182.731z M231.685,183.484
	c0.198-0.185,0.423-0.264,0.674-0.244C232.567,183.554,230.985,183.735,231.685,183.484
	C231.781,183.303,231.606,183.511,231.685,183.484z M231.282,183.009c0.264,0.132,0.241,0.238-0.069,0.357
	C230.985,183.25,231.031,183.141,231.282,183.009C231.381,183.009,231.16,183.022,231.282,183.009z M219.493,203.132
	c0.023-0.013-3.528,1.401-3.247,0.538c-0.099,0.261,1.212-1.014,0.932-0.902c0.297-0.109,2.669-0.248,3.363-0.238
	C220.18,202.881,219.833,203,219.493,203.132C218.703,203.426,219.833,203,219.493,203.132z M222.327,201.381
	c2.93,0.284-1.747,1.169-2.24,0.644C220.758,201.451,221.528,201.272,222.327,201.381
	C222.568,201.404,221.528,201.272,222.327,201.381z M221.851,183.18c0.77-0.505,1.612-0.872,2.636-1.11
	c-0.75,0.621-1.744,0.879-2.669,1.123L221.851,183.18z M222.007,198.993c-0.132,0.126-0.264,0.122-0.373-0.003
	C221.812,198.917,221.977,198.861,222.007,198.993C222.076,199.115,221.977,198.861,222.007,198.993z M221.148,200.747
	C221.095,200.747,220.854,200.678,221.148,200.747C221.164,200.747,221.055,200.707,221.148,200.747z M220.282,199.237
	c1.06,0.502,0.462,2.164-0.459,0.865c-0.03,0.77-1.361,2.058-2.078,2.226c0.274-0.304,0.373-0.634,0.281-0.998
	c-0.231-0.192-0.68,0.334-0.922,0.327c0.102,0.453,1.916-3.115,0.393-2.074c-0.555,0.416-4.208,4.304-4.43,4.106
	c-0.344-0.367,1.625-3.214,1.767-3.333C216.094,199.336,218.703,198.511,220.282,199.237z M218.254,185.645
	c0.145-0.083,1.325-0.806,1.47-0.624c0.377,0.472-1.893,1.037-2.002,1.057C217.854,185.79,218.066,185.74,218.254,185.645
	C218.657,185.41,218.066,185.74,218.254,185.645z M218.495,195.194c-0.01,0.059-0.472,0.948-0.753,0.604
	C217.521,195.548,218.416,194.781,218.495,195.194C218.462,195.419,218.475,195.079,218.495,195.194z M215.935,187.838
	c0.132,0,2.038-1.209,2.091-0.717C218.043,187.27,215.707,187.864,215.935,187.838z M215.403,189.774
	c-0.116,0.225-0.218,0.33-0.489,0.327C215.007,189.866,215.185,189.846,215.403,189.774z M214.085,194.362
	c0.264-0.208,0.875-1.192,0.578-1.592c0.165,0.218-1.14-0.139-0.545-0.363c0.248-0.069,1.734-0.895,1.979-0.641
	c0.426,0.436-1.86,2.841-2.312,3.029C213.814,194.547,213.953,194.451,214.085,194.362
	C214.459,194.084,213.953,194.451,214.085,194.362z M215.374,197.378c1.645-0.532,2.24-1.447,3.224-0.208
	c0.37,0.469,0.304,1.681-0.571,1.397c0.235,0.069-2.662-0.208-2.131-0.522c-0.571,0.373-1.704,0.618-2.392,0.317
	C214.138,198.005,214.7,197.606,215.374,197.378C215.783,197.252,214.7,197.606,215.374,197.378z M213.094,194.342
	c0.159,0.38,0.046,0.585-0.396,0.644C212.863,194.722,212.992,194.517,213.094,194.342z M189.886,229.62
	C189.139,229.601,190.464,229.601,189.886,229.62C189.793,229.62,189.965,229.62,189.886,229.62z M199.254,236.349
	C199.052,236.415,199.839,236.204,199.254,236.349C199.224,236.362,199.356,236.336,199.254,236.349z M222.115,243.904
	C221.719,243.824,222.568,243.943,222.115,243.904C222.082,243.904,222.168,243.917,222.115,243.904z M225.855,310.9
	C225.217,310.794,226.205,310.388,225.855,310.9C225.7,310.883,225.868,310.883,225.855,310.9z M227.52,277.392
	C227.285,277.147,227.675,277.517,227.52,277.392C227.496,277.369,227.566,277.421,227.52,277.392z M227.784,298.265
	C227.361,298.42,228.236,298.116,227.784,298.265C227.681,298.298,227.847,298.238,227.784,298.265z M229.994,320.78
	c-0.297-0.182-0.297-0.281-0.026-0.33C230.304,320.571,230.304,320.697,229.994,320.78
	C229.868,320.76,230.083,320.796,229.994,320.78z M232.897,322.045c-0.304-0.063-0.274-0.172,0.089-0.353
	C233.244,321.794,233.221,321.926,232.897,322.045C232.768,322.045,232.98,322.018,232.897,322.045z M226.724,313.737
	c-0.03,0.02-0.066,0.026-0.102,0.033C226.717,313.704,226.74,313.691,226.724,313.737z M233.964,179.174c0,0,0,0-0.007,0
	c0.007,0,0.007-0.013,0.007-0.013V179.174z M206.498,192.185c0,0.013-0.01,0.013-0.01,0.013L206.498,192.185z M207.268,191.551
	L207.268,191.551L207.268,191.551z M335.522,241.522l0.017,0.007c-1.579-5.833-2.758-11.598-5.183-17.24
	c-2.851-6.702-6.62-13.031-11.162-18.713c-4.294-5.371-9.269-10.207-14.789-14.319c-2.679-2.008-5.467-3.832-8.38-5.497
	c-1.381-0.786-2.795-1.556-4.238-2.259c-0.631-0.297-2.831-0.879-3.168-1.414c0.033,0.248,1.282,0.882,1.457,1.057
	c-0.852-0.225-3.118-1.179-3.155-1.331c0.059-0.096,0.235,0,0.211-0.185c-1.275-0.799-6.052-2.557-7-1.265
	c0.208-0.261,3.29,3.303,3.379,3.951c0.192,1.377,2.365,2.851,3.746,3.313c1.926,0.644,0.482-0.228,1.298-0.661
	c0.529-0.268,1.011,0.872,1.503,0.611c-0.017-0.007,0-0.013,0.017-0.04c-0.139-0.261-0.297-0.522-0.453-0.789
	c-0.132,0,3.505,3.752,3.951,2.933c-0.433-1.034-1.07-2.174-2.111-3.122c-0.912-0.865-2.342-0.932-3.333-1.8
	c-0.499-0.413-2.342-1.78-2.537-2.395c2.425,0.069,5.252,5.239,7.683,3.237c-0.344-0.235-0.667-0.489-0.981-0.76
	c0.453,0.139,2.491,0.786,1.804,1.648c-1.946-0.334,1.638,1.655,1.701,1.85c-0.353-0.023-0.601-0.304-0.928-0.33
	c0.149,0.677,2.068,1.384,2.203,2.537c-1.159,0.172-0.647-0.717-1.417,0.248c-0.228,0.301-1.268,0.195-1.843,0.228
	c-1.334,0.116-2.821-2.154-3.799-2.844c0.416,1.259,1.107,1.866,2.524,2.761c0.687,0.38-0.961,0.555-0.938,1.133
	c0.04,0,0.449,0.208,0.439,0.311c0,0.066-0.383-0.258-0.439-0.311c0.135-0.076-0.241,2.236-0.271,2.183
	c1.1,1.292-1.457,0.922-1.516,0.961c0.205,0.291,0.614,0.433,0.687,0.862c-0.743,0.043-1.348-0.079-2.068,0.192
	c1.054,0.311,6.854,2.98,5.579,5.001c-0.386,0.671-4.317-0.155-5.051-0.178c-1.523-0.119-0.106,1.447-0.069,1.615
	c0.241,1.156,1.133,1.668,1.06,3.032c-0.076,0.941,0.902,0.971,1.199,1.777c0.264,0.694,0.119,0.753,0.846,0.869
	c1.295,0.155,1.318-0.04,2.411,0.796c0.78,0.604,1.067-0.565,1.995-0.598c2.296-0.083,0.344-0.568,1.44-0.875
	c1.364-0.377-0.386-2.507-0.297-2.927c0.099-0.562-0.089-1.186,0.661-1.387c1.169-0.311-0.304-1.533-0.386-1.853
	c-0.218-0.948,3.214,0.819,2.791-1.599c1.995,0.621,4.03,2.411,5.847,3.445c1.077,0.638,2.147,1.265,2.946,2.273
	c0.945,1.209-1.351,0.733-1.496,1.07c-0.135,0.38,2.008,1.368,2.352,1.348c0.053-0.218-0.251-1.453-0.294-1.671
	c-0.086-0.865-1.335-1.714-1.249-2.395c0.39,0.04,0.75,0.188,1.06,0.426c-1.156-1.427-3.039-1.556-4.354-2.613
	c-0.789-0.647-1.797-1.179-2.557-1.84c-0.01-0.013-1.417-1.794-0.433-1.45c1.533,0.542,3.217,2.098,4.783,2.917
	c1.259,0.654,1.572,1.07,2.491,2.127c0.36,0.436,2.286,2.656,2.709,2.745c-0.007-0.04,1.576,1.384,2.2,1.605
	c-0.281-0.647-0.529-1.47-0.859-1.989c-0.429-0.69-2.226-1.083-2.226-2.14c0.406,0.033,0.462-0.386,1.325-0.353
	c-0.449-0.02,0.571-0.704,0.509-0.591c-1.678-0.958-3.934-3.756-4.552-5.642c0.462,0.013,0.714,0.628,1.229,0.32
	c-0.168-0.32-0.211-0.677-0.168-1.024c0.129,0.162,1.711,1.503,1.397,1.78c-0.443-0.013-0.826-0.211-1.146-0.548
	c0.241,0.799,1.024,0.819,1.348,1.368c0.04-0.225-0.106-0.393,0.076-0.644c1.374,0.581,4.215,2.775,4.595,4.34
	c-0.614,0.056-1.774-1.245-2.18-0.938c-0.132,0.32-0.116,0.644,0.066,0.945c-0.188,0.01-0.353,0.05-0.505,0.129
	c0.225,0.185,0.334,0.403,0.37,0.677c-0.225,0.089-0.446,0.155-0.684,0.211c0.195,0.78,4.301,4.691,4.591,4.297
	c0.073-0.149-0.175-0.538-0.112-0.595c0.211-0.254,0.862,0.879,1.202,0.657c0.264-0.182-0.271-0.538,0.023-0.677
	c0.621-0.32,3.079,4.489,3.389,5.057c1.176,2.24,0.396,0.872-0.499,1.179c-0.135,0.238-0.235,0.472-0.251,0.73
	c-1.437-0.33-3.003-1.163-4.162-1.975c-1.863-1.348,0.591,3.634-0.486,3.013c-0.628-0.36-1.001-0.895-1.78-0.948
	c-1.123-0.129-1.447-1.335-2.484-1.681c-0.836-0.281-4.185-0.588-3.756-2.117c0.353-1.318-1.328-2.392-1.889-2.894
	c-0.281-0.261-4.004,0.228-4.605,0.393c-1.008,0.33-2.639,0.684-3.207,1.628c-0.978,1.774-3.25-0.565-4.155-0.205
	c-0.482,0.201-0.017,1.662-0.274,2.117c-0.353,0.71-1.272,0.756-1.5,1.586c-0.403,1.51,0.753,2.748,0.228,4.149
	c-0.429,1.11-2.557,1.582-2.59,2.484c-0.02,0.495-0.109,1.037-0.565,1.298c-0.974,0.568,0.023,1.84-0.585,2.477
	c-3.283,3.356,1.054,6.626,0.32,10.293c-0.426,2.088-0.671,2.514,0.225,4.314c0.205,0.456,0.046,3.69,1.691,2.368
	c0.208,1.903,2.629,2.279,3.065,4.063c0.515,2.124,2.6,3.052,4.215,4.34c0.664,0.482,1.209,1.169,1.949,1.536
	c1.341,0.671,2.236-0.36,3.501-0.714c1.156-0.347,2.355-0.218,3.439,0.304c0.614,0.287,5.255-3.006,6.504-2.388
	c0.928,0.472,0.988,1.589,1.404,2.401c0.614,1.12,1.88-0.367,2.735,0.036c1.526,0.664,1.975,6.233,0.694,7.264
	c-0.974,0.704,1.232,3.729,1.523,4.347c0.875,1.721,1.668,4.72,1.397,6.63c-0.218,1.536,0.198,3.997-0.677,5.341
	c-0.885,1.371-1.384,2.818-2.094,4.357c-1.833,3.974-0.076,8.46-1.652,12.575c-0.961,2.104-0.789,4.36-1.298,6.554
	c-0.347,1.427-2.071,3.475-1.394,4.948c1.024-0.922,2.56-0.809,3.736-1.394c2.395-1.183,3.534-3.928,5.275-5.767
	c0.922-0.988,1.5-2.213,2.061-3.412c0.505-1.143,1.576-1.87,2.068-2.993c1.212-2.821,2.319-5.625,3.541-8.456
	c2.57-6.101,2.993-11.951,3.891-18.475C336.8,254.959,336.823,248.409,335.522,241.522z M329.434,225.452
	c-0.34-0.819-4.638-7.118-4.132-7.485c0.585-0.353,9.774,15.948,8.78,18.472C332.674,232.729,331.003,229.099,329.434,225.452
	C329.421,225.422,329.745,226.192,329.434,225.452z M333.385,254.289c-0.182-0.446,0.063-0.849,0.185-1.368
	C333.758,253.47,333.454,253.869,333.385,254.289z M332.892,256.852c-0.017-0.271-0.026-0.495,0.139-0.704
	C333.173,256.419,333.044,256.621,332.892,256.852z M331.36,277.775c-0.159,0.053-0.327,0.129-0.482,0.182
	c-0.297,0,0.538-0.413,0.585-0.439C331.406,277.672,331.406,277.722,331.36,277.775C331.254,277.96,331.406,277.722,331.36,277.775z
	 M331.598,269.272c-0.017-0.753,0.03-0.809,0.803-1.295C332.242,268.529,331.697,268.774,331.598,269.272z M332.466,265.322
	c-0.013-1.414-0.046-3.095,0.251-4.463c0.063,2.408,0.175,4.829,0.099,7.244C332.44,267.608,332.466,265.936,332.466,265.322
	C332.46,264.81,332.466,265.807,332.466,265.322z M333.735,269.844c-0.023,1.308-0.211,4.839-1.06,5.83
	c0.073-2.174,0.895-4.165,0.925-6.352C333.774,269.533,333.735,269.705,333.735,269.844
	C333.735,270.006,333.735,269.705,333.735,269.844z M334.759,256.638c-0.383,1.536-0.017,2.025-0.938,2.89
	c-0.007-1.156-0.436-3.346,0.756-4.04C334.726,255.878,334.865,256.185,334.759,256.638
	C334.594,257.272,334.865,256.185,334.759,256.638z M283.998,331.726c0.126,0.228-10.161,3.131-11.221,3.366
	c-4.271,0.895-8.608,1.46-12.982,1.661c-8.314,0.42-16.995-0.347-24.986-2.771c1.034,0.102,2.273,0.641,3.32,0.482
	c-1.001-0.624-2.226-0.406-3.105-1.179c3.33,0.529,6.501,0.277,9.556,0.684c-0.314-0.439-3.098-1.1-3.089-1.394
	c0.4-0.033,2.54-0.089,2.626-0.155c1.014-0.786-1.599-0.694-1.368-1.272c0.069-0.132,0.78,0.119,1.047-0.228
	c0.386-0.519,0-0.789,0.135-1.067c0.122-0.231,4.149-0.922,4.572-0.75c-0.469,0.277-1.017-0.053-0.813,0.743
	c-0.413-0.046-1.665-0.017-1.731,0.532c0.04-0.145,1.364,1.714,1.41,1.81c0.462,0.72,2.088,1.173,2.213,2.045
	c0.281,1.463,7.928,1.308,9.067,1.186c2.867-0.327,5.543-1.354,8.357-1.846c1.675-0.284,3.343-0.756,5.041-0.935
	c0.789-0.076,3.429-0.991,4.033-0.773C276.463,333.22,282.568,331.446,283.998,331.726
	C284.008,331.75,283.757,331.684,283.998,331.726z M330.557,287.09c0.337-0.829,0.601-1.685,1.001-2.474
	C331.307,285.458,330.94,286.271,330.557,287.09z M331.905,283.754c0.033-0.109,0.076-0.215,0.099-0.297
	C332.024,283.569,331.944,283.648,331.905,283.754z M243.481,177.908c-0.429-0.079-0.898-0.013-1.351-0.096
	c0.244-0.205,1.592-0.264,0.998-0.638c1.873-1.146,5.771-1.381,7.915-1.123c2.405,0.297,4.816-0.439,7.175-0.069
	c0.968,0.168,1.797,0.188,2.758,0.244c0.832,0.083-0.129,0.948,0.832,1.107c0.562,0.056,1.678,1.325,2.193,1.041
	c-0.04,0.885-0.433,0.277-0.139,1.1c0.056,0.198,1.054,0.756,1.004,0.826c-0.089,0.119-2.785-0.059-2.662-0.03
	c-0.202-0.03,0.059,0.406,0.228,0.347c0.529,0.122,1.688-0.04,2.279,0.007c-1.358,1.219-3.389,1.083-4.889,2.065
	c-0.918,0.604-2.306,0.548-3.316,0.905c0,1.047-0.78,2.296-1.473,3.373c-0.486,0.72-3.895-0.981-4.248-1.41
	c-0.747-0.895-2.441-3.24-0.601-3.984c2.249-0.892,0.016-0.159-0.644-0.641c0.538-0.766,1.123-0.502,1.982-0.367
	c-0.446-0.608-0.978-0.76-1.638-0.453c-0.205-0.641,0.941-1.219-0.063-1.903c-0.439-0.297-2.804,0.056-2.874-0.367
	c-0.142-1.027,2.88-0.479,3.419-1.321C248.099,176.032,245.681,178.245,243.481,177.908
	C243.051,177.829,243.877,177.968,243.481,177.908z M286.043,193.321c0.357-0.046-0.462-1.196-0.677-1.44
	c0.258,0.026,0.459,0.066,0.717-0.096c-0.178-0.529-2.543-1.876-2.705-1.787c-0.882,0.562-2.005-1.942-2.124-2.273
	c1.529-0.208,2.464,1.42,3.848,2.088c1.163,0.568,5.394,2.583,5.506,3.848c0.106,0.651-3.201,0.386-3.683,1.123
	c-0.363-0.922,0.839-0.915,0.799-1.202C287.675,193.354,286.215,193.298,286.043,193.321
	C285.947,193.335,286.542,193.249,286.043,193.321z M242.965,194.514c-0.218,0.165-3.092,2.867-3.022,3.125
	c0.066,0.251,2.976,0.069,3.478,0.357c-0.043,0.327-0.433,0.165-0.482,0.456c0.363,0,1.533-0.747,1.738-0.515
	c0.023,0.188,0,0.36-0.099,0.535c1.295,1.265,1.163-1.486,1.232-1.638c-0.905-0.122,0.201-1.401-1.338-0.859
	c0.106-0.043-1.645-0.509-1.549-0.413c-0.142-0.142,1.229-1.351,1.348-1.486C243.451,193.863,243.345,194.21,242.965,194.514
	C242.48,194.874,243.074,194.421,242.965,194.514z M245.78,197.5C245.899,197.615,245.598,197.615,245.78,197.5
	C245.806,197.54,245.743,197.533,245.78,197.5z M245.142,197.437c0.076-0.096,0.571-0.301,0.264-0.023
	C245.307,197.606,244.878,197.728,245.142,197.437C245.165,197.394,245.086,197.5,245.142,197.437z M243.114,194.14l0.013-0.003
	c0,0.003,0,0.01,0.013,0.023C243.127,194.147,243.127,194.147,243.114,194.14z M240.528,196.737c0.086,0,0.139,0,0.208,0.059
	C240.653,196.793,240.343,196.776,240.528,196.737C240.617,196.737,240.475,196.75,240.528,196.737z M212.477,230.466
	c-0.78,0.076,0.522-0.621,0.406-0.872c-0.548-1.225-4.198-1.496-4.539-2.494c0.159-0.063,0.268-0.165,0.324-0.334
	c-1.255-0.495-1.906,1.034-3.046,0.932c2.359-3.997,8.202,0.565,10.554,2.428C214.941,230.271,213.719,230.284,212.477,230.466
	C212.378,230.473,213.164,230.374,212.477,230.466z M215.539,232.587c-0.598-0.261,1.936-0.238,2.283-0.367
	c-0.515-0.773-0.063-1.189-1.031-1.483c0.898-1.083,3.825,0.172,4.75,0.588c-0.076,0.129-0.248,0.017-0.344,0.168
	c0.076,0.079,2.002,1.671,0.704,1.13c-1.424-0.608-2.226,0.244-3.234,0.809C217.884,232.293,216.579,233.089,215.539,232.587
	C215.413,232.534,215.767,232.689,215.539,232.587z M283.988,191.693c1.371,1.434-0.747,2.507-1.721,1.595
	c-0.469-0.489-0.188-1.625-1.282-1.975c0.281-0.089,0.578-0.175,0.869-0.291C281.105,189.272,283.631,191.316,283.988,191.693
	C284.295,192.02,283.886,191.574,283.988,191.693z M266.085,183.042c-0.083-0.284,1.975-0.139,2.329-0.221
	c0.535-0.086,4.631,0.33,3.191,0.991c-1.107,0.499-2.742,1.057-3.809,0.092C267.535,183.673,266.101,183.101,266.085,183.042
	C266.022,182.863,266.154,183.326,266.085,183.042z M303.52,203.356c0.469,0,1.628,1.853,1.444,2.154
	c-0.545,0.865-1.463-1.341-2.025-1.678C303.13,203.707,303.329,203.541,303.52,203.356z M239.547,178.477
	c1.381-1.064,1.711-0.469,3.452-0.277C242.45,178.691,241.099,178.807,239.547,178.477
	C239.927,178.183,241.099,178.807,239.547,178.477z M270.399,177.271c-1.034-0.301-2.117-0.344-3.105-0.733
	c1.192-0.126,2.646,0.32,3.485,0.568C271.059,177.188,270.329,177.231,270.399,177.271
	C269.368,176.97,270.498,177.297,270.399,177.271z M267.294,176.538c-0.116,0.013-0.238,0.023-0.344,0.036
	C267.056,176.468,267.178,176.458,267.294,176.538C267.178,176.551,267.244,176.521,267.294,176.538z M212.797,232.646
	c0.235,0.02,0.344,0.152,0.39,0.367c-0.142,0.585-1.952-0.251-2.154-0.502C211.674,232.147,212.252,232.349,212.797,232.646z
	 M225.815,232.607C224.864,234.958,222.439,230.968,225.815,232.607C225.676,232.94,225.244,232.326,225.815,232.607z
	 M229.577,244.039L229.577,244.039c0.023-0.063,0.079-0.089,0.172-0.096C229.696,243.976,229.65,243.996,229.577,244.039z
	 M229.908,243.976c-0.04-0.017,0.258-0.958,0.875-1.007C231.516,243.415,230.265,244.019,229.908,243.976
	C229.858,243.96,230.704,244.065,229.908,243.976z M237.555,177.968c-0.631,0.419-1.407,0.139-2.081,0.386
	C236.399,177.723,236.831,177.766,237.555,177.968C236.924,178.387,237.446,177.941,237.555,177.968z M213.26,225.376
	c-0.241-0.974-0.618-0.988,0.03-1.84C213.54,224.438,213.54,224.979,213.26,225.376C213.164,224.973,213.54,224.979,213.26,225.376z
	 M195.736,258.814c-0.01,0.344-0.175,0.476-0.522,0.353c-0.106-0.109-0.175-1.285,0.046-1.516
	C195.416,258.031,195.584,258.405,195.736,258.814C195.795,258.96,195.584,258.405,195.736,258.814z M236.253,195.567
	c0.747-0.02,1.371,0.218,2.025,0.704C237.393,196.446,236.831,196.109,236.253,195.567z M303.206,203.033l0.01,0.007
	c-0.211-0.066-1.523-0.872-1.001-1.292C302.615,201.47,303.16,202.904,303.206,203.033z M316.766,209.781
	c-0.235-0.248-0.77-0.076-0.902-0.614c0.443,0.238,0.965,0.129,1.397,0.472C317.1,209.761,316.938,209.93,316.766,209.781
	C316.528,209.534,316.938,209.93,316.766,209.781z M238.704,178.407c-0.135-0.182-0.353-0.059-0.489-0.221
	c0.363-0.423,0.882-0.274,1.341-0.403C239.53,177.829,238.995,178.833,238.704,178.407
	C238.569,178.226,238.774,178.543,238.704,178.407z M236.438,178.913c-0.601,0.456-1.216,0.895-2.041,0.819
	C234.942,179.15,235.715,179.071,236.438,178.913z M236.22,198.917c0.165,0.046,0.34,0,0.614-0.026
	c-0.806,0.981-1.734-0.38-1.533-0.433C235.157,198.494,236.181,198.917,236.22,198.917
	C236.385,198.96,235.916,198.877,236.22,198.917z M236.557,179.296c0.555-0.439,1.216-0.515,1.896-0.466
	C237.869,179.174,237.257,179.368,236.557,179.296z M299.821,205.302c-0.621-0.086,1.202-0.671,0.538,0.182
	C300.161,205.467,299.982,205.398,299.821,205.302C299.725,205.286,300.022,205.315,299.821,205.302z M320.02,209.923
	c-0.38-0.195-0.532-0.453-0.419-0.892C319.914,209.273,320.043,209.507,320.02,209.923z M237.945,182.226
	c0.228-0.4,0.486-0.495,1.282-0.486C238.836,182.173,238.407,182.246,237.945,182.226z M232.108,184.951
	c-0.462,0.248-0.793,0.423-1.295,0.39C231.16,184.951,231.569,184.967,232.108,184.951z M280.635,188.284
	c-0.096,0.185,0,0.294,0.122,0.41c-0.139-0.063-0.7-0.756-0.274-0.856C280.682,187.917,280.741,188.059,280.635,188.284
	C280.54,188.469,280.698,188.181,280.635,188.284z M207.502,227.876c-0.017,0.284-0.145,0.423-0.41,0.41
	C206.974,228.058,207.386,227.374,207.502,227.876C207.558,228.048,207.482,227.784,207.502,227.876z M234.737,311.831
	c0.205,0.089,0.327,0.248,0.347,0.479C235.087,313.014,233.822,311.937,234.737,311.831
	C234.869,311.818,234.542,311.844,234.737,311.831z M232.897,185.361c-0.159,0.238-0.357,0.344-0.704,0.472
	C232.365,185.446,232.616,185.38,232.897,185.361z M196.327,258.672C196.274,259.492,196.083,257.883,196.327,258.672
	C196.327,258.771,196.304,258.593,196.327,258.672z M238.298,186.715c0.017-0.013,0.069,0.013,0.102,0.02
	C238.298,186.794,238.126,186.794,238.298,186.715z M234.694,178.992c-0.096,0.017-0.208,0.05-0.281,0.063
	C234.479,178.969,234.588,178.962,234.694,178.992z M234.361,179.068c-0.069,0,0.036-0.017,0.053-0.017
	C234.397,179.051,234.361,179.051,234.361,179.068z M233.981,179.16l-0.017,0.013C233.964,179.16,233.964,179.16,233.981,179.16z
	 M233.981,179.16c0.083-0.109,0.225-0.089,0.357-0.092C234.245,179.19,234.129,179.207,233.981,179.16z M236.547,179.296h0.01
	C236.557,179.309,236.547,179.309,236.547,179.296z M236.547,179.309c-0.03,0.149-0.149,0.132-0.241,0.132
	C236.346,179.309,236.438,179.289,236.547,179.309z M206.795,262.134C206.617,261.992,206.914,262.23,206.795,262.134
	C206.729,262.091,206.888,262.207,206.795,262.134z M293.267,185.645C293.779,185.79,293.3,185.75,293.267,185.645
	C293.267,185.645,293.284,185.724,293.267,185.645z M280.764,188.72c-0.007,0-0.007-0.026-0.007-0.026
	c0.046,0.026,0.056,0.063,0.046,0.119C280.797,188.783,280.787,188.756,280.764,188.72
	C280.758,188.72,280.787,188.756,280.764,188.72z M236.283,179.441c0.017,0,0.017,0,0.023,0c0,0.01-0.007,0.01-0.03,0.003
	C236.276,179.444,236.283,179.444,236.283,179.441z M236.124,179.474c0.056-0.023,0.092-0.023,0.152-0.03
	C236.214,179.544,236.158,179.553,236.124,179.474C236.181,179.451,236.141,179.481,236.124,179.474z M309.786,204.447
	L309.786,204.447l0.017,0.013L309.786,204.447z M245.618,256.595C245.36,256.373,245.793,256.439,245.618,256.595
	C245.598,256.568,245.681,256.529,245.618,256.595z M284.044,331.703c-0.023,0.02-0.03,0.02-0.05,0.02
	c0.01-0.04,0.02-0.066,0.05-0.053C284.044,331.67,284.044,331.7,284.044,331.703z M283.998,331.726
	C283.998,331.723,283.988,331.723,283.998,331.726L283.998,331.726z M219.4,199.356c0.056-0.017,0.803-0.112,0.538,0.195
	C219.641,199.697,219.476,199.624,219.4,199.356C219.493,199.34,219.407,199.502,219.4,199.356z M214.693,192.766
	c-0.215-0.139-0.172-0.291,0.132-0.433C215.083,192.416,215.047,192.581,214.693,192.766
	C214.594,192.756,214.852,192.72,214.693,192.766z"/>
<path style="fill:#474F59;" d="M239.893,390.937v30.637H272.1v-30.637c-5.283,0.624-10.656,0.954-16.107,0.954
	C250.545,391.891,245.174,391.561,239.893,390.937z"/>
<path style="fill:#353F49;" d="M255.993,120.122c-75.036,0-135.868,60.839-135.868,135.878c0,69.609,52.322,126.973,119.768,134.937
	c5.281,0.624,10.651,0.954,16.1,0.954c5.451,0,10.824-0.33,16.107-0.954c67.464-7.966,119.782-65.329,119.782-134.937
	C391.881,180.961,331.053,120.122,255.993,120.122z M256.003,366.272c-60.908,0-110.281-49.357-110.281-110.272
	s49.37-110.272,110.281-110.272S366.278,195.082,366.278,256C366.278,316.911,316.911,366.272,256.003,366.272z"/>
<path style="fill:#474F59;" d="M230.638,510.75C238.982,511.571,247.44,512,256,512c8.557,0,17.014-0.429,25.356-1.249V448.36
	h-50.718L230.638,510.75L230.638,510.75z"/>
<polygon style="fill:#353F49;" points="226.423,421.574 226.423,448.36 230.638,448.36 281.356,448.36 285.574,448.36 
	285.574,421.574 272.1,421.574 239.893,421.574 "/>
<path style="fill:#FFFFFF;" d="M327.076,431.666l-3.287-8.123c6.009-2.431,11.954-5.222,17.676-8.298l4.146,7.71
	C339.615,426.182,333.378,429.109,327.076,431.666z M184.376,431.441c-6.293-2.573-12.513-5.52-18.485-8.757l4.169-7.7
	c5.701,3.089,11.631,5.896,17.633,8.351L184.376,431.441z M363.097,412.302l-4.955-7.224c5.351-3.667,10.557-7.673,15.479-11.901
	l5.708,6.649C374.163,404.259,368.703,408.45,363.097,412.302z M148.444,411.982c-5.592-3.865-11.043-8.073-16.186-12.516
	l5.721-6.633c4.905,4.238,10.105,8.258,15.443,11.948L148.444,411.982z M394.121,385.691l-6.379-5.999
	c4.443-4.724,8.678-9.748,12.585-14.924l6.993,5.279C403.221,375.471,398.782,380.736,394.121,385.691z M117.502,385.285
	c-4.641-4.975-9.067-10.253-13.147-15.687l7.006-5.259c3.895,5.189,8.113,10.224,12.542,14.967L117.502,385.285z M418.753,353.075
	l-7.515-4.492c3.336-5.576,6.395-11.38,9.087-17.266l7.961,3.65C425.459,341.137,422.251,347.228,418.753,353.075z M92.963,352.58
	c-3.478-5.86-6.669-11.964-9.484-18.141l7.967-3.634c2.686,5.89,5.731,11.717,9.048,17.306L92.963,352.58z M435.808,315.94
	l-8.308-2.771c2.058-6.167,3.792-12.499,5.156-18.818l8.562,1.846C439.785,302.827,437.965,309.473,435.808,315.94z M76.014,315.362
	c-2.131-6.441-3.928-13.097-5.351-19.773l8.572-1.827c1.351,6.372,3.069,12.714,5.094,18.855L76.014,315.362z M444.446,275.981
	l-8.707-0.908c0.657-6.299,0.991-12.721,0.991-19.076v-0.439h8.763v0.439C445.493,262.659,445.139,269.381,444.446,275.981z
	 M67.498,275.367c-0.651-6.385-0.981-12.899-0.981-19.373l0.007-1.093l8.754,0.096v0.998c0,6.177,0.311,12.397,0.935,18.485
	L67.498,275.367z M435.646,236.072c-0.707-6.468-1.777-12.949-3.171-19.258l8.552-1.889c1.46,6.62,2.58,13.414,3.33,20.193
	L435.646,236.072z M76.423,235.484l-8.701-0.981c0.76-6.772,1.903-13.56,3.392-20.186l8.545,1.916
	C78.244,222.555,77.153,229.029,76.423,235.484z M427.233,198.002c-2.088-6.154-4.529-12.252-7.264-18.122l7.938-3.696
	c2.871,6.157,5.434,12.556,7.617,19.013L427.233,198.002z M84.969,197.45l-8.284-2.831c2.2-6.438,4.78-12.826,7.67-18.98
	l7.928,3.716C89.531,185.225,87.066,191.313,84.969,197.45z M410.796,162.651c-3.356-5.549-7.052-10.98-10.99-16.146l6.96-5.312
	c4.132,5.417,8.007,11.109,11.518,16.926L410.796,162.651z M101.515,162.162l-7.485-4.555c3.531-5.807,7.426-11.485,11.568-16.879
	l6.947,5.331C108.597,151.205,104.884,156.622,101.515,162.162z M387.148,131.64c-4.473-4.714-9.242-9.229-14.174-13.421
	l5.668-6.676c5.173,4.393,10.174,9.13,14.861,14.072L387.148,131.64z M125.245,131.234l-6.339-6.048
	c4.697-4.915,9.708-9.636,14.907-14.022l5.652,6.686C134.507,122.038,129.721,126.543,125.245,131.234z M357.439,106.394
	c-5.364-3.647-10.983-7.036-16.714-10.085l4.116-7.73c5.999,3.194,11.895,6.748,17.52,10.567L357.439,106.394z M155.044,106.07
	l-4.899-7.257c5.632-3.802,11.538-7.343,17.56-10.524l4.083,7.749C166.053,99.067,160.415,102.443,155.044,106.07z M323.022,88.097
	c-6.015-2.408-12.238-4.506-18.495-6.246l2.349-8.44c6.56,1.827,13.084,4.03,19.39,6.547L323.022,88.097z M189.526,87.876
	l-3.224-8.142c6.322-2.504,12.859-4.684,19.423-6.488l2.316,8.446C201.787,83.406,195.558,85.491,189.526,87.876z M285.465,77.656
	c-6.392-1.047-12.919-1.761-19.403-2.114l0.479-8.744c6.801,0.37,13.642,1.116,20.341,2.216L285.465,77.656z M227.123,77.556
	l-1.394-8.648c6.692-1.077,13.547-1.8,20.351-2.15l0.456,8.747C240.036,75.839,233.502,76.529,227.123,77.556z"/>
<g>
</g>
<g>
</g>
<g>
</g>
<g>
</g>
<g>
</g>
<g>
</g>
<g>
</g>
<g>
</g>
<g>
</g>
<g>
</g>
<g>
</g>
<g>
</g>
<g>
</g>
<g>
</g>
<g>
</g>
</svg>
