<?xml version="1.0" encoding="iso-8859-1"?>
<!-- Generator: Adobe Illustrator 19.0.0, SVG Export Plug-In . SVG Version: 6.00 Build 0)  -->
<svg version="1.1" id="Layer_1" xmlns="http://www.w3.org/2000/svg" xmlns:xlink="http://www.w3.org/1999/xlink" x="0px" y="0px"
	 viewBox="0 0 512 512" style="enable-background:new 0 0 512 512;" xml:space="preserve">
<circle style="fill:#F2F2F2;" cx="256" cy="256" r="256"/>
<g>
	<polygon style="fill:#474F59;" points="459.211,0 450.563,0 448.036,12.602 461.745,12.602 	"/>
	<polygon style="fill:#474F59;" points="430.1,5.48 422.588,9.804 426.704,22.006 438.576,15.132 	"/>
	<polygon style="fill:#474F59;" points="407.602,24.804 403.278,32.296 412.923,40.798 419.787,28.92 	"/>
	<polygon style="fill:#474F59;" points="397.784,52.789 397.794,61.437 410.403,63.967 410.403,50.255 	"/>
	<polygon style="fill:#474F59;" points="403.278,81.917 407.602,89.412 419.787,85.302 412.923,73.427 	"/>
	<polygon style="fill:#474F59;" points="422.588,104.405 430.1,108.729 438.576,99.084 426.704,92.216 	"/>
	<polygon style="fill:#474F59;" points="450.563,114.226 459.211,114.226 461.745,101.604 448.036,101.604 	"/>
	<polygon style="fill:#474F59;" points="479.704,108.729 487.199,104.405 483.08,92.216 471.202,99.084 	"/>
	<polygon style="fill:#474F59;" points="502.186,89.412 506.507,81.917 496.858,73.427 489.997,85.302 	"/>
	<polygon style="fill:#474F59;" points="512,61.437 512,52.789 499.401,50.255 499.401,63.967 	"/>
	<polygon style="fill:#474F59;" points="506.507,32.296 502.186,24.811 489.997,28.92 496.858,40.798 	"/>
	<polygon style="fill:#474F59;" points="487.199,9.804 479.681,5.497 471.202,15.132 483.08,22.006 	"/>
</g>
<path style="fill:#353F49;" d="M454.884,12.087c-24.847,0-45.02,20.15-45.02,45.02c0,24.873,20.169,45.02,45.02,45.02
	c24.88,0,45.039-20.146,45.039-45.02C499.923,32.236,479.764,12.087,454.884,12.087z M454.884,69.576
	c-6.861,0-12.456-5.589-12.456-12.466c0-6.867,5.592-12.46,12.456-12.46c6.894,0,12.47,5.596,12.47,12.46
	C467.354,63.987,461.778,69.576,454.884,69.576z"/>
<path style="fill:#F77B55;" d="M454.884,35.503c-11.925,0-21.603,9.672-21.603,21.606c0,11.948,9.678,21.616,21.603,21.616
	c11.954,0,21.62-9.669,21.62-21.616C476.504,45.175,466.838,35.503,454.884,35.503z M454.884,67.908
	c-5.962,0-10.785-4.829-10.785-10.802c0-5.956,4.823-10.798,10.785-10.798c5.972,0,10.805,4.839,10.805,10.798
	C465.689,63.078,460.856,67.908,454.884,67.908z"/>
<g>
	<polygon style="fill:#474F59;" points="269.712,74.821 242.265,74.821 234.245,114.807 277.752,114.807 	"/>
	<polygon style="fill:#474F59;" points="177.33,92.2 153.531,105.921 166.578,144.638 204.258,122.807 	"/>
	<polygon style="fill:#474F59;" points="105.977,153.517 92.256,177.278 122.86,204.232 144.645,166.555 	"/>
	<polygon style="fill:#474F59;" points="74.831,242.265 74.851,269.735 114.85,277.752 114.85,234.258 	"/>
	<polygon style="fill:#474F59;" points="92.256,334.703 105.977,358.459 144.645,345.432 122.86,307.775 	"/>
	<polygon style="fill:#474F59;" points="153.531,406.046 177.33,419.741 204.258,389.163 166.578,367.342 	"/>
	<polygon style="fill:#474F59;" points="242.265,437.175 269.712,437.175 277.752,397.167 234.255,397.167 	"/>
	<polygon style="fill:#474F59;" points="334.713,419.741 358.486,406.046 345.432,367.342 307.762,389.163 	"/>
	<polygon style="fill:#474F59;" points="406.042,358.459 419.764,334.703 389.146,307.775 367.395,345.432 	"/>
	<polygon style="fill:#474F59;" points="437.169,269.735 437.169,242.265 397.193,234.258 397.193,277.752 	"/>
	<polygon style="fill:#474F59;" points="419.764,177.278 406.042,153.541 367.395,166.555 389.146,204.232 	"/>
	<polygon style="fill:#474F59;" points="358.486,105.921 334.663,92.243 307.762,122.807 345.432,144.638 	"/>
</g>
<path style="fill:#76D0DE;" d="M345.362,255.987c0,49.33-39.992,89.356-89.362,89.356c-49.344,0-89.339-40.025-89.339-89.356
	c0-49.347,39.995-89.352,89.339-89.352C305.367,166.635,345.362,206.64,345.362,255.987z"/>
<path style="fill:#FFFFFF;" d="M235.1,330.669c0.35,0.083,1.318-0.244,1.599-0.337c-0.664-0.525-2.107-0.578-2.94-1.103
	c0.069,0.033-2.699-1.638-2.104-0.258c0.142,0.327,0.664,0.02,0.895,0.202c-0.327,0.489-0.462,0.344-0.096,0.568
	c0-0.01-3.069-1.675,0.01-1.774c-2.127-1.916,0.139-1.315-0.542-2.53c-0.449-0.816,1.8-1.612,0.581-2.326
	c-0.578-0.33-1.212-0.274-1.81-0.684c-0.836-0.611-0.05-1.681,0.747-1.582c0.076,0,0.482-1.922,0.638-2.236
	c-0.238-0.076-1.804-2.028-1.434-2.448c0.469-0.502,2.527,1.275,3.026-0.03c0.201-0.482-0.714-1.741-0.644-2.256
	c0.932-0.106,7.036,0.142,5.992-2.672c-0.357-0.968-2.937-2.408-2.649-3.227c0.889,0.149,2.362,1.443,3.307,0.915
	c0.799-0.396,1.424,0.466,2.243-0.449c0.135-0.178,1.496-1.612,1.113-1.899c-0.42-0.01-0.654,0.238-0.674,0.71
	c-0.486-0.654,0.347-1.1,0.773-1.592c0.109,0.162,0.211,0.297,0.314,0.433c0.505-0.78,3.333-4.446,3.425-4.522
	c1.437-1.685,0.251-3.937,1.688-5.285c1.295-1.206,2.719-2.018,4.354-2.672c0.489-0.188,2.283-1.14,2.649-1.037
	c3.006,0.922,2.646-2.649,4.539-4.261c1.936-1.622,0.505-9.906,2.088-10.521c0.852-0.337,3.396-3.458,4.714-4.899
	c1.288-1.368,1.444-3.151,0.951-4.892c-0.76-2.679-1.516-1.143-3.449-2.309c-1.549-0.931-2.738-2.788-4.661-3.029
	c-1.123-0.172-2.296,0.172-3.416-0.159c-0.482-0.135-1.761-0.935-2.253-0.271c0.092-0.102-1.017,0.429-0.951,0.459
	c-0.116-0.089-0.017-1.477-0.377-1.82c-0.588-0.562-2.586-1.11-3.31-1.298c-1.668-0.419-2.074,1.543-2.497-0.806
	c-1.368-0.386-2.745-1.982-2.497-2.382c0.112-0.155-2.137-4.935-2.458-4.496c-0.023-1.609-4.985-3.594-6.26-2.821
	c-1.133,0.813-3.224-0.756-3.924-1.49c-0.77-0.865-0.756-1.761-2.084-2.309c-0.562-0.244-1.533-0.112-1.311-1.077
	c0.225-1.041-2.444-1.232-2.689-2.24c0.367,0.069,0.697-0.122,1.057-0.211c-1.05,0.353-2.316-0.393-3.343,0.433
	c-1.49,1.245-2.378-0.565-4.013-0.244c-2.081,0.386-0.677-0.367-1.982-1.169c0.532,0.33-2.421-1.348-1.728-1.298
	c-0.624-0.063,0.089,1.027-0.591,1.265c-1.08,0.393-2.022,0.651-1.315,1.946c1.189,2.365-2.487,1.252-0.76-0.357
	c0.317-0.277,0.393-3.376,0.737-3.247c-0.42-0.165-3.776,2.015-4.159,2.471c-1.077-1.721-2.9,4.281-3.505,4.327
	c-0.311-1.477-1.704-2.084-2.933-2.514c-1.034-0.396-2.084,2.074-3.429,0.714c-2.421-2.431-1.364-6.375-0.139-9.17
	c0.522-1.285-4.463-1.681-5.061-1.166c-1.232,0.988,0.185-2.045,0.178-1.962c0.139-1.206,0.406-2.035,0.951-2.012
	c0.33-0.73,2.17-4.033,1.992-4.459c-0.756-1.728-3.895,1.371-4.192,2.134c-0.314,0.756-0.925,1.186-1.206,1.866
	c-0.297,0.687-0.882-0.162-1.381,0.112c-1.344,0.76-3.293,0.367-2.996-1.592c0.317-2.368-0.591-7.056,2.061-8.684
	c0.813-0.482,0.941-2.837,1.88-3.683c0.129-0.096,2.804-1.658,2.547-1.972c0.393,0.41,2.504-0.423,2.771,0.112
	c0.208,0.462,1.447,0.928,1.883,0.674c-0.02,0.043,0.215-1.041,0.215-1.054c-0.03-0.007-0.862-0.109-0.816-0.38
	c0.076-0.36,2.613-0.132,2.689-0.119c1.202,0.092,2.078,1.08,2.973,0.482c1.381-0.938,0.529,5.206,1.074,5.767
	c0.307,0.337,0.086,1.064,0.667,1.017c0.78-0.076,1.037-7.984,3.062-9.616c1.48-1.179,3.085-2.276,4.757-3.158
	c0.505-0.254,1.86-0.912,2.15-1.44c-0.059-0.261-0.314-0.565-0.598-0.287c-0.079-0.479,0.737-0.175,0.895-0.697
	c0.142-0.509-0.429-0.671-0.357-0.859c-0.026,0.066,0.499-1.027,0.334-0.875c0.026,0.036,0.026,0.083,0.036,0.109
	c0.803,0.119-0.188-0.756-0.235-0.905c1.074,0.562,0.624-1.166,1.688-1.265c-0.753,0.317-0.614,1.156-0.519,1.665
	c0.215,1.13,1.212-1.549,1.093-1.447c1.004-0.403,2.573-1.252,3.647-2.005c-0.264-0.116-0.519,0.089-0.826-0.132
	c1.107-0.393,2.332-0.254,3.379-0.803c-0.043-1.123,0.628-2.273,1.863-2.491c1.919-0.307,4.149-1.46,6.068-2.114
	c-0.291,0.661,0.155,0.145,0.667,0.393c-0.621-1.612-4.007,2.983-2.398,2.048c1.358-0.773,5.946-1.483,6.554-2.814
	c-0.013-0.089-0.294-0.941-0.284-0.941c-1.136,0-1.219,1.387-2.61,1.381c-2.53-0.03-1.017-1.586-1.533-2.283
	c-0.459,0.096-0.836-0.017-1.14-0.36c0.248-0.053,3.373-0.786,1.724-1.163c-2.679-0.568-4.456,2.425-6.653,2.329
	c1.635-0.994,3.878-3.122,5.867-3.392c2.114-0.297,5.07,0.737,6.95-0.575c1.658-1.143,2.801-0.304,3.736-2.187
	c0.287-0.495-1.216-1.146-1.595-1.222c0.162-0.202,0.495,0,0.621-0.314c-2.507-1.136-3.022-2.24-3.336-5.13
	c-1.278,0.928-5.543,2.917-3.25-0.317c-0.829-0.353-3.429-2.53-4.426-1.024c-0.462,0.667-1.179,1.79-1.942,2.134
	c-1.708,0.783-0.192,0.624-0.756,1.774c-0.974,1.87-3.283,1.619-4.39,3.25c-0.687,1.034-0.889,1.754-1.982,2.246
	c-0.945,0.406-1.305-0.72-0.836-1.582c0.324,0.367,0.634,0.426,0.908,0.142c0.069-0.396-0.502-0.195-0.684-0.363
	c0.33-0.585,0.743-1.1,1.216-1.602c-0.165-0.076-2.56-0.459-2.481-1.09c0.162-1.305-1.49-0.595-1.78-0.981
	c1.282-1.622,1.282-2.378,3.795-3.634c0.865-0.439,5.691-2.89,6.583-2.276c-0.106,0.535-0.704,0.439-1.024,0.72
	c0.69,0.165,2.709,0.39,3.389-0.079c-0.152-0.135-0.951-1.477-0.535-1.787c-0.066,0.053,1.381,0.026,1.486-0.013
	c0.776-0.202,1.635-0.284,2.074-1.057c0.367-0.717,2.927-1.602,3.531-1.259c3.336,1.883-4.519,3.891-4.598,3.663
	c0.159,0.555,2.266-0.367,2.811,1.067c0.129,0.37,2.54,1.146,2.788,0.809c0.126-0.182-0.697-1.044-0.73-1.265
	c2.537,1.229,2.385,0.591,1.959-1.097c-0.386-1.615,1.483,0.106,1.599,0.142c0.433,0.228,2.124-0.747,2.378-1.097
	c-0.608-0.489-1.681-0.482-2.216-1.064c-0.502-0.482,1.315-0.621,0.674-1.136c-0.756-0.624-1.975-0.489-1.536-1.698
	c-0.456-0.135-0.879-0.089-1.262,0.149c0.122,0.238,0.36,0.059,0.462,0.192c-0.423,0.241-0.895,0.301-1.368,0.287
	c0.132-0.215,0.588-0.215,0.595-0.628c-1.311-0.172-2.002,0.628-3.138,0.971c0.32-0.479,0.875-0.614,1.252-0.961
	c-1.226,0.145-2.438,0.624-3.402,1.427c0.139,0.135,0.277,0.287,0.383,0.476c-0.958,0.829-2.236,1.093-3.359,1.595
	c0.201-0.743,1.017-0.555,1.275-1.123c-0.413,0.007-0.813,0.086-1.169,0.277c0.479-0.063,1.873-1.477,2.2-1.833
	c-2.028-0.231-2.894,2.408-4.803,2.018c0.393-0.459,1.209-0.211,1.473-0.938c-0.71,0.073-3.392,1.893-3.838,0.938
	c-0.023-0.059,4.922-2.018,5.454-2.732c-0.337-0.033-0.717,0.307-1.021-0.079c0.241-0.274,0.631-0.294,0.918-0.595
	c-1.615-0.02-6.451,1.942-6.081,3.069c-0.621,0.515-1.298,0.641-2.058,0.327c0.297-0.459,1.344-0.472,0.502-1.143
	c-1.572,0.581-3.079,1.212-4.578,1.876c-3.501,1.523-6.917,3.349-10.144,5.355c-5.348,3.297-9.758,7.204-14.171,11.634
	c-2.342,2.378-11.277,12.81-11.241,14.977c0.026,1.602-0.918,3.039-1.519,4.473c-0.482,1.189-0.538,2.837-1.133,3.924
	c-1.305,2.309-0.697,5.001-1.295,7.654c0.743-0.565,2.266-12.714,3.567-12.268c0.258,0.083-0.809,5.064-1.087,5.658
	c-1.113,2.553,0.344,5.685-0.377,8.341c-0.076,0.264-0.439,1.615-0.446,1.883c-1.229,0.948,0.317,2.349,0.307,3.379
	c0,0.621,3.131,3.373,3.739,3.729c1.315,0.786,1.582-0.608,2.778-0.353c1.08,0.238,1.394,2.193,1.969,3.013
	c0.766,1.163,3.7,1.027,4.208,1.572c0.327,0.403,0.053,2.652,1.387,2.963c-0.007-0.142-0.04-0.945,0.152-1.05
	c0.393-0.254,1.265,1.245,0.981,1.519c-0.429,0.092-0.809-0.069-1.123-0.469c0,0.211-0.225,3.135,0.631,2.56
	c0.017-0.178,0.063-0.367,0.076-0.548c1.13,0.495,1.041,2.134,1.84,2.375c1.083,0.271,1.896,1.671,2.725,2.045
	c0.737,0.373,0.535-2.57,1.929-2.695c1.126-0.129,1.764,2.814,2.147,3.541c0.595,1.031-0.78,3.501-0.02,4.314
	c0.77,0.809-1.929,2.771-2.071,3.61c-0.089,0.638-1.467,1.232-1.424,1.48c0.109,0.68-0.307,1.609-0.538,2.273
	c-0.694,1.82-0.347,1.995,0.836,2.824c0.03,0.026-2.203,4.476-0.922,5.629c2.035,1.668,4.717,5.771,5.368,8.367
	c1.328,3.577,3.363,5.751,6.762,7.525c2.761,1.447,4.707,3.924,4.707,7.244c0.106,1.949-0.195,4.406,0.644,6.233
	c0.578,1.285-0.519,3.386,0.314,4.542c0.522,0.737-0.175,1.13,0.142,1.81c0.327,0.72,1.064,1.922,1.06,2.745
	c-0.023,1.414-0.007,3.075,0.092,4.463c0.02,0.482-0.429,1.275-0.168,1.579c0.317,0.38,2.19,5.031,2.19,6.388
	c-0.01,0.324,1.443-0.109,0.129-1.427c1.572-0.859,1.255,2.801,1.364,2.831c-1.41-0.469-0.489-0.089-0.393,1.704
	c0.076,1.077-0.274,0.548,0.601,0.766c1.374,0.311,0,1.212,0.519,1.972c1.034,1.486,2.626,2.88,3.723,4.03
	C229.941,330.534,232.98,330.233,235.1,330.669C235.394,330.749,234.701,330.593,235.1,330.669z M240.924,185.04
	c-0.495,0.436-1.024,0.532-1.586,0.684C239.732,185.129,240.32,185.238,240.924,185.04z M236.273,184.647
	c0.357-0.05,0.641,0.043,0.829,0.301c0.003,0.135-1.889,0.238-2.18,0.72C235.16,184.825,235.864,184.974,236.273,184.647
	C236.455,184.898,235.864,184.974,236.273,184.647z M231.586,187.954C231.999,188.046,231.014,187.864,231.586,187.954
	C231.602,187.96,231.48,187.937,231.586,187.954z M229.016,183.055c0.172-0.205,0.311-0.175,0.41,0.089
	C229.244,183.355,229.099,183.326,229.016,183.055C229.039,182.956,228.999,183.17,229.016,183.055z M226.472,190.679
	C225.739,190.632,227.216,190.728,226.472,190.679C226.363,190.679,226.565,190.699,226.472,190.679z M227.216,187.719
	c-2.484,2.349-0.542,0.03-1.278,0.77c0.023,0.026,0,0.066-0.03,0.069C225.716,188.327,227.169,187.742,227.216,187.719
	C226.902,188.033,226.799,187.812,227.216,187.719z M226.317,184.981c-0.459,0.509-0.459,0.509-1.08,0.393
	C225.561,185.149,226.007,185.252,226.317,184.981z M237.416,176.207c-0.159,0.01-0.334,0.01-0.578,0.01
	C237.634,175.55,237.495,176.207,237.416,176.207C237.257,176.217,237.525,176.207,237.416,176.207z M239.206,175.012
	c-0.264,0.311-0.664,0.116-1.007,0.274C238.559,174.602,238.632,174.592,239.206,175.012z M229.138,175.844
	c0.208-0.208,0.469-0.297,0.743-0.271C230.113,175.926,228.362,176.121,229.138,175.844
	C229.244,175.646,229.046,175.874,229.138,175.844z M228.682,175.322c0.291,0.142,0.268,0.264-0.076,0.393
	C228.362,175.586,228.405,175.464,228.682,175.322C228.798,175.322,228.56,175.335,228.682,175.322z M215.664,197.556
	c0.03-0.013-3.901,1.553-3.6,0.601c-0.102,0.284,1.335-1.123,1.034-0.998c0.324-0.126,2.946-0.281,3.726-0.268
	C216.424,197.282,216.038,197.407,215.664,197.556C214.792,197.883,216.038,197.407,215.664,197.556z M218.792,195.62
	c3.237,0.317-1.922,1.298-2.474,0.717C217.055,195.7,217.914,195.505,218.792,195.62C219.05,195.647,217.914,195.505,218.792,195.62
	z M218.274,175.51c0.849-0.562,1.78-0.965,2.907-1.225c-0.823,0.684-1.929,0.968-2.94,1.242L218.274,175.51z M218.436,192.988
	c-0.142,0.135-0.284,0.129-0.41-0.007C218.234,192.895,218.403,192.839,218.436,192.988
	C218.518,193.116,218.403,192.839,218.436,192.988z M217.494,194.927C217.425,194.927,217.164,194.844,217.494,194.927
	C217.514,194.927,217.395,194.877,217.494,194.927z M216.536,193.259c1.173,0.555,0.505,2.388-0.509,0.948
	c-0.033,0.852-1.506,2.279-2.292,2.461c0.307-0.334,0.406-0.7,0.307-1.097c-0.261-0.208-0.747,0.363-1.017,0.357
	c0.112,0.495,2.117-3.442,0.429-2.289c-0.608,0.459-4.651,4.753-4.885,4.535c-0.38-0.406,1.794-3.548,1.952-3.683
	C211.909,193.361,214.792,192.449,216.536,193.259z M214.29,178.232c0.162-0.086,1.467-0.892,1.628-0.697
	c0.416,0.522-2.094,1.156-2.21,1.176C213.851,178.394,214.085,178.338,214.29,178.232
	C214.746,177.971,214.085,178.338,214.29,178.232z M214.554,188.786c-0.01,0.069-0.509,1.044-0.822,0.664
	C213.481,189.176,214.475,188.327,214.554,188.786C214.518,189.034,214.531,188.657,214.554,188.786z M211.727,180.653
	c0.155,0,2.256-1.338,2.312-0.789C214.062,180.029,211.482,180.686,211.727,180.653z M211.145,182.797
	c-0.132,0.241-0.244,0.363-0.545,0.357C210.7,182.896,210.901,182.876,211.145,182.797z M209.685,187.864
	c0.297-0.225,0.971-1.315,0.638-1.761c0.188,0.244-1.259-0.149-0.601-0.403c0.274-0.073,1.913-0.984,2.187-0.707
	c0.466,0.482-2.058,3.141-2.563,3.343C209.395,188.072,209.54,187.967,209.685,187.864
	C210.098,187.557,209.54,187.967,209.685,187.864z M211.116,191.197c1.817-0.585,2.468-1.602,3.561-0.225
	c0.406,0.519,0.327,1.856-0.638,1.539c0.264,0.076-2.94-0.225-2.349-0.575c-0.634,0.42-1.883,0.68-2.639,0.347
	C209.745,191.894,210.366,191.452,211.116,191.197C211.572,191.065,210.366,191.452,211.116,191.197z M208.589,187.845
	c0.165,0.42,0.053,0.644-0.446,0.713C208.341,188.264,208.473,188.039,208.589,187.845z M182.946,226.833
	C182.12,226.806,183.583,226.806,182.946,226.833C182.843,226.829,183.025,226.829,182.946,226.833z M193.295,234.271
	C193.074,234.337,193.936,234.11,193.295,234.271C193.255,234.281,193.417,234.255,193.295,234.271z M218.565,242.619
	C218.122,242.529,219.06,242.658,218.565,242.619C218.525,242.619,218.624,242.629,218.565,242.619z M222.694,316.657
	C221.983,316.542,223.08,316.089,222.694,316.657C222.532,316.637,222.71,316.637,222.694,316.657z M224.537,279.621
	C224.276,279.354,224.699,279.76,224.537,279.621C224.514,279.602,224.586,279.658,224.537,279.621z M224.821,302.691
	C224.358,302.863,225.326,302.529,224.821,302.691C224.702,302.727,224.89,302.665,224.821,302.691z M227.262,327.574
	c-0.327-0.198-0.327-0.31-0.023-0.363C227.602,327.343,227.612,327.485,227.262,327.574
	C227.127,327.554,227.364,327.594,227.262,327.574z M230.469,328.975c-0.334-0.066-0.301-0.188,0.106-0.39
	C230.859,328.697,230.836,328.839,230.469,328.975C230.337,328.975,230.565,328.948,230.469,328.975z M223.642,319.789
	c-0.02,0.026-0.063,0.033-0.099,0.043C223.638,319.759,223.665,319.742,223.642,319.789z M231.659,171.081h-0.007v-0.01
	L231.659,171.081z M201.299,185.463c0,0.01-0.007,0.01-0.007,0.01L201.299,185.463z M202.151,184.763L202.151,184.763
	L202.151,184.763z M343.896,239.986h0.017c-1.744-6.438-3.056-12.81-5.728-19.046c-3.158-7.406-7.32-14.399-12.341-20.685
	c-4.747-5.929-10.237-11.277-16.328-15.819c-2.97-2.223-6.048-4.238-9.279-6.081c-1.519-0.869-3.089-1.714-4.681-2.494
	c-0.697-0.33-3.128-0.968-3.501-1.562c0.03,0.274,1.42,0.974,1.619,1.169c-0.951-0.244-3.458-1.305-3.492-1.47
	c0.059-0.102,0.268,0,0.235-0.202c-1.401-0.885-6.679-2.824-7.733-1.397c0.225-0.291,3.63,3.647,3.719,4.364
	c0.225,1.523,2.629,3.151,4.149,3.657c2.127,0.714,0.538-0.248,1.427-0.73c0.601-0.297,1.12,0.968,1.675,0.677
	c-0.02-0.01,0-0.02,0.02-0.04c-0.162-0.297-0.337-0.581-0.512-0.879c-0.139,0,3.878,4.142,4.373,3.234
	c-0.479-1.133-1.186-2.405-2.332-3.449c-1.004-0.955-2.583-1.034-3.67-1.989c-0.568-0.459-2.596-1.972-2.818-2.646
	c2.686,0.076,5.8,5.784,8.499,3.574c-0.373-0.258-0.74-0.542-1.083-0.839c0.492,0.155,2.742,0.872,1.995,1.82
	c-2.157-0.367,1.807,1.83,1.876,2.048c-0.396-0.03-0.657-0.34-1.027-0.367c0.155,0.753,2.276,1.529,2.428,2.804
	c-1.282,0.188-0.714-0.786-1.569,0.271c-0.254,0.337-1.401,0.218-2.022,0.258c-1.483,0.129-3.128-2.382-4.202-3.145
	c0.446,1.391,1.222,2.061,2.781,3.049c0.756,0.423-1.057,0.621-1.031,1.252c0.05,0,0.482,0.228,0.476,0.344
	c0,0.076-0.416-0.284-0.476-0.344c0.139-0.083-0.264,2.471-0.304,2.411c1.209,1.427-1.622,1.021-1.681,1.067
	c0.231,0.32,0.677,0.476,0.756,0.951c-0.813,0.043-1.486-0.089-2.279,0.205c1.166,0.344,7.568,3.307,6.16,5.533
	c-0.426,0.743-4.767-0.168-5.576-0.198c-1.685-0.132-0.119,1.602-0.079,1.79c0.271,1.272,1.265,1.84,1.179,3.349
	c-0.089,1.037,0.998,1.07,1.318,1.962c0.297,0.766,0.139,0.829,0.938,0.958c1.434,0.172,1.453-0.043,2.666,0.882
	c0.862,0.664,1.189-0.621,2.213-0.657c2.543-0.092,0.373-0.624,1.579-0.968c1.51-0.413-0.413-2.768-0.33-3.231
	c0.116-0.621-0.086-1.311,0.737-1.536c1.295-0.34-0.33-1.695-0.429-2.048c-0.244-1.044,3.544,0.908,3.095-1.767
	c2.19,0.68,4.449,2.666,6.458,3.805c1.189,0.71,2.375,1.394,3.247,2.51c1.034,1.341-1.49,0.813-1.648,1.186
	c-0.152,0.413,2.23,1.51,2.6,1.483c0.056-0.238-0.291-1.605-0.324-1.84c-0.099-0.958-1.48-1.893-1.384-2.652
	c0.426,0.046,0.823,0.208,1.169,0.479c-1.272-1.579-3.353-1.721-4.809-2.897c-0.872-0.714-1.982-1.298-2.831-2.025
	c-0.007-0.013-1.562-1.982-0.479-1.605c1.698,0.601,3.558,2.319,5.295,3.227c1.387,0.723,1.724,1.179,2.742,2.349
	c0.406,0.479,2.537,2.937,3.006,3.029c-0.013-0.043,1.738,1.533,2.431,1.777c-0.307-0.717-0.585-1.625-0.941-2.19
	c-0.482-0.763-2.471-1.202-2.471-2.372c0.449,0.04,0.509-0.426,1.467-0.393c-0.499-0.026,0.631-0.773,0.562-0.651
	c-1.86-1.054-4.347-4.152-5.028-6.24c0.515,0.02,0.789,0.697,1.354,0.357c-0.182-0.357-0.228-0.75-0.182-1.133
	c0.132,0.182,1.893,1.665,1.546,1.972c-0.492-0.017-0.908-0.235-1.265-0.611c0.258,0.885,1.133,0.902,1.486,1.51
	c0.05-0.248-0.122-0.433,0.086-0.71c1.519,0.638,4.658,3.069,5.064,4.796c-0.664,0.063-1.952-1.377-2.405-1.034
	c-0.149,0.353-0.132,0.71,0.076,1.044c-0.215,0.007-0.396,0.053-0.571,0.142c0.258,0.202,0.377,0.453,0.423,0.75
	c-0.258,0.099-0.489,0.168-0.763,0.238c0.221,0.865,4.757,5.179,5.077,4.75c0.083-0.168-0.192-0.601-0.126-0.657
	c0.241-0.284,0.961,0.968,1.334,0.727c0.291-0.201-0.307-0.595,0.017-0.75c0.694-0.35,3.402,4.965,3.743,5.589
	c1.308,2.471,0.453,0.965-0.548,1.305c-0.142,0.264-0.261,0.522-0.277,0.806c-1.579-0.367-3.307-1.282-4.598-2.18
	c-2.065-1.49,0.651,4.01-0.535,3.33c-0.69-0.4-1.103-0.991-1.975-1.05c-1.239-0.139-1.595-1.47-2.742-1.853
	c-0.918-0.311-4.618-0.651-4.149-2.339c0.393-1.457-1.46-2.646-2.081-3.201c-0.31-0.287-4.436,0.254-5.09,0.436
	c-1.12,0.36-2.92,0.756-3.548,1.8c-1.087,1.962-3.597-0.624-4.598-0.225c-0.522,0.225-0.017,1.84-0.304,2.342
	c-0.393,0.786-1.394,0.832-1.648,1.751c-0.449,1.668,0.823,3.042,0.254,4.585c-0.479,1.225-2.834,1.747-2.867,2.745
	c-0.02,0.552-0.129,1.153-0.621,1.437c-1.074,0.624,0.026,2.031-0.641,2.735c-3.64,3.71,1.159,7.33,0.353,11.376
	c-0.482,2.302-0.743,2.778,0.244,4.763c0.218,0.502,0.056,4.076,1.866,2.619c0.225,2.098,2.897,2.52,3.379,4.489
	c0.571,2.345,2.874,3.373,4.667,4.8c0.727,0.535,1.321,1.285,2.157,1.698c1.483,0.743,2.464-0.4,3.865-0.789
	c1.268-0.377,2.596-0.238,3.795,0.34c0.671,0.32,5.81-3.33,7.198-2.643c1.017,0.519,1.077,1.757,1.543,2.656
	c0.667,1.232,2.074-0.406,3.022,0.036c1.681,0.74,2.187,6.887,0.76,8.033c-1.074,0.77,1.364,4.119,1.691,4.803
	c0.958,1.899,1.85,5.213,1.546,7.327c-0.244,1.701,0.208,4.416-0.756,5.906c-0.978,1.516-1.533,3.108-2.319,4.816
	c-2.018,4.393-0.079,9.345-1.823,13.897c-1.06,2.322-0.872,4.816-1.44,7.241c-0.37,1.576-2.276,3.838-1.533,5.47
	c1.143-1.027,2.834-0.895,4.119-1.546c2.659-1.308,3.911-4.337,5.843-6.375c1.021-1.087,1.655-2.441,2.263-3.772
	c0.575-1.262,1.747-2.065,2.299-3.307c1.335-3.115,2.563-6.22,3.914-9.345c2.841-6.742,3.303-13.206,4.298-20.421
	C345.313,254.837,345.329,247.593,343.896,239.986z M337.164,222.225c-0.377-0.905-5.13-7.872-4.565-8.268
	c0.644-0.396,10.798,17.623,9.702,20.404C340.741,230.265,338.898,226.258,337.164,222.225
	C337.14,222.195,337.514,223.037,337.164,222.225z M341.524,254.097c-0.201-0.489,0.066-0.938,0.215-1.516
	C341.94,253.192,341.603,253.625,341.524,254.097z M340.985,256.928c-0.023-0.311-0.03-0.552,0.155-0.78
	C341.293,256.449,341.154,256.664,340.985,256.928z M339.301,280.044c-0.178,0.066-0.363,0.142-0.545,0.208
	c-0.33,0,0.595-0.459,0.641-0.489C339.344,279.935,339.344,279.988,339.301,280.044
	C339.165,280.259,339.344,279.988,339.301,280.044z M339.555,270.653c-0.026-0.832,0.04-0.895,0.885-1.434
	C340.265,269.831,339.667,270.105,339.555,270.653z M340.516,266.29c-0.023-1.569-0.056-3.425,0.277-4.932
	c0.066,2.662,0.192,5.338,0.112,8.007C340.483,268.82,340.516,266.967,340.516,266.29
	C340.506,265.718,340.516,266.818,340.516,266.29z M341.914,271.287c-0.03,1.447-0.228,5.341-1.169,6.441
	c0.079-2.405,0.988-4.608,1.034-7.019C341.957,270.94,341.914,271.129,341.914,271.287
	C341.914,271.466,341.914,271.129,341.914,271.287z M343.04,256.69c-0.423,1.698-0.017,2.24-1.027,3.194
	c-0.01-1.278-0.482-3.696,0.836-4.466C343.014,255.848,343.162,256.188,343.04,256.69
	C342.865,257.387,343.162,256.188,343.04,256.69z M286.955,339.671c0.132,0.258-11.234,3.462-12.404,3.723
	c-4.734,0.988-9.52,1.612-14.359,1.837c-9.18,0.462-18.782-0.386-27.605-3.062c1.136,0.109,2.514,0.707,3.663,0.532
	c-1.107-0.697-2.451-0.453-3.429-1.305c3.676,0.585,7.178,0.307,10.56,0.753c-0.35-0.482-3.439-1.216-3.422-1.539
	c0.453-0.04,2.811-0.099,2.91-0.172c1.116-0.872-1.771-0.766-1.519-1.401c0.079-0.152,0.875,0.129,1.163-0.258
	c0.433-0.575,0-0.875,0.165-1.176c0.116-0.261,4.575-1.024,5.037-0.832c-0.512,0.314-1.12-0.053-0.898,0.826
	c-0.462-0.056-1.833-0.02-1.913,0.585c0.036-0.162,1.513,1.896,1.562,1.998c0.512,0.796,2.296,1.298,2.448,2.259
	c0.301,1.619,8.747,1.447,10.022,1.315c3.168-0.36,6.118-1.496,9.239-2.038c1.84-0.314,3.686-0.839,5.569-1.037
	c0.875-0.079,3.786-1.09,4.453-0.852C278.624,341.322,285.376,339.36,286.955,339.671
	C286.958,339.697,286.677,339.624,286.955,339.671z M338.399,290.347c0.373-0.918,0.661-1.866,1.107-2.742
	C339.231,288.543,338.822,289.439,338.399,290.347z M339.895,286.657c0.04-0.122,0.083-0.238,0.122-0.33
	C340.027,286.452,339.942,286.542,339.895,286.657z M242.173,169.683c-0.479-0.089-0.998-0.017-1.503-0.109
	c0.274-0.218,1.764-0.291,1.107-0.707c2.065-1.262,6.379-1.523,8.754-1.239c2.652,0.334,5.308-0.482,7.924-0.073
	c1.064,0.185,1.982,0.208,3.042,0.264c0.925,0.096-0.126,1.047,0.925,1.225c0.614,0.063,1.856,1.463,2.415,1.156
	c-0.04,0.974-0.469,0.304-0.159,1.212c0.069,0.218,1.169,0.839,1.116,0.908c-0.096,0.135-3.069-0.066-2.93-0.03
	c-0.235-0.036,0.046,0.453,0.241,0.383c0.588,0.135,1.873-0.04,2.524,0.01c-1.503,1.344-3.743,1.196-5.411,2.279
	c-1.011,0.667-2.55,0.608-3.663,1.001c0,1.163-0.859,2.54-1.622,3.729c-0.535,0.796-4.304-1.083-4.704-1.559
	c-0.816-0.984-2.692-3.584-0.657-4.403c2.481-0.981,0.017-0.172-0.714-0.707c0.591-0.849,1.252-0.558,2.19-0.41
	c-0.492-0.664-1.08-0.836-1.81-0.495c-0.221-0.71,1.044-1.344-0.069-2.104c-0.472-0.33-3.095,0.059-3.174-0.406
	c-0.155-1.136,3.184-0.529,3.786-1.457C247.279,167.612,244.601,170.053,242.173,169.683
	C241.697,169.594,242.612,169.749,242.173,169.683z M289.207,186.715c0.4-0.046-0.505-1.321-0.75-1.586
	c0.281,0.02,0.515,0.069,0.796-0.109c-0.198-0.581-2.821-2.071-2.993-1.982c-0.984,0.628-2.21-2.14-2.349-2.504
	c1.681-0.231,2.725,1.572,4.245,2.309c1.298,0.624,5.966,2.851,6.104,4.248c0.106,0.72-3.541,0.429-4.076,1.235
	c-0.403-1.014,0.918-1.007,0.889-1.321C291.017,186.748,289.396,186.695,289.207,186.715
	C289.102,186.728,289.769,186.636,289.207,186.715z M241.608,188.033c-0.254,0.185-3.422,3.171-3.346,3.458
	c0.076,0.274,3.293,0.069,3.835,0.386c-0.04,0.367-0.466,0.188-0.532,0.509c0.413,0,1.708-0.826,1.926-0.571
	c0.023,0.208,0,0.4-0.106,0.591c1.43,1.401,1.278-1.638,1.354-1.813c-0.998-0.135,0.218-1.549-1.467-0.948
	c0.112-0.046-1.83-0.562-1.718-0.453c-0.162-0.162,1.351-1.496,1.486-1.645C242.136,187.316,242.031,187.696,241.608,188.033
	C241.063,188.436,241.717,187.937,241.608,188.033z M244.719,191.336C244.845,191.465,244.501,191.465,244.719,191.336
	C244.739,191.379,244.673,191.369,244.719,191.336z M244.013,191.263c0.083-0.102,0.621-0.33,0.284-0.026
	C244.181,191.452,243.715,191.587,244.013,191.263C244.042,191.217,243.943,191.336,244.013,191.263z M241.76,187.62h0.017
	c0,0,0,0.013,0.01,0.026C241.776,187.633,241.776,187.633,241.76,187.62z M238.906,190.49c0.096,0,0.155,0,0.235,0.066
	C239.051,190.556,238.704,190.537,238.906,190.49C239.002,190.49,238.846,190.504,238.906,190.49z M207.908,227.761
	c-0.875,0.086,0.571-0.687,0.449-0.961c-0.604-1.354-4.641-1.655-5.014-2.752c0.168-0.069,0.297-0.185,0.353-0.37
	c-1.381-0.542-2.104,1.143-3.369,1.034c2.613-4.413,9.067,0.621,11.66,2.686C210.64,227.553,209.279,227.569,207.908,227.761
	C207.793,227.774,208.665,227.662,207.908,227.761z M211.278,230.109c-0.644-0.291,2.144-0.261,2.537-0.406
	c-0.568-0.859-0.069-1.315-1.136-1.642c0.994-1.192,4.222,0.195,5.255,0.647c-0.086,0.145-0.287,0.02-0.37,0.188
	c0.069,0.089,2.203,1.85,0.76,1.249c-1.562-0.667-2.451,0.274-3.564,0.895C213.884,229.786,212.444,230.664,211.278,230.109
	C211.155,230.056,211.555,230.225,211.278,230.109z M286.941,184.915c1.503,1.582-0.829,2.771-1.909,1.767
	c-0.515-0.548-0.208-1.8-1.42-2.187c0.314-0.096,0.644-0.192,0.965-0.317C283.754,182.239,286.545,184.498,286.941,184.915
	C287.282,185.278,286.822,184.786,286.941,184.915z M267.145,175.355c-0.083-0.311,2.187-0.152,2.573-0.244
	c0.601-0.096,5.133,0.36,3.531,1.097c-1.226,0.548-3.019,1.166-4.212,0.096C268.754,176.052,267.162,175.415,267.145,175.355
	C267.089,175.154,267.231,175.672,267.145,175.355z M308.525,197.807c0.512,0,1.797,2.045,1.595,2.378
	c-0.608,0.958-1.622-1.477-2.256-1.856C308.095,198.19,308.316,198.005,308.525,197.807z M237.822,170.311
	c1.529-1.173,1.889-0.515,3.819-0.307C241.033,170.549,239.543,170.674,237.822,170.311
	C238.239,169.987,239.543,170.674,237.822,170.311z M271.922,168.977c-1.146-0.33-2.335-0.377-3.439-0.809
	c1.321-0.142,2.923,0.353,3.852,0.624C272.652,168.884,271.842,168.937,271.922,168.977
	C270.779,168.649,272.034,169.006,271.922,168.977z M268.483,168.167c-0.126,0.013-0.261,0.023-0.37,0.04
	C268.222,168.091,268.351,168.078,268.483,168.167C268.357,168.18,268.433,168.154,268.483,168.167z M208.258,230.175
	c0.261,0.02,0.393,0.168,0.443,0.41c-0.159,0.641-2.16-0.281-2.401-0.558C207.013,229.627,207.661,229.848,208.258,230.175z
	 M222.651,230.129C221.597,232.729,218.918,228.319,222.651,230.129C222.492,230.496,222.023,229.819,222.651,230.129z
	 M226.803,242.767L226.803,242.767c0.03-0.069,0.089-0.102,0.198-0.109C226.935,242.698,226.882,242.718,226.803,242.767z
	 M227.169,242.698c-0.046-0.017,0.291-1.057,0.971-1.116C228.94,242.077,227.559,242.741,227.169,242.698
	C227.123,242.681,228.045,242.8,227.169,242.698z M235.632,169.749c-0.71,0.466-1.562,0.155-2.309,0.426
	C234.344,169.479,234.816,169.525,235.632,169.749C234.922,170.212,235.5,169.716,235.632,169.749z M208.77,222.139
	c-0.274-1.08-0.68-1.09,0.033-2.028C209.084,221.105,209.084,221.706,208.77,222.139
	C208.665,221.696,209.084,221.706,208.77,222.139z M189.404,259.098c-0.013,0.37-0.188,0.522-0.571,0.383
	c-0.116-0.116-0.201-1.417,0.046-1.668C189.05,258.233,189.245,258.643,189.404,259.098
	C189.473,259.257,189.245,258.643,189.404,259.098z M234.186,189.199c0.823-0.02,1.513,0.238,2.236,0.77
	C235.437,190.167,234.816,189.797,234.186,189.199z M308.188,197.447l0.007,0.01c-0.248-0.076-1.695-0.961-1.107-1.434
	C307.517,195.726,308.135,197.302,308.188,197.447z M323.161,204.902c-0.261-0.274-0.846-0.086-0.998-0.677
	c0.492,0.268,1.067,0.149,1.543,0.522C323.528,204.883,323.356,205.071,323.161,204.902
	C322.9,204.628,323.356,205.071,323.161,204.902z M236.894,170.232c-0.155-0.201-0.393-0.066-0.538-0.244
	c0.39-0.466,0.968-0.304,1.47-0.446C237.799,169.594,237.215,170.707,236.894,170.232
	C236.739,170.034,236.97,170.38,236.894,170.232z M234.387,170.793c-0.664,0.502-1.348,0.991-2.256,0.902
	C232.742,171.058,233.581,170.968,234.387,170.793z M234.156,192.898c0.172,0.05,0.37-0.003,0.661-0.033
	c-0.892,1.09-1.913-0.42-1.681-0.476C232.973,192.433,234.1,192.895,234.156,192.898
	C234.324,192.948,233.816,192.859,234.156,192.898z M234.526,171.216c0.614-0.486,1.338-0.571,2.091-0.509
	C235.976,171.081,235.299,171.295,234.526,171.216z M304.435,199.957c-0.69-0.099,1.318-0.74,0.591,0.201
	C304.812,200.139,304.617,200.057,304.435,199.957C304.333,199.941,304.653,199.974,304.435,199.957z M326.758,205.064
	c-0.429-0.211-0.585-0.502-0.466-0.988C326.639,204.341,326.785,204.598,326.758,205.064z M236.052,174.453
	c0.254-0.439,0.542-0.545,1.414-0.535C237.043,174.394,236.57,174.473,236.052,174.453z M229.607,177.466
	c-0.512,0.277-0.885,0.472-1.437,0.433C228.56,177.466,228.999,177.482,229.607,177.466z M283.232,181.149
	c-0.112,0.202-0.007,0.324,0.135,0.456c-0.152-0.069-0.77-0.842-0.297-0.948C283.285,180.743,283.354,180.898,283.232,181.149
	C283.119,181.347,283.304,181.037,283.232,181.149z M202.412,224.907c-0.02,0.314-0.168,0.469-0.453,0.453
	C201.824,225.102,202.29,224.348,202.412,224.907C202.475,225.098,202.392,224.801,202.412,224.907z M232.504,317.691
	c0.238,0.096,0.36,0.271,0.393,0.529C232.897,318.989,231.5,317.8,232.504,317.691C232.659,317.671,232.289,317.704,232.504,317.691
	z M230.469,177.915c-0.168,0.264-0.396,0.38-0.773,0.522C229.891,178.014,230.159,177.941,230.469,177.915z M190.058,258.937
	C190.002,259.838,189.793,258.065,190.058,258.937C190.054,259.046,190.031,258.847,190.058,258.937z M236.438,179.418
	c0.023-0.02,0.083,0.013,0.122,0.02C236.438,179.497,236.25,179.497,236.438,179.418z M232.455,170.876
	c-0.099,0.02-0.221,0.053-0.314,0.069C232.227,170.853,232.346,170.846,232.455,170.876z M232.101,170.965
	c-0.076,0,0.033-0.02,0.043-0.02C232.131,170.949,232.111,170.949,232.101,170.965z M231.675,171.071l-0.017,0.01
	C231.652,171.071,231.659,171.071,231.675,171.071z M231.675,171.071c0.086-0.126,0.248-0.102,0.403-0.106
	C231.972,171.1,231.834,171.12,231.675,171.071z M234.509,171.216h0.017C234.519,171.226,234.509,171.233,234.509,171.216z
	 M234.509,171.226c-0.033,0.168-0.165,0.152-0.271,0.152C234.281,171.226,234.387,171.206,234.509,171.226z M201.632,262.768
	C201.427,262.606,201.751,262.864,201.632,262.768C201.56,262.715,201.728,262.841,201.632,262.768z M297.198,178.232
	C297.749,178.394,297.231,178.348,297.198,178.232C297.198,178.232,297.218,178.318,297.198,178.232z M283.38,181.628
	c-0.003,0-0.003-0.026-0.013-0.026c0.056,0.026,0.066,0.069,0.056,0.132C283.42,181.704,283.407,181.671,283.38,181.628
	C283.377,181.628,283.407,181.671,283.38,181.628z M234.222,171.378c0.017,0,0.017,0,0.017,0c0,0.01,0,0.01-0.033,0.003
	C234.205,171.381,234.222,171.381,234.222,171.378z M234.047,171.414c0.056-0.026,0.109-0.026,0.162-0.033
	C234.139,171.487,234.08,171.503,234.047,171.414C234.1,171.388,234.057,171.421,234.047,171.414z M315.445,199.013L315.445,199.013
	l0.017,0.013L315.445,199.013z M244.521,256.638C244.241,256.4,244.733,256.472,244.521,256.638
	C244.501,256.621,244.601,256.568,244.521,256.638z M287.001,339.648c-0.023,0.02-0.04,0.02-0.046,0.02
	c0.003-0.043,0.007-0.073,0.046-0.056C287.001,339.615,287.001,339.641,287.001,339.648z M286.955,339.671
	C286.955,339.667,286.941,339.667,286.955,339.671L286.955,339.671z M215.562,193.387c0.056-0.02,0.885-0.129,0.595,0.211
	C215.833,193.757,215.644,193.681,215.562,193.387C215.664,193.368,215.565,193.549,215.562,193.387z M210.359,186.104
	c-0.238-0.149-0.188-0.32,0.152-0.479C210.795,185.717,210.742,185.896,210.359,186.104
	C210.237,186.091,210.531,186.051,210.359,186.104z"/>
<path style="fill:#353F49;" d="M255.983,113.182c-78.865,0-142.822,63.901-142.822,142.812c0,78.904,63.957,142.812,142.822,142.812
	c78.934,0,142.874-63.911,142.874-142.812C398.858,177.079,334.921,113.182,255.983,113.182z M255.993,368.359
	c-62.035,0-112.349-50.305-112.349-112.359c0-62.058,50.311-112.372,112.349-112.372c62.071,0,112.372,50.311,112.372,112.372
	C368.366,318.051,318.064,368.359,255.993,368.359z"/>
<g>
</g>
<g>
</g>
<g>
</g>
<g>
</g>
<g>
</g>
<g>
</g>
<g>
</g>
<g>
</g>
<g>
</g>
<g>
</g>
<g>
</g>
<g>
</g>
<g>
</g>
<g>
</g>
<g>
</g>
</svg>
