<?xml version="1.0" encoding="iso-8859-1"?>
<!-- Generator: Adobe Illustrator 19.0.0, SVG Export Plug-In . SVG Version: 6.00 Build 0)  -->
<svg version="1.1" id="Layer_1" xmlns="http://www.w3.org/2000/svg" xmlns:xlink="http://www.w3.org/1999/xlink" x="0px" y="0px"
	 viewBox="0 0 512.005 512.005" style="enable-background:new 0 0 512.005 512.005;" xml:space="preserve">
<path style="fill:#FFDB79;" d="M27.638,224.925c-7.05,0-14.162,2.711-19.538,8.11C2.701,238.422,0,245.51,0,252.579
	c0,7.089,2.701,14.157,8.1,19.54c5.379,5.399,12.488,8.133,19.538,8.133c-7.078,0-14.152,2.698-19.538,8.074
	C2.719,293.741,0,300.814,0,307.903c0,7.076,2.719,14.147,8.1,19.54c5.386,5.391,12.475,8.097,19.551,8.097h0.026
	c-7.091,0-14.167,2.719-19.564,8.11C2.719,349.052,0,356.125,0,363.222c0,7.06,2.719,14.113,8.115,19.52
	c5.396,5.386,12.472,8.095,19.564,8.095h-0.018c-7.071,0-14.159,2.714-19.558,8.136C2.719,404.348,0,411.421,0,418.502
	c0,7.091,2.719,14.147,8.1,19.576c5.399,5.371,12.488,8.074,19.558,8.074H356.04V224.925H27.638z"/>
<path style="fill:#353F49;" d="M56.125,455.564c-15.657,0-28.488-12.808-28.488-28.46V84.919c0-15.652,12.831-28.488,28.488-28.488
	h165.371c15.68,0,28.46,12.836,28.46,28.488v342.185c0,15.652-12.777,28.46-28.46,28.46L56.125,455.564L56.125,455.564z"/>
<g>
	<path style="fill:#474F59;" d="M163.469,426.149c0,3.732-3.026,6.776-6.781,6.776h-35.722c-3.73,0-6.812-3.044-6.812-6.776v-2.875
		c0-3.732,3.082-6.822,6.812-6.822h35.722c3.756,0,6.781,3.09,6.781,6.822V426.149z"/>
	<path style="fill:#474F59;" d="M168.614,87.912c0,1.541-1.229,2.778-2.757,2.778h-54.049c-1.546,0-2.785-1.236-2.785-2.778v-1.165
		c0-1.495,1.239-2.77,2.785-2.77h54.052c1.526,0,2.757,1.275,2.757,2.77v1.165H168.614z"/>
</g>
<rect x="43.802" y="118.243" style="fill:#FFFFFF;" width="190.054" height="275.61"/>
<rect x="54.838" y="129.251" style="fill:#F77B55;" width="167.987" height="253.542"/>
<g>
	<rect x="63.365" y="341.603" style="fill:#EE643C;" width="30.136" height="30.134"/>
	<rect x="103.626" y="341.603" style="fill:#EE643C;" width="30.134" height="30.134"/>
	<rect x="143.872" y="341.603" style="fill:#EE643C;" width="30.149" height="30.134"/>
	<rect x="184.131" y="341.603" style="fill:#EE643C;" width="30.152" height="30.134"/>
</g>
<g>
	<rect x="63.365" y="261.091" style="fill:#FF916E;" width="30.136" height="30.139"/>
	<rect x="103.626" y="261.091" style="fill:#FF916E;" width="30.134" height="30.139"/>
	<rect x="63.365" y="220.822" style="fill:#FF916E;" width="30.136" height="30.154"/>
	<rect x="103.626" y="220.822" style="fill:#FF916E;" width="30.134" height="30.154"/>
	<rect x="143.872" y="220.822" style="fill:#FF916E;" width="30.149" height="30.154"/>
	<rect x="184.131" y="220.822" style="fill:#FF916E;" width="30.152" height="30.154"/>
	<rect x="63.365" y="180.579" style="fill:#FF916E;" width="30.136" height="30.149"/>
	<rect x="103.626" y="180.579" style="fill:#FF916E;" width="30.134" height="30.149"/>
	<rect x="143.872" y="180.579" style="fill:#FF916E;" width="30.149" height="30.149"/>
	<rect x="184.131" y="180.579" style="fill:#FF916E;" width="30.152" height="30.149"/>
	<rect x="63.365" y="140.297" style="fill:#FF916E;" width="30.136" height="30.154"/>
	<rect x="103.626" y="140.297" style="fill:#FF916E;" width="30.134" height="30.154"/>
	<rect x="143.872" y="140.297" style="fill:#FF916E;" width="30.149" height="30.154"/>
	<rect x="184.131" y="140.297" style="fill:#FF916E;" width="30.152" height="30.154"/>
</g>
<path style="fill:#FFDB79;" d="M272.031,140.904c0-15.252-12.383-27.645-27.656-27.645c-15.278,0-27.658,12.393-27.658,27.645
	c0,76.838,62.5,139.348,139.325,139.348v-55.327C309.714,224.925,272.031,187.237,272.031,140.904z"/>
<rect x="356.045" y="215.523" style="fill:#353F49;" width="155.96" height="240.051"/>
<path style="fill:#FFFFFF;" d="M403.548,421.288c0,7.34-5.932,13.268-13.256,13.268c-7.324,0-13.256-5.926-13.256-13.268
	c0-7.309,5.932-13.245,13.256-13.245C397.617,408.042,403.548,413.979,403.548,421.288z"/>
<g>
	<path style="fill:#FFDB79;" d="M55.311,252.584c0,15.265-12.388,27.666-27.661,27.666C12.375,280.252,0,267.852,0,252.584
		c0-15.281,12.375-27.658,27.651-27.658C42.924,224.925,55.311,237.303,55.311,252.584z"/>
	<path style="fill:#FFDB79;" d="M55.311,307.89c0,15.299-12.388,27.669-27.661,27.669C12.375,335.556,0,323.186,0,307.89
		c0-15.26,12.375-27.638,27.651-27.638C42.924,280.252,55.311,292.63,55.311,307.89z"/>
	<path style="fill:#FFDB79;" d="M55.311,363.222c0,15.268-12.388,27.653-27.661,27.653C12.375,390.875,0,378.49,0,363.222
		c0-15.288,12.375-27.666,27.651-27.666C42.924,335.556,55.311,347.933,55.311,363.222z"/>
	<path style="fill:#FFDB79;" d="M55.311,418.525c0,15.273-12.388,27.674-27.661,27.674C12.375,446.199,0,433.798,0,418.525
		c0-15.268,12.375-27.653,27.651-27.653C42.924,390.875,55.311,403.258,55.311,418.525z"/>
</g>
<g>
</g>
<g>
</g>
<g>
</g>
<g>
</g>
<g>
</g>
<g>
</g>
<g>
</g>
<g>
</g>
<g>
</g>
<g>
</g>
<g>
</g>
<g>
</g>
<g>
</g>
<g>
</g>
<g>
</g>
</svg>
