<?xml version="1.0" encoding="iso-8859-1"?>
<!-- Generator: Adobe Illustrator 19.0.0, SVG Export Plug-In . SVG Version: 6.00 Build 0)  -->
<svg version="1.1" id="Layer_1" xmlns="http://www.w3.org/2000/svg" xmlns:xlink="http://www.w3.org/1999/xlink" x="0px" y="0px"
	 viewBox="0 0 512 512" style="enable-background:new 0 0 512 512;" xml:space="preserve">
<circle style="fill:#FFDB79;" cx="256" cy="256" r="256"/>
<rect x="41.29" y="111.147" style="fill:#FFFFFF;" width="248.105" height="324.872"/>
<rect x="41.29" y="75.968" style="fill:#F77B55;" width="248.105" height="35.179"/>
<g>
	<rect x="60.37" y="130.246" style="fill:#E6E5E5;" width="95.424" height="97.937"/>
	<rect x="174.889" y="130.246" style="fill:#E6E5E5;" width="95.42" height="97.937"/>
	<rect x="60.37" y="362.925" style="fill:#E6E5E5;" width="209.953" height="9.741"/>
	<rect x="60.37" y="382.381" style="fill:#E6E5E5;" width="209.953" height="9.778"/>
	<rect x="60.37" y="401.903" style="fill:#E6E5E5;" width="209.953" height="9.741"/>
	<rect x="60.37" y="247.256" style="fill:#E6E5E5;" width="209.953" height="96.586"/>
</g>
<path style="fill:#353F49;" d="M222.604,89.481c0-7.429,6.055-13.513,13.49-13.513h221.134c7.409,0,13.48,6.085,13.48,13.513
	v333.044c0,7.426-6.071,13.484-13.48,13.484H236.095c-7.436,0-13.49-6.058-13.49-13.484V89.481z"/>
<g>
	<path style="fill:#474F59;" d="M332.975,420.956c-3.303,0-6.009-2.679-6.009-5.999v-1.467c0-3.32,2.705-6.022,6.009-6.022h27.371
		c3.293,0,6.002,2.702,6.002,6.022v1.467c0,3.323-2.709,5.999-6.002,5.999H332.975z"/>
	<path style="fill:#474F59;" d="M346.631,99.741c-3.416,0-6.137-2.748-6.137-6.194c0-3.376,2.722-6.174,6.137-6.174
		c3.399,0,6.19,2.798,6.19,6.174C352.821,96.993,350.03,99.741,346.631,99.741z"/>
</g>
<path style="fill:#353F49;" d="M346.65,96.147c-1.424,0-2.563-1.163-2.563-2.6c0-1.424,1.143-2.553,2.563-2.553
	c1.427,0,2.586,1.133,2.586,2.553C349.24,94.988,348.077,96.147,346.65,96.147z"/>
<rect x="236.676" y="111.147" style="fill:#FFFFFF;" width="219.962" height="281.27"/>
<rect x="306.671" y="320.413" style="fill:#474F59;" width="79.905" height="14.904"/>
<rect x="306.671" y="342.908" style="fill:#F77B55;" width="79.905" height="14.911"/>
<g>
	<circle id="SVGID_1_" style="fill:#F77B55;" cx="346.641" cy="222.274" r="68.72"/>
</g>
<g>
	<g>
		<polygon style="fill:#474F59;" points="367.659,198.405 325.609,198.405 322.742,259.548 370.549,259.548 		"/>
		<g>
			<path style="fill:#FFFFFF;" d="M299.137,272.714l-0.102,0.33l-2.857,9.09h-0.01l-3.769,11.928h108.488l-3.769-11.928
				l-4.139-13.071c-0.661-2.104-1.761-4.089-3.359-5.807c-1.586-1.728-3.485-2.973-5.526-3.805l-21.732-8.615
				c-1.083-0.439-2.071-1.202-2.788-2.24c-0.707-1.064-1.041-2.243-1.041-3.432v-10.574h-23.763v10.574
				c0,1.189-0.353,2.368-1.057,3.432c-0.723,1.034-1.698,1.8-2.788,2.24l-21.722,8.615c-2.038,0.832-3.934,2.078-5.533,3.805
				c-1.602,1.718-2.715,3.703-3.383,5.807L299.137,272.714L299.137,272.714z"/>
			<path style="fill:#FFFFFF;" d="M346.644,180.782c-13.011,0-22.251,9.467-22.251,29.541c0,16.982,9.963,31.321,22.251,31.321
				c12.288,0,22.254-14.343,22.254-31.321C368.901,190.249,359.632,180.782,346.644,180.782z"/>
		</g>
		<g>
			<path style="fill:#474F59;" d="M366.618,181.859h-19.975h-19.988c0,0-2.821,19.965,0.793,24.024
				c0.165-1.652,1.605-2.117,4.258-2.124c0,0,2.24-2.481,3.838-9.335c1.209,4.664,0.657,9.523,0.657,9.523
				c2.841,0.201,6.339,0.489,10.438,0.509c1.04-0.007,2.051-0.026,2.996-0.046c0,0,1.202-0.75,1.734-2.537
				c0.763,0.968,0.869,2.395,0.869,2.395c8.539-0.459,13.289-1.453,13.573,1.612C369.462,201.824,366.618,181.859,366.618,181.859z"
				/>
			<path style="fill:#474F59;" d="M330.924,250.834c1.09-0.439,2.065-1.202,2.788-2.24c0.704-1.064,1.057-2.243,1.057-3.432v-4.502
				h-6.696c-0.859-6.309-1.358-12.536-1.358-18.422c0-17.428,1.209-23.958,6.025-29.838c6.23-7.594,13.907-9.153,13.907-9.153
				s7.68,1.559,13.907,9.153c4.829,5.88,5.989,12.41,5.989,29.838c0,5.886-0.459,12.113-1.341,18.422h-6.669v4.502
				c0,1.189,0.337,2.368,1.041,3.432c0.717,1.034,1.704,1.8,2.788,2.24l12.453,4.955c1.523-1.913,2.309-4.212,2.309-6.534v-8.598
				c0-14.438-0.433-33.27-3.492-47.018c-2.672-11.796-12.744-23.182-26.987-20.09c-14.25-3.092-24.318,8.294-26.987,20.09
				c-3.079,13.748-3.508,32.58-3.508,47.018v8.598c0,2.319,0.793,4.618,2.345,6.534L330.924,250.834z"/>
			<path style="fill:#474F59;" d="M311.22,294.06h70.815c-3.313-7.251-5.345-16.998-5.345-27.803c0-3.247,0.195-6.428,0.562-9.49
				h-0.02l-5.817-2.316l-2.501,10.042c-1.179,4.813-3.918,9.292-8.123,12.569c-4.218,3.303-8.889,4.684-14.148,4.684
				c-5.285,0-9.949-1.381-14.154-4.684c-4.188-3.277-6.943-7.756-8.116-12.569l-2.514-10.042l-5.807,2.316h-0.05
				c0.353,3.062,0.568,6.243,0.568,9.49C316.575,277.061,314.53,286.809,311.22,294.06z"/>
		</g>
	</g>
</g>
<g>
</g>
<g>
</g>
<g>
</g>
<g>
</g>
<g>
</g>
<g>
</g>
<g>
</g>
<g>
</g>
<g>
</g>
<g>
</g>
<g>
</g>
<g>
</g>
<g>
</g>
<g>
</g>
<g>
</g>
</svg>
