<?xml version="1.0" encoding="iso-8859-1"?>
<!-- Generator: Adobe Illustrator 19.0.0, SVG Export Plug-In . SVG Version: 6.00 Build 0)  -->
<svg version="1.1" id="Layer_1" xmlns="http://www.w3.org/2000/svg" xmlns:xlink="http://www.w3.org/1999/xlink" x="0px" y="0px"
	 viewBox="0 0 512 512" style="enable-background:new 0 0 512 512;" xml:space="preserve">
<circle style="fill:#ADECF7;" cx="256" cy="256" r="256"/>
<path style="fill:#FFFFFF;" d="M90.135,228.943c-6.141,0-12.331,2.362-17.015,7.062c-4.704,4.691-7.056,10.864-7.056,17.022
	c0,6.17,2.352,12.328,7.056,17.018c4.684,4.704,10.874,7.082,17.015,7.082c-6.164,0-12.324,2.349-17.015,7.036
	c-4.687,4.714-7.056,10.874-7.056,17.051c0,6.16,2.368,12.321,7.056,17.018c4.691,4.694,10.864,7.049,17.028,7.049h0.023
	c-6.177,0-12.338,2.368-17.038,7.069c-4.7,4.704-7.069,10.864-7.069,17.045c0,6.147,2.368,12.291,7.069,16.998
	c4.7,4.691,10.864,7.049,17.038,7.049h-0.017c-6.161,0-12.334,2.365-17.035,7.089c-4.687,4.681-7.056,10.844-7.056,17.012
	c0,6.17,2.368,12.321,7.056,17.048c4.7,4.677,10.874,7.033,17.035,7.033h286.01v-192.68H90.135z"/>
<path style="fill:#353F49;" d="M114.949,429.816c-13.639,0-24.814-11.152-24.814-24.787v-298.03
	c0-13.632,11.175-24.811,24.814-24.811h144.034c13.659,0,24.787,11.178,24.787,24.811v298.034c0,13.636-11.129,24.787-24.787,24.787
	H114.949V429.816z"/>
<g>
	<path style="fill:#474F59;" d="M208.443,404.196c0,3.254-2.636,5.903-5.906,5.903h-31.113c-3.247,0-5.933-2.649-5.933-5.903v-2.501
		c0-3.25,2.686-5.946,5.933-5.946h31.113c3.27,0,5.906,2.692,5.906,5.946V404.196z"/>
	<path style="fill:#474F59;" d="M212.923,109.604c0,1.344-1.07,2.421-2.401,2.421h-47.078c-1.344,0-2.425-1.077-2.425-2.421v-1.011
		c0-1.308,1.08-2.411,2.425-2.411h47.078c1.328,0,2.401,1.107,2.401,2.411V109.604z"/>
</g>
<rect x="104.207" y="136.027" style="fill:#ADECF7;" width="165.525" height="240.045"/>
<rect x="113.826" y="145.606" style="fill:#92DEEB;" width="146.3" height="220.824"/>
<g>
	<rect x="121.255" y="330.587" style="fill:#76D0DE;" width="26.247" height="26.247"/>
	<rect x="156.309" y="330.587" style="fill:#76D0DE;" width="26.244" height="26.247"/>
	<rect x="191.376" y="330.587" style="fill:#76D0DE;" width="26.257" height="26.247"/>
	<rect x="226.436" y="330.587" style="fill:#76D0DE;" width="26.261" height="26.247"/>
</g>
<g>
	<rect x="121.255" y="260.426" style="fill:#ADECF7;" width="26.247" height="26.254"/>
	<rect x="156.309" y="260.426" style="fill:#ADECF7;" width="26.244" height="26.254"/>
	<rect x="121.255" y="225.346" style="fill:#ADECF7;" width="26.247" height="26.261"/>
	<rect x="156.309" y="225.346" style="fill:#ADECF7;" width="26.244" height="26.261"/>
	<rect x="191.376" y="225.346" style="fill:#ADECF7;" width="26.257" height="26.261"/>
	<rect x="226.436" y="225.346" style="fill:#ADECF7;" width="26.261" height="26.261"/>
	<rect x="121.255" y="190.299" style="fill:#ADECF7;" width="26.247" height="26.257"/>
	<rect x="156.309" y="190.299" style="fill:#ADECF7;" width="26.244" height="26.257"/>
	<rect x="191.376" y="190.299" style="fill:#ADECF7;" width="26.257" height="26.257"/>
	<rect x="226.436" y="190.299" style="fill:#ADECF7;" width="26.261" height="26.257"/>
	<rect x="121.255" y="155.232" style="fill:#ADECF7;" width="26.247" height="26.261"/>
	<rect x="156.309" y="155.232" style="fill:#ADECF7;" width="26.244" height="26.261"/>
	<rect x="191.376" y="155.232" style="fill:#ADECF7;" width="26.257" height="26.261"/>
	<rect x="226.436" y="155.232" style="fill:#ADECF7;" width="26.261" height="26.261"/>
</g>
<path style="fill:#FFFFFF;" d="M302.995,155.76c0-13.286-10.785-24.081-24.087-24.081c-13.305,0-24.09,10.795-24.09,24.081
	c0,66.923,54.434,121.364,121.347,121.364v-48.181C335.816,228.943,302.995,196.116,302.995,155.76z"/>
<rect x="376.171" y="220.741" style="fill:#353F49;" width="135.829" height="209.061"/>
<g>
	<path style="fill:#FFFFFF;" d="M417.541,399.968c0,6.392-5.166,11.555-11.545,11.555c-6.379,0-11.545-5.163-11.545-11.555
		c0-6.369,5.166-11.535,11.545-11.535C412.375,388.433,417.541,393.599,417.541,399.968z"/>
	<path style="fill:#FFFFFF;" d="M114.239,253.034c0,13.292-10.788,24.094-24.09,24.094c-13.305,0-24.084-10.802-24.084-24.094
		c0-13.312,10.778-24.09,24.084-24.09C103.45,228.943,114.239,239.718,114.239,253.034z"/>
	<path style="fill:#FFFFFF;" d="M114.239,301.201c0,13.319-10.788,24.094-24.09,24.094c-13.305,0-24.084-10.775-24.084-24.094
		c0-13.289,10.778-24.074,24.084-24.074C103.45,277.127,114.239,287.909,114.239,301.201z"/>
	<path style="fill:#FFFFFF;" d="M114.239,349.392c0,13.292-10.788,24.081-24.09,24.081c-13.305,0-24.084-10.788-24.084-24.081
		c0-13.315,10.778-24.1,24.084-24.1C103.45,325.295,114.239,336.077,114.239,349.392z"/>
	<path style="fill:#FFFFFF;" d="M114.239,397.56c0,13.302-10.788,24.1-24.09,24.1c-13.305,0-24.084-10.798-24.084-24.1
		c0-13.299,10.778-24.087,24.084-24.087C103.45,373.473,114.239,384.261,114.239,397.56z"/>
</g>
<g>
</g>
<g>
</g>
<g>
</g>
<g>
</g>
<g>
</g>
<g>
</g>
<g>
</g>
<g>
</g>
<g>
</g>
<g>
</g>
<g>
</g>
<g>
</g>
<g>
</g>
<g>
</g>
<g>
</g>
</svg>
