<?xml version="1.0" encoding="iso-8859-1"?>
<!-- Generator: Adobe Illustrator 19.0.0, SVG Export Plug-In . SVG Version: 6.00 Build 0)  -->
<svg version="1.1" id="Layer_1" xmlns="http://www.w3.org/2000/svg" xmlns:xlink="http://www.w3.org/1999/xlink" x="0px" y="0px"
	 viewBox="0 0 512 512" style="enable-background:new 0 0 512 512;" xml:space="preserve">
<rect y="83.305" style="fill:#F2F2F2;" width="295.808" height="387.328"/>
<rect y="41.37" style="fill:#F77B55;" width="295.808" height="41.943"/>
<g>
	<rect x="22.751" y="106.061" style="fill:#CCCBCA;" width="113.766" height="116.774"/>
	<rect x="159.283" y="106.061" style="fill:#CCCBCA;" width="113.766" height="116.774"/>
	<rect x="22.751" y="383.488" style="fill:#CCCBCA;" width="250.317" height="11.615"/>
	<rect x="22.751" y="406.707" style="fill:#CCCBCA;" width="250.317" height="11.658"/>
	<rect x="22.751" y="430.003" style="fill:#CCCBCA;" width="250.317" height="11.615"/>
	<rect x="22.751" y="245.581" style="fill:#CCCBCA;" width="250.317" height="115.156"/>
</g>
<path style="fill:#353F49;" d="M216.182,57.469c0-8.858,7.219-16.108,16.084-16.108h263.662c8.835,0,16.072,7.25,16.072,16.108
	v397.094c0,8.852-7.237,16.074-16.072,16.074H232.266c-8.865,0-16.084-7.222-16.084-16.074V57.469z"/>
<g>
	<path style="fill:#474F59;" d="M347.779,452.692c-3.94,0-7.165-3.192-7.165-7.155v-1.751c0-3.958,3.226-7.181,7.165-7.181h32.635
		c3.924,0,7.158,3.223,7.158,7.181v1.751c0,3.963-3.233,7.155-7.158,7.155H347.779z"/>
	<path style="fill:#474F59;" d="M364.058,69.704c-4.073,0-7.319-3.272-7.319-7.386c0-4.027,3.249-7.36,7.319-7.36
		c4.055,0,7.38,3.336,7.38,7.36C371.438,66.432,368.113,69.704,364.058,69.704z"/>
</g>
<path style="fill:#353F49;" d="M364.086,65.418c-1.697,0-3.057-1.385-3.057-3.1c0-1.697,1.359-3.046,3.057-3.046
	c1.7,0,3.085,1.349,3.085,3.046C367.171,64.036,365.786,65.418,364.086,65.418z"/>
<rect x="232.947" y="83.307" style="fill:#FFFFFF;" width="262.246" height="335.36"/>
<rect x="316.442" y="332.826" style="fill:#474F59;" width="95.283" height="17.769"/>
<rect x="316.442" y="359.654" style="fill:#F77B55;" width="95.283" height="17.774"/>
<g>
	<circle id="SVGID_1_" style="fill:#F77B55;" cx="364.058" cy="215.782" r="81.946"/>
</g>
<g>
	<g>
		<polygon style="fill:#474F59;" points="389.13,187.346 338.995,187.346 335.578,260.242 392.579,260.242 		"/>
		<g>
			<path style="fill:#FFFFFF;" d="M307.43,275.937l-0.123,0.392l-3.407,10.839h-0.013l-4.493,14.223h129.349l-4.49-14.223
				l-4.936-15.585c-0.791-2.506-2.099-4.877-4.004-6.922c-1.892-2.063-4.152-3.548-6.587-4.539l-25.912-10.273
				c-1.293-0.52-2.47-1.436-3.323-2.665c-0.842-1.275-1.242-2.678-1.242-4.096v-12.608h-28.334v12.608
				c0,1.418-0.422,2.824-1.26,4.096c-0.863,1.229-2.025,2.145-3.325,2.665l-25.9,10.273c-2.429,0.993-4.692,2.478-6.595,4.539
				c-1.912,2.045-3.241,4.416-4.035,6.922L307.43,275.937L307.43,275.937z"/>
			<path style="fill:#FFFFFF;" d="M364.078,166.328c-15.516,0-26.532,11.287-26.532,35.226c0,20.247,11.878,37.343,26.532,37.343
				c14.651,0,26.534-17.096,26.534-37.343C390.612,177.615,379.564,166.328,364.078,166.328z"/>
		</g>
		<g>
			<path style="fill:#474F59;" d="M387.894,167.611h-23.816h-23.834c0,0-3.361,23.803,0.947,28.646
				c0.195-1.969,1.915-2.522,5.076-2.527c0,0,2.668-2.962,4.575-11.136c1.441,5.56,0.786,11.354,0.786,11.354
				c3.389,0.238,7.557,0.586,12.447,0.607c1.242-0.008,2.445-0.031,3.574-0.054c0,0,1.436-0.893,2.071-3.023
				c0.909,1.157,1.034,2.854,1.034,2.854c10.181-0.545,15.844-1.736,16.182,1.923C391.281,191.414,387.894,167.611,387.894,167.611z
				"/>
			<path style="fill:#474F59;" d="M345.331,249.851c1.3-0.52,2.463-1.436,3.325-2.665c0.837-1.275,1.26-2.678,1.26-4.096v-5.371
				h-7.985c-1.021-7.519-1.618-14.945-1.618-21.965c0-20.777,1.441-28.562,7.183-35.576c7.427-9.055,16.584-10.908,16.584-10.908
				s9.157,1.853,16.581,10.908c5.757,7.014,7.142,14.799,7.142,35.576c0,7.02-0.545,14.446-1.6,21.965h-7.949v5.371
				c0,1.418,0.399,2.824,1.242,4.096c0.852,1.229,2.03,2.145,3.323,2.665l14.848,5.908c1.815-2.281,2.752-5.023,2.752-7.788v-10.25
				c0-17.216-0.515-39.67-4.16-56.061c-3.185-14.065-15.199-27.638-32.177-23.949c-16.993-3.689-28.997,9.884-32.177,23.949
				c-3.671,16.392-4.18,38.845-4.18,56.061v10.25c0,2.767,0.945,5.509,2.796,7.788L345.331,249.851z"/>
			<path style="fill:#474F59;" d="M321.838,301.391h84.434c-3.95-8.648-6.372-20.27-6.372-33.149c0-3.873,0.23-7.665,0.671-11.315
				h-0.026l-6.932-2.76l-2.982,11.968c-1.408,5.74-4.667,11.077-9.685,14.986c-5.03,3.94-10.601,5.586-16.868,5.586
				c-6.3,0-11.863-1.646-16.878-5.586c-4.992-3.907-8.276-9.244-9.677-14.986l-2.995-11.968l-6.922,2.76h-0.059
				c0.425,3.651,0.678,7.442,0.678,11.315C328.223,281.121,325.786,292.746,321.838,301.391z"/>
		</g>
	</g>
</g>
<g>
</g>
<g>
</g>
<g>
</g>
<g>
</g>
<g>
</g>
<g>
</g>
<g>
</g>
<g>
</g>
<g>
</g>
<g>
</g>
<g>
</g>
<g>
</g>
<g>
</g>
<g>
</g>
<g>
</g>
</svg>
