<?xml version="1.0" encoding="iso-8859-1"?>
<!-- Generator: Adobe Illustrator 19.0.0, SVG Export Plug-In . SVG Version: 6.00 Build 0)  -->
<svg version="1.1" id="Layer_1" xmlns="http://www.w3.org/2000/svg" xmlns:xlink="http://www.w3.org/1999/xlink" x="0px" y="0px"
	 viewBox="0 0 512 512" style="enable-background:new 0 0 512 512;" xml:space="preserve">
<circle style="fill:#474F59;" cx="256" cy="256" r="256"/>
<g>
	<rect x="252.994" y="248.469" style="fill:#FFFFFF;" width="6.028" height="7.548"/>
	<path style="fill:#FFFFFF;" d="M259.016,233.981h-6.028v-14.475h6.028V233.981z M259.016,205.038h-6.028V190.56h6.028V205.038z
		 M259.016,176.092h-6.028V161.62h6.028V176.092z M259.016,147.149h-6.028v-14.478h6.028V147.149z M259.016,118.206h-6.028v-14.478
		h6.028V118.206z"/>
	<rect x="252.994" y="81.709" style="fill:#FFFFFF;" width="6.028" height="7.548"/>
	<rect x="252.994" y="256" style="fill:#FFFFFF;" width="6.028" height="7.548"/>
	<path style="fill:#FFFFFF;" d="M259.016,408.266h-6.028v-14.475h6.028V408.266z M259.016,379.319h-6.028v-14.471h6.028V379.319z
		 M259.016,350.373h-6.028v-14.465h6.028V350.373z M259.016,321.434h-6.028v-14.471h6.028V321.434z M259.016,292.491h-6.028v-14.471
		h6.028V292.491z"/>
	<rect x="252.994" y="422.747" style="fill:#FFFFFF;" width="6.028" height="7.548"/>
	
		<rect x="105.302" y="337.472" transform="matrix(-0.4992 -0.8665 0.8665 -0.4992 -133.2926 605.4503)" style="fill:#FFFFFF;" width="6.035" height="7.545"/>
	<path style="fill:#FFFFFF;" d="M125.651,334.742l-3.019-5.232l12.529-7.237l3.022,5.232L125.651,334.742z M150.716,320.277
		l-3.019-5.232l12.529-7.237l3.019,5.232L150.716,320.277z M175.781,305.799l-3.019-5.232l12.532-7.231l3.016,5.232L175.781,305.799
		z M200.846,291.335l-3.019-5.239l12.529-7.234l3.019,5.229L200.846,291.335z M225.914,276.857l-3.022-5.229l12.536-7.234
		l3.026,5.232L225.914,276.857z"/>
	<polygon style="fill:#FFFFFF;" points="250.982,262.385 247.96,257.156 249.968,256 247.96,254.844 250.982,249.615 262.045,256 	
		"/>
	<path style="fill:#FFFFFF;" d="M235.424,247.606l-12.536-7.237l3.022-5.232l12.539,7.237L235.424,247.606z M210.363,233.138
		l-12.536-7.234l3.019-5.239l12.536,7.244L210.363,233.138z M185.294,218.657l-12.532-7.227l3.019-5.232l12.529,7.227
		L185.294,218.657z M160.226,204.192l-12.529-7.241l3.019-5.229l12.529,7.237L160.226,204.192z M135.161,189.724l-12.529-7.237
		l3.019-5.232l12.532,7.237L135.161,189.724z"/>
	
		<rect x="104.548" y="167.725" transform="matrix(-0.8663 -0.4995 0.4995 -0.8663 116.8724 372.7677)" style="fill:#FFFFFF;" width="7.544" height="6.038"/>
	
		<rect x="400.621" y="166.975" transform="matrix(-0.5002 -0.8659 0.8659 -0.5002 457.6922 605.6739)" style="fill:#FFFFFF;" width="6.042" height="7.548"/>
	<path style="fill:#FFFFFF;" d="M276.589,247.606l-3.029-5.232l12.536-7.237l3.026,5.232L276.589,247.606z M301.654,233.138
		l-3.022-5.229l12.532-7.244l3.019,5.239L301.654,233.138z M326.715,218.657l-3.016-5.229l12.532-7.227l3.019,5.232L326.715,218.657
		z M351.774,204.192l-3.019-5.232l12.532-7.237l3.019,5.229L351.774,204.192z M376.839,189.724l-3.019-5.232l12.536-7.237
		l3.019,5.232L376.839,189.724z"/>
	<polygon style="fill:#FFFFFF;" points="261.031,262.385 249.975,256 261.031,249.615 264.053,254.844 262.045,256 264.053,257.156 
			"/>
	<path style="fill:#FFFFFF;" d="M386.355,334.742l-12.536-7.237l3.019-5.232l12.536,7.237L386.355,334.742z M361.287,320.277
		l-12.532-7.237l3.019-5.232l12.532,7.237L361.287,320.277z M336.225,305.799l-12.536-7.231l3.019-5.232l12.532,7.231
		L336.225,305.799z M311.164,291.335l-12.532-7.244l3.022-5.229l12.529,7.234L311.164,291.335z M286.096,276.863l-12.536-7.237
		l3.029-5.232l12.532,7.237L286.096,276.863z"/>
	
		<rect x="399.907" y="338.24" transform="matrix(-0.8664 -0.4994 0.4994 -0.8664 583.0045 838.5123)" style="fill:#FFFFFF;" width="7.551" height="6.038"/>
	<polygon style="fill:#FFFFFF;" points="256,433.766 247.95,429.129 250.976,423.893 256,426.797 261.024,423.893 264.047,429.129 	
		"/>
	<path style="fill:#FFFFFF;" d="M235.421,421.891l-12.532-7.237l3.022-5.232l12.536,7.237L235.421,421.891z M210.356,407.42
		l-12.529-7.237l3.019-5.229l12.529,7.234L210.356,407.42z M185.294,392.942l-12.532-7.231l3.019-5.232l12.529,7.231
		L185.294,392.942z M160.226,378.47l-12.529-7.237l3.019-5.229l12.529,7.234L160.226,378.47z M135.161,363.999l-12.529-7.237
		l3.019-5.232l12.532,7.241L135.161,363.999z"/>
	<polygon style="fill:#FFFFFF;" points="110.097,349.524 102.053,344.883 102.053,335.591 108.091,335.591 108.091,341.395 
		113.116,344.292 	"/>
	<path style="fill:#FFFFFF;" d="M108.091,321.12h-6.038v-14.471h6.038V321.12z M108.091,292.18h-6.038v-14.478h6.038V292.18z
		 M102.053,263.227v-14.462h6.038v14.462H102.053z M108.091,234.291h-6.038v-14.478h6.038V234.291z M108.091,205.348h-6.038v-14.471
		h6.038V205.348z"/>
	<polygon style="fill:#FFFFFF;" points="108.091,176.405 102.053,176.405 102.053,167.113 110.097,162.472 113.116,167.705 
		108.091,170.598 	"/>
	<path style="fill:#FFFFFF;" d="M125.651,160.464l-3.019-5.232l12.529-7.231l3.022,5.226L125.651,160.464z M150.716,145.993
		l-3.019-5.232l12.529-7.237l3.019,5.232L150.716,145.993z M175.781,131.511l-3.019-5.229l12.532-7.231l3.016,5.232L175.781,131.511
		z M200.846,117.046l-3.019-5.229l12.529-7.237l3.019,5.229L200.846,117.046z M225.911,102.575l-3.022-5.232l12.532-7.237
		l3.026,5.229L225.911,102.575z"/>
	<polygon style="fill:#FFFFFF;" points="250.979,88.097 247.953,82.865 256,78.224 264.047,82.865 261.024,88.097 256,85.197 	"/>
	<path style="fill:#FFFFFF;" d="M386.355,160.464l-12.536-7.237l3.019-5.226l12.536,7.231L386.355,160.464z M361.287,145.986
		l-12.532-7.237l3.019-5.219l12.532,7.237L361.287,145.986z M336.225,131.511l-12.536-7.231l3.019-5.229l12.532,7.231
		L336.225,131.511z M311.161,117.046l-12.536-7.237l3.019-5.229l12.536,7.237L311.161,117.046z M286.089,102.575l-12.536-7.241
		l3.026-5.229l12.536,7.237L286.089,102.575z"/>
	<polygon style="fill:#FFFFFF;" points="409.947,176.405 403.912,176.405 403.912,170.598 398.884,167.705 401.907,162.472 
		409.947,167.113 	"/>
	<path style="fill:#FFFFFF;" d="M409.947,321.12h-6.035v-14.471h6.035V321.12z M409.947,292.18h-6.035v-14.478h6.035V292.18z
		 M409.947,263.227h-6.035v-14.462h6.035V263.227z M409.947,234.291h-6.035v-14.478h6.035V234.291z M409.947,205.348h-6.035v-14.471
		h6.035V205.348z"/>
	<polygon style="fill:#FFFFFF;" points="401.907,349.524 398.884,344.292 403.912,341.395 403.912,335.591 409.947,335.591 
		409.947,344.883 	"/>
	<path style="fill:#FFFFFF;" d="M276.579,421.891l-3.026-5.232l12.536-7.237l3.026,5.232L276.579,421.891z M301.644,407.42
		l-3.019-5.232l12.536-7.237l3.019,5.229L301.644,407.42z M326.709,392.942l-3.019-5.232l12.536-7.231l3.016,5.232L326.709,392.942z
		 M351.774,378.47l-3.019-5.232l12.532-7.237l3.019,5.232L351.774,378.47z M376.839,363.999l-3.019-5.229l12.536-7.241l3.019,5.232
		L376.839,363.999z"/>
</g>
<g>
	<path style="fill:#92DEEB;" d="M275.605,244.683c6.263,10.825,2.55,24.678-8.278,30.915c-10.841,6.263-24.682,2.55-30.925-8.278
		c-6.26-10.825-2.547-24.682,8.285-30.921C255.511,230.142,269.362,233.852,275.605,244.683z"/>
	<path style="fill:#92DEEB;" d="M124.677,157.541c6.256,10.825,2.543,24.678-8.284,30.915c-10.831,6.263-24.678,2.543-30.921-8.278
		c-6.26-10.825-2.553-24.672,8.284-30.928C104.58,143,118.427,146.709,124.677,157.541z"/>
</g>
<path style="fill:#FFFFFF;" d="M275.605,70.395c6.263,10.838,2.55,24.685-8.278,30.921c-10.835,6.263-24.682,2.553-30.925-8.278
	c-6.26-10.821-2.543-24.672,8.291-30.928C255.511,55.864,269.362,59.574,275.605,70.395z"/>
<path style="fill:#92DEEB;" d="M426.542,157.541c6.246,10.825,2.543,24.675-8.291,30.915c-10.825,6.263-24.672,2.543-30.918-8.278
	c-6.263-10.825-2.55-24.672,8.281-30.928C406.439,142.993,420.283,146.709,426.542,157.541z"/>
<path style="fill:#FFFFFF;" d="M426.542,331.819c6.246,10.825,2.543,24.672-8.291,30.922c-10.835,6.26-24.672,2.547-30.918-8.291
	c-6.263-10.828-2.557-24.672,8.281-30.915C406.439,317.278,420.283,320.991,426.542,331.819z"/>
<path style="fill:#92DEEB;" d="M275.605,418.955c6.263,10.828,2.55,24.675-8.288,30.935c-10.825,6.243-24.672,2.537-30.915-8.291
	c-6.26-10.831-2.543-24.678,8.285-30.922C255.511,404.421,269.362,408.13,275.605,418.955z"/>
<g>
	<path style="fill:#FFFFFF;" d="M124.677,331.819c6.256,10.825,2.543,24.672-8.291,30.928c-10.831,6.253-24.672,2.543-30.915-8.298
		c-6.26-10.825-2.553-24.672,8.284-30.912C104.58,317.278,118.427,320.994,124.677,331.819z"/>
	<circle style="fill:#FFFFFF;" cx="483.427" cy="196.344" r="9.844"/>
</g>
<g>
	<circle style="fill:#92DEEB;" cx="419.146" cy="22.363" r="15.756"/>
	<circle style="fill:#92DEEB;" cx="36.824" cy="256" r="9.328"/>
</g>
<circle style="fill:#FFFFFF;" cx="371.018" cy="433.78" r="13.279"/>
<circle style="fill:#92DEEB;" cx="473.583" cy="488.019" r="19.694"/>
<g>
	<circle style="fill:#D9D8D7;" cx="73.1" cy="461.064" r="28.077"/>
	<circle style="fill:#D9D8D7;" cx="72.36" cy="39.705" r="19.813"/>
</g>
<g>
</g>
<g>
</g>
<g>
</g>
<g>
</g>
<g>
</g>
<g>
</g>
<g>
</g>
<g>
</g>
<g>
</g>
<g>
</g>
<g>
</g>
<g>
</g>
<g>
</g>
<g>
</g>
<g>
</g>
</svg>
