<?xml version="1.0" encoding="iso-8859-1"?>
<!-- Generator: Adobe Illustrator 19.0.0, SVG Export Plug-In . SVG Version: 6.00 Build 0)  -->
<svg version="1.1" id="Layer_1" xmlns="http://www.w3.org/2000/svg" xmlns:xlink="http://www.w3.org/1999/xlink" x="0px" y="0px"
	 viewBox="0 0 512 512" style="enable-background:new 0 0 512 512;" xml:space="preserve">
<circle style="fill:#474F59;" cx="256" cy="256" r="256"/>
<polygon style="fill:#FFFFFF;" points="396.387,106.988 396.387,454.54 115.613,454.54 115.613,57.456 346.859,57.456 "/>
<polygon style="fill:#CCCBCA;" points="396.387,106.988 346.859,106.988 346.859,57.456 "/>
<circle style="fill:#F77B55;" cx="256" cy="256" r="54.493"/>
<g>
	<path style="fill:#353F49;" d="M256,348.566c-47.613,0-88.087-37.102-92.157-84.48l-0.152-1.711l3.425-0.297l0.149,1.721
		c3.928,45.604,42.889,81.325,88.735,81.325c45.869,0,84.857-35.721,88.754-81.325l0.172-1.721l3.406,0.297l-0.132,1.711
		C344.143,311.464,303.616,348.566,256,348.566z"/>
	<path style="fill:#353F49;" d="M344.926,249.915l-0.172-1.721c-3.898-45.581-42.883-81.302-88.754-81.302
		c-45.849,0-84.81,35.721-88.735,81.302l-0.149,1.721l-3.425-0.294l0.152-1.714c4.07-47.352,44.541-84.447,92.157-84.447
		c47.619,0,88.143,37.092,92.2,84.447l0.132,1.714L344.926,249.915z"/>
	<path style="fill:#353F49;" d="M338.904,248.052v15.902h15.912v-15.902H338.904z M351.354,260.516h-9.028v-9.038h9.028V260.516z"/>
	<path style="fill:#353F49;" d="M157.22,248.052v15.902h15.902v-15.902H157.22z M169.697,260.516h-9.041v-9.038h9.041V260.516z"/>
	<rect x="248.039" y="157.197" style="fill:#353F49;" width="15.912" height="15.898"/>
	<rect x="165.161" y="163.444" style="fill:#353F49;" width="181.671" height="3.432"/>
	<path style="fill:#353F49;" d="M173.106,165.171c0,4.364-3.548,7.924-7.934,7.924c-4.4,0-7.951-3.561-7.951-7.924
		c0-4.41,3.551-7.974,7.951-7.974C169.558,157.197,173.106,160.761,173.106,165.171z"/>
	<path style="fill:#353F49;" d="M354.816,165.171c0,4.364-3.564,7.924-7.974,7.924c-4.393,0-7.954-3.561-7.954-7.924
		c0-4.41,3.561-7.974,7.954-7.974C351.252,157.197,354.816,160.761,354.816,165.171z"/>
</g>
<polygon style="fill:#FFFFFF;" points="267.746,294.611 256,256.003 244.254,294.611 "/>
<polygon style="fill:#CCCBCA;" points="256,256.003 267.746,294.611 260.357,294.611 "/>
<rect x="244.254" y="294.615" style="fill:#474F59;" width="23.489" height="159.942"/>
<rect x="260.36" y="294.615" style="fill:#232E38;" width="7.386" height="159.942"/>
<polygon style="fill:#474F59;" points="260.585,271.099 256,256.003 251.389,271.099 "/>
<polygon style="fill:#353F49;" points="260.585,271.099 256,256.003 257.718,271.099 "/>
<rect x="244.254" y="454.524" style="fill:#FFFFFF;" width="23.489" height="13.632"/>
<rect x="260.36" y="454.524" style="fill:#CCCBCA;" width="7.386" height="13.632"/>
<path style="fill:#FF916E;" d="M267.746,475.565c0,3.006-1.166,6.018-3.409,8.331c-2.319,2.266-5.328,3.412-8.334,3.412l0,0
	c-3.006,0-6.005-1.15-8.304-3.412c-2.292-2.312-3.442-5.325-3.442-8.331v-7.389h23.489V475.565z"/>
<path style="fill:#EE643C;" d="M260.357,468.173c0,3.006-1.169,6.038-3.449,8.318c-2.286,2.289-5.292,3.429-8.298,3.429
	c-1.259,0-2.507-0.231-3.71-0.637c0.558,1.695,1.457,3.26,2.795,4.615c2.296,2.266,5.298,3.412,8.304,3.412s6.015-1.15,8.334-3.412
	c2.246-2.312,3.409-5.325,3.409-8.331v-7.389h-7.386V468.173z"/>
<path style="fill:#FFFFFF;" d="M493.7,429.4c0,13.837-11.317,25.141-25.161,25.141h-18.264c-13.844,0-25.161-11.304-25.161-25.141
	v-71.934c0-13.827,11.317-25.141,25.161-25.141h18.264c13.844,0,25.161,11.317,25.161,25.141V429.4z"/>
<path style="fill:#E6E5E5;" d="M482.106,336.351c0.251,1.42,0.4,2.864,0.4,4.354v54.563c0,10.901-4.146,21.768-12.44,30.066
	c-8.327,8.308-19.195,12.46-30.069,12.46h-0.915c-4.985,0-9.632-1.483-13.54-4.033c2.051,11.779,12.384,20.781,24.728,20.781h18.264
	c13.844,0,25.161-11.304,25.161-25.141v-71.934C493.7,348.626,489.062,340.83,482.106,336.351z"/>
<path style="fill:#353F49;" d="M465.117,358.608c0,3.161-2.547,5.708-5.711,5.708c-3.174,0-5.705-2.547-5.705-5.708
	c0-3.161,2.53-5.725,5.705-5.725C462.57,352.884,465.117,355.447,465.117,358.608z"/>
<path style="fill:#FFDB79;" d="M28.725,101.108l0.01,353.429l58.15,0.003l-0.01-353.445L28.725,101.108z M57.793,130.124
	c-4.063-0.003-7.356-3.293-7.353-7.36c-0.017-4.086,3.297-7.363,7.343-7.36c4.073,0,7.356,3.273,7.363,7.36
	C65.133,126.831,61.86,130.117,57.793,130.124z"/>
<g>
	<rect x="75.631" y="143.829" style="fill:#474F59;" width="11.251" height="2.927"/>
	<rect x="75.637" y="173.287" style="fill:#474F59;" width="11.241" height="2.943"/>
	<polygon style="fill:#474F59;" points="75.637,205.672 75.631,202.729 86.888,202.749 86.878,205.659 	"/>
	<rect x="75.634" y="232.184" style="fill:#474F59;" width="11.247" height="2.956"/>
	<rect x="75.631" y="261.648" style="fill:#474F59;" width="11.231" height="2.933"/>
	<rect x="75.637" y="291.113" style="fill:#474F59;" width="11.241" height="2.913"/>
	<polygon style="fill:#474F59;" points="75.644,323.485 75.634,320.502 86.881,320.522 86.885,323.478 	"/>
	<rect x="75.634" y="350.01" style="fill:#474F59;" width="11.241" height="2.917"/>
	<polygon style="fill:#474F59;" points="75.637,382.375 75.637,379.451 86.872,379.438 86.888,382.381 	"/>
	<polygon style="fill:#474F59;" points="75.634,411.83 75.644,408.877 86.872,408.87 86.881,411.82 	"/>
	<rect x="75.637" y="438.371" style="fill:#474F59;" width="11.247" height="2.917"/>
	<rect x="75.634" y="423.639" style="fill:#474F59;" width="11.244" height="2.917"/>
	<polygon style="fill:#474F59;" points="75.637,397.097 75.637,394.194 86.881,394.187 86.878,397.117 	"/>
	<rect x="75.634" y="364.709" style="fill:#474F59;" width="11.231" height="2.956"/>
	<rect x="75.637" y="335.277" style="fill:#474F59;" width="11.251" height="2.946"/>
	<rect x="75.637" y="305.813" style="fill:#474F59;" width="11.241" height="2.94"/>
	<rect x="75.637" y="276.348" style="fill:#474F59;" width="11.241" height="2.94"/>
	<polygon style="fill:#474F59;" points="75.634,249.843 75.644,246.929 86.888,246.923 86.881,249.843 	"/>
	<rect x="75.634" y="217.465" style="fill:#474F59;" width="11.254" height="2.937"/>
	<rect x="75.631" y="188.006" style="fill:#474F59;" width="11.251" height="2.933"/>
	<rect x="75.631" y="158.555" style="fill:#474F59;" width="11.251" height="2.953"/>
</g>
<g>
</g>
<g>
</g>
<g>
</g>
<g>
</g>
<g>
</g>
<g>
</g>
<g>
</g>
<g>
</g>
<g>
</g>
<g>
</g>
<g>
</g>
<g>
</g>
<g>
</g>
<g>
</g>
<g>
</g>
</svg>
