<?xml version="1.0" encoding="iso-8859-1"?>
<!-- Generator: Adobe Illustrator 19.0.0, SVG Export Plug-In . SVG Version: 6.00 Build 0)  -->
<svg version="1.1" id="Layer_1" xmlns="http://www.w3.org/2000/svg" xmlns:xlink="http://www.w3.org/1999/xlink" x="0px" y="0px"
	 viewBox="0 0 512 512" style="enable-background:new 0 0 512 512;" xml:space="preserve">
<circle style="fill:#F2F2F2;" cx="256" cy="256" r="256"/>
<path style="fill:#FDCA5C;" d="M315.078,256c0,32.613-26.459,59.078-59.078,59.078c-32.626,0-59.078-26.465-59.078-59.078
	c0-32.609,26.452-59.078,59.078-59.078C288.619,196.922,315.078,223.391,315.078,256z"/>
<path style="fill:#CCCBCA;" d="M159.14,293.644c0,8.694-7.056,15.756-15.756,15.756s-15.753-7.062-15.753-15.756
	c0-8.691,7.052-15.753,15.753-15.753C152.084,277.891,159.14,284.956,159.14,293.644z"/>
<g>
	<rect x="155.33" y="229.01" style="fill:#474F59;" width="13.788" height="13.784"/>
	<path style="fill:#474F59;" d="M142.425,242.797h-12.909v-13.784h12.909V242.797z M116.607,242.797h-12.909v-13.784h12.909
		C116.607,229.013,116.607,242.797,116.607,242.797z M90.786,242.797H77.88v-13.784h12.906
		C90.786,229.013,90.786,242.797,90.786,242.797z M64.971,242.797H52.062v-13.784h12.909V242.797z"/>
	<rect x="25.369" y="229.01" style="fill:#474F59;" width="13.784" height="13.784"/>
	<path style="fill:#474F59;" d="M39.153,216.104H25.369v-12.906h13.784V216.104z M39.153,190.282H25.369v-12.906h13.784V190.282z
		 M39.153,164.464H25.369v-12.906h13.784V164.464z M39.153,138.646H25.369V125.74h13.784V138.646z"/>
	<rect x="25.369" y="99.04" style="fill:#474F59;" width="13.784" height="13.784"/>
	<path style="fill:#474F59;" d="M142.425,112.825h-12.909V99.041h12.909V112.825z M116.607,112.825h-12.906V99.041h12.906V112.825z
		 M90.789,112.825H77.88V99.041h12.909V112.825z M64.971,112.825H52.062V99.041h12.909V112.825z"/>
	<rect x="155.33" y="99.04" style="fill:#474F59;" width="13.788" height="13.784"/>
	<path style="fill:#474F59;" d="M169.122,216.1h-13.788v-12.906h13.788V216.1z M169.122,190.279h-13.788v-12.906h13.788V190.279z
		 M169.122,164.461h-13.788v-12.906h13.788V164.461z M169.122,138.643h-13.788v-12.906h13.788V138.643z"/>
</g>
<rect x="63.769" y="137.44" style="fill:#CCCBCA;" width="66.956" height="66.956"/>
<rect x="406.69" y="230.73" style="fill:#474F59;" width="34.793" height="34.793"/>
<polygon style="fill:#CCCBCA;" points="442.84,200.185 330.947,200.185 330.947,88.295 "/>
<polygon style="fill:#FDCA5C;" points="192.043,110.817 219.612,63.068 247.18,110.817 "/>
<g>
	<path style="fill:#FFFFFF;" d="M199.64,353.624c-0.664,1.252-1.202,2.55-1.579,3.947l0.027,0.007
		c0.397-1.434,0.934-2.809,1.63-4.09C199.692,353.533,199.667,353.578,199.64,353.624z"/>
	<path style="fill:#FFFFFF;" d="M313.912,357.577l0.024-0.006c-0.37-1.397-0.915-2.695-1.576-3.951
		c-0.231-0.396-0.443-0.789-0.677-1.189l-0.036,0.01C312.635,354.018,313.403,355.741,313.912,357.577z"/>
	<path style="fill:#FFFFFF;" d="M216.91,343.251c10.796,0,19.549,8.752,19.549,19.548c0-10.794,8.751-19.545,19.545-19.545
		c9.436,0,17.308,6.687,19.141,15.58l-12.691-68.167h-26.471l-35.665,61.767c-0.204,0.348-0.392,0.69-0.589,1.035
		C203.041,347.383,209.493,343.251,216.91,343.251z"/>
	<polygon style="fill:#FFFFFF;" points="275.548,362.8 275.549,362.794 275.548,362.794 	"/>
	<path style="fill:#FFFFFF;" d="M275.16,358.917c0.065,0.323,0.101,0.655,0.15,0.983l-0.022-0.298L275.16,358.917z"/>
</g>
<path style="fill:#D9D8D7;" d="M262.454,290.667l12.691,68.167c0.006,0.027,0.01,0.055,0.015,0.082l0.128,0.686l0.022,0.298
	c0.141,0.947,0.238,1.908,0.238,2.894h0.001c0.003-10.792,8.752-19.539,19.545-19.539c6.985,0,13.097,3.676,16.553,9.187l0.036-0.01
	l-35.664-61.764h-13.56h-0.005V290.667z"/>
<polygon style="fill:#474F59;" points="262.458,290.667 256,256 235.979,290.667 235.983,290.667 262.454,290.667 "/>
<polygon style="fill:#353F49;" points="276.018,290.667 276.021,290.667 256,256 262.458,290.667 "/>
<path style="fill:#FF916E;" d="M236.442,363.127c0.002-0.11,0.017-0.217,0.017-0.327c0-10.796-8.752-19.548-19.549-19.548
	c-7.417,0-13.869,4.131-17.181,10.218c-0.003,0.006-0.007,0.012-0.01,0.018c-0.695,1.281-1.233,2.656-1.63,4.09
	c-0.461,1.665-0.727,3.411-0.727,5.222v142.444c12.69,2.974,25.741,5.011,39.08,6.019V363.127z"/>
<path style="fill:#F77B55;" d="M275.529,363.192c0.003-0.132,0.02-0.259,0.02-0.392c0-0.002,0-0.004,0-0.006
	c0-0.986-0.097-1.947-0.238-2.894c-0.049-0.328-0.085-0.661-0.15-0.983c-0.005-0.027-0.01-0.055-0.015-0.082
	c-1.833-8.893-9.706-15.58-19.141-15.58c-10.794,0-19.545,8.751-19.545,19.545c0,0.111-0.015,0.217-0.017,0.327v148.135
	C242.897,511.75,249.419,512,256,512c6.57,0,13.083-0.25,19.529-0.736V363.192z"/>
<path style="fill:#EE643C;" d="M311.647,352.441c-3.456-5.511-9.568-9.187-16.553-9.187c-10.793,0-19.542,8.748-19.545,19.539
	c0,0.002,0,0.004,0,0.006c0,0.132-0.017,0.26-0.02,0.392v148.073c13.35-1.007,26.41-3.044,39.11-6.021V362.8
	c0-1.812-0.266-3.558-0.727-5.223C313.403,355.741,312.635,354.018,311.647,352.441z"/>
<g>
</g>
<g>
</g>
<g>
</g>
<g>
</g>
<g>
</g>
<g>
</g>
<g>
</g>
<g>
</g>
<g>
</g>
<g>
</g>
<g>
</g>
<g>
</g>
<g>
</g>
<g>
</g>
<g>
</g>
</svg>
