<?xml version="1.0" encoding="iso-8859-1"?>
<!-- Generator: Adobe Illustrator 19.0.0, SVG Export Plug-In . SVG Version: 6.00 Build 0)  -->
<svg version="1.1" id="Layer_1" xmlns="http://www.w3.org/2000/svg" xmlns:xlink="http://www.w3.org/1999/xlink" x="0px" y="0px"
	 viewBox="0 0 512 512" style="enable-background:new 0 0 512 512;" xml:space="preserve">
<polygon style="fill:#F2F2F2;" points="404.846,73.873 404.846,456.58 95.675,456.58 95.675,19.337 350.308,19.337 "/>
<polygon style="fill:#CCCBCA;" points="404.846,73.873 350.308,73.873 350.308,19.337 "/>
<path style="fill:#F77B55;" d="M310.264,237.961c0,33.144-26.872,60.004-60.004,60.004c-33.142,0-60.004-26.86-60.004-60.004
	c0-33.137,26.865-60.012,60.004-60.012C283.392,177.949,310.264,204.824,310.264,237.961z"/>
<g>
	<path style="fill:#353F49;" d="M250.26,339.892c-52.429,0-96.996-40.855-101.478-93.028l-0.166-1.882l3.773-0.325l0.164,1.897
		c4.326,50.22,47.227,89.554,97.71,89.554c50.506,0,93.44-39.334,97.731-89.554l0.189-1.897l3.75,0.325l-0.146,1.882
		C347.315,299.037,302.692,339.892,250.26,339.892z"/>
	<path style="fill:#353F49;" d="M348.18,231.261l-0.189-1.897c-4.291-50.194-47.219-89.528-97.731-89.528
		c-50.486,0-93.386,39.334-97.71,89.528l-0.164,1.897l-3.773-0.328l0.166-1.887c4.483-52.145,49.047-92.989,101.478-92.989
		c52.434,0,97.055,40.845,101.524,92.989l0.146,1.887L348.18,231.261z"/>
	<path style="fill:#353F49;" d="M341.548,229.206v17.513h17.523v-17.513H341.548z M355.256,242.932h-9.94v-9.953h9.94V242.932z"/>
	<path style="fill:#353F49;" d="M141.489,229.206v17.513h17.51v-17.513H141.489z M155.228,242.932h-9.958v-9.953h9.958V242.932z"/>
	<rect x="241.51" y="129.151" style="fill:#353F49;" width="17.523" height="17.508"/>
	<rect x="150.244" y="136.063" style="fill:#353F49;" width="200.038" height="3.781"/>
	<path style="fill:#353F49;" d="M158.984,137.942c0,4.805-3.907,8.727-8.737,8.727c-4.846,0-8.755-3.922-8.755-8.727
		c0-4.854,3.912-8.781,8.755-8.781C155.075,129.164,158.984,133.088,158.984,137.942z"/>
	<path style="fill:#353F49;" d="M359.071,137.942c0,4.805-3.924,8.727-8.781,8.727c-4.838,0-8.76-3.922-8.76-8.727
		c0-4.854,3.922-8.781,8.76-8.781C355.146,129.164,359.071,133.088,359.071,137.942z"/>
</g>
<polygon style="fill:#FFFFFF;" points="263.194,280.477 250.26,237.961 237.327,280.477 "/>
<polygon style="fill:#CCCBCA;" points="250.26,237.961 263.194,280.477 255.058,280.477 "/>
<rect x="237.338" y="280.472" style="fill:#474F59;" width="25.856" height="176.102"/>
<rect x="255.053" y="280.472" style="fill:#232E38;" width="8.133" height="176.102"/>
<polygon style="fill:#474F59;" points="255.306,254.586 250.26,237.961 245.179,254.586 "/>
<polygon style="fill:#353F49;" points="255.306,254.586 250.26,237.961 252.15,254.586 "/>
<rect x="237.338" y="456.575" style="fill:#F2F2F2;" width="25.856" height="15.014"/>
<rect x="255.053" y="456.575" style="fill:#CCCBCA;" width="8.133" height="15.014"/>
<path style="fill:#FF916E;" d="M263.194,479.73c0,3.31-1.283,6.628-3.756,9.175c-2.552,2.499-5.868,3.758-9.178,3.758l0,0
	c-3.31,0-6.612-1.26-9.142-3.758c-2.527-2.547-3.791-5.865-3.791-9.175v-8.136h25.866V479.73z"/>
<path style="fill:#EE643C;" d="M255.058,471.594c0,3.308-1.285,6.648-3.796,9.157c-2.516,2.516-5.824,3.773-9.134,3.773
	c-1.388,0-2.76-0.256-4.086-0.701c0.614,1.866,1.605,3.592,3.077,5.082c2.529,2.499,5.832,3.758,9.142,3.758s6.625-1.26,9.178-3.758
	c2.473-2.547,3.756-5.865,3.756-9.175v-8.136H255.058z"/>
<path style="fill:#F2F2F2;" d="M512,428.893c0,15.24-12.46,27.684-27.704,27.684h-20.111c-15.245,0-27.707-12.444-27.707-27.684
	V349.69c0-15.227,12.462-27.689,27.707-27.689h20.111c15.245,0,27.704,12.462,27.704,27.689V428.893z"/>
<path style="fill:#D9D8D7;" d="M499.236,326.437c0.274,1.562,0.44,3.154,0.44,4.795v60.081c0,12.001-4.564,23.967-13.699,33.106
	c-9.167,9.149-21.135,13.724-33.108,13.724h-1.011c-5.489,0-10.606-1.638-14.907-4.439c2.26,12.966,13.635,22.879,27.231,22.879
	h20.111c15.245,0,27.704-12.444,27.704-27.684v-79.204C512,339.951,506.893,331.365,499.236,326.437z"/>
<path style="fill:#353F49;" d="M480.525,350.947c0,3.479-2.803,6.282-6.287,6.282c-3.494,0-6.28-2.803-6.28-6.282
	c0-3.482,2.785-6.305,6.28-6.305C477.722,344.641,480.525,347.465,480.525,350.947z"/>
<path style="fill:#FFDB79;" d="M0,67.404l0.01,389.174l64.033,0.003l-0.01-389.192L0,67.404z M32.008,99.355
	c-4.475-0.008-8.1-3.63-8.095-8.108c-0.018-4.5,3.63-8.108,8.084-8.102c4.485,0,8.097,3.604,8.105,8.102
	C40.09,95.722,36.483,99.342,32.008,99.355z"/>
<g>
	<polygon style="fill:#474F59;" points="51.651,117.664 51.651,114.444 64.041,114.444 64.026,117.659 	"/>
	<polygon style="fill:#474F59;" points="51.658,150.12 51.653,146.876 64.033,146.879 64.041,150.109 	"/>
	<polygon style="fill:#474F59;" points="51.658,182.54 51.651,179.304 64.044,179.319 64.033,182.524 	"/>
	<polygon style="fill:#474F59;" points="51.658,214.985 51.651,211.731 64.036,211.739 64.044,214.98 	"/>
	<polygon style="fill:#474F59;" points="51.643,247.4 51.658,244.169 64.026,244.174 64.026,247.4 	"/>
	<polygon style="fill:#474F59;" points="51.653,279.82 51.658,276.612 64.036,276.612 64.026,279.804 	"/>
	<polygon style="fill:#474F59;" points="51.666,312.265 51.653,308.988 64.036,309.006 64.041,312.26 	"/>
	<rect x="51.661" y="341.477" style="fill:#474F59;" width="12.378" height="3.208"/>
	<polygon style="fill:#474F59;" points="51.658,377.115 51.658,373.894 64.026,373.882 64.044,377.12 	"/>
	<polygon style="fill:#474F59;" points="51.653,409.545 51.666,406.296 64.026,406.289 64.036,409.54 	"/>
	<polygon style="fill:#474F59;" points="51.658,441.972 51.653,438.765 64.041,438.76 64.026,441.972 	"/>
	<polygon style="fill:#474F59;" points="51.651,425.76 51.653,422.552 64.036,422.552 64.026,425.755 	"/>
	<polygon style="fill:#474F59;" points="51.658,393.325 51.658,390.13 64.036,390.122 64.033,393.345 	"/>
	<polygon style="fill:#474F59;" points="51.651,360.91 51.658,357.659 64.026,357.661 64.033,360.91 	"/>
	<polygon style="fill:#474F59;" points="51.658,328.475 51.653,325.231 64.044,325.239 64.033,328.475 	"/>
	<rect x="51.661" y="292.811" style="fill:#474F59;" width="12.378" height="3.236"/>
	<polygon style="fill:#474F59;" points="51.653,263.615 51.658,260.379 64.036,260.374 64.033,263.628 	"/>
	<polygon style="fill:#474F59;" points="51.653,231.177 51.666,227.969 64.044,227.962 64.036,231.177 	"/>
	<polygon style="fill:#474F59;" points="51.658,198.749 51.651,195.519 64.044,195.531 64.041,198.749 	"/>
	<polygon style="fill:#474F59;" points="51.658,166.317 51.643,163.084 64.033,163.091 64.036,166.309 	"/>
	<polygon style="fill:#474F59;" points="51.643,133.905 51.653,130.653 64.044,130.659 64.036,133.897 	"/>
</g>
<g>
</g>
<g>
</g>
<g>
</g>
<g>
</g>
<g>
</g>
<g>
</g>
<g>
</g>
<g>
</g>
<g>
</g>
<g>
</g>
<g>
</g>
<g>
</g>
<g>
</g>
<g>
</g>
<g>
</g>
</svg>
