<?xml version="1.0" encoding="iso-8859-1"?>
<!-- Generator: Adobe Illustrator 19.0.0, SVG Export Plug-In . SVG Version: 6.00 Build 0)  -->
<svg version="1.1" id="Layer_1" xmlns="http://www.w3.org/2000/svg" xmlns:xlink="http://www.w3.org/1999/xlink" x="0px" y="0px"
	 viewBox="0 0 511.997 511.997" style="enable-background:new 0 0 511.997 511.997;" xml:space="preserve">
<path style="fill:#F2F2F2;" d="M341.556,274.988c0,48.348-39.199,87.529-87.549,87.529c-48.34,0-87.544-39.183-87.544-87.529
	s39.204-87.526,87.544-87.526C302.358,187.461,341.556,226.642,341.556,274.988z"/>
<g>
	<path style="fill:#E6E5E5;" d="M277.894,92.585c0,13.189-10.708,23.88-23.887,23.88c-13.174,0-23.882-10.691-23.882-23.88
		c0-13.181,10.706-23.875,23.882-23.875C267.186,68.71,277.894,79.404,277.894,92.585z"/>
	<path style="fill:#E6E5E5;" d="M141.902,129.132c9.326,9.326,9.326,24.438,0,33.754c-9.331,9.331-24.422,9.331-33.754,0
		c-9.341-9.316-9.341-24.428,0-33.754C117.477,119.795,132.571,119.795,141.902,129.132z"/>
	<path style="fill:#E6E5E5;" d="M71.615,251.116c13.174,0,23.867,10.678,23.867,23.872s-10.693,23.872-23.867,23.872
		c-13.197,0-23.885-10.678-23.885-23.872C47.73,261.796,58.418,251.116,71.615,251.116z"/>
	<path style="fill:#E6E5E5;" d="M108.148,387.09c9.334-9.326,24.425-9.326,33.754,0c9.326,9.313,9.326,24.43,0,33.756
		c-9.331,9.334-24.422,9.334-33.754,0C98.807,411.52,98.807,396.406,108.148,387.09z"/>
	<path style="fill:#E6E5E5;" d="M230.125,457.393c0-13.189,10.706-23.877,23.882-23.882c13.179,0,23.887,10.693,23.887,23.882
		c0,13.184-10.708,23.869-23.887,23.869C240.831,481.262,230.125,470.577,230.125,457.393z"/>
	<path style="fill:#E6E5E5;" d="M366.112,420.854c-9.329-9.339-9.329-24.451,0.005-33.761c9.321-9.326,24.42-9.326,33.756,0
		c9.334,9.313,9.334,24.43-0.008,33.761C390.537,430.177,375.443,430.177,366.112,420.854z"/>
	<path style="fill:#E6E5E5;" d="M436.402,298.859c-13.181,0-23.862-10.678-23.875-23.872c0-13.192,10.693-23.872,23.875-23.872
		c13.202,0,23.88,10.678,23.88,23.877C460.282,288.182,449.604,298.859,436.402,298.859z"/>
	<path style="fill:#E6E5E5;" d="M399.871,162.885c-9.334,9.331-24.427,9.331-33.756,0c-9.334-9.316-9.334-24.422,0-33.754
		c9.329-9.336,24.42-9.336,33.756,0C409.207,138.458,409.207,153.569,399.871,162.885z"/>
</g>
<path style="fill:#92DEEB;" d="M311.315,274.988c0,31.654-25.674,57.311-57.303,57.311c-31.642,0-57.318-25.654-57.318-57.311
	c0-31.642,25.677-57.3,57.318-57.3C285.641,217.687,311.315,243.346,311.315,274.988z"/>
<path style="fill:#353F49;" d="M281.102,274.988c0,14.961-12.134,27.095-27.09,27.095c-14.979,0-27.103-12.134-27.103-27.095
	c0-14.968,12.124-27.092,27.103-27.092C268.965,247.892,281.102,260.019,281.102,274.988z"/>
<path style="fill:#FFFFFF;" d="M248.416,255.836c0,7.483-6.075,13.545-13.537,13.545c-7.521,0-13.581-6.06-13.581-13.545
	c0-7.491,6.06-13.55,13.581-13.55C242.341,242.286,248.416,248.346,248.416,255.836z"/>
<g>
	<rect x="247.323" y="175.411" style="fill:#CCCBCA;" width="13.345" height="6.807"/>
	<rect x="247.323" y="159.667" style="fill:#CCCBCA;" width="13.345" height="6.797"/>
	<rect x="247.323" y="143.923" style="fill:#CCCBCA;" width="13.345" height="6.781"/>
	<rect x="247.323" y="128.154" style="fill:#CCCBCA;" width="13.345" height="6.784"/>
	<polygon style="fill:#CCCBCA;" points="188.333,199.862 178.863,209.316 183.694,214.111 193.128,204.654 	"/>
	
		<rect x="168.161" y="192.426" transform="matrix(-0.708 0.7062 -0.7062 -0.708 436.9416 210.9857)" style="fill:#CCCBCA;" width="13.384" height="6.794"/>
	<polygon style="fill:#CCCBCA;" points="166.038,177.587 156.604,187.041 161.399,191.836 170.833,182.38 	"/>
	<polygon style="fill:#CCCBCA;" points="154.904,166.438 145.44,175.892 150.268,180.692 159.699,171.233 	"/>
	<rect x="154.446" y="268.314" style="fill:#CCCBCA;" width="6.794" height="13.386"/>
	<rect x="138.676" y="268.314" style="fill:#CCCBCA;" width="6.789" height="13.386"/>
	<rect x="122.907" y="268.314" style="fill:#CCCBCA;" width="6.802" height="13.386"/>
	<rect x="107.155" y="268.314" style="fill:#CCCBCA;" width="6.822" height="13.379"/>
	<polygon style="fill:#CCCBCA;" points="178.863,340.667 188.333,350.129 193.128,345.329 183.694,335.875 	"/>
	<polygon style="fill:#CCCBCA;" points="167.725,351.823 177.207,361.275 182.004,356.472 172.522,347.003 	"/>
	<polygon style="fill:#CCCBCA;" points="156.612,362.941 166.04,372.401 170.833,367.608 161.407,358.152 	"/>
	<polygon style="fill:#CCCBCA;" points="145.44,374.103 154.912,383.544 159.707,378.752 150.268,369.293 	"/>
	<rect x="247.348" y="367.77" style="fill:#CCCBCA;" width="13.338" height="6.807"/>
	<rect x="247.348" y="383.514" style="fill:#CCCBCA;" width="13.338" height="6.794"/>
	<rect x="247.348" y="399.283" style="fill:#CCCBCA;" width="13.338" height="6.776"/>
	<rect x="247.348" y="415.027" style="fill:#CCCBCA;" width="13.338" height="6.789"/>
	<polygon style="fill:#CCCBCA;" points="319.686,350.121 329.153,340.667 324.328,335.872 314.899,345.321 	"/>
	<polygon style="fill:#CCCBCA;" points="330.817,361.267 340.294,351.816 335.502,347.003 326.02,356.472 	"/>
	<polygon style="fill:#CCCBCA;" points="341.981,372.396 351.41,362.941 346.62,358.144 337.189,367.595 	"/>
	<polygon style="fill:#CCCBCA;" points="353.115,383.544 362.571,374.095 357.751,369.293 348.312,378.747 	"/>
	<rect x="346.804" y="268.288" style="fill:#CCCBCA;" width="6.794" height="13.386"/>
	<rect x="362.548" y="268.288" style="fill:#CCCBCA;" width="6.789" height="13.386"/>
	<rect x="378.292" y="268.288" style="fill:#CCCBCA;" width="6.799" height="13.386"/>
	<rect x="394.036" y="268.288" style="fill:#CCCBCA;" width="6.83" height="13.386"/>
	<polygon style="fill:#CCCBCA;" points="329.153,209.306 319.686,199.859 314.891,204.654 324.328,214.1 	"/>
	
		<rect x="326.473" y="192.438" transform="matrix(-0.7079 -0.7063 0.7063 -0.7079 430.7077 569.7838)" style="fill:#CCCBCA;" width="13.396" height="6.789"/>
	
		<rect x="337.629" y="181.293" transform="matrix(-0.7063 -0.7079 0.7079 -0.7063 456.7454 558.8663)" style="fill:#CCCBCA;" width="13.348" height="6.787"/>
	<polygon style="fill:#CCCBCA;" points="362.571,175.882 353.112,166.431 348.312,171.233 357.751,180.692 	"/>
</g>
<g>
	<circle style="fill:#E6E5E5;" cx="156.061" cy="46.925" r="9.106"/>
	<circle style="fill:#E6E5E5;" cx="24.618" cy="178.796" r="16.389"/>
</g>
<circle style="fill:#353F49;" cx="58.738" cy="358.144" r="10.291"/>
<circle style="fill:#E6E5E5;" cx="489.14" cy="182.221" r="14.628"/>
<g>
	<path style="fill:#353F49;" d="M362.006,21.711c0,11.994-9.733,21.711-21.711,21.711c-11.986,0-21.711-9.718-21.711-21.711
		C318.583,9.725,328.311,0,340.294,0C352.273,0,362.006,9.725,362.006,21.711z"/>
	<path style="fill:#353F49;" d="M501.065,455.032c0,16.412-13.309,29.722-29.716,29.722c-16.422,0-29.719-13.309-29.719-29.722
		c0-16.402,13.297-29.711,29.719-29.711C487.753,425.321,501.065,438.63,501.065,455.032z"/>
	<circle style="fill:#353F49;" cx="61.851" cy="497.869" r="14.129"/>
</g>
<g>
</g>
<g>
</g>
<g>
</g>
<g>
</g>
<g>
</g>
<g>
</g>
<g>
</g>
<g>
</g>
<g>
</g>
<g>
</g>
<g>
</g>
<g>
</g>
<g>
</g>
<g>
</g>
<g>
</g>
</svg>
