<?xml version="1.0" encoding="iso-8859-1"?>
<!-- Generator: Adobe Illustrator 19.0.0, SVG Export Plug-In . SVG Version: 6.00 Build 0)  -->
<svg version="1.1" id="Layer_1" xmlns="http://www.w3.org/2000/svg" xmlns:xlink="http://www.w3.org/1999/xlink" x="0px" y="0px"
	 viewBox="0 0 512 512" style="enable-background:new 0 0 512 512;" xml:space="preserve">
<circle style="fill:#FF916E;" cx="256" cy="256" r="256"/>
<g>
	<rect x="252.003" y="35.718" style="fill:#FFFFFF;" width="8.007" height="53.413"/>
	<rect x="252.003" y="19.697" style="fill:#FFFFFF;" width="8.007" height="8.01"/>
	
		<rect x="92.413" y="115.112" transform="matrix(-0.7071 -0.7071 0.7071 -0.7071 119.1212 287.5733)" style="fill:#FFFFFF;" width="53.413" height="8.007"/>
	
		<rect x="87.734" y="87.731" transform="matrix(-0.7071 -0.7071 0.7071 -0.7071 91.7403 221.4759)" style="fill:#FFFFFF;" width="8.01" height="8.014"/>
	<rect x="35.711" y="251.97" style="fill:#FFFFFF;" width="53.413" height="8.014"/>
	<rect x="19.691" y="251.97" style="fill:#FFFFFF;" width="8.014" height="8.014"/>
	
		<rect x="115.087" y="366.188" transform="matrix(-0.7071 -0.7071 0.7071 -0.7071 -74.5187 754.9228)" style="fill:#FFFFFF;" width="8.007" height="53.413"/>
	
		<rect x="87.742" y="416.241" transform="matrix(-0.7065 -0.7077 0.7077 -0.7065 -140.8483 782.0852)" style="fill:#FFFFFF;" width="8.007" height="8.014"/>
	<rect x="252.003" y="422.879" style="fill:#FFFFFF;" width="8.007" height="53.413"/>
	<rect x="252.003" y="484.286" style="fill:#FFFFFF;" width="8.007" height="8.01"/>
	
		<rect x="366.197" y="388.859" transform="matrix(-0.7071 -0.7071 0.7071 -0.7071 392.9337 948.48)" style="fill:#FFFFFF;" width="53.413" height="8.004"/>
	
		<rect x="416.236" y="416.255" transform="matrix(-0.7069 -0.7073 0.7073 -0.7069 420.0615 1014.5893)" style="fill:#FFFFFF;" width="8.014" height="8.014"/>
	<rect x="422.879" y="252.003" style="fill:#FFFFFF;" width="53.413" height="8.014"/>
	<rect x="484.286" y="252.003" style="fill:#FFFFFF;" width="8.02" height="8.01"/>
	
		<rect x="388.883" y="92.408" transform="matrix(-0.7063 -0.7079 0.7079 -0.7063 586.0661 481.3736)" style="fill:#FFFFFF;" width="8.01" height="53.413"/>
	
		<rect x="416.264" y="87.737" transform="matrix(-0.7071 -0.7071 0.7071 -0.7071 652.569 453.7907)" style="fill:#FFFFFF;" width="8.007" height="8.014"/>
	
		<rect x="207.481" y="75.235" transform="matrix(-0.195 -0.9808 0.9808 -0.195 186.1716 311.2741)" style="fill:#FFFFFF;" width="26.69" height="8.004"/>
	
		<rect x="142.524" y="102.141" transform="matrix(-0.5555 -0.8315 0.8315 -0.5555 154.1935 294.7179)" style="fill:#FFFFFF;" width="26.69" height="8.01"/>
	
		<rect x="92.787" y="151.848" transform="matrix(-0.8314 -0.5556 0.5556 -0.8314 107.777 344.4077)" style="fill:#FFFFFF;" width="26.689" height="8.013"/>
	
		<rect x="65.89" y="216.814" transform="matrix(-0.9807 -0.1953 0.1953 -0.9807 113.8149 452.8574)" style="fill:#FFFFFF;" width="26.689" height="8.007"/>
	
		<rect x="75.24" y="277.814" transform="matrix(-0.195 -0.9808 0.9808 -0.195 -190.8732 425.6572)" style="fill:#FFFFFF;" width="8.007" height="26.69"/>
	
		<rect x="102.129" y="342.788" transform="matrix(-0.5551 -0.8318 0.8318 -0.5551 -131.1808 642.1002)" style="fill:#FFFFFF;" width="8.007" height="26.69"/>
	
		<rect x="151.857" y="392.512" transform="matrix(-0.8319 -0.5549 0.5549 -0.8319 60.3117 829.9833)" style="fill:#FFFFFF;" width="8.01" height="26.69"/>
	
		<rect x="216.799" y="419.413" transform="matrix(-0.9808 -0.195 0.195 -0.9808 352.9751 900.2972)" style="fill:#FFFFFF;" width="8.007" height="26.723"/>
	
		<rect x="277.795" y="428.742" transform="matrix(-0.1949 -0.9808 0.9808 -0.1949 -76.5427 802.6614)" style="fill:#FFFFFF;" width="26.723" height="8.007"/>
	
		<rect x="342.804" y="401.849" transform="matrix(-0.5556 -0.8315 0.8315 -0.5556 216.5621 927.4666)" style="fill:#FFFFFF;" width="26.691" height="8.014"/>
	
		<rect x="392.501" y="352.122" transform="matrix(-0.8314 -0.5556 0.5556 -0.8314 545.4077 877.7205)" style="fill:#FFFFFF;" width="26.689" height="8.01"/>
	
		<rect x="419.406" y="287.127" transform="matrix(-0.9807 -0.1953 0.1953 -0.9807 800.3074 661.1703)" style="fill:#FFFFFF;" width="26.689" height="8.003"/>
	
		<rect x="428.769" y="207.465" transform="matrix(-0.1948 -0.9808 0.9808 -0.1948 300.4883 688.3291)" style="fill:#FFFFFF;" width="8.013" height="26.722"/>
	
		<rect x="401.862" y="142.527" transform="matrix(-0.5551 -0.8318 0.8318 -0.5551 501.4919 580.0157)" style="fill:#FFFFFF;" width="8.007" height="26.723"/>
	
		<rect x="352.133" y="92.771" transform="matrix(-0.8315 -0.5555 0.5555 -0.8315 593.3105 392.2184)" style="fill:#FFFFFF;" width="8.007" height="26.723"/>
	
		<rect x="287.142" y="65.893" transform="matrix(-0.9808 -0.195 0.195 -0.9808 561.2464 213.7612)" style="fill:#FFFFFF;" width="8.007" height="26.723"/>
	
		<rect x="323.518" y="63.285" transform="matrix(-0.9236 -0.3833 0.3833 -0.9236 598.0993 285.7835)" style="fill:#FFFFFF;" width="8.01" height="40.034"/>
	
		<rect x="164.448" y="79.34" transform="matrix(-0.3827 -0.9239 0.9239 -0.3827 178.0819 285.6805)" style="fill:#FFFFFF;" width="40.069" height="8.011"/>
	
		<rect x="63.294" y="180.472" transform="matrix(-0.9239 -0.3826 0.3826 -0.9239 89.733 386.7994)" style="fill:#FFFFFF;" width="40.068" height="8.01"/>
	
		<rect x="79.305" y="307.487" transform="matrix(-0.3826 -0.9239 0.9239 -0.3826 -187.4153 529.8029)" style="fill:#FFFFFF;" width="8.01" height="40.068"/>
	
		<rect x="180.457" y="408.698" transform="matrix(-0.924 -0.3823 0.3823 -0.924 191.0151 895.4179)" style="fill:#FFFFFF;" width="8.007" height="40.07"/>
	
		<rect x="307.528" y="424.684" transform="matrix(-0.3826 -0.9239 0.9239 -0.3826 56.7966 895.3277)" style="fill:#FFFFFF;" width="40.035" height="8.007"/>
	
		<rect x="408.67" y="323.561" transform="matrix(-0.9239 -0.3827 0.3827 -0.9239 699.4186 794.2593)" style="fill:#FFFFFF;" width="40.069" height="8.011"/>
	
		<rect x="424.674" y="164.464" transform="matrix(-0.3826 -0.9239 0.9239 -0.3826 422.2339 651.1497)" style="fill:#FFFFFF;" width="8.01" height="40.068"/>
	<path style="fill:#FFFFFF;" d="M256,171.857c-62.289,0-116.64,33.861-145.722,84.146c29.085,50.285,83.433,84.143,145.722,84.143
		s116.634-33.858,145.722-84.143C372.634,205.718,318.289,171.857,256,171.857z"/>
</g>
<path style="fill:#E6E5E5;" d="M302.969,256.003c0,12.975-5.269,24.718-13.761,33.211l13.814,13.821
	c12.05-12.037,19.482-28.662,19.482-47.028h-19.535V256.003z"/>
<path style="fill:#353F49;" d="M255.997,209.048c25.934,0,46.972,21.018,46.972,46.952c0,0.003,0,0.003,0,0.003h19.535
	c0-36.722-29.782-66.491-66.51-66.491L255.997,209.048L255.997,209.048z"/>
<path style="fill:#ADECF7;" d="M255.987,209.048v-19.545c-9.001,0-17.6,1.794-25.425,5.07l7.472,18.046
	C243.567,210.326,249.618,209.048,255.987,209.048z"/>
<path style="fill:#76D0DE;" d="M289.188,289.224c-8.496,8.493-20.226,13.738-33.191,13.738c-25.927,0-46.965-21.025-46.965-46.962
	c0-19.562,11.974-36.319,28.999-43.381l-7.472-18.046c-24.11,9.966-41.059,33.733-41.059,61.44
	c0,36.699,29.788,66.487,66.484,66.487c18.356,0,35.001-7.422,47.031-19.439L289.188,289.224z"/>
<g>
	<path style="fill:#353F49;" d="M260.948,259.881h-9.896c-4.129,0-8.033-1.615-10.924-4.562c-2.91-2.844-4.535-6.732-4.535-10.897
		c0-4.155,1.625-8.027,4.535-10.957c2.864-2.877,6.762-4.489,10.924-4.489h21.451v7.799h-21.451c-2.065,0-4.013,0.789-5.394,2.19
		c-1.49,1.47-2.276,3.389-2.276,5.457c0,2.055,0.786,3.964,2.243,5.391c1.486,1.49,3.366,2.283,5.43,2.283h9.896v7.786H260.948z"/>
	<path style="fill:#353F49;" d="M260.948,283.004H239.5v-7.779h21.448c2.058,0,3.951-0.809,5.444-2.263
		c1.387-1.401,2.24-3.333,2.24-5.411c0-2.068-0.78-3.974-2.22-5.381c-1.513-1.49-3.406-2.292-5.464-2.292h-9.896v-7.782h9.896
		c4.136,0,8.04,1.622,10.954,4.542c2.884,2.844,4.509,6.758,4.509,10.917c0,4.142-1.619,8.05-4.509,10.94
		C268.929,281.389,265.041,283.004,260.948,283.004z"/>
	<rect x="252.135" y="226.271" style="fill:#353F49;" width="7.786" height="59.425"/>
</g>
<g>
</g>
<g>
</g>
<g>
</g>
<g>
</g>
<g>
</g>
<g>
</g>
<g>
</g>
<g>
</g>
<g>
</g>
<g>
</g>
<g>
</g>
<g>
</g>
<g>
</g>
<g>
</g>
<g>
</g>
</svg>
