<?xml version="1.0" encoding="iso-8859-1"?>
<!-- Generator: Adobe Illustrator 19.0.0, SVG Export Plug-In . SVG Version: 6.00 Build 0)  -->
<svg version="1.1" id="Layer_1" xmlns="http://www.w3.org/2000/svg" xmlns:xlink="http://www.w3.org/1999/xlink" x="0px" y="0px"
	 viewBox="0 0 512 512" style="enable-background:new 0 0 512 512;" xml:space="preserve">
<circle style="fill:#FFDB79;" cx="256" cy="256" r="256"/>
<polygon style="fill:#E6E5E5;" points="312.439,432.567 199.561,432.567 205.708,378.404 306.305,378.404 "/>
<polygon style="fill:#CCCBCA;" points="312.445,432.574 306.315,378.404 205.708,378.404 258.2,432.574 "/>
<g>
	<path style="fill:#FFFFFF;" d="M335,438.883H177v-2.689c0-0.928,0.344-1.856,1.057-2.563c0.684-0.71,1.619-1.06,2.547-1.06h150.786
		c0.915,0,1.853,0.35,2.543,1.06c0.714,0.71,1.064,1.635,1.064,2.563v2.689H335z"/>
	<path style="fill:#FFFFFF;" d="M459.148,369.373c0,2.312-0.892,4.631-2.662,6.375c-1.744,1.767-4.056,2.656-6.372,2.656H61.869
		c-2.302,0-4.605-0.889-6.372-2.656c-1.757-1.741-2.646-4.06-2.646-6.375V342.28h406.297V369.373z"/>
</g>
<path style="fill:#353F49;" d="M459.148,82.141c0-2.322-0.892-4.621-2.662-6.392c-1.744-1.757-4.056-2.636-6.372-2.636H61.869
	c-2.302,0-4.605,0.879-6.372,2.636c-1.757,1.771-2.646,4.07-2.646,6.392V342.28h406.297V82.141z"/>
<rect x="73.199" y="93.415" style="fill:#FFFFFF;" width="365.634" height="228.517"/>
<rect x="84.232" y="104.478" style="fill:#F77B55;" width="343.569" height="217.465"/>
<rect x="335.178" y="130.352" style="fill:#353F49;" width="17.619" height="5.814"/>
<rect x="398.898" y="159.447" style="fill:#FFFFFF;" width="10.517" height="5.81"/>
<rect x="358.598" y="130.352" style="fill:#353F49;" width="26.459" height="5.814"/>
<g>
	<rect x="358.598" y="159.447" style="fill:#FFFFFF;" width="34.479" height="5.81"/>
	<rect x="346.971" y="144.886" style="fill:#FFFFFF;" width="51.93" height="5.817"/>
</g>
<rect id="SVGCleanerId_0" x="335.178" y="173.964" style="fill:#353F49;" width="17.619" height="5.81"/>
<rect id="SVGCleanerId_1" x="398.898" y="203.049" style="fill:#FFFFFF;" width="10.517" height="5.817"/>
<rect id="SVGCleanerId_2" x="358.598" y="173.964" style="fill:#353F49;" width="26.459" height="5.81"/>
<rect id="SVGCleanerId_3" x="358.598" y="203.049" style="fill:#FFFFFF;" width="34.479" height="5.817"/>
<rect id="SVGCleanerId_4" x="346.971" y="188.482" style="fill:#FFFFFF;" width="51.93" height="5.824"/>
<rect id="SVGCleanerId_5" x="335.178" y="217.57" style="fill:#353F49;" width="17.619" height="5.814"/>
<rect id="SVGCleanerId_6" x="398.898" y="246.652" style="fill:#FFFFFF;" width="10.517" height="5.814"/>
<rect id="SVGCleanerId_7" x="358.598" y="217.57" style="fill:#353F49;" width="26.459" height="5.814"/>
<rect id="SVGCleanerId_8" x="358.598" y="246.652" style="fill:#FFFFFF;" width="34.479" height="5.814"/>
<rect id="SVGCleanerId_9" x="346.971" y="232.118" style="fill:#FFFFFF;" width="51.93" height="5.82"/>
<g>
	<rect id="SVGCleanerId_0_1_" x="335.178" y="173.964" style="fill:#353F49;" width="17.619" height="5.81"/>
</g>
<g>
	<rect id="SVGCleanerId_1_1_" x="398.898" y="203.049" style="fill:#FFFFFF;" width="10.517" height="5.817"/>
</g>
<g>
	<rect id="SVGCleanerId_2_1_" x="358.598" y="173.964" style="fill:#353F49;" width="26.459" height="5.81"/>
</g>
<g>
	<rect id="SVGCleanerId_3_1_" x="358.598" y="203.049" style="fill:#FFFFFF;" width="34.479" height="5.817"/>
</g>
<g>
	<rect id="SVGCleanerId_4_1_" x="346.971" y="188.482" style="fill:#FFFFFF;" width="51.93" height="5.824"/>
</g>
<g>
	<rect id="SVGCleanerId_5_1_" x="335.178" y="217.57" style="fill:#353F49;" width="17.619" height="5.814"/>
</g>
<g>
	<rect id="SVGCleanerId_6_1_" x="398.898" y="246.652" style="fill:#FFFFFF;" width="10.517" height="5.814"/>
</g>
<g>
	<rect id="SVGCleanerId_7_1_" x="358.598" y="217.57" style="fill:#353F49;" width="26.459" height="5.814"/>
</g>
<g>
	<rect id="SVGCleanerId_8_1_" x="358.598" y="246.652" style="fill:#FFFFFF;" width="34.479" height="5.814"/>
</g>
<g>
	<rect id="SVGCleanerId_9_1_" x="346.971" y="232.118" style="fill:#FFFFFF;" width="51.93" height="5.82"/>
</g>
<rect x="335.178" y="261.186" style="fill:#353F49;" width="17.619" height="5.817"/>
<rect x="398.898" y="290.254" style="fill:#FFFFFF;" width="10.517" height="5.814"/>
<rect x="358.598" y="261.186" style="fill:#353F49;" width="26.459" height="5.817"/>
<g>
	<rect x="358.598" y="290.254" style="fill:#FFFFFF;" width="34.479" height="5.814"/>
	<rect x="346.971" y="275.72" style="fill:#FFFFFF;" width="51.93" height="5.817"/>
	<rect x="102.598" y="144.879" style="fill:#FFFFFF;" width="74.247" height="34.885"/>
	<rect x="142.633" y="188.482" style="fill:#FFFFFF;" width="34.212" height="34.892"/>
	<rect x="102.598" y="188.482" style="fill:#FFFFFF;" width="34.215" height="34.892"/>
</g>
<g>
	<rect x="102.598" y="130.345" style="fill:#353F49;" width="74.247" height="5.814"/>
	<rect x="102.598" y="232.085" style="fill:#353F49;" width="74.247" height="5.82"/>
</g>
<g>
	<rect x="102.598" y="246.652" style="fill:#FFFFFF;" width="74.247" height="5.817"/>
	<rect x="102.598" y="261.186" style="fill:#FFFFFF;" width="74.247" height="5.82"/>
	<rect x="102.598" y="275.72" style="fill:#FFFFFF;" width="74.247" height="5.814"/>
	<rect x="102.598" y="290.254" style="fill:#FFFFFF;" width="74.247" height="5.817"/>
	<rect x="254.157" style="fill:#FFFFFF;" width="3.683" height="192.083"/>
</g>
<g>
	<path style="fill:#474F59;" d="M256,214.607c-1.074,0-2.141-0.053-3.204-0.129l-1.288-0.089l-0.509-1.183
		c-5.361-12.39-17.543-20.655-31.034-21.055l-1.285-0.04l-0.562-1.153c-2.844-5.797-4.284-12.024-4.284-18.505
		c0-16.784,9.949-31.962,25.352-38.668c1.06-0.462,2.325,0.023,2.798,1.1c0.466,1.077-0.026,2.332-1.103,2.801
		c-13.844,6.028-22.792,19.674-22.792,34.766c0,5.411,1.116,10.62,3.316,15.502c14.168,0.902,26.872,9.523,32.953,22.356
		c1.087,0.056,2.19,0.056,3.28,0c6.085-12.833,18.792-21.451,32.956-22.356c2.2-4.885,3.316-10.095,3.316-15.502
		c0-15.096-8.955-28.741-22.802-34.766c-1.077-0.469-1.572-1.721-1.103-2.801c0.469-1.074,1.721-1.569,2.798-1.1
		c15.406,6.699,25.362,21.877,25.362,38.668c0,6.481-1.44,12.708-4.284,18.505l-0.562,1.153l-1.285,0.04
		c-13.484,0.4-25.666,8.664-31.037,21.058l-0.515,1.179l-1.285,0.089C258.141,214.554,257.077,214.607,256,214.607z"/>
	<path style="fill:#474F59;" d="M256,226.958c-1.259,0-2.58-0.053-4.07-0.165l-8.218-0.621l-3.277-7.568
		c-3.6-8.308-11.769-13.847-20.807-14.111l-8.245-0.248l-3.617-7.396c-3.617-7.396-5.444-15.33-5.444-23.572
		c0-4.714,0.621-9.414,1.85-13.969c0.307-1.13,1.457-1.807,2.606-1.496c1.133,0.307,1.807,1.47,1.5,2.606
		c-1.133,4.195-1.704,8.519-1.704,12.859c0,7.594,1.688,14.894,5.011,21.702l2.497,5.094l5.678,0.168
		c10.676,0.317,20.328,6.861,24.579,16.678l2.253,5.209l5.668,0.426c2.728,0.205,4.76,0.205,7.492,0l5.668-0.426l2.253-5.209
		c4.251-9.817,13.903-16.361,24.579-16.678l5.685-0.168l2.491-5.094c3.323-6.798,5.011-14.098,5.011-21.702
		c0-4.337-0.571-8.661-1.701-12.859c-0.304-1.136,0.367-2.302,1.503-2.606c1.126-0.301,2.296,0.367,2.603,1.5
		c1.225,4.558,1.846,9.259,1.846,13.966c0,8.258-1.83,16.189-5.444,23.572l-3.624,7.396l-8.238,0.248
		c-9.038,0.264-17.207,5.807-20.807,14.111l-3.277,7.568l-8.218,0.621C258.58,226.905,257.259,226.958,256,226.958z"/>
	<path style="fill:#474F59;" d="M303.368,290.925c-0.277,0-0.568-0.059-0.839-0.178c-1.077-0.466-1.579-1.714-1.11-2.795
		c2.666-6.177,4.01-12.737,4.01-19.496c0-7.607-1.688-14.911-5.011-21.699l-2.497-5.097l-5.678-0.172
		c-10.676-0.314-20.321-6.854-24.579-16.671l-2.253-5.212l-5.675-0.426c-2.722-0.205-4.747-0.208-7.485,0.003l-5.668,0.423
		l-2.253,5.206c-4.258,9.82-13.903,16.364-24.583,16.678l-5.675,0.172l-2.497,5.097c-3.323,6.805-5.011,14.108-5.011,21.699
		c0,6.755,1.344,13.315,4.01,19.499c0.466,1.077-0.036,2.329-1.113,2.795c-1.074,0.466-2.325-0.033-2.791-1.116
		c-2.897-6.715-4.357-13.841-4.357-21.177c0-8.245,1.83-16.173,5.444-23.569l3.617-7.399l8.245-0.248
		c9.038-0.264,17.206-5.807,20.807-14.115l3.277-7.564l8.218-0.621c2.97-0.225,5.176-0.225,8.136-0.003l8.225,0.621l3.277,7.568
		c3.6,8.311,11.769,13.847,20.807,14.111l8.245,0.248l3.617,7.396c3.617,7.376,5.444,15.31,5.444,23.572
		c0,7.34-1.467,14.465-4.357,21.18C304.974,290.443,304.194,290.925,303.368,290.925z"/>
	<path style="fill:#474F59;" d="M216.827,278.848c-0.984,0-1.863-0.69-2.078-1.695c-0.604-2.884-0.908-5.81-0.908-8.697
		c0-6.478,1.44-12.708,4.284-18.508l0.562-1.153l1.285-0.04c13.49-0.4,25.669-8.664,31.034-21.048l0.509-1.183l1.288-0.092
		c2.121-0.155,4.294-0.155,6.398,0l1.285,0.092l0.515,1.179c5.374,12.387,17.553,20.652,31.037,21.051l1.285,0.04l0.562,1.153
		c2.844,5.8,4.284,12.03,4.284,18.508c0,2.828-0.307,5.751-0.908,8.691c-0.238,1.156-1.381,1.896-2.507,1.655
		c-1.153-0.235-1.896-1.358-1.662-2.507c0.548-2.659,0.826-5.298,0.826-7.839c0-5.407-1.116-10.617-3.316-15.505
		c-14.164-0.902-26.872-9.523-32.963-22.356c-1.077-0.056-2.187-0.056-3.273,0c-6.075,12.833-18.785,21.451-32.953,22.356
		c-2.2,4.889-3.316,10.101-3.316,15.505c0,2.593,0.277,5.229,0.819,7.832c0.241,1.15-0.495,2.273-1.645,2.514
		C217.118,278.832,216.976,278.848,216.827,278.848z"/>
	<path style="fill:#474F59;" d="M252.779,255.911c-0.311,0-0.621-0.079-0.895-0.251c-2.358-1.453-3.762-3.961-3.762-6.709
		c0-4.344,3.531-7.878,7.875-7.878c4.344,0,7.875,3.531,7.875,7.878c0,2.748-1.41,5.255-3.762,6.706
		c-0.793,0.486-1.843,0.244-2.339-0.555c-0.492-0.799-0.244-1.85,0.552-2.342c1.348-0.829,2.144-2.253,2.144-3.809
		c0-2.468-2.002-4.473-4.473-4.473c-2.471,0-4.473,2.005-4.473,4.473c0,1.559,0.799,2.98,2.144,3.809
		c0.796,0.495,1.044,1.546,0.552,2.345C253.906,255.623,253.348,255.911,252.779,255.911z"/>
</g>
<g>
	<circle style="fill:#353F49;" cx="256" cy="212.265" r="21.395"/>
	<circle style="fill:#353F49;" cx="256" cy="236.247" r="11.112"/>
</g>
<path style="fill:#474F59;" d="M256,226.274c-7.716,0-13.986-6.279-13.986-13.996c0-7.716,6.27-13.992,13.986-13.992
	s13.992,6.276,13.992,13.992C269.992,219.995,263.716,226.274,256,226.274z"/>
<g>
	<circle style="fill:#FFFFFF;" cx="256" cy="212.265" r="2.058"/>
	<circle style="fill:#FFFFFF;" cx="256" cy="221.349" r="4.938"/>
</g>
<g>
</g>
<g>
</g>
<g>
</g>
<g>
</g>
<g>
</g>
<g>
</g>
<g>
</g>
<g>
</g>
<g>
</g>
<g>
</g>
<g>
</g>
<g>
</g>
<g>
</g>
<g>
</g>
<g>
</g>
</svg>
