<?xml version="1.0" encoding="iso-8859-1"?>
<!-- Generator: Adobe Illustrator 19.0.0, SVG Export Plug-In . SVG Version: 6.00 Build 0)  -->
<svg version="1.1" id="Layer_1" xmlns="http://www.w3.org/2000/svg" xmlns:xlink="http://www.w3.org/1999/xlink" x="0px" y="0px"
	 viewBox="0 0 511.995 511.995" style="enable-background:new 0 0 511.995 511.995;" xml:space="preserve">
<rect x="52.475" y="101.382" style="fill:#474F59;" width="245.888" height="332.211"/>
<g>
	<rect x="79.055" y="129.535" style="fill:#CCCBCA;" width="50.243" height="5.263"/>
	<rect x="79.055" y="169.568" style="fill:#CCCBCA;" width="14.177" height="5.263"/>
	<rect x="138.058" y="129.535" style="fill:#CCCBCA;" width="19.978" height="5.263"/>
	<rect x="96.914" y="169.568" style="fill:#CCCBCA;" width="51.105" height="5.263"/>
	<rect x="93.233" y="143.21" style="fill:#CCCBCA;" width="22.528" height="5.243"/>
	<rect x="93.233" y="210.63" style="fill:#CCCBCA;" width="22.528" height="5.253"/>
	<rect x="79.055" y="291.782" style="fill:#CCCBCA;" width="36.705" height="5.184"/>
	<rect x="93.233" y="224.352" style="fill:#CCCBCA;" width="9.285" height="5.184"/>
	<rect x="121.062" y="210.63" style="fill:#CCCBCA;" width="58.88" height="5.253"/>
	<rect x="117.302" y="251.667" style="fill:#CCCBCA;" width="20.506" height="5.266"/>
	<rect x="105.216" y="400.198" style="fill:#CCCBCA;" width="20.48" height="5.258"/>
	<rect x="143.188" y="251.667" style="fill:#CCCBCA;" width="33.265" height="5.266"/>
	<rect x="181.297" y="305.453" style="fill:#CCCBCA;" width="16.98" height="5.181"/>
	<rect x="121.705" y="372.858" style="fill:#CCCBCA;" width="39.77" height="5.184"/>
	<rect x="134.579" y="400.198" style="fill:#CCCBCA;" width="46.735" height="5.258"/>
	<rect x="218.598" y="332.845" style="fill:#CCCBCA;" width="16.98" height="5.179"/>
	<rect x="184.73" y="251.667" style="fill:#CCCBCA;" width="40.041" height="5.266"/>
	<rect x="186.632" y="210.63" style="fill:#CCCBCA;" width="42.342" height="5.253"/>
	<rect x="237.568" y="210.63" style="fill:#CCCBCA;" width="25.935" height="5.253"/>
	<rect x="93.233" y="183.315" style="fill:#CCCBCA;" width="33.587" height="5.179"/>
	<rect x="93.233" y="196.97" style="fill:#CCCBCA;" width="47.683" height="5.187"/>
	<rect x="105.984" y="224.352" style="fill:#CCCBCA;" width="54.612" height="5.184"/>
	<rect x="93.233" y="319.098" style="fill:#CCCBCA;" width="54.615" height="5.253"/>
	<rect x="113.254" y="332.845" style="fill:#CCCBCA;" width="39.974" height="5.179"/>
	<rect x="144.333" y="386.528" style="fill:#CCCBCA;" width="106.214" height="5.251"/>
	<rect x="195.558" y="400.198" style="fill:#CCCBCA;" width="23.27" height="5.258"/>
	<rect x="159.693" y="332.845" style="fill:#CCCBCA;" width="52.04" height="5.179"/>
	<rect x="176.579" y="372.858" style="fill:#CCCBCA;" width="52.073" height="5.184"/>
	<rect x="105.984" y="238.022" style="fill:#CCCBCA;" width="17.751" height="5.199"/>
	<rect x="105.984" y="265.414" style="fill:#CCCBCA;" width="19.295" height="5.184"/>
	<rect x="93.233" y="305.453" style="fill:#CCCBCA;" width="81.183" height="5.181"/>
	<rect x="93.233" y="332.845" style="fill:#CCCBCA;" width="12.972" height="5.179"/>
	<rect x="79.055" y="372.858" style="fill:#CCCBCA;" width="36.398" height="5.184"/>
	<rect x="93.233" y="386.528" style="fill:#CCCBCA;" width="41.454" height="5.253"/>
	<rect x="129.306" y="238.022" style="fill:#CCCBCA;" width="106.675" height="5.199"/>
	<rect x="104.566" y="346.49" style="fill:#CCCBCA;" width="34.122" height="5.171"/>
	<rect x="150.395" y="346.49" style="fill:#CCCBCA;" width="94.308" height="5.171"/>
	<rect x="165.888" y="224.352" style="fill:#CCCBCA;" width="9.772" height="5.184"/>
	<rect x="183.014" y="224.352" style="fill:#CCCBCA;" width="18.322" height="5.184"/>
	<rect x="145.997" y="196.97" style="fill:#CCCBCA;" width="47.68" height="5.187"/>
	<rect x="196.954" y="196.97" style="fill:#CCCBCA;" width="39.142" height="5.187"/>
	<rect x="250.547" y="196.97" style="fill:#CCCBCA;" width="21.225" height="5.187"/>
	<rect x="137.823" y="183.315" style="fill:#CCCBCA;" width="51.661" height="5.179"/>
	<rect x="124.083" y="143.21" style="fill:#CCCBCA;" width="51.141" height="5.243"/>
</g>
<rect x="52.475" y="74.771" style="fill:#232E38;" width="245.888" height="26.614"/>
<path style="fill:#E6E5E5;" d="M437.814,265.038v187c0,13.381-10.847,24.274-24.23,24.274c-13.335,0-24.182-10.895-24.182-24.274
	V224.362c0-15.498-12.641-28.152-28.132-28.152c-15.498,0-28.086,12.654-28.086,28.152v54.966h3.855v-54.966
	c0-13.368,10.888-24.261,24.23-24.261c13.363,0,24.23,10.89,24.23,24.261v227.676c0,15.501,12.593,28.099,28.086,28.099
	c15.501,0,28.132-12.598,28.132-28.099v-187H437.814L437.814,265.038z"/>
<rect x="330.317" y="279.315" style="fill:#CCCBCA;" width="9.539" height="17.654"/>
<rect x="434.995" y="226.963" style="fill:#E6E5E5;" width="9.521" height="11.438"/>
<g>
	<rect x="432.154" y="238.406" style="fill:#CCCBCA;" width="15.24" height="26.639"/>
	<rect x="158.228" y="297.107" style="fill:#CCCBCA;" width="353.766" height="136.499"/>
</g>
<g>
	<rect x="169.856" y="308.781" style="fill:#FFFFFF;" width="17.646" height="17.587"/>
	<rect x="459.546" y="331.949" style="fill:#FFFFFF;" width="17.641" height="17.59"/>
	<rect x="436.403" y="331.949" style="fill:#FFFFFF;" width="17.605" height="17.59"/>
	<rect x="413.235" y="331.949" style="fill:#FFFFFF;" width="17.595" height="17.59"/>
	<rect x="390.042" y="331.949" style="fill:#FFFFFF;" width="17.646" height="17.59"/>
	<rect x="366.874" y="331.949" style="fill:#FFFFFF;" width="17.62" height="17.59"/>
	<rect x="343.706" y="331.949" style="fill:#FFFFFF;" width="17.605" height="17.59"/>
	<rect x="320.512" y="331.949" style="fill:#FFFFFF;" width="17.649" height="17.59"/>
	<rect x="297.318" y="331.949" style="fill:#FFFFFF;" width="17.649" height="17.59"/>
	<rect x="274.176" y="331.949" style="fill:#FFFFFF;" width="17.603" height="17.59"/>
	<rect x="250.982" y="331.949" style="fill:#FFFFFF;" width="17.618" height="17.59"/>
	<rect x="227.809" y="331.949" style="fill:#FFFFFF;" width="17.644" height="17.59"/>
	<rect x="204.657" y="331.949" style="fill:#FFFFFF;" width="17.605" height="17.59"/>
	<rect x="210.227" y="355.066" style="fill:#FFFFFF;" width="17.61" height="17.597"/>
	<rect x="198.912" y="378.285" style="fill:#FFFFFF;" width="17.613" height="17.608"/>
	<rect x="222.054" y="378.285" style="fill:#FFFFFF;" width="17.654" height="17.608"/>
	<rect x="245.222" y="378.285" style="fill:#FFFFFF;" width="17.608" height="17.608"/>
	<rect x="268.416" y="378.285" style="fill:#FFFFFF;" width="17.608" height="17.608"/>
	<rect x="291.558" y="378.285" style="fill:#FFFFFF;" width="17.649" height="17.608"/>
	<rect x="314.752" y="378.285" style="fill:#FFFFFF;" width="17.595" height="17.608"/>
	<rect x="337.946" y="378.285" style="fill:#FFFFFF;" width="17.597" height="17.608"/>
	<rect x="361.062" y="378.285" style="fill:#FFFFFF;" width="17.649" height="17.608"/>
	<rect x="384.256" y="378.285" style="fill:#FFFFFF;" width="17.646" height="17.608"/>
	<rect x="407.45" y="378.285" style="fill:#FFFFFF;" width="17.6" height="17.608"/>
	<rect x="430.592" y="378.285" style="fill:#FFFFFF;" width="17.636" height="17.608"/>
	<rect x="453.734" y="378.285" style="fill:#FFFFFF;" width="46.605" height="17.608"/>
	<rect x="233.395" y="355.066" style="fill:#FFFFFF;" width="17.608" height="17.597"/>
	<rect x="256.563" y="355.066" style="fill:#FFFFFF;" width="17.651" height="17.597"/>
	<rect x="279.731" y="355.066" style="fill:#FFFFFF;" width="17.592" height="17.597"/>
	<rect x="302.925" y="355.066" style="fill:#FFFFFF;" width="17.61" height="17.597"/>
	<rect x="326.067" y="355.066" style="fill:#FFFFFF;" width="17.646" height="17.597"/>
	<rect x="349.235" y="355.066" style="fill:#FFFFFF;" width="17.603" height="17.597"/>
	<rect x="372.429" y="355.066" style="fill:#FFFFFF;" width="17.603" height="17.597"/>
	<rect x="395.571" y="355.066" style="fill:#FFFFFF;" width="17.641" height="17.597"/>
	<rect x="418.739" y="355.066" style="fill:#FFFFFF;" width="17.651" height="17.597"/>
	<rect x="441.907" y="355.066" style="fill:#FFFFFF;" width="17.608" height="17.597"/>
	<rect x="465.075" y="355.066" style="fill:#FFFFFF;" width="17.633" height="17.597"/>
	<rect x="193.05" y="308.781" style="fill:#FFFFFF;" width="17.638" height="17.587"/>
	<rect x="216.218" y="308.781" style="fill:#FFFFFF;" width="17.605" height="17.587"/>
	<rect x="239.411" y="308.781" style="fill:#FFFFFF;" width="17.605" height="17.587"/>
	<rect x="262.554" y="308.781" style="fill:#FFFFFF;" width="17.654" height="17.587"/>
	<rect x="285.747" y="308.781" style="fill:#FFFFFF;" width="17.603" height="17.587"/>
	<rect x="308.941" y="308.781" style="fill:#FFFFFF;" width="17.587" height="17.587"/>
	<rect x="332.083" y="308.781" style="fill:#FFFFFF;" width="17.636" height="17.587"/>
	<rect x="355.251" y="308.781" style="fill:#FFFFFF;" width="17.638" height="17.587"/>
	<rect x="378.445" y="308.781" style="fill:#FFFFFF;" width="17.605" height="17.587"/>
	<rect x="401.587" y="308.781" style="fill:#FFFFFF;" width="17.656" height="17.587"/>
	<rect x="424.781" y="308.781" style="fill:#FFFFFF;" width="17.638" height="17.587"/>
	<rect x="447.949" y="308.781" style="fill:#FFFFFF;" width="17.605" height="17.587"/>
	<rect x="471.117" y="308.781" style="fill:#FFFFFF;" width="29.23" height="17.587"/>
	<rect x="169.856" y="331.923" style="fill:#FFFFFF;" width="29.235" height="17.592"/>
	<rect x="169.856" y="355.066" style="fill:#FFFFFF;" width="34.852" height="17.597"/>
	<rect x="169.856" y="378.285" style="fill:#FFFFFF;" width="23.493" height="17.608"/>
	<rect x="169.856" y="401.427" style="fill:#FFFFFF;" width="17.651" height="20.531"/>
	<rect x="192.973" y="401.427" style="fill:#FFFFFF;" width="17.613" height="20.531"/>
	<rect x="216.064" y="401.427" style="fill:#FFFFFF;" width="17.651" height="20.531"/>
	<rect x="239.181" y="401.427" style="fill:#FFFFFF;" width="23.639" height="20.531"/>
	<rect x="268.416" y="401.427" style="fill:#FFFFFF;" width="110.31" height="20.531"/>
	<rect x="384.256" y="401.427" style="fill:#FFFFFF;" width="23.667" height="20.531"/>
	<rect x="413.414" y="401.427" style="fill:#FFFFFF;" width="17.62" height="20.531"/>
	<rect x="436.582" y="412.41" style="fill:#FFFFFF;" width="17.644" height="9.562"/>
	<rect x="459.674" y="412.947" style="fill:#FFFFFF;" width="17.603" height="9.006"/>
	<rect x="459.674" y="401.376" style="fill:#FFFFFF;" width="17.603" height="9.011"/>
	<rect x="482.739" y="412.41" style="fill:#FFFFFF;" width="17.61" height="9.562"/>
	<polygon style="fill:#FFFFFF;" points="488.241,372.673 488.241,349.539 482.737,349.539 482.737,331.949 500.344,331.949 
		500.344,372.673 	"/>
</g>
<rect x="204.109" y="31.853" style="fill:#E6E5E5;" width="143.094" height="85.793"/>
<g>
	<path style="fill:#353F49;" d="M232.796,86.191V63.31h4.652v9.027h9.068V63.31h4.654v22.881h-4.654v-10.03h-9.068v10.03H232.796z"
		/>
	<path style="fill:#353F49;" d="M261.092,86.191V67.14h-6.799v-3.83h18.24v3.83h-6.784v19.052H261.092z"/>
	<path style="fill:#353F49;" d="M275.471,86.191V63.31h6.943l4.145,15.631l4.134-15.631h6.961v22.881h-4.332V68.133l-4.552,18.058
		h-4.465l-4.534-18.058v18.058H275.471z"/>
	<path style="fill:#353F49;" d="M302.346,86.191V63.469h4.652v18.908h11.52v3.817h-16.172V86.191z"/>
	<rect x="368.563" y="132.645" style="fill:#353F49;" width="102.554" height="46.182"/>
</g>
<g>
	<path style="fill:#FFFFFF;" d="M409.697,158.035l3.387,1.073c-0.52,1.92-1.375,3.354-2.596,4.283
		c-1.224,0.932-2.76,1.405-4.646,1.405c-2.312,0-4.191-0.822-5.686-2.388c-1.487-1.577-2.237-3.794-2.237-6.505
		c0-2.911,0.75-5.156,2.25-6.787c1.5-1.595,3.443-2.435,5.891-2.435c2.15,0,3.886,0.684,5.202,1.915
		c0.788,0.781,1.408,1.843,1.782,3.251l-3.484,0.791c-0.218-0.85-0.625-1.605-1.29-2.125c-0.668-0.52-1.454-0.817-2.363-0.817
		c-1.326,0-2.368,0.463-3.164,1.405c-0.796,0.937-1.213,2.437-1.213,4.513c0,2.24,0.41,3.807,1.201,4.749
		c0.788,0.945,1.812,1.426,3.075,1.426c0.952,0,1.746-0.333,2.432-0.916C408.919,160.283,409.408,159.348,409.697,158.035z"/>
	<path style="fill:#FFFFFF;" d="M419.935,161.962v-4.529h-4.593v-3.118h4.593v-4.526h3.044v4.526h4.564v3.118h-4.564v4.526h-3.044
		V161.962z"/>
	<path style="fill:#FFFFFF;" d="M434.171,161.962v-4.529h-4.595v-3.118h4.595v-4.526h3.041v4.526h4.567v3.118h-4.567v4.526h-3.041
		V161.962z"/>
</g>
<circle style="fill:#F77B55;" cx="52.475" cy="427.667" r="52.475"/>
<g>
	<path style="fill:#FFFFFF;" d="M19.604,439.848v-24.31h7.885c2.985,0,4.936,0.11,5.816,0.394c1.405,0.381,2.545,1.121,3.492,2.394
		c0.95,1.18,1.426,2.747,1.426,4.69c0,1.485-0.271,2.788-0.806,3.791c-0.571,1.009-1.231,1.766-2.086,2.33
		c-0.822,0.65-1.654,0.97-2.537,1.211c-1.167,0.189-2.844,0.289-5.069,0.289H24.52v9.211L19.604,439.848L19.604,439.848z
		 M24.52,419.639v6.897h2.691c1.943,0,3.228-0.102,3.858-0.389c0.666-0.218,1.172-0.635,1.526-1.165
		c0.389-0.532,0.586-1.147,0.586-1.905c0-0.906-0.259-1.603-0.773-2.156c-0.556-0.573-1.185-0.947-1.976-1.073
		c-0.609-0.164-1.759-0.21-3.523-0.21H24.52z"/>
	<path style="fill:#FFFFFF;" d="M42.255,439.848v-24.31h4.913v9.549h9.59v-9.549h4.915v24.31h-4.915v-10.675h-9.59v10.675H42.255z"
		/>
	<path style="fill:#FFFFFF;" d="M66.729,439.848v-24.31h7.844c2.985,0,4.936,0.11,5.852,0.394c1.372,0.381,2.55,1.121,3.497,2.394
		c0.906,1.18,1.385,2.747,1.385,4.69c0,1.485-0.269,2.788-0.801,3.791c-0.535,1.009-1.234,1.766-2.056,2.33
		c-0.858,0.65-1.692,0.97-2.534,1.211c-1.183,0.189-2.885,0.289-5.107,0.289h-3.2v9.211L66.729,439.848L66.729,439.848z
		 M71.608,419.639v6.897h2.691c1.94,0,3.226-0.102,3.891-0.389c0.632-0.218,1.139-0.635,1.531-1.165
		c0.353-0.532,0.548-1.147,0.548-1.905c0-0.906-0.261-1.603-0.778-2.156c-0.515-0.573-1.183-0.947-1.974-1.073
		c-0.571-0.164-1.759-0.21-3.52-0.21H71.608z"/>
</g>
<g>
</g>
<g>
</g>
<g>
</g>
<g>
</g>
<g>
</g>
<g>
</g>
<g>
</g>
<g>
</g>
<g>
</g>
<g>
</g>
<g>
</g>
<g>
</g>
<g>
</g>
<g>
</g>
<g>
</g>
</svg>
