<?xml version="1.0" encoding="iso-8859-1"?>
<!-- Generator: Adobe Illustrator 19.0.0, SVG Export Plug-In . SVG Version: 6.00 Build 0)  -->
<svg version="1.1" id="Layer_1" xmlns="http://www.w3.org/2000/svg" xmlns:xlink="http://www.w3.org/1999/xlink" x="0px" y="0px"
	 viewBox="0 0 512 512" style="enable-background:new 0 0 512 512;" xml:space="preserve">
<polygon style="fill:#D9D8D7;" points="327.122,478.506 184.878,478.506 192.627,410.249 319.396,410.249 "/>
<polygon style="fill:#CCCBCA;" points="327.13,478.514 319.409,410.249 192.627,410.249 258.772,478.514 "/>
<g>
	<path style="fill:#E6E5E5;" d="M355.553,486.463H156.447v-3.389c0-1.17,0.43-2.337,1.334-3.231c0.863-0.896,2.04-1.336,3.213-1.336
		h190.016c1.155,0,2.335,0.443,3.205,1.336c0.899,0.893,1.339,2.061,1.339,3.231V486.463z"/>
	<path style="fill:#E6E5E5;" d="M512,398.872c0,2.916-1.121,5.837-3.354,8.033c-2.199,2.227-5.11,3.346-8.031,3.346H11.366
		c-2.903,0-5.801-1.119-8.031-3.346C1.121,404.709,0,401.786,0,398.872V364.73h512V398.872z"/>
</g>
<path style="fill:#353F49;" d="M512,36.911c0-2.926-1.121-5.824-3.354-8.054c-2.199-2.214-5.11-3.32-8.031-3.32H11.366
	c-2.903,0-5.801,1.106-8.031,3.32C1.121,31.087,0,33.985,0,36.911V364.73h512V36.911z"/>
<rect x="25.626" y="51.135" style="fill:#FFFFFF;" width="460.774" height="287.974"/>
<rect x="39.547" y="65.059" style="fill:#F77B55;" width="432.947" height="274.048"/>
<rect x="355.763" y="97.665" style="fill:#353F49;" width="22.205" height="7.324"/>
<rect x="436.07" y="134.299" style="fill:#FFFFFF;" width="13.251" height="7.322"/>
<rect x="385.28" y="97.665" style="fill:#353F49;" width="33.357" height="7.324"/>
<g>
	<rect x="385.28" y="134.299" style="fill:#FFFFFF;" width="43.453" height="7.322"/>
	<rect x="370.637" y="115.969" style="fill:#FFFFFF;" width="65.441" height="7.329"/>
</g>
<rect id="SVGCleanerId_0" x="355.763" y="152.628" style="fill:#353F49;" width="22.205" height="7.319"/>
<rect id="SVGCleanerId_1" x="436.07" y="189.257" style="fill:#FFFFFF;" width="13.251" height="7.329"/>
<rect id="SVGCleanerId_2" x="385.28" y="152.628" style="fill:#353F49;" width="33.357" height="7.319"/>
<rect id="SVGCleanerId_3" x="385.28" y="189.257" style="fill:#FFFFFF;" width="43.453" height="7.329"/>
<rect id="SVGCleanerId_4" x="370.637" y="170.932" style="fill:#FFFFFF;" width="65.441" height="7.337"/>
<rect id="SVGCleanerId_5" x="355.763" y="207.566" style="fill:#353F49;" width="22.205" height="7.324"/>
<rect id="SVGCleanerId_6" x="436.07" y="244.2" style="fill:#FFFFFF;" width="13.251" height="7.324"/>
<rect id="SVGCleanerId_7" x="385.28" y="207.566" style="fill:#353F49;" width="33.357" height="7.324"/>
<rect id="SVGCleanerId_8" x="385.28" y="244.2" style="fill:#FFFFFF;" width="43.453" height="7.324"/>
<rect id="SVGCleanerId_9" x="370.637" y="225.896" style="fill:#FFFFFF;" width="65.441" height="7.334"/>
<g>
	<rect id="SVGCleanerId_0_1_" x="355.763" y="152.628" style="fill:#353F49;" width="22.205" height="7.319"/>
</g>
<g>
	<rect id="SVGCleanerId_1_1_" x="436.07" y="189.257" style="fill:#FFFFFF;" width="13.251" height="7.329"/>
</g>
<g>
	<rect id="SVGCleanerId_2_1_" x="385.28" y="152.628" style="fill:#353F49;" width="33.357" height="7.319"/>
</g>
<g>
	<rect id="SVGCleanerId_3_1_" x="385.28" y="189.257" style="fill:#FFFFFF;" width="43.453" height="7.329"/>
</g>
<g>
	<rect id="SVGCleanerId_4_1_" x="370.637" y="170.932" style="fill:#FFFFFF;" width="65.441" height="7.337"/>
</g>
<g>
	<rect id="SVGCleanerId_5_1_" x="355.763" y="207.566" style="fill:#353F49;" width="22.205" height="7.324"/>
</g>
<g>
	<rect id="SVGCleanerId_6_1_" x="436.07" y="244.2" style="fill:#FFFFFF;" width="13.251" height="7.324"/>
</g>
<g>
	<rect id="SVGCleanerId_7_1_" x="385.28" y="207.566" style="fill:#353F49;" width="33.357" height="7.324"/>
</g>
<g>
	<rect id="SVGCleanerId_8_1_" x="385.28" y="244.2" style="fill:#FFFFFF;" width="43.453" height="7.324"/>
</g>
<g>
	<rect id="SVGCleanerId_9_1_" x="370.637" y="225.896" style="fill:#FFFFFF;" width="65.441" height="7.334"/>
</g>
<rect x="355.763" y="262.529" style="fill:#353F49;" width="22.205" height="7.327"/>
<rect x="436.07" y="299.163" style="fill:#FFFFFF;" width="13.251" height="7.324"/>
<rect x="385.28" y="262.529" style="fill:#353F49;" width="33.357" height="7.327"/>
<g>
	<rect x="385.28" y="299.163" style="fill:#FFFFFF;" width="43.453" height="7.324"/>
	<rect x="370.637" y="280.833" style="fill:#FFFFFF;" width="65.441" height="7.329"/>
	<rect x="62.707" y="115.969" style="fill:#FFFFFF;" width="93.56" height="43.955"/>
	<rect x="113.152" y="170.925" style="fill:#FFFFFF;" width="43.116" height="43.981"/>
	<rect x="62.707" y="170.925" style="fill:#FFFFFF;" width="43.118" height="43.981"/>
</g>
<g>
	<rect x="62.707" y="97.665" style="fill:#353F49;" width="93.56" height="7.324"/>
	<rect x="62.707" y="225.87" style="fill:#353F49;" width="93.56" height="7.334"/>
</g>
<g>
	<rect x="62.707" y="244.2" style="fill:#FFFFFF;" width="93.56" height="7.329"/>
	<rect x="62.707" y="262.529" style="fill:#FFFFFF;" width="93.56" height="7.332"/>
	<rect x="62.707" y="280.859" style="fill:#FFFFFF;" width="93.56" height="7.324"/>
	<rect x="62.707" y="299.163" style="fill:#FFFFFF;" width="93.56" height="7.329"/>
	<rect x="253.67" y="51.135" style="fill:#FFFFFF;" width="4.641" height="124.319"/>
</g>
<g>
	<path style="fill:#474F59;" d="M256,203.839c-1.354,0-2.698-0.064-4.037-0.161l-1.623-0.113l-0.643-1.492
		c-6.756-15.613-22.106-26.028-39.104-26.532l-1.618-0.049l-0.707-1.452c-3.587-7.306-5.399-15.15-5.399-23.316
		c0-21.151,12.536-40.276,31.946-48.727c1.336-0.584,2.931,0.028,3.523,1.385c0.586,1.359-0.033,2.939-1.39,3.528
		c-17.446,7.598-28.723,24.794-28.723,43.814c0,6.817,1.405,13.381,4.178,19.535c17.853,1.137,33.864,12.001,41.526,28.17
		c1.37,0.069,2.76,0.069,4.134,0c7.667-16.169,23.683-27.034,41.528-28.17c2.772-6.154,4.18-12.721,4.18-19.535
		c0-19.026-11.284-36.219-28.736-43.814c-1.357-0.589-1.979-2.171-1.39-3.528c0.586-1.352,2.171-1.974,3.523-1.385
		c19.415,8.443,31.959,27.569,31.959,48.727c0,8.166-1.813,16.01-5.396,23.316l-0.707,1.452l-1.618,0.049
		c-16.993,0.504-32.343,10.918-39.114,26.537l-0.65,1.487l-1.618,0.113C258.701,203.775,257.357,203.839,256,203.839z"/>
	<path style="fill:#474F59;" d="M256,219.404c-1.585,0-3.254-0.064-5.13-0.207l-10.358-0.781l-4.129-9.539
		c-4.536-10.468-14.83-17.452-26.22-17.784l-10.391-0.315l-4.557-9.321c-4.557-9.321-6.861-19.318-6.861-29.704
		c0-5.939,0.781-11.863,2.33-17.6c0.387-1.423,1.838-2.278,3.284-1.887c1.426,0.387,2.276,1.853,1.889,3.284
		c-1.426,5.284-2.145,10.737-2.145,16.205c0,9.569,2.127,18.77,6.313,27.351l3.146,6.418l7.153,0.212
		c13.455,0.397,25.618,8.645,30.976,21.015l2.836,6.564l7.142,0.535c3.441,0.256,6.001,0.256,9.441,0l7.142-0.535l2.836-6.564
		c5.358-12.37,17.521-20.618,30.976-21.015l7.163-0.212l3.139-6.418c4.188-8.566,6.313-17.764,6.313-27.351
		c0-5.463-0.717-10.916-2.14-16.205c-0.381-1.431,0.463-2.903,1.892-3.284c1.421-0.379,2.895,0.463,3.279,1.889
		c1.546,5.745,2.327,11.666,2.327,17.597c0,10.406-2.304,20.403-6.863,29.704l-4.564,9.321l-10.383,0.315
		c-11.389,0.333-21.683,7.316-26.22,17.784l-4.129,9.539l-10.358,0.781C259.254,219.34,257.585,219.404,256,219.404z"/>
	<path style="fill:#474F59;" d="M315.689,300.013c-0.348,0-0.714-0.072-1.055-0.225c-1.357-0.586-1.987-2.158-1.4-3.52
		c3.359-7.782,5.053-16.054,5.053-24.568c0-9.585-2.125-18.79-6.313-27.346l-3.146-6.423l-7.155-0.215
		c-13.455-0.394-25.61-8.637-30.976-21.007l-2.836-6.569l-7.15-0.538c-3.433-0.256-5.98-0.264-9.434,0.005l-7.142,0.532
		l-2.836,6.561c-5.366,12.375-17.521,20.623-30.981,21.015l-7.15,0.215l-3.146,6.423c-4.188,8.573-6.313,17.777-6.313,27.346
		c0,8.512,1.695,16.781,5.053,24.573c0.586,1.357-0.044,2.934-1.403,3.52c-1.354,0.586-2.931-0.041-3.517-1.408
		c-3.651-8.463-5.491-17.441-5.491-26.685c0-10.391,2.304-20.383,6.861-29.701l4.557-9.326l10.391-0.315
		c11.389-0.333,21.683-7.316,26.22-17.787l4.129-9.533l10.358-0.781c3.743-0.284,6.523-0.284,10.253-0.003l10.365,0.786l4.129,9.536
		c4.536,10.47,14.83,17.452,26.22,17.784l10.391,0.315l4.557,9.321c4.557,9.295,6.863,19.292,6.863,29.704
		c0,9.247-1.851,18.227-5.494,26.691C317.714,299.404,316.733,300.013,315.689,300.013z"/>
	<path style="fill:#474F59;" d="M206.633,284.794c-1.239,0-2.348-0.87-2.616-2.135c-0.76-3.633-1.147-7.319-1.147-10.957
		c0-8.161,1.812-16.013,5.399-23.322l0.707-1.452l1.618-0.049c17.001-0.504,32.348-10.918,39.104-26.524l0.643-1.492l1.623-0.118
		c2.67-0.195,5.409-0.195,8.061,0l1.618,0.118l0.65,1.49c6.774,15.611,22.124,26.025,39.114,26.527l1.618,0.049l0.707,1.452
		c3.584,7.309,5.396,15.16,5.396,23.322c0,3.566-0.384,7.247-1.144,10.949c-0.302,1.454-1.741,2.391-3.159,2.084
		c-1.449-0.294-2.391-1.71-2.092-3.156c0.691-3.351,1.039-6.674,1.039-9.876c0-6.815-1.408-13.379-4.18-19.54
		c-17.848-1.139-33.861-12.001-41.536-28.17c-1.359-0.069-2.757-0.069-4.127,0c-7.654,16.172-23.672,27.034-41.526,28.17
		c-2.772,6.162-4.178,12.726-4.178,19.54c0,3.267,0.351,6.587,1.032,9.869c0.305,1.444-0.627,2.86-2.074,3.164
		C207.004,284.773,206.822,284.794,206.633,284.794z"/>
	<path style="fill:#474F59;" d="M251.942,255.889c-0.389,0-0.781-0.102-1.124-0.317c-2.972-1.833-4.741-4.992-4.741-8.456
		c0-5.476,4.452-9.925,9.923-9.925c5.473,0,9.923,4.452,9.923,9.925c0,3.464-1.774,6.623-4.741,8.451
		c-1.001,0.614-2.319,0.31-2.947-0.699c-0.622-1.009-0.31-2.33,0.694-2.952c1.7-1.044,2.706-2.836,2.706-4.8
		c0-3.11-2.524-5.64-5.635-5.64c-3.11,0-5.635,2.529-5.635,5.64c0,1.964,1.009,3.756,2.703,4.8c1.006,0.627,1.318,1.946,0.694,2.954
		C253.361,255.525,252.659,255.889,251.942,255.889z"/>
</g>
<g>
	<path style="fill:#353F49;" d="M282.949,200.905c0,14.899-12.055,26.967-26.949,26.967c-14.894,0-26.967-12.068-26.967-26.967
		c0-14.899,12.073-26.977,26.967-26.977C270.894,173.928,282.949,186.006,282.949,200.905z"/>
	<circle style="fill:#353F49;" cx="256" cy="231.092" r="14.003"/>
</g>
<path style="fill:#474F59;" d="M256,218.543c-9.723,0-17.626-7.916-17.626-17.638s7.903-17.633,17.626-17.633
	c9.723,0,17.636,7.91,17.636,17.633C273.636,210.628,265.723,218.543,256,218.543z"/>
<g>
	<path style="fill:#FFFFFF;" d="M256,203.498c-1.431,0-2.593-1.16-2.593-2.593s1.162-2.593,2.593-2.593
		c1.423,0,2.593,1.16,2.593,2.593S257.423,203.498,256,203.498z"/>
	<path style="fill:#FFFFFF;" d="M256,218.543c-3.436,0-6.228-2.798-6.228-6.223c0-3.441,2.793-6.223,6.228-6.223
		s6.228,2.783,6.228,6.223C262.228,215.745,259.436,218.543,256,218.543z"/>
</g>
<g>
</g>
<g>
</g>
<g>
</g>
<g>
</g>
<g>
</g>
<g>
</g>
<g>
</g>
<g>
</g>
<g>
</g>
<g>
</g>
<g>
</g>
<g>
</g>
<g>
</g>
<g>
</g>
<g>
</g>
</svg>
