<?xml version="1.0" encoding="iso-8859-1"?>
<!-- Generator: Adobe Illustrator 19.0.0, SVG Export Plug-In . SVG Version: 6.00 Build 0)  -->
<svg version="1.1" id="Layer_1" xmlns="http://www.w3.org/2000/svg" xmlns:xlink="http://www.w3.org/1999/xlink" x="0px" y="0px"
	 viewBox="0 0 511.997 511.997" style="enable-background:new 0 0 511.997 511.997;" xml:space="preserve">
<g>
	<path style="fill:#F2F2F2;" d="M342.77,381.484c0,72.074-58.447,130.514-130.524,130.514c-72.092,0-130.529-58.44-130.529-130.514
		c0-72.09,58.44-130.527,130.529-130.527C284.32,250.957,342.77,309.391,342.77,381.484z"/>
	<rect x="179.608" y="201.137" style="fill:#F2F2F2;" width="65.27" height="53.939"/>
</g>
<rect x="169.164" y="167.319" style="fill:#D9D8D7;" width="86.147" height="33.802"/>
<path style="fill:#FF916E;" d="M185.829,282.99c11.75,0,21.251,9.495,21.251,21.251v154.442c0,9.733-6.49,17.91-15.396,20.421
	c0,0-0.031,0.036-0.064,0c-0.63,0.166-1.288,0.3-2.02,0.463c-0.727,0.138-1.523,0.236-2.417,0.3
	c-0.428,0.067-0.893,0.067-1.354,0.067c-11.29,0-20.091-8.374-21.117-19.098V460.8c-2.982,1.592-6.454,2.55-10.066,2.55
	c-11.72,0-21.251-9.498-21.251-21.256c0-2.509,0.499-5.025,1.295-7.245c-0.433,0-0.863,0.036-1.295,0.036
	c-11.712,0-21.212-9.5-21.212-21.251c0-5.197,1.848-9.9,4.925-13.606c-6.546-3.604-10.952-10.552-10.952-18.568
	c0-8.904,5.463-16.515,13.238-19.661c-3.607-3.807-5.821-8.94-5.821-14.597c0-11.72,9.526-21.22,21.245-21.22h0.364
	c-0.527-1.848-0.824-3.901-0.824-5.955c0-11.715,9.531-21.22,21.251-21.22c3.177,0,6.554,0.765,9.265,2.022
	C166.499,290.703,175.267,282.99,185.829,282.99z"/>
<g>
	<path style="fill:#EE643C;" d="M162.006,304.236c0,13.143,10.706,23.831,23.831,23.831c1.423,0,2.591-1.17,2.591-2.598
		c0-1.426-1.167-2.568-2.591-2.568c-10.299,0-18.652-8.374-18.652-18.665c0-10.296,8.353-18.67,18.652-18.67
		c10.289,0,18.662,8.374,18.662,18.67v154.483c0,10.294-8.374,18.67-18.662,18.67c-10.299,0-18.652-8.374-18.652-18.67
		c0-10.289,8.353-18.66,18.652-18.66c1.423,0,2.591-1.147,2.591-2.575c0-1.426-1.167-2.591-2.591-2.591
		c-13.125,0-23.831,10.685-23.831,23.826c0,13.128,10.706,23.818,23.831,23.818c13.143,0,23.828-10.691,23.828-23.818V304.236
		c0-13.128-10.685-23.821-23.828-23.821C172.712,280.415,162.006,291.108,162.006,304.236z"/>
	<path style="fill:#EE643C;" d="M154.666,465.938c-13.148,0-23.828-10.683-23.828-23.836c0-2.78,0.479-5.522,1.421-8.148
		c0.504-1.344,1.974-2.038,3.315-1.554c1.344,0.479,2.038,1.969,1.539,3.31c-0.74,2.061-1.114,4.219-1.114,6.392
		c0,10.299,8.371,18.675,18.67,18.675c3.085,0,6.126-0.758,8.814-2.212c1.265-0.689,2.813-0.207,3.507,1.044
		c0.673,1.262,0.212,2.813-1.044,3.489C162.487,464.96,158.593,465.938,154.666,465.938z"/>
	<path style="fill:#EE643C;" d="M133.411,437.448c-13.143,0-23.811-10.685-23.811-23.813c0-5.563,1.953-10.962,5.527-15.25
		c0.909-1.088,2.534-1.242,3.622-0.32c1.096,0.906,1.249,2.537,0.338,3.622c-2.811,3.361-4.337,7.59-4.337,11.948
		c0,10.289,8.379,18.662,18.662,18.662c0.371,0,0.727-0.005,1.08-0.051c9.879-0.561,17.587-8.742,17.587-18.614
		c0-1.418,1.152-2.57,2.586-2.57c1.421,0,2.565,1.152,2.565,2.57c0,12.598-9.841,23.03-22.38,23.772
		C134.412,437.43,133.905,437.448,133.411,437.448z"/>
	<path style="fill:#EE643C;" d="M186.216,416.21c-1.428,0-2.583-1.147-2.583-2.575c0-7.283-5.914-13.204-13.197-13.204
		c-7.281,0-13.204,5.921-13.204,13.204c0,1.428-1.144,2.575-2.565,2.575c-1.436,0-2.586-1.147-2.586-2.575
		c0-10.117,8.236-18.368,18.355-18.368c10.13,0,18.348,8.251,18.348,18.368C188.783,415.063,187.639,416.21,186.216,416.21z"/>
	<path style="fill:#EE643C;" d="M127.389,405.281c-13.12,0-23.811-10.688-23.811-23.808c0-13.153,10.688-23.839,23.811-23.839
		c13.151,0,23.834,10.685,23.834,23.839c0,1.403-1.16,2.568-2.596,2.568c-1.408,0-2.575-1.165-2.575-2.568
		c0-10.301-8.358-18.67-18.662-18.67c-10.281,0-18.66,8.369-18.66,18.67c0,10.286,8.379,18.642,18.66,18.642
		c1.434,0,2.583,1.165,2.583,2.593C129.972,404.137,128.82,405.281,127.389,405.281z"/>
	<path style="fill:#EE643C;" d="M119.389,364.367c-0.678,0-1.352-0.266-1.871-0.809c-4.204-4.426-6.51-10.235-6.51-16.346
		c0-13.143,10.685-23.821,23.831-23.821c0.166,0,0.364,0,0.538,0.008c11.331,0.184,21.007,7.718,22.4,17.518
		c0.955,6.751,5.425,13.55,13.23,13.55c1.428,0,2.573,1.162,2.573,2.591c0,1.413-1.144,2.578-2.573,2.578
		c-9.441,0-16.814-7.235-18.33-17.999c-1.152-8.02-9.8-12.956-17.51-13.076l-0.328-0.008c-10.294,0-18.668,8.374-18.668,18.662
		c0,4.777,1.797,9.331,5.1,12.815c0.986,1.029,0.94,2.652-0.084,3.638C120.664,364.127,120.024,364.367,119.389,364.367z"/>
	<path style="fill:#EE643C;" d="M135.208,328.558c-1.119,0-2.143-0.742-2.458-1.861c-0.64-2.156-0.965-4.398-0.965-6.659
		c0-13.13,10.685-23.816,23.811-23.816c3.658,0,7.137,0.801,10.394,2.376c1.28,0.625,1.795,2.179,1.185,3.451
		c-0.617,1.288-2.166,1.815-3.453,1.183c-2.534-1.221-5.261-1.848-8.125-1.848c-10.281,0-18.652,8.364-18.644,18.655
		c0,1.774,0.251,3.517,0.742,5.22c0.389,1.37-0.399,2.806-1.759,3.187C135.699,328.535,135.459,328.558,135.208,328.558z"/>
</g>
<path style="fill:#FF916E;" d="M238.662,282.99c-11.753,0-21.253,9.495-21.253,21.251v154.442c0,9.733,6.484,17.91,15.393,20.421
	c0,0,0.031,0.036,0.069,0c0.63,0.166,1.288,0.3,2.012,0.463c0.732,0.138,1.526,0.236,2.417,0.3c0.435,0.067,0.899,0.067,1.364,0.067
	c11.284,0,20.093-8.374,21.117-19.098V460.8c2.97,1.592,6.449,2.55,10.058,2.55c11.72,0,21.253-9.498,21.253-21.256
	c0-2.509-0.499-5.025-1.295-7.245c0.433,0,0.868,0.036,1.295,0.036c11.717,0,21.22-9.5,21.22-21.251c0-5.197-1.861-9.9-4.936-13.606
	c6.554-3.604,10.954-10.552,10.954-18.568c0-8.904-5.46-16.515-13.243-19.661c3.612-3.807,5.824-8.94,5.824-14.597
	c0-11.72-9.533-21.22-21.245-21.22h-0.366c0.53-1.848,0.827-3.901,0.827-5.955c0-11.715-9.536-21.22-21.251-21.22
	c-3.18,0-6.556,0.765-9.267,2.022C257.99,290.703,249.215,282.99,238.662,282.99z"/>
<g>
	<path style="fill:#EE643C;" d="M262.476,304.236c0,13.143-10.701,23.831-23.823,23.831c-1.431,0-2.598-1.17-2.598-2.598
		c0-1.426,1.167-2.568,2.598-2.568c10.294,0,18.647-8.374,18.647-18.665c0-10.296-8.356-18.67-18.647-18.67
		c-10.289,0-18.668,8.374-18.668,18.67v154.483c0,10.294,8.379,18.67,18.668,18.67c10.294,0,18.647-8.374,18.647-18.67
		c0-10.289-8.356-18.66-18.647-18.66c-1.431,0-2.598-1.147-2.598-2.575c0-1.426,1.167-2.591,2.598-2.591
		c13.12,0,23.823,10.685,23.823,23.826c0,13.128-10.701,23.818-23.823,23.818c-13.148,0-23.834-10.691-23.834-23.818V304.236
		c0-13.128,10.685-23.821,23.834-23.821C251.775,280.415,262.476,291.108,262.476,304.236z"/>
	<path style="fill:#EE643C;" d="M269.82,465.938c13.148,0,23.823-10.683,23.823-23.836c0-2.78-0.468-5.522-1.418-8.148
		c-0.499-1.344-1.971-2.038-3.31-1.554c-1.341,0.479-2.035,1.969-1.536,3.31c0.735,2.061,1.111,4.219,1.111,6.392
		c0,10.299-8.363,18.675-18.67,18.675c-3.085,0-6.126-0.758-8.814-2.212c-1.265-0.689-2.824-0.207-3.505,1.044
		c-0.678,1.262-0.212,2.813,1.042,3.489C261.999,464.96,265.888,465.938,269.82,465.938z"/>
	<path style="fill:#EE643C;" d="M291.078,437.448c13.141,0,23.811-10.685,23.811-23.813c0-5.563-1.964-10.962-5.527-15.25
		c-0.906-1.088-2.54-1.242-3.625-0.32c-1.098,0.906-1.249,2.537-0.335,3.622c2.806,3.361,4.339,7.59,4.339,11.948
		c0,10.289-8.379,18.662-18.662,18.662c-0.374,0-0.735-0.005-1.088-0.051c-9.871-0.561-17.587-8.742-17.587-18.614
		c0-1.418-1.149-2.57-2.583-2.57c-1.421,0-2.565,1.152-2.565,2.57c0,12.598,9.838,23.03,22.382,23.772
		C290.08,437.43,290.587,437.448,291.078,437.448z"/>
	<path style="fill:#EE643C;" d="M238.268,416.21c1.436,0,2.58-1.147,2.58-2.575c0-7.283,5.921-13.204,13.204-13.204
		c7.281,0,13.204,5.921,13.204,13.204c0,1.428,1.144,2.575,2.565,2.575c1.434,0,2.583-1.147,2.583-2.575
		c0-10.117-8.23-18.368-18.353-18.368c-10.125,0-18.348,8.251-18.348,18.368C235.703,415.063,236.845,416.21,238.268,416.21z"/>
	<path style="fill:#EE643C;" d="M297.097,405.281c13.117,0,23.816-10.688,23.816-23.808c0-13.153-10.698-23.839-23.816-23.839
		c-13.148,0-23.836,10.685-23.836,23.839c0,1.403,1.157,2.568,2.598,2.568c1.405,0,2.573-1.165,2.573-2.568
		c0-10.301,8.363-18.67,18.665-18.67c10.286,0,18.657,8.369,18.657,18.67c0,10.286-8.374,18.642-18.657,18.642
		c-1.428,0-2.583,1.165-2.583,2.593C294.514,404.137,295.668,405.281,297.097,405.281z"/>
	<path style="fill:#EE643C;" d="M305.089,364.367c0.689,0,1.364-0.266,1.874-0.809c4.206-4.426,6.513-10.235,6.513-16.346
		c0-13.143-10.685-23.821-23.826-23.821c-0.164,0-0.366,0-0.535,0.008c-11.331,0.184-21.015,7.718-22.41,17.518
		c-0.952,6.751-5.419,13.55-13.23,13.55c-1.426,0-2.56,1.162-2.56,2.591c0,1.413,1.137,2.578,2.56,2.578
		c9.446,0,16.814-7.235,18.33-17.999c1.149-8.02,9.805-12.956,17.516-13.076l0.33-0.008c10.291,0,18.665,8.374,18.665,18.662
		c0,4.777-1.797,9.331-5.102,12.815c-0.98,1.029-0.929,2.652,0.092,3.638C303.822,364.127,304.457,364.367,305.089,364.367z"/>
	<path style="fill:#EE643C;" d="M289.286,328.558c1.108,0,2.138-0.742,2.458-1.861c0.637-2.156,0.96-4.398,0.96-6.659
		c0-13.13-10.685-23.816-23.816-23.816c-3.653,0-7.132,0.801-10.386,2.376c-1.283,0.625-1.795,2.179-1.185,3.451
		c0.612,1.288,2.158,1.815,3.446,1.183c2.537-1.221,5.266-1.848,8.125-1.848c10.281,0,18.652,8.364,18.652,18.655
		c0,1.774-0.256,3.517-0.748,5.22c-0.392,1.37,0.397,2.806,1.759,3.187C288.792,328.535,289.033,328.558,289.286,328.558z"/>
</g>
<polygon style="fill:#F2F2F2;" points="342.514,276.966 316.753,251.18 289.962,277.983 315.713,303.762 "/>
<polygon style="fill:#D9D8D7;" points="357.994,269.763 323.962,235.707 312.618,247.058 346.646,281.088 "/>
<path style="fill:#FF916E;" d="M404.904,263.762c0,2.926-2.394,5.332-5.34,5.332c-2.954,0-5.358-2.406-5.358-5.332
	c0-2.947,2.401-5.356,5.358-5.356C402.51,258.406,404.904,260.815,404.904,263.762z"/>
<g>
	<path style="fill:#F2F2F2;" d="M347.972,219.853c0,5.893-4.79,10.688-10.688,10.688c-5.906,0-10.703-4.795-10.703-10.688
		c0-5.916,4.797-10.706,10.703-10.706C343.182,209.149,347.972,213.937,347.972,219.853z"/>
	<path style="fill:#F2F2F2;" d="M406.859,201.129c0,10.314-8.374,18.724-18.721,18.724c-10.34,0-18.706-8.41-18.706-18.724
		c0-10.307,8.366-18.708,18.706-18.708C398.486,182.42,406.859,190.825,406.859,201.129z"/>
	<path style="fill:#F2F2F2;" d="M431.625,60.849h-98.862c-8.41,0-15.209-6.812-15.209-15.206c0-8.41,6.799-15.212,15.209-15.212
		c8.392,0,15.209-6.822,15.209-15.217c0-8.392-6.817-15.212-15.209-15.212H80.367c-8.387,0-15.204,6.82-15.204,15.212
		c0,8.394,6.82,15.217,15.204,15.217h114.455c8.397,0,15.204,6.802,15.204,15.212c0,8.394-6.807,15.206-15.204,15.206h-15.219
		c-8.402,0-15.217,6.81-15.217,15.212c0,8.41,6.815,15.222,15.217,15.222h26.189c8.41,0,15.212,6.792,15.212,15.199
		c0,8.415-6.802,15.209-15.212,15.209h-42.327c-8.41,0-15.224,6.812-15.224,15.212c0,8.404,6.815,15.217,15.224,15.217h18.324
		c8.425,0,15.227,6.812,15.227,15.209h30.426c0-8.397,6.802-15.209,15.222-15.209h43.548c8.404,0,15.227-6.812,15.227-15.217
		c0-8.399-6.822-15.212-15.227-15.212h-11.633c-8.397,0-15.196-6.794-15.196-15.209c0-8.407,6.797-15.199,15.196-15.199h157.043
		c8.387,0,15.212-6.812,15.212-15.222C446.836,67.656,440.012,60.849,431.625,60.849z"/>
</g>
<g>
	<path style="fill:#FF916E;" d="M107.329,121.69c-8.394,0-15.219,6.812-15.219,15.212c0,8.412,6.825,15.217,15.219,15.217
		c8.402,0,15.212-6.804,15.212-15.217C122.541,128.502,115.731,121.69,107.329,121.69z"/>
	<path style="fill:#FF916E;" d="M381.836,30.428c8.392,0,15.204-6.822,15.204-15.217C397.039,6.82,390.227,0,381.836,0
		c-8.394,0-15.219,6.82-15.219,15.212C366.616,23.606,373.441,30.428,381.836,30.428z"/>
	<path style="fill:#FF916E;" d="M210.692,220.879c0,3.75-3.054,6.792-6.804,6.792c-3.766,0-6.807-3.041-6.807-6.792
		c0-3.761,3.041-6.815,6.807-6.815C207.638,214.067,210.692,217.119,210.692,220.879z"/>
</g>
<g>
</g>
<g>
</g>
<g>
</g>
<g>
</g>
<g>
</g>
<g>
</g>
<g>
</g>
<g>
</g>
<g>
</g>
<g>
</g>
<g>
</g>
<g>
</g>
<g>
</g>
<g>
</g>
<g>
</g>
</svg>
