<?xml version="1.0" encoding="iso-8859-1"?>
<!-- Generator: Adobe Illustrator 19.0.0, SVG Export Plug-In . SVG Version: 6.00 Build 0)  -->
<svg version="1.1" id="Layer_1" xmlns="http://www.w3.org/2000/svg" xmlns:xlink="http://www.w3.org/1999/xlink" x="0px" y="0px"
	 viewBox="0 0 512 512" style="enable-background:new 0 0 512 512;" xml:space="preserve">
<circle style="fill:#FFDB79;" cx="256" cy="256" r="256"/>
<path style="fill:#353F49;" d="M8.258,410.479v56.891h495.484v-56.891H8.258z M478.964,447.769c-4.879,0-8.843-3.954-8.843-8.849
	c0-4.885,3.964-8.856,8.843-8.856c4.892,0,8.856,3.967,8.856,8.856C487.82,443.811,483.857,447.769,478.964,447.769z"/>
<g>
	<rect x="19.525" y="410.492" style="fill:#FFFFFF;" width="2.22" height="10.782"/>
	<rect x="31.906" y="410.492" style="fill:#FFFFFF;" width="2.23" height="10.782"/>
	<rect x="44.316" y="410.492" style="fill:#FFFFFF;" width="2.22" height="10.782"/>
	<rect x="56.716" y="410.492" style="fill:#FFFFFF;" width="2.223" height="10.782"/>
	<rect x="69.087" y="410.492" style="fill:#FFFFFF;" width="2.203" height="10.782"/>
	<rect x="81.461" y="410.492" style="fill:#FFFFFF;" width="2.22" height="10.782"/>
	<rect x="93.851" y="410.492" style="fill:#FFFFFF;" width="2.22" height="10.782"/>
	<rect x="106.265" y="410.492" style="fill:#FFFFFF;" width="2.22" height="10.782"/>
	<rect x="118.639" y="410.492" style="fill:#FFFFFF;" width="2.223" height="10.782"/>
	<rect x="131.022" y="410.492" style="fill:#FFFFFF;" width="2.21" height="10.782"/>
	<rect x="143.393" y="410.492" style="fill:#FFFFFF;" width="2.223" height="10.785"/>
	<rect x="155.78" y="410.492" style="fill:#FFFFFF;" width="2.22" height="10.782"/>
	<rect x="168.187" y="410.492" style="fill:#FFFFFF;" width="2.22" height="10.782"/>
	<rect x="180.574" y="410.492" style="fill:#FFFFFF;" width="2.223" height="10.782"/>
	<rect x="192.941" y="410.492" style="fill:#FFFFFF;" width="2.21" height="10.785"/>
	<rect x="205.329" y="410.492" style="fill:#FFFFFF;" width="2.22" height="10.782"/>
	<rect x="217.712" y="410.492" style="fill:#FFFFFF;" width="2.223" height="10.782"/>
	<rect x="230.136" y="410.492" style="fill:#FFFFFF;" width="2.23" height="10.782"/>
	<rect x="242.523" y="410.492" style="fill:#FFFFFF;" width="2.22" height="10.785"/>
	<rect x="254.91" y="410.492" style="fill:#FFFFFF;" width="2.203" height="10.782"/>
	<rect x="267.274" y="410.492" style="fill:#FFFFFF;" width="2.213" height="10.782"/>
	<rect x="279.651" y="410.492" style="fill:#FFFFFF;" width="2.22" height="10.782"/>
	<rect x="292.038" y="410.492" style="fill:#FFFFFF;" width="2.22" height="10.782"/>
	<rect x="304.425" y="410.492" style="fill:#FFFFFF;" width="2.213" height="10.782"/>
	<rect x="316.812" y="410.492" style="fill:#FFFFFF;" width="2.23" height="10.782"/>
	<rect x="329.199" y="410.492" style="fill:#FFFFFF;" width="2.213" height="10.785"/>
	<rect x="341.587" y="410.492" style="fill:#FFFFFF;" width="2.22" height="10.782"/>
	<rect x="353.974" y="410.492" style="fill:#FFFFFF;" width="2.213" height="10.782"/>
	<rect x="366.361" y="410.492" style="fill:#FFFFFF;" width="2.213" height="10.782"/>
	<rect x="378.748" y="410.492" style="fill:#FFFFFF;" width="2.22" height="10.782"/>
	<rect x="391.135" y="410.492" style="fill:#FFFFFF;" width="2.213" height="10.785"/>
	<rect x="403.522" y="410.492" style="fill:#FFFFFF;" width="2.22" height="10.782"/>
	<rect x="415.909" y="410.492" style="fill:#FFFFFF;" width="2.22" height="10.782"/>
	<rect x="428.296" y="410.492" style="fill:#FFFFFF;" width="2.223" height="10.782"/>
	<rect x="440.683" y="410.492" style="fill:#FFFFFF;" width="2.22" height="10.782"/>
	<rect x="453.07" y="410.492" style="fill:#FFFFFF;" width="2.213" height="10.782"/>
	<rect x="465.458" y="410.492" style="fill:#FFFFFF;" width="2.213" height="10.782"/>
	<rect x="477.845" y="410.492" style="fill:#FFFFFF;" width="2.22" height="10.782"/>
	<rect x="490.232" y="410.492" style="fill:#FFFFFF;" width="2.223" height="10.782"/>
	<rect x="78.485" y="105.317" style="fill:#FFFFFF;" width="355.031" height="248.27"/>
</g>
<rect x="78.485" y="77.279" style="fill:#353F49;" width="355.031" height="28.038"/>
<g>
	<rect x="97.168" y="212.761" style="fill:#F77B55;" width="93.415" height="70.061"/>
	<rect x="209.292" y="212.761" style="fill:#F77B55;" width="93.415" height="70.061"/>
	<rect x="321.404" y="212.761" style="fill:#F77B55;" width="93.448" height="70.061"/>
	<rect x="97.168" y="301.518" style="fill:#F77B55;" width="93.415" height="6.673"/>
	<rect x="97.168" y="314.863" style="fill:#F77B55;" width="93.415" height="6.682"/>
	<rect x="97.168" y="328.209" style="fill:#F77B55;" width="93.415" height="6.673"/>
	<rect x="209.292" y="301.518" style="fill:#F77B55;" width="93.415" height="6.673"/>
	<rect x="209.292" y="314.863" style="fill:#F77B55;" width="93.415" height="6.682"/>
	<rect x="209.292" y="328.209" style="fill:#F77B55;" width="93.415" height="6.673"/>
	<rect x="321.404" y="301.518" style="fill:#F77B55;" width="93.448" height="6.673"/>
	<rect x="321.404" y="314.863" style="fill:#F77B55;" width="93.448" height="6.682"/>
	<rect x="321.404" y="328.209" style="fill:#F77B55;" width="93.448" height="6.673"/>
	<rect x="97.168" y="124.003" style="fill:#F77B55;" width="317.671" height="70.061"/>
</g>
<g>
	<polygon style="fill:#474F59;" points="466.155,386.22 450.534,386.22 450.534,377.83 457.774,377.83 457.774,370.586 
		466.155,370.586 	"/>
	<path style="fill:#474F59;" d="M427.649,386.22h-22.895v-8.39h22.895V386.22z M381.873,386.22h-22.895v-8.39h22.895V386.22z
		 M336.1,386.22h-22.885v-8.39H336.1V386.22z M290.327,386.22h-22.885v-8.39h22.885V386.22z M244.551,386.22h-22.885v-8.39h22.885
		V386.22z M198.782,386.22h-22.888v-8.39h22.888V386.22z M153.012,386.22h-22.891v-8.39h22.891V386.22z M107.239,386.22H84.351
		v-8.39h22.888V386.22z"/>
	<polygon style="fill:#474F59;" points="61.463,386.22 45.839,386.22 45.839,370.586 54.226,370.586 54.226,377.83 61.463,377.83 	
		"/>
	<path style="fill:#474F59;" d="M54.226,346.72h-8.387v-23.869h8.387V346.72z M54.226,298.975h-8.387v-23.872h8.387V298.975z
		 M54.226,251.237h-8.387v-23.879h8.387V251.237z M54.226,203.492h-8.387V179.62h8.387V203.492z M54.226,155.74h-8.387v-23.872
		h8.387V155.74z M54.226,108.002h-8.387V84.123h8.387V108.002z"/>
	<polygon style="fill:#474F59;" points="54.226,60.257 45.839,60.257 45.839,44.633 61.463,44.633 61.463,53.017 54.226,53.017 	"/>
	<path style="fill:#474F59;" d="M427.652,53.017h-22.895v-8.384h22.895V53.017z M381.876,53.017h-22.895v-8.384h22.895V53.017z
		 M336.103,53.017h-22.888v-8.384h22.888V53.017z M290.33,53.017h-22.885v-8.384h22.885V53.017z M244.554,53.017H221.67v-8.384
		h22.885V53.017z M198.782,53.017h-22.885v-8.384h22.885V53.017z M153.012,53.017h-22.891v-8.384h22.891V53.017z M107.239,53.017
		H84.351v-8.384h22.888V53.017z"/>
	<polygon style="fill:#474F59;" points="466.155,60.257 457.774,60.257 457.774,53.017 450.534,53.017 450.534,44.633 
		466.155,44.633 	"/>
	<path style="fill:#474F59;" d="M466.155,346.72h-8.38v-23.869h8.38V346.72z M466.155,298.975h-8.38v-23.872h8.38V298.975z
		 M466.155,251.237h-8.38v-23.879h8.38V251.237z M466.155,203.489h-8.38V179.62h8.38V203.489z M466.155,155.74h-8.38v-23.872h8.38
		V155.74z M466.155,108.002h-8.38V84.123h8.38V108.002z"/>
</g>
<g>
</g>
<g>
</g>
<g>
</g>
<g>
</g>
<g>
</g>
<g>
</g>
<g>
</g>
<g>
</g>
<g>
</g>
<g>
</g>
<g>
</g>
<g>
</g>
<g>
</g>
<g>
</g>
<g>
</g>
</svg>
