<?xml version="1.0" encoding="iso-8859-1"?>
<!-- Generator: Adobe Illustrator 19.0.0, SVG Export Plug-In . SVG Version: 6.00 Build 0)  -->
<svg version="1.1" id="Layer_1" xmlns="http://www.w3.org/2000/svg" xmlns:xlink="http://www.w3.org/1999/xlink" x="0px" y="0px"
	 viewBox="0 0 512 512" style="enable-background:new 0 0 512 512;" xml:space="preserve">
<path style="fill:#353F49;" d="M0,420.713v58.788h512v-58.788H0z M486.397,459.249c-5.041,0-9.137-4.088-9.137-9.144
	c0-5.051,4.099-9.144,9.137-9.144c5.056,0,9.149,4.096,9.149,9.144C495.547,455.16,491.453,459.249,486.397,459.249z"/>
<g>
	<rect x="11.643" y="420.723" style="fill:#FFFFFF;" width="2.294" height="11.141"/>
	<rect x="24.435" y="420.723" style="fill:#FFFFFF;" width="2.304" height="11.141"/>
	<rect x="37.261" y="420.723" style="fill:#FFFFFF;" width="2.294" height="11.141"/>
	<rect x="50.061" y="420.723" style="fill:#FFFFFF;" width="2.296" height="11.141"/>
	<rect x="62.856" y="420.723" style="fill:#FFFFFF;" width="2.278" height="11.141"/>
	<rect x="75.643" y="420.723" style="fill:#FFFFFF;" width="2.294" height="11.141"/>
	<rect x="88.445" y="420.723" style="fill:#FFFFFF;" width="2.294" height="11.141"/>
	<rect x="101.261" y="420.723" style="fill:#FFFFFF;" width="2.294" height="11.141"/>
	<rect x="114.061" y="420.723" style="fill:#FFFFFF;" width="2.296" height="11.141"/>
	<rect x="126.856" y="420.723" style="fill:#FFFFFF;" width="2.284" height="11.141"/>
	<rect x="139.648" y="420.723" style="fill:#FFFFFF;" width="2.296" height="11.146"/>
	<rect x="152.448" y="420.723" style="fill:#FFFFFF;" width="2.294" height="11.141"/>
	<rect x="165.274" y="420.723" style="fill:#FFFFFF;" width="2.294" height="11.141"/>
	<rect x="178.074" y="420.723" style="fill:#FFFFFF;" width="2.296" height="11.136"/>
	<rect x="190.848" y="420.723" style="fill:#FFFFFF;" width="2.284" height="11.141"/>
	<rect x="203.648" y="420.723" style="fill:#FFFFFF;" width="2.294" height="11.141"/>
	<rect x="216.448" y="420.723" style="fill:#FFFFFF;" width="2.296" height="11.141"/>
	<rect x="229.274" y="420.723" style="fill:#FFFFFF;" width="2.304" height="11.141"/>
	<rect x="242.074" y="420.723" style="fill:#FFFFFF;" width="2.294" height="11.141"/>
	<rect x="254.848" y="420.723" style="fill:#FFFFFF;" width="2.278" height="11.141"/>
	<rect x="267.648" y="420.723" style="fill:#FFFFFF;" width="2.289" height="11.141"/>
	<rect x="280.448" y="420.723" style="fill:#FFFFFF;" width="2.294" height="11.141"/>
	<rect x="293.248" y="420.723" style="fill:#FFFFFF;" width="2.294" height="11.136"/>
	<rect x="306.048" y="420.723" style="fill:#FFFFFF;" width="2.289" height="11.141"/>
	<rect x="318.848" y="420.723" style="fill:#FFFFFF;" width="2.301" height="11.141"/>
	<rect x="331.648" y="420.723" style="fill:#FFFFFF;" width="2.289" height="11.146"/>
	<rect x="344.448" y="420.723" style="fill:#FFFFFF;" width="2.294" height="11.141"/>
	<rect x="357.248" y="420.723" style="fill:#FFFFFF;" width="2.289" height="11.136"/>
	<rect x="370.048" y="420.723" style="fill:#FFFFFF;" width="2.289" height="11.141"/>
	<rect x="382.848" y="420.723" style="fill:#FFFFFF;" width="2.294" height="11.141"/>
	<rect x="395.648" y="420.723" style="fill:#FFFFFF;" width="2.289" height="11.146"/>
	<rect x="408.448" y="420.723" style="fill:#FFFFFF;" width="2.294" height="11.141"/>
	<rect x="421.248" y="420.723" style="fill:#FFFFFF;" width="2.294" height="11.136"/>
	<rect x="434.048" y="420.723" style="fill:#FFFFFF;" width="2.296" height="11.141"/>
	<rect x="446.848" y="420.723" style="fill:#FFFFFF;" width="2.294" height="11.141"/>
	<rect x="459.648" y="420.723" style="fill:#FFFFFF;" width="2.289" height="11.141"/>
	<rect x="472.448" y="420.723" style="fill:#FFFFFF;" width="2.289" height="11.141"/>
	<rect x="485.248" y="420.723" style="fill:#FFFFFF;" width="2.294" height="11.141"/>
	<rect x="498.048" y="420.723" style="fill:#FFFFFF;" width="2.296" height="11.141"/>
</g>
<rect x="72.566" y="105.385" style="fill:#F2F2F2;" width="366.874" height="256.538"/>
<rect x="72.566" y="76.403" style="fill:#353F49;" width="366.874" height="28.977"/>
<g>
	<rect x="91.873" y="216.41" style="fill:#F77B55;" width="96.532" height="72.422"/>
	<rect x="207.718" y="216.41" style="fill:#F77B55;" width="96.54" height="72.422"/>
	<rect x="323.584" y="216.41" style="fill:#F77B55;" width="96.55" height="72.422"/>
	<rect x="91.873" y="308.134" style="fill:#F77B55;" width="96.532" height="6.881"/>
	<rect x="91.873" y="321.907" style="fill:#F77B55;" width="96.532" height="6.904"/>
	<rect x="91.873" y="335.731" style="fill:#F77B55;" width="96.532" height="6.889"/>
	<rect x="207.718" y="308.134" style="fill:#F77B55;" width="96.54" height="6.881"/>
	<rect x="207.718" y="321.907" style="fill:#F77B55;" width="96.54" height="6.904"/>
	<rect x="207.718" y="335.731" style="fill:#F77B55;" width="96.54" height="6.889"/>
	<rect x="323.584" y="308.134" style="fill:#F77B55;" width="96.55" height="6.881"/>
	<rect x="323.584" y="321.907" style="fill:#F77B55;" width="96.55" height="6.904"/>
	<rect x="323.584" y="335.731" style="fill:#F77B55;" width="96.55" height="6.889"/>
	<rect x="91.873" y="124.685" style="fill:#F77B55;" width="328.243" height="72.422"/>
</g>
<g>
	<rect x="454.323" y="42.739" style="fill:#474F59;" width="4.268" height="8.532"/>
	<path style="fill:#474F59;" d="M445.873,51.269h-8.44v-8.532h8.44V51.269z M428.997,51.269h-8.44v-8.532h8.44V51.269z
		 M412.116,51.269h-8.438v-8.532h8.438V51.269z M395.241,51.269h-8.44v-8.532h8.44V51.269z M378.363,51.269h-8.44v-8.532h8.44
		V51.269z M361.482,51.269h-8.435v-8.532h8.435V51.269z M344.607,51.269h-8.44v-8.532h8.44V51.269z M327.731,51.269h-8.44v-8.532
		h8.44V51.269z M310.851,51.269h-8.438v-8.532h8.438V51.269z M293.972,51.269h-8.44v-8.532h8.44V51.269z M277.097,51.269h-8.44
		v-8.532h8.44V51.269z M260.216,51.269h-8.438v-8.532h8.438V51.269z M243.341,51.269h-8.438v-8.532h8.438V51.269z M226.46,51.269
		h-8.438v-8.532h8.438V51.269z M209.585,51.269h-8.44v-8.532h8.44V51.269z M192.707,51.269h-8.438v-8.532h8.438V51.269z
		 M175.828,51.269h-8.438v-8.532h8.438V51.269z M158.95,51.269h-8.44v-8.532h8.44V51.269z M142.075,51.269h-8.438v-8.532h8.438
		V51.269z M125.194,51.269h-8.438v-8.532h8.438V51.269z M108.319,51.269h-8.44v-8.532h8.44V51.269z M91.441,51.269h-8.438v-8.532
		h8.438V51.269z M74.56,51.269h-8.435v-8.532h8.438v8.532H74.56z"/>
	<rect x="53.42" y="42.739" style="fill:#474F59;" width="4.268" height="8.532"/>
	<rect x="454.323" y="387.034" style="fill:#474F59;" width="4.268" height="8.532"/>
	<path style="fill:#474F59;" d="M445.873,395.574h-8.44v-8.532h8.44V395.574z M428.997,395.574h-8.44v-8.532h8.44V395.574z
		 M412.116,395.574h-8.438v-8.532h8.438V395.574z M395.241,395.574h-8.44v-8.532h8.44V395.574z M378.363,395.574h-8.44v-8.532h8.44
		V395.574z M361.482,395.574h-8.435v-8.532h8.435V395.574z M344.607,395.574h-8.44v-8.532h8.44V395.574z M327.731,395.574h-8.44
		v-8.532h8.44V395.574z M310.851,395.574h-8.438v-8.532h8.438V395.574z M293.972,395.574h-8.44v-8.532h8.44V395.574z
		 M277.097,395.574h-8.44v-8.532h8.44V395.574z M260.216,395.574h-8.438v-8.532h8.438V395.574z M243.341,395.574h-8.438v-8.532
		h8.438V395.574z M226.46,395.574h-8.438v-8.532h8.438V395.574z M209.585,395.574h-8.44v-8.532h8.44V395.574z M192.707,395.574
		h-8.438v-8.532h8.438V395.574z M175.828,395.574h-8.438v-8.532h8.438V395.574z M158.95,395.574h-8.44v-8.532h8.44V395.574z
		 M142.075,395.574h-8.438v-8.532h8.438V395.574z M125.194,395.574h-8.438v-8.532h8.438V395.574z M108.319,395.574h-8.44v-8.532
		h8.44V395.574z M91.441,395.574h-8.438v-8.532h8.438V395.574z M74.56,395.574h-8.435v-8.532h8.438v8.532H74.56z"/>
	<rect x="53.42" y="387.034" style="fill:#474F59;" width="4.268" height="8.532"/>
	<rect x="38.915" y="376.794" style="fill:#474F59;" width="8.532" height="4.268"/>
	<path style="fill:#474F59;" d="M47.447,368.279h-8.532v-8.52h8.532V368.279z M47.447,351.237h-8.532v-8.52h8.532V351.237z
		 M47.447,334.193h-8.532v-8.52h8.532V334.193z M47.447,317.153h-8.532v-8.522h8.532V317.153z M47.447,300.109h-8.532v-8.522h8.532
		V300.109z M47.447,283.067h-8.532v-8.52h8.532V283.067z M47.447,266.022h-8.532V257.5h8.532V266.022z M47.447,248.98h-8.532v-8.522
		h8.532V248.98z M47.447,231.939h-8.532v-8.522h8.532V231.939z M47.447,214.894h-8.532v-8.52h8.532V214.894z M47.447,197.855h-8.532
		v-8.522h8.532V197.855z M47.447,180.81h-8.532v-8.522h8.532V180.81z M47.447,163.766h-8.532v-8.52h8.532V163.766z M47.447,146.724
		h-8.532v-8.522h8.532V146.724z M47.447,129.682h-8.532v-8.522h8.532V129.682z M47.447,112.64h-8.532v-8.522h8.532V112.64z
		 M47.447,95.596h-8.532v-8.522h8.532V95.596z M47.447,78.554h-8.532v-8.52h8.532V78.554z"/>
	<rect x="38.915" y="57.244" style="fill:#474F59;" width="8.532" height="4.268"/>
	<rect x="464.563" y="376.794" style="fill:#474F59;" width="8.535" height="4.268"/>
	<path style="fill:#474F59;" d="M473.088,368.279h-8.535v-8.52h8.535V368.279z M473.088,351.237h-8.535v-8.52h8.535V351.237z
		 M473.088,334.193h-8.535v-8.52h8.535V334.193z M473.088,317.153h-8.535v-8.522h8.535V317.153z M473.088,300.109h-8.535v-8.522
		h8.535V300.109z M473.088,283.067h-8.535v-8.52h8.535V283.067z M473.088,266.022h-8.535V257.5h8.535V266.022z M473.088,248.98
		h-8.535v-8.522h8.535V248.98z M473.088,231.939h-8.535v-8.522h8.535V231.939z M473.088,214.894h-8.535v-8.52h8.535V214.894z
		 M473.088,197.855h-8.535v-8.522h8.535V197.855z M473.088,180.81h-8.535v-8.522h8.535V180.81z M473.088,163.766h-8.535v-8.52h8.535
		V163.766z M473.088,146.724h-8.535v-8.522h8.535V146.724z M473.088,129.682h-8.535v-8.522h8.535V129.682z M473.088,112.64h-8.535
		v-8.522h8.535V112.64z M473.088,95.596h-8.535v-8.522h8.535V95.596z M473.088,78.554h-8.535v-8.52h8.535V78.554z"/>
	<rect x="464.563" y="57.244" style="fill:#474F59;" width="8.535" height="4.268"/>
	<path style="fill:#474F59;" d="M57.674,61.514H28.659V32.499h29.012v29.015H57.674z M37.194,52.979h11.948V41.032H37.194
		C37.194,41.032,37.194,52.979,37.194,52.979z"/>
	<path style="fill:#474F59;" d="M483.338,61.514h-29.015V32.499h29.015V61.514z M462.858,52.979h11.945V41.032h-11.945V52.979z"/>
	<path style="fill:#474F59;" d="M57.674,405.819H28.659v-29.012h29.012v29.012H57.674z M37.194,397.286h11.948v-11.947H37.194
		C37.194,385.339,37.194,397.286,37.194,397.286z"/>
	<path style="fill:#474F59;" d="M483.338,405.819h-29.015v-29.012h29.015V405.819z M462.858,397.286h11.945v-11.947h-11.945V397.286
		z"/>
</g>
<g>
</g>
<g>
</g>
<g>
</g>
<g>
</g>
<g>
</g>
<g>
</g>
<g>
</g>
<g>
</g>
<g>
</g>
<g>
</g>
<g>
</g>
<g>
</g>
<g>
</g>
<g>
</g>
<g>
</g>
</svg>
