<?xml version="1.0" encoding="iso-8859-1"?>
<!-- Generator: Adobe Illustrator 19.0.0, SVG Export Plug-In . SVG Version: 6.00 Build 0)  -->
<svg version="1.1" id="Layer_1" xmlns="http://www.w3.org/2000/svg" xmlns:xlink="http://www.w3.org/1999/xlink" x="0px" y="0px"
	 viewBox="0 0 511.997 511.997" style="enable-background:new 0 0 511.997 511.997;" xml:space="preserve">
<rect x="59.996" y="106.532" style="fill:#F2F2F2;" width="392.013" height="299.366"/>
<rect x="59.996" y="75.574" style="fill:#353F49;" width="392.013" height="30.95"/>
<g>
	<rect x="80.622" y="348.434" style="fill:#CCCBCA;" width="103.142" height="7.357"/>
	<rect x="80.622" y="363.154" style="fill:#CCCBCA;" width="103.142" height="7.375"/>
	<rect x="80.622" y="377.899" style="fill:#CCCBCA;" width="103.142" height="7.36"/>
</g>
<rect x="204.416" y="127.158" style="fill:#353F49;" width="103.142" height="7.373"/>
<g>
	<rect x="108.698" y="141.893" style="fill:#CCCBCA;" width="294.605" height="7.38"/>
	<rect x="108.698" y="156.639" style="fill:#CCCBCA;" width="294.605" height="7.37"/>
	<rect x="204.416" y="348.434" style="fill:#CCCBCA;" width="103.142" height="7.357"/>
	<rect x="204.416" y="363.154" style="fill:#CCCBCA;" width="103.142" height="7.375"/>
	<rect x="204.416" y="377.899" style="fill:#CCCBCA;" width="103.142" height="7.36"/>
	<rect x="328.218" y="348.434" style="fill:#CCCBCA;" width="103.168" height="7.357"/>
	<rect x="328.218" y="363.154" style="fill:#CCCBCA;" width="103.168" height="7.375"/>
	<rect x="328.218" y="377.899" style="fill:#CCCBCA;" width="103.168" height="7.36"/>
</g>
<rect x="59.996" y="184.62" style="fill:#FF916E;" width="392.013" height="143.171"/>
<rect x="183.775" y="184.62" style="fill:#F77B55;" width="144.435" height="143.171"/>
<g>
	<polygon style="fill:#FFFFFF;" points="259.891,204.646 252.081,204.646 249.795,216.028 262.188,216.028 	"/>
	<polygon style="fill:#FFFFFF;" points="233.59,209.597 226.811,213.519 230.528,224.509 241.254,218.327 	"/>
	<polygon style="fill:#FFFFFF;" points="213.297,227.036 209.367,233.82 218.089,241.475 224.305,230.761 	"/>
	<polygon style="fill:#FFFFFF;" points="204.413,252.308 204.413,260.116 215.813,262.413 215.813,250.02 	"/>
	<polygon style="fill:#FFFFFF;" points="209.367,278.6 213.297,285.379 224.305,281.677 218.089,270.94 	"/>
	<polygon style="fill:#FFFFFF;" points="226.811,298.908 233.59,302.817 241.254,294.116 230.528,287.915 	"/>
	<polygon style="fill:#FFFFFF;" points="252.091,307.773 259.891,307.773 262.188,296.412 249.795,296.412 	"/>
	<polygon style="fill:#FFFFFF;" points="278.39,302.817 285.156,298.908 281.434,287.915 270.72,294.116 	"/>
	<polygon style="fill:#FFFFFF;" points="298.701,285.379 302.592,278.6 293.891,270.94 287.665,281.677 	"/>
	<polygon style="fill:#FFFFFF;" points="307.566,260.116 307.566,252.308 296.189,250.02 296.189,262.413 	"/>
	<polygon style="fill:#FFFFFF;" points="302.592,233.82 298.701,227.036 287.665,230.761 293.891,241.475 	"/>
	<polygon style="fill:#FFFFFF;" points="285.156,213.519 278.39,209.597 270.72,218.327 281.434,224.509 	"/>
	<path style="fill:#FFFFFF;" d="M255.987,215.565c-22.461,0-40.658,18.196-40.658,40.658c0,22.438,18.196,40.632,40.658,40.632
		c22.454,0,40.65-18.194,40.65-40.632C296.637,233.764,278.444,215.565,255.987,215.565z M255.987,267.476
		c-6.213,0-11.254-5.053-11.254-11.254c0-6.223,5.041-11.261,11.254-11.261c6.2,0,11.256,5.038,11.256,11.261
		C267.246,262.426,262.188,267.476,255.987,267.476z"/>
</g>
<path style="fill:#353F49;" d="M255.987,236.708c-10.788,0-19.51,8.717-19.51,19.517c0,10.778,8.722,19.512,19.51,19.512
	c10.783,0,19.523-8.735,19.523-19.512C275.51,245.425,266.77,236.708,255.987,236.708z M255.987,265.966
	c-5.381,0-9.756-4.372-9.756-9.743c0-5.399,4.372-9.759,9.756-9.759c5.391,0,9.738,4.36,9.738,9.759
	C265.725,261.594,261.381,265.966,255.987,265.966z"/>
<g>
	<polygon style="fill:#FFFFFF;" points="80.622,256.225 108.695,284.285 108.695,228.142 	"/>
	<polygon style="fill:#FFFFFF;" points="431.38,256.225 403.315,284.285 403.315,228.142 	"/>
</g>
<polygon style="fill:#F2F2F2;" points="50.122,436.413 0,421.161 50.122,405.896 "/>
<polygon style="fill:#CCCBCA;" points="0,421.161 50.122,436.413 50.122,426.819 "/>
<rect x="50.122" y="405.906" style="fill:#474F59;" width="411.75" height="30.518"/>
<rect x="50.122" y="426.821" style="fill:#232E38;" width="411.75" height="9.595"/>
<polygon style="fill:#474F59;" points="19.612,427.116 0,421.161 19.612,415.135 "/>
<polygon style="fill:#232E38;" points="19.612,427.116 0,421.161 19.612,423.38 "/>
<rect x="461.875" y="405.906" style="fill:#F2F2F2;" width="10.084" height="30.518"/>
<rect x="461.875" y="426.821" style="fill:#CCCBCA;" width="10.084" height="9.595"/>
<rect x="471.962" y="405.906" style="fill:#474F59;" width="40.036" height="30.518"/>
<rect x="471.962" y="426.821" style="fill:#232E38;" width="40.036" height="9.595"/>
<g>
</g>
<g>
</g>
<g>
</g>
<g>
</g>
<g>
</g>
<g>
</g>
<g>
</g>
<g>
</g>
<g>
</g>
<g>
</g>
<g>
</g>
<g>
</g>
<g>
</g>
<g>
</g>
<g>
</g>
</svg>
