<?xml version="1.0" encoding="iso-8859-1"?>
<!-- Generator: Adobe Illustrator 19.0.0, SVG Export Plug-In . SVG Version: 6.00 Build 0)  -->
<svg version="1.1" id="Layer_1" xmlns="http://www.w3.org/2000/svg" xmlns:xlink="http://www.w3.org/1999/xlink" x="0px" y="0px"
	 viewBox="0 0 512 512" style="enable-background:new 0 0 512 512;" xml:space="preserve">
<rect x="90.061" y="97.715" style="fill:#F2F2F2;" width="303.514" height="307.354"/>
<rect x="90.061" y="70.607" style="fill:#353F49;" width="303.514" height="27.123"/>
<rect x="115.891" y="144.307" style="fill:#FDCA5C;" width="251.878" height="105.933"/>
<g>
	<rect x="115.891" y="116.749" style="fill:#F77B55;" width="51.533" height="8.54"/>
	<rect x="182.656" y="116.749" style="fill:#F77B55;" width="51.533" height="8.54"/>
	<rect x="249.446" y="116.749" style="fill:#F77B55;" width="51.533" height="8.54"/>
	<rect x="316.237" y="116.749" style="fill:#F77B55;" width="51.533" height="8.54"/>
</g>
<g>
	<rect x="115.891" y="269.261" style="fill:#CCCBCA;" width="64.23" height="64.23"/>
	<rect x="115.891" y="342.861" style="fill:#CCCBCA;" width="64.23" height="4.582"/>
	<rect x="115.891" y="352.026" style="fill:#CCCBCA;" width="64.23" height="4.593"/>
	<rect x="115.891" y="361.216" style="fill:#CCCBCA;" width="32.123" height="4.593"/>
	<rect x="209.708" y="269.261" style="fill:#CCCBCA;" width="64.256" height="64.23"/>
	<rect x="209.708" y="342.861" style="fill:#CCCBCA;" width="64.256" height="4.582"/>
	<rect x="209.708" y="352.026" style="fill:#CCCBCA;" width="64.256" height="4.593"/>
	<rect x="209.708" y="361.216" style="fill:#CCCBCA;" width="32.136" height="4.593"/>
</g>
<rect x="303.514" y="269.261" style="fill:#F77B55;" width="64.256" height="64.23"/>
<g>
	<rect x="303.539" y="342.861" style="fill:#CCCBCA;" width="64.23" height="4.582"/>
	<rect x="303.539" y="352.026" style="fill:#CCCBCA;" width="64.23" height="4.593"/>
	<rect x="303.539" y="361.216" style="fill:#CCCBCA;" width="32.115" height="4.593"/>
</g>
<g>
	<polygon style="fill:#353F49;" points="354.967,349.284 335.634,301.386 383.532,320.701 364.897,330.619 	"/>
	
		<rect x="367.182" y="325.435" transform="matrix(-0.7066 0.7076 -0.7076 -0.7066 871.3987 312.1206)" style="fill:#353F49;" width="7.621" height="22.556"/>
</g>
<g>
	<polygon style="fill:#FFFFFF;" points="326.221,293.315 320.054,287.148 321.421,285.801 327.585,291.963 	"/>
	<polygon style="fill:#FFFFFF;" points="323.858,297.531 315.802,294.188 316.521,292.426 324.585,295.762 	"/>
	<rect x="314.547" y="300.416" style="fill:#FFFFFF;" width="8.73" height="1.915"/>
	<polygon style="fill:#FFFFFF;" points="316.534,310.336 315.814,308.562 323.866,305.208 324.585,306.98 	"/>
	
		<rect x="322.83" y="308.823" transform="matrix(-0.7084 -0.7058 0.7058 -0.7084 332.1256 763.5858)" style="fill:#FFFFFF;" width="1.93" height="8.727"/>
	<polygon style="fill:#FFFFFF;" points="328.456,321.208 326.684,320.484 330.02,312.42 331.796,313.142 	"/>
	<rect x="334.669" y="313.728" style="fill:#FFFFFF;" width="1.933" height="8.722"/>
	<rect x="347.981" y="300.416" style="fill:#FFFFFF;" width="8.73" height="1.915"/>
	
		<rect x="350.11" y="290.606" transform="matrix(-0.3817 -0.9243 0.9243 -0.3817 212.4279 732.0466)" style="fill:#FFFFFF;" width="1.912" height="8.73"/>
	
		<rect x="346.541" y="285.182" transform="matrix(-0.7091 -0.7051 0.7051 -0.7091 389.7542 739.8873)" style="fill:#FFFFFF;" width="1.917" height="8.727"/>
	<polygon style="fill:#FFFFFF;" points="341.258,290.335 339.487,289.587 342.825,281.544 344.586,282.271 	"/>
	<rect x="334.669" y="280.294" style="fill:#FFFFFF;" width="1.933" height="8.709"/>
	<polygon style="fill:#FFFFFF;" points="330.015,290.335 326.684,282.271 328.456,281.544 331.796,289.587 	"/>
</g>
<g>
	<path style="fill:#92DEEB;" d="M171.305,324.669c2.258-0.005,4.541,0.873,6.244,2.583c1.733,1.736,2.578,3.968,2.578,6.249v102.441
		c0,2.258-0.845,4.511-2.578,6.226c-1.715,1.743-3.988,2.588-6.244,2.588H8.84c-2.266,0-4.521-0.845-6.252-2.575
		C0.868,440.453,0,438.2,0,435.942l0.005-102.433c-0.005-2.273,0.86-4.523,2.58-6.257c1.738-1.71,3.986-2.583,6.252-2.583H171.305
		L171.305,324.669z"/>
	<g>
		<rect x="22.446" y="418.15" style="fill:#353F49;" width="28.152" height="3.832"/>
		<rect x="58.127" y="418.15" style="fill:#353F49;" width="28.186" height="3.832"/>
		<rect x="93.852" y="418.15" style="fill:#353F49;" width="28.155" height="3.832"/>
		<rect x="129.533" y="418.15" style="fill:#353F49;" width="28.157" height="3.832"/>
	</g>
	<rect x="22.446" y="384.691" style="fill:#FFFFFF;" width="135.237" height="15.437"/>
	<g>
		<rect x="89.016" y="390.963" style="fill:#353F49;" width="7.731" height="2.903"/>
		<rect x="101.097" y="390.963" style="fill:#353F49;" width="23.194" height="2.89"/>
		<rect x="128.614" y="390.963" style="fill:#353F49;" width="23.194" height="2.89"/>
		<rect y="346.522" style="fill:#353F49;" width="180.122" height="27.476"/>
	</g>
</g>
<path style="fill:#F2F2F2;" d="M512,419.587c0,13.857-11.336,25.167-25.178,25.167h-18.299c-13.865,0-25.185-11.31-25.185-25.167
	v-72.02c0-13.844,11.32-25.167,25.185-25.167h18.299c13.842,0,25.178,11.323,25.178,25.167V419.587z"/>
<path style="fill:#D9D8D7;" d="M500.398,326.433c0.248,1.421,0.405,2.87,0.405,4.36v54.628c0,10.916-4.165,21.788-12.465,30.095
	c-8.325,8.33-19.213,12.472-30.113,12.472h-0.901c-4.989,0-9.656-1.485-13.555-4.024c2.053,11.781,12.396,20.792,24.753,20.792
	h18.299c13.842,0,25.178-11.31,25.178-25.167v-72.02C512,338.711,507.356,330.916,500.398,326.433z"/>
<path style="fill:#353F49;" d="M483.387,348.71c0,3.167-2.542,5.722-5.722,5.722c-3.174,0-5.704-2.555-5.704-5.722
	c0-3.162,2.527-5.729,5.704-5.729C480.845,342.981,483.387,345.546,483.387,348.71z"/>
<path style="fill:#D9D8D7;" d="M448.177,194.716c-17.679,0-32.064,14.38-32.064,32.051c0,0,0.01,201.039,0.01,210.02
	c0,21.491-17.485,38.968-38.966,38.968c-21.481,0-38.958-17.477-38.961-38.968l-0.013-31.698l-5.12,0.008l0.013,31.69
	c0.003,24.31,19.779,44.091,44.081,44.091c24.307,0,44.081-19.781,44.081-44.091c0,0-0.003-71.101-0.003-210.02
	c0-14.851,12.086-26.934,26.941-26.934c14.848,0,26.931,12.091,26.931,26.949l-0.015,95.619h5.12l0.01-95.619
	C480.223,209.103,465.848,194.716,448.177,194.716z"/>
<path style="fill:#FDCA5C;" d="M55.327,145.316c0,15.265-12.388,27.651-27.671,27.651C12.38,172.966,0,160.581,0,145.316
	c0-15.27,12.38-27.679,27.656-27.679C42.939,117.64,55.327,130.045,55.327,145.316z"/>
<path style="fill:#FFDB79;" d="M49.787,145.316c0,12.219-9.9,22.124-22.134,22.124c-12.219,0-22.121-9.905-22.121-22.124
	c0-12.232,9.9-22.134,22.121-22.134C39.887,123.182,49.787,133.084,49.787,145.316z"/>
<g>
	<path style="fill:#FDCA5C;" d="M29.988,147.136h-4.649c-1.935,0-3.771-0.748-5.133-2.135c-1.354-1.349-2.12-3.162-2.12-5.117
		c0-1.94,0.763-3.761,2.12-5.135c1.359-1.341,3.177-2.104,5.133-2.104h10.068v3.658H25.339c-0.97,0-1.882,0.369-2.527,1.039
		c-0.699,0.671-1.062,1.58-1.062,2.542c0,0.973,0.356,1.859,1.039,2.534c0.694,0.691,1.595,1.065,2.55,1.065h4.649V147.136z"/>
	<path style="fill:#FDCA5C;" d="M29.988,157.972H19.919v-3.645h10.068c0.952,0,1.864-0.374,2.545-1.052
		c0.66-0.671,1.044-1.582,1.044-2.55c0-0.96-0.381-1.859-1.039-2.529c-0.689-0.684-1.6-1.065-2.552-1.065h-4.646v-3.651h4.649
		c1.93,0,3.761,0.748,5.117,2.13c1.357,1.336,2.12,3.169,2.12,5.117c0,1.943-0.748,3.776-2.127,5.135
		C33.718,157.22,31.903,157.972,29.988,157.972z"/>
	<rect x="25.83" y="131.379" style="fill:#FDCA5C;" width="3.643" height="27.858"/>
	<path style="fill:#FDCA5C;" d="M141.944,67.328c0,19.976-16.189,36.168-36.183,36.168c-19.988,0-36.18-16.192-36.18-36.168
		c0-19.981,16.192-36.206,36.18-36.206C125.755,31.122,141.944,47.35,141.944,67.328z"/>
</g>
<path style="fill:#FFDB79;" d="M134.689,67.328c0,15.995-12.936,28.936-28.928,28.936c-15.987,0-28.936-12.943-28.936-28.936
	c0-16,12.948-28.941,28.936-28.941C121.756,38.387,134.689,51.328,134.689,67.328z"/>
<g>
	<path style="fill:#FDCA5C;" d="M108.813,69.716h-6.093c-2.534,0-4.915-0.988-6.697-2.801c-1.797-1.756-2.78-4.134-2.78-6.689
		c0-2.537,0.983-4.915,2.78-6.717c1.764-1.761,4.134-2.749,6.697-2.749h13.174v4.767H102.72c-1.267,0-2.445,0.489-3.302,1.354
		c-0.904,0.899-1.382,2.079-1.382,3.343c0,1.257,0.471,2.445,1.354,3.308c0.914,0.916,2.084,1.4,3.328,1.4h6.093v4.785H108.813z"/>
	<path style="fill:#FDCA5C;" d="M108.813,83.884H95.629v-4.78h13.184c1.239,0,2.417-0.479,3.315-1.362
		c0.878-0.865,1.377-2.053,1.377-3.331c0-1.27-0.489-2.44-1.367-3.315c-0.909-0.891-2.086-1.38-3.325-1.38h-6.093v-4.782h6.093
		c2.522,0,4.897,0.988,6.694,2.793c1.784,1.736,2.778,4.129,2.778,6.684c0,2.542-0.988,4.936-2.788,6.71
		C113.69,82.911,111.316,83.884,108.813,83.884z"/>
	<rect x="103.373" y="49.101" style="fill:#FDCA5C;" width="4.764" height="36.452"/>
	<circle style="fill:#FDCA5C;" cx="86.152" cy="222.515" r="19.61"/>
</g>
<path style="fill:#FFDB79;" d="M101.839,222.523c0,8.671-7.017,15.683-15.69,15.683c-8.666,0-15.683-7.012-15.683-15.683
	c0-8.666,7.02-15.677,15.683-15.677C94.822,206.845,101.839,213.857,101.839,222.523z"/>
<g>
	<path style="fill:#FDCA5C;" d="M87.803,223.826h-3.3c-1.382,0-2.665-0.535-3.628-1.516c-0.97-0.95-1.503-2.253-1.503-3.633
		c0-1.375,0.532-2.665,1.503-3.633c0.955-0.96,2.232-1.495,3.628-1.495h7.135v2.58h-7.135c-0.686,0-1.336,0.271-1.797,0.742
		c-0.489,0.489-0.748,1.129-0.748,1.807c0,0.691,0.253,1.324,0.73,1.8c0.497,0.489,1.144,0.755,1.815,0.755h3.3V223.826z"/>
	<path style="fill:#FDCA5C;" d="M87.803,231.503h-7.148v-2.588h7.148c0.671,0,1.313-0.271,1.8-0.748
		c0.474-0.463,0.748-1.111,0.748-1.795c0-0.691-0.269-1.329-0.748-1.8c-0.486-0.489-1.129-0.748-1.8-0.748h-3.3v-2.593h3.3
		c1.364,0,2.662,0.535,3.628,1.503c0.96,0.95,1.503,2.253,1.503,3.638c0,1.37-0.538,2.665-1.508,3.633
		C90.452,230.973,89.155,231.503,87.803,231.503z"/>
	<rect x="84.864" y="212.634" style="fill:#FDCA5C;" width="2.586" height="19.768"/>
</g>
<g>
</g>
<g>
</g>
<g>
</g>
<g>
</g>
<g>
</g>
<g>
</g>
<g>
</g>
<g>
</g>
<g>
</g>
<g>
</g>
<g>
</g>
<g>
</g>
<g>
</g>
<g>
</g>
<g>
</g>
</svg>
