<?xml version="1.0" encoding="iso-8859-1"?>
<!-- Generator: Adobe Illustrator 19.0.0, SVG Export Plug-In . SVG Version: 6.00 Build 0)  -->
<svg version="1.1" id="Layer_1" xmlns="http://www.w3.org/2000/svg" xmlns:xlink="http://www.w3.org/1999/xlink" x="0px" y="0px"
	 viewBox="0 0 512 512" style="enable-background:new 0 0 512 512;" xml:space="preserve">
<circle style="fill:#FFDB79;" cx="256" cy="256" r="256"/>
<rect x="59.987" y="102.397" style="fill:#FFFFFF;" width="391.994" height="299.371"/>
<rect x="59.987" y="71.439" style="fill:#353F49;" width="391.994" height="30.958"/>
<g>
	<rect x="80.622" y="344.295" style="fill:#D9D8D7;" width="103.16" height="7.36"/>
	<rect x="80.622" y="359.028" style="fill:#D9D8D7;" width="103.16" height="7.373"/>
	<rect x="80.622" y="373.76" style="fill:#D9D8D7;" width="103.16" height="7.363"/>
</g>
<rect x="204.427" y="123.012" style="fill:#353F49;" width="103.16" height="7.373"/>
<g>
	<rect x="108.696" y="137.748" style="fill:#D9D8D7;" width="294.615" height="7.379"/>
	<rect x="108.696" y="152.51" style="fill:#D9D8D7;" width="294.615" height="7.369"/>
	<rect x="204.427" y="344.295" style="fill:#D9D8D7;" width="103.16" height="7.36"/>
	<rect x="204.427" y="359.028" style="fill:#D9D8D7;" width="103.16" height="7.373"/>
	<rect x="204.427" y="373.76" style="fill:#D9D8D7;" width="103.16" height="7.363"/>
	<rect x="328.209" y="344.295" style="fill:#D9D8D7;" width="103.16" height="7.36"/>
	<rect x="328.209" y="359.028" style="fill:#D9D8D7;" width="103.16" height="7.373"/>
	<rect x="328.209" y="373.76" style="fill:#D9D8D7;" width="103.16" height="7.363"/>
</g>
<rect x="59.987" y="180.498" style="fill:#FF916E;" width="391.994" height="143.162"/>
<rect x="183.775" y="180.498" style="fill:#F77B55;" width="144.44" height="143.162"/>
<g>
	<polygon style="fill:#FFFFFF;" points="259.891,200.512 252.079,200.512 249.793,211.892 262.187,211.892 	"/>
	<polygon style="fill:#FFFFFF;" points="233.591,205.464 226.809,209.385 230.529,220.375 241.254,214.194 	"/>
	<polygon style="fill:#FFFFFF;" points="213.296,222.902 209.368,229.686 218.089,237.34 224.302,226.624 	"/>
	<polygon style="fill:#FFFFFF;" points="204.414,248.175 204.414,255.983 215.813,258.276 215.813,245.886 	"/>
	<polygon style="fill:#FFFFFF;" points="209.368,274.465 213.296,281.247 224.302,277.54 218.089,266.805 	"/>
	<polygon style="fill:#FFFFFF;" points="226.809,294.773 233.591,298.684 241.254,289.98 230.529,283.78 	"/>
	<polygon style="fill:#FFFFFF;" points="252.089,303.639 259.891,303.639 262.187,292.276 249.793,292.276 	"/>
	<polygon style="fill:#FFFFFF;" points="278.389,298.684 285.154,294.773 281.432,283.78 270.719,289.98 	"/>
	<polygon style="fill:#FFFFFF;" points="298.701,281.247 302.592,274.465 293.891,266.805 287.665,277.54 	"/>
	<polygon style="fill:#FFFFFF;" points="307.563,255.983 307.563,248.175 296.19,245.886 296.19,258.276 	"/>
	<polygon style="fill:#FFFFFF;" points="302.592,229.686 298.701,222.902 287.665,226.624 293.891,237.34 	"/>
	<polygon style="fill:#FFFFFF;" points="285.154,209.385 278.389,205.464 270.719,214.194 281.432,220.375 	"/>
	<path style="fill:#FFFFFF;" d="M255.987,211.433c-22.462,0-40.659,18.197-40.659,40.659c0,22.439,18.197,40.633,40.659,40.633
		c22.455,0,40.653-18.194,40.653-40.633C296.64,229.63,278.442,211.433,255.987,211.433z M255.987,263.343
		c-6.213,0-11.254-5.051-11.254-11.251c0-6.223,5.041-11.261,11.254-11.261c6.2,0,11.257,5.037,11.257,11.261
		C267.244,258.289,262.187,263.343,255.987,263.343z"/>
</g>
<path style="fill:#353F49;" d="M255.987,232.574c-10.788,0-19.509,8.717-19.509,19.515c0,10.778,8.724,19.512,19.509,19.512
	c10.785,0,19.522-8.737,19.522-19.512C275.509,241.291,266.772,232.574,255.987,232.574z M255.987,261.833
	c-5.381,0-9.754-4.37-9.754-9.741c0-5.401,4.373-9.758,9.754-9.758c5.394,0,9.738,4.357,9.738,9.758
	C265.725,257.46,261.381,261.833,255.987,261.833z"/>
<g>
	<polygon style="fill:#FFFFFF;" points="80.622,252.089 108.696,280.153 108.696,224.005 	"/>
	<polygon style="fill:#FFFFFF;" points="431.381,252.089 403.317,280.153 403.317,224.005 	"/>
</g>
<polygon style="fill:#F2F2F2;" points="50.123,432.277 0,417.026 50.123,401.761 "/>
<polygon style="fill:#CCCBCA;" points="0,417.026 50.123,432.277 50.123,422.684 "/>
<rect x="50.123" y="401.771" style="fill:#474F59;" width="411.747" height="30.515"/>
<rect x="50.123" y="422.681" style="fill:#232E38;" width="411.747" height="9.593"/>
<polygon style="fill:#474F59;" points="19.615,422.981 0,417.026 19.615,411.001 "/>
<polygon style="fill:#232E38;" points="19.615,422.981 0,417.026 19.615,419.245 "/>
<rect x="461.89" y="401.771" style="fill:#FFFFFF;" width="10.085" height="30.515"/>
<rect x="461.89" y="422.681" style="fill:#CCCBCA;" width="10.085" height="9.593"/>
<rect x="471.965" y="401.771" style="fill:#474F59;" width="40.035" height="30.515"/>
<rect x="471.965" y="422.681" style="fill:#232E38;" width="40.035" height="9.593"/>
<g>
</g>
<g>
</g>
<g>
</g>
<g>
</g>
<g>
</g>
<g>
</g>
<g>
</g>
<g>
</g>
<g>
</g>
<g>
</g>
<g>
</g>
<g>
</g>
<g>
</g>
<g>
</g>
<g>
</g>
</svg>
