<?xml version="1.0" encoding="iso-8859-1"?>
<!-- Generator: Adobe Illustrator 19.0.0, SVG Export Plug-In . SVG Version: 6.00 Build 0)  -->
<svg version="1.1" id="Layer_1" xmlns="http://www.w3.org/2000/svg" xmlns:xlink="http://www.w3.org/1999/xlink" x="0px" y="0px"
	 viewBox="0 0 512 512" style="enable-background:new 0 0 512 512;" xml:space="preserve">
<circle style="fill:#ADECF7;" cx="256" cy="256" r="256"/>
<rect x="56.419" y="104.382" style="fill:#474F59;" width="241.135" height="325.797"/>
<g>
	<rect x="82.482" y="131.987" style="fill:#CCCBCA;" width="49.271" height="5.163"/>
	<rect x="82.482" y="171.256" style="fill:#CCCBCA;" width="13.9" height="5.163"/>
	<rect x="140.341" y="131.987" style="fill:#CCCBCA;" width="19.591" height="5.163"/>
	<rect x="99.989" y="171.256" style="fill:#CCCBCA;" width="50.117" height="5.163"/>
	<rect x="96.388" y="145.408" style="fill:#CCCBCA;" width="22.095" height="5.143"/>
	<rect x="96.388" y="211.506" style="fill:#CCCBCA;" width="22.095" height="5.153"/>
	<rect x="82.482" y="291.113" style="fill:#CCCBCA;" width="35.995" height="5.084"/>
	<rect x="96.388" y="224.983" style="fill:#CCCBCA;" width="9.11" height="5.084"/>
	<rect x="123.683" y="211.506" style="fill:#CCCBCA;" width="57.74" height="5.153"/>
	<rect x="119.973" y="251.772" style="fill:#CCCBCA;" width="20.097" height="5.163"/>
	<rect x="108.128" y="397.411" style="fill:#CCCBCA;" width="20.09" height="5.156"/>
	<rect x="145.375" y="251.772" style="fill:#CCCBCA;" width="32.619" height="5.163"/>
	<rect x="182.734" y="304.491" style="fill:#CCCBCA;" width="16.648" height="5.084"/>
	<rect x="124.304" y="370.622" style="fill:#CCCBCA;" width="39.001" height="5.084"/>
	<rect x="136.919" y="397.411" style="fill:#CCCBCA;" width="45.832" height="5.156"/>
	<rect x="219.301" y="331.347" style="fill:#CCCBCA;" width="16.648" height="5.08"/>
	<rect x="186.104" y="251.772" style="fill:#CCCBCA;" width="39.265" height="5.163"/>
	<rect x="187.973" y="211.506" style="fill:#CCCBCA;" width="41.522" height="5.153"/>
	<rect x="237.931" y="211.506" style="fill:#CCCBCA;" width="25.435" height="5.153"/>
	<rect x="96.388" y="184.733" style="fill:#CCCBCA;" width="32.953" height="5.08"/>
	<rect x="96.388" y="198.121" style="fill:#CCCBCA;" width="46.76" height="5.087"/>
	<rect x="108.878" y="224.983" style="fill:#CCCBCA;" width="53.555" height="5.084"/>
	<rect x="96.388" y="317.902" style="fill:#CCCBCA;" width="53.562" height="5.153"/>
	<rect x="116.009" y="331.347" style="fill:#CCCBCA;" width="39.199" height="5.08"/>
	<rect x="146.498" y="384.033" style="fill:#CCCBCA;" width="104.157" height="5.15"/>
	<rect x="196.707" y="397.411" style="fill:#CCCBCA;" width="22.812" height="5.156"/>
	<rect x="161.548" y="331.347" style="fill:#CCCBCA;" width="51.032" height="5.08"/>
	<rect x="178.117" y="370.622" style="fill:#CCCBCA;" width="51.065" height="5.084"/>
	<rect x="108.878" y="238.394" style="fill:#CCCBCA;" width="17.408" height="5.1"/>
	<rect x="108.878" y="265.249" style="fill:#CCCBCA;" width="18.924" height="5.084"/>
	<rect x="96.388" y="304.491" style="fill:#CCCBCA;" width="79.608" height="5.084"/>
	<rect x="96.388" y="331.347" style="fill:#CCCBCA;" width="12.724" height="5.08"/>
	<rect x="82.482" y="370.622" style="fill:#CCCBCA;" width="35.695" height="5.084"/>
	<rect x="96.388" y="384" style="fill:#CCCBCA;" width="40.656" height="5.153"/>
	<rect x="131.752" y="238.394" style="fill:#CCCBCA;" width="104.61" height="5.1"/>
	<rect x="107.497" y="344.758" style="fill:#CCCBCA;" width="33.465" height="5.074"/>
	<rect x="152.444" y="344.758" style="fill:#CCCBCA;" width="92.484" height="5.074"/>
	<rect x="167.632" y="224.983" style="fill:#CCCBCA;" width="9.583" height="5.084"/>
	<rect x="184.426" y="224.983" style="fill:#CCCBCA;" width="17.966" height="5.084"/>
	<rect x="148.117" y="198.121" style="fill:#CCCBCA;" width="46.741" height="5.087"/>
	<rect x="198.098" y="198.121" style="fill:#CCCBCA;" width="38.383" height="5.087"/>
	<rect x="250.652" y="198.121" style="fill:#CCCBCA;" width="20.814" height="5.087"/>
	<rect x="140.123" y="184.733" style="fill:#CCCBCA;" width="50.648" height="5.08"/>
	<rect x="126.646" y="145.408" style="fill:#CCCBCA;" width="50.153" height="5.143"/>
</g>
<rect x="56.419" y="78.283" style="fill:#232E38;" width="241.135" height="26.095"/>
<path style="fill:#FFFFFF;" d="M434.298,264.872v183.382c0,13.12-10.64,23.803-23.76,23.803c-13.077,0-23.717-10.683-23.717-23.803
	V224.979c0-15.198-12.394-27.605-27.589-27.605c-15.198,0-27.542,12.41-27.542,27.605v53.902h3.782v-53.902
	c0-13.111,10.676-23.79,23.76-23.79c13.104,0,23.76,10.679,23.76,23.79v223.272c0,15.201,12.347,27.552,27.542,27.552
	c15.201,0,27.589-12.351,27.589-27.552V264.872H434.298z"/>
<path style="fill:#D9D8D7;" d="M434.298,439.616v8.635c0,13.12-10.64,23.803-23.76,23.803c-4.41,0-8.529-1.235-12.067-3.349
	c-1.153,0.77-2.345,1.493-3.511,2.249c4.436,3.052,9.797,4.849,15.578,4.849c15.201,0,27.589-12.351,27.589-27.552v-12.394
	C436.868,437.132,435.577,438.371,434.298,439.616z"/>
<rect x="328.902" y="278.891" style="fill:#FFFFFF;" width="9.355" height="17.309"/>
<rect x="431.533" y="227.529" style="fill:#CCCBCA;" width="9.335" height="11.218"/>
<rect x="428.759" y="238.757" style="fill:#FFFFFF;" width="14.944" height="26.125"/>
<rect x="160.14" y="296.299" style="fill:#CCCBCA;" width="346.938" height="133.857"/>
<g>
	<rect x="171.517" y="307.762" style="fill:#FFFFFF;" width="17.302" height="17.246"/>
	<rect x="455.614" y="330.488" style="fill:#FFFFFF;" width="17.296" height="17.253"/>
	<rect x="432.921" y="330.488" style="fill:#FFFFFF;" width="17.266" height="17.253"/>
	<rect x="410.195" y="330.488" style="fill:#FFFFFF;" width="17.256" height="17.253"/>
	<rect x="387.435" y="330.488" style="fill:#FFFFFF;" width="17.302" height="17.253"/>
	<rect x="364.709" y="330.488" style="fill:#FFFFFF;" width="17.276" height="17.253"/>
	<rect x="342.016" y="330.488" style="fill:#FFFFFF;" width="17.266" height="17.253"/>
	<rect x="319.257" y="330.488" style="fill:#FFFFFF;" width="17.306" height="17.253"/>
	<rect x="296.531" y="330.488" style="fill:#FFFFFF;" width="17.306" height="17.253"/>
	<rect x="273.837" y="330.488" style="fill:#FFFFFF;" width="17.263" height="17.253"/>
	<rect x="251.078" y="330.488" style="fill:#FFFFFF;" width="17.276" height="17.253"/>
	<rect x="228.352" y="330.488" style="fill:#FFFFFF;" width="17.299" height="17.253"/>
	<rect x="205.659" y="330.488" style="fill:#FFFFFF;" width="17.266" height="17.253"/>
	<rect x="211.109" y="353.181" style="fill:#FFFFFF;" width="17.273" height="17.259"/>
	<rect x="200.01" y="375.94" style="fill:#FFFFFF;" width="17.273" height="17.269"/>
	<rect x="222.703" y="375.94" style="fill:#FFFFFF;" width="17.309" height="17.269"/>
	<rect x="245.43" y="375.94" style="fill:#FFFFFF;" width="17.269" height="17.269"/>
	<rect x="268.189" y="375.94" style="fill:#FFFFFF;" width="17.266" height="17.269"/>
	<rect x="290.882" y="375.94" style="fill:#FFFFFF;" width="17.306" height="17.269"/>
	<rect x="313.608" y="375.94" style="fill:#FFFFFF;" width="17.256" height="17.269"/>
	<rect x="336.334" y="375.94" style="fill:#FFFFFF;" width="17.259" height="17.269"/>
	<rect x="359.028" y="375.94" style="fill:#FFFFFF;" width="17.306" height="17.269"/>
	<rect x="381.787" y="375.94" style="fill:#FFFFFF;" width="17.302" height="17.269"/>
	<rect x="404.513" y="375.94" style="fill:#FFFFFF;" width="17.263" height="17.269"/>
	<rect x="427.239" y="375.94" style="fill:#FFFFFF;" width="17.292" height="17.269"/>
	<rect x="449.899" y="375.94" style="fill:#FFFFFF;" width="45.703" height="17.269"/>
	<rect x="233.845" y="353.181" style="fill:#FFFFFF;" width="17.269" height="17.259"/>
	<rect x="256.562" y="353.181" style="fill:#FFFFFF;" width="17.309" height="17.259"/>
	<rect x="279.288" y="353.181" style="fill:#FFFFFF;" width="17.253" height="17.259"/>
	<rect x="302.014" y="353.181" style="fill:#FFFFFF;" width="17.269" height="17.259"/>
	<rect x="324.707" y="353.181" style="fill:#FFFFFF;" width="17.302" height="17.259"/>
	<rect x="347.433" y="353.181" style="fill:#FFFFFF;" width="17.263" height="17.259"/>
	<rect x="370.159" y="353.181" style="fill:#FFFFFF;" width="17.263" height="17.259"/>
	<rect x="392.853" y="353.181" style="fill:#FFFFFF;" width="17.296" height="17.259"/>
	<rect x="415.579" y="353.181" style="fill:#FFFFFF;" width="17.309" height="17.259"/>
	<rect x="438.305" y="353.181" style="fill:#FFFFFF;" width="17.266" height="17.259"/>
	<rect x="461.031" y="353.181" style="fill:#FFFFFF;" width="17.289" height="17.259"/>
	<rect x="194.259" y="307.762" style="fill:#FFFFFF;" width="17.296" height="17.246"/>
	<rect x="216.989" y="307.762" style="fill:#FFFFFF;" width="17.266" height="17.246"/>
	<rect x="239.715" y="307.762" style="fill:#FFFFFF;" width="17.266" height="17.246"/>
	<rect x="262.408" y="307.762" style="fill:#FFFFFF;" width="17.309" height="17.246"/>
	<rect x="285.167" y="307.762" style="fill:#FFFFFF;" width="17.263" height="17.246"/>
	<rect x="307.927" y="307.762" style="fill:#FFFFFF;" width="17.249" height="17.246"/>
	<rect x="330.587" y="307.762" style="fill:#FFFFFF;" width="17.292" height="17.246"/>
	<rect x="353.346" y="307.762" style="fill:#FFFFFF;" width="17.296" height="17.246"/>
	<rect x="376.072" y="307.762" style="fill:#FFFFFF;" width="17.266" height="17.246"/>
	<rect x="398.765" y="307.762" style="fill:#FFFFFF;" width="17.315" height="17.246"/>
	<rect x="421.525" y="307.762" style="fill:#FFFFFF;" width="17.296" height="17.246"/>
	<rect x="444.251" y="307.762" style="fill:#FFFFFF;" width="17.266" height="17.246"/>
	<rect x="466.944" y="307.762" style="fill:#FFFFFF;" width="28.665" height="17.246"/>
	<rect x="171.517" y="330.488" style="fill:#FFFFFF;" width="28.672" height="17.253"/>
	<rect x="171.517" y="353.181" style="fill:#FFFFFF;" width="34.178" height="17.259"/>
	<rect x="171.517" y="375.94" style="fill:#FFFFFF;" width="23.04" height="17.269"/>
	<rect x="171.517" y="398.633" style="fill:#FFFFFF;" width="17.309" height="20.133"/>
	<rect x="194.2" y="398.633" style="fill:#FFFFFF;" width="17.273" height="20.133"/>
	<rect x="216.857" y="398.633" style="fill:#FFFFFF;" width="17.309" height="20.133"/>
	<rect x="239.517" y="398.633" style="fill:#FFFFFF;" width="23.189" height="20.133"/>
	<rect x="268.156" y="398.633" style="fill:#FFFFFF;" width="108.184" height="20.133"/>
	<rect x="381.787" y="398.633" style="fill:#FFFFFF;" width="23.222" height="20.133"/>
	<rect x="410.36" y="398.633" style="fill:#FFFFFF;" width="17.276" height="20.133"/>
	<rect x="433.086" y="409.369" style="fill:#FFFFFF;" width="17.299" height="9.378"/>
	<rect x="455.713" y="409.93" style="fill:#FFFFFF;" width="17.263" height="8.833"/>
	<rect x="455.713" y="398.567" style="fill:#FFFFFF;" width="17.263" height="8.836"/>
	<rect x="478.34" y="409.369" style="fill:#FFFFFF;" width="17.269" height="9.378"/>
	<polygon style="fill:#FFFFFF;" points="483.744,370.424 483.744,347.734 478.35,347.734 478.35,330.484 495.616,330.484 
		495.616,370.424 	"/>
	<rect x="205.13" y="36.197" style="fill:#FFFFFF;" width="140.321" height="84.133"/>
</g>
<g>
	<path style="fill:#353F49;" d="M233.244,89.484V67.046h4.562v8.853h8.892v-8.853h4.565v22.439h-4.565v-9.837h-8.892v9.837H233.244z
		"/>
	<path style="fill:#353F49;" d="M260.994,89.484V70.801h-6.669v-3.756h17.887v3.756h-6.656v18.683H260.994z"/>
	<path style="fill:#353F49;" d="M275.096,89.484V67.046h6.808l4.063,15.33l4.056-15.33h6.824v22.439H292.6V71.776l-4.466,17.709
		h-4.377l-4.449-17.709v17.709H275.096z"/>
	<path style="fill:#353F49;" d="M301.452,89.484V67.201h4.562v18.541h11.297v3.743H301.452z"/>
	<rect x="366.394" y="135.039" style="fill:#353F49;" width="100.56" height="45.3"/>
</g>
<g>
	<path style="fill:#FFFFFF;" d="M406.723,159.939l3.323,1.05c-0.509,1.883-1.348,3.287-2.547,4.198
		c-1.199,0.912-2.705,1.377-4.558,1.377c-2.269,0-4.109-0.806-5.576-2.342c-1.457-1.546-2.193-3.719-2.193-6.379
		c0-2.854,0.737-5.054,2.207-6.656c1.47-1.566,3.373-2.388,5.774-2.388c2.111,0,3.809,0.671,5.103,1.876
		c0.77,0.763,1.381,1.807,1.747,3.188l-3.419,0.773c-0.211-0.832-0.614-1.576-1.265-2.084c-0.654-0.509-1.427-0.799-2.316-0.799
		c-1.301,0-2.322,0.456-3.102,1.377c-0.78,0.918-1.189,2.392-1.189,4.426c0,2.197,0.403,3.733,1.176,4.658
		c0.77,0.925,1.777,1.397,3.016,1.397c0.932,0,1.711-0.327,2.385-0.898C405.96,162.142,406.439,161.227,406.723,159.939z"/>
	<path style="fill:#FFFFFF;" d="M416.761,163.787v-4.44h-4.502v-3.059h4.502v-4.44h2.986v4.44h4.476v3.059h-4.476v4.44
		L416.761,163.787L416.761,163.787z"/>
	<path style="fill:#FFFFFF;" d="M430.724,163.787v-4.44h-4.506v-3.059h4.506v-4.44h2.979v4.44h4.476v3.059h-4.476v4.44
		L430.724,163.787L430.724,163.787z"/>
</g>
<circle style="fill:#F77B55;" cx="56.419" cy="424.332" r="51.458"/>
<g>
	<path style="fill:#FFFFFF;" d="M24.18,436.297v-23.839h7.73c2.927,0,4.839,0.106,5.705,0.386c1.377,0.373,2.494,1.097,3.425,2.345
		c0.932,1.159,1.397,2.692,1.397,4.601c0,1.453-0.268,2.732-0.793,3.719c-0.558,0.988-1.206,1.731-2.045,2.283
		c-0.806,0.637-1.622,0.951-2.487,1.186c-1.143,0.188-2.791,0.284-4.971,0.284h-3.141v9.031H24.18V436.297z M28.999,416.477v6.765
		h2.639c1.906,0,3.164-0.099,3.782-0.383c0.654-0.211,1.153-0.621,1.496-1.143c0.383-0.522,0.575-1.126,0.575-1.866
		c0-0.889-0.254-1.572-0.756-2.114c-0.545-0.562-1.163-0.928-1.936-1.05c-0.598-0.162-1.724-0.208-3.455-0.208H28.999z"/>
	<path style="fill:#FFFFFF;" d="M46.391,436.297v-23.839h4.816v9.365h9.404v-9.365h4.819v23.839h-4.816v-10.468H51.21v10.468H46.391
		z"/>
	<path style="fill:#FFFFFF;" d="M70.392,436.297v-23.839h7.693c2.927,0,4.839,0.106,5.738,0.386
		c1.344,0.373,2.497,1.097,3.429,2.345c0.892,1.159,1.358,2.692,1.358,4.601c0,1.453-0.264,2.732-0.783,3.719
		c-0.525,0.988-1.209,1.731-2.015,2.283c-0.842,0.637-1.658,0.951-2.484,1.186c-1.159,0.188-2.831,0.284-5.008,0.284h-3.138v9.031
		h-4.79V436.297z M75.178,416.477v6.765h2.639c1.903,0,3.164-0.099,3.815-0.383c0.621-0.211,1.116-0.621,1.5-1.143
		c0.344-0.522,0.538-1.126,0.538-1.866c0-0.889-0.258-1.572-0.763-2.114c-0.502-0.562-1.159-0.928-1.936-1.05
		c-0.558-0.162-1.724-0.208-3.452-0.208H75.178z"/>
</g>
<g>
</g>
<g>
</g>
<g>
</g>
<g>
</g>
<g>
</g>
<g>
</g>
<g>
</g>
<g>
</g>
<g>
</g>
<g>
</g>
<g>
</g>
<g>
</g>
<g>
</g>
<g>
</g>
<g>
</g>
</svg>
