<?xml version="1.0" encoding="iso-8859-1"?>
<!-- Generator: Adobe Illustrator 19.0.0, SVG Export Plug-In . SVG Version: 6.00 Build 0)  -->
<svg version="1.1" id="Layer_1" xmlns="http://www.w3.org/2000/svg" xmlns:xlink="http://www.w3.org/1999/xlink" x="0px" y="0px"
	 viewBox="0 0 512 512" style="enable-background:new 0 0 512 512;" xml:space="preserve">
<circle style="fill:#F2F2F2;" cx="256" cy="256" r="256"/>
<rect x="101.174" y="66.818" style="fill:#F77B55;" width="309.644" height="367.484"/>
<g>
	<rect x="134.679" y="98.056" style="fill:#FFFFFF;" width="17.818" height="6.735"/>
	<rect x="157.108" y="98.056" style="fill:#FFFFFF;" width="64.416" height="6.735"/>
	<rect x="152.51" y="151.149" style="fill:#FFFFFF;" width="28.391" height="6.732"/>
	<rect x="134.679" y="256.033" style="fill:#FFFFFF;" width="46.206" height="6.748"/>
	<rect x="152.51" y="168.861" style="fill:#FFFFFF;" width="11.693" height="6.735"/>
	<rect x="187.57" y="151.149" style="fill:#FFFFFF;" width="74.128" height="6.732"/>
	<rect x="182.834" y="204.255" style="fill:#FFFFFF;" width="71.878" height="6.742"/>
	<rect x="167.569" y="396.321" style="fill:#FFFFFF;" width="25.801" height="6.729"/>
	<rect x="263.432" y="273.738" style="fill:#FFFFFF;" width="26.591" height="6.748"/>
	<rect x="188.35" y="360.91" style="fill:#FFFFFF;" width="50.117" height="6.758"/>
	<rect x="204.582" y="396.321" style="fill:#FFFFFF;" width="58.844" height="6.729"/>
	<rect x="310.404" y="309.116" style="fill:#FFFFFF;" width="21.395" height="6.748"/>
	<rect x="267.726" y="204.255" style="fill:#FFFFFF;" width="53.347" height="6.742"/>
	<rect x="270.105" y="151.149" style="fill:#FFFFFF;" width="53.347" height="6.732"/>
	<rect x="334.319" y="151.149" style="fill:#FFFFFF;" width="32.652" height="6.732"/>
	<rect x="152.51" y="115.745" style="fill:#FFFFFF;" width="42.351" height="6.739"/>
	<rect x="152.51" y="133.45" style="fill:#FFFFFF;" width="60.053" height="6.748"/>
	<rect x="168.531" y="168.861" style="fill:#FFFFFF;" width="68.819" height="6.735"/>
	<rect x="152.51" y="291.444" style="fill:#FFFFFF;" width="68.793" height="6.715"/>
	<rect x="152.51" y="309.116" style="fill:#FFFFFF;" width="75.578" height="6.748"/>
	<rect x="216.857" y="378.616" style="fill:#FFFFFF;" width="133.748" height="6.755"/>
	<rect x="281.336" y="396.321" style="fill:#FFFFFF;" width="29.29" height="6.729"/>
	<rect x="236.181" y="309.116" style="fill:#FFFFFF;" width="65.553" height="6.748"/>
	<rect x="257.5" y="360.91" style="fill:#FFFFFF;" width="65.533" height="6.758"/>
	<rect x="168.531" y="186.566" style="fill:#FFFFFF;" width="22.373" height="6.732"/>
	<rect x="168.531" y="221.944" style="fill:#FFFFFF;" width="24.335" height="6.739"/>
	<rect x="152.51" y="273.738" style="fill:#FFFFFF;" width="102.208" height="6.748"/>
	<rect x="134.679" y="360.91" style="fill:#FFFFFF;" width="45.812" height="6.758"/>
	<rect x="152.51" y="378.616" style="fill:#FFFFFF;" width="52.201" height="6.762"/>
	<rect x="197.929" y="186.566" style="fill:#FFFFFF;" width="134.339" height="6.732"/>
	<rect x="166.78" y="326.788" style="fill:#FFFFFF;" width="42.975" height="6.791"/>
	<rect x="224.481" y="326.788" style="fill:#FFFFFF;" width="118.764" height="6.791"/>
	<rect x="251.508" y="168.861" style="fill:#FFFFFF;" width="45.261" height="6.735"/>
	<rect x="218.938" y="133.45" style="fill:#FFFFFF;" width="60.02" height="6.748"/>
	<rect x="283.086" y="133.45" style="fill:#FFFFFF;" width="49.337" height="6.748"/>
	<rect x="350.604" y="133.45" style="fill:#FFFFFF;" width="26.736" height="6.748"/>
	<rect x="208.665" y="115.745" style="fill:#FFFFFF;" width="65.017" height="6.739"/>
</g>
<g>
	<rect x="101.174" y="31.919" style="fill:#353F49;" width="309.644" height="34.895"/>
	<path style="fill:#353F49;" d="M351.543,473.474c-11.224,0-20.421-9.173-20.421-20.404V200.939
		c0-11.218,9.193-20.437,20.421-20.437h118.573c11.251,0,20.414,9.216,20.414,20.437V453.07c0,11.228-9.16,20.404-20.414,20.404
		H351.543z"/>
</g>
<g>
	<path style="fill:#474F59;" d="M428.518,452.37c0,2.695-2.18,4.882-4.866,4.882h-25.62c-2.672,0-4.879-2.183-4.879-4.882v-2.045
		c0-2.679,2.207-4.895,4.879-4.895h25.62c2.686,0,4.866,2.22,4.866,4.895V452.37z"/>
	<path style="fill:#474F59;" d="M432.201,203.082c0,1.103-0.879,1.982-1.982,1.982h-38.747c-1.116,0-1.998-0.879-1.998-1.982v-0.836
		c0-1.083,0.885-1.989,1.998-1.989h38.747c1.103,0,1.982,0.902,1.982,1.989V203.082z"/>
</g>
<rect x="342.71" y="224.818" style="fill:#FFFFFF;" width="136.291" height="204.407"/>
<rect x="371.117" y="253.258" style="fill:#D9D8D7;" width="79.443" height="79.443"/>
<g>
	<path style="fill:#FFFFFF;" d="M426.02,283.532c0,9.887-6.815,17.887-15.182,17.887c-8.387,0-15.182-8-15.182-17.887
		c0-9.883,6.795-17.897,15.182-17.897C419.206,265.635,426.02,273.649,426.02,283.532z"/>
	<path style="fill:#FFFFFF;" d="M418.922,305.614c-2.491,1.173-5.226,1.83-8.083,1.83c-2.851,0-5.612-0.654-8.109-1.83
		c-10.947,1.932-19.116,7.693-20.057,14.637h56.31C438.07,313.308,429.879,307.544,418.922,305.614z"/>
</g>
<rect x="371.117" y="351.199" style="fill:#D9D8D7;" width="60.898" height="18.541"/>
<g>
	<rect x="431.996" y="351.199" style="fill:#353F49;" width="18.541" height="18.541"/>
	<rect x="431.996" y="383.075" style="fill:#353F49;" width="18.541" height="18.538"/>
</g>
<rect x="371.117" y="383.075" style="fill:#D9D8D7;" width="60.898" height="18.524"/>
<g>
	<polygon style="fill:#474F59;" points="107.252,314.018 95.146,314.018 91.618,331.621 110.784,331.621 	"/>
	<polygon style="fill:#474F59;" points="66.57,321.681 56.092,327.736 61.833,344.735 78.422,335.165 	"/>
	<polygon style="fill:#474F59;" points="35.183,348.646 29.118,359.123 42.615,370.982 52.207,354.4 	"/>
	<polygon style="fill:#474F59;" points="21.471,387.703 21.471,399.803 39.08,403.337 39.08,384.175 	"/>
	<polygon style="fill:#474F59;" points="29.118,428.385 35.183,438.857 52.207,433.109 42.615,416.51 	"/>
	<polygon style="fill:#474F59;" points="56.092,459.766 66.57,465.818 78.422,452.334 61.833,442.768 	"/>
	<polygon style="fill:#474F59;" points="95.163,473.474 107.252,473.474 110.784,455.898 91.635,455.898 	"/>
	<polygon style="fill:#474F59;" points="135.825,465.818 146.31,459.766 140.556,442.768 123.967,452.334 	"/>
	<polygon style="fill:#474F59;" points="167.236,438.857 173.267,428.385 159.79,416.51 150.201,433.109 	"/>
	<polygon style="fill:#474F59;" points="180.921,399.803 180.921,387.703 163.348,384.175 163.348,403.337 	"/>
	<polygon style="fill:#474F59;" points="173.267,359.123 167.236,348.646 150.201,354.4 159.79,370.969 	"/>
	<polygon style="fill:#474F59;" points="146.31,327.736 135.825,321.691 123.967,335.165 140.556,344.735 	"/>
</g>
<path style="fill:#353F49;" d="M101.221,330.904c-34.753,0-62.884,28.137-62.884,62.847c0,34.707,28.13,62.837,62.884,62.837
	c34.707,0,62.837-28.134,62.837-62.837C164.061,359.038,135.928,330.904,101.221,330.904z M101.221,411.149
	c-9.626,0-17.415-7.796-17.415-17.398s7.789-17.405,17.415-17.405c9.566,0,17.375,7.799,17.375,17.405
	C118.596,403.35,110.79,411.149,101.221,411.149z"/>
<path style="fill:#FFFFFF;" d="M101.221,363.576c-16.698,0-30.188,13.484-30.188,30.175c0,16.678,13.49,30.158,30.188,30.158
	c16.648,0,30.142-13.48,30.142-30.158C131.363,377.06,117.869,363.576,101.221,363.576z M101.221,408.844
	c-8.334,0-15.099-6.752-15.099-15.089c0-8.327,6.765-15.069,15.099-15.069c8.291,0,15.059,6.742,15.059,15.069
	C116.28,402.092,109.512,408.844,101.221,408.844z"/>
<g>
</g>
<g>
</g>
<g>
</g>
<g>
</g>
<g>
</g>
<g>
</g>
<g>
</g>
<g>
</g>
<g>
</g>
<g>
</g>
<g>
</g>
<g>
</g>
<g>
</g>
<g>
</g>
<g>
</g>
</svg>
