<?xml version="1.0" encoding="iso-8859-1"?>
<!-- Generator: Adobe Illustrator 19.0.0, SVG Export Plug-In . SVG Version: 6.00 Build 0)  -->
<svg version="1.1" id="Layer_1" xmlns="http://www.w3.org/2000/svg" xmlns:xlink="http://www.w3.org/1999/xlink" x="0px" y="0px"
	 viewBox="0 0 512 512" style="enable-background:new 0 0 512 512;" xml:space="preserve">
<polygon style="fill:#D9D8D7;" points="321.512,502.205 190.432,502.205 202.351,435.364 309.595,435.364 "/>
<polygon style="fill:#CCCBCA;" points="321.512,502.205 309.595,435.364 202.351,435.364 288.111,502.205 "/>
<g>
	<path style="fill:#E6E5E5;" d="M356.614,512h-201.27v-3.658c0-1.569,0.591-3.136,1.802-4.342c1.198-1.208,2.762-1.795,4.342-1.795
		h188.964c1.603,0,3.151,0.586,4.355,1.795c1.208,1.208,1.805,2.772,1.805,4.342V512H356.614z"/>
	<path style="fill:#E6E5E5;" d="M492.008,392.151v31.739c0,6.323-5.189,11.474-11.497,11.474H31.471
		c-6.29,0-11.479-5.153-11.479-11.474v-31.739H492.008z"/>
</g>
<path style="fill:#353F49;" d="M492.008,392.151V90.785c0-6.303-5.189-11.489-11.497-11.489H31.466
	c-6.287,0-11.464,5.187-11.464,11.489v301.366H492.008z"/>
<rect x="43.828" y="103.142" style="fill:#FFFFFF;" width="424.294" height="265.165"/>
<g>
	<polygon style="fill:#D9D8D7;" points="67.45,79.296 91.076,368.32 345.688,368.32 369.289,79.296 	"/>
	<polygon style="fill:#D9D8D7;" points="367.336,103.142 345.678,368.333 91.086,368.333 69.403,103.142 	"/>
</g>
<polygon style="fill:#2D353E;" points="369.281,79.283 367.336,103.142 69.403,103.142 67.457,79.283 "/>
<rect x="91.076" y="24.197" style="fill:#F2F2F2;" width="254.618" height="344.115"/>
<rect x="91.076" style="fill:#353F49;" width="254.618" height="24.197"/>
<rect x="91.076" y="103.142" style="fill:#FFDB79;" width="254.618" height="130.547"/>
<g>
	<polygon style="fill:#FFFFFF;" points="125.139,168.425 140.054,183.329 140.054,153.495 	"/>
	<polygon style="fill:#FFFFFF;" points="311.628,168.425 296.69,183.329 296.69,153.495 	"/>
	<rect x="165.019" y="115.067" style="fill:#FFFFFF;" width="106.716" height="106.708"/>
</g>
<g>
	<polygon style="fill:#474F59;" points="221.024,133.522 215.735,133.522 214.176,141.23 222.568,141.23 	"/>
	<polygon style="fill:#474F59;" points="203.224,136.883 198.644,139.515 201.151,146.964 208.411,142.774 	"/>
	<polygon style="fill:#474F59;" points="189.498,148.687 186.833,153.27 192.739,158.446 196.929,151.204 	"/>
	<polygon style="fill:#474F59;" points="183.489,165.77 183.489,171.067 191.187,172.613 191.187,164.219 	"/>
	<polygon style="fill:#474F59;" points="186.833,183.555 189.498,188.134 196.929,185.623 192.739,178.383 	"/>
	<polygon style="fill:#474F59;" points="198.644,197.307 203.224,199.949 208.411,194.056 201.158,189.857 	"/>
	<polygon style="fill:#474F59;" points="215.738,203.308 221.024,203.308 222.568,195.599 214.176,195.599 	"/>
	<polygon style="fill:#474F59;" points="233.535,199.949 238.122,197.307 235.603,189.857 228.333,194.056 	"/>
	<polygon style="fill:#474F59;" points="247.264,188.134 249.896,183.555 244.008,178.383 239.804,185.623 	"/>
	<polygon style="fill:#474F59;" points="253.265,171.067 253.265,165.77 245.556,164.219 245.556,172.613 	"/>
	<polygon style="fill:#474F59;" points="249.896,153.27 247.264,148.687 239.804,151.204 244.008,158.438 	"/>
	<polygon style="fill:#474F59;" points="238.122,139.515 233.535,136.888 228.333,142.774 235.603,146.964 	"/>
</g>
<path style="fill:#353F49;" d="M218.367,140.908c-15.191,0-27.484,12.324-27.484,27.507s12.296,27.505,27.484,27.505
	s27.515-12.321,27.515-27.505C245.882,153.231,233.555,140.908,218.367,140.908z M218.367,176.028c-4.191,0-7.616-3.405-7.616-7.613
	s3.425-7.621,7.616-7.621c4.206,0,7.621,3.412,7.621,7.621C225.988,172.623,222.57,176.028,218.367,176.028z"/>
<path style="fill:#F77B55;" d="M218.367,155.205c-7.286,0-13.181,5.921-13.181,13.212c0,7.286,5.898,13.204,13.181,13.204
	c7.314,0,13.212-5.919,13.212-13.204C231.579,161.126,225.681,155.205,218.367,155.205z M218.367,175.007
	c-3.635,0-6.592-2.957-6.592-6.592c0-3.643,2.957-6.592,6.592-6.592c3.643,0,6.612,2.949,6.612,6.592
	C224.979,172.052,222.01,175.007,218.367,175.007z"/>
<g>
	<rect x="140.397" y="75.771" style="fill:#CCCBCA;" width="155.965" height="8.061"/>
	<rect x="125.139" y="59.635" style="fill:#CCCBCA;" width="186.488" height="8.067"/>
</g>
<rect x="169.115" y="43.505" style="fill:#F77B55;" width="98.519" height="8.064"/>
<g>
	<rect x="125.139" y="305.024" style="fill:#CCCBCA;" width="186.488" height="8.064"/>
	<rect x="125.139" y="288.87" style="fill:#CCCBCA;" width="186.488" height="8.064"/>
	<rect x="125.139" y="272.742" style="fill:#CCCBCA;" width="186.488" height="8.067"/>
</g>
<rect x="125.139" y="256.614" style="fill:#474F59;" width="186.488" height="8.069"/>
<g>
	<rect x="125.139" y="321.152" style="fill:#CCCBCA;" width="186.488" height="8.074"/>
	<rect x="125.139" y="337.28" style="fill:#CCCBCA;" width="93.228" height="8.069"/>
</g>
<polygon style="fill:#F2F2F2;" points="420.904,79.296 406.898,33.329 392.918,79.296 "/>
<polygon style="fill:#CCCBCA;" points="406.898,33.329 420.904,79.296 412.105,79.296 "/>
<rect x="392.91" y="79.296" style="fill:#FFDB79;" width="27.986" height="289.024"/>
<rect x="412.11" y="79.296" style="fill:#FAB83E;" width="8.801" height="289.024"/>
<polygon style="fill:#474F59;" points="412.384,51.313 406.898,33.329 401.399,51.313 "/>
<polygon style="fill:#353F49;" points="412.384,51.313 406.898,33.329 408.923,51.313 "/>
<g>
</g>
<g>
</g>
<g>
</g>
<g>
</g>
<g>
</g>
<g>
</g>
<g>
</g>
<g>
</g>
<g>
</g>
<g>
</g>
<g>
</g>
<g>
</g>
<g>
</g>
<g>
</g>
<g>
</g>
</svg>
