<?xml version="1.0" encoding="iso-8859-1"?>
<!-- Generator: Adobe Illustrator 19.0.0, SVG Export Plug-In . SVG Version: 6.00 Build 0)  -->
<svg version="1.1" id="Layer_1" xmlns="http://www.w3.org/2000/svg" xmlns:xlink="http://www.w3.org/1999/xlink" x="0px" y="0px"
	 viewBox="0 0 512 512" style="enable-background:new 0 0 512 512;" xml:space="preserve">
<circle style="fill:#FFDB79;" cx="256" cy="256" r="256"/>
<path style="fill:#FFFFFF;" d="M194.401,504.522C214.134,509.396,234.761,512,256,512c9.213,0,18.309-0.498,27.271-1.447h-29.173
	v-10.521h79.445c13.334-4.233,26.197-9.521,38.485-15.779h-117.93v-10.518h136.579c7.842-4.86,15.405-10.126,22.652-15.779H254.097
	v-10.517h171.846c5.651-5.021,11.083-10.283,16.269-15.78H254.097v-10.517h197.501c4.305-5.095,8.419-10.356,12.322-15.78H254.097
	v-10.517h217.005c3.322-5.136,6.463-10.399,9.419-15.78H254.097v-10.517H485.98c2.532-5.164,4.891-10.427,7.078-15.779h-238.96
	v-10.517h242.991c1.855-5.186,3.559-10.445,5.083-15.78H254.097V315.95h250.824c1.247-5.199,2.342-10.456,3.266-15.773h-254.09
	v-10.524h255.696c0.684-5.21,1.206-10.47,1.572-15.773H254.097v-10.524h257.787c0.069-2.444,0.112-4.895,0.112-7.356
	c0-2.818-0.062-5.621-0.152-8.417H254.097v-10.511h257.202c-0.388-5.309-0.947-10.569-1.653-15.783H254.097v-10.498h253.919
	c-0.947-5.316-2.076-10.569-3.346-15.766H254.097v-10.517h247.77c-1.545-5.324-3.254-10.578-5.129-15.753H254.097v-10.517h238.554
	c-2.21-5.345-4.598-10.597-7.152-15.753H254.097v-10.524h225.879c-10.544-19-23.425-36.522-38.271-52.165H194.401V504.522z"/>
<path style="fill:#353F49;" d="M194.401,79.796h247.303c-17.481-18.418-37.676-34.228-59.94-46.81H194.401V79.796z"/>
<g>
	<path style="fill:#CCCBCA;" d="M254.097,168.755h242.641c-1.285-3.544-2.652-7.048-4.087-10.517H254.097V168.755z"/>
	<path style="fill:#CCCBCA;" d="M254.097,142.485h231.402c-1.762-3.556-3.603-7.064-5.523-10.524H254.097V142.485z"/>
	<path style="fill:#CCCBCA;" d="M254.097,195.026h250.574c-0.864-3.535-1.795-7.042-2.804-10.517h-247.77L254.097,195.026
		L254.097,195.026z"/>
	<path style="fill:#CCCBCA;" d="M254.097,221.29h255.548c-0.477-3.521-1.01-7.024-1.629-10.498H254.097V221.29z"/>
	<path style="fill:#CCCBCA;" d="M254.097,247.583h257.747c-0.114-3.521-0.291-7.027-0.545-10.511H254.097V247.583z"/>
	<path style="fill:#CCCBCA;" d="M254.097,273.88h257.268c0.241-3.49,0.42-6.997,0.519-10.524H254.097V273.88z"/>
	<path style="fill:#CCCBCA;" d="M254.097,300.177h254.09c0.606-3.484,1.142-6.993,1.606-10.524H254.097V300.177z"/>
	<path style="fill:#CCCBCA;" d="M254.097,326.471h248.074c0.993-3.476,1.902-6.986,2.75-10.521H254.097V326.471z"/>
	<path style="fill:#CCCBCA;" d="M254.097,352.768h238.96c1.417-3.469,2.763-6.974,4.031-10.517H254.097V352.768z"/>
	<path style="fill:#CCCBCA;" d="M254.097,379.065h226.424c1.899-3.458,3.717-6.965,5.459-10.517H254.097V379.065z"/>
	<path style="fill:#CCCBCA;" d="M254.097,405.362H463.92c2.478-3.443,4.874-6.949,7.182-10.517H254.097V405.362z"/>
	<path style="fill:#CCCBCA;" d="M254.097,431.659h188.115c3.225-3.417,6.351-6.927,9.386-10.517H254.097V431.659z"/>
	<path style="fill:#CCCBCA;" d="M254.097,457.956h159.231c4.32-3.37,8.523-6.882,12.615-10.517H254.097V457.956z"/>
	<path style="fill:#CCCBCA;" d="M254.097,484.253h117.93c6.377-3.248,12.594-6.764,18.649-10.518H254.097V484.253z"/>
	<path style="fill:#CCCBCA;" d="M254.097,510.553h29.173c17.333-1.835,34.147-5.402,50.271-10.521h-79.445v10.521H254.097z"/>
</g>
<path style="fill:#474F59;" d="M182.394,381.21v26.507h24.031v-26.509c-3.958,0.378-7.967,0.578-12.024,0.578
	C190.35,381.787,186.346,381.587,182.394,381.21z"/>
<path style="fill:#353F49;" d="M194.401,131.961c-68.994,0-124.905,55.92-124.905,124.902c0,64.956,49.54,118.306,112.898,124.348
	c3.952,0.377,7.956,0.577,12.007,0.577c4.057,0,8.066-0.2,12.024-0.578c63.341-6.05,112.894-59.394,112.894-124.346
	C319.32,187.881,263.383,131.961,194.401,131.961z M194.398,356.788c-55.18,0-99.929-44.719-99.929-99.926
	c0-55.203,44.749-99.913,99.929-99.913c55.204,0,99.969,44.709,99.969,99.913C294.367,312.069,249.598,356.788,194.398,356.788z"/>
<g>
	<path style="fill:#FFFFFF;" d="M194.398,156.949c-55.18,0-99.929,44.709-99.929,99.913c0,55.207,44.749,99.926,99.929,99.926
		c55.2,0,99.969-44.719,99.969-99.926C294.367,201.659,249.602,156.949,194.398,156.949z M259.402,261.8l-14.322,2.875
		c-0.571,3.735-1.559,7.33-2.891,10.753l10.98,9.667l-4.922,8.539l-13.882-4.682c-2.344,2.912-5,5.56-7.918,7.898l0.055-0.032
		l4.687,13.86l-8.549,4.935l-9.659-10.99l0.037-0.021c-3.469,1.351-7.116,2.346-10.904,2.915h0.118l-2.877,14.336h-9.854
		l-2.884-14.336h0.126c-3.808-0.572-7.472-1.573-10.956-2.933l0.068,0.039l-9.662,10.99l-8.542-4.935l4.671-13.86l0.144,0.083
		c-2.944-2.351-5.622-5.016-7.983-7.951l-13.887,4.683l-4.935-8.539l10.999-9.672c-1.33-3.421-2.317-7.015-2.887-10.747
		l-14.342-2.876v-9.863l14.343-2.876c0.571-3.736,1.559-7.333,2.891-10.758v0.001l-11.003-9.665l4.935-8.539l13.884,4.688
		c2.367-2.942,5.053-5.615,8.005-7.97l-0.164,0.094l-4.671-13.86l8.542-4.935l9.662,10.996l-0.051,0.029
		c3.456-1.348,7.087-2.344,10.861-2.916h-0.058l2.874-14.349h9.873l2.877,14.349h-0.039c3.753,0.57,7.366,1.559,10.805,2.897
		l-0.017-0.01l9.659-10.99l8.549,4.928l-4.687,13.86l-0.069-0.04c2.925,2.342,5.586,4.996,7.935,7.915l13.879-4.688l4.922,8.539
		l-10.987,9.653c1.335,3.428,2.325,7.029,2.897,10.77l14.323,2.875v9.866H259.402z"/>
	<path style="fill:#FFFFFF;" d="M194.434,244.577c-6.795,0-12.314,5.503-12.314,12.291c0,6.788,5.52,12.301,12.314,12.301
		c6.758,0,12.281-5.513,12.281-12.301C206.716,250.081,201.193,244.577,194.434,244.577z"/>
</g>
<g>
	<path style="fill:#474F59;" d="M202.194,206.227h0.039l-2.877-14.349h-9.873l-2.874,14.349h0.058
		c2.533-0.384,5.126-0.585,7.767-0.585C197.072,205.642,199.663,205.843,202.194,206.227z"/>
	<path style="fill:#474F59;" d="M175.857,209.114l-9.662-10.996l-8.542,4.935l4.671,13.86l0.164-0.094
		c3.995-3.188,8.477-5.787,13.319-7.675L175.857,209.114z"/>
	<path style="fill:#474F59;" d="M140.599,220.101l-4.935,8.539l11.003,9.665v-0.001c1.914-4.92,4.561-9.469,7.815-13.515
		L140.599,220.101z"/>
	<path style="fill:#474F59;" d="M143.776,249.061l-14.343,2.876v9.863l14.342,2.876c-0.389-2.545-0.591-5.151-0.591-7.804
		C143.185,254.216,143.387,251.608,143.776,249.061z"/>
	<path style="fill:#474F59;" d="M135.663,285.095l4.935,8.539l13.887-4.683c-3.258-4.049-5.908-8.603-7.823-13.528L135.663,285.095z
		"/>
	<path style="fill:#474F59;" d="M162.324,296.818l-4.671,13.86l8.542,4.935l9.662-10.99l-0.068-0.039
		c-4.844-1.891-9.326-4.493-13.321-7.683L162.324,296.818z"/>
	<path style="fill:#474F59;" d="M186.745,307.517h-0.126l2.884,14.336h9.854l2.877-14.336h-0.118
		c-2.506,0.377-5.07,0.575-7.681,0.575C191.82,308.092,189.253,307.894,186.745,307.517z"/>
	<path style="fill:#474F59;" d="M212.982,304.623l9.659,10.99l8.549-4.935l-4.687-13.86l-0.055,0.032
		c-4.024,3.224-8.544,5.85-13.428,7.752L212.982,304.623z"/>
	<path style="fill:#474F59;" d="M248.247,293.634l4.922-8.539l-10.98-9.667c-1.916,4.923-4.566,9.475-7.824,13.523L248.247,293.634z
		"/>
	<path style="fill:#474F59;" d="M245.671,256.872c0,2.653-0.202,5.259-0.591,7.803l14.322-2.875v-9.863l-14.323-2.875
		C245.469,251.608,245.671,254.216,245.671,256.872z"/>
	<path style="fill:#474F59;" d="M253.169,228.639l-4.922-8.539l-13.879,4.688c3.253,4.042,5.899,8.588,7.814,13.504L253.169,228.639
		z"/>
	<path style="fill:#474F59;" d="M226.502,216.913l4.687-13.86l-8.549-4.928l-9.659,10.99l0.017,0.01
		c4.887,1.901,9.409,4.526,13.435,7.75L226.502,216.913z"/>
</g>
<path style="fill:#353F49;" d="M245.079,249.062c-0.572-3.741-1.562-7.342-2.897-10.77c-1.914-4.915-4.561-9.461-7.814-13.504
	c-2.349-2.919-5.01-5.573-7.935-7.915c-4.026-3.224-8.548-5.849-13.435-7.75c-3.439-1.338-7.052-2.327-10.805-2.897
	c-2.531-0.384-5.122-0.585-7.76-0.585c-2.641,0-5.234,0.2-7.767,0.585c-3.774,0.573-7.406,1.569-10.861,2.916
	c-4.842,1.888-9.324,4.488-13.319,7.675c-2.952,2.356-5.638,5.028-8.005,7.97c-3.254,4.045-5.902,8.595-7.815,13.515
	c-1.332,3.424-2.32,7.021-2.891,10.758c-0.389,2.547-0.591,5.155-0.591,7.811c0,2.653,0.202,5.259,0.591,7.804
	c0.57,3.732,1.557,7.326,2.887,10.747c1.915,4.924,4.565,9.479,7.823,13.528c2.361,2.934,5.039,5.6,7.983,7.951
	c3.995,3.191,8.478,5.793,13.321,7.683c3.484,1.36,7.148,2.361,10.956,2.933c2.508,0.377,5.075,0.575,7.689,0.575
	c2.611,0,5.175-0.198,7.681-0.575c3.788-0.569,7.435-1.564,10.904-2.915c4.885-1.902,9.404-4.528,13.428-7.752
	c2.918-2.338,5.573-4.986,7.918-7.898c3.258-4.048,5.909-8.6,7.824-13.523c1.332-3.423,2.32-7.018,2.891-10.753
	c0.389-2.544,0.591-5.15,0.591-7.803C245.671,254.216,245.469,251.608,245.079,249.062z M194.434,281.448
	c-13.603,0-24.602-10.99-24.602-24.579c0-13.599,11-24.599,24.602-24.599c13.576,0,24.579,11,24.576,24.599
	C219.01,270.458,208.007,281.448,194.434,281.448z"/>
<path style="fill:#F77B55;" d="M194.434,232.27c-13.603,0-24.602,11-24.602,24.599c0,13.589,11,24.579,24.602,24.579
	c13.573,0,24.576-10.99,24.576-24.579C219.014,243.269,208.011,232.27,194.434,232.27z M194.434,269.17
	c-6.795,0-12.314-5.513-12.314-12.301s5.52-12.291,12.314-12.291c6.758,0,12.281,5.503,12.281,12.291
	C206.716,263.657,201.193,269.17,194.434,269.17z"/>
<path style="fill:#474F59;" d="M170.767,497.45c15.149,5.347,30.948,9.317,47.253,11.741v-76.472h-47.253V497.45z"/>
<polygon style="fill:#353F49;" points="166.8,407.717 166.8,432.719 170.767,432.719 218.02,432.719 221.973,432.719 
	221.973,407.717 206.425,407.717 182.394,407.717 "/>
<rect x="112.99" y="394.84" style="fill:#F77B55;" width="335.89" height="63.11"/>
<rect x="128.75" y="410.6" style="fill:#FFFFFF;" width="250.75" height="31.599"/>
<rect x="448.89" y="394.84" style="fill:#353F49;" width="63.11" height="63.11"/>
<g>
</g>
<g>
</g>
<g>
</g>
<g>
</g>
<g>
</g>
<g>
</g>
<g>
</g>
<g>
</g>
<g>
</g>
<g>
</g>
<g>
</g>
<g>
</g>
<g>
</g>
<g>
</g>
<g>
</g>
</svg>
