<?xml version="1.0" encoding="iso-8859-1"?>
<!-- Generator: Adobe Illustrator 19.0.0, SVG Export Plug-In . SVG Version: 6.00 Build 0)  -->
<svg xmlns="http://www.w3.org/2000/svg" xmlns:xlink="http://www.w3.org/1999/xlink" version="1.1" id="Layer_1" x="0px" y="0px" viewBox="0 0 512 512" style="enable-background:new 0 0 512 512;" xml:space="preserve" width="512px" height="512px">
<g>
	<g>
		<path d="M437.02,74.98C388.668,26.629,324.38,0,256,0S123.332,26.629,74.98,74.98C26.628,123.331,0,187.62,0,256    s26.629,132.668,74.98,181.02C123.331,485.372,187.62,512,256,512s132.668-26.629,181.02-74.98    C485.372,388.669,512,324.38,512,256S485.371,123.332,437.02,74.98z M426.413,85.587c27.868,27.868,48.054,61.364,59.531,97.92    c-12.529-16.338-29.388-31.365-50.233-44.489c-12.811-8.066-26.744-15.157-41.559-21.235c-0.035-0.097-0.063-0.195-0.103-0.291    c-16.455-40.037-39.241-71.29-65.651-91.466C364.991,37.498,398.521,57.695,426.413,85.587z M85.587,85.587    c27.882-27.882,61.4-48.075,97.978-59.55c-15.773,12.082-30.329,28.192-43.12,48.012c-2.246,3.479-1.245,8.122,2.235,10.368    c3.478,2.244,8.122,1.247,10.368-2.235C181.007,38.859,217.569,15,256,15c46.715,0,90.371,35.434,118.602,95.52    C338.445,98.446,297.983,92.037,256,92.037c-67.772,0-131.596,16.685-179.712,46.98c-20.845,13.124-37.704,28.152-50.233,44.489    C37.533,146.951,57.719,113.455,85.587,85.587z M84.28,151.711c8.299-5.226,17.106-10.019,26.34-14.375    C98.449,173.777,92.037,214.408,92.037,256c0,41.983,6.409,82.446,18.484,118.603C50.401,346.381,15,302.811,15,256    C15,216.877,39.604,179.84,84.28,151.711z M85.587,426.413C57.724,398.55,37.54,365.059,26.061,328.51    c20.219,26.432,51.56,49.202,91.727,65.657c6.077,14.81,13.166,28.739,21.229,41.545c13.124,20.845,28.152,37.704,44.489,50.233    C146.951,474.467,113.455,454.281,85.587,426.413z M151.711,427.72c-28.809-45.754-44.674-106.738-44.674-171.72    c0-44.944,7.745-88.649,22.381-126.689c37.684-14.51,81.152-22.274,126.582-22.274c64.981,0,125.966,15.865,171.72,44.674    C472.396,179.84,497,216.877,497,256s-24.604,76.16-69.28,104.289c-8.271,5.208-17.046,9.986-26.246,14.33    c12.078-36.161,18.489-76.63,18.489-118.619c0-9.388-0.327-18.854-0.974-28.134c-0.287-4.132-3.872-7.249-8.002-6.961    c-4.132,0.287-7.249,3.87-6.961,8.002c0.621,8.936,0.937,18.051,0.937,27.093c0,45.461-7.775,88.957-22.304,126.659    c-37.702,14.53-81.198,22.304-126.659,22.304c-29.315,0-57.965-3.239-85.152-9.627c-4.032-0.95-8.069,1.553-9.017,5.585    c-0.948,4.032,1.553,8.069,5.585,9.017c28.312,6.652,58.115,10.025,88.584,10.025c41.989,0,82.458-6.411,118.619-18.489    c-4.344,9.2-9.123,17.975-14.33,26.246C332.16,472.396,295.123,497,256,497S179.84,472.396,151.711,427.72z M426.413,426.413    c-27.868,27.868-61.364,48.054-97.92,59.531c16.338-12.529,31.365-29.388,44.489-50.233c8.058-12.797,15.142-26.715,21.216-41.513    c14.798-6.074,28.716-13.158,41.513-21.216c20.845-13.124,37.704-28.152,50.233-44.489    C474.467,365.049,454.281,398.545,426.413,426.413z" fill="#FFFFFF"/>
	</g>
</g>
<g>
	<g>
		<path d="M329.63,202.481c-19.36,0-35.111,15.751-35.111,35.111v36.814c0,19.36,15.751,35.111,35.111,35.111    s35.111-15.751,35.111-35.111v-36.814C364.741,218.232,348.99,202.481,329.63,202.481z M349.741,274.407    c0,11.09-9.021,20.111-20.111,20.111c-11.09,0-20.111-9.021-20.111-20.111v-36.814c0-11.09,9.021-20.111,20.111-20.111    c11.09,0,20.111,9.021,20.111,20.111V274.407z" fill="#FFFFFF"/>
	</g>
</g>
<g>
	<g>
		<path d="M246.796,239.296c-7.464,0-14.386,2.348-20.081,6.335c0.615-15.625,13.512-28.149,29.285-28.149    c4.143,0,7.5-3.357,7.5-7.5s-3.357-7.5-7.5-7.5c-24.436,0-44.314,19.879-44.314,44.314v27.611c0,19.36,15.75,35.111,35.11,35.111    s35.111-15.751,35.111-35.111S266.156,239.296,246.796,239.296z M246.796,294.519c-11.089,0-20.11-9.021-20.11-20.111    c0-11.09,9.021-20.111,20.11-20.111c11.09,0,20.111,9.021,20.111,20.111C266.907,285.498,257.886,294.519,246.796,294.519z" fill="#FFFFFF"/>
	</g>
</g>
<g>
	<g>
		<path d="M187.706,256c6.962-5.598,11.368-13.837,11.368-23.01c0-16.822-14.825-30.509-33.047-30.509    c-10.341,0-19.889,4.336-26.196,11.896c-2.653,3.181-2.227,7.91,0.954,10.563c3.18,2.655,7.909,2.226,10.563-0.954    c3.398-4.074,8.886-6.506,14.679-6.506c9.951,0,18.047,6.958,18.047,15.51s-8.096,15.509-18.047,15.509    c-4.143,0-7.5,3.357-7.5,7.5s3.357,7.5,7.5,7.5c9.951,0,18.047,6.958,18.047,15.51s-8.096,15.509-18.047,15.509    c-5.809,0-11.305-2.442-14.701-6.533c-2.647-3.187-7.376-3.625-10.562-0.979c-3.187,2.646-3.625,7.375-0.979,10.562    c6.307,7.595,15.871,11.951,26.242,11.951c18.222,0,33.047-13.687,33.047-30.51C199.074,269.837,194.668,261.598,187.706,256z" fill="#FFFFFF"/>
	</g>
</g>
<g>
	<g>
		<path d="M384.852,156.463c-14.285,0-25.907,11.622-25.907,25.907c0,14.285,11.622,25.907,25.907,25.907    c14.285,0,25.907-11.622,25.907-25.907C410.759,168.085,399.137,156.463,384.852,156.463z M384.852,193.277    c-6.015,0-10.907-4.893-10.907-10.907s4.893-10.907,10.907-10.907c6.014,0,10.907,4.893,10.907,10.907    S390.866,193.277,384.852,193.277z" fill="#FFFFFF"/>
	</g>
</g>
<g>
</g>
<g>
</g>
<g>
</g>
<g>
</g>
<g>
</g>
<g>
</g>
<g>
</g>
<g>
</g>
<g>
</g>
<g>
</g>
<g>
</g>
<g>
</g>
<g>
</g>
<g>
</g>
<g>
</g>
</svg>
