<?xml version="1.0" encoding="iso-8859-1"?>
<!-- Generator: Adobe Illustrator 19.0.0, SVG Export Plug-In . SVG Version: 6.00 Build 0)  -->
<svg version="1.1" id="Capa_1" xmlns="http://www.w3.org/2000/svg" xmlns:xlink="http://www.w3.org/1999/xlink" x="0px" y="0px"
	 viewBox="0 0 512 512" style="enable-background:new 0 0 512 512;" xml:space="preserve">
<path style="fill:#EF5A50;" d="M427.467,157.385H277.672c-0.655,0-1.279,0.135-1.854,0.367v294.564c0,1.423-0.61,2.704-1.573,3.617
	c0.898,0.851,2.102,1.383,3.428,1.383h149.795c2.75,0,5-2.25,5-5V162.385C432.467,159.635,430.217,157.385,427.467,157.385z"/>
<path style="opacity:0.1;enable-background:new    ;" d="M294.205,452.316V162.385c0-2.75,2.25-5,5-5h-21.533
	c-0.655,0-1.279,0.135-1.854,0.367v294.564c0,1.423-0.61,2.704-1.573,3.617c0.898,0.851,2.102,1.383,3.428,1.383h21.533
	C296.455,457.316,294.205,455.066,294.205,452.316z"/>
<path style="fill:#B1E8FF;" d="M399.753,229.094c0,1.65-1.351,3-3,3h-88.367c-1.649,0-3-1.35-3-3v-27.972c0-1.65,1.351-3,3-3h88.367
	c1.649,0,3,1.35,3,3V229.094z"/>
<path style="fill:#FCC96C;" d="M399.753,289.489c0,1.65-1.351,3-3,3h-88.367c-1.649,0-3-1.35-3-3v-27.972c0-1.65,1.351-3,3-3h88.367
	c1.649,0,3,1.35,3,3V289.489z"/>
<path style="fill:#B1E8FF;" d="M399.753,349.884c0,1.65-1.351,3-3,3h-88.367c-1.649,0-3-1.35-3-3v-27.973c0-1.65,1.351-3,3-3h88.367
	c1.649,0,3,1.35,3,3V349.884z"/>
<path style="fill:#FFBB4A;" d="M275.817,452.316c0,2.75-2.25,5-5,5H84.533c-2.75,0-5-2.25-5-5V59.684c0-2.75,2.25-5,5-5h186.284
	c2.75,0,5,2.25,5,5V452.316z"/>
<g style="opacity:0.1;">
	<path d="M101,452.316V59.684c0-2.75,2.25-5,5-5H84.533c-2.75,0-5,2.25-5,5v392.633c0,2.75,2.25,5,5,5H106
		C103.25,457.316,101,455.066,101,452.316z"/>
</g>
<g>
	<path style="fill:#B1E8FF;" d="M139.929,128.436c0,1.65-1.35,3-3,3h-19.165c-1.65,0-3-1.35-3-3V94.172c0-1.65,1.35-3,3-3h19.165
		c1.65,0,3,1.35,3,3V128.436z"/>
	<path style="fill:#B1E8FF;" d="M190.258,128.436c0,1.65-1.35,3-3,3h-19.165c-1.65,0-3-1.35-3-3V94.172c0-1.65,1.35-3,3-3h19.165
		c1.65,0,3,1.35,3,3V128.436z"/>
</g>
<path style="fill:#74B9DF;" d="M240.587,128.436c0,1.65-1.35,3-3,3h-19.165c-1.65,0-3-1.35-3-3V94.172c0-1.65,1.35-3,3-3h19.165
	c1.65,0,3,1.35,3,3V128.436z"/>
<g>
	<path style="fill:#B1E8FF;" d="M139.929,192.605c0,1.65-1.35,3-3,3h-19.165c-1.65,0-3-1.35-3-3v-34.263c0-1.65,1.35-3,3-3h19.165
		c1.65,0,3,1.35,3,3V192.605z"/>
	<path style="fill:#B1E8FF;" d="M190.258,192.605c0,1.65-1.35,3-3,3h-19.165c-1.65,0-3-1.35-3-3v-34.263c0-1.65,1.35-3,3-3h19.165
		c1.65,0,3,1.35,3,3V192.605z"/>
	<path style="fill:#B1E8FF;" d="M240.587,192.605c0,1.65-1.35,3-3,3h-19.165c-1.65,0-3-1.35-3-3v-34.263c0-1.65,1.35-3,3-3h19.165
		c1.65,0,3,1.35,3,3V192.605z"/>
</g>
<path style="fill:#74B9DF;" d="M139.929,256.775c0,1.65-1.35,3-3,3h-19.165c-1.65,0-3-1.35-3-3v-34.263c0-1.65,1.35-3,3-3h19.165
	c1.65,0,3,1.35,3,3V256.775z"/>
<g>
	<path style="fill:#B1E8FF;" d="M190.258,256.775c0,1.65-1.35,3-3,3h-19.165c-1.65,0-3-1.35-3-3v-34.263c0-1.65,1.35-3,3-3h19.165
		c1.65,0,3,1.35,3,3V256.775z"/>
	<path style="fill:#B1E8FF;" d="M240.587,256.775c0,1.65-1.35,3-3,3h-19.165c-1.65,0-3-1.35-3-3v-34.263c0-1.65,1.35-3,3-3h19.165
		c1.65,0,3,1.35,3,3V256.775z"/>
	<path style="fill:#B1E8FF;" d="M139.929,320.944c0,1.65-1.35,3-3,3h-19.165c-1.65,0-3-1.35-3-3v-34.263c0-1.65,1.35-3,3-3h19.165
		c1.65,0,3,1.35,3,3V320.944z"/>
	<path style="fill:#B1E8FF;" d="M190.258,320.944c0,1.65-1.35,3-3,3h-19.165c-1.65,0-3-1.35-3-3v-34.263c0-1.65,1.35-3,3-3h19.165
		c1.65,0,3,1.35,3,3V320.944z"/>
	<path style="fill:#B1E8FF;" d="M240.587,320.944c0,1.65-1.35,3-3,3h-19.165c-1.65,0-3-1.35-3-3v-34.263c0-1.65,1.35-3,3-3h19.165
		c1.65,0,3,1.35,3,3V320.944z"/>
</g>
<path style="fill:#74B9DF;" d="M215.422,454.316c0,1.65-1.35,3-3,3h-69.493c-1.65,0-3-1.35-3-3v-89.625c0-1.65,1.35-3,3-3h69.493
	c1.65,0,3,1.35,3,3V454.316z"/>
<circle style="fill:#86D5B5;" cx="462.98" cy="369.24" r="41.521"/>
<g style="opacity:0.1;">
	<path d="M443,369.241c0-19.206,13.042-35.358,30.75-40.103c-3.435-0.92-7.045-1.419-10.772-1.419
		c-22.932,0-41.521,18.59-41.521,41.522s18.59,41.522,41.521,41.522c3.727,0,7.336-0.499,10.772-1.419
		C456.042,404.598,443,388.446,443,369.241z"/>
</g>
<circle style="fill:#86D5B5;" cx="49.02" cy="369.24" r="41.521"/>
<g style="opacity:0.1;">
	<path d="M29,369.241c0-19.213,13.053-35.371,30.771-40.109c-3.43-0.917-7.031-1.413-10.75-1.413
		c-22.932,0-41.521,18.59-41.521,41.522s18.59,41.522,41.521,41.522c3.719,0,7.32-0.496,10.75-1.413
		C42.053,404.611,29,388.454,29,369.241z"/>
</g>
<path d="M504.5,449.816h-34.022v-32.135c3.496-0.537,6.921-1.442,10.236-2.73c3.861-1.499,5.776-5.845,4.276-9.706
	c-1.5-3.86-5.846-5.777-9.706-4.276c-3.917,1.521-8.057,2.293-12.304,2.293h-0.002c-18.761,0-34.022-15.262-34.022-34.022
	s15.262-34.022,34.021-34.022c18.76,0,34.022,15.262,34.022,34.022c0,4.474-0.853,8.817-2.533,12.91
	c-1.574,3.832,0.256,8.213,4.088,9.787c3.834,1.576,8.214-0.256,9.787-4.088c2.428-5.909,3.658-12.17,3.658-18.609
	c0-27.031-21.991-49.022-49.022-49.022c-8.313,0-16.144,2.087-23.012,5.754V251c0-4.142-3.357-7.5-7.5-7.5s-7.5,3.358-7.5,7.5
	v87.329c-6.877,8.44-11.01,19.201-11.01,30.912s4.133,22.472,11.01,30.912v49.664H283.317V164.885h141.649V219
	c0,4.142,3.357,7.5,7.5,7.5s7.5-3.358,7.5-7.5v-56.615c0-6.893-5.607-12.5-12.5-12.5H283.317v-30.885c0-4.142-3.357-7.5-7.5-7.5
	s-7.5,3.358-7.5,7.5v330.817h-45.396v-85.125c0-5.79-4.71-10.5-10.5-10.5h-69.493c-5.79,0-10.5,4.71-10.5,10.5v85.125H87.033
	v-49.664c6.877-8.44,11.01-19.201,11.01-30.912s-4.133-22.472-11.01-30.912V62.184h181.284V85c0,4.142,3.357,7.5,7.5,7.5
	s7.5-3.358,7.5-7.5V59.684c0-6.893-5.607-12.5-12.5-12.5H84.533c-6.893,0-12.5,5.607-12.5,12.5v266.289
	c-6.866-3.667-14.699-5.754-23.012-5.754C21.991,320.219,0,342.21,0,369.241c0,24.481,18.038,44.827,41.521,48.448v32.128H7.5
	c-4.143,0-7.5,3.358-7.5,7.5s3.357,7.5,7.5,7.5h497c4.143,0,7.5-3.358,7.5-7.5C512,453.174,508.643,449.816,504.5,449.816z
	 M15,369.241c0-18.76,15.262-34.022,34.021-34.022s34.021,15.262,34.021,34.022c0,18.759-15.262,34.022-34.021,34.022
	S15,388,15,369.241z M56.521,417.689c5.528-0.853,10.751-2.638,15.512-5.18v37.308H56.521V417.689z M147.429,449.816v-80.625h22.747
	v80.625H147.429z M185.176,449.816v-80.625h22.746v80.625H185.176z M439.967,412.509c4.761,2.542,9.983,4.327,15.512,5.179v32.128
	h-15.512V412.509z"/>
<path d="M407.253,201.122c0-5.79-4.71-10.5-10.5-10.5h-88.367c-5.79,0-10.5,4.71-10.5,10.5v27.972c0,5.79,4.71,10.5,10.5,10.5
	h88.367c5.79,0,10.5-4.71,10.5-10.5V201.122z M392.253,224.594h-79.367v-18.972h79.367V224.594z"/>
<path d="M407.253,261.517c0-5.79-4.71-10.5-10.5-10.5h-88.367c-5.79,0-10.5,4.71-10.5,10.5v27.972c0,5.789,4.71,10.5,10.5,10.5
	h88.367c5.79,0,10.5-4.711,10.5-10.5V261.517z M392.253,284.989h-79.367v-18.972h79.367V284.989z"/>
<path d="M396.753,311.411h-88.367c-5.79,0-10.5,4.711-10.5,10.5v27.973c0,5.79,4.71,10.5,10.5,10.5h88.367
	c5.79,0,10.5-4.71,10.5-10.5v-27.973C407.253,316.122,402.543,311.411,396.753,311.411z M392.253,345.384h-79.367v-18.973h79.367
	V345.384z"/>
<path d="M147.429,94.172c0-5.79-4.71-10.5-10.5-10.5h-19.165c-5.79,0-10.5,4.71-10.5,10.5v34.263c0,5.79,4.71,10.5,10.5,10.5h19.165
	c5.79,0,10.5-4.71,10.5-10.5V94.172z M132.429,123.936h-10.165V98.672h10.165V123.936z"/>
<path d="M197.758,94.172c0-5.79-4.71-10.5-10.5-10.5h-19.165c-5.79,0-10.5,4.71-10.5,10.5v34.263c0,5.79,4.71,10.5,10.5,10.5h19.165
	c5.79,0,10.5-4.71,10.5-10.5V94.172z M182.758,123.936h-10.165V98.672h10.165V123.936z"/>
<path d="M248.087,94.172c0-5.79-4.71-10.5-10.5-10.5h-19.165c-5.79,0-10.5,4.71-10.5,10.5v34.263c0,5.79,4.71,10.5,10.5,10.5h19.165
	c5.79,0,10.5-4.71,10.5-10.5V94.172z M233.087,123.936h-10.165V98.672h10.165V123.936z"/>
<path d="M147.429,158.342c0-5.79-4.71-10.5-10.5-10.5h-19.165c-5.79,0-10.5,4.71-10.5,10.5v34.263c0,5.79,4.71,10.5,10.5,10.5
	h19.165c5.79,0,10.5-4.71,10.5-10.5V158.342z M132.429,188.105h-10.165v-25.263h10.165V188.105z"/>
<path d="M197.758,158.342c0-5.79-4.71-10.5-10.5-10.5h-19.165c-5.79,0-10.5,4.71-10.5,10.5v34.263c0,5.79,4.71,10.5,10.5,10.5
	h19.165c5.79,0,10.5-4.71,10.5-10.5V158.342z M182.758,188.105h-10.165v-25.263h10.165V188.105z"/>
<path d="M248.087,158.342c0-5.79-4.71-10.5-10.5-10.5h-19.165c-5.79,0-10.5,4.71-10.5,10.5v34.263c0,5.79,4.71,10.5,10.5,10.5
	h19.165c5.79,0,10.5-4.71,10.5-10.5V158.342z M233.087,188.105h-10.165v-25.263h10.165V188.105z"/>
<path d="M147.429,222.512c0-5.79-4.71-10.5-10.5-10.5h-19.165c-5.79,0-10.5,4.71-10.5,10.5v34.263c0,5.79,4.71,10.5,10.5,10.5
	h19.165c5.79,0,10.5-4.71,10.5-10.5V222.512z M132.429,252.275h-10.165v-25.263h10.165V252.275z"/>
<path d="M197.758,222.512c0-5.79-4.71-10.5-10.5-10.5h-19.165c-5.79,0-10.5,4.71-10.5,10.5v34.263c0,5.79,4.71,10.5,10.5,10.5
	h19.165c5.79,0,10.5-4.71,10.5-10.5V222.512z M182.758,252.275h-10.165v-25.263h10.165V252.275z"/>
<path d="M248.087,222.512c0-5.79-4.71-10.5-10.5-10.5h-19.165c-5.79,0-10.5,4.71-10.5,10.5v34.263c0,5.79,4.71,10.5,10.5,10.5
	h19.165c5.79,0,10.5-4.71,10.5-10.5V222.512z M233.087,252.275h-10.165v-25.263h10.165V252.275z"/>
<path d="M136.929,276.181h-19.165c-5.79,0-10.5,4.71-10.5,10.5v34.263c0,5.79,4.71,10.5,10.5,10.5h19.165
	c5.79,0,10.5-4.71,10.5-10.5v-34.263C147.429,280.892,142.719,276.181,136.929,276.181z M132.429,316.444h-10.165v-25.263h10.165
	V316.444z"/>
<path d="M187.258,276.181h-19.165c-5.79,0-10.5,4.71-10.5,10.5v34.263c0,5.79,4.71,10.5,10.5,10.5h19.165
	c5.79,0,10.5-4.71,10.5-10.5v-34.263C197.758,280.892,193.048,276.181,187.258,276.181z M182.758,316.444h-10.165v-25.263h10.165
	V316.444z"/>
<path d="M237.587,276.181h-19.165c-5.79,0-10.5,4.71-10.5,10.5v34.263c0,5.79,4.71,10.5,10.5,10.5h19.165
	c5.79,0,10.5-4.71,10.5-10.5v-34.263C248.087,280.892,243.377,276.181,237.587,276.181z M233.087,316.444h-10.165v-25.263h10.165
	V316.444z"/>
<g>
</g>
<g>
</g>
<g>
</g>
<g>
</g>
<g>
</g>
<g>
</g>
<g>
</g>
<g>
</g>
<g>
</g>
<g>
</g>
<g>
</g>
<g>
</g>
<g>
</g>
<g>
</g>
<g>
</g>
</svg>
