<?xml version="1.0" encoding="iso-8859-1"?>
<!-- Generator: Adobe Illustrator 19.0.0, SVG Export Plug-In . SVG Version: 6.00 Build 0)  -->
<svg version="1.1" id="Capa_1" xmlns="http://www.w3.org/2000/svg" xmlns:xlink="http://www.w3.org/1999/xlink" x="0px" y="0px"
	 viewBox="0 0 512.405 512.405" style="enable-background:new 0 0 512.405 512.405;" xml:space="preserve">
<path style="fill:#403E3E;" d="M330.927,394.979h-21.351v-21.351c0-34.787,11.988-59.108,45.828-92.947
	c15.106-15.112,50.247-56.06,50.247-109.88c0-82.408-67.042-149.452-149.446-149.452c-82.409,0-149.451,67.042-149.451,149.452
	c0,53.818,35.142,94.768,50.248,109.88c33.833,33.84,45.828,58.161,45.828,92.947v21.351h-21.35v-21.351
	c0-28.98-9.616-47.892-39.572-77.854c-16.988-16.992-56.503-63.174-56.503-124.973C85.405,76.624,162.028,0,256.207,0
	c94.173,0,170.796,76.624,170.796,170.801c0,61.8-39.51,107.982-56.503,124.973c-29.961,29.96-39.572,48.872-39.572,77.854v21.349
	h-0.001V394.979L330.927,394.979z"/>
<rect x="181.476" y="394.981" style="fill:#43D3E8;" width="149.449" height="74.724"/>
<g>
	<rect x="170.803" y="384.302" style="fill:#403E3E;" width="32.026" height="21.353"/>
	<rect x="170.803" y="427.007" style="fill:#403E3E;" width="32.026" height="21.353"/>
	<rect x="224.182" y="384.302" style="fill:#403E3E;" width="117.423" height="21.353"/>
	<rect x="224.182" y="427.007" style="fill:#403E3E;" width="117.423" height="21.353"/>
	<path style="fill:#403E3E;" d="M288.226,512.405H224.18c-5.713,0-11.076-2.22-15.106-6.263c-4.028-4.035-6.245-9.393-6.245-15.086
		v-21.35h21.351v21.35h64.045v-21.35h21.349v21.35c0,5.702-2.219,11.06-6.256,15.092
		C299.318,510.175,293.948,512.405,288.226,512.405z"/>
	<path style="fill:#403E3E;" d="M459.08,384.407l-0.103-21.349c16.992-0.085,20.045-6.65,21.713-13.366
		c7.089-28.221-42.825-61.851-97.828-93.991l10.78-18.431c73.914,43.189,117.719,77.935,107.763,117.603
		C496.547,374.359,482.306,384.295,459.08,384.407z"/>
	<path style="fill:#403E3E;" d="M382.164,378.54c-42.992-8.79-95.327-25.491-151.333-48.299
		c-73.359-30.003-199.458-88.477-219.959-143.034c-4.271-11.357-3.957-22.075,0.933-31.854
		c14.156-28.288,44.696-27.568,86.281-23.461l-2.095,21.245c-43.774-4.314-58.359-1.678-65.088,11.766
		c-2.182,4.362-2.2,9.065-0.047,14.799c12.515,33.297,92.23,83.406,208.04,130.777c54.803,22.31,105.822,38.612,147.544,47.151
		L382.164,378.54z"/>
	<path style="fill:#403E3E;" d="M405.651,405.656c-17.659,0-32.025-14.365-32.025-32.026c0-17.661,14.366-32.027,32.025-32.027
		c17.661,0,32.025,14.366,32.025,32.027C437.677,391.291,423.312,405.656,405.651,405.656z M405.651,362.954
		c-5.889,0-10.674,4.785-10.674,10.674c0,5.891,4.785,10.676,10.674,10.676c5.891,0,10.676-4.785,10.676-10.676
		C416.327,367.74,411.542,362.954,405.651,362.954z"/>
	<path style="fill:#403E3E;" d="M71.122,385.639c-16.116,0-30.164-2.252-40.746-7.611c-10.179-5.161-16.884-13.166-19.38-23.164
		c-3.647-14.387,0.087-29.378,11.124-44.525l17.253,12.573c-7.312,10.038-9.752,18.537-7.673,26.741
		c0.637,2.532,2.175,6.212,8.325,9.33c30.616,15.533,124.426-3.983,233.492-48.507c115.8-47.366,195.519-97.478,208.029-130.775
		c2.158-5.727,2.147-10.435-0.041-14.799c-6.714-13.448-21.361-16.081-65.082-11.764l-2.107-21.245
		c41.595-4.097,72.15-4.832,86.286,23.461c4.889,9.779,5.203,20.495,0.926,31.859c-20.495,54.559-146.592,113.026-219.932,143.029
		C245.256,345.077,139.546,385.639,71.122,385.639z"/>
	<path style="fill:#403E3E;" d="M42.705,330.929c-17.659,0-32.026-14.365-32.026-32.025c0-17.661,14.364-32.028,32.026-32.028
		c17.661,0,32.026,14.366,32.026,32.028C74.731,316.564,60.363,330.929,42.705,330.929z M42.705,288.228
		c-5.885,0-10.676,4.787-10.676,10.676s4.792,10.674,10.676,10.674c5.883,0,10.675-4.785,10.675-10.674
		S48.588,288.228,42.705,288.228z"/>
</g>
<path style="fill:#F96232;" d="M256.207,74.726c-53.069,0-96.076,43.008-96.076,96.076c0,53.052,43.008,96.076,96.076,96.076
	c53.056,0,96.07-43.023,96.07-96.076C352.275,117.734,309.263,74.726,256.207,74.726z M256.207,213.504
	c-23.581,0-42.701-19.12-42.701-42.702c0-23.582,19.119-42.699,42.701-42.699c23.576,0,42.695,19.119,42.695,42.699
	C298.901,194.383,279.782,213.504,256.207,213.504z"/>
<path style="fill:#403E3E;" d="M256.207,224.177c-29.429,0-53.376-23.946-53.376-53.376s23.947-53.374,53.376-53.374
	c29.424,0,53.37,23.946,53.37,53.374C309.576,200.231,285.63,224.177,256.207,224.177z M256.207,138.777
	c-17.66,0-32.026,14.366-32.026,32.025c0,17.662,14.366,32.026,32.026,32.026c17.654,0,32.02-14.365,32.02-32.026
	C288.226,153.143,273.859,138.777,256.207,138.777z"/>
<g>
	<polygon style="fill:#F96232;" points="277.551,96.076 234.857,96.076 245.532,53.376 266.88,53.376 	"/>
	<polygon style="fill:#F96232;" points="237.332,95.414 200.366,116.765 188.257,74.45 206.752,63.775 	"/>
	<polygon style="fill:#F96232;" points="202.167,114.951 180.83,151.928 149.189,121.326 159.875,102.831 	"/>
	<polygon style="fill:#F96232;" points="181.491,149.452 181.501,192.152 138.79,181.467 138.801,160.107 	"/>
	<polygon style="fill:#F96232;" points="180.83,189.676 202.19,226.634 159.865,238.751 149.189,220.238 	"/>
	<polygon style="fill:#F96232;" points="200.375,224.829 237.353,246.169 206.752,277.825 188.246,267.128 	"/>
	<polygon style="fill:#F96232;" points="234.877,245.508 277.572,245.487 266.901,288.206 245.521,288.206 	"/>
	<polygon style="fill:#F96232;" points="275.1,246.169 312.057,224.809 324.17,267.128 305.656,277.825 	"/>
	<polygon style="fill:#F96232;" points="310.254,226.623 331.593,189.645 363.235,220.238 352.546,238.751 	"/>
	<polygon style="fill:#F96232;" points="330.916,192.112 330.906,149.431 373.616,160.095 373.626,181.477 	"/>
	<polygon style="fill:#F96232;" points="331.581,151.896 310.233,114.951 352.538,102.822 363.244,121.336 	"/>
	<polygon style="fill:#F96232;" points="312.026,116.743 275.07,95.414 305.647,63.764 324.17,74.45 	"/>
</g>
<g>
</g>
<g>
</g>
<g>
</g>
<g>
</g>
<g>
</g>
<g>
</g>
<g>
</g>
<g>
</g>
<g>
</g>
<g>
</g>
<g>
</g>
<g>
</g>
<g>
</g>
<g>
</g>
<g>
</g>
</svg>
