<?xml version="1.0" encoding="iso-8859-1"?>
<!-- Generator: Adobe Illustrator 19.0.0, SVG Export Plug-In . SVG Version: 6.00 Build 0)  -->
<svg version="1.1" id="Capa_1" xmlns="http://www.w3.org/2000/svg" xmlns:xlink="http://www.w3.org/1999/xlink" x="0px" y="0px"
	 viewBox="0 0 512 512" style="enable-background:new 0 0 512 512;" xml:space="preserve">
<path style="fill:#EF5350;" d="M501.492,108.939c-2.909-3.937-7.513-6.26-12.41-6.26H112.51c-4.754,0-9.243,2.192-12.168,5.941
	c-2.924,3.749-3.956,8.637-2.797,13.249l33.675,134.015c1.724,6.859,7.891,11.67,14.965,11.67h301.707
	c6.775,0,12.759-4.42,14.749-10.895l41.19-134.016C505.269,117.962,504.401,112.877,501.492,108.939z M457.088,169.687h-98.229
	v-36.15h109.34L457.088,169.687z M240.649,169.687v-36.15h87.35v36.15H240.649z M328,200.545v36.15h-87.35v-36.15H328z
	 M209.79,133.537v36.15h-68.411l-9.083-36.15H209.79z M149.134,200.545h60.657v36.15h-51.573L149.134,200.545z M358.858,236.694
	v-36.15h88.745l-11.11,36.15H358.858z"/>
<g>
	<path style="fill:#CCCCCC;" d="M222.672,323.394l-20.64,18.973l11.998,42.493c3.562,7.119,13.723,7.119,17.285,0l11.998-42.493
		L222.672,323.394z"/>
	<path style="fill:#CCCCCC;" d="M410.909,323.394l-20.64,18.973l11.998,42.493c3.562,7.119,13.723,7.119,17.285,0l11.998-42.493
		L410.909,323.394z"/>
</g>
<polygon style="fill:#D44A47;" points="156.186,267.553 199.554,267.553 191.877,236.694 158.218,236.694 149.134,200.545 
	182.882,200.545 175.205,169.686 141.379,169.686 132.296,133.537 166.21,133.537 158.532,102.679 112.51,102.679 "/>
<path style="fill:#B3B3B3;" d="M471.081,342.367H202.032c-30.546,0-57.031-20.702-64.405-50.344L93.033,112.79
	c-2.365-9.505-10.857-16.144-20.653-16.144H25.49c-9.941,0-18.001-8.059-18.001-18.001s8.059-18.001,18.001-18.001h46.89
	c26.365,0,49.224,17.869,55.59,43.454l44.594,179.233c3.374,13.563,15.492,23.034,29.467,23.034h269.05
	c9.941,0,18.001,8.059,18.001,18.001S481.023,342.367,471.081,342.367z"/>
<circle style="fill:#424242;" cx="222.67" cy="407.429" r="43.928"/>
<path style="fill:#333333;" d="M192.745,407.428c0-21.878,15.996-40.013,36.928-43.367c-2.28-0.365-4.617-0.562-7-0.562
	c-24.261,0-43.928,19.668-43.928,43.928c0,24.26,19.668,43.928,43.928,43.928c2.383,0,4.72-0.196,7-0.562
	C208.739,447.441,192.745,429.306,192.745,407.428z"/>
<circle style="fill:#424242;" cx="410.908" cy="407.429" r="43.928"/>
<path style="fill:#333333;" d="M381.981,407.428c0-21.702,15.743-39.717,36.428-43.277c-2.439-0.42-4.942-0.651-7.5-0.651
	c-24.261,0-43.928,19.668-43.928,43.928c0,24.26,19.668,43.928,43.928,43.928c2.558,0,5.061-0.231,7.5-0.651
	C397.724,447.144,381.981,429.13,381.981,407.428z"/>
<circle cx="222.68" cy="407.429" r="18.2"/>
<circle cx="410.918" cy="407.429" r="18.2"/>
<path d="M469.821,258.861c0,0,41.144-133.866,41.19-134.016c4.463-14.521-6.756-29.666-21.917-29.666h-356.05
	c-9.374-25.079-33.346-42.035-60.652-42.035H25.501C11.44,53.144,0,64.583,0,78.645s11.44,25.501,25.501,25.501h46.89
	c6.343,0,11.844,4.299,13.375,10.455l44.594,179.232c7.742,31.118,34.41,53.375,65.942,55.803l3.341,11.834
	c-16.817,8.465-28.388,25.881-28.388,45.958c0,28.357,23.071,51.428,51.428,51.428s51.428-23.071,51.428-51.428
	c0-20.077-11.572-37.492-28.388-45.958l3.276-11.603h135.605l3.276,11.603c-16.817,8.465-28.388,25.881-28.388,45.958
	c0,28.357,23.071,51.428,51.428,51.428s51.428-23.071,51.428-51.428c0-20.077-11.572-37.492-28.388-45.958l3.276-11.603h33.856
	c14.062,0,25.501-11.44,25.501-25.501s-11.44-25.501-25.501-25.501H202.043c-10.523,0-19.648-7.132-22.189-17.345l-1.609-6.466
	h269.658C458.038,275.054,466.845,268.545,469.821,258.861z M161.573,208.046h40.729v21.149h-35.467L161.573,208.046z
	 M144.902,141.038h57.401v21.149h-52.138L144.902,141.038z M259.112,407.428c0,20.086-16.342,36.428-36.428,36.428
	s-36.428-16.342-36.428-36.428c0-16.118,10.526-29.816,25.063-34.603c7.328-2.413,15.383-2.405,22.712-0.006
	C248.576,377.6,259.112,391.303,259.112,407.428z M231.468,356.755c0.033-0.112-8.044-0.755-8.784-0.755
	c-2.938,0-5.889,0.255-8.784,0.755l-1.945-6.887h21.458L231.468,356.755z M447.349,407.428c0,20.086-16.342,36.428-36.428,36.428
	c-20.086,0-36.428-16.342-36.428-36.428c0-16.125,10.535-29.827,25.081-34.609c7.301-2.4,15.39-2.391,22.693,0
	C436.814,377.6,447.349,391.303,447.349,407.428z M419.715,356.753c0.021-0.184-8.064-0.754-8.794-0.754
	c-2.94,0-5.888,0.251-8.784,0.755l-1.944-6.887h21.458C421.004,352.154,420.252,354.447,419.715,356.753z M202.043,313.865h269.049
	c5.79,0,10.5,4.71,10.5,10.5s-4.71,10.5-10.5,10.5H202.043c-27.094,0-50.585-18.363-57.127-44.655l-44.594-179.232
	c-3.198-12.856-14.684-21.834-27.931-21.834h-46.89c-5.79,0-10.5-4.71-10.5-10.5c0-5.79,4.71-10.5,10.5-10.5h46.89
	c22.476,0,42.011,14.947,47.969,36.504c0.002,0.009,44.936,180.493,44.936,180.493C169.505,302.054,184.615,313.865,202.043,313.865
	z M170.568,244.195h39.235c4.142,0,7.5-3.358,7.5-7.5v-36.15c0-4.142-3.358-7.5-7.5-7.5h-51.961l-3.945-15.858h55.907
	c4.142,0,7.5-3.358,7.5-7.5v-36.15c0-4.142-3.358-7.5-7.5-7.5h-68.633l-3.945-15.858c0,0,351.344,0,351.869,0
	c5.252,0,9.122,5.236,7.579,10.257l-41.19,134.017c-1.029,3.349-4.074,5.598-7.578,5.598H174.513L170.568,244.195z"/>
<path d="M453.579,196.133c-1.361-1.839-3.517-3.088-5.965-3.088h-88.745c-4.142,0-7.5,3.358-7.5,7.5v36.15
	c0,4.142,3.358,7.5,7.5,7.5h77.635c3.293,0,6.202-2.148,7.169-5.296c0,0,10.997-35.777,11.11-36.147
	C455.507,200.395,454.939,197.97,453.579,196.133z M430.962,229.195h-64.593v-21.149h71.093L430.962,229.195z"/>
<path d="M358.87,177.187H457.1c3.293,0,6.202-2.148,7.169-5.297c0,0,11.063-35.995,11.11-36.149
	c1.464-4.764-2.218-9.704-7.169-9.704H358.87c-4.142,0-7.5,3.358-7.5,7.5v36.15C351.37,173.829,354.727,177.187,358.87,177.187z
	 M366.37,141.038h91.688l-6.5,21.149H366.37V141.038z"/>
<path d="M328.011,193.045h-87.35c-4.142,0-7.5,3.358-7.5,7.5v36.15c0,4.142,3.358,7.5,7.5,7.5h87.35c4.142,0,7.5-3.358,7.5-7.5
	v-36.15C335.511,196.403,332.153,193.045,328.011,193.045z M320.51,229.195h-72.349v-21.149h72.349V229.195z"/>
<path d="M328.011,126.037h-87.35c-4.142,0-7.5,3.358-7.5,7.5v36.15c0,4.142,3.358,7.5,7.5,7.5h87.35c4.142,0,7.5-3.358,7.5-7.5
	v-36.15C335.511,129.395,332.153,126.037,328.011,126.037z M320.51,162.187h-72.349v-21.149h72.349V162.187z"/>
<g>
</g>
<g>
</g>
<g>
</g>
<g>
</g>
<g>
</g>
<g>
</g>
<g>
</g>
<g>
</g>
<g>
</g>
<g>
</g>
<g>
</g>
<g>
</g>
<g>
</g>
<g>
</g>
<g>
</g>
</svg>
