<?xml version="1.0" encoding="iso-8859-1"?>
<!-- Generator: Adobe Illustrator 19.0.0, SVG Export Plug-In . SVG Version: 6.00 Build 0)  -->
<svg version="1.1" id="Layer_1" xmlns="http://www.w3.org/2000/svg" xmlns:xlink="http://www.w3.org/1999/xlink" x="0px" y="0px"
	 viewBox="0 0 490 490" style="enable-background:new 0 0 490 490;" xml:space="preserve">
<g>
	<g id="XMLID_30_">
		<g>
			<polygon style="fill:#AFB6BB;" points="480,40 480,80 460,80 30,80 10,80 10,40 205,40 285,40 			"/>
			<path style="fill:#E7ECED;" d="M105,290c-16.602,0-30,13.398-30,30s13.398,30,30,30s30-13.398,30-30S121.602,290,105,290z
				 M460,80v310H270h-50H30V80H460z"/>
			<rect x="205" y="10" style="fill:#546A79;" width="80" height="30"/>
			<rect x="220" y="390" style="fill:#AFB6BB;" width="50" height="90"/>
			<path style="fill:#43B05C;" d="M105,290c16.602,0,30,13.398,30,30s-13.398,30-30,30s-30-13.398-30-30S88.398,290,105,290z"/>
		</g>
		<g>
			<path style="fill:#231F20;" d="M480,30H295V10c0-5.523-4.477-10-10-10h-80c-5.523,0-10,4.477-10,10v20H10C4.477,30,0,34.477,0,40
				v40c0,5.523,4.477,10,10,10h10v300c0,5.523,4.477,10,10,10h180v80c0,5.523,4.477,10,10,10h50c5.523,0,10-4.477,10-10v-80h180
				c5.523,0,10-4.477,10-10V90h10c5.523,0,10-4.477,10-10V40C490,34.477,485.523,30,480,30z M215,20h60v10h-60V20z M260,470h-30v-70
				h30V470z M450,380H40V90h410V380z M470,70H20V50h450V70z"/>
			<polygon style="fill:#231F20;" points="222.743,278.217 205,295.887 187.257,278.217 173.144,292.389 190.828,310 
				173.144,327.611 187.257,341.783 205,324.113 222.743,341.783 236.856,327.611 219.172,310 236.856,292.389 			"/>
			<polygon style="fill:#231F20;" points="177.271,201.871 195,184.143 212.729,201.871 226.871,187.729 209.143,170 
				226.871,152.272 212.729,138.129 195,155.857 177.271,138.129 163.129,152.272 180.857,170 163.129,187.729 			"/>
			<polygon style="fill:#231F20;" points="267.389,201.856 285,184.172 302.611,201.856 316.783,187.743 299.113,170 
				316.783,152.257 302.611,138.144 285,155.828 267.389,138.144 253.217,152.257 270.887,170 253.217,187.743 			"/>
			<polygon style="fill:#231F20;" points="87.271,201.871 105,184.143 122.729,201.871 136.871,187.729 119.143,170 
				136.871,152.272 122.729,138.129 105,155.857 87.271,138.129 73.129,152.272 90.857,170 73.129,187.729 			"/>
			<polygon style="fill:#231F20;" points="312.626,278.231 295,295.857 277.374,278.231 263.231,292.374 280.857,310 
				263.231,327.626 277.374,341.769 295,324.143 312.626,341.769 326.769,327.626 309.143,310 326.769,292.374 			"/>
			<polygon style="fill:#231F20;" points="402.626,278.231 385,295.857 367.374,278.231 353.231,292.374 370.857,310 
				353.231,327.626 367.374,341.769 385,324.143 402.626,341.769 416.769,327.626 399.143,310 416.769,292.374 			"/>
			<path style="fill:#231F20;" d="M105,360c22.056,0,40-17.944,40-40c0-18.604-12.767-34.282-30-38.734V250h265
				c9.743,0,15-7.728,15-15v-90.858l22.929,22.929l14.143-14.143l-40-40c-3.905-3.905-10.237-3.905-14.143,0l-40,40l14.143,14.143
				L375,144.142V230H110c-9.743,0-15,7.729-15,15v36.266c-17.233,4.452-30,20.13-30,38.734C65,342.056,82.944,360,105,360z M105,300
				c11.028,0,20,8.972,20,20s-8.972,20-20,20s-20-8.972-20-20S93.972,300,105,300z"/>
			<rect x="95" y="310" style="fill:#231F20;" width="20" height="20"/>
		</g>
	</g>
</g>
<g>
</g>
<g>
</g>
<g>
</g>
<g>
</g>
<g>
</g>
<g>
</g>
<g>
</g>
<g>
</g>
<g>
</g>
<g>
</g>
<g>
</g>
<g>
</g>
<g>
</g>
<g>
</g>
<g>
</g>
</svg>
